<svg xmlns="http://www.w3.org/2000/svg" xmlns:xlink="http://www.w3.org/1999/xlink" width="474.957" height="867.016" viewBox="0 0 474.957 867.016">
  <defs>
    <filter id="Path_4526" x="0" y="210.81" width="474.957" height="474.956" filterUnits="userSpaceOnUse">
      <feOffset dy="20" input="SourceAlpha"/>
      <feGaussianBlur stdDeviation="49.5" result="blur"/>
      <feFlood flood-color="#3c485a" flood-opacity="0.149"/>
      <feComposite operator="in" in2="blur"/>
      <feComposite in="SourceGraphic"/>
    </filter>
    <filter id="Path_4522" x="47.598" y="490.817" width="376.198" height="376.198" filterUnits="userSpaceOnUse">
      <feOffset dy="5" input="SourceAlpha"/>
      <feGaussianBlur stdDeviation="49.5" result="blur-2"/>
      <feFlood flood-color="#3c485a" flood-opacity="0.102"/>
      <feComposite operator="in" in2="blur-2"/>
      <feComposite in="SourceGraphic"/>
    </filter>
    <filter id="Path_4528" x="47.598" y="0" width="376.198" height="376.198" filterUnits="userSpaceOnUse">
      <feOffset dy="5" input="SourceAlpha"/>
      <feGaussianBlur stdDeviation="49.5" result="blur-3"/>
      <feFlood flood-color="#3c485a" flood-opacity="0.102"/>
      <feComposite operator="in" in2="blur-3"/>
      <feComposite in="SourceGraphic"/>
    </filter>
  </defs>
  <g id="Group_3909" data-name="Group 3909" transform="translate(43.477 7.581)">
    <path id="Path_4527" data-name="Path 4527" d="M0,0V100" transform="translate(192.906 206.443)" fill="none" stroke="#cccdd7" stroke-linecap="round" stroke-width="3" stroke-dasharray="1 10"/>
    <path id="Path_4524" data-name="Path 4524" d="M0,0V100" transform="translate(191.533 635.41) rotate(180)" fill="none" stroke="#cccdd7" stroke-linecap="round" stroke-width="3" stroke-dasharray="1 10"/>
    <path id="Path_4525" data-name="Path 4525" d="M114.484,0A114.484,114.484,0,1,1,0,114.484,114.484,114.484,0,0,1,114.484,0Z" transform="translate(308.268 306.443) rotate(90)" fill="none" stroke="#d82125" stroke-linecap="round" stroke-width="3" stroke-dasharray="1 10"/>
    <g transform="matrix(1, 0, 0, 1, -43.48, -7.58)" filter="url(#Path_4526)">
      <path id="Path_4526-2" data-name="Path 4526" d="M88.979,0A88.978,88.978,0,1,1,0,88.978,88.978,88.978,0,0,1,88.979,0Z" transform="translate(148.5 339.31)" fill="#fff"/>
    </g>
    <g id="Group_3147" data-name="Group 3147" transform="translate(149.063 368.39)">
      <path id="Path_1150" data-name="Path 1150" d="M576.165,215.052c-.015.061-.03.124-.043.186a32.561,32.561,0,0,0,3.241,22.918c.165.3.34.583.506.878a2.489,2.489,0,0,1,.5,1.708,2.112,2.112,0,0,1-.937,1.423,4.371,4.371,0,0,1-.819.291c-.32.057-.643.116-.969.159a15.376,15.376,0,0,1-1.99.129,15.223,15.223,0,0,1-2.14-30.294c.041-.005.082-.008.122-.016a2.254,2.254,0,0,1,1.7.242,1.977,1.977,0,0,1,.825,2.378" transform="translate(-560.433 -167.65)" fill="#3d3d3d"/>
      <ellipse id="Ellipse_123" data-name="Ellipse 123" cx="28.414" cy="28.414" rx="28.414" ry="28.414" transform="translate(18.942 26.384)" fill="#d82225"/>
      <path id="Path_1151" data-name="Path 1151" d="M605.389,191.02c.627-.036.761-.02,1.4-.02a32.4,32.4,0,0,1,24.31,10.944,2.791,2.791,0,0,0,1.9,1.266,2.342,2.342,0,0,0,1.924-.666l.463-.393a19.279,19.279,0,1,0-32.322-14.194,3.818,3.818,0,0,0,.193,1.617,2.24,2.24,0,0,0,2.128,1.447" transform="translate(-559.433 -168.675)" fill="#262626"/>
      <path id="Path_1152" data-name="Path 1152" d="M634.789,242.158q.248.332.476.681a12.854,12.854,0,1,1-21.757,13.69c-.1-.169-.2-.344-.3-.515a1.716,1.716,0,0,1-.229-1.638,1.836,1.836,0,0,1,1.521-1.113,9.952,9.952,0,0,0,1.057-.286,32.485,32.485,0,0,0,15.623-10.039c.2-.236.394-.484.6-.718a2.122,2.122,0,0,1,.956-.81,1.669,1.669,0,0,1,1.47.163A1.993,1.993,0,0,1,634.789,242.158Z" transform="translate(-559.203 -166.971)" fill="#3d3d3d"/>
    </g>
    <g transform="matrix(1, 0, 0, 1, -43.48, -7.58)" filter="url(#Path_4522)">
      <path id="Path_4522-2" data-name="Path 4522" d="M8.867,0H69.332A8.867,8.867,0,0,1,78.2,8.867V69.332A8.867,8.867,0,0,1,69.332,78.2H8.867A8.867,8.867,0,0,1,0,69.332V8.867A8.867,8.867,0,0,1,8.867,0Z" transform="translate(274.8 713.02) rotate(180)" fill="#fff" stroke="#b4bbc6" stroke-width="1"/>
    </g>
    <path id="Path_4724" data-name="Path 4724" d="M-53.558,0V-10.664h3.545a4.612,4.612,0,0,1,2.769.729,2.525,2.525,0,0,1,1,2.179,2.142,2.142,0,0,1-.417,1.3,2.465,2.465,0,0,1-1.157.85,2.378,2.378,0,0,1,1.465.916,2.7,2.7,0,0,1,.513,1.633A2.74,2.74,0,0,1-46.827-.78a4.247,4.247,0,0,1-2.71.78Zm1.78-4.849v3.428h2.241a2.141,2.141,0,0,0,1.421-.421,1.508,1.508,0,0,0,.5-1.219,1.915,1.915,0,0,0-.417-1.318,1.66,1.66,0,0,0-1.3-.469Zm0-1.326h1.963a2.007,2.007,0,0,0,1.307-.392,1.352,1.352,0,0,0,.48-1.11,1.383,1.383,0,0,0-.505-1.176,2.415,2.415,0,0,0-1.479-.385h-1.765ZM-37.233,0h-7.083V-1.223l3.472-3.787a8.427,8.427,0,0,0,1.172-1.527,2.45,2.45,0,0,0,.322-1.168,1.773,1.773,0,0,0-.417-1.2,1.414,1.414,0,0,0-1.128-.483,1.738,1.738,0,0,0-1.392.527,2.15,2.15,0,0,0-.454,1.45h-1.721l-.015-.044a3.134,3.134,0,0,1,.93-2.391,3.575,3.575,0,0,1,2.651-.97,3.384,3.384,0,0,1,2.432.85,2.922,2.922,0,0,1,.894,2.219A3.278,3.278,0,0,1-38.086-6a14.749,14.749,0,0,1-1.6,2.029l-2.373,2.5.022.044h4.8Zm1.809,0V-10.664h3.545a4.612,4.612,0,0,1,2.769.729,2.525,2.525,0,0,1,1,2.179,2.142,2.142,0,0,1-.417,1.3,2.465,2.465,0,0,1-1.157.85,2.378,2.378,0,0,1,1.465.916,2.7,2.7,0,0,1,.513,1.633A2.74,2.74,0,0,1-28.693-.78,4.247,4.247,0,0,1-31.4,0Zm1.78-4.849v3.428H-31.4a2.141,2.141,0,0,0,1.421-.421,1.508,1.508,0,0,0,.5-1.219A1.915,1.915,0,0,0-29.9-4.38a1.66,1.66,0,0,0-1.3-.469Zm0-1.326h1.963a2.007,2.007,0,0,0,1.307-.392,1.352,1.352,0,0,0,.48-1.11A1.383,1.383,0,0,0-30.4-8.851a2.415,2.415,0,0,0-1.479-.385h-1.765Zm18.853-3.062h-3.223V0h-1.78V-9.236h-3.223v-1.428h8.225Zm4.6,2.915-.762-.029a1.6,1.6,0,0,0-.868.22,1.447,1.447,0,0,0-.538.623V0h-1.78V-7.925h1.626l.117,1.15a2.542,2.542,0,0,1,.773-.952,1.8,1.8,0,0,1,1.088-.344,1.659,1.659,0,0,1,.3.026,2.193,2.193,0,0,1,.256.062ZM-4.178,0q-.1-.3-.157-.586a4.189,4.189,0,0,1-.084-.571,3.144,3.144,0,0,1-.963.934A2.45,2.45,0,0,1-6.72.154a2.634,2.634,0,0,1-1.9-.637,2.314,2.314,0,0,1-.663-1.75,2.068,2.068,0,0,1,.908-1.791,4.385,4.385,0,0,1,2.556-.641h1.384v-.7A1.287,1.287,0,0,0-4.8-6.335a1.453,1.453,0,0,0-1.047-.352,1.483,1.483,0,0,0-.967.293.93.93,0,0,0-.359.754H-8.888L-8.9-5.684a1.963,1.963,0,0,1,.839-1.663,3.554,3.554,0,0,1,2.318-.725,3.39,3.39,0,0,1,2.234.7,2.475,2.475,0,0,1,.85,2.021v3.523a6.5,6.5,0,0,0,.066.941A5,5,0,0,0-2.377,0ZM-6.361-1.274a2.238,2.238,0,0,0,1.212-.337,1.7,1.7,0,0,0,.714-.769V-3.552H-5.848a1.784,1.784,0,0,0-1.216.385,1.168,1.168,0,0,0-.439.9.923.923,0,0,0,.3.721A1.221,1.221,0,0,0-6.361-1.274Zm5.244-2.578A5.226,5.226,0,0,1-.3-6.91,2.63,2.63,0,0,1,1.981-8.071a2.5,2.5,0,0,1,1.154.26,2.611,2.611,0,0,1,.883.743v-4.358H5.8V0H4.3L4.127-.981a2.619,2.619,0,0,1-.916.846A2.577,2.577,0,0,1,1.967.154,2.7,2.7,0,0,1-.3-.908,4.468,4.468,0,0,1-1.117-3.7ZM.663-3.7a3.191,3.191,0,0,0,.421,1.75A1.475,1.475,0,0,0,2.421-1.3a1.787,1.787,0,0,0,.956-.242,1.84,1.84,0,0,0,.641-.688V-5.684a1.874,1.874,0,0,0-.645-.685,1.742,1.742,0,0,0-.937-.245,1.435,1.435,0,0,0-1.34.765,4.038,4.038,0,0,0-.432,2ZM11.107.154a3.446,3.446,0,0,1-2.684-1.1,4.052,4.052,0,0,1-1-2.831v-.293A4.207,4.207,0,0,1,8.416-6.94,3.139,3.139,0,0,1,10.9-8.071a3.1,3.1,0,0,1,2.457.97,3.8,3.8,0,0,1,.853,2.6V-3.45H9.269l-.015.037a2.5,2.5,0,0,0,.553,1.545,1.749,1.749,0,0,0,1.41.6,3.811,3.811,0,0,0,1.23-.176,4.031,4.031,0,0,0,.989-.505l.571,1.165a3.687,3.687,0,0,1-1.187.667A4.971,4.971,0,0,1,11.107.154Zm-.205-6.8a1.335,1.335,0,0,0-1.084.524A2.579,2.579,0,0,0,9.291-4.79l.015.037h3.142v-.183a1.9,1.9,0,0,0-.385-1.23A1.4,1.4,0,0,0,10.9-6.643Zm14.487,3.9A1.373,1.373,0,0,0,24.9-3.831a4.643,4.643,0,0,0-1.747-.762A7.389,7.389,0,0,1,20.4-5.834a2.472,2.472,0,0,1-.963-2.025A2.586,2.586,0,0,1,20.5-9.983a4.328,4.328,0,0,1,2.75-.835,4.1,4.1,0,0,1,2.823.945A2.82,2.82,0,0,1,27.1-7.6l-.015.044H25.382a1.717,1.717,0,0,0-.557-1.329A2.273,2.273,0,0,0,23.236-9.4a2.324,2.324,0,0,0-1.5.425,1.35,1.35,0,0,0-.524,1.1,1.2,1.2,0,0,0,.568,1.011,6.286,6.286,0,0,0,1.879.762,6.256,6.256,0,0,1,2.615,1.274,2.678,2.678,0,0,1,.894,2.073A2.5,2.5,0,0,1,26.1-.634a4.6,4.6,0,0,1-2.8.787,4.977,4.977,0,0,1-2.93-.883,2.713,2.713,0,0,1-1.223-2.421l.015-.044h1.714a1.666,1.666,0,0,0,.674,1.454,2.951,2.951,0,0,0,1.75.48,2.578,2.578,0,0,0,1.538-.4A1.267,1.267,0,0,0,25.389-2.739Zm5.64-7.112v1.926H32.45v1.318H31.029v4.38a.955.955,0,0,0,.212.7.77.77,0,0,0,.564.209,1.574,1.574,0,0,0,.286-.026,1.736,1.736,0,0,0,.264-.07l.19,1.3A2.041,2.041,0,0,1,32,.084a3.013,3.013,0,0,1-.652.07,2.041,2.041,0,0,1-1.538-.575,2.518,2.518,0,0,1-.557-1.805v-4.38H28.048V-7.925h1.208V-9.851ZM33.7-4.036a4.317,4.317,0,0,1,.967-2.9,3.334,3.334,0,0,1,2.659-1.135A3.324,3.324,0,0,1,40-6.936a4.279,4.279,0,0,1,.974,2.9v.154A4.3,4.3,0,0,1,40-.967,3.327,3.327,0,0,1,37.343.154,3.347,3.347,0,0,1,34.669-.974,4.31,4.31,0,0,1,33.7-3.882Zm1.78.154a3.539,3.539,0,0,0,.454,1.89,1.531,1.531,0,0,0,1.406.725,1.539,1.539,0,0,0,1.392-.725,3.451,3.451,0,0,0,.469-1.89v-.154A3.407,3.407,0,0,0,38.734-5.9a1.544,1.544,0,0,0-1.406-.74,1.531,1.531,0,0,0-1.392.74,3.516,3.516,0,0,0-.454,1.868ZM46.476-6.321l-.762-.029a1.6,1.6,0,0,0-.868.22,1.447,1.447,0,0,0-.538.623V0h-1.78V-7.925h1.626l.117,1.15a2.542,2.542,0,0,1,.773-.952,1.8,1.8,0,0,1,1.088-.344,1.659,1.659,0,0,1,.3.026,2.193,2.193,0,0,1,.256.062ZM51.119.154a3.446,3.446,0,0,1-2.684-1.1,4.052,4.052,0,0,1-1-2.831v-.293a4.207,4.207,0,0,1,.992-2.867,3.139,3.139,0,0,1,2.487-1.132,3.1,3.1,0,0,1,2.457.97,3.8,3.8,0,0,1,.853,2.6V-3.45H49.281l-.015.037a2.5,2.5,0,0,0,.553,1.545,1.749,1.749,0,0,0,1.41.6,3.811,3.811,0,0,0,1.23-.176,4.031,4.031,0,0,0,.989-.505L54.02-.784a3.687,3.687,0,0,1-1.187.667A4.971,4.971,0,0,1,51.119.154Zm-.205-6.8a1.335,1.335,0,0,0-1.084.524A2.579,2.579,0,0,0,49.3-4.79l.015.037H52.46v-.183a1.9,1.9,0,0,0-.385-1.23A1.4,1.4,0,0,0,50.914-6.643Z" transform="translate(193 739)" fill="#b4bbc6"/>
    <g id="Group_3693" data-name="Group 3693" transform="translate(170.691 642.063)">
      <path id="Path_1150-2" data-name="Path 1150" d="M568.411,213.726c-.008.031-.015.063-.022.094a16.514,16.514,0,0,0,1.644,11.623c.084.15.172.3.256.445a1.262,1.262,0,0,1,.254.866,1.071,1.071,0,0,1-.475.721,2.219,2.219,0,0,1-.415.147c-.162.029-.326.059-.492.08a7.72,7.72,0,0,1-2.094-15.3c.021,0,.042,0,.062-.008a1.143,1.143,0,0,1,.864.123,1,1,0,0,1,.418,1.206" transform="translate(-560.433 -189.688)" fill="#3d3d3d"/>
      <ellipse id="Ellipse_123-2" data-name="Ellipse 123" cx="14.409" cy="14.409" rx="14.409" ry="14.409" transform="translate(9.606 13.38)" fill="#d82225"/>
      <path id="Path_1151-2" data-name="Path 1151" d="M604.238,180.007c.318-.018.386-.01.709-.01a16.429,16.429,0,0,1,12.328,5.55,1.415,1.415,0,0,0,.966.642,1.188,1.188,0,0,0,.976-.338l.234-.2a9.777,9.777,0,1,0-16.391-7.2,1.935,1.935,0,0,0,.1.82,1.136,1.136,0,0,0,1.079.734" transform="translate(-580.933 -168.675)" fill="#262626"/>
      <path id="Path_1152-2" data-name="Path 1152" d="M623.982,241.741q.126.168.241.345a6.519,6.519,0,1,1-11.033,6.943c-.052-.086-.1-.174-.152-.261a.87.87,0,0,1-.116-.83.931.931,0,0,1,.771-.565,5.053,5.053,0,0,0,.536-.145,16.475,16.475,0,0,0,7.923-5.091c.1-.12.2-.245.3-.364a1.077,1.077,0,0,1,.485-.411.846.846,0,0,1,.745.083A1.012,1.012,0,0,1,623.982,241.741Z" transform="translate(-585.65 -203.611)" fill="#3d3d3d"/>
    </g>
    <g transform="matrix(1, 0, 0, 1, -43.48, -7.58)" filter="url(#Path_4528)">
      <path id="Path_4528-2" data-name="Path 4528" d="M8.867,0H69.332A8.867,8.867,0,0,1,78.2,8.867V69.332A8.867,8.867,0,0,1,69.332,78.2H8.867A8.867,8.867,0,0,1,0,69.332V8.867A8.867,8.867,0,0,1,8.867,0Z" transform="translate(196.6 144)" fill="#fff" stroke="#b4bbc6" stroke-width="1"/>
    </g>
    <path id="Path_4895" data-name="Path 4895" d="M-16.194-3.3l.014.041A3.134,3.134,0,0,1-17.162-.8a3.829,3.829,0,0,1-2.731.947,3.692,3.692,0,0,1-2.833-1.172,4.227,4.227,0,0,1-1.09-3V-5.92a4.274,4.274,0,0,1,1.077-3,3.615,3.615,0,0,1,2.8-1.179,3.967,3.967,0,0,1,2.779.926,3.128,3.128,0,0,1,.988,2.492l-.014.041h-1.606A2.155,2.155,0,0,0-18.337-8.2a2.134,2.134,0,0,0-1.6-.561,1.908,1.908,0,0,0-1.617.807,3.3,3.3,0,0,0-.6,2.023v1.907a3.275,3.275,0,0,0,.612,2.037,1.964,1.964,0,0,0,1.651.807,2.075,2.075,0,0,0,1.565-.554A2.165,2.165,0,0,0-17.794-3.3Zm6.036,2.222a2.531,2.531,0,0,1-.882.906,2.357,2.357,0,0,1-1.23.318A2.351,2.351,0,0,1-14.13-.615a3.5,3.5,0,0,1-.67-2.358V-7.4h1.654V-2.96a2.217,2.217,0,0,0,.314,1.36,1.148,1.148,0,0,0,.95.39,2.136,2.136,0,0,0,1.008-.215,1.564,1.564,0,0,0,.639-.625V-7.4h1.661V0h-1.449Zm7.479-.93a.772.772,0,0,0-.328-.636A3.273,3.273,0,0,0-4.231-3.09a5.079,5.079,0,0,1-2.006-.8,1.669,1.669,0,0,1-.68-1.4,2,2,0,0,1,.786-1.586,3.126,3.126,0,0,1,2.071-.656,3.244,3.244,0,0,1,2.15.667,1.974,1.974,0,0,1,.762,1.651l-.014.041H-2.755A1.042,1.042,0,0,0-3.1-5.961a1.34,1.34,0,0,0-.957-.328,1.369,1.369,0,0,0-.916.27.838.838,0,0,0-.314.66.74.74,0,0,0,.3.619,3.193,3.193,0,0,0,1.207.407,5.083,5.083,0,0,1,2.068.81A1.708,1.708,0,0,1-1.046-2.1,1.939,1.939,0,0,1-1.87-.479,3.51,3.51,0,0,1-4.04.144,3.313,3.313,0,0,1-6.316-.595a2.085,2.085,0,0,1-.793-1.7l.014-.041h1.545a1.108,1.108,0,0,0,.465.937A1.868,1.868,0,0,0-4.02-1.1a1.7,1.7,0,0,0,.991-.246A.772.772,0,0,0-2.68-2.01ZM2.509-9.194v1.8H3.835v1.23H2.509v4.088a.891.891,0,0,0,.2.653.718.718,0,0,0,.526.195A1.469,1.469,0,0,0,3.5-1.254a1.62,1.62,0,0,0,.246-.065L3.924-.1a1.9,1.9,0,0,1-.506.181A2.812,2.812,0,0,1,2.81.144,1.9,1.9,0,0,1,1.374-.393a2.35,2.35,0,0,1-.52-1.685V-6.166H-.273V-7.4H.854v-1.8ZM5-3.767a4.029,4.029,0,0,1,.9-2.707,3.111,3.111,0,0,1,2.481-1.06,3.1,3.1,0,0,1,2.5,1.06,3.994,3.994,0,0,1,.909,2.707v.144A4.014,4.014,0,0,1,10.883-.9,3.1,3.1,0,0,1,8.4.144a3.124,3.124,0,0,1-2.5-1.053A4.023,4.023,0,0,1,5-3.623Zm1.661.144a3.3,3.3,0,0,0,.424,1.764A1.429,1.429,0,0,0,8.4-1.183a1.436,1.436,0,0,0,1.3-.677,3.221,3.221,0,0,0,.438-1.764v-.144A3.18,3.18,0,0,0,9.7-5.51,1.441,1.441,0,0,0,8.388-6.2a1.429,1.429,0,0,0-1.3.69,3.282,3.282,0,0,0-.424,1.743ZM14.759-7.4l.089.964a2.507,2.507,0,0,1,.909-.813,2.681,2.681,0,0,1,1.265-.287,2.282,2.282,0,0,1,1.244.328,1.983,1.983,0,0,1,.779.984,2.591,2.591,0,0,1,.9-.964,2.434,2.434,0,0,1,1.313-.349,2.186,2.186,0,0,1,1.76.762,3.514,3.514,0,0,1,.646,2.314V0H22V-4.464A2.076,2.076,0,0,0,21.68-5.79a1.206,1.206,0,0,0-.974-.383,1.425,1.425,0,0,0-.9.287,1.6,1.6,0,0,0-.533.772q0,.1.007.178t.007.144V0H17.623V-4.464a2.053,2.053,0,0,0-.332-1.309,1.193,1.193,0,0,0-.974-.4,1.749,1.749,0,0,0-.858.195,1.436,1.436,0,0,0-.557.55V0H13.241V-7.4ZM-28.68,14V4.047h3.227a4.173,4.173,0,0,1,3.08,1.183,4.111,4.111,0,0,1,1.186,3.042V9.782a4.1,4.1,0,0,1-1.186,3.042A4.186,4.186,0,0,1-25.454,14Zm1.661-8.62v7.294H-25.5a2.453,2.453,0,0,0,1.945-.807,3.046,3.046,0,0,0,.708-2.085V8.258a3.026,3.026,0,0,0-.708-2.071A2.453,2.453,0,0,0-25.5,5.38ZM-15.241,14q-.089-.28-.147-.547a3.909,3.909,0,0,1-.079-.533,2.935,2.935,0,0,1-.9.872,2.287,2.287,0,0,1-1.248.352,2.459,2.459,0,0,1-1.774-.595,2.16,2.16,0,0,1-.619-1.634,1.93,1.93,0,0,1,.848-1.671,4.093,4.093,0,0,1,2.386-.6h1.292V9a1.2,1.2,0,0,0-.342-.909,1.356,1.356,0,0,0-.978-.328,1.384,1.384,0,0,0-.9.273.868.868,0,0,0-.335.7h-1.6l-.007-.041a1.832,1.832,0,0,1,.783-1.552A3.317,3.317,0,0,1-16.7,6.467a3.164,3.164,0,0,1,2.085.656,2.31,2.31,0,0,1,.793,1.887V12.3a6.064,6.064,0,0,0,.062.878,4.664,4.664,0,0,0,.2.824Zm-2.037-1.189a2.088,2.088,0,0,0,1.131-.314,1.583,1.583,0,0,0,.667-.718V10.685H-16.8a1.666,1.666,0,0,0-1.135.359,1.09,1.09,0,0,0-.41.844.861.861,0,0,0,.277.673A1.14,1.14,0,0,0-17.278,12.811Zm7.267-8V6.6h1.326v1.23h-1.326v4.088a.891.891,0,0,0,.2.653.718.718,0,0,0,.526.195,1.469,1.469,0,0,0,.267-.024,1.62,1.62,0,0,0,.246-.065L-8.6,13.9a1.9,1.9,0,0,1-.506.181,2.812,2.812,0,0,1-.608.065,1.9,1.9,0,0,1-1.436-.537,2.35,2.35,0,0,1-.52-1.685V7.834h-1.128V6.6h1.128v-1.8ZM-2.758,14q-.089-.28-.147-.547a3.909,3.909,0,0,1-.079-.533,2.935,2.935,0,0,1-.9.872,2.287,2.287,0,0,1-1.248.352A2.459,2.459,0,0,1-6.9,13.549a2.16,2.16,0,0,1-.619-1.634,1.93,1.93,0,0,1,.848-1.671,4.093,4.093,0,0,1,2.386-.6H-3V9a1.2,1.2,0,0,0-.342-.909,1.356,1.356,0,0,0-.978-.328,1.384,1.384,0,0,0-.9.273.868.868,0,0,0-.335.7h-1.6L-7.161,8.7a1.832,1.832,0,0,1,.783-1.552,3.317,3.317,0,0,1,2.164-.677,3.164,3.164,0,0,1,2.085.656A2.31,2.31,0,0,1-1.336,9.01V12.3a6.064,6.064,0,0,0,.062.878,4.664,4.664,0,0,0,.2.824ZM-4.8,12.811A2.088,2.088,0,0,0-3.664,12.5,1.583,1.583,0,0,0-3,11.778V10.685H-4.317a1.666,1.666,0,0,0-1.135.359,1.09,1.09,0,0,0-.41.844.861.861,0,0,0,.277.673A1.14,1.14,0,0,0-4.8,12.811ZM6.9,10.548a4.181,4.181,0,0,1-.755,2.608,2.525,2.525,0,0,1-2.129.988,2.45,2.45,0,0,1-1.2-.28,2.34,2.34,0,0,1-.851-.82L1.8,14H.407V3.336H2.068V7.444a2.385,2.385,0,0,1,.82-.725A2.35,2.35,0,0,1,4,6.467a2.461,2.461,0,0,1,2.143,1.08A4.891,4.891,0,0,1,6.9,10.4ZM5.24,10.4a3.819,3.819,0,0,0-.4-1.866,1.337,1.337,0,0,0-1.258-.711,1.645,1.645,0,0,0-.926.246,1.72,1.72,0,0,0-.591.684v3.1a1.629,1.629,0,0,0,.588.687,1.707,1.707,0,0,0,.943.243,1.377,1.377,0,0,0,1.251-.6,3,3,0,0,0,.39-1.637ZM12.787,14q-.089-.28-.147-.547a3.909,3.909,0,0,1-.079-.533,2.935,2.935,0,0,1-.9.872,2.287,2.287,0,0,1-1.248.352,2.459,2.459,0,0,1-1.774-.595,2.16,2.16,0,0,1-.619-1.634,1.93,1.93,0,0,1,.848-1.671,4.093,4.093,0,0,1,2.386-.6h1.292V9a1.2,1.2,0,0,0-.342-.909,1.356,1.356,0,0,0-.978-.328,1.384,1.384,0,0,0-.9.273.868.868,0,0,0-.335.7h-1.6L8.384,8.7a1.832,1.832,0,0,1,.783-1.552,3.317,3.317,0,0,1,2.164-.677,3.164,3.164,0,0,1,2.085.656,2.31,2.31,0,0,1,.793,1.887V12.3a6.064,6.064,0,0,0,.062.878,4.664,4.664,0,0,0,.2.824ZM10.75,12.811a2.088,2.088,0,0,0,1.131-.314,1.583,1.583,0,0,0,.667-.718V10.685H11.228a1.666,1.666,0,0,0-1.135.359,1.09,1.09,0,0,0-.41.844.861.861,0,0,0,.277.673A1.14,1.14,0,0,0,10.75,12.811Zm9.358-.82a.772.772,0,0,0-.328-.636,3.273,3.273,0,0,0-1.224-.444,5.079,5.079,0,0,1-2.006-.8,1.669,1.669,0,0,1-.68-1.4,2,2,0,0,1,.786-1.586,3.126,3.126,0,0,1,2.071-.656,3.244,3.244,0,0,1,2.15.667,1.974,1.974,0,0,1,.762,1.651l-.014.041H20.033a1.042,1.042,0,0,0-.349-.786,1.34,1.34,0,0,0-.957-.328,1.369,1.369,0,0,0-.916.27.838.838,0,0,0-.314.66.74.74,0,0,0,.3.619A3.193,3.193,0,0,0,19,9.666a5.083,5.083,0,0,1,2.068.81,1.708,1.708,0,0,1,.673,1.425,1.939,1.939,0,0,1-.824,1.62,3.51,3.51,0,0,1-2.17.622,3.313,3.313,0,0,1-2.276-.738,2.085,2.085,0,0,1-.793-1.7l.014-.041h1.545a1.108,1.108,0,0,0,.465.937,1.868,1.868,0,0,0,1.066.294,1.7,1.7,0,0,0,.991-.246A.772.772,0,0,0,20.108,11.99Zm6.3,2.153A3.216,3.216,0,0,1,23.9,13.115a3.782,3.782,0,0,1-.933-2.642V10.2a3.927,3.927,0,0,1,.926-2.676,2.93,2.93,0,0,1,2.321-1.056,2.891,2.891,0,0,1,2.293.906,3.549,3.549,0,0,1,.8,2.43v.978H24.688l-.014.034a2.329,2.329,0,0,0,.516,1.442,1.632,1.632,0,0,0,1.316.561,3.557,3.557,0,0,0,1.148-.164,3.763,3.763,0,0,0,.923-.472l.533,1.087A3.441,3.441,0,0,1,28,13.891,4.64,4.64,0,0,1,26.4,14.144ZM26.212,7.8a1.246,1.246,0,0,0-1.012.489,2.407,2.407,0,0,0-.492,1.241l.014.034h2.933V9.393A1.77,1.77,0,0,0,27.3,8.244,1.31,1.31,0,0,0,26.212,7.8Z" transform="translate(191.651 107.663)" fill="#b4bbc6"/>
    <g id="Group_3919" data-name="Group 3919" transform="translate(-285.276 69.083)">
      <path id="Path_4581" data-name="Path 4581" d="M476.927,96.355c-.716,0-17.538-.042-17.538-3.667s16.822-3.667,17.538-3.667,17.538.042,17.538,3.667S477.643,96.355,476.927,96.355Zm0-6.033c-10.234,0-15.928,1.532-16.239,2.389.312.81,6,2.342,16.239,2.342,10.139,0,15.822-1.5,16.23-2.366C492.748,91.826,487.065,90.323,476.927,90.323Z" transform="translate(0 0)" fill="#526279"/>
      <path id="Path_4582" data-name="Path 4582" d="M476.927,103.48c-.716,0-17.538-.042-17.538-3.667V93.78a.651.651,0,0,1,1.3,0c.309.834,6,2.366,16.236,2.366,10.2,0,15.893-1.522,16.236-2.382a.807.807,0,0,1,.007-.083.641.641,0,0,1,.645-.564.66.66,0,0,1,.649.663v6.033C494.465,103.438,477.643,103.48,476.927,103.48Zm-16.236-8.142v4.474c.309.834,6,2.365,16.236,2.365s15.927-1.531,16.239-2.389l0-4.451c-3.962,2.081-15.643,2.109-16.237,2.109S464.653,97.419,460.691,95.338Z" transform="translate(0 -1.092)" fill="#526279"/>
      <path id="Path_4583" data-name="Path 4583" d="M476.927,135.118c-.716,0-17.538-.041-17.538-3.667v-6.032a.651.651,0,0,1,1.3,0c.309.834,6,2.365,16.236,2.365,10.2,0,15.892-1.522,16.236-2.381a.806.806,0,0,1,.007-.083.641.641,0,0,1,.645-.564.66.66,0,0,1,.649.663v6.032C494.465,135.077,477.643,135.118,476.927,135.118Zm-16.236-8.141v4.474c.309.834,6,2.365,16.236,2.365s15.927-1.531,16.239-2.389l0-4.45c-3.962,2.08-15.643,2.109-16.237,2.109S464.653,129.058,460.691,126.977Z" transform="translate(0 -9.529)" fill="#526279"/>
      <path id="Path_4584" data-name="Path 4584" d="M467.067,101.731a.643.643,0,0,1-.1-.007c-1.107-.169-2.094-.364-2.933-.577a.651.651,0,0,1,.321-1.262c.8.2,1.742.389,2.808.552a.651.651,0,0,1-.1,1.294Z" transform="translate(-1.108 -2.891)" fill="#526279"/>
      <path id="Path_4585" data-name="Path 4585" d="M476,102.708q-1.682-.079-3.2-.213a.652.652,0,0,1-.591-.706.641.641,0,0,1,.706-.59c.992.087,2.039.158,3.112.209a.651.651,0,0,1-.03,1.3Z" transform="translate(-3.419 -3.246)" fill="#526279"/>
      <path id="Path_4586" data-name="Path 4586" d="M492.171,104.073a.651.651,0,0,1-.651-.651V97.39a.65.65,0,0,1,.6-.649c1.528-.118,2.948-.276,4.223-.47a.653.653,0,0,1,.75.644v6.032a.651.651,0,0,1-.553.643c-1.307.2-2.76.361-4.319.48Zm.651-6.083v4.726c1.05-.092,2.045-.2,2.969-.331V97.666C494.862,97.793,493.868,97.9,492.822,97.99Z" transform="translate(-8.568 -1.931)" fill="#526279"/>
      <path id="Path_4587" data-name="Path 4587" d="M477.665,109.78c-.633,0-15.509-.038-15.509-3.305v-2.509a.651.651,0,0,1,.854-.618c2.9.956,8.513,1.549,14.654,1.549s11.756-.593,14.654-1.549a.651.651,0,0,1,.854.618v2.509C493.174,109.742,478.3,109.78,477.665,109.78Zm-14.207-3.34c.43.741,5.48,2.037,14.207,2.037s13.777-1.3,14.207-2.037v-1.6a74.788,74.788,0,0,1-28.414,0Z" transform="translate(-0.738 -3.812)" fill="#526279"/>
      <path id="Path_4588" data-name="Path 4588" d="M476.927,119.306c-.716,0-17.538-.042-17.538-3.667v-6.033a.651.651,0,1,1,1.3,0c.309.834,6,2.365,16.236,2.365,10.2,0,15.893-1.522,16.236-2.381,0-.028,0-.056.007-.084a.641.641,0,0,1,.645-.563.66.66,0,0,1,.649.663v6.033C494.465,119.264,477.643,119.306,476.927,119.306Zm-16.236-8.141v4.474c.309.833,6,2.365,16.236,2.365s15.927-1.532,16.239-2.389l0-4.451c-3.962,2.081-15.643,2.11-16.237,2.11S464.653,113.246,460.691,111.165Z" transform="translate(0 -5.313)" fill="#526279"/>
      <path id="Path_4589" data-name="Path 4589" d="M467.067,117.557a.641.641,0,0,1-.1-.007c-1.107-.169-2.094-.363-2.933-.577a.651.651,0,1,1,.321-1.261c.8.2,1.742.389,2.808.551a.651.651,0,0,1-.1,1.294Z" transform="translate(-1.108 -7.112)" fill="#526279"/>
      <path id="Path_4590" data-name="Path 4590" d="M476,118.534q-1.682-.078-3.2-.213a.652.652,0,0,1-.591-.706.641.641,0,0,1,.706-.591c.992.088,2.039.158,3.112.209a.651.651,0,0,1-.03,1.3Z" transform="translate(-3.419 -7.466)" fill="#526279"/>
      <path id="Path_4591" data-name="Path 4591" d="M492.171,119.9a.651.651,0,0,1-.651-.651v-6.032a.65.65,0,0,1,.6-.648c1.528-.118,2.948-.276,4.222-.47a.651.651,0,0,1,.75.644v6.032a.651.651,0,0,1-.553.644c-1.306.2-2.759.36-4.319.48Zm.651-6.083v4.726c1.05-.092,2.045-.2,2.969-.331v-4.718C494.862,113.619,493.868,113.728,492.822,113.817Z" transform="translate(-8.568 -6.152)" fill="#526279"/>
      <path id="Path_4592" data-name="Path 4592" d="M492.171,135.713a.651.651,0,0,1-.651-.651V129.03a.65.65,0,0,1,.6-.649c1.528-.118,2.949-.276,4.223-.47a.659.659,0,0,1,.522.15.65.65,0,0,1,.227.494v6.033a.651.651,0,0,1-.553.644c-1.305.2-2.759.36-4.319.48Zm.651-6.083v4.726c1.051-.092,2.045-.2,2.969-.331v-4.718C494.863,129.432,493.868,129.54,492.822,129.63Z" transform="translate(-8.568 -10.368)" fill="#526279"/>
      <path id="Path_4593" data-name="Path 4593" d="M477.665,125.606c-.633,0-15.509-.037-15.509-3.3v-2.509a.651.651,0,0,1,.854-.618c2.9.956,8.513,1.549,14.654,1.549s11.756-.593,14.654-1.549a.651.651,0,0,1,.854.618V122.3C493.174,125.569,478.3,125.606,477.665,125.606Zm-14.207-3.34c.43.741,5.48,2.038,14.207,2.038s13.777-1.3,14.207-2.038v-1.6a74.829,74.829,0,0,1-28.414,0Z" transform="translate(-0.738 -8.032)" fill="#526279"/>
      <path id="Path_4594" data-name="Path 4594" d="M476.927,112.752c-.716,0-17.538-.042-17.538-3.667,0-1.116,1.437-1.714,2.518-2.066a.648.648,0,0,1,.81.386c.36.735,5.418,2.052,14.211,2.052s13.851-1.317,14.211-2.055a.647.647,0,0,1,.809-.383c1.08.352,2.518.95,2.518,2.066C494.465,112.71,477.643,112.752,476.927,112.752Zm-15.042-4.347c-1.058.4-1.2.7-1.2.7.312.81,6,2.341,16.239,2.341s15.912-1.528,16.238-2.386a3.039,3.039,0,0,0-1.2-.659c-2,1.841-10.166,2.353-15.042,2.353S463.884,110.247,461.885,108.406Z" transform="translate(0 -4.79)" fill="#526279"/>
      <path id="Path_4595" data-name="Path 4595" d="M476.927,128.565c-.716,0-17.538-.042-17.538-3.667,0-1.115,1.434-1.712,2.513-2.064a.65.65,0,0,1,.814.4c.359.733,5.418,2.05,14.211,2.05s13.851-1.317,14.212-2.055a.646.646,0,0,1,.812-.392c1.079.352,2.514.949,2.514,2.064C494.465,128.523,477.643,128.565,476.927,128.565Zm-15.049-4.344c-1.052.4-1.19.7-1.19.7.312.809,6.005,2.34,16.239,2.34s15.912-1.528,16.238-2.386a3.02,3.02,0,0,0-1.19-.656c-1.987,1.847-10.16,2.361-15.049,2.361S463.865,126.068,461.878,124.221Z" transform="translate(0 -9.007)" fill="#526279"/>
      <path id="Path_4596" data-name="Path 4596" d="M464.06,135.886a.651.651,0,0,1-.651-.651v-2.026a.651.651,0,0,1,1.3,0v2.026A.651.651,0,0,1,464.06,135.886Z" transform="translate(-1.072 -11.609)" fill="#526279"/>
      <path id="Path_4597" data-name="Path 4597" d="M468.365,136.138a.651.651,0,0,1-.651-.65v-3.651a.651.651,0,1,1,1.3,0v3.651A.651.651,0,0,1,468.365,136.138Z" transform="translate(-2.22 -11.243)" fill="#526279"/>
    </g>
  </g>
</svg>
