<svg xmlns="http://www.w3.org/2000/svg" xmlns:xlink="http://www.w3.org/1999/xlink" width="474.957" height="867.016" viewBox="0 0 474.957 867.016">
  <defs>
    <filter id="Path_4526" x="0" y="210.81" width="474.957" height="474.956" filterUnits="userSpaceOnUse">
      <feOffset dy="20" input="SourceAlpha"/>
      <feGaussianBlur stdDeviation="49.5" result="blur"/>
      <feFlood flood-color="#3c485a" flood-opacity="0.149"/>
      <feComposite operator="in" in2="blur"/>
      <feComposite in="SourceGraphic"/>
    </filter>
    <filter id="Path_4528" x="47.598" y="0" width="376.198" height="376.198" filterUnits="userSpaceOnUse">
      <feOffset dy="5" input="SourceAlpha"/>
      <feGaussianBlur stdDeviation="49.5" result="blur-2"/>
      <feFlood flood-color="#3c485a" flood-opacity="0.102"/>
      <feComposite operator="in" in2="blur-2"/>
      <feComposite in="SourceGraphic"/>
    </filter>
    <filter id="Path_4522" x="47.598" y="490.817" width="376.198" height="376.198" filterUnits="userSpaceOnUse">
      <feOffset dy="5" input="SourceAlpha"/>
      <feGaussianBlur stdDeviation="49.5" result="blur-3"/>
      <feFlood flood-color="#3c485a" flood-opacity="0.102"/>
      <feComposite operator="in" in2="blur-3"/>
      <feComposite in="SourceGraphic"/>
    </filter>
  </defs>
  <g id="Group_3911" data-name="Group 3911" transform="translate(-326.523 7.581)">
    <path id="Path_4527" data-name="Path 4527" d="M0,0V100" transform="translate(562.906 206.443)" fill="none" stroke="#cccdd7" stroke-linecap="round" stroke-width="3" stroke-dasharray="1 10"/>
    <path id="Path_4524" data-name="Path 4524" d="M0,0V100" transform="translate(561.533 635.41) rotate(180)" fill="none" stroke="#cccdd7" stroke-linecap="round" stroke-width="3" stroke-dasharray="1 10"/>
    <path id="Path_4525" data-name="Path 4525" d="M114.484,0A114.484,114.484,0,1,1,0,114.484,114.484,114.484,0,0,1,114.484,0Z" transform="translate(678.268 306.443) rotate(90)" fill="none" stroke="#d82125" stroke-linecap="round" stroke-width="3" stroke-dasharray="1 10"/>
    <g transform="matrix(1, 0, 0, 1, 326.52, -7.58)" filter="url(#Path_4526)">
      <path id="Path_4526-2" data-name="Path 4526" d="M88.979,0A88.978,88.978,0,1,1,0,88.978,88.978,88.978,0,0,1,88.979,0Z" transform="translate(148.5 339.31)" fill="#fff"/>
    </g>
    <g id="Group_3147" data-name="Group 3147" transform="translate(519.063 368.39)">
      <path id="Path_1150" data-name="Path 1150" d="M576.165,215.052c-.015.061-.03.124-.043.186a32.561,32.561,0,0,0,3.241,22.918c.165.3.34.583.506.878a2.489,2.489,0,0,1,.5,1.708,2.112,2.112,0,0,1-.937,1.423,4.371,4.371,0,0,1-.819.291c-.32.057-.643.116-.969.159a15.376,15.376,0,0,1-1.99.129,15.223,15.223,0,0,1-2.14-30.294c.041-.005.082-.008.122-.016a2.254,2.254,0,0,1,1.7.242,1.977,1.977,0,0,1,.825,2.378" transform="translate(-560.433 -167.65)" fill="#3d3d3d"/>
      <ellipse id="Ellipse_123" data-name="Ellipse 123" cx="28.414" cy="28.414" rx="28.414" ry="28.414" transform="translate(18.942 26.384)" fill="#d82225"/>
      <path id="Path_1151" data-name="Path 1151" d="M605.389,191.02c.627-.036.761-.02,1.4-.02a32.4,32.4,0,0,1,24.31,10.944,2.791,2.791,0,0,0,1.9,1.266,2.342,2.342,0,0,0,1.924-.666l.463-.393a19.279,19.279,0,1,0-32.322-14.194,3.818,3.818,0,0,0,.193,1.617,2.24,2.24,0,0,0,2.128,1.447" transform="translate(-559.433 -168.675)" fill="#262626"/>
      <path id="Path_1152" data-name="Path 1152" d="M634.789,242.158q.248.332.476.681a12.854,12.854,0,1,1-21.757,13.69c-.1-.169-.2-.344-.3-.515a1.716,1.716,0,0,1-.229-1.638,1.836,1.836,0,0,1,1.521-1.113,9.952,9.952,0,0,0,1.057-.286,32.485,32.485,0,0,0,15.623-10.039c.2-.236.394-.484.6-.718a2.122,2.122,0,0,1,.956-.81,1.669,1.669,0,0,1,1.47.163A1.993,1.993,0,0,1,634.789,242.158Z" transform="translate(-559.203 -166.971)" fill="#3d3d3d"/>
    </g>
    <g transform="matrix(1, 0, 0, 1, 326.52, -7.58)" filter="url(#Path_4528)">
      <path id="Path_4528-2" data-name="Path 4528" d="M8.867,0H69.332A8.867,8.867,0,0,1,78.2,8.867V69.332A8.867,8.867,0,0,1,69.332,78.2H8.867A8.867,8.867,0,0,1,0,69.332V8.867A8.867,8.867,0,0,1,8.867,0Z" transform="translate(196.6 144)" fill="#fff" stroke="#b4bbc6" stroke-width="1"/>
    </g>
    <g id="Group_3733" data-name="Group 3733" transform="translate(454.127 69.513)">
      <path id="Path_3492" data-name="Path 3492" d="M2464.852,107.34a.379.379,0,0,1-.009.11,6.256,6.256,0,0,1-4.073,3.924,6.281,6.281,0,0,1-6.553-1.861,6.244,6.244,0,0,1-.806-1.167,5.778,5.778,0,0,1-.66-1.967,7.477,7.477,0,0,1-.079-1.126,6.261,6.261,0,0,1,2.238-4.658,6.265,6.265,0,0,1,2.3-1.217,6.12,6.12,0,0,1,2.012-.237,6.251,6.251,0,0,1,5.375,3.6,6.2,6.2,0,0,1,.486,1.5,5.92,5.92,0,0,1,.089.785,6.184,6.184,0,0,1,0,.843c-.025.295-.083.587-.138.879-.032.174-.083.345-.128.516C2464.9,107.284,2464.877,107.3,2464.852,107.34Zm-4.578-2.859c0-.165,0-.3,0-.437,0-.061-.023-.087-.085-.087-.154,0-.309,0-.464,0-.076,0-.1.03-.1.1q0,1.305,0,2.61c0,.078.032.1.1.1.151,0,.3-.007.454,0,.1,0,.121-.03.121-.123q0-.753.018-1.505a.657.657,0,0,1,.456-.623c.3-.07.506.01.573.315a.863.863,0,0,1,.01.185c0,.54,0,1.08,0,1.62,0,.1.029.137.129.132.141-.006.282,0,.423,0s.156,0,.156-.154c0-.44-.007-.881,0-1.321a1.471,1.471,0,0,1,.084-.471.538.538,0,0,1,.7-.29.444.444,0,0,1,.255.474c0,.543,0,1.087,0,1.63,0,.1.025.138.127.133.151-.007.3-.007.454,0,.092,0,.117-.03.117-.12,0-.64,0-1.279,0-1.919a.809.809,0,0,0-.319-.642.979.979,0,0,0-1.364.211c-.047.066-.092.133-.144.207a.791.791,0,0,0-.819-.6A.985.985,0,0,0,2460.273,104.481Zm-2.212-.575a1.228,1.228,0,0,0-1.223.73,1.666,1.666,0,0,0-.108,1.123,1.367,1.367,0,0,0,.569.887,1.223,1.223,0,0,0,.768.17,1.211,1.211,0,0,0,1.01-.6,1.7,1.7,0,0,0,.191-1.212A1.237,1.237,0,0,0,2458.061,103.906Zm-2.219,1.057c.172-.023.344-.046.515-.073a.07.07,0,0,0,.036-.059,1.175,1.175,0,0,0-.38-.71,1.086,1.086,0,0,0-.723-.213,1.124,1.124,0,0,0-1.094.723,1.838,1.838,0,0,0-.069,1.3,1.118,1.118,0,0,0,1.061.891,1.086,1.086,0,0,0,.92-.366,1.385,1.385,0,0,0,.293-.677c-.144-.017-.276-.03-.408-.049-.113-.017-.191.009-.209.136a.292.292,0,0,1-.04.094.485.485,0,0,1-.388.284.444.444,0,0,1-.473-.241,1.267,1.267,0,0,1-.117-.369,1.416,1.416,0,0,1,.156-.965.458.458,0,0,1,.437-.219.428.428,0,0,1,.413.287C2455.8,104.8,2455.816,104.876,2455.842,104.963Z" transform="translate(-2326.047 0)" fill="#0077c2" fill-rule="evenodd"/>
      <path id="Path_3493" data-name="Path 3493" d="M681.568,163.3h-.123c-.719,0-1.438,0-2.156,0a.19.19,0,0,1-.2-.128q-.695-1.409-1.4-2.815c-.012-.024-.027-.047-.048-.083l-.462.505c-.232.254-.465.506-.693.764a.27.27,0,0,0-.063.161c0,.5,0,.991,0,1.486,0,.08-.022.108-.1.107-.6,0-1.2,0-1.806,0-.03,0-.061,0-.1-.007v-9.966h2.048v5.7c.038-.034.061-.051.079-.072q1.268-1.405,2.534-2.812a.2.2,0,0,1,.167-.075c.743,0,1.486,0,2.229,0h.12l-2.461,2.665Z" transform="translate(-584.495 -53.071)" fill="#4b4d4f" fill-rule="evenodd"/>
      <path id="Path_3494" data-name="Path 3494" d="M1341.693,281.2a2.714,2.714,0,0,1,.617-1.7,2.4,2.4,0,0,1,1.233-.661,7.308,7.308,0,0,1,2.072-.108,6.154,6.154,0,0,1,1.029.138,1.927,1.927,0,0,1,1.467,1.465,4.059,4.059,0,0,1,.16,1.107q0,2.244,0,4.488v.14c-.039,0-.068.008-.1.008-.567,0-1.135,0-1.7.006-.077,0-.123-.021-.146-.094-.079-.25-.16-.5-.239-.745-.063.062-.146.141-.227.221a2.772,2.772,0,0,1-1.99.78,2.923,2.923,0,0,1-1.048-.128,1.865,1.865,0,0,1-1.281-1.542,2.385,2.385,0,0,1,.151-1.374,1.66,1.66,0,0,1,1.022-.93c.432-.151.881-.259,1.324-.376.491-.13.984-.249,1.476-.374a.7.7,0,0,0,.4-.242.453.453,0,0,0,.033-.555.748.748,0,0,0-.54-.359,1.974,1.974,0,0,0-.737.025.7.7,0,0,0-.557.483.436.436,0,0,1-.507.333c-.594-.017-1.189,0-1.784,0Zm4.284,1.455c-.147.057-.274.109-.4.155-.372.132-.747.254-1.115.393a.932.932,0,0,0-.5.39.741.741,0,0,0,.5,1.114,1.381,1.381,0,0,0,1.371-.755A3.181,3.181,0,0,0,1345.976,282.657Z" transform="translate(-1237.809 -175.865)" fill="#4b4d4f" fill-rule="evenodd"/>
      <path id="Path_3495" data-name="Path 3495" d="M324.461,281.316a7.717,7.717,0,0,1,.214-.986,2.041,2.041,0,0,1,1.5-1.321,6.428,6.428,0,0,1,1.82-.169,6.713,6.713,0,0,1,1.372.137,1.945,1.945,0,0,1,1.516,1.417,4.019,4.019,0,0,1,.176,1.4c-.01.2,0,.392,0,.588q0,1.837,0,3.673v.141c-.039,0-.068.007-.1.008-.564,0-1.128,0-1.692.006a.146.146,0,0,1-.155-.1,2.279,2.279,0,0,1-.2-.7c0-.019-.008-.038-.014-.069l-.292.288a2.6,2.6,0,0,1-1.615.719,3.113,3.113,0,0,1-1.444-.128,1.872,1.872,0,0,1-1.215-1.494,2.471,2.471,0,0,1,.052-1.123,1.715,1.715,0,0,1,.981-1.152,6.762,6.762,0,0,1,1.278-.388q.8-.2,1.608-.4a.754.754,0,0,0,.466-.28.451.451,0,0,0,.019-.531.743.743,0,0,0-.548-.364,1.947,1.947,0,0,0-.757.033.727.727,0,0,0-.517.434c-.034.075-.066.151-.1.226a.23.23,0,0,1-.221.142q-1.042,0-2.084,0A.265.265,0,0,1,324.461,281.316Zm4.3,1.475-.106.038c-.311.109-.623.212-.931.328a6.336,6.336,0,0,0-.709.3.751.751,0,0,0,.174,1.37,1.345,1.345,0,0,0,1.461-.822A3.411,3.411,0,0,0,328.762,282.791Z" transform="translate(-241.591 -175.996)" fill="#4b4d4f" fill-rule="evenodd"/>
      <path id="Path_3496" data-name="Path 3496" d="M991.786,284.168a2.989,2.989,0,0,1-.375.839,2.868,2.868,0,0,1-1.881,1.248,6.016,6.016,0,0,1-2.265.021,2.686,2.686,0,0,1-1.863-1.309,4.044,4.044,0,0,1-.594-1.823,4.966,4.966,0,0,1,.19-2.018,3.136,3.136,0,0,1,2.018-2.119,3.992,3.992,0,0,1,1.383-.178,4.194,4.194,0,0,1,1.572.285,2.89,2.89,0,0,1,1.581,1.693,4.772,4.772,0,0,1,.309,1.528c.016.311,0,.624,0,.948h-4.688a2.239,2.239,0,0,0,.134.681,1.609,1.609,0,0,0,.455.641.918.918,0,0,0,.759.211,1.416,1.416,0,0,0,.734-.241,1.039,1.039,0,0,0,.325-.443.128.128,0,0,1,.089-.071c.69.029,1.38.063,2.07.1A.286.286,0,0,1,991.786,284.168Zm-4.609-2.309h2.31a1.823,1.823,0,0,0-.22-.862,1.023,1.023,0,0,0-1.124-.52.9.9,0,0,0-.486.251A1.637,1.637,0,0,0,987.177,281.86Z" transform="translate(-888.454 -175.986)" fill="#4b4d4f" fill-rule="evenodd"/>
      <path id="Path_3497" data-name="Path 3497" d="M1823.968,282.279a4.187,4.187,0,0,1-.5,2.138,3.094,3.094,0,0,1-2.376,1.635,4.19,4.19,0,0,1-1.825-.115,3.149,3.149,0,0,1-1.87-1.567,4.632,4.632,0,0,1-.075-3.921,3.154,3.154,0,0,1,2.549-1.857,4.112,4.112,0,0,1,2.009.209,3.066,3.066,0,0,1,1.708,1.643A4.163,4.163,0,0,1,1823.968,282.279Zm-4.691.165a5.291,5.291,0,0,0,.188,1.4,1.01,1.01,0,0,0,1.242.751,1.031,1.031,0,0,0,.742-.819,6,6,0,0,0,.141-1.953,2.706,2.706,0,0,0-.219-.916.986.986,0,0,0-1.3-.534,1.164,1.164,0,0,0-.652.8A4.436,4.436,0,0,0,1819.277,282.443Z" transform="translate(-1703.424 -175.718)" fill="#4b4d4f" fill-rule="evenodd"/>
      <path id="Path_3498" data-name="Path 3498" d="M82.033,161.121l.558,1.793c-.194.043-.376.087-.56.124a6.868,6.868,0,0,1-1.561.191,3.82,3.82,0,0,1-.824-.107,1.442,1.442,0,0,1-1.036-1.136,5.664,5.664,0,0,1-.145-1.442c-.006-.959,0-1.919,0-2.878v-.143H77.6v-1.666h.853v-2.75h2.349c0,.04.006.083.006.126,0,.832,0,1.664-.006,2.5,0,.1.03.126.128.125.351-.006.7,0,1.052,0H82.1v1.661c-.034,0-.07,0-.107.005-.361,0-.722,0-1.083,0-.075,0-.1.019-.1.1,0,.956,0,1.912,0,2.868a2.5,2.5,0,0,0,.031.38.444.444,0,0,0,.58.407C81.623,161.231,81.818,161.174,82.033,161.121Z" transform="translate(0 -52.86)" fill="#4b4d4f" fill-rule="evenodd"/>
      <path id="Path_3499" data-name="Path 3499" d="M2156.267,157.518v-1.667h.192c.186,0,.372,0,.557,0,.09,0,.117-.023.117-.115,0-.832,0-1.665,0-2.5v-.135h2.343v2.742h1.3v1.665c-.033,0-.069.005-.1.005-.361,0-.723,0-1.083,0-.081,0-.105.022-.1.1,0,.97,0,1.94,0,2.91a2.415,2.415,0,0,0,.021.308.453.453,0,0,0,.584.431c.2-.038.4-.1.61-.149.183.587.368,1.182.559,1.793-.19.042-.372.086-.556.123a7.037,7.037,0,0,1-1.561.193,4.034,4.034,0,0,1-.765-.089,1.42,1.42,0,0,1-1.075-1.071,5.069,5.069,0,0,1-.166-1.469q-.006-1.481,0-2.961c0-.093-.023-.125-.12-.122C2156.769,157.522,2156.525,157.518,2156.267,157.518Z" transform="translate(-2035.762 -52.86)" fill="#4b4d4f" fill-rule="evenodd"/>
      <path id="Path_3500" data-name="Path 3500" d="M1693.961,163.364h-.109c-.629,0-1.259,0-1.888,0-.1,0-.119-.03-.119-.122q0-4.854,0-9.708v-.112h2.114Z" transform="translate(-1580.924 -53.171)" fill="#4b4d4f" fill-rule="evenodd"/>
      <path id="Path_3501" data-name="Path 3501" d="M2790.252,330.832a.983.983,0,0,1,.887-.575.792.792,0,0,1,.82.6c.052-.075.1-.141.144-.207a.979.979,0,0,1,1.364-.211.808.808,0,0,1,.319.642c.006.64,0,1.279,0,1.919,0,.089-.025.123-.117.12-.151-.006-.3-.006-.453,0-.1,0-.128-.037-.127-.133,0-.543,0-1.087,0-1.63a.445.445,0,0,0-.255-.474.538.538,0,0,0-.7.29,1.478,1.478,0,0,0-.084.471c-.011.44,0,.88,0,1.321,0,.152,0,.153-.156.154s-.282-.005-.423,0c-.1,0-.13-.036-.13-.132,0-.54,0-1.08,0-1.62a.863.863,0,0,0-.01-.185c-.067-.3-.272-.386-.573-.315a.656.656,0,0,0-.456.623q-.016.752-.018,1.505c0,.093-.025.128-.121.123-.151-.007-.3,0-.454,0-.073,0-.1-.023-.1-.1q0-1.305,0-2.61c0-.074.025-.106.1-.1.155,0,.31,0,.464,0,.062,0,.086.026.085.087C2790.25,330.531,2790.252,330.667,2790.252,330.832Z" transform="translate(-2656.025 -226.351)" fill="#fff" fill-rule="evenodd"/>
      <path id="Path_3502" data-name="Path 3502" d="M2648.378,330.356a1.236,1.236,0,0,1,1.207,1.1,1.7,1.7,0,0,1-.191,1.212,1.211,1.211,0,0,1-1.009.6,1.223,1.223,0,0,1-.768-.17,1.366,1.366,0,0,1-.569-.887,1.666,1.666,0,0,1,.107-1.123A1.228,1.228,0,0,1,2648.378,330.356Zm.56,1.469a4.82,4.82,0,0,0-.091-.512.548.548,0,0,0-1.041-.073,1.458,1.458,0,0,0,.011,1.17.5.5,0,0,0,.522.31.5.5,0,0,0,.488-.358A4.768,4.768,0,0,0,2648.938,331.826Z" transform="translate(-2516.365 -226.45)" fill="#fff" fill-rule="evenodd"/>
      <path id="Path_3503" data-name="Path 3503" d="M2520.914,331.6c-.026-.087-.043-.161-.07-.23a.428.428,0,0,0-.413-.287.459.459,0,0,0-.437.219,1.419,1.419,0,0,0-.155.965,1.244,1.244,0,0,0,.117.369.444.444,0,0,0,.473.241.486.486,0,0,0,.388-.284.3.3,0,0,0,.04-.094c.018-.128.1-.153.209-.137.131.019.263.032.407.049a1.387,1.387,0,0,1-.293.677,1.087,1.087,0,0,1-.92.366,1.118,1.118,0,0,1-1.061-.891,1.833,1.833,0,0,1,.069-1.3,1.124,1.124,0,0,1,1.094-.723,1.086,1.086,0,0,1,.723.213,1.174,1.174,0,0,1,.38.71.07.07,0,0,1-.035.059C2521.258,331.551,2521.085,331.573,2520.914,331.6Z" transform="translate(-2391.119 -226.634)" fill="#fff" fill-rule="evenodd"/>
      <path id="Path_3504" data-name="Path 3504" d="M1457.808,470.273a3.175,3.175,0,0,1-.147,1.3,1.381,1.381,0,0,1-1.371.755.741.741,0,0,1-.5-1.114.932.932,0,0,1,.5-.39c.369-.139.744-.261,1.115-.393C1457.534,470.382,1457.661,470.33,1457.808,470.273Z" transform="translate(-1349.641 -363.481)" fill="#fff" fill-rule="evenodd"/>
      <path id="Path_3505" data-name="Path 3505" d="M440.644,470.416a3.409,3.409,0,0,1-.111,1.215,1.345,1.345,0,0,1-1.461.822.751.751,0,0,1-.174-1.37,6.344,6.344,0,0,1,.708-.3c.308-.116.621-.219.931-.328Z" transform="translate(-353.473 -363.621)" fill="#fff" fill-rule="evenodd"/>
      <path id="Path_3506" data-name="Path 3506" d="M1100.843,359.259a1.637,1.637,0,0,1,.479-1.131.9.9,0,0,1,.486-.251,1.023,1.023,0,0,1,1.125.52,1.822,1.822,0,0,1,.22.862Z" transform="translate(-1002.12 -253.386)" fill="#fff" fill-rule="evenodd"/>
      <path id="Path_3507" data-name="Path 3507" d="M1930.832,364.745a4.445,4.445,0,0,1,.147-1.27,1.163,1.163,0,0,1,.652-.8.986.986,0,0,1,1.3.534,2.717,2.717,0,0,1,.219.916,6,6,0,0,1-.14,1.953,1.031,1.031,0,0,1-.742.819,1.01,1.01,0,0,1-1.243-.751A5.292,5.292,0,0,1,1930.832,364.745Z" transform="translate(-1814.979 -258.02)" fill="#fff" fill-rule="evenodd"/>
      <path id="Path_3508" data-name="Path 3508" d="M2681.755,357.524a4.658,4.658,0,0,1-.11.537.549.549,0,0,1-1.01.047,1.455,1.455,0,0,1-.011-1.17.548.548,0,0,1,1.041.073A4.885,4.885,0,0,1,2681.755,357.524Z" transform="translate(-2549.182 -252.149)" fill="#0077c2" fill-rule="evenodd"/>
    </g>
    <path id="Path_4796" data-name="Path 4796" d="M-18.983-8.62h-3.008V0h-1.661V-8.62H-26.66V-9.953h7.677ZM-14.055,0q-.089-.28-.147-.547a3.909,3.909,0,0,1-.079-.533,2.935,2.935,0,0,1-.9.872,2.287,2.287,0,0,1-1.248.352A2.459,2.459,0,0,1-18.2-.451a2.16,2.16,0,0,1-.619-1.634,1.93,1.93,0,0,1,.848-1.671,4.093,4.093,0,0,1,2.386-.6h1.292V-5a1.2,1.2,0,0,0-.342-.909,1.356,1.356,0,0,0-.978-.328,1.384,1.384,0,0,0-.9.273.868.868,0,0,0-.335.7h-1.6l-.007-.041a1.832,1.832,0,0,1,.783-1.552,3.317,3.317,0,0,1,2.164-.677,3.164,3.164,0,0,1,2.085.656,2.31,2.31,0,0,1,.793,1.887V-1.7a6.064,6.064,0,0,0,.062.878,4.664,4.664,0,0,0,.2.824Zm-2.037-1.189A2.088,2.088,0,0,0-14.96-1.5a1.583,1.583,0,0,0,.667-.718V-3.315h-1.319a1.666,1.666,0,0,0-1.135.359,1.09,1.09,0,0,0-.41.844.861.861,0,0,0,.277.673A1.14,1.14,0,0,0-16.092-1.189Zm7.608-2.044h-.745V0h-1.654V-10.664h1.654v6.1h.69L-6.672-7.4h1.955l-2.44,3.363L-4.354,0H-6.282ZM-.533.144A3.216,3.216,0,0,1-3.039-.885a3.782,3.782,0,0,1-.933-2.642V-3.8a3.927,3.927,0,0,1,.926-2.676A2.93,2.93,0,0,1-.725-7.533a2.891,2.891,0,0,1,2.293.906,3.549,3.549,0,0,1,.8,2.43v.978H-2.249l-.014.034a2.329,2.329,0,0,0,.516,1.442,1.632,1.632,0,0,0,1.316.561A3.557,3.557,0,0,0,.718-1.347a3.763,3.763,0,0,0,.923-.472L2.174-.731a3.441,3.441,0,0,1-1.107.622A4.64,4.64,0,0,1-.533.144ZM-.725-6.2a1.246,1.246,0,0,0-1.012.489,2.407,2.407,0,0,0-.492,1.241l.014.034H.718v-.171A1.77,1.77,0,0,0,.359-5.756,1.31,1.31,0,0,0-.725-6.2ZM8.155,0q-.089-.28-.147-.547A3.909,3.909,0,0,1,7.93-1.08a2.935,2.935,0,0,1-.9.872A2.287,2.287,0,0,1,5.783.144,2.459,2.459,0,0,1,4.009-.451a2.16,2.16,0,0,1-.619-1.634,1.93,1.93,0,0,1,.848-1.671,4.093,4.093,0,0,1,2.386-.6H7.916V-5a1.2,1.2,0,0,0-.342-.909A1.356,1.356,0,0,0,6.6-6.241a1.384,1.384,0,0,0-.9.273.868.868,0,0,0-.335.7H3.76L3.753-5.3a1.832,1.832,0,0,1,.783-1.552A3.317,3.317,0,0,1,6.7-7.533a3.164,3.164,0,0,1,2.085.656A2.31,2.31,0,0,1,9.577-4.99V-1.7a6.064,6.064,0,0,0,.062.878,4.664,4.664,0,0,0,.2.824ZM6.118-1.189A2.088,2.088,0,0,0,7.25-1.5a1.583,1.583,0,0,0,.667-.718V-3.315H6.6a1.666,1.666,0,0,0-1.135.359,1.09,1.09,0,0,0-.41.844.861.861,0,0,0,.277.673A1.14,1.14,0,0,0,6.118-1.189ZM13.091,0H11.43V-10.664h1.661Zm1.552-3.767a4.029,4.029,0,0,1,.9-2.707,3.111,3.111,0,0,1,2.481-1.06,3.1,3.1,0,0,1,2.5,1.06,3.994,3.994,0,0,1,.909,2.707v.144A4.014,4.014,0,0,1,20.521-.9,3.1,3.1,0,0,1,18.04.144a3.124,3.124,0,0,1-2.5-1.053,4.023,4.023,0,0,1-.9-2.714Zm1.661.144a3.3,3.3,0,0,0,.424,1.764,1.429,1.429,0,0,0,1.313.677,1.436,1.436,0,0,0,1.3-.677,3.221,3.221,0,0,0,.438-1.764v-.144a3.18,3.18,0,0,0-.437-1.743,1.441,1.441,0,0,0-1.312-.69,1.429,1.429,0,0,0-1.3.69A3.282,3.282,0,0,0,16.3-3.767Zm8.641-5.571v1.8h1.326v1.23H24.944v4.088a.891.891,0,0,0,.2.653.718.718,0,0,0,.526.195,1.469,1.469,0,0,0,.267-.024,1.621,1.621,0,0,0,.246-.065L26.359-.1a1.9,1.9,0,0,1-.506.181,2.812,2.812,0,0,1-.608.065A1.9,1.9,0,0,1,23.81-.393a2.35,2.35,0,0,1-.52-1.685V-6.166H22.162V-7.4H23.29v-1.8Z" transform="translate(562.5 115.805)" fill="#b4bbc6"/>
    <g transform="matrix(1, 0, 0, 1, 326.52, -7.58)" filter="url(#Path_4522)">
      <path id="Path_4522-2" data-name="Path 4522" d="M8.867,0H69.332A8.867,8.867,0,0,1,78.2,8.867V69.332A8.867,8.867,0,0,1,69.332,78.2H8.867A8.867,8.867,0,0,1,0,69.332V8.867A8.867,8.867,0,0,1,8.867,0Z" transform="translate(274.8 713.02) rotate(180)" fill="#fff" stroke="#b4bbc6" stroke-width="1"/>
    </g>
    <path id="Path_4894" data-name="Path 4894" d="M-16.194-3.3l.014.041A3.134,3.134,0,0,1-17.162-.8a3.829,3.829,0,0,1-2.731.947,3.692,3.692,0,0,1-2.833-1.172,4.227,4.227,0,0,1-1.09-3V-5.92a4.274,4.274,0,0,1,1.077-3,3.615,3.615,0,0,1,2.8-1.179,3.967,3.967,0,0,1,2.779.926,3.128,3.128,0,0,1,.988,2.492l-.014.041h-1.606A2.155,2.155,0,0,0-18.337-8.2a2.134,2.134,0,0,0-1.6-.561,1.908,1.908,0,0,0-1.617.807,3.3,3.3,0,0,0-.6,2.023v1.907a3.275,3.275,0,0,0,.612,2.037,1.964,1.964,0,0,0,1.651.807,2.075,2.075,0,0,0,1.565-.554A2.165,2.165,0,0,0-17.794-3.3Zm6.036,2.222a2.531,2.531,0,0,1-.882.906,2.357,2.357,0,0,1-1.23.318A2.351,2.351,0,0,1-14.13-.615a3.5,3.5,0,0,1-.67-2.358V-7.4h1.654V-2.96a2.217,2.217,0,0,0,.314,1.36,1.148,1.148,0,0,0,.95.39,2.136,2.136,0,0,0,1.008-.215,1.564,1.564,0,0,0,.639-.625V-7.4h1.661V0h-1.449Zm7.479-.93a.772.772,0,0,0-.328-.636A3.273,3.273,0,0,0-4.231-3.09a5.079,5.079,0,0,1-2.006-.8,1.669,1.669,0,0,1-.68-1.4,2,2,0,0,1,.786-1.586,3.126,3.126,0,0,1,2.071-.656,3.244,3.244,0,0,1,2.15.667,1.974,1.974,0,0,1,.762,1.651l-.014.041H-2.755A1.042,1.042,0,0,0-3.1-5.961a1.34,1.34,0,0,0-.957-.328,1.369,1.369,0,0,0-.916.27.838.838,0,0,0-.314.66.74.74,0,0,0,.3.619,3.193,3.193,0,0,0,1.207.407,5.083,5.083,0,0,1,2.068.81A1.708,1.708,0,0,1-1.046-2.1,1.939,1.939,0,0,1-1.87-.479,3.51,3.51,0,0,1-4.04.144,3.313,3.313,0,0,1-6.316-.595a2.085,2.085,0,0,1-.793-1.7l.014-.041h1.545a1.108,1.108,0,0,0,.465.937A1.868,1.868,0,0,0-4.02-1.1a1.7,1.7,0,0,0,.991-.246A.772.772,0,0,0-2.68-2.01ZM2.509-9.194v1.8H3.835v1.23H2.509v4.088a.891.891,0,0,0,.2.653.718.718,0,0,0,.526.195A1.469,1.469,0,0,0,3.5-1.254a1.62,1.62,0,0,0,.246-.065L3.924-.1a1.9,1.9,0,0,1-.506.181A2.812,2.812,0,0,1,2.81.144,1.9,1.9,0,0,1,1.374-.393a2.35,2.35,0,0,1-.52-1.685V-6.166H-.273V-7.4H.854v-1.8ZM5-3.767a4.029,4.029,0,0,1,.9-2.707,3.111,3.111,0,0,1,2.481-1.06,3.1,3.1,0,0,1,2.5,1.06,3.994,3.994,0,0,1,.909,2.707v.144A4.014,4.014,0,0,1,10.883-.9,3.1,3.1,0,0,1,8.4.144a3.124,3.124,0,0,1-2.5-1.053A4.023,4.023,0,0,1,5-3.623Zm1.661.144a3.3,3.3,0,0,0,.424,1.764A1.429,1.429,0,0,0,8.4-1.183a1.436,1.436,0,0,0,1.3-.677,3.221,3.221,0,0,0,.438-1.764v-.144A3.18,3.18,0,0,0,9.7-5.51,1.441,1.441,0,0,0,8.388-6.2a1.429,1.429,0,0,0-1.3.69,3.282,3.282,0,0,0-.424,1.743ZM14.759-7.4l.089.964a2.507,2.507,0,0,1,.909-.813,2.681,2.681,0,0,1,1.265-.287,2.282,2.282,0,0,1,1.244.328,1.983,1.983,0,0,1,.779.984,2.591,2.591,0,0,1,.9-.964,2.434,2.434,0,0,1,1.313-.349,2.186,2.186,0,0,1,1.76.762,3.514,3.514,0,0,1,.646,2.314V0H22V-4.464A2.076,2.076,0,0,0,21.68-5.79a1.206,1.206,0,0,0-.974-.383,1.425,1.425,0,0,0-.9.287,1.6,1.6,0,0,0-.533.772q0,.1.007.178t.007.144V0H17.623V-4.464a2.053,2.053,0,0,0-.332-1.309,1.193,1.193,0,0,0-.974-.4,1.749,1.749,0,0,0-.858.195,1.436,1.436,0,0,0-.557.55V0H13.241V-7.4ZM-28.68,14V4.047h3.227a4.173,4.173,0,0,1,3.08,1.183,4.111,4.111,0,0,1,1.186,3.042V9.782a4.1,4.1,0,0,1-1.186,3.042A4.186,4.186,0,0,1-25.454,14Zm1.661-8.62v7.294H-25.5a2.453,2.453,0,0,0,1.945-.807,3.046,3.046,0,0,0,.708-2.085V8.258a3.026,3.026,0,0,0-.708-2.071A2.453,2.453,0,0,0-25.5,5.38ZM-15.241,14q-.089-.28-.147-.547a3.909,3.909,0,0,1-.079-.533,2.935,2.935,0,0,1-.9.872,2.287,2.287,0,0,1-1.248.352,2.459,2.459,0,0,1-1.774-.595,2.16,2.16,0,0,1-.619-1.634,1.93,1.93,0,0,1,.848-1.671,4.093,4.093,0,0,1,2.386-.6h1.292V9a1.2,1.2,0,0,0-.342-.909,1.356,1.356,0,0,0-.978-.328,1.384,1.384,0,0,0-.9.273.868.868,0,0,0-.335.7h-1.6l-.007-.041a1.832,1.832,0,0,1,.783-1.552A3.317,3.317,0,0,1-16.7,6.467a3.164,3.164,0,0,1,2.085.656,2.31,2.31,0,0,1,.793,1.887V12.3a6.064,6.064,0,0,0,.062.878,4.664,4.664,0,0,0,.2.824Zm-2.037-1.189a2.088,2.088,0,0,0,1.131-.314,1.583,1.583,0,0,0,.667-.718V10.685H-16.8a1.666,1.666,0,0,0-1.135.359,1.09,1.09,0,0,0-.41.844.861.861,0,0,0,.277.673A1.14,1.14,0,0,0-17.278,12.811Zm7.267-8V6.6h1.326v1.23h-1.326v4.088a.891.891,0,0,0,.2.653.718.718,0,0,0,.526.195,1.469,1.469,0,0,0,.267-.024,1.62,1.62,0,0,0,.246-.065L-8.6,13.9a1.9,1.9,0,0,1-.506.181,2.812,2.812,0,0,1-.608.065,1.9,1.9,0,0,1-1.436-.537,2.35,2.35,0,0,1-.52-1.685V7.834h-1.128V6.6h1.128v-1.8ZM-2.758,14q-.089-.28-.147-.547a3.909,3.909,0,0,1-.079-.533,2.935,2.935,0,0,1-.9.872,2.287,2.287,0,0,1-1.248.352A2.459,2.459,0,0,1-6.9,13.549a2.16,2.16,0,0,1-.619-1.634,1.93,1.93,0,0,1,.848-1.671,4.093,4.093,0,0,1,2.386-.6H-3V9a1.2,1.2,0,0,0-.342-.909,1.356,1.356,0,0,0-.978-.328,1.384,1.384,0,0,0-.9.273.868.868,0,0,0-.335.7h-1.6L-7.161,8.7a1.832,1.832,0,0,1,.783-1.552,3.317,3.317,0,0,1,2.164-.677,3.164,3.164,0,0,1,2.085.656A2.31,2.31,0,0,1-1.336,9.01V12.3a6.064,6.064,0,0,0,.062.878,4.664,4.664,0,0,0,.2.824ZM-4.8,12.811A2.088,2.088,0,0,0-3.664,12.5,1.583,1.583,0,0,0-3,11.778V10.685H-4.317a1.666,1.666,0,0,0-1.135.359,1.09,1.09,0,0,0-.41.844.861.861,0,0,0,.277.673A1.14,1.14,0,0,0-4.8,12.811ZM6.9,10.548a4.181,4.181,0,0,1-.755,2.608,2.525,2.525,0,0,1-2.129.988,2.45,2.45,0,0,1-1.2-.28,2.34,2.34,0,0,1-.851-.82L1.8,14H.407V3.336H2.068V7.444a2.385,2.385,0,0,1,.82-.725A2.35,2.35,0,0,1,4,6.467a2.461,2.461,0,0,1,2.143,1.08A4.891,4.891,0,0,1,6.9,10.4ZM5.24,10.4a3.819,3.819,0,0,0-.4-1.866,1.337,1.337,0,0,0-1.258-.711,1.645,1.645,0,0,0-.926.246,1.72,1.72,0,0,0-.591.684v3.1a1.629,1.629,0,0,0,.588.687,1.707,1.707,0,0,0,.943.243,1.377,1.377,0,0,0,1.251-.6,3,3,0,0,0,.39-1.637ZM12.787,14q-.089-.28-.147-.547a3.909,3.909,0,0,1-.079-.533,2.935,2.935,0,0,1-.9.872,2.287,2.287,0,0,1-1.248.352,2.459,2.459,0,0,1-1.774-.595,2.16,2.16,0,0,1-.619-1.634,1.93,1.93,0,0,1,.848-1.671,4.093,4.093,0,0,1,2.386-.6h1.292V9a1.2,1.2,0,0,0-.342-.909,1.356,1.356,0,0,0-.978-.328,1.384,1.384,0,0,0-.9.273.868.868,0,0,0-.335.7h-1.6L8.384,8.7a1.832,1.832,0,0,1,.783-1.552,3.317,3.317,0,0,1,2.164-.677,3.164,3.164,0,0,1,2.085.656,2.31,2.31,0,0,1,.793,1.887V12.3a6.064,6.064,0,0,0,.062.878,4.664,4.664,0,0,0,.2.824ZM10.75,12.811a2.088,2.088,0,0,0,1.131-.314,1.583,1.583,0,0,0,.667-.718V10.685H11.228a1.666,1.666,0,0,0-1.135.359,1.09,1.09,0,0,0-.41.844.861.861,0,0,0,.277.673A1.14,1.14,0,0,0,10.75,12.811Zm9.358-.82a.772.772,0,0,0-.328-.636,3.273,3.273,0,0,0-1.224-.444,5.079,5.079,0,0,1-2.006-.8,1.669,1.669,0,0,1-.68-1.4,2,2,0,0,1,.786-1.586,3.126,3.126,0,0,1,2.071-.656,3.244,3.244,0,0,1,2.15.667,1.974,1.974,0,0,1,.762,1.651l-.014.041H20.033a1.042,1.042,0,0,0-.349-.786,1.34,1.34,0,0,0-.957-.328,1.369,1.369,0,0,0-.916.27.838.838,0,0,0-.314.66.74.74,0,0,0,.3.619A3.193,3.193,0,0,0,19,9.666a5.083,5.083,0,0,1,2.068.81,1.708,1.708,0,0,1,.673,1.425,1.939,1.939,0,0,1-.824,1.62,3.51,3.51,0,0,1-2.17.622,3.313,3.313,0,0,1-2.276-.738,2.085,2.085,0,0,1-.793-1.7l.014-.041h1.545a1.108,1.108,0,0,0,.465.937,1.868,1.868,0,0,0,1.066.294,1.7,1.7,0,0,0,.991-.246A.772.772,0,0,0,20.108,11.99Zm6.3,2.153A3.216,3.216,0,0,1,23.9,13.115a3.782,3.782,0,0,1-.933-2.642V10.2a3.927,3.927,0,0,1,.926-2.676,2.93,2.93,0,0,1,2.321-1.056,2.891,2.891,0,0,1,2.293.906,3.549,3.549,0,0,1,.8,2.43v.978H24.688l-.014.034a2.329,2.329,0,0,0,.516,1.442,1.632,1.632,0,0,0,1.316.561,3.557,3.557,0,0,0,1.148-.164,3.763,3.763,0,0,0,.923-.472l.533,1.087A3.441,3.441,0,0,1,28,13.891,4.64,4.64,0,0,1,26.4,14.144ZM26.212,7.8a1.246,1.246,0,0,0-1.012.489,2.407,2.407,0,0,0-.492,1.241l.014.034h2.933V9.393A1.77,1.77,0,0,0,27.3,8.244,1.31,1.31,0,0,0,26.212,7.8Z" transform="translate(561.802 737.663)" fill="#b4bbc6"/>
    <g id="Group_3917" data-name="Group 3917" transform="translate(85.186 558.083)">
      <path id="Path_4581" data-name="Path 4581" d="M476.927,96.355c-.716,0-17.538-.042-17.538-3.667s16.822-3.667,17.538-3.667,17.538.042,17.538,3.667S477.643,96.355,476.927,96.355Zm0-6.033c-10.234,0-15.928,1.532-16.239,2.389.312.81,6,2.342,16.239,2.342,10.139,0,15.822-1.5,16.23-2.366C492.748,91.826,487.065,90.323,476.927,90.323Z" transform="translate(0 0)" fill="#526279"/>
      <path id="Path_4582" data-name="Path 4582" d="M476.927,103.48c-.716,0-17.538-.042-17.538-3.667V93.78a.651.651,0,0,1,1.3,0c.309.834,6,2.366,16.236,2.366,10.2,0,15.893-1.522,16.236-2.382a.807.807,0,0,1,.007-.083.641.641,0,0,1,.645-.564.66.66,0,0,1,.649.663v6.033C494.465,103.438,477.643,103.48,476.927,103.48Zm-16.236-8.142v4.474c.309.834,6,2.365,16.236,2.365s15.927-1.531,16.239-2.389l0-4.451c-3.962,2.081-15.643,2.109-16.237,2.109S464.653,97.419,460.691,95.338Z" transform="translate(0 -1.092)" fill="#526279"/>
      <path id="Path_4583" data-name="Path 4583" d="M476.927,135.118c-.716,0-17.538-.041-17.538-3.667v-6.032a.651.651,0,0,1,1.3,0c.309.834,6,2.365,16.236,2.365,10.2,0,15.892-1.522,16.236-2.381a.806.806,0,0,1,.007-.083.641.641,0,0,1,.645-.564.66.66,0,0,1,.649.663v6.032C494.465,135.077,477.643,135.118,476.927,135.118Zm-16.236-8.141v4.474c.309.834,6,2.365,16.236,2.365s15.927-1.531,16.239-2.389l0-4.45c-3.962,2.08-15.643,2.109-16.237,2.109S464.653,129.058,460.691,126.977Z" transform="translate(0 -9.529)" fill="#526279"/>
      <path id="Path_4584" data-name="Path 4584" d="M467.067,101.731a.643.643,0,0,1-.1-.007c-1.107-.169-2.094-.364-2.933-.577a.651.651,0,0,1,.321-1.262c.8.2,1.742.389,2.808.552a.651.651,0,0,1-.1,1.294Z" transform="translate(-1.108 -2.891)" fill="#526279"/>
      <path id="Path_4585" data-name="Path 4585" d="M476,102.708q-1.682-.079-3.2-.213a.652.652,0,0,1-.591-.706.641.641,0,0,1,.706-.59c.992.087,2.039.158,3.112.209a.651.651,0,0,1-.03,1.3Z" transform="translate(-3.419 -3.246)" fill="#526279"/>
      <path id="Path_4586" data-name="Path 4586" d="M492.171,104.073a.651.651,0,0,1-.651-.651V97.39a.65.65,0,0,1,.6-.649c1.528-.118,2.948-.276,4.223-.47a.653.653,0,0,1,.75.644v6.032a.651.651,0,0,1-.553.643c-1.307.2-2.76.361-4.319.48Zm.651-6.083v4.726c1.05-.092,2.045-.2,2.969-.331V97.666C494.862,97.793,493.868,97.9,492.822,97.99Z" transform="translate(-8.568 -1.931)" fill="#526279"/>
      <path id="Path_4587" data-name="Path 4587" d="M477.665,109.78c-.633,0-15.509-.038-15.509-3.305v-2.509a.651.651,0,0,1,.854-.618c2.9.956,8.513,1.549,14.654,1.549s11.756-.593,14.654-1.549a.651.651,0,0,1,.854.618v2.509C493.174,109.742,478.3,109.78,477.665,109.78Zm-14.207-3.34c.43.741,5.48,2.037,14.207,2.037s13.777-1.3,14.207-2.037v-1.6a74.788,74.788,0,0,1-28.414,0Z" transform="translate(-0.738 -3.812)" fill="#526279"/>
      <path id="Path_4588" data-name="Path 4588" d="M476.927,119.306c-.716,0-17.538-.042-17.538-3.667v-6.033a.651.651,0,1,1,1.3,0c.309.834,6,2.365,16.236,2.365,10.2,0,15.893-1.522,16.236-2.381,0-.028,0-.056.007-.084a.641.641,0,0,1,.645-.563.66.66,0,0,1,.649.663v6.033C494.465,119.264,477.643,119.306,476.927,119.306Zm-16.236-8.141v4.474c.309.833,6,2.365,16.236,2.365s15.927-1.532,16.239-2.389l0-4.451c-3.962,2.081-15.643,2.11-16.237,2.11S464.653,113.246,460.691,111.165Z" transform="translate(0 -5.313)" fill="#526279"/>
      <path id="Path_4589" data-name="Path 4589" d="M467.067,117.557a.641.641,0,0,1-.1-.007c-1.107-.169-2.094-.363-2.933-.577a.651.651,0,1,1,.321-1.261c.8.2,1.742.389,2.808.551a.651.651,0,0,1-.1,1.294Z" transform="translate(-1.108 -7.112)" fill="#526279"/>
      <path id="Path_4590" data-name="Path 4590" d="M476,118.534q-1.682-.078-3.2-.213a.652.652,0,0,1-.591-.706.641.641,0,0,1,.706-.591c.992.088,2.039.158,3.112.209a.651.651,0,0,1-.03,1.3Z" transform="translate(-3.419 -7.466)" fill="#526279"/>
      <path id="Path_4591" data-name="Path 4591" d="M492.171,119.9a.651.651,0,0,1-.651-.651v-6.032a.65.65,0,0,1,.6-.648c1.528-.118,2.948-.276,4.222-.47a.651.651,0,0,1,.75.644v6.032a.651.651,0,0,1-.553.644c-1.306.2-2.759.36-4.319.48Zm.651-6.083v4.726c1.05-.092,2.045-.2,2.969-.331v-4.718C494.862,113.619,493.868,113.728,492.822,113.817Z" transform="translate(-8.568 -6.152)" fill="#526279"/>
      <path id="Path_4592" data-name="Path 4592" d="M492.171,135.713a.651.651,0,0,1-.651-.651V129.03a.65.65,0,0,1,.6-.649c1.528-.118,2.949-.276,4.223-.47a.659.659,0,0,1,.522.15.65.65,0,0,1,.227.494v6.033a.651.651,0,0,1-.553.644c-1.305.2-2.759.36-4.319.48Zm.651-6.083v4.726c1.051-.092,2.045-.2,2.969-.331v-4.718C494.863,129.432,493.868,129.54,492.822,129.63Z" transform="translate(-8.568 -10.368)" fill="#526279"/>
      <path id="Path_4593" data-name="Path 4593" d="M477.665,125.606c-.633,0-15.509-.037-15.509-3.3v-2.509a.651.651,0,0,1,.854-.618c2.9.956,8.513,1.549,14.654,1.549s11.756-.593,14.654-1.549a.651.651,0,0,1,.854.618V122.3C493.174,125.569,478.3,125.606,477.665,125.606Zm-14.207-3.34c.43.741,5.48,2.038,14.207,2.038s13.777-1.3,14.207-2.038v-1.6a74.829,74.829,0,0,1-28.414,0Z" transform="translate(-0.738 -8.032)" fill="#526279"/>
      <path id="Path_4594" data-name="Path 4594" d="M476.927,112.752c-.716,0-17.538-.042-17.538-3.667,0-1.116,1.437-1.714,2.518-2.066a.648.648,0,0,1,.81.386c.36.735,5.418,2.052,14.211,2.052s13.851-1.317,14.211-2.055a.647.647,0,0,1,.809-.383c1.08.352,2.518.95,2.518,2.066C494.465,112.71,477.643,112.752,476.927,112.752Zm-15.042-4.347c-1.058.4-1.2.7-1.2.7.312.81,6,2.341,16.239,2.341s15.912-1.528,16.238-2.386a3.039,3.039,0,0,0-1.2-.659c-2,1.841-10.166,2.353-15.042,2.353S463.884,110.247,461.885,108.406Z" transform="translate(0 -4.79)" fill="#526279"/>
      <path id="Path_4595" data-name="Path 4595" d="M476.927,128.565c-.716,0-17.538-.042-17.538-3.667,0-1.115,1.434-1.712,2.513-2.064a.65.65,0,0,1,.814.4c.359.733,5.418,2.05,14.211,2.05s13.851-1.317,14.212-2.055a.646.646,0,0,1,.812-.392c1.079.352,2.514.949,2.514,2.064C494.465,128.523,477.643,128.565,476.927,128.565Zm-15.049-4.344c-1.052.4-1.19.7-1.19.7.312.809,6.005,2.34,16.239,2.34s15.912-1.528,16.238-2.386a3.02,3.02,0,0,0-1.19-.656c-1.987,1.847-10.16,2.361-15.049,2.361S463.865,126.068,461.878,124.221Z" transform="translate(0 -9.007)" fill="#526279"/>
      <path id="Path_4596" data-name="Path 4596" d="M464.06,135.886a.651.651,0,0,1-.651-.651v-2.026a.651.651,0,0,1,1.3,0v2.026A.651.651,0,0,1,464.06,135.886Z" transform="translate(-1.072 -11.609)" fill="#526279"/>
      <path id="Path_4597" data-name="Path 4597" d="M468.365,136.138a.651.651,0,0,1-.651-.65v-3.651a.651.651,0,1,1,1.3,0v3.651A.651.651,0,0,1,468.365,136.138Z" transform="translate(-2.22 -11.243)" fill="#526279"/>
    </g>
  </g>
</svg>
