<svg xmlns="http://www.w3.org/2000/svg" xmlns:xlink="http://www.w3.org/1999/xlink" width="474.957" height="867.016" viewBox="0 0 474.957 867.016">
  <defs>
    <filter id="Path_4526" x="0" y="210.81" width="474.957" height="474.956" filterUnits="userSpaceOnUse">
      <feOffset dy="20" input="SourceAlpha"/>
      <feGaussianBlur stdDeviation="49.5" result="blur"/>
      <feFlood flood-color="#3c485a" flood-opacity="0.149"/>
      <feComposite operator="in" in2="blur"/>
      <feComposite in="SourceGraphic"/>
    </filter>
    <filter id="Path_4528" x="47.598" y="0" width="376.198" height="376.198" filterUnits="userSpaceOnUse">
      <feOffset dy="5" input="SourceAlpha"/>
      <feGaussianBlur stdDeviation="49.5" result="blur-2"/>
      <feFlood flood-color="#3c485a" flood-opacity="0.102"/>
      <feComposite operator="in" in2="blur-2"/>
      <feComposite in="SourceGraphic"/>
    </filter>
    <filter id="Path_4522" x="47.598" y="490.817" width="376.198" height="376.198" filterUnits="userSpaceOnUse">
      <feOffset dy="5" input="SourceAlpha"/>
      <feGaussianBlur stdDeviation="49.5" result="blur-3"/>
      <feFlood flood-color="#3c485a" flood-opacity="0.102"/>
      <feComposite operator="in" in2="blur-3"/>
      <feComposite in="SourceGraphic"/>
    </filter>
  </defs>
  <g id="Group_3912" data-name="Group 3912" transform="translate(-326.523 7.581)">
    <path id="Path_4525" data-name="Path 4525" d="M114.484,0A114.484,114.484,0,1,1,0,114.484,114.484,114.484,0,0,1,114.484,0Z" transform="translate(678.268 306.443) rotate(90)" fill="none" stroke="#d82125" stroke-linecap="round" stroke-width="3" stroke-dasharray="1 10"/>
    <g transform="matrix(1, 0, 0, 1, 326.52, -7.58)" filter="url(#Path_4526)">
      <path id="Path_4526-2" data-name="Path 4526" d="M88.979,0A88.978,88.978,0,1,1,0,88.978,88.978,88.978,0,0,1,88.979,0Z" transform="translate(148.5 339.31)" fill="#fff"/>
    </g>
    <ellipse id="Ellipse_123" data-name="Ellipse 123" cx="28.414" cy="28.414" rx="28.414" ry="28.414" transform="translate(538.004 394.774)" fill="#d82225"/>
    <path id="Path_1151" data-name="Path 1151" d="M605.389,191.02c.627-.036.761-.02,1.4-.02a32.4,32.4,0,0,1,24.31,10.944,2.791,2.791,0,0,0,1.9,1.266,2.342,2.342,0,0,0,1.924-.666l.463-.393a19.279,19.279,0,1,0-32.322-14.194,3.818,3.818,0,0,0,.193,1.617,2.24,2.24,0,0,0,2.128,1.447" transform="translate(-40.371 199.715)" fill="#262626"/>
    <path id="Path_1152" data-name="Path 1152" d="M634.789,242.158q.248.332.476.681a12.854,12.854,0,1,1-21.757,13.69c-.1-.169-.2-.344-.3-.515a1.716,1.716,0,0,1-.229-1.638,1.836,1.836,0,0,1,1.521-1.113,9.952,9.952,0,0,0,1.057-.286,32.485,32.485,0,0,0,15.623-10.039c.2-.236.394-.484.6-.718a2.122,2.122,0,0,1,.956-.81,1.669,1.669,0,0,1,1.47.163A1.993,1.993,0,0,1,634.789,242.158Z" transform="translate(-40.141 201.418)" fill="#3d3d3d"/>
    <g transform="matrix(1, 0, 0, 1, 326.52, -7.58)" filter="url(#Path_4528)">
      <path id="Path_4528-2" data-name="Path 4528" d="M8.867,0H69.332A8.867,8.867,0,0,1,78.2,8.867V69.332A8.867,8.867,0,0,1,69.332,78.2H8.867A8.867,8.867,0,0,1,0,69.332V8.867A8.867,8.867,0,0,1,8.867,0Z" transform="translate(196.6 144)" fill="#fff" stroke="#b4bbc6" stroke-width="1"/>
    </g>
    <path id="Path_4798" data-name="Path 4798" d="M-43.832-2.652v.014l.007-.034,1.989-7.28h1.326l2.01,7.3.007.048.007-.068,1.572-7.28h1.634L-37.646,0h-1.511l-1.989-7.144h-.041l-2,7.144H-44.7l-2.358-9.953h1.634ZM-34.6-3.767a4.029,4.029,0,0,1,.9-2.707,3.111,3.111,0,0,1,2.481-1.06,3.1,3.1,0,0,1,2.5,1.06,3.994,3.994,0,0,1,.909,2.707v.144A4.014,4.014,0,0,1-28.725-.9,3.1,3.1,0,0,1-31.206.144,3.124,3.124,0,0,1-33.7-.909a4.023,4.023,0,0,1-.9-2.714Zm1.661.144a3.3,3.3,0,0,0,.424,1.764,1.429,1.429,0,0,0,1.313.677,1.436,1.436,0,0,0,1.3-.677,3.221,3.221,0,0,0,.438-1.764v-.144a3.18,3.18,0,0,0-.437-1.743A1.441,1.441,0,0,0-31.22-6.2a1.429,1.429,0,0,0-1.3.69,3.282,3.282,0,0,0-.424,1.743Zm6.269-.144a4.029,4.029,0,0,1,.9-2.707,3.111,3.111,0,0,1,2.481-1.06,3.1,3.1,0,0,1,2.5,1.06,3.994,3.994,0,0,1,.909,2.707v.144A4.014,4.014,0,0,1-20.795-.9,3.1,3.1,0,0,1-23.276.144a3.124,3.124,0,0,1-2.5-1.053,4.023,4.023,0,0,1-.9-2.714Zm1.661.144a3.3,3.3,0,0,0,.424,1.764,1.429,1.429,0,0,0,1.313.677,1.436,1.436,0,0,0,1.3-.677,3.221,3.221,0,0,0,.438-1.764v-.144a3.18,3.18,0,0,0-.437-1.743A1.441,1.441,0,0,0-23.29-6.2a1.429,1.429,0,0,0-1.3.69,3.282,3.282,0,0,0-.424,1.743Zm9.632,2.44a1.517,1.517,0,0,0,1.025-.359,1.137,1.137,0,0,0,.417-.9h1.5l.014.041a2.184,2.184,0,0,1-.844,1.791,3.144,3.144,0,0,1-2.116.752A3.068,3.068,0,0,1-17.886-.909a4.041,4.041,0,0,1-.872-2.666v-.239a4.044,4.044,0,0,1,.872-2.663,3.063,3.063,0,0,1,2.505-1.056,3.042,3.042,0,0,1,2.164.776,2.5,2.5,0,0,1,.8,1.972l-.014.041h-1.511a1.449,1.449,0,0,0-.4-1.032A1.368,1.368,0,0,0-15.381-6.2a1.4,1.4,0,0,0-1.326.68,3.391,3.391,0,0,0-.39,1.706v.239a3.4,3.4,0,0,0,.39,1.719A1.406,1.406,0,0,0-15.381-1.183ZM-11.4-3.767a4.029,4.029,0,0,1,.9-2.707,3.111,3.111,0,0,1,2.481-1.06,3.1,3.1,0,0,1,2.5,1.06,3.994,3.994,0,0,1,.909,2.707v.144A4.014,4.014,0,0,1-5.517-.9,3.1,3.1,0,0,1-8,.144a3.124,3.124,0,0,1-2.5-1.053,4.023,4.023,0,0,1-.9-2.714Zm1.661.144a3.3,3.3,0,0,0,.424,1.764A1.429,1.429,0,0,0-8-1.183a1.436,1.436,0,0,0,1.3-.677,3.221,3.221,0,0,0,.438-1.764v-.144A3.18,3.18,0,0,0-6.7-5.51,1.441,1.441,0,0,0-8.012-6.2a1.429,1.429,0,0,0-1.3.69,3.282,3.282,0,0,0-.424,1.743ZM-1.641-7.4l.089.964a2.507,2.507,0,0,1,.909-.813A2.681,2.681,0,0,1,.622-7.533a2.282,2.282,0,0,1,1.244.328,1.983,1.983,0,0,1,.779.984,2.591,2.591,0,0,1,.9-.964A2.434,2.434,0,0,1,4.86-7.533a2.186,2.186,0,0,1,1.76.762,3.514,3.514,0,0,1,.646,2.314V0H5.605V-4.464A2.076,2.076,0,0,0,5.281-5.79a1.206,1.206,0,0,0-.974-.383,1.425,1.425,0,0,0-.9.287,1.6,1.6,0,0,0-.533.772q0,.1.007.178t.007.144V0H1.224V-4.464A2.053,2.053,0,0,0,.892-5.773a1.193,1.193,0,0,0-.974-.4,1.749,1.749,0,0,0-.858.195,1.436,1.436,0,0,0-.557.55V0H-3.158V-7.4Zm12.175,0,.089.964a2.507,2.507,0,0,1,.909-.813A2.681,2.681,0,0,1,12.8-7.533a2.282,2.282,0,0,1,1.244.328,1.983,1.983,0,0,1,.779.984,2.591,2.591,0,0,1,.9-.964,2.434,2.434,0,0,1,1.313-.349,2.186,2.186,0,0,1,1.76.762,3.514,3.514,0,0,1,.646,2.314V0H17.78V-4.464a2.076,2.076,0,0,0-.325-1.326,1.206,1.206,0,0,0-.974-.383,1.425,1.425,0,0,0-.9.287,1.6,1.6,0,0,0-.533.772q0,.1.007.178t.007.144V0H13.4V-4.464a2.053,2.053,0,0,0-.332-1.309,1.193,1.193,0,0,0-.974-.4,1.749,1.749,0,0,0-.858.195,1.436,1.436,0,0,0-.557.55V0H9.017V-7.4ZM24.363.144A3.216,3.216,0,0,1,21.858-.885a3.782,3.782,0,0,1-.933-2.642V-3.8a3.927,3.927,0,0,1,.926-2.676,2.93,2.93,0,0,1,2.321-1.056,2.891,2.891,0,0,1,2.293.906,3.549,3.549,0,0,1,.8,2.43v.978H22.647l-.014.034a2.329,2.329,0,0,0,.516,1.442,1.632,1.632,0,0,0,1.316.561,3.557,3.557,0,0,0,1.148-.164,3.763,3.763,0,0,0,.923-.472L27.07-.731a3.441,3.441,0,0,1-1.107.622A4.64,4.64,0,0,1,24.363.144ZM24.172-6.2a1.246,1.246,0,0,0-1.012.489,2.407,2.407,0,0,0-.492,1.241l.014.034h2.933v-.171a1.77,1.77,0,0,0-.359-1.148A1.31,1.31,0,0,0,24.172-6.2Zm8.114.3-.711-.027a1.49,1.49,0,0,0-.81.205,1.351,1.351,0,0,0-.5.581V0H28.6V-7.4h1.518l.109,1.073a2.372,2.372,0,0,1,.721-.889,1.679,1.679,0,0,1,1.015-.321,1.548,1.548,0,0,1,.28.024,2.047,2.047,0,0,1,.239.058ZM36.5-1.183a1.517,1.517,0,0,0,1.025-.359,1.137,1.137,0,0,0,.417-.9h1.5l.014.041A2.184,2.184,0,0,1,38.62-.608,3.144,3.144,0,0,1,36.5.144,3.068,3.068,0,0,1,34-.909a4.041,4.041,0,0,1-.872-2.666v-.239A4.044,4.044,0,0,1,34-6.477,3.063,3.063,0,0,1,36.5-7.533a3.042,3.042,0,0,1,2.164.776,2.5,2.5,0,0,1,.8,1.972l-.014.041H37.946a1.449,1.449,0,0,0-.4-1.032A1.368,1.368,0,0,0,36.5-6.2a1.4,1.4,0,0,0-1.326.68,3.391,3.391,0,0,0-.39,1.706v.239a3.4,3.4,0,0,0,.39,1.719A1.406,1.406,0,0,0,36.5-1.183ZM43.969.144A3.216,3.216,0,0,1,41.463-.885a3.782,3.782,0,0,1-.933-2.642V-3.8a3.927,3.927,0,0,1,.926-2.676,2.93,2.93,0,0,1,2.321-1.056,2.891,2.891,0,0,1,2.293.906,3.549,3.549,0,0,1,.8,2.43v.978H42.253l-.014.034a2.329,2.329,0,0,0,.516,1.442,1.632,1.632,0,0,0,1.316.561,3.557,3.557,0,0,0,1.148-.164,3.763,3.763,0,0,0,.923-.472l.533,1.087a3.441,3.441,0,0,1-1.107.622A4.64,4.64,0,0,1,43.969.144ZM43.777-6.2a1.246,1.246,0,0,0-1.012.489,2.407,2.407,0,0,0-.492,1.241l.014.034H45.22v-.171a1.77,1.77,0,0,0-.359-1.148A1.31,1.31,0,0,0,43.777-6.2Z" transform="translate(562.596 115.902)" fill="#b4bbc6"/>
    <path id="Path_1420" data-name="Path 1420" d="M4.689,0H45.809a4.707,4.707,0,0,1,4.709,4.709v15.7a4.707,4.707,0,0,1-4.709,4.709H31.063l2.024,4.957-8.9-4.957H4.709A4.707,4.707,0,0,1,0,20.405V4.709A4.689,4.689,0,0,1,4.689,0Z" transform="translate(537.664 161.008)" fill="#9b5c8f"/>
    <path id="Path_1421" data-name="Path 1421" d="M13.14,15.624a1.652,1.652,0,0,1,1.294-.637,1.5,1.5,0,0,1,1.787,1.478q.955,6.438,2.074,10.9l4.5-8.563a1.949,1.949,0,0,1,1.54-1.232c.9-.062,1.458.513,1.684,1.725a38.372,38.372,0,0,0,1.951,7.023q.8-7.824,2.711-11.295a1.577,1.577,0,0,1,1.355-.9,1.784,1.784,0,0,1,1.294.411,1.608,1.608,0,0,1,.637,1.171,1.783,1.783,0,0,1-.205.986,24.863,24.863,0,0,0-1.992,7.413,38.259,38.259,0,0,0-.575,7.824,2.439,2.439,0,0,1-.246,1.356,1.323,1.323,0,0,1-1.089.739,2.065,2.065,0,0,1-1.622-.76A20.33,20.33,0,0,1,23.7,24.516q-2,3.943-2.957,5.914c-1.212,2.321-2.238,3.512-3.1,3.573-.554.041-1.027-.431-1.437-1.417Q14.629,28.552,12.811,17A1.749,1.749,0,0,1,13.14,15.624Zm44.132,3.224a4.729,4.729,0,0,0-3.286-2.382,5.4,5.4,0,0,0-1.109-.123c-1.971,0-3.573,1.027-4.826,3.08a10.88,10.88,0,0,0-1.6,5.791,7.952,7.952,0,0,0,.986,4.066,4.729,4.729,0,0,0,3.286,2.382,5.381,5.381,0,0,0,1.109.123,5.491,5.491,0,0,0,4.826-3.08,11.005,11.005,0,0,0,1.6-5.812A7.578,7.578,0,0,0,57.272,18.848Zm-2.587,5.688a5.433,5.433,0,0,1-1.561,3.039,1.975,1.975,0,0,1-1.663.657c-.493-.1-.9-.534-1.212-1.335a5.211,5.211,0,0,1-.37-1.869,7.144,7.144,0,0,1,.144-1.5,6.643,6.643,0,0,1,1.088-2.444c.678-1.006,1.4-1.417,2.136-1.273.493.1.9.534,1.212,1.335a5.211,5.211,0,0,1,.37,1.869A7.211,7.211,0,0,1,54.684,24.537ZM44.416,18.848a4.772,4.772,0,0,0-3.286-2.382,5.394,5.394,0,0,0-1.109-.123c-1.971,0-3.573,1.027-4.826,3.08a10.882,10.882,0,0,0-1.6,5.791,7.952,7.952,0,0,0,.986,4.066,4.729,4.729,0,0,0,3.286,2.382,5.38,5.38,0,0,0,1.109.123,5.491,5.491,0,0,0,4.826-3.08,11,11,0,0,0,1.6-5.812A7.77,7.77,0,0,0,44.416,18.848Zm-2.608,5.688a5.433,5.433,0,0,1-1.561,3.039,1.975,1.975,0,0,1-1.663.657c-.493-.1-.9-.534-1.212-1.335A5.211,5.211,0,0,1,37,25.03a7.144,7.144,0,0,1,.144-1.5,6.64,6.64,0,0,1,1.089-2.444c.678-1.006,1.4-1.417,2.136-1.273.493.1.9.534,1.212,1.335a5.211,5.211,0,0,1,.37,1.869,6.061,6.061,0,0,1-.144,1.52Z" transform="translate(527.4 149.676)" fill="#fff"/>
    <g transform="matrix(1, 0, 0, 1, 326.52, -7.58)" filter="url(#Path_4522)">
      <path id="Path_4522-2" data-name="Path 4522" d="M8.867,0H69.332A8.867,8.867,0,0,1,78.2,8.867V69.332A8.867,8.867,0,0,1,69.332,78.2H8.867A8.867,8.867,0,0,1,0,69.332V8.867A8.867,8.867,0,0,1,8.867,0Z" transform="translate(274.8 713.02) rotate(180)" fill="#fff" stroke="#b4bbc6" stroke-width="1"/>
    </g>
    <path id="Path_4894" data-name="Path 4894" d="M-16.194-3.3l.014.041A3.134,3.134,0,0,1-17.162-.8a3.829,3.829,0,0,1-2.731.947,3.692,3.692,0,0,1-2.833-1.172,4.227,4.227,0,0,1-1.09-3V-5.92a4.274,4.274,0,0,1,1.077-3,3.615,3.615,0,0,1,2.8-1.179,3.967,3.967,0,0,1,2.779.926,3.128,3.128,0,0,1,.988,2.492l-.014.041h-1.606A2.155,2.155,0,0,0-18.337-8.2a2.134,2.134,0,0,0-1.6-.561,1.908,1.908,0,0,0-1.617.807,3.3,3.3,0,0,0-.6,2.023v1.907a3.275,3.275,0,0,0,.612,2.037,1.964,1.964,0,0,0,1.651.807,2.075,2.075,0,0,0,1.565-.554A2.165,2.165,0,0,0-17.794-3.3Zm6.036,2.222a2.531,2.531,0,0,1-.882.906,2.357,2.357,0,0,1-1.23.318A2.351,2.351,0,0,1-14.13-.615a3.5,3.5,0,0,1-.67-2.358V-7.4h1.654V-2.96a2.217,2.217,0,0,0,.314,1.36,1.148,1.148,0,0,0,.95.39,2.136,2.136,0,0,0,1.008-.215,1.564,1.564,0,0,0,.639-.625V-7.4h1.661V0h-1.449Zm7.479-.93a.772.772,0,0,0-.328-.636A3.273,3.273,0,0,0-4.231-3.09a5.079,5.079,0,0,1-2.006-.8,1.669,1.669,0,0,1-.68-1.4,2,2,0,0,1,.786-1.586,3.126,3.126,0,0,1,2.071-.656,3.244,3.244,0,0,1,2.15.667,1.974,1.974,0,0,1,.762,1.651l-.014.041H-2.755A1.042,1.042,0,0,0-3.1-5.961a1.34,1.34,0,0,0-.957-.328,1.369,1.369,0,0,0-.916.27.838.838,0,0,0-.314.66.74.74,0,0,0,.3.619,3.193,3.193,0,0,0,1.207.407,5.083,5.083,0,0,1,2.068.81A1.708,1.708,0,0,1-1.046-2.1,1.939,1.939,0,0,1-1.87-.479,3.51,3.51,0,0,1-4.04.144,3.313,3.313,0,0,1-6.316-.595a2.085,2.085,0,0,1-.793-1.7l.014-.041h1.545a1.108,1.108,0,0,0,.465.937A1.868,1.868,0,0,0-4.02-1.1a1.7,1.7,0,0,0,.991-.246A.772.772,0,0,0-2.68-2.01ZM2.509-9.194v1.8H3.835v1.23H2.509v4.088a.891.891,0,0,0,.2.653.718.718,0,0,0,.526.195A1.469,1.469,0,0,0,3.5-1.254a1.62,1.62,0,0,0,.246-.065L3.924-.1a1.9,1.9,0,0,1-.506.181A2.812,2.812,0,0,1,2.81.144,1.9,1.9,0,0,1,1.374-.393a2.35,2.35,0,0,1-.52-1.685V-6.166H-.273V-7.4H.854v-1.8ZM5-3.767a4.029,4.029,0,0,1,.9-2.707,3.111,3.111,0,0,1,2.481-1.06,3.1,3.1,0,0,1,2.5,1.06,3.994,3.994,0,0,1,.909,2.707v.144A4.014,4.014,0,0,1,10.883-.9,3.1,3.1,0,0,1,8.4.144a3.124,3.124,0,0,1-2.5-1.053A4.023,4.023,0,0,1,5-3.623Zm1.661.144a3.3,3.3,0,0,0,.424,1.764A1.429,1.429,0,0,0,8.4-1.183a1.436,1.436,0,0,0,1.3-.677,3.221,3.221,0,0,0,.438-1.764v-.144A3.18,3.18,0,0,0,9.7-5.51,1.441,1.441,0,0,0,8.388-6.2a1.429,1.429,0,0,0-1.3.69,3.282,3.282,0,0,0-.424,1.743ZM14.759-7.4l.089.964a2.507,2.507,0,0,1,.909-.813,2.681,2.681,0,0,1,1.265-.287,2.282,2.282,0,0,1,1.244.328,1.983,1.983,0,0,1,.779.984,2.591,2.591,0,0,1,.9-.964,2.434,2.434,0,0,1,1.313-.349,2.186,2.186,0,0,1,1.76.762,3.514,3.514,0,0,1,.646,2.314V0H22V-4.464A2.076,2.076,0,0,0,21.68-5.79a1.206,1.206,0,0,0-.974-.383,1.425,1.425,0,0,0-.9.287,1.6,1.6,0,0,0-.533.772q0,.1.007.178t.007.144V0H17.623V-4.464a2.053,2.053,0,0,0-.332-1.309,1.193,1.193,0,0,0-.974-.4,1.749,1.749,0,0,0-.858.195,1.436,1.436,0,0,0-.557.55V0H13.241V-7.4ZM-28.68,14V4.047h3.227a4.173,4.173,0,0,1,3.08,1.183,4.111,4.111,0,0,1,1.186,3.042V9.782a4.1,4.1,0,0,1-1.186,3.042A4.186,4.186,0,0,1-25.454,14Zm1.661-8.62v7.294H-25.5a2.453,2.453,0,0,0,1.945-.807,3.046,3.046,0,0,0,.708-2.085V8.258a3.026,3.026,0,0,0-.708-2.071A2.453,2.453,0,0,0-25.5,5.38ZM-15.241,14q-.089-.28-.147-.547a3.909,3.909,0,0,1-.079-.533,2.935,2.935,0,0,1-.9.872,2.287,2.287,0,0,1-1.248.352,2.459,2.459,0,0,1-1.774-.595,2.16,2.16,0,0,1-.619-1.634,1.93,1.93,0,0,1,.848-1.671,4.093,4.093,0,0,1,2.386-.6h1.292V9a1.2,1.2,0,0,0-.342-.909,1.356,1.356,0,0,0-.978-.328,1.384,1.384,0,0,0-.9.273.868.868,0,0,0-.335.7h-1.6l-.007-.041a1.832,1.832,0,0,1,.783-1.552A3.317,3.317,0,0,1-16.7,6.467a3.164,3.164,0,0,1,2.085.656,2.31,2.31,0,0,1,.793,1.887V12.3a6.064,6.064,0,0,0,.062.878,4.664,4.664,0,0,0,.2.824Zm-2.037-1.189a2.088,2.088,0,0,0,1.131-.314,1.583,1.583,0,0,0,.667-.718V10.685H-16.8a1.666,1.666,0,0,0-1.135.359,1.09,1.09,0,0,0-.41.844.861.861,0,0,0,.277.673A1.14,1.14,0,0,0-17.278,12.811Zm7.267-8V6.6h1.326v1.23h-1.326v4.088a.891.891,0,0,0,.2.653.718.718,0,0,0,.526.195,1.469,1.469,0,0,0,.267-.024,1.62,1.62,0,0,0,.246-.065L-8.6,13.9a1.9,1.9,0,0,1-.506.181,2.812,2.812,0,0,1-.608.065,1.9,1.9,0,0,1-1.436-.537,2.35,2.35,0,0,1-.52-1.685V7.834h-1.128V6.6h1.128v-1.8ZM-2.758,14q-.089-.28-.147-.547a3.909,3.909,0,0,1-.079-.533,2.935,2.935,0,0,1-.9.872,2.287,2.287,0,0,1-1.248.352A2.459,2.459,0,0,1-6.9,13.549a2.16,2.16,0,0,1-.619-1.634,1.93,1.93,0,0,1,.848-1.671,4.093,4.093,0,0,1,2.386-.6H-3V9a1.2,1.2,0,0,0-.342-.909,1.356,1.356,0,0,0-.978-.328,1.384,1.384,0,0,0-.9.273.868.868,0,0,0-.335.7h-1.6L-7.161,8.7a1.832,1.832,0,0,1,.783-1.552,3.317,3.317,0,0,1,2.164-.677,3.164,3.164,0,0,1,2.085.656A2.31,2.31,0,0,1-1.336,9.01V12.3a6.064,6.064,0,0,0,.062.878,4.664,4.664,0,0,0,.2.824ZM-4.8,12.811A2.088,2.088,0,0,0-3.664,12.5,1.583,1.583,0,0,0-3,11.778V10.685H-4.317a1.666,1.666,0,0,0-1.135.359,1.09,1.09,0,0,0-.41.844.861.861,0,0,0,.277.673A1.14,1.14,0,0,0-4.8,12.811ZM6.9,10.548a4.181,4.181,0,0,1-.755,2.608,2.525,2.525,0,0,1-2.129.988,2.45,2.45,0,0,1-1.2-.28,2.34,2.34,0,0,1-.851-.82L1.8,14H.407V3.336H2.068V7.444a2.385,2.385,0,0,1,.82-.725A2.35,2.35,0,0,1,4,6.467a2.461,2.461,0,0,1,2.143,1.08A4.891,4.891,0,0,1,6.9,10.4ZM5.24,10.4a3.819,3.819,0,0,0-.4-1.866,1.337,1.337,0,0,0-1.258-.711,1.645,1.645,0,0,0-.926.246,1.72,1.72,0,0,0-.591.684v3.1a1.629,1.629,0,0,0,.588.687,1.707,1.707,0,0,0,.943.243,1.377,1.377,0,0,0,1.251-.6,3,3,0,0,0,.39-1.637ZM12.787,14q-.089-.28-.147-.547a3.909,3.909,0,0,1-.079-.533,2.935,2.935,0,0,1-.9.872,2.287,2.287,0,0,1-1.248.352,2.459,2.459,0,0,1-1.774-.595,2.16,2.16,0,0,1-.619-1.634,1.93,1.93,0,0,1,.848-1.671,4.093,4.093,0,0,1,2.386-.6h1.292V9a1.2,1.2,0,0,0-.342-.909,1.356,1.356,0,0,0-.978-.328,1.384,1.384,0,0,0-.9.273.868.868,0,0,0-.335.7h-1.6L8.384,8.7a1.832,1.832,0,0,1,.783-1.552,3.317,3.317,0,0,1,2.164-.677,3.164,3.164,0,0,1,2.085.656,2.31,2.31,0,0,1,.793,1.887V12.3a6.064,6.064,0,0,0,.062.878,4.664,4.664,0,0,0,.2.824ZM10.75,12.811a2.088,2.088,0,0,0,1.131-.314,1.583,1.583,0,0,0,.667-.718V10.685H11.228a1.666,1.666,0,0,0-1.135.359,1.09,1.09,0,0,0-.41.844.861.861,0,0,0,.277.673A1.14,1.14,0,0,0,10.75,12.811Zm9.358-.82a.772.772,0,0,0-.328-.636,3.273,3.273,0,0,0-1.224-.444,5.079,5.079,0,0,1-2.006-.8,1.669,1.669,0,0,1-.68-1.4,2,2,0,0,1,.786-1.586,3.126,3.126,0,0,1,2.071-.656,3.244,3.244,0,0,1,2.15.667,1.974,1.974,0,0,1,.762,1.651l-.014.041H20.033a1.042,1.042,0,0,0-.349-.786,1.34,1.34,0,0,0-.957-.328,1.369,1.369,0,0,0-.916.27.838.838,0,0,0-.314.66.74.74,0,0,0,.3.619A3.193,3.193,0,0,0,19,9.666a5.083,5.083,0,0,1,2.068.81,1.708,1.708,0,0,1,.673,1.425,1.939,1.939,0,0,1-.824,1.62,3.51,3.51,0,0,1-2.17.622,3.313,3.313,0,0,1-2.276-.738,2.085,2.085,0,0,1-.793-1.7l.014-.041h1.545a1.108,1.108,0,0,0,.465.937,1.868,1.868,0,0,0,1.066.294,1.7,1.7,0,0,0,.991-.246A.772.772,0,0,0,20.108,11.99Zm6.3,2.153A3.216,3.216,0,0,1,23.9,13.115a3.782,3.782,0,0,1-.933-2.642V10.2a3.927,3.927,0,0,1,.926-2.676,2.93,2.93,0,0,1,2.321-1.056,2.891,2.891,0,0,1,2.293.906,3.549,3.549,0,0,1,.8,2.43v.978H24.688l-.014.034a2.329,2.329,0,0,0,.516,1.442,1.632,1.632,0,0,0,1.316.561,3.557,3.557,0,0,0,1.148-.164,3.763,3.763,0,0,0,.923-.472l.533,1.087A3.441,3.441,0,0,1,28,13.891,4.64,4.64,0,0,1,26.4,14.144ZM26.212,7.8a1.246,1.246,0,0,0-1.012.489,2.407,2.407,0,0,0-.492,1.241l.014.034h2.933V9.393A1.77,1.77,0,0,0,27.3,8.244,1.31,1.31,0,0,0,26.212,7.8Z" transform="translate(561.802 737.663)" fill="#b4bbc6"/>
    <g id="Group_3917" data-name="Group 3917" transform="translate(85.186 558.083)">
      <path id="Path_4581" data-name="Path 4581" d="M476.927,96.355c-.716,0-17.538-.042-17.538-3.667s16.822-3.667,17.538-3.667,17.538.042,17.538,3.667S477.643,96.355,476.927,96.355Zm0-6.033c-10.234,0-15.928,1.532-16.239,2.389.312.81,6,2.342,16.239,2.342,10.139,0,15.822-1.5,16.23-2.366C492.748,91.826,487.065,90.323,476.927,90.323Z" transform="translate(0 0)" fill="#526279"/>
      <path id="Path_4582" data-name="Path 4582" d="M476.927,103.48c-.716,0-17.538-.042-17.538-3.667V93.78a.651.651,0,0,1,1.3,0c.309.834,6,2.366,16.236,2.366,10.2,0,15.893-1.522,16.236-2.382a.807.807,0,0,1,.007-.083.641.641,0,0,1,.645-.564.66.66,0,0,1,.649.663v6.033C494.465,103.438,477.643,103.48,476.927,103.48Zm-16.236-8.142v4.474c.309.834,6,2.365,16.236,2.365s15.927-1.531,16.239-2.389l0-4.451c-3.962,2.081-15.643,2.109-16.237,2.109S464.653,97.419,460.691,95.338Z" transform="translate(0 -1.092)" fill="#526279"/>
      <path id="Path_4583" data-name="Path 4583" d="M476.927,135.118c-.716,0-17.538-.041-17.538-3.667v-6.032a.651.651,0,0,1,1.3,0c.309.834,6,2.365,16.236,2.365,10.2,0,15.892-1.522,16.236-2.381a.806.806,0,0,1,.007-.083.641.641,0,0,1,.645-.564.66.66,0,0,1,.649.663v6.032C494.465,135.077,477.643,135.118,476.927,135.118Zm-16.236-8.141v4.474c.309.834,6,2.365,16.236,2.365s15.927-1.531,16.239-2.389l0-4.45c-3.962,2.08-15.643,2.109-16.237,2.109S464.653,129.058,460.691,126.977Z" transform="translate(0 -9.529)" fill="#526279"/>
      <path id="Path_4584" data-name="Path 4584" d="M467.067,101.731a.643.643,0,0,1-.1-.007c-1.107-.169-2.094-.364-2.933-.577a.651.651,0,0,1,.321-1.262c.8.2,1.742.389,2.808.552a.651.651,0,0,1-.1,1.294Z" transform="translate(-1.108 -2.891)" fill="#526279"/>
      <path id="Path_4585" data-name="Path 4585" d="M476,102.708q-1.682-.079-3.2-.213a.652.652,0,0,1-.591-.706.641.641,0,0,1,.706-.59c.992.087,2.039.158,3.112.209a.651.651,0,0,1-.03,1.3Z" transform="translate(-3.419 -3.246)" fill="#526279"/>
      <path id="Path_4586" data-name="Path 4586" d="M492.171,104.073a.651.651,0,0,1-.651-.651V97.39a.65.65,0,0,1,.6-.649c1.528-.118,2.948-.276,4.223-.47a.653.653,0,0,1,.75.644v6.032a.651.651,0,0,1-.553.643c-1.307.2-2.76.361-4.319.48Zm.651-6.083v4.726c1.05-.092,2.045-.2,2.969-.331V97.666C494.862,97.793,493.868,97.9,492.822,97.99Z" transform="translate(-8.568 -1.931)" fill="#526279"/>
      <path id="Path_4587" data-name="Path 4587" d="M477.665,109.78c-.633,0-15.509-.038-15.509-3.305v-2.509a.651.651,0,0,1,.854-.618c2.9.956,8.513,1.549,14.654,1.549s11.756-.593,14.654-1.549a.651.651,0,0,1,.854.618v2.509C493.174,109.742,478.3,109.78,477.665,109.78Zm-14.207-3.34c.43.741,5.48,2.037,14.207,2.037s13.777-1.3,14.207-2.037v-1.6a74.788,74.788,0,0,1-28.414,0Z" transform="translate(-0.738 -3.812)" fill="#526279"/>
      <path id="Path_4588" data-name="Path 4588" d="M476.927,119.306c-.716,0-17.538-.042-17.538-3.667v-6.033a.651.651,0,1,1,1.3,0c.309.834,6,2.365,16.236,2.365,10.2,0,15.893-1.522,16.236-2.381,0-.028,0-.056.007-.084a.641.641,0,0,1,.645-.563.66.66,0,0,1,.649.663v6.033C494.465,119.264,477.643,119.306,476.927,119.306Zm-16.236-8.141v4.474c.309.833,6,2.365,16.236,2.365s15.927-1.532,16.239-2.389l0-4.451c-3.962,2.081-15.643,2.11-16.237,2.11S464.653,113.246,460.691,111.165Z" transform="translate(0 -5.313)" fill="#526279"/>
      <path id="Path_4589" data-name="Path 4589" d="M467.067,117.557a.641.641,0,0,1-.1-.007c-1.107-.169-2.094-.363-2.933-.577a.651.651,0,1,1,.321-1.261c.8.2,1.742.389,2.808.551a.651.651,0,0,1-.1,1.294Z" transform="translate(-1.108 -7.112)" fill="#526279"/>
      <path id="Path_4590" data-name="Path 4590" d="M476,118.534q-1.682-.078-3.2-.213a.652.652,0,0,1-.591-.706.641.641,0,0,1,.706-.591c.992.088,2.039.158,3.112.209a.651.651,0,0,1-.03,1.3Z" transform="translate(-3.419 -7.466)" fill="#526279"/>
      <path id="Path_4591" data-name="Path 4591" d="M492.171,119.9a.651.651,0,0,1-.651-.651v-6.032a.65.65,0,0,1,.6-.648c1.528-.118,2.948-.276,4.222-.47a.651.651,0,0,1,.75.644v6.032a.651.651,0,0,1-.553.644c-1.306.2-2.759.36-4.319.48Zm.651-6.083v4.726c1.05-.092,2.045-.2,2.969-.331v-4.718C494.862,113.619,493.868,113.728,492.822,113.817Z" transform="translate(-8.568 -6.152)" fill="#526279"/>
      <path id="Path_4592" data-name="Path 4592" d="M492.171,135.713a.651.651,0,0,1-.651-.651V129.03a.65.65,0,0,1,.6-.649c1.528-.118,2.949-.276,4.223-.47a.659.659,0,0,1,.522.15.65.65,0,0,1,.227.494v6.033a.651.651,0,0,1-.553.644c-1.305.2-2.759.36-4.319.48Zm.651-6.083v4.726c1.051-.092,2.045-.2,2.969-.331v-4.718C494.863,129.432,493.868,129.54,492.822,129.63Z" transform="translate(-8.568 -10.368)" fill="#526279"/>
      <path id="Path_4593" data-name="Path 4593" d="M477.665,125.606c-.633,0-15.509-.037-15.509-3.3v-2.509a.651.651,0,0,1,.854-.618c2.9.956,8.513,1.549,14.654,1.549s11.756-.593,14.654-1.549a.651.651,0,0,1,.854.618V122.3C493.174,125.569,478.3,125.606,477.665,125.606Zm-14.207-3.34c.43.741,5.48,2.038,14.207,2.038s13.777-1.3,14.207-2.038v-1.6a74.829,74.829,0,0,1-28.414,0Z" transform="translate(-0.738 -8.032)" fill="#526279"/>
      <path id="Path_4594" data-name="Path 4594" d="M476.927,112.752c-.716,0-17.538-.042-17.538-3.667,0-1.116,1.437-1.714,2.518-2.066a.648.648,0,0,1,.81.386c.36.735,5.418,2.052,14.211,2.052s13.851-1.317,14.211-2.055a.647.647,0,0,1,.809-.383c1.08.352,2.518.95,2.518,2.066C494.465,112.71,477.643,112.752,476.927,112.752Zm-15.042-4.347c-1.058.4-1.2.7-1.2.7.312.81,6,2.341,16.239,2.341s15.912-1.528,16.238-2.386a3.039,3.039,0,0,0-1.2-.659c-2,1.841-10.166,2.353-15.042,2.353S463.884,110.247,461.885,108.406Z" transform="translate(0 -4.79)" fill="#526279"/>
      <path id="Path_4595" data-name="Path 4595" d="M476.927,128.565c-.716,0-17.538-.042-17.538-3.667,0-1.115,1.434-1.712,2.513-2.064a.65.65,0,0,1,.814.4c.359.733,5.418,2.05,14.211,2.05s13.851-1.317,14.212-2.055a.646.646,0,0,1,.812-.392c1.079.352,2.514.949,2.514,2.064C494.465,128.523,477.643,128.565,476.927,128.565Zm-15.049-4.344c-1.052.4-1.19.7-1.19.7.312.809,6.005,2.34,16.239,2.34s15.912-1.528,16.238-2.386a3.02,3.02,0,0,0-1.19-.656c-1.987,1.847-10.16,2.361-15.049,2.361S463.865,126.068,461.878,124.221Z" transform="translate(0 -9.007)" fill="#526279"/>
      <path id="Path_4596" data-name="Path 4596" d="M464.06,135.886a.651.651,0,0,1-.651-.651v-2.026a.651.651,0,0,1,1.3,0v2.026A.651.651,0,0,1,464.06,135.886Z" transform="translate(-1.072 -11.609)" fill="#526279"/>
      <path id="Path_4597" data-name="Path 4597" d="M468.365,136.138a.651.651,0,0,1-.651-.65v-3.651a.651.651,0,1,1,1.3,0v3.651A.651.651,0,0,1,468.365,136.138Z" transform="translate(-2.22 -11.243)" fill="#526279"/>
    </g>
  </g>
</svg>
