<svg xmlns="http://www.w3.org/2000/svg" xmlns:xlink="http://www.w3.org/1999/xlink" width="958.928" height="522.615" viewBox="0 0 958.928 522.615">
  <defs>
    <filter id="Path_4453" x="218.336" y="0" width="522.615" height="522.615" filterUnits="userSpaceOnUse">
      <feOffset dy="20" input="SourceAlpha"/>
      <feGaussianBlur stdDeviation="49.5" result="blur"/>
      <feFlood flood-color="#3c485a" flood-opacity="0.149"/>
      <feComposite operator="in" in2="blur"/>
      <feComposite in="SourceGraphic"/>
    </filter>
    <filter id="Path_4454" x="0" y="62.648" width="368" height="368" filterUnits="userSpaceOnUse">
      <feOffset dy="5" input="SourceAlpha"/>
      <feGaussianBlur stdDeviation="49.5" result="blur-2"/>
      <feFlood flood-color="#3c485a" flood-opacity="0.102"/>
      <feComposite operator="in" in2="blur-2"/>
      <feComposite in="SourceGraphic"/>
    </filter>
    <filter id="Path_4455" x="590.928" y="63.029" width="368" height="368" filterUnits="userSpaceOnUse">
      <feOffset dy="5" input="SourceAlpha"/>
      <feGaussianBlur stdDeviation="49.5" result="blur-3"/>
      <feFlood flood-color="#3c485a" flood-opacity="0.102"/>
      <feComposite operator="in" in2="blur-3"/>
      <feComposite in="SourceGraphic"/>
    </filter>
  </defs>
  <g id="Group_3575" data-name="Group 3575" transform="translate(-242.328 -1366.336)">
    <path id="Path_4456" data-name="Path 4456" d="M0,0H128" transform="translate(448.828 1608.725)" fill="none" stroke="#cccdd7" stroke-linecap="round" stroke-width="3" stroke-dasharray="1 10"/>
    <path id="Path_4457" data-name="Path 4457" d="M0,0H128" transform="translate(994.823 1608.244) rotate(180)" fill="none" stroke="#cccdd7" stroke-linecap="round" stroke-width="3" stroke-dasharray="1 10"/>
    <path id="Path_4452" data-name="Path 4452" d="M145.144,0A145.144,145.144,0,1,1,0,145.144,145.144,145.144,0,0,1,145.144,0Z" transform="translate(576.828 1462.5)" fill="none" stroke="#d82125" stroke-linecap="round" stroke-width="3" stroke-dasharray="1 10"/>
    <g transform="matrix(1, 0, 0, 1, 242.33, 1366.34)" filter="url(#Path_4453)">
      <path id="Path_4453-2" data-name="Path 4453" d="M112.808,0A112.808,112.808,0,1,1,0,112.808,112.808,112.808,0,0,1,112.808,0Z" transform="translate(366.84 128.5)" fill="#fff"/>
    </g>
    <g id="Group_3109" data-name="Group 3109" transform="translate(664.992 1541.316)">
      <path id="Path_1150" data-name="Path 1150" d="M580.378,215.772c-.02.078-.038.157-.055.236a41.281,41.281,0,0,0,4.109,29.056c.209.375.431.74.641,1.113a3.156,3.156,0,0,1,.635,2.166,2.678,2.678,0,0,1-1.189,1.8,5.537,5.537,0,0,1-1.038.368c-.406.073-.815.147-1.229.2a19.3,19.3,0,0,1-5.236-38.244c.052-.006.1-.01.154-.021a2.858,2.858,0,0,1,2.16.306,2.506,2.506,0,0,1,1.046,3.014" transform="translate(-560.432 -155.676)" fill="#3d3d3d"/>
      <ellipse id="Ellipse_123" data-name="Ellipse 123" cx="36.023" cy="36.023" rx="36.023" ry="36.023" transform="translate(24.016 33.45)" fill="#d82225"/>
      <path id="Path_1151" data-name="Path 1151" d="M606.015,197c.8-.045.965-.026,1.774-.026a41.072,41.072,0,0,1,30.821,13.875,3.538,3.538,0,0,0,2.415,1.605,2.969,2.969,0,0,0,2.439-.845l.587-.5a24.442,24.442,0,1,0-40.978-18,4.842,4.842,0,0,0,.245,2.05,2.84,2.84,0,0,0,2.7,1.835" transform="translate(-547.751 -168.675)" fill="#262626"/>
      <path id="Path_1152" data-name="Path 1152" d="M640.66,242.385q.315.42.6.863A16.3,16.3,0,1,1,613.68,260.6c-.131-.214-.25-.436-.379-.653a2.176,2.176,0,0,1-.291-2.076,2.328,2.328,0,0,1,1.928-1.412,12.615,12.615,0,0,0,1.34-.362,41.185,41.185,0,0,0,19.807-12.728c.258-.3.5-.614.76-.911a2.69,2.69,0,0,1,1.212-1.026,2.115,2.115,0,0,1,1.863.206A2.526,2.526,0,0,1,640.66,242.385Z" transform="translate(-544.832 -147.062)" fill="#3d3d3d"/>
    </g>
    <g transform="matrix(1, 0, 0, 1, 242.33, 1366.34)" filter="url(#Path_4454)">
      <path id="Path_4454-2" data-name="Path 4454" d="M5.669,0H64.331A5.669,5.669,0,0,1,70,5.669V64.331A5.669,5.669,0,0,1,64.331,70H5.669A5.669,5.669,0,0,1,0,64.331V5.669A5.669,5.669,0,0,1,5.669,0Z" transform="translate(149 206.65)" fill="#fff" stroke="#b4bbc6" stroke-width="1"/>
    </g>
    <g transform="matrix(1, 0, 0, 1, 242.33, 1366.34)" filter="url(#Path_4455)">
      <path id="Path_4455-2" data-name="Path 4455" d="M5.669,0H64.331A5.669,5.669,0,0,1,70,5.669V64.331A5.669,5.669,0,0,1,64.331,70H5.669A5.669,5.669,0,0,1,0,64.331V5.669A5.669,5.669,0,0,1,5.669,0Z" transform="translate(739.93 207.03)" fill="#fff" stroke="#b4bbc6" stroke-width="1"/>
    </g>
    <path id="Path_4459" data-name="Path 4459" d="M-11.86,0V-9.953h3.309a4.3,4.3,0,0,1,2.584.68,2.357,2.357,0,0,1,.93,2.034,2,2,0,0,1-.39,1.21,2.3,2.3,0,0,1-1.08.793,2.219,2.219,0,0,1,1.367.854,2.519,2.519,0,0,1,.479,1.524A2.558,2.558,0,0,1-5.578-.728,3.963,3.963,0,0,1-8.107,0ZM-10.2-4.525v3.2h2.092a2,2,0,0,0,1.326-.393,1.407,1.407,0,0,0,.465-1.138,1.788,1.788,0,0,0-.39-1.23,1.549,1.549,0,0,0-1.217-.437Zm0-1.237h1.832a1.873,1.873,0,0,0,1.22-.366A1.261,1.261,0,0,0-6.7-7.164a1.291,1.291,0,0,0-.472-1.1A2.254,2.254,0,0,0-8.552-8.62H-10.2ZM3.377,0h-6.61V-1.142L.007-4.676A7.866,7.866,0,0,0,1.1-6.1a2.286,2.286,0,0,0,.3-1.09,1.655,1.655,0,0,0-.39-1.121A1.32,1.32,0,0,0-.041-8.764a1.622,1.622,0,0,0-1.3.492,2.007,2.007,0,0,0-.424,1.354H-3.37l-.014-.041a2.925,2.925,0,0,1,.868-2.232A3.337,3.337,0,0,1-.041-10.1a3.158,3.158,0,0,1,2.27.793,2.728,2.728,0,0,1,.834,2.071A3.06,3.06,0,0,1,2.581-5.6,13.766,13.766,0,0,1,1.087-3.705L-1.128-1.367l.021.041H3.377ZM5.065,0V-9.953H8.374a4.3,4.3,0,0,1,2.584.68,2.357,2.357,0,0,1,.93,2.034,2,2,0,0,1-.39,1.21,2.3,2.3,0,0,1-1.08.793,2.219,2.219,0,0,1,1.367.854,2.519,2.519,0,0,1,.479,1.524,2.558,2.558,0,0,1-.916,2.129A3.963,3.963,0,0,1,8.818,0ZM6.727-4.525v3.2H8.818a2,2,0,0,0,1.326-.393,1.407,1.407,0,0,0,.465-1.138,1.788,1.788,0,0,0-.39-1.23A1.549,1.549,0,0,0,9-4.525Zm0-1.237H8.559a1.873,1.873,0,0,0,1.22-.366,1.261,1.261,0,0,0,.448-1.036,1.291,1.291,0,0,0-.472-1.1A2.254,2.254,0,0,0,8.374-8.62H6.727Z" transform="translate(1017.256 1560.252)" fill="#b4bbc6"/>
    <g id="Group_3114" data-name="Group 3114" transform="translate(-31.498 -507.287)">
      <g id="Group_2960" data-name="Group 2960" transform="translate(1031.138 2095.9)">
        <path id="Path_3598" data-name="Path 3598" d="M1053.093,2135.406h-19.072a2.886,2.886,0,0,1-2.883-2.883v-33.74a2.887,2.887,0,0,1,2.883-2.883h19.072a2.887,2.887,0,0,1,2.883,2.883v33.74A2.886,2.886,0,0,1,1053.093,2135.406Zm-19.072-38.527a1.907,1.907,0,0,0-1.9,1.9v33.74a1.906,1.906,0,0,0,1.9,1.9h19.072a1.906,1.906,0,0,0,1.9-1.9v-33.74a1.907,1.907,0,0,0-1.9-1.9Z" transform="translate(-1031.138 -2095.9)" fill="#526279" stroke="#526279" stroke-width="0.5"/>
      </g>
      <g id="Group_2961" data-name="Group 2961" transform="translate(1031.152 2100.86)">
        <rect id="Rectangle_595" data-name="Rectangle 595" width="23.845" height="28.404" transform="translate(0.489 0.489)" fill="#fff"/>
        <path id="Path_3599" data-name="Path 3599" d="M1055.678,2197.116h-23.845a.489.489,0,0,1-.49-.489v-28.4a.489.489,0,0,1,.49-.489h23.845a.489.489,0,0,1,.49.489v28.4A.489.489,0,0,1,1055.678,2197.116Zm-23.355-.979h22.866v-27.425h-22.866Z" transform="translate(-1031.344 -2167.734)" fill="#526279" stroke="#526279" stroke-width="0.5"/>
      </g>
      <path id="Path_3600" data-name="Path 3600" d="M1162.544,2132.849h-6.84a.428.428,0,0,1-.427-.426h0a.428.428,0,0,1,.427-.427h6.84a.428.428,0,0,1,.427.427h0A.428.428,0,0,1,1162.544,2132.849Z" transform="translate(-115.567 -33.604)" fill="#526279"/>
      <g id="Group_2962" data-name="Group 2962" transform="translate(1045.441 2101.034)">
        <line id="Line_58" data-name="Line 58" x1="3.364" y2="3.39" transform="translate(0.489 0.489)" fill="#fff" stroke="#526279" stroke-width="0.5"/>
        <path id="Path_3601" data-name="Path 3601" d="M1238.75,2174.621a.489.489,0,0,1-.347-.834l3.364-3.39a.489.489,0,1,1,.695.689l-3.364,3.39A.489.489,0,0,1,1238.75,2174.621Z" transform="translate(-1238.261 -2170.252)" fill="#526279" stroke="#526279" stroke-width="0.5"/>
      </g>
      <g id="Group_2963" data-name="Group 2963" transform="translate(1047.397 2101.034)">
        <line id="Line_59" data-name="Line 59" x1="5.974" y2="6.021" transform="translate(0.49 0.489)" fill="#fff" stroke="#526279" stroke-width="0.5"/>
        <path id="Path_3602" data-name="Path 3602" d="M1267.087,2177.251a.489.489,0,0,1-.347-.834l5.974-6.021a.489.489,0,1,1,.695.689l-5.974,6.021A.488.488,0,0,1,1267.087,2177.251Z" transform="translate(-1266.598 -2170.252)" fill="#526279" stroke="#526279" stroke-width="0.5"/>
      </g>
      <g id="Group_2964" data-name="Group 2964" transform="translate(1033.192 2123.83)">
        <line id="Line_60" data-name="Line 60" x1="5.392" y2="5.435" transform="translate(0.489 0.489)" fill="#fff" stroke="#526279" stroke-width="0.5"/>
        <path id="Path_3603" data-name="Path 3603" d="M1061.376,2506.772a.49.49,0,0,1-.347-.834l5.392-5.435a.489.489,0,0,1,.695.689l-5.392,5.435A.488.488,0,0,1,1061.376,2506.772Z" transform="translate(-1060.887 -2500.358)" fill="#526279" stroke="#526279" stroke-width="0.5"/>
      </g>
      <g id="Group_2965" data-name="Group 2965" transform="translate(1036.303 2106.847)">
        <path id="Path_3604" data-name="Path 3604" d="M1142.106,2263.4v12.881a1.893,1.893,0,0,1-1.885,1.881H1114.9a1.892,1.892,0,0,1-1.884-1.881V2263.4a1.883,1.883,0,0,1,1.884-1.87h25.319A1.884,1.884,0,0,1,1142.106,2263.4Z" transform="translate(-1112.529 -2261.036)" fill="#fff"/>
        <path id="Path_3605" data-name="Path 3605" d="M1133.623,2272.047H1108.3a2.374,2.374,0,0,1-2.374-2.37V2256.8a2.369,2.369,0,0,1,2.374-2.359h25.319A2.369,2.369,0,0,1,1136,2256.8v12.881A2.374,2.374,0,0,1,1133.623,2272.047Zm-25.319-16.632a1.389,1.389,0,0,0-1.395,1.381v12.881a1.394,1.394,0,0,0,1.395,1.391h25.319a1.412,1.412,0,0,0,1.4-1.391V2256.8a1.39,1.39,0,0,0-1.4-1.381Z" transform="translate(-1105.93 -2254.437)" fill="#526279" stroke="#526279" stroke-width="0.5"/>
      </g>
      <g id="Group_2966" data-name="Group 2966" transform="translate(1036.31 2109.799)">
        <path id="Path_3606" data-name="Path 3606" d="M1135.6,2302.037h-29.071a.489.489,0,0,1-.49-.489v-3.883a.489.489,0,0,1,.49-.489H1135.6a.489.489,0,0,1,.49.489v3.883A.489.489,0,0,1,1135.6,2302.037Zm-28.582-.979h28.092v-2.9h-28.092Z" transform="translate(-1106.043 -2297.175)" fill="#526279" stroke="#526279" stroke-width="0.5"/>
      </g>
      <rect id="Rectangle_597" data-name="Rectangle 597" width="8.21" height="0.469" rx="0.235" transform="translate(1049.217 2118.443)" fill="#526279" stroke="#526279" stroke-width="0.2"/>
      <rect id="Rectangle_598" data-name="Rectangle 598" width="2.571" height="0.469" rx="0.235" transform="translate(1057.953 2118.443)" fill="#526279" stroke="#526279" stroke-width="0.2"/>
      <rect id="Rectangle_599" data-name="Rectangle 599" width="3.798" height="0.469" rx="0.235" transform="translate(1049.217 2119.614)" fill="#526279" stroke="#526279" stroke-width="0.2"/>
      <rect id="Rectangle_600" data-name="Rectangle 600" width="8.114" height="0.469" rx="0.235" transform="translate(1053.629 2119.614)" fill="#526279" stroke="#526279" stroke-width="0.2"/>
      <rect id="Rectangle_601" data-name="Rectangle 601" width="9.847" height="0.469" rx="0.235" transform="translate(1049.217 2120.721)" fill="#526279" stroke="#526279" stroke-width="0.2"/>
      <g id="Group_2967" data-name="Group 2967" transform="translate(1039.413 2116.651)">
        <path id="Path_3607" data-name="Path 3607" d="M1143.05,2415.43h-5.378a1.185,1.185,0,0,1-1.184-1.184v-2.171a1.185,1.185,0,0,1,1.184-1.184h5.378a1.185,1.185,0,0,1,1.184,1.184v2.171A1.185,1.185,0,0,1,1143.05,2415.43Zm-5.378-3.56a.2.2,0,0,0-.2.2v2.171a.2.2,0,0,0,.2.2h5.378a.2.2,0,0,0,.2-.2v-2.171a.2.2,0,0,0-.2-.2Z" transform="translate(-1136.488 -2410.891)" fill="#526279" stroke="#526279" stroke-width="0.5"/>
      </g>
    </g>
    <path id="Path_4662" data-name="Path 4662" d="M-20.542-2.557A1.282,1.282,0,0,0-21-3.575a4.334,4.334,0,0,0-1.63-.711A6.9,6.9,0,0,1-25.2-5.445a2.307,2.307,0,0,1-.9-1.89A2.414,2.414,0,0,1-25.1-9.317a4.039,4.039,0,0,1,2.567-.779,3.826,3.826,0,0,1,2.635.882,2.632,2.632,0,0,1,.96,2.119l-.014.041h-1.593a1.6,1.6,0,0,0-.52-1.241,2.121,2.121,0,0,0-1.483-.475,2.169,2.169,0,0,0-1.4.4,1.26,1.26,0,0,0-.489,1.025,1.121,1.121,0,0,0,.53.943,5.867,5.867,0,0,0,1.753.711A5.839,5.839,0,0,1-19.715-4.5a2.5,2.5,0,0,1,.834,1.935,2.335,2.335,0,0,1-.995,1.979A4.3,4.3,0,0,1-22.49.144,4.645,4.645,0,0,1-25.225-.68a2.532,2.532,0,0,1-1.142-2.259l.014-.041h1.6a1.555,1.555,0,0,0,.629,1.357,2.754,2.754,0,0,0,1.634.448,2.406,2.406,0,0,0,1.436-.373A1.182,1.182,0,0,0-20.542-2.557Zm6.658-2.557,2.406-4.84h1.853l-3.452,6.46V0h-1.654V-3.582l-3.4-6.371h1.853ZM-3.172-2.557a1.282,1.282,0,0,0-.461-1.019,4.334,4.334,0,0,0-1.63-.711A6.9,6.9,0,0,1-7.831-5.445a2.307,2.307,0,0,1-.9-1.89,2.414,2.414,0,0,1,.995-1.982A4.039,4.039,0,0,1-5.168-10.1a3.826,3.826,0,0,1,2.635.882A2.632,2.632,0,0,1-1.572-7.1l-.014.041H-3.179A1.6,1.6,0,0,0-3.7-8.3a2.121,2.121,0,0,0-1.483-.475,2.169,2.169,0,0,0-1.4.4,1.26,1.26,0,0,0-.489,1.025,1.121,1.121,0,0,0,.53.943,5.867,5.867,0,0,0,1.753.711A5.839,5.839,0,0,1-2.345-4.5,2.5,2.5,0,0,1-1.511-2.57,2.335,2.335,0,0,1-2.505-.591,4.3,4.3,0,0,1-5.12.144,4.645,4.645,0,0,1-7.854-.68,2.532,2.532,0,0,1-9-2.939l.014-.041h1.6a1.555,1.555,0,0,0,.629,1.357,2.754,2.754,0,0,0,1.634.448,2.406,2.406,0,0,0,1.436-.373A1.182,1.182,0,0,0-3.172-2.557ZM1.9-3.773V0H.239V-9.953h3.89A3.687,3.687,0,0,1,6.709-9.1a2.886,2.886,0,0,1,.933,2.239,2.881,2.881,0,0,1-.933,2.246,3.706,3.706,0,0,1-2.581.844Zm0-1.333H4.129A1.821,1.821,0,0,0,5.517-5.6,1.749,1.749,0,0,0,5.981-6.85a1.8,1.8,0,0,0-.465-1.265A1.793,1.793,0,0,0,4.129-8.62H1.9Zm9.044.978V0H9.283V-9.953h3.678a3.94,3.94,0,0,1,2.577.752,2.628,2.628,0,0,1,.909,2.146,2.22,2.22,0,0,1-.4,1.33,2.744,2.744,0,0,1-1.166.892,2.082,2.082,0,0,1,1.21.872,2.805,2.805,0,0,1,.369,1.487v.827a3.354,3.354,0,0,0,.109.854,1.2,1.2,0,0,0,.369.636V0H15.23a1.113,1.113,0,0,1-.352-.711,5.938,5.938,0,0,1-.079-.95v-.8a1.674,1.674,0,0,0-.437-1.217,1.6,1.6,0,0,0-1.2-.451Zm0-1.333h1.928a2.254,2.254,0,0,0,1.456-.383,1.437,1.437,0,0,0,.458-1.169,1.546,1.546,0,0,0-.451-1.179,1.935,1.935,0,0,0-1.374-.427H10.944ZM26.312-4.081a4.206,4.206,0,0,1-1.145,3.025A3.921,3.921,0,0,1,22.2.144a3.793,3.793,0,0,1-2.909-1.2A4.264,4.264,0,0,1,18.17-4.081V-5.872a4.267,4.267,0,0,1,1.118-3.021,3.779,3.779,0,0,1,2.9-1.2,3.926,3.926,0,0,1,2.974,1.2,4.2,4.2,0,0,1,1.148,3.021Zm-1.654-1.8a3.085,3.085,0,0,0-.667-2.044,2.223,2.223,0,0,0-1.8-.8,2.091,2.091,0,0,0-1.729.8,3.183,3.183,0,0,0-.636,2.044v1.8A3.22,3.22,0,0,0,20.46-2.02a2.1,2.1,0,0,0,1.736.8,2.21,2.21,0,0,0,1.8-.8,3.138,3.138,0,0,0,.66-2.064Z" transform="translate(426 1560)" fill="#b4bbc6"/>
    <g id="layer1" transform="translate(394.5 1592.638)">
      <g id="g291" transform="translate(0.5 0.5)">
        <path id="path113" d="M2.836,37.307.5,39.643H5.171V37.307Z" transform="translate(-0.5 -23.292)" fill="#007fa3"/>
        <path id="path119" d="M8.971,31.171h2.336v2.336H6.636Z" transform="translate(-4.3 -19.493)" fill="#84bd00"/>
        <path id="path123" d="M29.71,31.171v9.343l-4.671,4.671V40.514h2.335V33.507Z" transform="translate(-15.696 -19.493)" fill="#509e2f"/>
        <path id="path127" d="M6.635,54.246V49.575H8.97v2.336h2.335v2.336Z" transform="translate(-4.299 -30.889)" fill="#007fa3"/>
        <path id="path129" d="M18.9,18.9h2.336v2.335H18.9Z" transform="translate(-11.896 -11.896)" fill="#007fa3"/>
        <path id="path131" d="M25.037,12.768h2.336V15.1H25.037Z" transform="translate(-15.694 -8.097)" fill="#84bd00"/>
        <path id="path133" d="M18.9.5h2.336V2.836H18.9Z" transform="translate(-11.896 -0.5)" fill="#00c3de"/>
        <path id="path137" d="M7.508,45.779H2.837v4.672H7.508V45.779Zm2.335,7H.5V43.44H7.508v2.336H9.843v7.007" transform="translate(-0.501 -27.09)" fill="#00c3de"/>
        <path id="path141" d="M29.71,31.171l-2.336,2.336H25.039V31.171Z" transform="translate(-15.696 -19.493)" fill="#84bd00"/>
        <path id="path153" d="M51.655,31.26l1.807,3.566c.01,0,.017,0,.019.009L55.3,31.26c.045-.084.077-.1.235-.1h1.078c.155,0,.139.122.078.236l-2.537,4.787v3.974a.177.177,0,0,1-.176.174h-1a.176.176,0,0,1-.176-.174V36.19l-2.54-4.79c-.062-.114-.078-.236.078-.236H51.42c.159,0,.19.011.235.1m27.25,9.076H77.746c-.06,0-.1,0-.168-.12l-2.3-3.964H74.012v3.911a.178.178,0,0,1-.176.174h-1a.177.177,0,0,1-.176-.174V31.339a.177.177,0,0,1,.176-.175h3.622a2.11,2.11,0,0,1,2.365,2.127V34.1a2.041,2.041,0,0,1-2.051,2.128L78.983,40.1c.062.113.078.235-.078.235m-2.643-5.259c.827,0,1.279-.34,1.279-1.113v-.51c0-.774-.452-1.114-1.279-1.114h-2.25v2.737ZM69,31.164H65.373a.177.177,0,0,0-.176.175v8.823a.177.177,0,0,0,.176.174h1a.178.178,0,0,0,.177-.174V36.269h2.419a2.141,2.141,0,0,0,2.411-2.158v-.8A2.129,2.129,0,0,0,69,31.164m1.039,2.805c0,.768-.449,1.105-1.269,1.105H66.539V32.36H68.77c.821,0,1.269.338,1.269,1.105Zm16.7-.37v4.27c0,1.629-1.261,2.543-3.1,2.543-1.858,0-3.118-.914-3.118-2.543V33.6c0-1.592,1.262-2.5,3.118-2.5s3.1.913,3.1,2.5m-1.315.178c0-1.292-1.111-1.516-1.788-1.516-.694,0-1.8.224-1.8,1.516V37.73c0,1.292,1.11,1.516,1.8,1.516.677,0,1.788-.223,1.788-1.516ZM46.714,39.163c.717,0,1.772-.179,1.772-1.55,0-.6-.426-1.117-1.836-1.493-2.6-.693-2.838-1.7-2.838-2.666.016-1.424,1.307-2.331,2.926-2.331a3.592,3.592,0,0,1,2.729,1.094c.139.148.211.242.055.349l-.745.544c-.152.121-.18.064-.356-.1a2.072,2.072,0,0,0-1.683-.668c-1.047,0-1.557.5-1.557,1.11,0,.678.134.969,1.886,1.507,1.593.488,2.787,1.162,2.787,2.638,0,1.836-1.122,2.785-3.116,2.785a4.083,4.083,0,0,1-3.085-1.368c-.113-.129-.148-.273.072-.407l.615-.376a.317.317,0,0,1,.422.055,2.578,2.578,0,0,0,1.951.874m13.73,0c.717,0,1.772-.179,1.772-1.55,0-.6-.426-1.117-1.836-1.493-2.6-.693-2.837-1.7-2.837-2.666.016-1.424,1.306-2.331,2.925-2.331a3.593,3.593,0,0,1,2.73,1.094c.139.148.21.242.055.349l-.746.544c-.152.121-.18.064-.356-.1a2.07,2.07,0,0,0-1.682-.668c-1.047,0-1.556.5-1.556,1.11,0,.678.135.969,1.885,1.507,1.594.488,2.788,1.162,2.788,2.638,0,1.836-1.123,2.785-3.117,2.785a4.082,4.082,0,0,1-3.084-1.368c-.113-.129-.148-.273.071-.407l.615-.376a.318.318,0,0,1,.423.055,2.578,2.578,0,0,0,1.951.874" transform="translate(-27.167 -19.446)" fill="#007fa3"/>
        <path id="path161" d="M160.723,31.359h.362v-.182h-.932v.182h.359v1.055h.211Zm1.209,1.055.362-.956h.014l-.01.235v.721h.218V31.177H162.2l-.348.959-.336-.959H161.2v1.237h.2v-.738l-.01-.221h.014l.345.96Z" transform="translate(-99.363 -19.496)" fill="#007fa3"/>
      </g>
    </g>
  </g>
</svg>
