<svg xmlns="http://www.w3.org/2000/svg" xmlns:xlink="http://www.w3.org/1999/xlink" width="1117" height="725.338" viewBox="0 0 1117 725.338">
  <defs>
    <filter id="Path_4465" x="299.664" y="101.225" width="522.615" height="522.615" filterUnits="userSpaceOnUse">
      <feOffset dy="20" input="SourceAlpha"/>
      <feGaussianBlur stdDeviation="49.5" result="blur"/>
      <feFlood flood-color="#3c485a" flood-opacity="0.149"/>
      <feComposite operator="in" in2="blur"/>
      <feComposite in="SourceGraphic"/>
    </filter>
    <filter id="Path_4476" x="0" y="0" width="368" height="368" filterUnits="userSpaceOnUse">
      <feOffset dy="5" input="SourceAlpha"/>
      <feGaussianBlur stdDeviation="49.5" result="blur-2"/>
      <feFlood flood-color="#3c485a" flood-opacity="0.102"/>
      <feComposite operator="in" in2="blur-2"/>
      <feComposite in="SourceGraphic"/>
    </filter>
    <filter id="Path_4468" x="0" y="118.238" width="368" height="368" filterUnits="userSpaceOnUse">
      <feOffset dy="5" input="SourceAlpha"/>
      <feGaussianBlur stdDeviation="49.5" result="blur-3"/>
      <feFlood flood-color="#3c485a" flood-opacity="0.102"/>
      <feComposite operator="in" in2="blur-3"/>
      <feComposite in="SourceGraphic"/>
    </filter>
    <filter id="Path_4469" x="0" y="239.1" width="368" height="368" filterUnits="userSpaceOnUse">
      <feOffset dy="5" input="SourceAlpha"/>
      <feGaussianBlur stdDeviation="49.5" result="blur-4"/>
      <feFlood flood-color="#3c485a" flood-opacity="0.102"/>
      <feComposite operator="in" in2="blur-4"/>
      <feComposite in="SourceGraphic"/>
    </filter>
    <filter id="Path_4470" x="0" y="357.338" width="368" height="368" filterUnits="userSpaceOnUse">
      <feOffset dy="5" input="SourceAlpha"/>
      <feGaussianBlur stdDeviation="49.5" result="blur-5"/>
      <feFlood flood-color="#3c485a" flood-opacity="0.102"/>
      <feComposite operator="in" in2="blur-5"/>
      <feComposite in="SourceGraphic"/>
    </filter>
    <filter id="Path_4466" x="749" y="163.986" width="368" height="368" filterUnits="userSpaceOnUse">
      <feOffset dy="5" input="SourceAlpha"/>
      <feGaussianBlur stdDeviation="49.5" result="blur-6"/>
      <feFlood flood-color="#3c485a" flood-opacity="0.102"/>
      <feComposite operator="in" in2="blur-6"/>
      <feComposite in="SourceGraphic"/>
    </filter>
  </defs>
  <g id="Group_3576" data-name="Group 3576" transform="translate(-165 -1961.111)">
    <path id="Path_4467" data-name="Path 4467" d="M0,0H75" transform="translate(505.5 2304.725)" fill="none" stroke="#cccdd7" stroke-linecap="round" stroke-width="3" stroke-dasharray="1 10"/>
    <path id="Path_4464" data-name="Path 4464" d="M145.144,0A145.144,145.144,0,1,1,0,145.144,145.144,145.144,0,0,1,145.144,0Z" transform="translate(580.828 2158.5)" fill="none" stroke="#d82125" stroke-linecap="round" stroke-width="3" stroke-dasharray="1 10"/>
    <g transform="matrix(1, 0, 0, 1, 165, 1961.11)" filter="url(#Path_4465)">
      <path id="Path_4465-2" data-name="Path 4465" d="M112.808,0A112.808,112.808,0,1,1,0,112.808,112.808,112.808,0,0,1,112.808,0Z" transform="translate(448.16 229.72)" fill="#fff"/>
    </g>
    <g id="Group_2951" data-name="Group 2951" transform="translate(668.992 2237.316)">
      <path id="Path_1150" data-name="Path 1150" d="M580.378,215.772c-.02.078-.038.157-.055.236a41.281,41.281,0,0,0,4.109,29.056c.209.375.431.74.641,1.113a3.156,3.156,0,0,1,.635,2.166,2.678,2.678,0,0,1-1.189,1.8,5.537,5.537,0,0,1-1.038.368c-.406.073-.815.147-1.229.2a19.3,19.3,0,0,1-5.236-38.244c.052-.006.1-.01.154-.021a2.858,2.858,0,0,1,2.16.306,2.506,2.506,0,0,1,1.046,3.014" transform="translate(-560.432 -155.676)" fill="#3d3d3d"/>
      <ellipse id="Ellipse_123" data-name="Ellipse 123" cx="36.023" cy="36.023" rx="36.023" ry="36.023" transform="translate(24.016 33.45)" fill="#d82225"/>
      <path id="Path_1151" data-name="Path 1151" d="M606.015,197c.8-.045.965-.026,1.774-.026a41.072,41.072,0,0,1,30.821,13.875,3.538,3.538,0,0,0,2.415,1.605,2.969,2.969,0,0,0,2.439-.845l.587-.5a24.442,24.442,0,1,0-40.978-18,4.842,4.842,0,0,0,.245,2.05,2.84,2.84,0,0,0,2.7,1.835" transform="translate(-547.751 -168.675)" fill="#262626"/>
      <path id="Path_1152" data-name="Path 1152" d="M640.66,242.385q.315.42.6.863A16.3,16.3,0,1,1,613.68,260.6c-.131-.214-.25-.436-.379-.653a2.176,2.176,0,0,1-.291-2.076,2.328,2.328,0,0,1,1.928-1.412,12.615,12.615,0,0,0,1.34-.362,41.185,41.185,0,0,0,19.807-12.728c.258-.3.5-.614.76-.911a2.69,2.69,0,0,1,1.212-1.026,2.115,2.115,0,0,1,1.863.206A2.526,2.526,0,0,1,640.66,242.385Z" transform="translate(-544.832 -147.062)" fill="#3d3d3d"/>
    </g>
    <path id="Path_3588" data-name="Path 3588" d="M865.252,269.956l-18.486-10.33c-29.5-34.49-21.451-32.719-30.8-59.15l-16.441-72.5c-11.422-24.8-30.948-19.993-48.693-19.993H714.085" transform="translate(-365.086 2032.271)" fill="none" stroke="#cccdd7" stroke-linecap="round" stroke-miterlimit="10" stroke-width="3" stroke-dasharray="1 10"/>
    <path id="Path_3589" data-name="Path 3589" d="M858.123,155.291l-30.1-5.772c-22.861-23.28-15.924-12.386-38.625-33.092-23-10.108-20.826-8.5-38.572-8.5H714.085" transform="translate(-365.086 2150.516)" fill="none" stroke="#cccdd7" stroke-linecap="round" stroke-miterlimit="10" stroke-width="3" stroke-dasharray="1 10"/>
    <path id="Path_3590" data-name="Path 3590" d="M858.122,107.835l-30.1,8.887c-22.861,35.843-15.924,19.07-38.625,50.95-23,15.563-20.826,13.085-38.571,13.085H714.085" transform="translate(-365.086 2198.074)" fill="none" stroke="#cccdd7" stroke-linecap="round" stroke-miterlimit="10" stroke-width="3" stroke-dasharray="1 10"/>
    <path id="Path_3591" data-name="Path 3591" d="M865.251,107.607l-18.486,12.06c-29.5,40.268-21.451,38.2-30.8,69.059l-16.441,84.647c-11.422,28.96-30.947,23.342-48.693,23.342H714.085" transform="translate(-365.086 2200.295)" fill="none" stroke="#cccdd7" stroke-linecap="round" stroke-miterlimit="10" stroke-width="3" stroke-dasharray="1 10"/>
    <g transform="matrix(1, 0, 0, 1, 165, 1961.11)" filter="url(#Path_4476)">
      <path id="Path_4476-2" data-name="Path 4476" d="M5.669,0H64.331A5.669,5.669,0,0,1,70,5.669V64.331A5.669,5.669,0,0,1,64.331,70H5.669A5.669,5.669,0,0,1,0,64.331V5.669A5.669,5.669,0,0,1,5.669,0Z" transform="translate(149 144)" fill="#fff" stroke="#b4bbc6" stroke-width="1"/>
    </g>
    <g transform="matrix(1, 0, 0, 1, 165, 1961.11)" filter="url(#Path_4468)">
      <path id="Path_4468-2" data-name="Path 4468" d="M5.669,0H64.331A5.669,5.669,0,0,1,70,5.669V64.331A5.669,5.669,0,0,1,64.331,70H5.669A5.669,5.669,0,0,1,0,64.331V5.669A5.669,5.669,0,0,1,5.669,0Z" transform="translate(149 262.24)" fill="#fff" stroke="#b4bbc6" stroke-width="1"/>
    </g>
    <path id="Path_4477" data-name="Path 4477" d="M-35.82-9.953-32.956-2.3h.041l2.871-7.656h2.153V0h-1.661V-3.391l.164-4.313-.041-.007L-32.382,0H-33.5l-2.939-7.69-.041.007.164,4.293V0h-1.661V-9.953ZM-21.472,0q-.089-.28-.147-.547A3.909,3.909,0,0,1-21.7-1.08a2.935,2.935,0,0,1-.9.872,2.287,2.287,0,0,1-1.248.352,2.459,2.459,0,0,1-1.774-.595,2.16,2.16,0,0,1-.619-1.634,1.93,1.93,0,0,1,.848-1.671A4.093,4.093,0,0,1-23-4.354h1.292V-5a1.2,1.2,0,0,0-.342-.909,1.356,1.356,0,0,0-.978-.328,1.384,1.384,0,0,0-.9.273.868.868,0,0,0-.335.7h-1.6l-.007-.041a1.832,1.832,0,0,1,.783-1.552,3.317,3.317,0,0,1,2.164-.677,3.164,3.164,0,0,1,2.085.656A2.31,2.31,0,0,1-20.05-4.99V-1.7a6.064,6.064,0,0,0,.062.878,4.664,4.664,0,0,0,.2.824Zm-2.037-1.189A2.088,2.088,0,0,0-22.377-1.5a1.583,1.583,0,0,0,.667-.718V-3.315H-23.03a1.666,1.666,0,0,0-1.135.359,1.09,1.09,0,0,0-.41.844.861.861,0,0,0,.277.673A1.14,1.14,0,0,0-23.509-1.189Zm8.887-4.71-.711-.027a1.49,1.49,0,0,0-.81.205,1.351,1.351,0,0,0-.5.581V0h-1.661V-7.4h1.518l.109,1.073a2.372,2.372,0,0,1,.721-.889,1.679,1.679,0,0,1,1.015-.321,1.548,1.548,0,0,1,.28.024,2.047,2.047,0,0,1,.239.058Zm3.568,2.666H-11.8V0h-1.654V-10.664H-11.8v6.1h.69L-9.242-7.4h1.955l-2.44,3.363L-6.925,0H-8.853ZM-3.1.144A3.216,3.216,0,0,1-5.609-.885a3.782,3.782,0,0,1-.933-2.642V-3.8a3.927,3.927,0,0,1,.926-2.676A2.93,2.93,0,0,1-3.295-7.533,2.891,2.891,0,0,1-1-6.627a3.549,3.549,0,0,1,.8,2.43v.978H-4.819l-.014.034a2.329,2.329,0,0,0,.516,1.442A1.632,1.632,0,0,0-3-1.183a3.557,3.557,0,0,0,1.148-.164A3.763,3.763,0,0,0-.93-1.818L-.4-.731A3.441,3.441,0,0,1-1.5-.109,4.64,4.64,0,0,1-3.1.144ZM-3.295-6.2a1.246,1.246,0,0,0-1.012.489A2.407,2.407,0,0,0-4.8-4.471l.014.034h2.933v-.171a1.77,1.77,0,0,0-.359-1.148A1.31,1.31,0,0,0-3.295-6.2ZM3.2-9.194v1.8H4.525v1.23H3.2v4.088a.891.891,0,0,0,.2.653.718.718,0,0,0,.526.195,1.469,1.469,0,0,0,.267-.024,1.62,1.62,0,0,0,.246-.065L4.614-.1a1.9,1.9,0,0,1-.506.181A2.812,2.812,0,0,1,3.5.144,1.9,1.9,0,0,1,2.064-.393a2.35,2.35,0,0,1-.52-1.685V-6.166H.417V-7.4H1.545v-1.8Zm9.283,5.742a4.17,4.17,0,0,1-.759,2.6A2.51,2.51,0,0,1,9.611.144,2.616,2.616,0,0,1,8.5-.082a2.293,2.293,0,0,1-.834-.663V2.844H6V-7.4H7.4l.164.93a2.467,2.467,0,0,1,.858-.793,2.4,2.4,0,0,1,1.166-.273A2.456,2.456,0,0,1,11.72-6.45,4.861,4.861,0,0,1,12.482-3.6ZM10.828-3.6A3.6,3.6,0,0,0,10.4-5.452a1.389,1.389,0,0,0-1.275-.721,1.656,1.656,0,0,0-.882.222,1.636,1.636,0,0,0-.581.619v3.343a1.545,1.545,0,0,0,.581.6,1.771,1.771,0,0,0,.9.208,1.425,1.425,0,0,0,1.268-.625,2.9,2.9,0,0,0,.42-1.644ZM15.7,0H14.041V-10.664H15.7Zm6.31,0q-.089-.28-.147-.547a3.909,3.909,0,0,1-.079-.533,2.935,2.935,0,0,1-.9.872A2.287,2.287,0,0,1,19.64.144a2.459,2.459,0,0,1-1.774-.595,2.16,2.16,0,0,1-.619-1.634,1.93,1.93,0,0,1,.848-1.671,4.093,4.093,0,0,1,2.386-.6h1.292V-5a1.2,1.2,0,0,0-.342-.909,1.356,1.356,0,0,0-.978-.328,1.384,1.384,0,0,0-.9.273.868.868,0,0,0-.335.7h-1.6L17.609-5.3a1.832,1.832,0,0,1,.783-1.552,3.317,3.317,0,0,1,2.164-.677,3.164,3.164,0,0,1,2.085.656,2.31,2.31,0,0,1,.793,1.887V-1.7a6.064,6.064,0,0,0,.062.878,4.664,4.664,0,0,0,.2.824ZM19.975-1.189A2.088,2.088,0,0,0,21.106-1.5a1.583,1.583,0,0,0,.667-.718V-3.315H20.453a1.666,1.666,0,0,0-1.135.359,1.09,1.09,0,0,0-.41.844.861.861,0,0,0,.277.673A1.14,1.14,0,0,0,19.975-1.189Zm8.258.007a1.517,1.517,0,0,0,1.025-.359,1.137,1.137,0,0,0,.417-.9h1.5l.014.041a2.184,2.184,0,0,1-.844,1.791,3.144,3.144,0,0,1-2.116.752A3.068,3.068,0,0,1,25.727-.909a4.041,4.041,0,0,1-.872-2.666v-.239a4.044,4.044,0,0,1,.872-2.663,3.063,3.063,0,0,1,2.505-1.056,3.042,3.042,0,0,1,2.164.776,2.5,2.5,0,0,1,.8,1.972l-.014.041H29.675a1.449,1.449,0,0,0-.4-1.032A1.368,1.368,0,0,0,28.232-6.2a1.4,1.4,0,0,0-1.326.68,3.391,3.391,0,0,0-.39,1.706v.239a3.4,3.4,0,0,0,.39,1.719A1.406,1.406,0,0,0,28.232-1.183ZM35.7.144A3.216,3.216,0,0,1,33.192-.885a3.782,3.782,0,0,1-.933-2.642V-3.8a3.927,3.927,0,0,1,.926-2.676,2.93,2.93,0,0,1,2.321-1.056,2.891,2.891,0,0,1,2.293.906,3.549,3.549,0,0,1,.8,2.43v.978H33.981l-.014.034a2.329,2.329,0,0,0,.516,1.442,1.632,1.632,0,0,0,1.316.561,3.557,3.557,0,0,0,1.148-.164,3.763,3.763,0,0,0,.923-.472L38.4-.731A3.441,3.441,0,0,1,37.3-.109,4.64,4.64,0,0,1,35.7.144ZM35.506-6.2a1.246,1.246,0,0,0-1.012.489A2.407,2.407,0,0,0,34-4.471l.014.034h2.933v-.171a1.77,1.77,0,0,0-.359-1.148A1.31,1.31,0,0,0,35.506-6.2Z" transform="translate(349 2092)" fill="#b4bbc6" opacity="0.604"/>
    <path id="Path_4473" data-name="Path 4473" d="M-33.349-4.478H-37.7v3.151h5.052V0h-6.713V-9.953H-32.7V-8.62h-5v2.81h4.354Zm5.086.916h-3.589V-4.9h3.589Zm8.866.26.014.041A3.134,3.134,0,0,1-20.364-.8,3.829,3.829,0,0,1-23.1.144a3.692,3.692,0,0,1-2.833-1.172,4.227,4.227,0,0,1-1.09-3V-5.92a4.274,4.274,0,0,1,1.077-3,3.615,3.615,0,0,1,2.8-1.179,3.967,3.967,0,0,1,2.779.926,3.128,3.128,0,0,1,.988,2.492l-.014.041H-21A2.155,2.155,0,0,0-21.54-8.2a2.134,2.134,0,0,0-1.6-.561,1.908,1.908,0,0,0-1.617.807,3.3,3.3,0,0,0-.6,2.023v1.907a3.275,3.275,0,0,0,.612,2.037,1.964,1.964,0,0,0,1.651.807,2.075,2.075,0,0,0,1.565-.554A2.165,2.165,0,0,0-21-3.3Zm1.121-.465a4.029,4.029,0,0,1,.9-2.707,3.111,3.111,0,0,1,2.481-1.06,3.1,3.1,0,0,1,2.5,1.06,3.994,3.994,0,0,1,.909,2.707v.144A4.014,4.014,0,0,1-12.4-.9,3.1,3.1,0,0,1-14.878.144a3.124,3.124,0,0,1-2.5-1.053,4.023,4.023,0,0,1-.9-2.714Zm1.661.144a3.3,3.3,0,0,0,.424,1.764,1.429,1.429,0,0,0,1.313.677,1.436,1.436,0,0,0,1.3-.677,3.221,3.221,0,0,0,.438-1.764v-.144A3.18,3.18,0,0,0-13.58-5.51a1.441,1.441,0,0,0-1.312-.69,1.429,1.429,0,0,0-1.3.69,3.282,3.282,0,0,0-.424,1.743ZM-8.521-7.4l.089.964a2.507,2.507,0,0,1,.909-.813,2.681,2.681,0,0,1,1.265-.287,2.282,2.282,0,0,1,1.244.328,1.983,1.983,0,0,1,.779.984,2.591,2.591,0,0,1,.9-.964A2.434,2.434,0,0,1-2.02-7.533a2.186,2.186,0,0,1,1.76.762A3.514,3.514,0,0,1,.386-4.457V0H-1.275V-4.464A2.076,2.076,0,0,0-1.6-5.79a1.206,1.206,0,0,0-.974-.383,1.425,1.425,0,0,0-.9.287,1.6,1.6,0,0,0-.533.772q0,.1.007.178T-4-4.792V0H-5.657V-4.464a2.053,2.053,0,0,0-.332-1.309,1.193,1.193,0,0,0-.974-.4,1.749,1.749,0,0,0-.858.195,1.436,1.436,0,0,0-.557.55V0h-1.661V-7.4Zm12.175,0,.089.964a2.507,2.507,0,0,1,.909-.813,2.681,2.681,0,0,1,1.265-.287,2.282,2.282,0,0,1,1.244.328,1.983,1.983,0,0,1,.779.984,2.591,2.591,0,0,1,.9-.964,2.434,2.434,0,0,1,1.313-.349,2.186,2.186,0,0,1,1.76.762,3.514,3.514,0,0,1,.646,2.314V0H10.9V-4.464a2.076,2.076,0,0,0-.325-1.326A1.206,1.206,0,0,0,9.6-6.173a1.425,1.425,0,0,0-.9.287,1.6,1.6,0,0,0-.533.772q0,.1.007.178t.007.144V0H6.518V-4.464a2.053,2.053,0,0,0-.332-1.309,1.193,1.193,0,0,0-.974-.4,1.749,1.749,0,0,0-.858.195,1.436,1.436,0,0,0-.557.55V0H2.136V-7.4ZM17.483.144A3.216,3.216,0,0,1,14.978-.885a3.782,3.782,0,0,1-.933-2.642V-3.8a3.927,3.927,0,0,1,.926-2.676,2.93,2.93,0,0,1,2.321-1.056,2.891,2.891,0,0,1,2.293.906,3.549,3.549,0,0,1,.8,2.43v.978H15.767l-.014.034a2.329,2.329,0,0,0,.516,1.442,1.632,1.632,0,0,0,1.316.561,3.557,3.557,0,0,0,1.148-.164,3.763,3.763,0,0,0,.923-.472L20.19-.731a3.441,3.441,0,0,1-1.107.622A4.64,4.64,0,0,1,17.483.144ZM17.292-6.2a1.246,1.246,0,0,0-1.012.489,2.407,2.407,0,0,0-.492,1.241l.014.034h2.933v-.171a1.77,1.77,0,0,0-.359-1.148A1.31,1.31,0,0,0,17.292-6.2Zm8.114.3-.711-.027a1.49,1.49,0,0,0-.81.205,1.351,1.351,0,0,0-.5.581V0H21.721V-7.4h1.518l.109,1.073a2.372,2.372,0,0,1,.721-.889,1.679,1.679,0,0,1,1.015-.321,1.548,1.548,0,0,1,.28.024,2.047,2.047,0,0,1,.239.058Zm4.218,4.717a1.517,1.517,0,0,0,1.025-.359,1.137,1.137,0,0,0,.417-.9h1.5l.014.041a2.184,2.184,0,0,1-.844,1.791,3.144,3.144,0,0,1-2.116.752A3.068,3.068,0,0,1,27.118-.909a4.041,4.041,0,0,1-.872-2.666v-.239a4.044,4.044,0,0,1,.872-2.663,3.063,3.063,0,0,1,2.505-1.056,3.042,3.042,0,0,1,2.164.776,2.5,2.5,0,0,1,.8,1.972l-.014.041H31.066a1.449,1.449,0,0,0-.4-1.032A1.368,1.368,0,0,0,29.624-6.2a1.4,1.4,0,0,0-1.326.68,3.391,3.391,0,0,0-.39,1.706v.239a3.4,3.4,0,0,0,.39,1.719A1.406,1.406,0,0,0,29.624-1.183ZM37.088.144A3.216,3.216,0,0,1,34.583-.885a3.782,3.782,0,0,1-.933-2.642V-3.8a3.927,3.927,0,0,1,.926-2.676A2.93,2.93,0,0,1,36.9-7.533a2.891,2.891,0,0,1,2.293.906,3.549,3.549,0,0,1,.8,2.43v.978H35.373l-.014.034a2.329,2.329,0,0,0,.516,1.442,1.632,1.632,0,0,0,1.316.561,3.557,3.557,0,0,0,1.148-.164,3.763,3.763,0,0,0,.923-.472L39.8-.731a3.441,3.441,0,0,1-1.107.622A4.64,4.64,0,0,1,37.088.144ZM36.9-6.2a1.246,1.246,0,0,0-1.012.489,2.407,2.407,0,0,0-.492,1.241l.014.034h2.933v-.171a1.77,1.77,0,0,0-.359-1.148A1.31,1.31,0,0,0,36.9-6.2Z" transform="translate(349 2210.615)" fill="#b4bbc6" opacity="0.604"/>
    <g id="Group_2956" data-name="Group 2956" transform="translate(-43.037 2019.623)">
      <g id="Group_2956-2" data-name="Group 2956" transform="translate(376.891 106)">
        <path id="Path_3592" data-name="Path 3592" d="M378,125v11.582h28.51V125" transform="translate(-377.109 -108.072)" fill="none" stroke="#526279" stroke-linecap="round" stroke-linejoin="round" stroke-width="1.5"/>
        <path id="Path_3593" data-name="Path 3593" d="M406.51,110.455V106H378v4.455" transform="translate(-377.109 -106)" fill="none" stroke="#526279" stroke-linecap="round" stroke-linejoin="round" stroke-width="1.5"/>
        <rect id="Rectangle_590" data-name="Rectangle 590" width="9" height="7" transform="translate(6.146 18.255)" fill="none" stroke="#526279" stroke-linecap="round" stroke-linejoin="round" stroke-width="1.5"/>
        <rect id="Rectangle_591" data-name="Rectangle 591" width="6" height="10" transform="translate(20.146 18.255)" fill="none" stroke="#526279" stroke-linecap="round" stroke-linejoin="round" stroke-width="1.5"/>
        <line id="Line_52" data-name="Line 52" x1="29" transform="translate(0.146 9.255)" fill="none" stroke="#526279" stroke-linecap="round" stroke-linejoin="round" stroke-width="1.5"/>
      </g>
      <line id="Line_53" data-name="Line 53" x2="2" y2="5" transform="translate(406.037 110.255)" fill="none" stroke="#526279" stroke-linecap="round" stroke-linejoin="round" stroke-width="1.5"/>
      <path id="Path_3594" data-name="Path 3594" d="M376,115.455,377.782,111h28.51" transform="translate(0 -0.545)" fill="none" stroke="#526279" stroke-linecap="round" stroke-linejoin="round" stroke-width="1.5"/>
      <path id="Path_3595" data-name="Path 3595" d="M376,116v2.673a2.673,2.673,0,0,0,5.346,0,2.673,2.673,0,0,0,5.346,0,2.673,2.673,0,0,0,5.346,0,2.673,2.673,0,0,0,5.346,0,2.673,2.673,0,0,0,5.346,0,2.673,2.673,0,0,0,5.346,0V116Z" transform="translate(0 -1.09)" fill="none" stroke="#526279" stroke-linecap="round" stroke-linejoin="round" stroke-width="1.5"/>
    </g>
    <g id="Group_2957" data-name="Group 2957" transform="translate(90 2070.615)">
      <path id="Path_3596" data-name="Path 3596" d="M272,199H250l-4-23h-5" fill="none" stroke="#526279" stroke-linecap="round" stroke-linejoin="round" stroke-width="1.5"/>
      <path id="Path_3597" data-name="Path 3597" d="M247,179h28l-3,15H250" fill="none" stroke="#526279" stroke-linecap="round" stroke-linejoin="round" stroke-width="1.5"/>
      <line id="Line_54" data-name="Line 54" y2="15" transform="translate(254 179)" fill="none" stroke="#526279" stroke-linecap="round" stroke-linejoin="round" stroke-width="1.5"/>
      <line id="Line_55" data-name="Line 55" y2="15" transform="translate(261 179)" fill="none" stroke="#526279" stroke-linecap="round" stroke-linejoin="round" stroke-width="1.5"/>
      <line id="Line_56" data-name="Line 56" x1="25" transform="translate(248 186)" fill="none" stroke="#526279" stroke-linecap="round" stroke-linejoin="round" stroke-width="1.5"/>
      <line id="Line_57" data-name="Line 57" y2="15" transform="translate(268 179)" fill="none" stroke="#526279" stroke-linecap="round" stroke-linejoin="round" stroke-width="1.5"/>
      <circle id="Ellipse_214" data-name="Ellipse 214" cx="2.5" cy="2.5" r="2.5" transform="translate(252 199)" fill="none" stroke="#526279" stroke-linecap="round" stroke-linejoin="round" stroke-width="1.5"/>
      <circle id="Ellipse_215" data-name="Ellipse 215" cx="2.5" cy="2.5" r="2.5" transform="translate(265 199)" fill="none" stroke="#526279" stroke-linecap="round" stroke-linejoin="round" stroke-width="1.5"/>
    </g>
    <g transform="matrix(1, 0, 0, 1, 165, 1961.11)" filter="url(#Path_4469)">
      <path id="Path_4469-2" data-name="Path 4469" d="M5.669,0H64.331A5.669,5.669,0,0,1,70,5.669V64.331A5.669,5.669,0,0,1,64.331,70H5.669A5.669,5.669,0,0,1,0,64.331V5.669A5.669,5.669,0,0,1,5.669,0Z" transform="translate(149 383.1)" fill="#fff" stroke="#b4bbc6" stroke-width="1"/>
    </g>
    <g transform="matrix(1, 0, 0, 1, 165, 1961.11)" filter="url(#Path_4470)">
      <path id="Path_4470-2" data-name="Path 4470" d="M5.669,0H64.331A5.669,5.669,0,0,1,70,5.669V64.331A5.669,5.669,0,0,1,64.331,70H5.669A5.669,5.669,0,0,1,0,64.331V5.669A5.669,5.669,0,0,1,5.669,0Z" transform="translate(149 501.34)" fill="#fff" stroke="#b4bbc6" stroke-width="1"/>
    </g>
    <path id="Path_4474" data-name="Path 4474" d="M-11.86,0V-9.953h3.309a4.3,4.3,0,0,1,2.584.68,2.357,2.357,0,0,1,.93,2.034,2,2,0,0,1-.39,1.21,2.3,2.3,0,0,1-1.08.793,2.219,2.219,0,0,1,1.367.854,2.519,2.519,0,0,1,.479,1.524A2.558,2.558,0,0,1-5.578-.728,3.963,3.963,0,0,1-8.107,0ZM-10.2-4.525v3.2h2.092a2,2,0,0,0,1.326-.393,1.407,1.407,0,0,0,.465-1.138,1.788,1.788,0,0,0-.39-1.23,1.549,1.549,0,0,0-1.217-.437Zm0-1.237h1.832a1.873,1.873,0,0,0,1.22-.366A1.261,1.261,0,0,0-6.7-7.164a1.291,1.291,0,0,0-.472-1.1A2.254,2.254,0,0,0-8.552-8.62H-10.2ZM3.377,0h-6.61V-1.142L.007-4.676A7.866,7.866,0,0,0,1.1-6.1a2.286,2.286,0,0,0,.3-1.09,1.655,1.655,0,0,0-.39-1.121A1.32,1.32,0,0,0-.041-8.764a1.622,1.622,0,0,0-1.3.492,2.007,2.007,0,0,0-.424,1.354H-3.37l-.014-.041a2.925,2.925,0,0,1,.868-2.232A3.337,3.337,0,0,1-.041-10.1a3.158,3.158,0,0,1,2.27.793,2.728,2.728,0,0,1,.834,2.071A3.06,3.06,0,0,1,2.581-5.6,13.766,13.766,0,0,1,1.087-3.705L-1.128-1.367l.021.041H3.377ZM5.065,0V-9.953H8.374a4.3,4.3,0,0,1,2.584.68,2.357,2.357,0,0,1,.93,2.034,2,2,0,0,1-.39,1.21,2.3,2.3,0,0,1-1.08.793,2.219,2.219,0,0,1,1.367.854,2.519,2.519,0,0,1,.479,1.524,2.558,2.558,0,0,1-.916,2.129A3.963,3.963,0,0,1,8.818,0ZM6.727-4.525v3.2H8.818a2,2,0,0,0,1.326-.393,1.407,1.407,0,0,0,.465-1.138,1.788,1.788,0,0,0-.39-1.23A1.549,1.549,0,0,0,9-4.525Zm0-1.237H8.559a1.873,1.873,0,0,0,1.22-.366,1.261,1.261,0,0,0,.448-1.036,1.291,1.291,0,0,0-.472-1.1A2.254,2.254,0,0,0,8.374-8.62H6.727Z" transform="translate(349 2331.098)" fill="#b4bbc6" opacity="0.604"/>
    <path id="Path_4471" data-name="Path 4471" d="M-40.961,0V-9.953h3.227a4.173,4.173,0,0,1,3.08,1.183,4.111,4.111,0,0,1,1.186,3.042v1.511a4.1,4.1,0,0,1-1.186,3.042A4.186,4.186,0,0,1-37.734,0ZM-39.3-8.62v7.294h1.518a2.453,2.453,0,0,0,1.945-.807,3.046,3.046,0,0,0,.708-2.085V-5.742a3.026,3.026,0,0,0-.708-2.071,2.453,2.453,0,0,0-1.945-.807ZM-28.287-5.9-29-5.927a1.49,1.49,0,0,0-.81.205,1.351,1.351,0,0,0-.5.581V0h-1.661V-7.4h1.518l.109,1.073a2.372,2.372,0,0,1,.721-.889,1.679,1.679,0,0,1,1.015-.321,1.548,1.548,0,0,1,.28.024,2.047,2.047,0,0,1,.239.058Zm.854,2.133a4.029,4.029,0,0,1,.9-2.707,3.111,3.111,0,0,1,2.481-1.06,3.1,3.1,0,0,1,2.5,1.06,3.994,3.994,0,0,1,.909,2.707v.144A4.014,4.014,0,0,1-21.554-.9,3.1,3.1,0,0,1-24.035.144a3.124,3.124,0,0,1-2.5-1.053,4.023,4.023,0,0,1-.9-2.714Zm1.661.144a3.3,3.3,0,0,0,.424,1.764,1.429,1.429,0,0,0,1.313.677,1.436,1.436,0,0,0,1.3-.677A3.221,3.221,0,0,0-22.3-3.623v-.144a3.18,3.18,0,0,0-.437-1.743,1.441,1.441,0,0,0-1.312-.69,1.429,1.429,0,0,0-1.3.69,3.282,3.282,0,0,0-.424,1.743Zm13.057.171a4.17,4.17,0,0,1-.759,2.6,2.51,2.51,0,0,1-2.112.991A2.616,2.616,0,0,1-16.7-.082a2.293,2.293,0,0,1-.834-.663V2.844H-19.2V-7.4h1.4l.164.93a2.467,2.467,0,0,1,.858-.793,2.4,2.4,0,0,1,1.166-.273A2.456,2.456,0,0,1-13.477-6.45,4.861,4.861,0,0,1-12.715-3.6ZM-14.369-3.6A3.6,3.6,0,0,0-14.8-5.452a1.389,1.389,0,0,0-1.275-.721,1.656,1.656,0,0,0-.882.222,1.636,1.636,0,0,0-.581.619v3.343a1.545,1.545,0,0,0,.581.6,1.771,1.771,0,0,0,.9.208,1.425,1.425,0,0,0,1.268-.625,2.9,2.9,0,0,0,.42-1.644Zm7.26,1.586a.772.772,0,0,0-.328-.636A3.273,3.273,0,0,0-8.661-3.09a5.079,5.079,0,0,1-2.006-.8,1.669,1.669,0,0,1-.68-1.4,2,2,0,0,1,.786-1.586A3.126,3.126,0,0,1-8.49-7.533a3.244,3.244,0,0,1,2.15.667,1.974,1.974,0,0,1,.762,1.651l-.014.041H-7.185a1.042,1.042,0,0,0-.349-.786,1.34,1.34,0,0,0-.957-.328,1.369,1.369,0,0,0-.916.27.838.838,0,0,0-.314.66.74.74,0,0,0,.3.619,3.193,3.193,0,0,0,1.207.407,5.083,5.083,0,0,1,2.068.81A1.708,1.708,0,0,1-5.476-2.1,1.939,1.939,0,0,1-6.3-.479,3.51,3.51,0,0,1-8.47.144a3.313,3.313,0,0,1-2.276-.738,2.085,2.085,0,0,1-.793-1.7l.014-.041H-9.98a1.108,1.108,0,0,0,.465.937A1.868,1.868,0,0,0-8.449-1.1a1.7,1.7,0,0,0,.991-.246A.772.772,0,0,0-7.109-2.01Zm4.765-4.43a2.637,2.637,0,0,1,.9-.807A2.42,2.42,0,0,1-.273-7.533a2.329,2.329,0,0,1,1.835.742A3.366,3.366,0,0,1,2.222-4.5V0H.561V-4.519A1.873,1.873,0,0,0,.212-5.783a1.332,1.332,0,0,0-1.046-.39,1.855,1.855,0,0,0-.872.2,1.792,1.792,0,0,0-.639.557V0H-4.006V-10.664h1.661ZM5.715,0H4.054V-7.4H5.715Zm0-9.208H4.054v-1.456H5.715Zm8.34,5.756a4.17,4.17,0,0,1-.759,2.6,2.51,2.51,0,0,1-2.112.991,2.616,2.616,0,0,1-1.114-.226,2.293,2.293,0,0,1-.834-.663V2.844H7.574V-7.4h1.4l.164.93A2.467,2.467,0,0,1,10-7.26a2.4,2.4,0,0,1,1.166-.273A2.456,2.456,0,0,1,13.292-6.45,4.861,4.861,0,0,1,14.055-3.6ZM12.4-3.6a3.6,3.6,0,0,0-.427-1.856A1.389,1.389,0,0,0,10.7-6.173a1.656,1.656,0,0,0-.882.222,1.636,1.636,0,0,0-.581.619v3.343a1.545,1.545,0,0,0,.581.6,1.771,1.771,0,0,0,.9.208,1.425,1.425,0,0,0,1.268-.625,2.9,2.9,0,0,0,.42-1.644Zm9.584.144a4.17,4.17,0,0,1-.759,2.6,2.51,2.51,0,0,1-2.112.991A2.616,2.616,0,0,1,18-.082a2.293,2.293,0,0,1-.834-.663V2.844H15.5V-7.4h1.4l.164.93a2.467,2.467,0,0,1,.858-.793,2.4,2.4,0,0,1,1.166-.273A2.456,2.456,0,0,1,21.222-6.45,4.861,4.861,0,0,1,21.984-3.6ZM20.33-3.6A3.6,3.6,0,0,0,19.9-5.452a1.389,1.389,0,0,0-1.275-.721,1.656,1.656,0,0,0-.882.222,1.636,1.636,0,0,0-.581.619v3.343a1.545,1.545,0,0,0,.581.6,1.771,1.771,0,0,0,.9.208,1.425,1.425,0,0,0,1.268-.625,2.9,2.9,0,0,0,.42-1.644ZM25.2,0H23.543V-7.4H25.2Zm0-9.208H23.543v-1.456H25.2ZM28.567-7.4l.1,1.066a2.646,2.646,0,0,1,.913-.885,2.435,2.435,0,0,1,1.241-.318,2.328,2.328,0,0,1,1.8.7,3.143,3.143,0,0,1,.646,2.184V0H31.6V-4.635a1.661,1.661,0,0,0-.345-1.186,1.41,1.41,0,0,0-1.049-.352,1.74,1.74,0,0,0-.868.215,1.8,1.8,0,0,0-.629.591V0H27.05V-7.4Zm6.125,3.8a4.816,4.816,0,0,1,.772-2.851,2.486,2.486,0,0,1,2.146-1.087,2.33,2.33,0,0,1,1.166.284,2.463,2.463,0,0,1,.851.817l.164-.964h1.381V0a2.791,2.791,0,0,1-.882,2.208,3.657,3.657,0,0,1-2.5.779,4.9,4.9,0,0,1-1.166-.154,5.414,5.414,0,0,1-1.131-.407l.355-1.306a4.021,4.021,0,0,0,.906.332,4.34,4.34,0,0,0,1.022.12,1.9,1.9,0,0,0,1.319-.386A1.542,1.542,0,0,0,39.512,0V-.759a2.324,2.324,0,0,1-.824.673A2.482,2.482,0,0,1,37.6.144a2.554,2.554,0,0,1-2.133-.991,4.118,4.118,0,0,1-.772-2.6Zm1.661.144a2.9,2.9,0,0,0,.407,1.63,1.408,1.408,0,0,0,1.261.612,1.7,1.7,0,0,0,.9-.222,1.64,1.64,0,0,0,.591-.639v-3.24a1.775,1.775,0,0,0-.6-.632,1.622,1.622,0,0,0-.878-.229,1.366,1.366,0,0,0-1.268.718A3.7,3.7,0,0,0,36.354-3.6Z" transform="translate(349 2449.715)" fill="#b4bbc6" opacity="0.604"/>
    <g id="Group_2960" data-name="Group 2960" transform="translate(-699.754 263.559)">
      <g id="Group_2960-2" data-name="Group 2960" transform="translate(1031.138 2095.9)">
        <path id="Path_3598" data-name="Path 3598" d="M1053.093,2135.406h-19.072a2.886,2.886,0,0,1-2.883-2.883v-33.74a2.887,2.887,0,0,1,2.883-2.883h19.072a2.887,2.887,0,0,1,2.883,2.883v33.74A2.886,2.886,0,0,1,1053.093,2135.406Zm-19.072-38.527a1.907,1.907,0,0,0-1.9,1.9v33.74a1.906,1.906,0,0,0,1.9,1.9h19.072a1.906,1.906,0,0,0,1.9-1.9v-33.74a1.907,1.907,0,0,0-1.9-1.9Z" transform="translate(-1031.138 -2095.9)" fill="#526279" stroke="#526279" stroke-width="0.5"/>
      </g>
      <g id="Group_2961" data-name="Group 2961" transform="translate(1031.152 2100.86)">
        <rect id="Rectangle_595" data-name="Rectangle 595" width="23.845" height="28.404" transform="translate(0.489 0.489)" fill="#fff"/>
        <path id="Path_3599" data-name="Path 3599" d="M1055.678,2197.116h-23.845a.489.489,0,0,1-.49-.489v-28.4a.489.489,0,0,1,.49-.489h23.845a.489.489,0,0,1,.49.489v28.4A.489.489,0,0,1,1055.678,2197.116Zm-23.355-.979h22.866v-27.425h-22.866Z" transform="translate(-1031.344 -2167.734)" fill="#526279" stroke="#526279" stroke-width="0.5"/>
      </g>
      <path id="Path_3600" data-name="Path 3600" d="M1162.544,2132.849h-6.84a.428.428,0,0,1-.427-.426h0a.428.428,0,0,1,.427-.427h6.84a.428.428,0,0,1,.427.427h0A.428.428,0,0,1,1162.544,2132.849Z" transform="translate(-115.567 -33.604)" fill="#526279"/>
      <g id="Group_2962" data-name="Group 2962" transform="translate(1045.441 2101.034)">
        <line id="Line_58" data-name="Line 58" x1="3.364" y2="3.39" transform="translate(0.489 0.489)" fill="#fff" stroke="#526279" stroke-width="0.5"/>
        <path id="Path_3601" data-name="Path 3601" d="M1238.75,2174.621a.489.489,0,0,1-.347-.834l3.364-3.39a.489.489,0,1,1,.695.689l-3.364,3.39A.489.489,0,0,1,1238.75,2174.621Z" transform="translate(-1238.261 -2170.252)" fill="#526279" stroke="#526279" stroke-width="0.5"/>
      </g>
      <g id="Group_2963" data-name="Group 2963" transform="translate(1047.397 2101.034)">
        <line id="Line_59" data-name="Line 59" x1="5.974" y2="6.021" transform="translate(0.49 0.489)" fill="#fff" stroke="#526279" stroke-width="0.5"/>
        <path id="Path_3602" data-name="Path 3602" d="M1267.087,2177.251a.489.489,0,0,1-.347-.834l5.974-6.021a.489.489,0,1,1,.695.689l-5.974,6.021A.488.488,0,0,1,1267.087,2177.251Z" transform="translate(-1266.598 -2170.252)" fill="#526279" stroke="#526279" stroke-width="0.5"/>
      </g>
      <g id="Group_2964" data-name="Group 2964" transform="translate(1033.192 2123.83)">
        <line id="Line_60" data-name="Line 60" x1="5.392" y2="5.435" transform="translate(0.489 0.489)" fill="#fff" stroke="#526279" stroke-width="0.5"/>
        <path id="Path_3603" data-name="Path 3603" d="M1061.376,2506.772a.49.49,0,0,1-.347-.834l5.392-5.435a.489.489,0,0,1,.695.689l-5.392,5.435A.488.488,0,0,1,1061.376,2506.772Z" transform="translate(-1060.887 -2500.358)" fill="#526279" stroke="#526279" stroke-width="0.5"/>
      </g>
      <g id="Group_2965" data-name="Group 2965" transform="translate(1036.303 2106.847)">
        <path id="Path_3604" data-name="Path 3604" d="M1142.106,2263.4v12.881a1.893,1.893,0,0,1-1.885,1.881H1114.9a1.892,1.892,0,0,1-1.884-1.881V2263.4a1.883,1.883,0,0,1,1.884-1.87h25.319A1.884,1.884,0,0,1,1142.106,2263.4Z" transform="translate(-1112.529 -2261.036)" fill="#fff"/>
        <path id="Path_3605" data-name="Path 3605" d="M1133.623,2272.047H1108.3a2.374,2.374,0,0,1-2.374-2.37V2256.8a2.369,2.369,0,0,1,2.374-2.359h25.319A2.369,2.369,0,0,1,1136,2256.8v12.881A2.374,2.374,0,0,1,1133.623,2272.047Zm-25.319-16.632a1.389,1.389,0,0,0-1.395,1.381v12.881a1.394,1.394,0,0,0,1.395,1.391h25.319a1.412,1.412,0,0,0,1.4-1.391V2256.8a1.39,1.39,0,0,0-1.4-1.381Z" transform="translate(-1105.93 -2254.437)" fill="#526279" stroke="#526279" stroke-width="0.5"/>
      </g>
      <g id="Group_2966" data-name="Group 2966" transform="translate(1036.31 2109.799)">
        <path id="Path_3606" data-name="Path 3606" d="M1135.6,2302.037h-29.071a.489.489,0,0,1-.49-.489v-3.883a.489.489,0,0,1,.49-.489H1135.6a.489.489,0,0,1,.49.489v3.883A.489.489,0,0,1,1135.6,2302.037Zm-28.582-.979h28.092v-2.9h-28.092Z" transform="translate(-1106.043 -2297.175)" fill="#526279" stroke="#526279" stroke-width="0.5"/>
      </g>
      <rect id="Rectangle_597" data-name="Rectangle 597" width="8.21" height="0.469" rx="0.235" transform="translate(1049.217 2118.443)" fill="#526279" stroke="#526279" stroke-width="0.2"/>
      <rect id="Rectangle_598" data-name="Rectangle 598" width="2.571" height="0.469" rx="0.235" transform="translate(1057.953 2118.443)" fill="#526279" stroke="#526279" stroke-width="0.2"/>
      <rect id="Rectangle_599" data-name="Rectangle 599" width="3.798" height="0.469" rx="0.235" transform="translate(1049.217 2119.614)" fill="#526279" stroke="#526279" stroke-width="0.2"/>
      <rect id="Rectangle_600" data-name="Rectangle 600" width="8.114" height="0.469" rx="0.235" transform="translate(1053.629 2119.614)" fill="#526279" stroke="#526279" stroke-width="0.2"/>
      <rect id="Rectangle_601" data-name="Rectangle 601" width="9.847" height="0.469" rx="0.235" transform="translate(1049.217 2120.721)" fill="#526279" stroke="#526279" stroke-width="0.2"/>
      <g id="Group_2967" data-name="Group 2967" transform="translate(1039.413 2116.651)">
        <path id="Path_3607" data-name="Path 3607" d="M1143.05,2415.43h-5.378a1.185,1.185,0,0,1-1.184-1.184v-2.171a1.185,1.185,0,0,1,1.184-1.184h5.378a1.185,1.185,0,0,1,1.184,1.184v2.171A1.185,1.185,0,0,1,1143.05,2415.43Zm-5.378-3.56a.2.2,0,0,0-.2.2v2.171a.2.2,0,0,0,.2.2h5.378a.2.2,0,0,0,.2-.2v-2.171a.2.2,0,0,0-.2-.2Z" transform="translate(-1136.488 -2410.891)" fill="#526279" stroke="#526279" stroke-width="0.5"/>
      </g>
    </g>
    <g id="Group_2970" data-name="Group 2970" transform="translate(3 56.422)">
      <g id="Group_2968" data-name="Group 2968" transform="translate(-46 2201)">
        <rect id="Rectangle_602" data-name="Rectangle 602" width="27" height="25" rx="1.605" transform="translate(378 243)" fill="none" stroke="#526279" stroke-linecap="round" stroke-linejoin="round" stroke-width="1.5"/>
        <line id="Line_61" data-name="Line 61" y2="4" transform="translate(383 255)" fill="none" stroke="#526279" stroke-linecap="round" stroke-linejoin="round" stroke-width="1.5"/>
        <path id="Path_3608" data-name="Path 3608" d="M381.851,258.725l1.8-1.8,1.8,1.8" transform="translate(-0.627 -2.266)" fill="none" stroke="#526279" stroke-linecap="round" stroke-linejoin="round" stroke-width="1.5"/>
        <line id="Line_62" data-name="Line 62" x2="8" transform="translate(381 265)" fill="none" stroke="#526279" stroke-linecap="round" stroke-linejoin="round" stroke-width="1.5"/>
        <line id="Line_63" data-name="Line 63" x2="10" transform="translate(381 262)" fill="none" stroke="#526279" stroke-linecap="round" stroke-linejoin="round" stroke-width="1.5"/>
        <path id="Path_3609" data-name="Path 3609" d="M397.373,251.373l-2.512-1.675-1.675,1.675-1.675-1.675L389,251.373V243h8.373Z" transform="translate(-1.79)" fill="none" stroke="#526279" stroke-linecap="round" stroke-linejoin="round" stroke-width="1.5"/>
      </g>
      <g id="Group_2969" data-name="Group 2969" transform="translate(-161.34 50.063)">
        <path id="Path_1157" data-name="Path 1157" d="M933.053,320.62c2.786,0,5.051,1.367,5.15,3.074h.018c.1-1.708,2.363-3.074,5.15-3.074s5.051,1.367,5.149,3.074h.065c.1-1.708,2.363-3.074,5.15-3.074s5.051,1.367,5.149,3.074h.009a15.5,15.5,0,1,0-31,0h.009C928,321.987,930.267,320.62,933.053,320.62Z" transform="translate(-436.555 2055.622)" fill="none" stroke="#526279" stroke-linecap="round" stroke-width="1.5"/>
        <path id="Path_1158" data-name="Path 1158" d="M938.238,325.774l1.31,14.268-10.686-14.62" transform="translate(-436.652 2053.895)" fill="none" stroke="#526279" stroke-linecap="round" stroke-miterlimit="10" stroke-width="1.5" stroke-dasharray="0.5 2"/>
        <path id="Path_1159" data-name="Path 1159" d="M950.646,325.9l-.866,14.19,10.94-14.19" transform="translate(-438.75 2053.847)" fill="none" stroke="#526279" stroke-linecap="round" stroke-miterlimit="10" stroke-width="1.5" stroke-dasharray="0.5 2"/>
      </g>
    </g>
    <path id="Path_4472" data-name="Path 4472" d="M0,0H209" transform="translate(872.963 2304.838)" fill="none" stroke="#cccdd7" stroke-linecap="round" stroke-width="3" stroke-dasharray="1 10"/>
    <g transform="matrix(1, 0, 0, 1, 165, 1961.11)" filter="url(#Path_4466)">
      <path id="Path_4466-2" data-name="Path 4466" d="M5.669,0H64.331A5.669,5.669,0,0,1,70,5.669V64.331A5.669,5.669,0,0,1,64.331,70H5.669A5.669,5.669,0,0,1,0,64.331V5.669A5.669,5.669,0,0,1,5.669,0Z" transform="translate(898 307.99)" fill="#fff" stroke="#b4bbc6" stroke-width="1"/>
    </g>
    <text id="SYSPRO" transform="translate(1098.039 2255.675)" fill="#b4bbc6" font-size="14" font-family="Roboto-Medium, Roboto" font-weight="500" opacity="0.604"><tspan x="-27.022" y="0">SYSPRO</tspan></text>
    <g id="layer1" transform="translate(1066.539 2288.313)">
      <g id="g291" transform="translate(0.5 0.5)">
        <path id="path113" d="M2.836,37.307.5,39.643H5.171V37.307Z" transform="translate(-0.5 -23.292)" fill="#007fa3"/>
        <path id="path119" d="M8.971,31.171h2.336v2.336H6.636Z" transform="translate(-4.3 -19.493)" fill="#84bd00"/>
        <path id="path123" d="M29.71,31.171v9.343l-4.671,4.671V40.514h2.335V33.507Z" transform="translate(-15.696 -19.493)" fill="#509e2f"/>
        <path id="path127" d="M6.635,54.246V49.575H8.97v2.336h2.335v2.336Z" transform="translate(-4.299 -30.889)" fill="#007fa3"/>
        <path id="path129" d="M18.9,18.9h2.336v2.335H18.9Z" transform="translate(-11.896 -11.896)" fill="#007fa3"/>
        <path id="path131" d="M25.037,12.768h2.336V15.1H25.037Z" transform="translate(-15.694 -8.097)" fill="#84bd00"/>
        <path id="path133" d="M18.9.5h2.336V2.836H18.9Z" transform="translate(-11.896 -0.5)" fill="#00c3de"/>
        <path id="path137" d="M7.508,45.779H2.837v4.672H7.508V45.779Zm2.335,7H.5V43.44H7.508v2.336H9.843v7.007" transform="translate(-0.501 -27.09)" fill="#00c3de"/>
        <path id="path141" d="M29.71,31.171l-2.336,2.336H25.039V31.171Z" transform="translate(-15.696 -19.493)" fill="#84bd00"/>
        <path id="path153" d="M51.655,31.26l1.807,3.566c.01,0,.017,0,.019.009L55.3,31.26c.045-.084.077-.1.235-.1h1.078c.155,0,.139.122.078.236l-2.537,4.787v3.974a.177.177,0,0,1-.176.174h-1a.176.176,0,0,1-.176-.174V36.19l-2.54-4.79c-.062-.114-.078-.236.078-.236H51.42c.159,0,.19.011.235.1m27.25,9.076H77.746c-.06,0-.1,0-.168-.12l-2.3-3.964H74.012v3.911a.178.178,0,0,1-.176.174h-1a.177.177,0,0,1-.176-.174V31.339a.177.177,0,0,1,.176-.175h3.622a2.11,2.11,0,0,1,2.365,2.127V34.1a2.041,2.041,0,0,1-2.051,2.128L78.983,40.1c.062.113.078.235-.078.235m-2.643-5.259c.827,0,1.279-.34,1.279-1.113v-.51c0-.774-.452-1.114-1.279-1.114h-2.25v2.737ZM69,31.164H65.373a.177.177,0,0,0-.176.175v8.823a.177.177,0,0,0,.176.174h1a.178.178,0,0,0,.177-.174V36.269h2.419a2.141,2.141,0,0,0,2.411-2.158v-.8A2.129,2.129,0,0,0,69,31.164m1.039,2.805c0,.768-.449,1.105-1.269,1.105H66.539V32.36H68.77c.821,0,1.269.338,1.269,1.105Zm16.7-.37v4.27c0,1.629-1.261,2.543-3.1,2.543-1.858,0-3.118-.914-3.118-2.543V33.6c0-1.592,1.262-2.5,3.118-2.5s3.1.913,3.1,2.5m-1.315.178c0-1.292-1.111-1.516-1.788-1.516-.694,0-1.8.224-1.8,1.516V37.73c0,1.292,1.11,1.516,1.8,1.516.677,0,1.788-.223,1.788-1.516ZM46.714,39.163c.717,0,1.772-.179,1.772-1.55,0-.6-.426-1.117-1.836-1.493-2.6-.693-2.838-1.7-2.838-2.666.016-1.424,1.307-2.331,2.926-2.331a3.592,3.592,0,0,1,2.729,1.094c.139.148.211.242.055.349l-.745.544c-.152.121-.18.064-.356-.1a2.072,2.072,0,0,0-1.683-.668c-1.047,0-1.557.5-1.557,1.11,0,.678.134.969,1.886,1.507,1.593.488,2.787,1.162,2.787,2.638,0,1.836-1.122,2.785-3.116,2.785a4.083,4.083,0,0,1-3.085-1.368c-.113-.129-.148-.273.072-.407l.615-.376a.317.317,0,0,1,.422.055,2.578,2.578,0,0,0,1.951.874m13.73,0c.717,0,1.772-.179,1.772-1.55,0-.6-.426-1.117-1.836-1.493-2.6-.693-2.837-1.7-2.837-2.666.016-1.424,1.306-2.331,2.925-2.331a3.593,3.593,0,0,1,2.73,1.094c.139.148.21.242.055.349l-.746.544c-.152.121-.18.064-.356-.1a2.07,2.07,0,0,0-1.682-.668c-1.047,0-1.556.5-1.556,1.11,0,.678.135.969,1.885,1.507,1.594.488,2.788,1.162,2.788,2.638,0,1.836-1.123,2.785-3.117,2.785a4.082,4.082,0,0,1-3.084-1.368c-.113-.129-.148-.273.071-.407l.615-.376a.318.318,0,0,1,.423.055,2.578,2.578,0,0,0,1.951.874" transform="translate(-27.167 -19.446)" fill="#007fa3"/>
        <path id="path161" d="M160.723,31.359h.362v-.182h-.932v.182h.359v1.055h.211Zm1.209,1.055.362-.956h.014l-.01.235v.721h.218V31.177H162.2l-.348.959-.336-.959H161.2v1.237h.2v-.738l-.01-.221h.014l.345.96Z" transform="translate(-99.363 -19.496)" fill="#007fa3"/>
      </g>
    </g>
  </g>
</svg>
