<svg xmlns="http://www.w3.org/2000/svg" xmlns:xlink="http://www.w3.org/1999/xlink" width="499.074" height="853.504" viewBox="0 0 499.074 853.504">
  <defs>
    <filter id="Path_4526" x="0" y="192.111" width="499.074" height="499.074" filterUnits="userSpaceOnUse">
      <feOffset dy="20" input="SourceAlpha"/>
      <feGaussianBlur stdDeviation="49.5" result="blur"/>
      <feFlood flood-color="#3c485a" flood-opacity="0.149"/>
      <feComposite operator="in" in2="blur"/>
      <feComposite in="SourceGraphic"/>
    </filter>
    <filter id="Path_4766" x="74.289" y="0" width="348" height="348" filterUnits="userSpaceOnUse">
      <feOffset dy="5" input="SourceAlpha"/>
      <feGaussianBlur stdDeviation="49.5" result="blur-2"/>
      <feFlood flood-color="#3c485a" flood-opacity="0.102"/>
      <feComposite operator="in" in2="blur-2"/>
      <feComposite in="SourceGraphic"/>
    </filter>
    <filter id="Path_4768" x="74.146" y="504.723" width="348.781" height="348.781" filterUnits="userSpaceOnUse">
      <feOffset dy="5" input="SourceAlpha"/>
      <feGaussianBlur stdDeviation="49.5" result="blur-3"/>
      <feFlood flood-color="#3c485a" flood-opacity="0.102"/>
      <feComposite operator="in" in2="blur-3"/>
      <feComposite in="SourceGraphic"/>
    </filter>
  </defs>
  <g id="Group_3558" data-name="Group 3558" transform="translate(89.026 -1562.26)">
    <path id="Path_4527" data-name="Path 4527" d="M0,0V102.834" transform="translate(159.702 1751.734)" fill="none" stroke="#cccdd7" stroke-linecap="round" stroke-width="3" stroke-dasharray="1 10"/>
    <path id="Path_4524" data-name="Path 4524" d="M0,0V102.834" transform="translate(158.823 2216.99) rotate(180)" fill="none" stroke="#cccdd7" stroke-linecap="round" stroke-width="3" stroke-dasharray="1 10"/>
    <path id="Path_4525" data-name="Path 4525" d="M130,0A130,130,0,1,1,0,130,130,130,0,0,1,130,0Z" transform="translate(290.261 1854.158) rotate(90)" fill="none" stroke="#d82125" stroke-linecap="round" stroke-width="3" stroke-dasharray="1 10"/>
    <g transform="matrix(1, 0, 0, 1, -89.03, 1562.26)" filter="url(#Path_4526)">
      <path id="Path_4526-2" data-name="Path 4526" d="M101.037,0A101.037,101.037,0,1,1,0,101.037,101.037,101.037,0,0,1,101.037,0Z" transform="translate(148.5 320.61)" fill="#fff"/>
    </g>
    <g id="Group_3147" data-name="Group 3147" transform="translate(109.478 1924.5)">
      <path id="Path_1150" data-name="Path 1150" d="M578.3,215.416c-.018.07-.034.141-.049.212a36.974,36.974,0,0,0,3.681,26.024c.187.336.386.662.574,1a2.826,2.826,0,0,1,.568,1.94,2.4,2.4,0,0,1-1.065,1.615,4.96,4.96,0,0,1-.93.33c-.364.065-.73.131-1.1.18a17.287,17.287,0,0,1-4.689-34.253c.047-.006.093-.009.138-.019a2.559,2.559,0,0,1,1.935.274,2.245,2.245,0,0,1,.937,2.7" transform="translate(-560.432 -161.591)" fill="#3d3d3d"/>
      <ellipse id="Ellipse_123" data-name="Ellipse 123" cx="32.264" cy="32.264" rx="32.264" ry="32.264" transform="translate(21.51 29.96)" fill="#d82225"/>
      <path id="Path_1151" data-name="Path 1151" d="M605.706,194.048c.713-.041.865-.023,1.589-.023a36.787,36.787,0,0,1,27.6,12.427,3.169,3.169,0,0,0,2.163,1.438,2.659,2.659,0,0,0,2.185-.757l.525-.446a21.891,21.891,0,1,0-36.7-16.118,4.336,4.336,0,0,0,.22,1.836,2.544,2.544,0,0,0,2.416,1.643" transform="translate(-553.521 -168.675)" fill="#262626"/>
      <path id="Path_1152" data-name="Path 1152" d="M637.76,242.273q.282.376.54.773A14.6,14.6,0,1,1,613.6,258.591c-.117-.192-.224-.39-.339-.585a1.949,1.949,0,0,1-.26-1.859,2.085,2.085,0,0,1,1.727-1.264,11.294,11.294,0,0,0,1.2-.324,36.888,36.888,0,0,0,17.74-11.4c.231-.268.447-.55.681-.816a2.41,2.41,0,0,1,1.085-.919,1.9,1.9,0,0,1,1.669.185A2.263,2.263,0,0,1,637.76,242.273Z" transform="translate(-551.93 -156.896)" fill="#3d3d3d"/>
    </g>
    <g transform="matrix(1, 0, 0, 1, -89.03, 1562.26)" filter="url(#Path_4766)">
      <path id="Path_4766-2" data-name="Path 4766" d="M5.669,0H44.331A5.669,5.669,0,0,1,50,5.669V44.331A5.669,5.669,0,0,1,44.331,50H5.669A5.669,5.669,0,0,1,0,44.331V5.669A5.669,5.669,0,0,1,5.669,0Z" transform="translate(223.29 144)" fill="#fff" stroke="#b4bbc6" stroke-width="1"/>
    </g>
    <g transform="matrix(1, 0, 0, 1, -89.03, 1562.26)" filter="url(#Path_4768)">
      <path id="Path_4768-2" data-name="Path 4768" d="M4.113,0H46.669a4.113,4.113,0,0,1,4.113,4.113V46.669a4.113,4.113,0,0,1-4.113,4.113H4.113A4.113,4.113,0,0,1,0,46.669V4.113A4.113,4.113,0,0,1,4.113,0Z" transform="translate(223.15 648.72)" fill="#fff" stroke="#b4bbc6" stroke-width="1"/>
    </g>
    <path id="Path_4769" data-name="Path 4769" d="M4.364,3.972H1.205V6.258H4.87V7.22H0V0H4.835V.967H1.205V3.005H4.364Zm2.728.253v3H5.886V0H8.554a2.858,2.858,0,0,1,1.87.546,1.906,1.906,0,0,1,.66,1.557,1.61,1.61,0,0,1-.29.965,1.991,1.991,0,0,1-.846.647,1.51,1.51,0,0,1,.878.632,2.035,2.035,0,0,1,.268,1.079v.6a2.433,2.433,0,0,0,.079.62.871.871,0,0,0,.268.461V7.22H10.2A.808.808,0,0,1,9.945,6.7a4.308,4.308,0,0,1-.057-.689v-.58a1.214,1.214,0,0,0-.317-.883A1.159,1.159,0,0,0,8.7,4.225Zm0-.967h1.4A1.635,1.635,0,0,0,9.546,2.98a1.043,1.043,0,0,0,.332-.848,1.122,1.122,0,0,0-.327-.855,1.4,1.4,0,0,0-1-.31H7.092Zm6.725,1.225V7.22H12.611V0h2.822A2.675,2.675,0,0,1,17.3.617a2.094,2.094,0,0,1,.677,1.624A2.09,2.09,0,0,1,17.3,3.871a2.689,2.689,0,0,1-1.872.612Zm0-.967h1.617a1.321,1.321,0,0,0,1.007-.357,1.269,1.269,0,0,0,.337-.908,1.3,1.3,0,0,0-.337-.917A1.3,1.3,0,0,0,15.433.967H13.816Z" transform="translate(150.713 2277.525)" fill="#b4bbc6"/>
    <g id="Group_3716" data-name="Group 3716" transform="translate(147.876 2225.93)">
      <path id="Path_3617" data-name="Path 3617" d="M21.751,0l1.517,3.541V5.564H0V3.541L1.517,0" transform="translate(0 15.324)" fill="none" stroke="#526279" stroke-linecap="round" stroke-linejoin="round" stroke-width="1.5"/>
      <path id="Path_3618" data-name="Path 3618" d="M0,2.023V1.012L1.012,0H4.068l.991,1.012V2.023" transform="translate(9.105 18.865)" fill="none" stroke="#526279" stroke-linecap="round" stroke-linejoin="round" stroke-width="1.5"/>
      <path id="Path_3619" data-name="Path 3619" d="M20.233,5.564v9.611H0V.5A.5.5,0,0,1,.5,0H14.669" transform="translate(1.517 0.149)" fill="none" stroke="#526279" stroke-linecap="round" stroke-linejoin="round" stroke-width="1.5"/>
      <path id="Path_3620" data-name="Path 3620" d="M0,9.611l6.576-6.07,5.058,1.517L16.692,0" transform="translate(5.058 0.149)" fill="none" stroke="#526279" stroke-linecap="round" stroke-linejoin="round" stroke-width="1.5"/>
      <line id="Line_64" data-name="Line 64" x1="2.902" transform="translate(18.889)" fill="none" stroke="#526279" stroke-linecap="round" stroke-linejoin="round" stroke-width="1.5"/>
      <line id="Line_65" data-name="Line 65" x2="0.004" y2="2.52" transform="translate(21.747 0.158)" fill="none" stroke="#526279" stroke-linecap="round" stroke-linejoin="round" stroke-width="1.5"/>
      <path id="Path_3621" data-name="Path 3621" d="M3.035,2.529V0H0V2.529" transform="translate(4.552 12.795)" fill="none" stroke="#526279" stroke-linecap="round" stroke-linejoin="round" stroke-width="1.5"/>
      <path id="Path_3622" data-name="Path 3622" d="M3.035,4.047V0H0V4.047" transform="translate(10.117 11.278)" fill="none" stroke="#526279" stroke-linecap="round" stroke-linejoin="round" stroke-width="1.5"/>
      <path id="Path_3623" data-name="Path 3623" d="M3.035,6.07V0H0V6.07" transform="translate(15.681 9.254)" fill="none" stroke="#526279" stroke-linecap="round" stroke-linejoin="round" stroke-width="1.5"/>
    </g>
    <path id="Path_4780" data-name="Path 4780" d="M-35.706,0V-7.109h2.363a3.075,3.075,0,0,1,1.846.486,1.684,1.684,0,0,1,.664,1.453,1.428,1.428,0,0,1-.278.864,1.644,1.644,0,0,1-.771.566,1.585,1.585,0,0,1,.977.61,1.8,1.8,0,0,1,.342,1.089A1.827,1.827,0,0,1-31.218-.52,2.831,2.831,0,0,1-33.025,0Zm1.187-3.232V-.947h1.494a1.427,1.427,0,0,0,.947-.281,1,1,0,0,0,.332-.813,1.277,1.277,0,0,0-.278-.879,1.107,1.107,0,0,0-.869-.312Zm0-.884h1.309a1.338,1.338,0,0,0,.872-.261.9.9,0,0,0,.32-.74.922.922,0,0,0-.337-.784,1.61,1.61,0,0,0-.986-.256h-1.177ZM-24.822,0h-4.722V-.815l2.314-2.524a5.618,5.618,0,0,0,.781-1.018,1.633,1.633,0,0,0,.215-.779,1.182,1.182,0,0,0-.278-.8.943.943,0,0,0-.752-.322,1.158,1.158,0,0,0-.928.352,1.433,1.433,0,0,0-.3.967h-1.147l-.01-.029a2.089,2.089,0,0,1,.62-1.594,2.383,2.383,0,0,1,1.768-.647,2.256,2.256,0,0,1,1.621.566,1.948,1.948,0,0,1,.6,1.479A2.186,2.186,0,0,1-25.391-4a9.833,9.833,0,0,1-1.067,1.353L-28.04-.977l.015.029h3.2Zm1.206,0V-7.109h2.363a3.075,3.075,0,0,1,1.846.486,1.684,1.684,0,0,1,.664,1.453,1.428,1.428,0,0,1-.278.864,1.644,1.644,0,0,1-.771.566,1.585,1.585,0,0,1,.977.61,1.8,1.8,0,0,1,.342,1.089A1.827,1.827,0,0,1-19.128-.52,2.831,2.831,0,0,1-20.935,0Zm1.187-3.232V-.947h1.494a1.427,1.427,0,0,0,.947-.281,1,1,0,0,0,.332-.813,1.277,1.277,0,0,0-.278-.879,1.107,1.107,0,0,0-.869-.312Zm0-.884h1.309a1.338,1.338,0,0,0,.872-.261.9.9,0,0,0,.32-.74.922.922,0,0,0-.337-.784,1.61,1.61,0,0,0-.986-.256h-1.177ZM-9.861-6.157h-2.148V0H-13.2V-6.157h-2.148v-.952h5.483Zm3.066,1.943-.508-.02a1.064,1.064,0,0,0-.579.146.965.965,0,0,0-.359.415V0H-9.426V-5.283h1.084l.078.767a1.694,1.694,0,0,1,.515-.635,1.2,1.2,0,0,1,.725-.229,1.106,1.106,0,0,1,.2.017,1.462,1.462,0,0,1,.171.042ZM-2.786,0q-.063-.2-.1-.391a2.792,2.792,0,0,1-.056-.381,2.1,2.1,0,0,1-.642.623A1.633,1.633,0,0,1-4.48.1,1.756,1.756,0,0,1-5.747-.322a1.543,1.543,0,0,1-.442-1.167,1.378,1.378,0,0,1,.605-1.194,2.924,2.924,0,0,1,1.7-.427h.923v-.464A.858.858,0,0,0-3.2-4.224a.968.968,0,0,0-.7-.234.989.989,0,0,0-.645.2.62.62,0,0,0-.239.5H-5.925l0-.029A1.309,1.309,0,0,1-5.371-4.9a2.369,2.369,0,0,1,1.545-.483,2.26,2.26,0,0,1,1.489.469A1.65,1.65,0,0,1-1.77-3.564v2.349a4.331,4.331,0,0,0,.044.627A3.332,3.332,0,0,0-1.584,0ZM-4.241-.85a1.492,1.492,0,0,0,.808-.225,1.131,1.131,0,0,0,.476-.513v-.781H-3.9a1.19,1.19,0,0,0-.811.256.779.779,0,0,0-.293.6.615.615,0,0,0,.2.481A.814.814,0,0,0-4.241-.85Zm3.5-1.719A3.484,3.484,0,0,1-.2-4.607a1.753,1.753,0,0,1,1.523-.774,1.666,1.666,0,0,1,.769.173,1.74,1.74,0,0,1,.588.5V-7.617H3.865V0h-1L2.751-.654a1.746,1.746,0,0,1-.61.564A1.718,1.718,0,0,1,1.311.1,1.8,1.8,0,0,1-.2-.605a2.979,2.979,0,0,1-.542-1.86Zm1.187.1A2.128,2.128,0,0,0,.723-1.3a.983.983,0,0,0,.891.435,1.191,1.191,0,0,0,.637-.161,1.227,1.227,0,0,0,.427-.459v-2.3a1.249,1.249,0,0,0-.43-.457,1.162,1.162,0,0,0-.625-.164A.957.957,0,0,0,.73-3.9,2.692,2.692,0,0,0,.442-2.568ZM7.4.1a2.3,2.3,0,0,1-1.79-.735A2.7,2.7,0,0,1,4.949-2.52v-.2A2.8,2.8,0,0,1,5.61-4.626a2.093,2.093,0,0,1,1.658-.754,2.065,2.065,0,0,1,1.638.647A2.535,2.535,0,0,1,9.475-3v.7h-3.3l-.01.024a1.664,1.664,0,0,0,.369,1.03,1.166,1.166,0,0,0,.94.4A2.541,2.541,0,0,0,8.3-.962,2.688,2.688,0,0,0,8.958-1.3l.381.776a2.458,2.458,0,0,1-.791.444A3.314,3.314,0,0,1,7.4.1ZM7.268-4.429a.89.89,0,0,0-.723.349,1.719,1.719,0,0,0-.352.886l.01.024H8.3v-.122a1.264,1.264,0,0,0-.256-.82A.936.936,0,0,0,7.268-4.429Zm9.658,2.6a.916.916,0,0,0-.33-.728,3.1,3.1,0,0,0-1.165-.508A4.926,4.926,0,0,1,13.6-3.889a1.648,1.648,0,0,1-.642-1.35,1.724,1.724,0,0,1,.71-1.416A2.885,2.885,0,0,1,15.5-7.212a2.733,2.733,0,0,1,1.882.63,1.88,1.88,0,0,1,.686,1.514l-.01.029H16.921a1.145,1.145,0,0,0-.371-.886,1.515,1.515,0,0,0-1.06-.339,1.549,1.549,0,0,0-1,.283.9.9,0,0,0-.349.732.8.8,0,0,0,.378.674,4.19,4.19,0,0,0,1.252.508,4.171,4.171,0,0,1,1.743.85,1.786,1.786,0,0,1,.6,1.382A1.668,1.668,0,0,1,17.4-.422,3.068,3.068,0,0,1,15.535.1a3.318,3.318,0,0,1-1.953-.588A1.809,1.809,0,0,1,12.766-2.1l.01-.029h1.143a1.111,1.111,0,0,0,.449.969,1.967,1.967,0,0,0,1.167.32,1.719,1.719,0,0,0,1.025-.266A.844.844,0,0,0,16.926-1.826Zm3.76-4.741v1.284h.947V-4.4h-.947v2.92a.637.637,0,0,0,.142.466.513.513,0,0,0,.376.139,1.049,1.049,0,0,0,.19-.017,1.157,1.157,0,0,0,.176-.046l.127.869a1.361,1.361,0,0,1-.361.129A2.009,2.009,0,0,1,20.9.1a1.361,1.361,0,0,1-1.025-.383,1.679,1.679,0,0,1-.371-1.2V-4.4H18.7v-.879H19.5V-6.567ZM22.468-2.69a2.878,2.878,0,0,1,.645-1.934,2.222,2.222,0,0,1,1.772-.757,2.216,2.216,0,0,1,1.782.757,2.853,2.853,0,0,1,.649,1.934v.1a2.867,2.867,0,0,1-.649,1.943A2.218,2.218,0,0,1,24.9.1a2.231,2.231,0,0,1-1.782-.752,2.874,2.874,0,0,1-.645-1.938Zm1.187.1a2.359,2.359,0,0,0,.3,1.26,1.021,1.021,0,0,0,.938.483,1.026,1.026,0,0,0,.928-.483,2.3,2.3,0,0,0,.313-1.26v-.1a2.271,2.271,0,0,0-.312-1.245,1.029,1.029,0,0,0-.937-.493,1.021,1.021,0,0,0-.928.493,2.344,2.344,0,0,0-.3,1.245Zm7.329-1.626-.508-.02a1.064,1.064,0,0,0-.579.146.965.965,0,0,0-.359.415V0H28.352V-5.283h1.084l.078.767a1.694,1.694,0,0,1,.515-.635,1.2,1.2,0,0,1,.725-.229,1.106,1.106,0,0,1,.2.017,1.462,1.462,0,0,1,.171.042ZM34.08.1a2.3,2.3,0,0,1-1.79-.735,2.7,2.7,0,0,1-.667-1.887v-.2a2.8,2.8,0,0,1,.662-1.912,2.093,2.093,0,0,1,1.658-.754,2.065,2.065,0,0,1,1.638.647A2.535,2.535,0,0,1,36.15-3v.7h-3.3l-.01.024a1.664,1.664,0,0,0,.369,1.03,1.166,1.166,0,0,0,.94.4,2.541,2.541,0,0,0,.82-.117,2.688,2.688,0,0,0,.659-.337l.381.776a2.458,2.458,0,0,1-.791.444A3.314,3.314,0,0,1,34.08.1Zm-.137-4.531a.89.89,0,0,0-.723.349,1.719,1.719,0,0,0-.352.886l.01.024h2.095v-.122a1.264,1.264,0,0,0-.256-.82A.936.936,0,0,0,33.943-4.429Z" transform="translate(159.041 1693.282)" fill="#b4bbc6"/>
    <g id="Group_3729" data-name="Group 3729" transform="translate(145.826 1716.257)">
      <path id="Path_1150-2" data-name="Path 1150" d="M565.491,213.227c-.005.02-.01.04-.014.06a10.471,10.471,0,0,0,1.042,7.369c.053.1.109.188.163.282a.8.8,0,0,1,.161.549.679.679,0,0,1-.3.457,1.406,1.406,0,0,1-.263.093c-.1.018-.207.037-.312.051a4.9,4.9,0,0,1-1.328-9.7l.039-.005a.725.725,0,0,1,.548.078.636.636,0,0,1,.265.764" transform="translate(-560.433 -197.986)" fill="#3d3d3d"/>
      <ellipse id="Ellipse_123-2" data-name="Ellipse 123" cx="9.136" cy="9.136" rx="9.136" ry="9.136" transform="translate(6.09 8.484)" fill="#d82225"/>
      <path id="Path_1151-2" data-name="Path 1151" d="M603.8,175.86c.2-.012.245-.007.45-.007a10.417,10.417,0,0,1,7.817,3.519.9.9,0,0,0,.612.407.753.753,0,0,0,.619-.214l.149-.126a6.2,6.2,0,1,0-10.393-4.564,1.227,1.227,0,0,0,.062.52.72.72,0,0,0,.684.465" transform="translate(-589.028 -168.675)" fill="#262626"/>
      <path id="Path_1152-2" data-name="Path 1152" d="M619.913,241.584q.08.107.153.219a4.133,4.133,0,1,1-7,4.4c-.033-.054-.064-.111-.1-.166a.552.552,0,0,1-.074-.527.591.591,0,0,1,.489-.358,3.2,3.2,0,0,0,.34-.092,10.445,10.445,0,0,0,5.024-3.228c.065-.076.127-.156.193-.231a.682.682,0,0,1,.307-.26.536.536,0,0,1,.473.052A.641.641,0,0,1,619.913,241.584Z" transform="translate(-595.609 -217.408)" fill="#3d3d3d"/>
    </g>
  </g>
</svg>
