<svg xmlns="http://www.w3.org/2000/svg" xmlns:xlink="http://www.w3.org/1999/xlink" width="958.928" height="522.615" viewBox="0 0 958.928 522.615">
  <defs>
    <filter id="Path_4453" x="218.336" y="0" width="522.615" height="522.615" filterUnits="userSpaceOnUse">
      <feOffset dy="20" input="SourceAlpha"/>
      <feGaussianBlur stdDeviation="49.5" result="blur"/>
      <feFlood flood-color="#3c485a" flood-opacity="0.149"/>
      <feComposite operator="in" in2="blur"/>
      <feComposite in="SourceGraphic"/>
    </filter>
    <filter id="Path_4454" x="0" y="62.648" width="368" height="368" filterUnits="userSpaceOnUse">
      <feOffset dy="5" input="SourceAlpha"/>
      <feGaussianBlur stdDeviation="49.5" result="blur-2"/>
      <feFlood flood-color="#3c485a" flood-opacity="0.102"/>
      <feComposite operator="in" in2="blur-2"/>
      <feComposite in="SourceGraphic"/>
    </filter>
    <filter id="Path_4455" x="590.928" y="63.029" width="368" height="368" filterUnits="userSpaceOnUse">
      <feOffset dy="5" input="SourceAlpha"/>
      <feGaussianBlur stdDeviation="49.5" result="blur-3"/>
      <feFlood flood-color="#3c485a" flood-opacity="0.102"/>
      <feComposite operator="in" in2="blur-3"/>
      <feComposite in="SourceGraphic"/>
    </filter>
  </defs>
  <g id="Group_3575" data-name="Group 3575" transform="translate(-242.328 -1366.336)">
    <path id="Path_4456" data-name="Path 4456" d="M0,0H128" transform="translate(448.828 1608.725)" fill="none" stroke="#cccdd7" stroke-linecap="round" stroke-width="3" stroke-dasharray="1 10"/>
    <path id="Path_4457" data-name="Path 4457" d="M0,0H128" transform="translate(994.823 1608.244) rotate(180)" fill="none" stroke="#cccdd7" stroke-linecap="round" stroke-width="3" stroke-dasharray="1 10"/>
    <path id="Path_4452" data-name="Path 4452" d="M145.144,0A145.144,145.144,0,1,1,0,145.144,145.144,145.144,0,0,1,145.144,0Z" transform="translate(576.828 1462.5)" fill="none" stroke="#d82125" stroke-linecap="round" stroke-width="3" stroke-dasharray="1 10"/>
    <g transform="matrix(1, 0, 0, 1, 242.33, 1366.34)" filter="url(#Path_4453)">
      <path id="Path_4453-2" data-name="Path 4453" d="M112.808,0A112.808,112.808,0,1,1,0,112.808,112.808,112.808,0,0,1,112.808,0Z" transform="translate(366.84 128.5)" fill="#fff"/>
    </g>
    <g id="Group_3109" data-name="Group 3109" transform="translate(664.992 1541.316)">
      <path id="Path_1150" data-name="Path 1150" d="M580.378,215.772c-.02.078-.038.157-.055.236a41.281,41.281,0,0,0,4.109,29.056c.209.375.431.74.641,1.113a3.156,3.156,0,0,1,.635,2.166,2.678,2.678,0,0,1-1.189,1.8,5.537,5.537,0,0,1-1.038.368c-.406.073-.815.147-1.229.2a19.3,19.3,0,0,1-5.236-38.244c.052-.006.1-.01.154-.021a2.858,2.858,0,0,1,2.16.306,2.506,2.506,0,0,1,1.046,3.014" transform="translate(-560.432 -155.676)" fill="#3d3d3d"/>
      <ellipse id="Ellipse_123" data-name="Ellipse 123" cx="36.023" cy="36.023" rx="36.023" ry="36.023" transform="translate(24.016 33.45)" fill="#d82225"/>
      <path id="Path_1151" data-name="Path 1151" d="M606.015,197c.8-.045.965-.026,1.774-.026a41.072,41.072,0,0,1,30.821,13.875,3.538,3.538,0,0,0,2.415,1.605,2.969,2.969,0,0,0,2.439-.845l.587-.5a24.442,24.442,0,1,0-40.978-18,4.842,4.842,0,0,0,.245,2.05,2.84,2.84,0,0,0,2.7,1.835" transform="translate(-547.751 -168.675)" fill="#262626"/>
      <path id="Path_1152" data-name="Path 1152" d="M640.66,242.385q.315.42.6.863A16.3,16.3,0,1,1,613.68,260.6c-.131-.214-.25-.436-.379-.653a2.176,2.176,0,0,1-.291-2.076,2.328,2.328,0,0,1,1.928-1.412,12.615,12.615,0,0,0,1.34-.362,41.185,41.185,0,0,0,19.807-12.728c.258-.3.5-.614.76-.911a2.69,2.69,0,0,1,1.212-1.026,2.115,2.115,0,0,1,1.863.206A2.526,2.526,0,0,1,640.66,242.385Z" transform="translate(-544.832 -147.062)" fill="#3d3d3d"/>
    </g>
    <g transform="matrix(1, 0, 0, 1, 242.33, 1366.34)" filter="url(#Path_4454)">
      <path id="Path_4454-2" data-name="Path 4454" d="M5.669,0H64.331A5.669,5.669,0,0,1,70,5.669V64.331A5.669,5.669,0,0,1,64.331,70H5.669A5.669,5.669,0,0,1,0,64.331V5.669A5.669,5.669,0,0,1,5.669,0Z" transform="translate(149 206.65)" fill="#fff" stroke="#b4bbc6" stroke-width="1"/>
    </g>
    <g transform="matrix(1, 0, 0, 1, 242.33, 1366.34)" filter="url(#Path_4455)">
      <path id="Path_4455-2" data-name="Path 4455" d="M5.669,0H64.331A5.669,5.669,0,0,1,70,5.669V64.331A5.669,5.669,0,0,1,64.331,70H5.669A5.669,5.669,0,0,1,0,64.331V5.669A5.669,5.669,0,0,1,5.669,0Z" transform="translate(739.93 207.03)" fill="#fff" stroke="#b4bbc6" stroke-width="1"/>
    </g>
    <text id="B2B_Trade_Store" data-name="B2B Trade Store" transform="translate(426 1560)" fill="#b4bbc6" font-size="14" font-family="Roboto-Medium, Roboto" font-weight="500"><tspan x="-51.075" y="0">B2B Trade Store</tspan></text>
    <g id="Group_3613" data-name="Group 3613" transform="translate(916.115 800.797)">
      <g id="Group_2978" data-name="Group 2978" transform="translate(97.586 795.423)">
        <path id="Path_3624" data-name="Path 3624" d="M128.49,802.513a3.756,3.756,0,1,0,3.756,3.756A3.76,3.76,0,0,0,128.49,802.513Zm0,6.35a2.594,2.594,0,1,1,2.594-2.594A2.6,2.6,0,0,1,128.49,808.863Z" transform="translate(-124.734 -802.513)" fill="#526279" stroke="#526279" stroke-width="0.5"/>
      </g>
      <g id="Group_2979" data-name="Group 2979" transform="translate(106.701 801.773)">
        <path id="Path_3625" data-name="Path 3625" d="M152.268,820.481h-1.162a.581.581,0,0,0,0,1.162h1.162a.581.581,0,1,0,0-1.162Z" transform="translate(-150.525 -820.481)" fill="#526279" stroke="#526279" stroke-width="0.5"/>
      </g>
      <g id="Group_2980" data-name="Group 2980" transform="translate(110.768 801.773)">
        <path id="Path_3626" data-name="Path 3626" d="M163.777,820.481h-1.162a.581.581,0,0,0,0,1.162h1.162a.581.581,0,1,0,0-1.162Z" transform="translate(-162.034 -820.481)" fill="#526279" stroke="#526279" stroke-width="0.5"/>
      </g>
      <g id="Group_2981" data-name="Group 2981" transform="translate(89.591 801.773)">
        <path id="Path_3627" data-name="Path 3627" d="M103.854,820.481h-1.162a.581.581,0,1,0,0,1.162h1.162a.581.581,0,1,0,0-1.162Z" transform="translate(-102.111 -820.481)" fill="#526279" stroke="#526279" stroke-width="0.5"/>
      </g>
      <g id="Group_2982" data-name="Group 2982" transform="translate(93.658 801.773)">
        <path id="Path_3628" data-name="Path 3628" d="M115.363,820.481H114.2a.581.581,0,1,0,0,1.162h1.162a.581.581,0,1,0,0-1.162Z" transform="translate(-113.62 -820.481)" fill="#526279" stroke="#526279" stroke-width="0.5"/>
      </g>
      <g id="Group_2983" data-name="Group 2983" transform="translate(92.442 817.87)">
        <path id="Path_3629" data-name="Path 3629" d="M117.916,866.03H110.76a.581.581,0,0,0-.581.581V872.5a.581.581,0,0,0,.581.581h7.156a.581.581,0,0,0,.581-.581v-5.893A.581.581,0,0,0,117.916,866.03Zm-.581,5.893h-5.994v-4.731h2.416v.914a.581.581,0,0,0,1.162,0v-.914h2.416Z" transform="translate(-110.179 -866.03)" fill="#526279" stroke="#526279" stroke-width="0.5"/>
      </g>
      <g id="Group_2984" data-name="Group 2984" transform="translate(101.923 817.87)">
        <path id="Path_3630" data-name="Path 3630" d="M144.742,866.03h-7.156a.581.581,0,0,0-.581.581V872.5a.581.581,0,0,0,.581.581h7.156a.581.581,0,0,0,.581-.581v-5.893A.581.581,0,0,0,144.742,866.03Zm-.581,5.893h-5.993v-4.731h2.416v.914a.581.581,0,0,0,1.162,0v-.914h2.416Z" transform="translate(-137.005 -866.03)" fill="#526279" stroke="#526279" stroke-width="0.5"/>
      </g>
      <g id="Group_2985" data-name="Group 2985" transform="translate(101.923 809.817)">
        <path id="Path_3631" data-name="Path 3631" d="M144.742,843.244h-7.156a.581.581,0,0,0-.581.581v5.893a.581.581,0,0,0,.581.581h7.156a.581.581,0,0,0,.581-.581v-5.893A.581.581,0,0,0,144.742,843.244Zm-.581,5.893h-5.993v-4.731h2.416v.914a.581.581,0,0,0,1.162,0v-.914h2.416Z" transform="translate(-137.005 -843.244)" fill="#526279" stroke="#526279" stroke-width="0.5"/>
      </g>
      <g id="Group_2986" data-name="Group 2986" transform="translate(82.748 791.548)">
        <path id="Path_3632" data-name="Path 3632" d="M119.357,826.16h-1.4V802.449l1.106.642a.581.581,0,1,0,.583-1.005l-18.013-10.46a.582.582,0,0,0-.583,0l-18.013,10.46a.581.581,0,0,0,.583,1.005l1.111-.645V826.16h-1.4a.581.581,0,1,0,0,1.162h36.025a.581.581,0,1,0,0-1.162Zm-27.94,0V808.583h19.851V826.16Zm-1.825-18.739v-1.743h23.5v1.743Zm22.838,18.739V808.583h1.244a.581.581,0,0,0,.581-.581V805.1a.581.581,0,0,0-.581-.581H89.01a.581.581,0,0,0-.581.581V808a.581.581,0,0,0,.581.581h1.244V826.16H85.894V801.771l15.448-8.971,15.452,8.973V826.16Z" transform="translate(-82.748 -791.548)" fill="#526279" stroke="#526279" stroke-width="0.5"/>
      </g>
    </g>
    <path id="Path_4690" data-name="Path 4690" d="M-31.75-2.652v.014l.007-.034,1.989-7.28h1.326l2.01,7.3.007.048.007-.068,1.572-7.28H-23.2L-25.563,0h-1.511l-1.989-7.144H-29.1L-31.1,0h-1.518l-2.358-9.953h1.634ZM-17.777,0q-.089-.28-.147-.547A3.909,3.909,0,0,1-18-1.08a2.935,2.935,0,0,1-.9.872,2.287,2.287,0,0,1-1.248.352,2.459,2.459,0,0,1-1.774-.595,2.16,2.16,0,0,1-.619-1.634,1.93,1.93,0,0,1,.848-1.671,4.093,4.093,0,0,1,2.386-.6h1.292V-5a1.2,1.2,0,0,0-.342-.909,1.356,1.356,0,0,0-.978-.328,1.384,1.384,0,0,0-.9.273.868.868,0,0,0-.335.7h-1.6l-.007-.041A1.832,1.832,0,0,1-21.4-6.856a3.317,3.317,0,0,1,2.164-.677,3.164,3.164,0,0,1,2.085.656,2.31,2.31,0,0,1,.793,1.887V-1.7a6.064,6.064,0,0,0,.062.878A4.664,4.664,0,0,0-16.1,0Zm-2.037-1.189A2.088,2.088,0,0,0-18.683-1.5a1.583,1.583,0,0,0,.667-.718V-3.315h-1.319a1.666,1.666,0,0,0-1.135.359,1.09,1.09,0,0,0-.41.844.861.861,0,0,0,.277.673A1.14,1.14,0,0,0-19.814-1.189Zm8.887-4.71-.711-.027a1.49,1.49,0,0,0-.81.205,1.351,1.351,0,0,0-.5.581V0h-1.661V-7.4h1.518l.109,1.073a2.372,2.372,0,0,1,.721-.889,1.679,1.679,0,0,1,1.015-.321,1.548,1.548,0,0,1,.28.024,2.047,2.047,0,0,1,.239.058ZM-6.593.144A3.216,3.216,0,0,1-9.1-.885a3.782,3.782,0,0,1-.933-2.642V-3.8a3.927,3.927,0,0,1,.926-2.676A2.93,2.93,0,0,1-6.785-7.533a2.891,2.891,0,0,1,2.293.906,3.549,3.549,0,0,1,.8,2.43v.978H-8.309l-.014.034a2.329,2.329,0,0,0,.516,1.442,1.632,1.632,0,0,0,1.316.561,3.557,3.557,0,0,0,1.148-.164,3.763,3.763,0,0,0,.923-.472l.533,1.087a3.441,3.441,0,0,1-1.107.622A4.64,4.64,0,0,1-6.593.144ZM-6.785-6.2A1.246,1.246,0,0,0-7.8-5.711a2.407,2.407,0,0,0-.492,1.241l.014.034h2.933v-.171A1.77,1.77,0,0,0-5.7-5.756,1.31,1.31,0,0,0-6.785-6.2Zm6.07-.239a2.637,2.637,0,0,1,.9-.807,2.42,2.42,0,0,1,1.172-.287,2.329,2.329,0,0,1,1.835.742A3.366,3.366,0,0,1,3.852-4.5V0H2.191V-4.519a1.873,1.873,0,0,0-.349-1.265A1.332,1.332,0,0,0,.8-6.173a1.855,1.855,0,0,0-.872.2,1.792,1.792,0,0,0-.639.557V0H-2.375V-10.664H-.714ZM5.267-3.767a4.029,4.029,0,0,1,.9-2.707,3.111,3.111,0,0,1,2.481-1.06,3.1,3.1,0,0,1,2.5,1.06,3.994,3.994,0,0,1,.909,2.707v.144A4.014,4.014,0,0,1,11.146-.9,3.1,3.1,0,0,1,8.665.144a3.124,3.124,0,0,1-2.5-1.053,4.023,4.023,0,0,1-.9-2.714Zm1.661.144a3.3,3.3,0,0,0,.424,1.764,1.429,1.429,0,0,0,1.313.677,1.436,1.436,0,0,0,1.3-.677A3.221,3.221,0,0,0,10.4-3.623v-.144A3.18,3.18,0,0,0,9.963-5.51,1.441,1.441,0,0,0,8.651-6.2a1.429,1.429,0,0,0-1.3.69,3.282,3.282,0,0,0-.424,1.743ZM18.112-1.08a2.531,2.531,0,0,1-.882.906A2.357,2.357,0,0,1,16,.144,2.351,2.351,0,0,1,14.14-.615a3.5,3.5,0,0,1-.67-2.358V-7.4h1.654V-2.96a2.217,2.217,0,0,0,.314,1.36,1.148,1.148,0,0,0,.95.39A2.136,2.136,0,0,0,17.4-1.425a1.564,1.564,0,0,0,.639-.625V-7.4H19.7V0H18.249Zm7.479-.93a.772.772,0,0,0-.328-.636,3.273,3.273,0,0,0-1.224-.444,5.079,5.079,0,0,1-2.006-.8,1.669,1.669,0,0,1-.68-1.4,2,2,0,0,1,.786-1.586,3.126,3.126,0,0,1,2.071-.656,3.244,3.244,0,0,1,2.15.667,1.974,1.974,0,0,1,.762,1.651l-.014.041H25.515a1.042,1.042,0,0,0-.349-.786,1.34,1.34,0,0,0-.957-.328,1.369,1.369,0,0,0-.916.27.838.838,0,0,0-.314.66.74.74,0,0,0,.3.619,3.193,3.193,0,0,0,1.207.407,5.083,5.083,0,0,1,2.068.81A1.708,1.708,0,0,1,27.224-2.1,1.939,1.939,0,0,1,26.4-.479a3.51,3.51,0,0,1-2.17.622,3.313,3.313,0,0,1-2.276-.738,2.085,2.085,0,0,1-.793-1.7l.014-.041h1.545a1.108,1.108,0,0,0,.465.937A1.868,1.868,0,0,0,24.25-1.1a1.7,1.7,0,0,0,.991-.246A.772.772,0,0,0,25.59-2.01Zm6.3,2.153A3.216,3.216,0,0,1,29.381-.885a3.782,3.782,0,0,1-.933-2.642V-3.8a3.927,3.927,0,0,1,.926-2.676,2.93,2.93,0,0,1,2.321-1.056,2.891,2.891,0,0,1,2.293.906,3.549,3.549,0,0,1,.8,2.43v.978H30.17l-.014.034a2.329,2.329,0,0,0,.516,1.442,1.632,1.632,0,0,0,1.316.561,3.557,3.557,0,0,0,1.148-.164,3.763,3.763,0,0,0,.923-.472l.533,1.087a3.441,3.441,0,0,1-1.107.622A4.64,4.64,0,0,1,31.886.144ZM31.695-6.2a1.246,1.246,0,0,0-1.012.489,2.407,2.407,0,0,0-.492,1.241l.014.034h2.933v-.171a1.77,1.77,0,0,0-.359-1.148A1.31,1.31,0,0,0,31.695-6.2Z" transform="translate(1017 1560)" fill="#b4bbc6"/>
    <g id="Group_3619" data-name="Group 3619" transform="translate(405.962 1588.376)">
      <path id="Path_1150-2" data-name="Path 1150" d="M567.235,213.525c-.007.027-.013.054-.019.081a14.078,14.078,0,0,0,1.4,9.909c.071.128.147.252.219.38a1.076,1.076,0,0,1,.216.739.913.913,0,0,1-.405.615,1.887,1.887,0,0,1-.354.126c-.138.025-.278.05-.419.069a6.582,6.582,0,0,1-1.786-13.042c.018,0,.035,0,.053-.007a.975.975,0,0,1,.737.1.855.855,0,0,1,.357,1.028" transform="translate(-560.433 -193.031)" fill="#3d3d3d"/>
      <ellipse id="Ellipse_123-2" data-name="Ellipse 123" cx="12.285" cy="12.285" rx="12.285" ry="12.285" transform="translate(8.189 11.407)" fill="#d82225"/>
      <path id="Path_1151-2" data-name="Path 1151" d="M604.064,178.336c.271-.015.329-.009.6-.009a14.007,14.007,0,0,1,10.511,4.732,1.207,1.207,0,0,0,.824.547,1.013,1.013,0,0,0,.832-.288l.2-.17a8.335,8.335,0,1,0-13.975-6.137,1.651,1.651,0,0,0,.084.7.969.969,0,0,0,.92.626" transform="translate(-584.194 -168.675)" fill="#262626"/>
      <path id="Path_1152-2" data-name="Path 1152" d="M622.343,241.678q.107.143.206.294a5.558,5.558,0,1,1-9.407,5.919c-.045-.073-.085-.149-.129-.223a.742.742,0,0,1-.1-.708.794.794,0,0,1,.658-.481,4.31,4.31,0,0,0,.457-.123,14.046,14.046,0,0,0,6.755-4.341c.088-.1.17-.209.259-.311a.918.918,0,0,1,.413-.35.721.721,0,0,1,.635.07A.861.861,0,0,1,622.343,241.678Z" transform="translate(-589.663 -209.17)" fill="#3d3d3d"/>
    </g>
  </g>
</svg>
