<svg xmlns="http://www.w3.org/2000/svg" xmlns:xlink="http://www.w3.org/1999/xlink" width="1101.612" height="604.518" viewBox="0 0 1101.612 604.518">
  <defs>
    <filter id="Path_4440" x="299.664" y="54.358" width="522.615" height="522.615" filterUnits="userSpaceOnUse">
      <feOffset dy="20" input="SourceAlpha"/>
      <feGaussianBlur stdDeviation="49.5" result="blur"/>
      <feFlood flood-color="#3c485a" flood-opacity="0.149"/>
      <feComposite operator="in" in2="blur"/>
      <feComposite in="SourceGraphic"/>
    </filter>
    <filter id="Path_4735" x="0" y="0" width="368" height="368" filterUnits="userSpaceOnUse">
      <feOffset dy="5" input="SourceAlpha"/>
      <feGaussianBlur stdDeviation="49.5" result="blur-2"/>
      <feFlood flood-color="#3c485a" flood-opacity="0.102"/>
      <feComposite operator="in" in2="blur-2"/>
      <feComposite in="SourceGraphic"/>
    </filter>
    <filter id="Path_4736" x="0" y="118.445" width="368" height="368" filterUnits="userSpaceOnUse">
      <feOffset dy="5" input="SourceAlpha"/>
      <feGaussianBlur stdDeviation="49.5" result="blur-3"/>
      <feFlood flood-color="#3c485a" flood-opacity="0.102"/>
      <feComposite operator="in" in2="blur-3"/>
      <feComposite in="SourceGraphic"/>
    </filter>
    <filter id="Path_4738" x="0" y="236.518" width="368" height="368" filterUnits="userSpaceOnUse">
      <feOffset dy="5" input="SourceAlpha"/>
      <feGaussianBlur stdDeviation="49.5" result="blur-4"/>
      <feFlood flood-color="#3c485a" flood-opacity="0.102"/>
      <feComposite operator="in" in2="blur-4"/>
      <feComposite in="SourceGraphic"/>
    </filter>
    <filter id="Path_4741" x="733.612" y="117.543" width="368" height="368" filterUnits="userSpaceOnUse">
      <feOffset dy="5" input="SourceAlpha"/>
      <feGaussianBlur stdDeviation="49.5" result="blur-5"/>
      <feFlood flood-color="#3c485a" flood-opacity="0.102"/>
      <feComposite operator="in" in2="blur-5"/>
      <feComposite in="SourceGraphic"/>
    </filter>
  </defs>
  <g id="Group_3704" data-name="Group 3704" transform="translate(31 -74.978)">
    <path id="Path_4439" data-name="Path 4439" d="M145.144,0A145.144,145.144,0,1,1,0,145.144,145.144,145.144,0,0,1,145.144,0Z" transform="translate(384.828 225.5)" fill="none" stroke="#d82125" stroke-linecap="round" stroke-width="3" stroke-dasharray="1 10"/>
    <g transform="matrix(1, 0, 0, 1, -31, 74.98)" filter="url(#Path_4440)">
      <path id="Path_4440-2" data-name="Path 4440" d="M112.808,0A112.808,112.808,0,1,1,0,112.808,112.808,112.808,0,0,1,112.808,0Z" transform="translate(448.16 182.86)" fill="#fff"/>
    </g>
    <g id="Group_3099" data-name="Group 3099" transform="translate(472.992 304.316)">
      <path id="Path_1150" data-name="Path 1150" d="M580.378,215.772c-.02.078-.038.157-.055.236a41.281,41.281,0,0,0,4.109,29.056c.209.375.431.74.641,1.113a3.156,3.156,0,0,1,.635,2.166,2.678,2.678,0,0,1-1.189,1.8,5.537,5.537,0,0,1-1.038.368c-.406.073-.815.147-1.229.2a19.3,19.3,0,0,1-5.236-38.244c.052-.006.1-.01.154-.021a2.858,2.858,0,0,1,2.16.306,2.506,2.506,0,0,1,1.046,3.014" transform="translate(-560.432 -155.676)" fill="#3d3d3d"/>
      <ellipse id="Ellipse_123" data-name="Ellipse 123" cx="36.023" cy="36.023" rx="36.023" ry="36.023" transform="translate(24.016 33.45)" fill="#d82225"/>
      <path id="Path_1151" data-name="Path 1151" d="M606.015,197c.8-.045.965-.026,1.774-.026a41.072,41.072,0,0,1,30.821,13.875,3.538,3.538,0,0,0,2.415,1.605,2.969,2.969,0,0,0,2.439-.845l.587-.5a24.442,24.442,0,1,0-40.978-18,4.842,4.842,0,0,0,.245,2.05,2.84,2.84,0,0,0,2.7,1.835" transform="translate(-547.751 -168.675)" fill="#262626"/>
      <path id="Path_1152" data-name="Path 1152" d="M640.66,242.385q.315.42.6.863A16.3,16.3,0,1,1,613.68,260.6c-.131-.214-.25-.436-.379-.653a2.176,2.176,0,0,1-.291-2.076,2.328,2.328,0,0,1,1.928-1.412,12.615,12.615,0,0,0,1.34-.362,41.185,41.185,0,0,0,19.807-12.728c.258-.3.5-.614.76-.911a2.69,2.69,0,0,1,1.212-1.026,2.115,2.115,0,0,1,1.863.206A2.526,2.526,0,0,1,640.66,242.385Z" transform="translate(-544.832 -147.062)" fill="#3d3d3d"/>
    </g>
    <path id="Path_4731" data-name="Path 4731" d="M0,0H202.487" transform="translate(176.461 372.423)" fill="none" stroke="#cccdd7" stroke-linecap="round" stroke-width="3" stroke-dasharray="1 10"/>
    <path id="Path_4732" data-name="Path 4732" d="M797.686,107.607l-10.224,7.513c-16.317,25.084-11.863,23.8-17.035,43.018l-9.093,52.729c-6.317,18.04-17.115,14.54-26.929,14.54H714.085" transform="translate(-537.322 264.815)" fill="none" stroke="#cccdd7" stroke-linecap="round" stroke-miterlimit="10" stroke-width="3" stroke-dasharray="1 10"/>
    <path id="Path_4733" data-name="Path 4733" d="M797.686,226.717l-10.224-7.579c-16.317-25.3-11.863-24-17.035-43.4l-9.092-53.192c-6.317-18.2-17.115-14.668-26.929-14.668H714.085" transform="translate(-537.322 146.37)" fill="none" stroke="#cccdd7" stroke-linecap="round" stroke-miterlimit="10" stroke-width="3" stroke-dasharray="1 10"/>
    <path id="Path_4734" data-name="Path 4734" d="M-31.75-2.652v.014l.007-.034,1.989-7.28h1.326l2.01,7.3.007.048.007-.068,1.572-7.28H-23.2L-25.563,0h-1.511l-1.989-7.144H-29.1L-31.1,0h-1.518l-2.358-9.953h1.634ZM-17.777,0q-.089-.28-.147-.547A3.909,3.909,0,0,1-18-1.08a2.935,2.935,0,0,1-.9.872,2.287,2.287,0,0,1-1.248.352,2.459,2.459,0,0,1-1.774-.595,2.16,2.16,0,0,1-.619-1.634,1.93,1.93,0,0,1,.848-1.671,4.093,4.093,0,0,1,2.386-.6h1.292V-5a1.2,1.2,0,0,0-.342-.909,1.356,1.356,0,0,0-.978-.328,1.384,1.384,0,0,0-.9.273.868.868,0,0,0-.335.7h-1.6l-.007-.041A1.832,1.832,0,0,1-21.4-6.856a3.317,3.317,0,0,1,2.164-.677,3.164,3.164,0,0,1,2.085.656,2.31,2.31,0,0,1,.793,1.887V-1.7a6.064,6.064,0,0,0,.062.878A4.664,4.664,0,0,0-16.1,0Zm-2.037-1.189A2.088,2.088,0,0,0-18.683-1.5a1.583,1.583,0,0,0,.667-.718V-3.315h-1.319a1.666,1.666,0,0,0-1.135.359,1.09,1.09,0,0,0-.41.844.861.861,0,0,0,.277.673A1.14,1.14,0,0,0-19.814-1.189Zm8.887-4.71-.711-.027a1.49,1.49,0,0,0-.81.205,1.351,1.351,0,0,0-.5.581V0h-1.661V-7.4h1.518l.109,1.073a2.372,2.372,0,0,1,.721-.889,1.679,1.679,0,0,1,1.015-.321,1.548,1.548,0,0,1,.28.024,2.047,2.047,0,0,1,.239.058ZM-6.593.144A3.216,3.216,0,0,1-9.1-.885a3.782,3.782,0,0,1-.933-2.642V-3.8a3.927,3.927,0,0,1,.926-2.676A2.93,2.93,0,0,1-6.785-7.533a2.891,2.891,0,0,1,2.293.906,3.549,3.549,0,0,1,.8,2.43v.978H-8.309l-.014.034a2.329,2.329,0,0,0,.516,1.442,1.632,1.632,0,0,0,1.316.561,3.557,3.557,0,0,0,1.148-.164,3.763,3.763,0,0,0,.923-.472l.533,1.087a3.441,3.441,0,0,1-1.107.622A4.64,4.64,0,0,1-6.593.144ZM-6.785-6.2A1.246,1.246,0,0,0-7.8-5.711a2.407,2.407,0,0,0-.492,1.241l.014.034h2.933v-.171A1.77,1.77,0,0,0-5.7-5.756,1.31,1.31,0,0,0-6.785-6.2Zm6.07-.239a2.637,2.637,0,0,1,.9-.807,2.42,2.42,0,0,1,1.172-.287,2.329,2.329,0,0,1,1.835.742A3.366,3.366,0,0,1,3.852-4.5V0H2.191V-4.519a1.873,1.873,0,0,0-.349-1.265A1.332,1.332,0,0,0,.8-6.173a1.855,1.855,0,0,0-.872.2,1.792,1.792,0,0,0-.639.557V0H-2.375V-10.664H-.714ZM5.267-3.767a4.029,4.029,0,0,1,.9-2.707,3.111,3.111,0,0,1,2.481-1.06,3.1,3.1,0,0,1,2.5,1.06,3.994,3.994,0,0,1,.909,2.707v.144A4.014,4.014,0,0,1,11.146-.9,3.1,3.1,0,0,1,8.665.144a3.124,3.124,0,0,1-2.5-1.053,4.023,4.023,0,0,1-.9-2.714Zm1.661.144a3.3,3.3,0,0,0,.424,1.764,1.429,1.429,0,0,0,1.313.677,1.436,1.436,0,0,0,1.3-.677A3.221,3.221,0,0,0,10.4-3.623v-.144A3.18,3.18,0,0,0,9.963-5.51,1.441,1.441,0,0,0,8.651-6.2a1.429,1.429,0,0,0-1.3.69,3.282,3.282,0,0,0-.424,1.743ZM18.112-1.08a2.531,2.531,0,0,1-.882.906A2.357,2.357,0,0,1,16,.144,2.351,2.351,0,0,1,14.14-.615a3.5,3.5,0,0,1-.67-2.358V-7.4h1.654V-2.96a2.217,2.217,0,0,0,.314,1.36,1.148,1.148,0,0,0,.95.39A2.136,2.136,0,0,0,17.4-1.425a1.564,1.564,0,0,0,.639-.625V-7.4H19.7V0H18.249Zm7.479-.93a.772.772,0,0,0-.328-.636,3.273,3.273,0,0,0-1.224-.444,5.079,5.079,0,0,1-2.006-.8,1.669,1.669,0,0,1-.68-1.4,2,2,0,0,1,.786-1.586,3.126,3.126,0,0,1,2.071-.656,3.244,3.244,0,0,1,2.15.667,1.974,1.974,0,0,1,.762,1.651l-.014.041H25.515a1.042,1.042,0,0,0-.349-.786,1.34,1.34,0,0,0-.957-.328,1.369,1.369,0,0,0-.916.27.838.838,0,0,0-.314.66.74.74,0,0,0,.3.619,3.193,3.193,0,0,0,1.207.407,5.083,5.083,0,0,1,2.068.81A1.708,1.708,0,0,1,27.224-2.1,1.939,1.939,0,0,1,26.4-.479a3.51,3.51,0,0,1-2.17.622,3.313,3.313,0,0,1-2.276-.738,2.085,2.085,0,0,1-.793-1.7l.014-.041h1.545a1.108,1.108,0,0,0,.465.937A1.868,1.868,0,0,0,24.25-1.1a1.7,1.7,0,0,0,.991-.246A.772.772,0,0,0,25.59-2.01Zm6.3,2.153A3.216,3.216,0,0,1,29.381-.885a3.782,3.782,0,0,1-.933-2.642V-3.8a3.927,3.927,0,0,1,.926-2.676,2.93,2.93,0,0,1,2.321-1.056,2.891,2.891,0,0,1,2.293.906,3.549,3.549,0,0,1,.8,2.43v.978H30.17l-.014.034a2.329,2.329,0,0,0,.516,1.442,1.632,1.632,0,0,0,1.316.561,3.557,3.557,0,0,0,1.148-.164,3.763,3.763,0,0,0,.923-.472l.533,1.087a3.441,3.441,0,0,1-1.107.622A4.64,4.64,0,0,1,31.886.144ZM31.695-6.2a1.246,1.246,0,0,0-1.012.489,2.407,2.407,0,0,0-.492,1.241l.014.034h2.933v-.171a1.77,1.77,0,0,0-.359-1.148A1.31,1.31,0,0,0,31.695-6.2Z" transform="translate(153 205.868)" fill="#b4bbc6" opacity="0.604"/>
    <g transform="matrix(1, 0, 0, 1, -31, 74.98)" filter="url(#Path_4735)">
      <path id="Path_4735-2" data-name="Path 4735" d="M5.669,0H64.331A5.669,5.669,0,0,1,70,5.669V64.331A5.669,5.669,0,0,1,64.331,70H5.669A5.669,5.669,0,0,1,0,64.331V5.669A5.669,5.669,0,0,1,5.669,0Z" transform="translate(149 144)" fill="#fff" stroke="#b4bbc6" stroke-width="1"/>
    </g>
    <g id="Group_3697" data-name="Group 3697" transform="translate(52.1 -555.382)">
      <g id="Group_2978" data-name="Group 2978" transform="translate(97.586 795.423)">
        <path id="Path_3624" data-name="Path 3624" d="M128.49,802.513a3.756,3.756,0,1,0,3.756,3.756A3.76,3.76,0,0,0,128.49,802.513Zm0,6.35a2.594,2.594,0,1,1,2.594-2.594A2.6,2.6,0,0,1,128.49,808.863Z" transform="translate(-124.734 -802.513)" fill="#526279" stroke="#526279" stroke-width="0.5"/>
      </g>
      <g id="Group_2979" data-name="Group 2979" transform="translate(106.701 801.773)">
        <path id="Path_3625" data-name="Path 3625" d="M152.268,820.481h-1.162a.581.581,0,0,0,0,1.162h1.162a.581.581,0,1,0,0-1.162Z" transform="translate(-150.525 -820.481)" fill="#526279" stroke="#526279" stroke-width="0.5"/>
      </g>
      <g id="Group_2980" data-name="Group 2980" transform="translate(110.768 801.773)">
        <path id="Path_3626" data-name="Path 3626" d="M163.777,820.481h-1.162a.581.581,0,0,0,0,1.162h1.162a.581.581,0,1,0,0-1.162Z" transform="translate(-162.034 -820.481)" fill="#526279" stroke="#526279" stroke-width="0.5"/>
      </g>
      <g id="Group_2981" data-name="Group 2981" transform="translate(89.591 801.773)">
        <path id="Path_3627" data-name="Path 3627" d="M103.854,820.481h-1.162a.581.581,0,1,0,0,1.162h1.162a.581.581,0,1,0,0-1.162Z" transform="translate(-102.111 -820.481)" fill="#526279" stroke="#526279" stroke-width="0.5"/>
      </g>
      <g id="Group_2982" data-name="Group 2982" transform="translate(93.658 801.773)">
        <path id="Path_3628" data-name="Path 3628" d="M115.363,820.481H114.2a.581.581,0,1,0,0,1.162h1.162a.581.581,0,1,0,0-1.162Z" transform="translate(-113.62 -820.481)" fill="#526279" stroke="#526279" stroke-width="0.5"/>
      </g>
      <g id="Group_2983" data-name="Group 2983" transform="translate(92.442 817.87)">
        <path id="Path_3629" data-name="Path 3629" d="M117.916,866.03H110.76a.581.581,0,0,0-.581.581V872.5a.581.581,0,0,0,.581.581h7.156a.581.581,0,0,0,.581-.581v-5.893A.581.581,0,0,0,117.916,866.03Zm-.581,5.893h-5.994v-4.731h2.416v.914a.581.581,0,0,0,1.162,0v-.914h2.416Z" transform="translate(-110.179 -866.03)" fill="#526279" stroke="#526279" stroke-width="0.5"/>
      </g>
      <g id="Group_2984" data-name="Group 2984" transform="translate(101.923 817.87)">
        <path id="Path_3630" data-name="Path 3630" d="M144.742,866.03h-7.156a.581.581,0,0,0-.581.581V872.5a.581.581,0,0,0,.581.581h7.156a.581.581,0,0,0,.581-.581v-5.893A.581.581,0,0,0,144.742,866.03Zm-.581,5.893h-5.993v-4.731h2.416v.914a.581.581,0,0,0,1.162,0v-.914h2.416Z" transform="translate(-137.005 -866.03)" fill="#526279" stroke="#526279" stroke-width="0.5"/>
      </g>
      <g id="Group_2985" data-name="Group 2985" transform="translate(101.923 809.817)">
        <path id="Path_3631" data-name="Path 3631" d="M144.742,843.244h-7.156a.581.581,0,0,0-.581.581v5.893a.581.581,0,0,0,.581.581h7.156a.581.581,0,0,0,.581-.581v-5.893A.581.581,0,0,0,144.742,843.244Zm-.581,5.893h-5.993v-4.731h2.416v.914a.581.581,0,0,0,1.162,0v-.914h2.416Z" transform="translate(-137.005 -843.244)" fill="#526279" stroke="#526279" stroke-width="0.5"/>
      </g>
      <g id="Group_2986" data-name="Group 2986" transform="translate(82.748 791.548)">
        <path id="Path_3632" data-name="Path 3632" d="M119.357,826.16h-1.4V802.449l1.106.642a.581.581,0,1,0,.583-1.005l-18.013-10.46a.582.582,0,0,0-.583,0l-18.013,10.46a.581.581,0,0,0,.583,1.005l1.111-.645V826.16h-1.4a.581.581,0,1,0,0,1.162h36.025a.581.581,0,1,0,0-1.162Zm-27.94,0V808.583h19.851V826.16Zm-1.825-18.739v-1.743h23.5v1.743Zm22.838,18.739V808.583h1.244a.581.581,0,0,0,.581-.581V805.1a.581.581,0,0,0-.581-.581H89.01a.581.581,0,0,0-.581.581V808a.581.581,0,0,0,.581.581h1.244V826.16H85.894V801.771l15.448-8.971,15.452,8.973V826.16Z" transform="translate(-82.748 -791.548)" fill="#526279" stroke="#526279" stroke-width="0.5"/>
      </g>
    </g>
    <g transform="matrix(1, 0, 0, 1, -31, 74.98)" filter="url(#Path_4736)">
      <path id="Path_4736-2" data-name="Path 4736" d="M5.669,0H64.331A5.669,5.669,0,0,1,70,5.669V64.331A5.669,5.669,0,0,1,64.331,70H5.669A5.669,5.669,0,0,1,0,64.331V5.669A5.669,5.669,0,0,1,5.669,0Z" transform="translate(149 262.45)" fill="#fff" stroke="#b4bbc6" stroke-width="1"/>
    </g>
    <path id="Path_4737" data-name="Path 4737" d="M-6.111-4.478h-4.354v3.151h5.052V0h-6.713V-9.953h6.665V-8.62h-5v2.81h4.354Zm3.76.349V0H-4.013V-9.953H-.335A3.94,3.94,0,0,1,2.242-9.2a2.628,2.628,0,0,1,.909,2.146,2.22,2.22,0,0,1-.4,1.33,2.744,2.744,0,0,1-1.166.892,2.082,2.082,0,0,1,1.21.872,2.805,2.805,0,0,1,.369,1.487v.827a3.354,3.354,0,0,0,.109.854,1.2,1.2,0,0,0,.369.636V0H1.935a1.113,1.113,0,0,1-.352-.711,5.938,5.938,0,0,1-.079-.95v-.8a1.674,1.674,0,0,0-.437-1.217,1.6,1.6,0,0,0-1.2-.451Zm0-1.333H-.424a2.254,2.254,0,0,0,1.456-.383A1.437,1.437,0,0,0,1.49-7.014a1.546,1.546,0,0,0-.451-1.179A1.935,1.935,0,0,0-.335-8.62H-2.352Zm9.27,1.688V0H5.257V-9.953h3.89a3.687,3.687,0,0,1,2.581.851,2.886,2.886,0,0,1,.933,2.239,2.881,2.881,0,0,1-.933,2.246,3.706,3.706,0,0,1-2.581.844Zm0-1.333H9.146A1.821,1.821,0,0,0,10.534-5.6,1.749,1.749,0,0,0,11-6.85a1.8,1.8,0,0,0-.465-1.265A1.793,1.793,0,0,0,9.146-8.62H6.918Z" transform="translate(153 324.69)" fill="#b4bbc6" opacity="0.604"/>
    <g id="Group_3698" data-name="Group 3698" transform="translate(-266.037 39.233)">
      <path id="Path_3617" data-name="Path 3617" d="M432.982,349l2.092,4.881v2.789H403v-2.789L405.092,349" transform="translate(0 -9.082)" fill="none" stroke="#526279" stroke-linecap="round" stroke-linejoin="round" stroke-width="1.5"/>
      <path id="Path_3618" data-name="Path 3618" d="M421,358.789v-1.395L422.395,356h4.213l1.365,1.395v1.395" transform="translate(-5.449 -11.201)" fill="none" stroke="#526279" stroke-linecap="round" stroke-linejoin="round" stroke-width="1.5"/>
      <path id="Path_3619" data-name="Path 3619" d="M433.891,326.67v13.248H406V319.693a.693.693,0,0,1,.693-.693h19.528" transform="translate(-0.908)" fill="none" stroke="#526279" stroke-linecap="round" stroke-linejoin="round" stroke-width="1.5"/>
      <path id="Path_3620" data-name="Path 3620" d="M413,332.248l9.064-8.367,6.973,2.092L436.01,319" transform="translate(-3.027)" fill="none" stroke="#526279" stroke-linecap="round" stroke-linejoin="round" stroke-width="1.5"/>
      <line id="Line_64" data-name="Line 64" x1="4" transform="translate(429.037 318.794)" fill="none" stroke="#526279" stroke-linecap="round" stroke-linejoin="round" stroke-width="1.5"/>
      <line id="Line_65" data-name="Line 65" x2="0.005" y2="3.474" transform="translate(432.977 319.012)" fill="none" stroke="#526279" stroke-linecap="round" stroke-linejoin="round" stroke-width="1.5"/>
      <path id="Path_3621" data-name="Path 3621" d="M416.184,347.486V344H412v3.486" transform="translate(-2.725 -7.568)" fill="none" stroke="#526279" stroke-linecap="round" stroke-linejoin="round" stroke-width="1.5"/>
      <path id="Path_3622" data-name="Path 3622" d="M427.184,346.578V341H423v5.578" transform="translate(-6.055 -6.66)" fill="none" stroke="#526279" stroke-linecap="round" stroke-linejoin="round" stroke-width="1.5"/>
      <path id="Path_3623" data-name="Path 3623" d="M438.184,345.367V337H434v8.367" transform="translate(-9.385 -5.449)" fill="none" stroke="#526279" stroke-linecap="round" stroke-linejoin="round" stroke-width="1.5"/>
    </g>
    <g transform="matrix(1, 0, 0, 1, -31, 74.98)" filter="url(#Path_4738)">
      <path id="Path_4738-2" data-name="Path 4738" d="M5.669,0H64.331A5.669,5.669,0,0,1,70,5.669V64.331A5.669,5.669,0,0,1,64.331,70H5.669A5.669,5.669,0,0,1,0,64.331V5.669A5.669,5.669,0,0,1,5.669,0Z" transform="translate(149 380.52)" fill="#fff" stroke="#b4bbc6" stroke-width="1"/>
    </g>
    <path id="Path_4739" data-name="Path 4739" d="M-9.919-3.773V0H-11.58V-9.953h3.89A3.687,3.687,0,0,1-5.11-9.1a2.886,2.886,0,0,1,.933,2.239A2.881,2.881,0,0,1-5.11-4.618a3.706,3.706,0,0,1-2.581.844Zm0-1.333H-7.69A1.821,1.821,0,0,0-6.3-5.6,1.749,1.749,0,0,0-5.838-6.85,1.8,1.8,0,0,0-6.3-8.114,1.793,1.793,0,0,0-7.69-8.62H-9.919ZM-.779,0H-2.44V-9.953H-.779ZM3.644-9.953,6.508-2.3h.041L9.42-9.953h2.153V0H9.912V-3.391L10.076-7.7l-.041-.007L7.082,0H5.968L3.028-7.69l-.041.007.164,4.293V0H1.49V-9.953Z" transform="translate(153 442.761)" fill="#b4bbc6" opacity="0.604"/>
    <g id="Group_3699" data-name="Group 3699" transform="translate(44.387 209.587)">
      <g id="Group_3032" data-name="Group 3032" transform="translate(90.102 268.304)">
        <g id="Group_3031" data-name="Group 3031">
          <path id="Path_3669" data-name="Path 3669" d="M125.558,293.249A2.355,2.355,0,0,1,123.2,295.6H94.024a2.355,2.355,0,0,1-2.354-2.352V272.226a2.356,2.356,0,0,1,2.354-2.353H123.2a2.356,2.356,0,0,1,2.354,2.353Zm1.569-21.023A3.926,3.926,0,0,0,123.2,268.3H94.024a3.927,3.927,0,0,0-3.922,3.922v21.023a3.926,3.926,0,0,0,3.922,3.922H123.2a3.926,3.926,0,0,0,3.922-3.922Z" transform="translate(-90.102 -268.304)" fill="#526279"/>
        </g>
      </g>
      <g id="Group_3034" data-name="Group 3034" transform="translate(91.024 284.777)">
        <path id="Path_3671" data-name="Path 3671" d="M92.646,301.076l9.9-9.9a.785.785,0,0,1-1.109,0l10.119,10.119h0a.785.785,0,0,0,1.109-1.11h0l-10.119-10.118a.783.783,0,0,0-1.109,0l-9.9,9.9h0a.784.784,0,0,0,1.109,1.109Z" transform="translate(-91.307 -289.834)" fill="#526279"/>
      </g>
      <g id="Group_3037" data-name="Group 3037" transform="translate(99.515 273.638)">
        <path id="Path_3674" data-name="Path 3674" d="M106.406,276.845a2.431,2.431,0,1,1-2.432,2.431A2.434,2.434,0,0,1,106.406,276.845Zm-4,2.431a4,4,0,1,0,4-4A4.005,4.005,0,0,0,102.4,279.276Z" transform="translate(-102.405 -275.276)" fill="#526279"/>
      </g>
      <g id="Group_3038" data-name="Group 3038" transform="translate(105.79 280.07)">
        <path id="Path_3675" data-name="Path 3675" d="M130.374,296.861a2.178,2.178,0,0,1-2.581,2.386.79.79,0,0,1,.227-.034H117.353a.783.783,0,0,1,.555.231l-5.962-5.963a.786.786,0,0,1,0,1.11l9.57-9.57a.785.785,0,0,1-1.109,0l10.2,10.2a.781.781,0,0,1-.23-.554Zm1.339-2.751-10.2-10.2a.785.785,0,0,0-1.109,0l-9.57,9.57a.785.785,0,0,0,0,1.11l5.962,5.961a.779.779,0,0,0,.555.23h10.668a.754.754,0,0,0,.226-.034,3.564,3.564,0,0,0,3.7-3.888v-2.2A.778.778,0,0,0,131.713,294.111Z" transform="translate(-110.606 -283.682)" fill="#526279"/>
      </g>
    </g>
    <path id="Path_4740" data-name="Path 4740" d="M0,0H195.459" transform="translate(675.116 372.261)" fill="none" stroke="#cccdd7" stroke-linecap="round" stroke-width="3" stroke-dasharray="1 10"/>
    <g transform="matrix(1, 0, 0, 1, -31, 74.98)" filter="url(#Path_4741)">
      <path id="Path_4741-2" data-name="Path 4741" d="M5.669,0H64.331A5.669,5.669,0,0,1,70,5.669V64.331A5.669,5.669,0,0,1,64.331,70H5.669A5.669,5.669,0,0,1,0,64.331V5.669A5.669,5.669,0,0,1,5.669,0Z" transform="translate(882.61 261.54)" fill="#fff" stroke="#b4bbc6" stroke-width="1"/>
    </g>
    <path id="Path_4779" data-name="Path 4779" d="M-49.988,0V-9.953h3.309a4.3,4.3,0,0,1,2.584.68,2.357,2.357,0,0,1,.93,2.034,2,2,0,0,1-.39,1.21,2.3,2.3,0,0,1-1.08.793,2.219,2.219,0,0,1,1.367.854,2.519,2.519,0,0,1,.479,1.524,2.558,2.558,0,0,1-.916,2.129A3.963,3.963,0,0,1-46.235,0Zm1.661-4.525v3.2h2.092a2,2,0,0,0,1.326-.393,1.407,1.407,0,0,0,.465-1.138,1.788,1.788,0,0,0-.39-1.23,1.549,1.549,0,0,0-1.217-.437Zm0-1.237h1.832a1.873,1.873,0,0,0,1.22-.366,1.261,1.261,0,0,0,.448-1.036,1.291,1.291,0,0,0-.472-1.1,2.254,2.254,0,0,0-1.381-.359h-1.647ZM-34.75,0h-6.61V-1.142l3.24-3.534A7.866,7.866,0,0,0-37.027-6.1a2.286,2.286,0,0,0,.3-1.09,1.655,1.655,0,0,0-.39-1.121,1.32,1.32,0,0,0-1.053-.451,1.622,1.622,0,0,0-1.3.492,2.007,2.007,0,0,0-.424,1.354H-41.5l-.014-.041a2.925,2.925,0,0,1,.868-2.232,3.337,3.337,0,0,1,2.475-.906A3.158,3.158,0,0,1-35.9-9.3a2.728,2.728,0,0,1,.834,2.071A3.06,3.06,0,0,1-35.547-5.6a13.766,13.766,0,0,1-1.494,1.894l-2.215,2.338.021.041h4.484Zm1.688,0V-9.953h3.309a4.3,4.3,0,0,1,2.584.68,2.357,2.357,0,0,1,.93,2.034,2,2,0,0,1-.39,1.21,2.3,2.3,0,0,1-1.08.793,2.219,2.219,0,0,1,1.367.854,2.519,2.519,0,0,1,.479,1.524A2.558,2.558,0,0,1-26.78-.728,3.963,3.963,0,0,1-29.309,0ZM-31.4-4.525v3.2h2.092a2,2,0,0,0,1.326-.393,1.407,1.407,0,0,0,.465-1.138,1.788,1.788,0,0,0-.39-1.23,1.549,1.549,0,0,0-1.217-.437Zm0-1.237h1.832a1.873,1.873,0,0,0,1.22-.366A1.261,1.261,0,0,0-27.9-7.164a1.291,1.291,0,0,0-.472-1.1,2.254,2.254,0,0,0-1.381-.359H-31.4Zm17.6-2.857h-3.008V0h-1.661V-8.62h-3.008V-9.953h7.677ZM-9.512-5.9l-.711-.027a1.49,1.49,0,0,0-.81.205,1.351,1.351,0,0,0-.5.581V0H-13.2V-7.4h1.518l.109,1.073a2.372,2.372,0,0,1,.721-.889,1.679,1.679,0,0,1,1.015-.321,1.548,1.548,0,0,1,.28.024,2.047,2.047,0,0,1,.239.058ZM-3.9,0q-.089-.28-.147-.547a3.909,3.909,0,0,1-.079-.533,2.935,2.935,0,0,1-.9.872A2.287,2.287,0,0,1-6.272.144,2.459,2.459,0,0,1-8.046-.451a2.16,2.16,0,0,1-.619-1.634,1.93,1.93,0,0,1,.848-1.671,4.093,4.093,0,0,1,2.386-.6h1.292V-5a1.2,1.2,0,0,0-.342-.909,1.356,1.356,0,0,0-.978-.328,1.384,1.384,0,0,0-.9.273.868.868,0,0,0-.335.7H-8.3L-8.3-5.3A1.832,1.832,0,0,1-7.52-6.856a3.317,3.317,0,0,1,2.164-.677,3.164,3.164,0,0,1,2.085.656A2.31,2.31,0,0,1-2.478-4.99V-1.7a6.064,6.064,0,0,0,.062.878,4.664,4.664,0,0,0,.2.824ZM-5.937-1.189A2.088,2.088,0,0,0-4.806-1.5a1.583,1.583,0,0,0,.667-.718V-3.315H-5.458a1.666,1.666,0,0,0-1.135.359A1.09,1.09,0,0,0-7-2.112a.861.861,0,0,0,.277.673A1.14,1.14,0,0,0-5.937-1.189ZM-1.042-3.6A4.878,4.878,0,0,1-.284-6.45,2.454,2.454,0,0,1,1.849-7.533a2.333,2.333,0,0,1,1.077.243A2.437,2.437,0,0,1,3.75-6.6v-4.067H5.411V0H4.016L3.852-.916A2.445,2.445,0,0,1,3-.126a2.4,2.4,0,0,1-1.162.27A2.517,2.517,0,0,1-.284-.848a4.17,4.17,0,0,1-.759-2.6Zm1.661.144a2.979,2.979,0,0,0,.393,1.634,1.376,1.376,0,0,0,1.248.608,1.668,1.668,0,0,0,.892-.226,1.717,1.717,0,0,0,.6-.643V-5.3a1.749,1.749,0,0,0-.6-.639,1.626,1.626,0,0,0-.875-.229,1.339,1.339,0,0,0-1.251.714A3.769,3.769,0,0,0,.619-3.6Zm9.748,3.6A3.216,3.216,0,0,1,7.861-.885a3.782,3.782,0,0,1-.933-2.642V-3.8a3.927,3.927,0,0,1,.926-2.676,2.93,2.93,0,0,1,2.321-1.056,2.891,2.891,0,0,1,2.293.906,3.549,3.549,0,0,1,.8,2.43v.978H8.651l-.014.034a2.329,2.329,0,0,0,.516,1.442,1.632,1.632,0,0,0,1.316.561,3.557,3.557,0,0,0,1.148-.164,3.763,3.763,0,0,0,.923-.472l.533,1.087a3.441,3.441,0,0,1-1.107.622A4.64,4.64,0,0,1,10.367.144ZM10.175-6.2a1.246,1.246,0,0,0-1.012.489,2.407,2.407,0,0,0-.492,1.241l.014.034h2.933v-.171a1.77,1.77,0,0,0-.359-1.148A1.31,1.31,0,0,0,10.175-6.2ZM23.7-2.557a1.282,1.282,0,0,0-.461-1.019,4.334,4.334,0,0,0-1.63-.711,6.9,6.9,0,0,1-2.567-1.159,2.307,2.307,0,0,1-.9-1.89,2.414,2.414,0,0,1,.995-1.982A4.039,4.039,0,0,1,21.7-10.1a3.826,3.826,0,0,1,2.635.882A2.632,2.632,0,0,1,25.3-7.1l-.014.041H23.69A1.6,1.6,0,0,0,23.17-8.3a2.121,2.121,0,0,0-1.483-.475,2.169,2.169,0,0,0-1.4.4A1.26,1.26,0,0,0,19.8-7.349a1.121,1.121,0,0,0,.53.943,5.867,5.867,0,0,0,1.753.711A5.839,5.839,0,0,1,24.524-4.5a2.5,2.5,0,0,1,.834,1.935,2.335,2.335,0,0,1-.995,1.979,4.3,4.3,0,0,1-2.615.735A4.645,4.645,0,0,1,19.014-.68a2.532,2.532,0,0,1-1.142-2.259l.014-.041h1.6a1.555,1.555,0,0,0,.629,1.357,2.754,2.754,0,0,0,1.634.448,2.406,2.406,0,0,0,1.436-.373A1.182,1.182,0,0,0,23.7-2.557ZM28.96-9.194v1.8h1.326v1.23H28.96v4.088a.891.891,0,0,0,.2.653.718.718,0,0,0,.526.195,1.469,1.469,0,0,0,.267-.024,1.621,1.621,0,0,0,.246-.065L30.375-.1a1.9,1.9,0,0,1-.506.181,2.812,2.812,0,0,1-.608.065,1.9,1.9,0,0,1-1.436-.537,2.35,2.35,0,0,1-.52-1.685V-6.166H26.178V-7.4h1.128v-1.8Zm2.5,5.428a4.029,4.029,0,0,1,.9-2.707,3.111,3.111,0,0,1,2.481-1.06,3.1,3.1,0,0,1,2.5,1.06,3.994,3.994,0,0,1,.909,2.707v.144A4.014,4.014,0,0,1,37.334-.9,3.1,3.1,0,0,1,34.853.144a3.124,3.124,0,0,1-2.5-1.053,4.023,4.023,0,0,1-.9-2.714Zm1.661.144a3.3,3.3,0,0,0,.424,1.764,1.429,1.429,0,0,0,1.313.677,1.436,1.436,0,0,0,1.3-.677,3.221,3.221,0,0,0,.438-1.764v-.144a3.18,3.18,0,0,0-.437-1.743,1.441,1.441,0,0,0-1.312-.69,1.429,1.429,0,0,0-1.3.69,3.282,3.282,0,0,0-.424,1.743ZM43.377-5.9l-.711-.027a1.49,1.49,0,0,0-.81.205,1.351,1.351,0,0,0-.5.581V0H39.693V-7.4H41.21l.109,1.073a2.372,2.372,0,0,1,.721-.889,1.679,1.679,0,0,1,1.015-.321,1.548,1.548,0,0,1,.28.024,2.047,2.047,0,0,1,.239.058ZM47.711.144A3.216,3.216,0,0,1,45.206-.885a3.782,3.782,0,0,1-.933-2.642V-3.8A3.927,3.927,0,0,1,45.2-6.477,2.93,2.93,0,0,1,47.52-7.533a2.891,2.891,0,0,1,2.293.906,3.549,3.549,0,0,1,.8,2.43v.978H46l-.014.034A2.329,2.329,0,0,0,46.5-1.743a1.632,1.632,0,0,0,1.316.561,3.557,3.557,0,0,0,1.148-.164,3.763,3.763,0,0,0,.923-.472l.533,1.087a3.441,3.441,0,0,1-1.107.622A4.64,4.64,0,0,1,47.711.144ZM47.52-6.2a1.246,1.246,0,0,0-1.012.489,2.407,2.407,0,0,0-.492,1.241l.014.034h2.933v-.171A1.77,1.77,0,0,0,48.6-5.756,1.31,1.31,0,0,0,47.52-6.2Z" transform="translate(886.301 324.071)" fill="#b4bbc6" opacity="0.604"/>
    <g id="Group_3728" data-name="Group 3728" transform="translate(867.263 351.799)">
      <path id="Path_1150-2" data-name="Path 1150" d="M567.235,213.525c-.007.027-.013.054-.019.081a14.078,14.078,0,0,0,1.4,9.909c.071.128.147.252.219.38a1.076,1.076,0,0,1,.216.739.913.913,0,0,1-.405.615,1.887,1.887,0,0,1-.354.126c-.138.025-.278.05-.419.069a6.582,6.582,0,0,1-1.786-13.042c.018,0,.035,0,.053-.007a.975.975,0,0,1,.737.1.855.855,0,0,1,.357,1.028" transform="translate(-560.433 -193.031)" fill="#3d3d3d"/>
      <ellipse id="Ellipse_123-2" data-name="Ellipse 123" cx="12.285" cy="12.285" rx="12.285" ry="12.285" transform="translate(8.189 11.407)" fill="#d82225"/>
      <path id="Path_1151-2" data-name="Path 1151" d="M604.064,178.336c.271-.015.329-.009.6-.009a14.007,14.007,0,0,1,10.511,4.732,1.207,1.207,0,0,0,.824.547,1.013,1.013,0,0,0,.832-.288l.2-.17a8.335,8.335,0,1,0-13.975-6.137,1.651,1.651,0,0,0,.084.7.969.969,0,0,0,.92.626" transform="translate(-584.194 -168.675)" fill="#262626"/>
      <path id="Path_1152-2" data-name="Path 1152" d="M622.343,241.678q.107.143.206.294a5.558,5.558,0,1,1-9.407,5.919c-.045-.073-.085-.149-.129-.223a.742.742,0,0,1-.1-.708.794.794,0,0,1,.658-.481,4.31,4.31,0,0,0,.457-.123,14.046,14.046,0,0,0,6.755-4.341c.088-.1.17-.209.259-.311a.918.918,0,0,1,.413-.35.721.721,0,0,1,.635.07A.861.861,0,0,1,622.343,241.678Z" transform="translate(-589.663 -209.17)" fill="#3d3d3d"/>
    </g>
  </g>
</svg>
