<svg xmlns="http://www.w3.org/2000/svg" xmlns:xlink="http://www.w3.org/1999/xlink" width="958.928" height="522.615" viewBox="0 0 958.928 522.615">
  <defs>
    <filter id="Path_4453" x="218.336" y="0" width="522.615" height="522.615" filterUnits="userSpaceOnUse">
      <feOffset dy="20" input="SourceAlpha"/>
      <feGaussianBlur stdDeviation="49.5" result="blur"/>
      <feFlood flood-color="#3c485a" flood-opacity="0.149"/>
      <feComposite operator="in" in2="blur"/>
      <feComposite in="SourceGraphic"/>
    </filter>
    <filter id="Path_4454" x="0" y="62.648" width="368" height="368" filterUnits="userSpaceOnUse">
      <feOffset dy="5" input="SourceAlpha"/>
      <feGaussianBlur stdDeviation="49.5" result="blur-2"/>
      <feFlood flood-color="#3c485a" flood-opacity="0.102"/>
      <feComposite operator="in" in2="blur-2"/>
      <feComposite in="SourceGraphic"/>
    </filter>
    <filter id="Path_4455" x="590.928" y="63.029" width="368" height="368" filterUnits="userSpaceOnUse">
      <feOffset dy="5" input="SourceAlpha"/>
      <feGaussianBlur stdDeviation="49.5" result="blur-3"/>
      <feFlood flood-color="#3c485a" flood-opacity="0.102"/>
      <feComposite operator="in" in2="blur-3"/>
      <feComposite in="SourceGraphic"/>
    </filter>
  </defs>
  <g id="Group_3738" data-name="Group 3738" transform="translate(-242.328 -1366.336)">
    <path id="Path_4456" data-name="Path 4456" d="M0,0H128" transform="translate(448.828 1608.725)" fill="none" stroke="#cccdd7" stroke-linecap="round" stroke-width="3" stroke-dasharray="1 10"/>
    <path id="Path_4457" data-name="Path 4457" d="M0,0H128" transform="translate(994.823 1608.244) rotate(180)" fill="none" stroke="#cccdd7" stroke-linecap="round" stroke-width="3" stroke-dasharray="1 10"/>
    <path id="Path_4452" data-name="Path 4452" d="M145.144,0A145.144,145.144,0,1,1,0,145.144,145.144,145.144,0,0,1,145.144,0Z" transform="translate(576.828 1462.5)" fill="none" stroke="#d82125" stroke-linecap="round" stroke-width="3" stroke-dasharray="1 10"/>
    <g transform="matrix(1, 0, 0, 1, 242.33, 1366.34)" filter="url(#Path_4453)">
      <path id="Path_4453-2" data-name="Path 4453" d="M112.808,0A112.808,112.808,0,1,1,0,112.808,112.808,112.808,0,0,1,112.808,0Z" transform="translate(366.84 128.5)" fill="#fff"/>
    </g>
    <g id="Group_3109" data-name="Group 3109" transform="translate(664.992 1541.316)">
      <path id="Path_1150" data-name="Path 1150" d="M580.378,215.772c-.02.078-.038.157-.055.236a41.281,41.281,0,0,0,4.109,29.056c.209.375.431.74.641,1.113a3.156,3.156,0,0,1,.635,2.166,2.678,2.678,0,0,1-1.189,1.8,5.537,5.537,0,0,1-1.038.368c-.406.073-.815.147-1.229.2a19.3,19.3,0,0,1-5.236-38.244c.052-.006.1-.01.154-.021a2.858,2.858,0,0,1,2.16.306,2.506,2.506,0,0,1,1.046,3.014" transform="translate(-560.432 -155.676)" fill="#3d3d3d"/>
      <ellipse id="Ellipse_123" data-name="Ellipse 123" cx="36.023" cy="36.023" rx="36.023" ry="36.023" transform="translate(24.016 33.45)" fill="#d82225"/>
      <path id="Path_1151" data-name="Path 1151" d="M606.015,197c.8-.045.965-.026,1.774-.026a41.072,41.072,0,0,1,30.821,13.875,3.538,3.538,0,0,0,2.415,1.605,2.969,2.969,0,0,0,2.439-.845l.587-.5a24.442,24.442,0,1,0-40.978-18,4.842,4.842,0,0,0,.245,2.05,2.84,2.84,0,0,0,2.7,1.835" transform="translate(-547.751 -168.675)" fill="#262626"/>
      <path id="Path_1152" data-name="Path 1152" d="M640.66,242.385q.315.42.6.863A16.3,16.3,0,1,1,613.68,260.6c-.131-.214-.25-.436-.379-.653a2.176,2.176,0,0,1-.291-2.076,2.328,2.328,0,0,1,1.928-1.412,12.615,12.615,0,0,0,1.34-.362,41.185,41.185,0,0,0,19.807-12.728c.258-.3.5-.614.76-.911a2.69,2.69,0,0,1,1.212-1.026,2.115,2.115,0,0,1,1.863.206A2.526,2.526,0,0,1,640.66,242.385Z" transform="translate(-544.832 -147.062)" fill="#3d3d3d"/>
    </g>
    <g transform="matrix(1, 0, 0, 1, 242.33, 1366.34)" filter="url(#Path_4454)">
      <path id="Path_4454-2" data-name="Path 4454" d="M5.669,0H64.331A5.669,5.669,0,0,1,70,5.669V64.331A5.669,5.669,0,0,1,64.331,70H5.669A5.669,5.669,0,0,1,0,64.331V5.669A5.669,5.669,0,0,1,5.669,0Z" transform="translate(149 206.65)" fill="#fff" stroke="#b4bbc6" stroke-width="1"/>
    </g>
    <g transform="matrix(1, 0, 0, 1, 242.33, 1366.34)" filter="url(#Path_4455)">
      <path id="Path_4455-2" data-name="Path 4455" d="M5.669,0H64.331A5.669,5.669,0,0,1,70,5.669V64.331A5.669,5.669,0,0,1,64.331,70H5.669A5.669,5.669,0,0,1,0,64.331V5.669A5.669,5.669,0,0,1,5.669,0Z" transform="translate(739.93 207.03)" fill="#fff" stroke="#b4bbc6" stroke-width="1"/>
    </g>
    <path id="Path_4792" data-name="Path 4792" d="M-49.988,0V-9.953h3.309a4.3,4.3,0,0,1,2.584.68,2.357,2.357,0,0,1,.93,2.034,2,2,0,0,1-.39,1.21,2.3,2.3,0,0,1-1.08.793,2.219,2.219,0,0,1,1.367.854,2.519,2.519,0,0,1,.479,1.524,2.558,2.558,0,0,1-.916,2.129A3.963,3.963,0,0,1-46.235,0Zm1.661-4.525v3.2h2.092a2,2,0,0,0,1.326-.393,1.407,1.407,0,0,0,.465-1.138,1.788,1.788,0,0,0-.39-1.23,1.549,1.549,0,0,0-1.217-.437Zm0-1.237h1.832a1.873,1.873,0,0,0,1.22-.366,1.261,1.261,0,0,0,.448-1.036,1.291,1.291,0,0,0-.472-1.1,2.254,2.254,0,0,0-1.381-.359h-1.647ZM-34.75,0h-6.61V-1.142l3.24-3.534A7.866,7.866,0,0,0-37.027-6.1a2.286,2.286,0,0,0,.3-1.09,1.655,1.655,0,0,0-.39-1.121,1.32,1.32,0,0,0-1.053-.451,1.622,1.622,0,0,0-1.3.492,2.007,2.007,0,0,0-.424,1.354H-41.5l-.014-.041a2.925,2.925,0,0,1,.868-2.232,3.337,3.337,0,0,1,2.475-.906A3.158,3.158,0,0,1-35.9-9.3a2.728,2.728,0,0,1,.834,2.071A3.06,3.06,0,0,1-35.547-5.6a13.766,13.766,0,0,1-1.494,1.894l-2.215,2.338.021.041h4.484Zm1.688,0V-9.953h3.309a4.3,4.3,0,0,1,2.584.68,2.357,2.357,0,0,1,.93,2.034,2,2,0,0,1-.39,1.21,2.3,2.3,0,0,1-1.08.793,2.219,2.219,0,0,1,1.367.854,2.519,2.519,0,0,1,.479,1.524A2.558,2.558,0,0,1-26.78-.728,3.963,3.963,0,0,1-29.309,0ZM-31.4-4.525v3.2h2.092a2,2,0,0,0,1.326-.393,1.407,1.407,0,0,0,.465-1.138,1.788,1.788,0,0,0-.39-1.23,1.549,1.549,0,0,0-1.217-.437Zm0-1.237h1.832a1.873,1.873,0,0,0,1.22-.366A1.261,1.261,0,0,0-27.9-7.164a1.291,1.291,0,0,0-.472-1.1,2.254,2.254,0,0,0-1.381-.359H-31.4Zm17.6-2.857h-3.008V0h-1.661V-8.62h-3.008V-9.953h7.677ZM-9.512-5.9l-.711-.027a1.49,1.49,0,0,0-.81.205,1.351,1.351,0,0,0-.5.581V0H-13.2V-7.4h1.518l.109,1.073a2.372,2.372,0,0,1,.721-.889,1.679,1.679,0,0,1,1.015-.321,1.548,1.548,0,0,1,.28.024,2.047,2.047,0,0,1,.239.058ZM-3.9,0q-.089-.28-.147-.547a3.909,3.909,0,0,1-.079-.533,2.935,2.935,0,0,1-.9.872A2.287,2.287,0,0,1-6.272.144,2.459,2.459,0,0,1-8.046-.451a2.16,2.16,0,0,1-.619-1.634,1.93,1.93,0,0,1,.848-1.671,4.093,4.093,0,0,1,2.386-.6h1.292V-5a1.2,1.2,0,0,0-.342-.909,1.356,1.356,0,0,0-.978-.328,1.384,1.384,0,0,0-.9.273.868.868,0,0,0-.335.7H-8.3L-8.3-5.3A1.832,1.832,0,0,1-7.52-6.856a3.317,3.317,0,0,1,2.164-.677,3.164,3.164,0,0,1,2.085.656A2.31,2.31,0,0,1-2.478-4.99V-1.7a6.064,6.064,0,0,0,.062.878,4.664,4.664,0,0,0,.2.824ZM-5.937-1.189A2.088,2.088,0,0,0-4.806-1.5a1.583,1.583,0,0,0,.667-.718V-3.315H-5.458a1.666,1.666,0,0,0-1.135.359A1.09,1.09,0,0,0-7-2.112a.861.861,0,0,0,.277.673A1.14,1.14,0,0,0-5.937-1.189ZM-1.042-3.6A4.878,4.878,0,0,1-.284-6.45,2.454,2.454,0,0,1,1.849-7.533a2.333,2.333,0,0,1,1.077.243A2.437,2.437,0,0,1,3.75-6.6v-4.067H5.411V0H4.016L3.852-.916A2.445,2.445,0,0,1,3-.126a2.4,2.4,0,0,1-1.162.27A2.517,2.517,0,0,1-.284-.848a4.17,4.17,0,0,1-.759-2.6Zm1.661.144a2.979,2.979,0,0,0,.393,1.634,1.376,1.376,0,0,0,1.248.608,1.668,1.668,0,0,0,.892-.226,1.717,1.717,0,0,0,.6-.643V-5.3a1.749,1.749,0,0,0-.6-.639,1.626,1.626,0,0,0-.875-.229,1.339,1.339,0,0,0-1.251.714A3.769,3.769,0,0,0,.619-3.6Zm9.748,3.6A3.216,3.216,0,0,1,7.861-.885a3.782,3.782,0,0,1-.933-2.642V-3.8a3.927,3.927,0,0,1,.926-2.676,2.93,2.93,0,0,1,2.321-1.056,2.891,2.891,0,0,1,2.293.906,3.549,3.549,0,0,1,.8,2.43v.978H8.651l-.014.034a2.329,2.329,0,0,0,.516,1.442,1.632,1.632,0,0,0,1.316.561,3.557,3.557,0,0,0,1.148-.164,3.763,3.763,0,0,0,.923-.472l.533,1.087a3.441,3.441,0,0,1-1.107.622A4.64,4.64,0,0,1,10.367.144ZM10.175-6.2a1.246,1.246,0,0,0-1.012.489,2.407,2.407,0,0,0-.492,1.241l.014.034h2.933v-.171a1.77,1.77,0,0,0-.359-1.148A1.31,1.31,0,0,0,10.175-6.2ZM23.7-2.557a1.282,1.282,0,0,0-.461-1.019,4.334,4.334,0,0,0-1.63-.711,6.9,6.9,0,0,1-2.567-1.159,2.307,2.307,0,0,1-.9-1.89,2.414,2.414,0,0,1,.995-1.982A4.039,4.039,0,0,1,21.7-10.1a3.826,3.826,0,0,1,2.635.882A2.632,2.632,0,0,1,25.3-7.1l-.014.041H23.69A1.6,1.6,0,0,0,23.17-8.3a2.121,2.121,0,0,0-1.483-.475,2.169,2.169,0,0,0-1.4.4A1.26,1.26,0,0,0,19.8-7.349a1.121,1.121,0,0,0,.53.943,5.867,5.867,0,0,0,1.753.711A5.839,5.839,0,0,1,24.524-4.5a2.5,2.5,0,0,1,.834,1.935,2.335,2.335,0,0,1-.995,1.979,4.3,4.3,0,0,1-2.615.735A4.645,4.645,0,0,1,19.014-.68a2.532,2.532,0,0,1-1.142-2.259l.014-.041h1.6a1.555,1.555,0,0,0,.629,1.357,2.754,2.754,0,0,0,1.634.448,2.406,2.406,0,0,0,1.436-.373A1.182,1.182,0,0,0,23.7-2.557ZM28.96-9.194v1.8h1.326v1.23H28.96v4.088a.891.891,0,0,0,.2.653.718.718,0,0,0,.526.195,1.469,1.469,0,0,0,.267-.024,1.621,1.621,0,0,0,.246-.065L30.375-.1a1.9,1.9,0,0,1-.506.181,2.812,2.812,0,0,1-.608.065,1.9,1.9,0,0,1-1.436-.537,2.35,2.35,0,0,1-.52-1.685V-6.166H26.178V-7.4h1.128v-1.8Zm2.5,5.428a4.029,4.029,0,0,1,.9-2.707,3.111,3.111,0,0,1,2.481-1.06,3.1,3.1,0,0,1,2.5,1.06,3.994,3.994,0,0,1,.909,2.707v.144A4.014,4.014,0,0,1,37.334-.9,3.1,3.1,0,0,1,34.853.144a3.124,3.124,0,0,1-2.5-1.053,4.023,4.023,0,0,1-.9-2.714Zm1.661.144a3.3,3.3,0,0,0,.424,1.764,1.429,1.429,0,0,0,1.313.677,1.436,1.436,0,0,0,1.3-.677,3.221,3.221,0,0,0,.438-1.764v-.144a3.18,3.18,0,0,0-.437-1.743,1.441,1.441,0,0,0-1.312-.69,1.429,1.429,0,0,0-1.3.69,3.282,3.282,0,0,0-.424,1.743ZM43.377-5.9l-.711-.027a1.49,1.49,0,0,0-.81.205,1.351,1.351,0,0,0-.5.581V0H39.693V-7.4H41.21l.109,1.073a2.372,2.372,0,0,1,.721-.889,1.679,1.679,0,0,1,1.015-.321,1.548,1.548,0,0,1,.28.024,2.047,2.047,0,0,1,.239.058ZM47.711.144A3.216,3.216,0,0,1,45.206-.885a3.782,3.782,0,0,1-.933-2.642V-3.8A3.927,3.927,0,0,1,45.2-6.477,2.93,2.93,0,0,1,47.52-7.533a2.891,2.891,0,0,1,2.293.906,3.549,3.549,0,0,1,.8,2.43v.978H46l-.014.034A2.329,2.329,0,0,0,46.5-1.743a1.632,1.632,0,0,0,1.316.561,3.557,3.557,0,0,0,1.148-.164,3.763,3.763,0,0,0,.923-.472l.533,1.087a3.441,3.441,0,0,1-1.107.622A4.64,4.64,0,0,1,47.711.144ZM47.52-6.2a1.246,1.246,0,0,0-1.012.489,2.407,2.407,0,0,0-.492,1.241l.014.034h2.933v-.171A1.77,1.77,0,0,0,48.6-5.756,1.31,1.31,0,0,0,47.52-6.2Z" transform="translate(1016.904 1560)" fill="#b4bbc6"/>
    <g id="Group_3739" data-name="Group 3739" transform="translate(996.866 1588.376)">
      <path id="Path_1150-2" data-name="Path 1150" d="M567.235,213.525c-.007.027-.013.054-.019.081a14.078,14.078,0,0,0,1.4,9.909c.071.128.147.252.219.38a1.076,1.076,0,0,1,.216.739.913.913,0,0,1-.405.615,1.887,1.887,0,0,1-.354.126c-.138.025-.278.05-.419.069a6.582,6.582,0,0,1-1.786-13.042c.018,0,.035,0,.053-.007a.975.975,0,0,1,.737.1.855.855,0,0,1,.357,1.028" transform="translate(-560.433 -193.031)" fill="#3d3d3d"/>
      <ellipse id="Ellipse_123-2" data-name="Ellipse 123" cx="12.285" cy="12.285" rx="12.285" ry="12.285" transform="translate(8.189 11.407)" fill="#d82225"/>
      <path id="Path_1151-2" data-name="Path 1151" d="M604.064,178.336c.271-.015.329-.009.6-.009a14.007,14.007,0,0,1,10.511,4.732,1.207,1.207,0,0,0,.824.547,1.013,1.013,0,0,0,.832-.288l.2-.17a8.335,8.335,0,1,0-13.975-6.137,1.651,1.651,0,0,0,.084.7.969.969,0,0,0,.92.626" transform="translate(-584.194 -168.675)" fill="#262626"/>
      <path id="Path_1152-2" data-name="Path 1152" d="M622.343,241.678q.107.143.206.294a5.558,5.558,0,1,1-9.407,5.919c-.045-.073-.085-.149-.129-.223a.742.742,0,0,1-.1-.708.794.794,0,0,1,.658-.481,4.31,4.31,0,0,0,.457-.123,14.046,14.046,0,0,0,6.755-4.341c.088-.1.17-.209.259-.311a.918.918,0,0,1,.413-.35.721.721,0,0,1,.635.07A.861.861,0,0,1,622.343,241.678Z" transform="translate(-589.663 -209.17)" fill="#3d3d3d"/>
    </g>
    <path id="Path_4788" data-name="Path 4788" d="M-6.111-4.478h-4.354v3.151h5.052V0h-6.713V-9.953h6.665V-8.62h-5v2.81h4.354Zm3.76.349V0H-4.013V-9.953H-.335A3.94,3.94,0,0,1,2.242-9.2a2.628,2.628,0,0,1,.909,2.146,2.22,2.22,0,0,1-.4,1.33,2.744,2.744,0,0,1-1.166.892,2.082,2.082,0,0,1,1.21.872,2.805,2.805,0,0,1,.369,1.487v.827a3.354,3.354,0,0,0,.109.854,1.2,1.2,0,0,0,.369.636V0H1.935a1.113,1.113,0,0,1-.352-.711,5.938,5.938,0,0,1-.079-.95v-.8a1.674,1.674,0,0,0-.437-1.217,1.6,1.6,0,0,0-1.2-.451Zm0-1.333H-.424a2.254,2.254,0,0,0,1.456-.383A1.437,1.437,0,0,0,1.49-7.014a1.546,1.546,0,0,0-.451-1.179A1.935,1.935,0,0,0-.335-8.62H-2.352Zm9.27,1.688V0H5.257V-9.953h3.89a3.687,3.687,0,0,1,2.581.851,2.886,2.886,0,0,1,.933,2.239,2.881,2.881,0,0,1-.933,2.246,3.706,3.706,0,0,1-2.581.844Zm0-1.333H9.146A1.821,1.821,0,0,0,10.534-5.6,1.749,1.749,0,0,0,11-6.85a1.8,1.8,0,0,0-.465-1.265A1.793,1.793,0,0,0,9.146-8.62H6.918Z" transform="translate(427.001 1560.398)" fill="#b4bbc6"/>
    <g id="Group_3740" data-name="Group 3740" transform="translate(7.964 1274.941)">
      <path id="Path_3617" data-name="Path 3617" d="M432.982,349l2.092,4.881v2.789H403v-2.789L405.092,349" transform="translate(0 -9.082)" fill="none" stroke="#526279" stroke-linecap="round" stroke-linejoin="round" stroke-width="1.5"/>
      <path id="Path_3618" data-name="Path 3618" d="M421,358.789v-1.395L422.395,356h4.213l1.365,1.395v1.395" transform="translate(-5.449 -11.201)" fill="none" stroke="#526279" stroke-linecap="round" stroke-linejoin="round" stroke-width="1.5"/>
      <path id="Path_3619" data-name="Path 3619" d="M433.891,326.67v13.248H406V319.693a.693.693,0,0,1,.693-.693h19.528" transform="translate(-0.908)" fill="none" stroke="#526279" stroke-linecap="round" stroke-linejoin="round" stroke-width="1.5"/>
      <path id="Path_3620" data-name="Path 3620" d="M413,332.248l9.064-8.367,6.973,2.092L436.01,319" transform="translate(-3.027)" fill="none" stroke="#526279" stroke-linecap="round" stroke-linejoin="round" stroke-width="1.5"/>
      <line id="Line_64" data-name="Line 64" x1="4" transform="translate(429.037 318.794)" fill="none" stroke="#526279" stroke-linecap="round" stroke-linejoin="round" stroke-width="1.5"/>
      <line id="Line_65" data-name="Line 65" x2="0.005" y2="3.474" transform="translate(432.977 319.012)" fill="none" stroke="#526279" stroke-linecap="round" stroke-linejoin="round" stroke-width="1.5"/>
      <path id="Path_3621" data-name="Path 3621" d="M416.184,347.486V344H412v3.486" transform="translate(-2.725 -7.568)" fill="none" stroke="#526279" stroke-linecap="round" stroke-linejoin="round" stroke-width="1.5"/>
      <path id="Path_3622" data-name="Path 3622" d="M427.184,346.578V341H423v5.578" transform="translate(-6.055 -6.66)" fill="none" stroke="#526279" stroke-linecap="round" stroke-linejoin="round" stroke-width="1.5"/>
      <path id="Path_3623" data-name="Path 3623" d="M438.184,345.367V337H434v8.367" transform="translate(-9.385 -5.449)" fill="none" stroke="#526279" stroke-linecap="round" stroke-linejoin="round" stroke-width="1.5"/>
    </g>
  </g>
</svg>
