<svg xmlns="http://www.w3.org/2000/svg" xmlns:xlink="http://www.w3.org/1999/xlink" width="958.928" height="522.615" viewBox="0 0 958.928 522.615">
  <defs>
    <filter id="Path_4453" x="218.336" y="0" width="522.615" height="522.615" filterUnits="userSpaceOnUse">
      <feOffset dy="20" input="SourceAlpha"/>
      <feGaussianBlur stdDeviation="49.5" result="blur"/>
      <feFlood flood-color="#3c485a" flood-opacity="0.149"/>
      <feComposite operator="in" in2="blur"/>
      <feComposite in="SourceGraphic"/>
    </filter>
    <filter id="Path_4454" x="0" y="62.648" width="368" height="368" filterUnits="userSpaceOnUse">
      <feOffset dy="5" input="SourceAlpha"/>
      <feGaussianBlur stdDeviation="49.5" result="blur-2"/>
      <feFlood flood-color="#3c485a" flood-opacity="0.102"/>
      <feComposite operator="in" in2="blur-2"/>
      <feComposite in="SourceGraphic"/>
    </filter>
    <filter id="Path_4455" x="590.928" y="63.029" width="368" height="368" filterUnits="userSpaceOnUse">
      <feOffset dy="5" input="SourceAlpha"/>
      <feGaussianBlur stdDeviation="49.5" result="blur-3"/>
      <feFlood flood-color="#3c485a" flood-opacity="0.102"/>
      <feComposite operator="in" in2="blur-3"/>
      <feComposite in="SourceGraphic"/>
    </filter>
  </defs>
  <g id="Group_3738" data-name="Group 3738" transform="translate(-242.328 -1366.336)">
    <path id="Path_4456" data-name="Path 4456" d="M0,0H128" transform="translate(448.828 1608.725)" fill="none" stroke="#cccdd7" stroke-linecap="round" stroke-width="3" stroke-dasharray="1 10"/>
    <path id="Path_4457" data-name="Path 4457" d="M0,0H128" transform="translate(994.823 1608.244) rotate(180)" fill="none" stroke="#cccdd7" stroke-linecap="round" stroke-width="3" stroke-dasharray="1 10"/>
    <path id="Path_4452" data-name="Path 4452" d="M145.144,0A145.144,145.144,0,1,1,0,145.144,145.144,145.144,0,0,1,145.144,0Z" transform="translate(576.828 1462.5)" fill="none" stroke="#d82125" stroke-linecap="round" stroke-width="3" stroke-dasharray="1 10"/>
    <g transform="matrix(1, 0, 0, 1, 242.33, 1366.34)" filter="url(#Path_4453)">
      <path id="Path_4453-2" data-name="Path 4453" d="M112.808,0A112.808,112.808,0,1,1,0,112.808,112.808,112.808,0,0,1,112.808,0Z" transform="translate(366.84 128.5)" fill="#fff"/>
    </g>
    <g id="Group_3109" data-name="Group 3109" transform="translate(664.992 1541.316)">
      <path id="Path_1150" data-name="Path 1150" d="M580.378,215.772c-.02.078-.038.157-.055.236a41.281,41.281,0,0,0,4.109,29.056c.209.375.431.74.641,1.113a3.156,3.156,0,0,1,.635,2.166,2.678,2.678,0,0,1-1.189,1.8,5.537,5.537,0,0,1-1.038.368c-.406.073-.815.147-1.229.2a19.3,19.3,0,0,1-5.236-38.244c.052-.006.1-.01.154-.021a2.858,2.858,0,0,1,2.16.306,2.506,2.506,0,0,1,1.046,3.014" transform="translate(-560.432 -155.676)" fill="#3d3d3d"/>
      <ellipse id="Ellipse_123" data-name="Ellipse 123" cx="36.023" cy="36.023" rx="36.023" ry="36.023" transform="translate(24.016 33.45)" fill="#d82225"/>
      <path id="Path_1151" data-name="Path 1151" d="M606.015,197c.8-.045.965-.026,1.774-.026a41.072,41.072,0,0,1,30.821,13.875,3.538,3.538,0,0,0,2.415,1.605,2.969,2.969,0,0,0,2.439-.845l.587-.5a24.442,24.442,0,1,0-40.978-18,4.842,4.842,0,0,0,.245,2.05,2.84,2.84,0,0,0,2.7,1.835" transform="translate(-547.751 -168.675)" fill="#262626"/>
      <path id="Path_1152" data-name="Path 1152" d="M640.66,242.385q.315.42.6.863A16.3,16.3,0,1,1,613.68,260.6c-.131-.214-.25-.436-.379-.653a2.176,2.176,0,0,1-.291-2.076,2.328,2.328,0,0,1,1.928-1.412,12.615,12.615,0,0,0,1.34-.362,41.185,41.185,0,0,0,19.807-12.728c.258-.3.5-.614.76-.911a2.69,2.69,0,0,1,1.212-1.026,2.115,2.115,0,0,1,1.863.206A2.526,2.526,0,0,1,640.66,242.385Z" transform="translate(-544.832 -147.062)" fill="#3d3d3d"/>
    </g>
    <g transform="matrix(1, 0, 0, 1, 242.33, 1366.34)" filter="url(#Path_4454)">
      <path id="Path_4454-2" data-name="Path 4454" d="M5.669,0H64.331A5.669,5.669,0,0,1,70,5.669V64.331A5.669,5.669,0,0,1,64.331,70H5.669A5.669,5.669,0,0,1,0,64.331V5.669A5.669,5.669,0,0,1,5.669,0Z" transform="translate(149 206.65)" fill="#fff" stroke="#b4bbc6" stroke-width="1"/>
    </g>
    <g transform="matrix(1, 0, 0, 1, 242.33, 1366.34)" filter="url(#Path_4455)">
      <path id="Path_4455-2" data-name="Path 4455" d="M5.669,0H64.331A5.669,5.669,0,0,1,70,5.669V64.331A5.669,5.669,0,0,1,64.331,70H5.669A5.669,5.669,0,0,1,0,64.331V5.669A5.669,5.669,0,0,1,5.669,0Z" transform="translate(739.93 207.03)" fill="#fff" stroke="#b4bbc6" stroke-width="1"/>
    </g>
    <text id="B2B_Trade_Store" data-name="B2B Trade Store" transform="translate(1016.904 1560)" fill="#b4bbc6" font-size="14" font-family="Roboto-Medium, Roboto" font-weight="500"><tspan x="-51.075" y="0">B2B Trade Store</tspan></text>
    <g id="Group_3739" data-name="Group 3739" transform="translate(996.866 1588.376)">
      <path id="Path_1150-2" data-name="Path 1150" d="M567.235,213.525c-.007.027-.013.054-.019.081a14.078,14.078,0,0,0,1.4,9.909c.071.128.147.252.219.38a1.076,1.076,0,0,1,.216.739.913.913,0,0,1-.405.615,1.887,1.887,0,0,1-.354.126c-.138.025-.278.05-.419.069a6.582,6.582,0,0,1-1.786-13.042c.018,0,.035,0,.053-.007a.975.975,0,0,1,.737.1.855.855,0,0,1,.357,1.028" transform="translate(-560.433 -193.031)" fill="#3d3d3d"/>
      <ellipse id="Ellipse_123-2" data-name="Ellipse 123" cx="12.285" cy="12.285" rx="12.285" ry="12.285" transform="translate(8.189 11.407)" fill="#d82225"/>
      <path id="Path_1151-2" data-name="Path 1151" d="M604.064,178.336c.271-.015.329-.009.6-.009a14.007,14.007,0,0,1,10.511,4.732,1.207,1.207,0,0,0,.824.547,1.013,1.013,0,0,0,.832-.288l.2-.17a8.335,8.335,0,1,0-13.975-6.137,1.651,1.651,0,0,0,.084.7.969.969,0,0,0,.92.626" transform="translate(-584.194 -168.675)" fill="#262626"/>
      <path id="Path_1152-2" data-name="Path 1152" d="M622.343,241.678q.107.143.206.294a5.558,5.558,0,1,1-9.407,5.919c-.045-.073-.085-.149-.129-.223a.742.742,0,0,1-.1-.708.794.794,0,0,1,.658-.481,4.31,4.31,0,0,0,.457-.123,14.046,14.046,0,0,0,6.755-4.341c.088-.1.17-.209.259-.311a.918.918,0,0,1,.413-.35.721.721,0,0,1,.635.07A.861.861,0,0,1,622.343,241.678Z" transform="translate(-589.663 -209.17)" fill="#3d3d3d"/>
    </g>
    <path id="Path_4788" data-name="Path 4788" d="M-6.111-4.478h-4.354v3.151h5.052V0h-6.713V-9.953h6.665V-8.62h-5v2.81h4.354Zm3.76.349V0H-4.013V-9.953H-.335A3.94,3.94,0,0,1,2.242-9.2a2.628,2.628,0,0,1,.909,2.146,2.22,2.22,0,0,1-.4,1.33,2.744,2.744,0,0,1-1.166.892,2.082,2.082,0,0,1,1.21.872,2.805,2.805,0,0,1,.369,1.487v.827a3.354,3.354,0,0,0,.109.854,1.2,1.2,0,0,0,.369.636V0H1.935a1.113,1.113,0,0,1-.352-.711,5.938,5.938,0,0,1-.079-.95v-.8a1.674,1.674,0,0,0-.437-1.217,1.6,1.6,0,0,0-1.2-.451Zm0-1.333H-.424a2.254,2.254,0,0,0,1.456-.383A1.437,1.437,0,0,0,1.49-7.014a1.546,1.546,0,0,0-.451-1.179A1.935,1.935,0,0,0-.335-8.62H-2.352Zm9.27,1.688V0H5.257V-9.953h3.89a3.687,3.687,0,0,1,2.581.851,2.886,2.886,0,0,1,.933,2.239,2.881,2.881,0,0,1-.933,2.246,3.706,3.706,0,0,1-2.581.844Zm0-1.333H9.146A1.821,1.821,0,0,0,10.534-5.6,1.749,1.749,0,0,0,11-6.85a1.8,1.8,0,0,0-.465-1.265A1.793,1.793,0,0,0,9.146-8.62H6.918Z" transform="translate(427.001 1560.398)" fill="#b4bbc6"/>
    <g id="Group_3740" data-name="Group 3740" transform="translate(7.964 1274.941)">
      <path id="Path_3617" data-name="Path 3617" d="M432.982,349l2.092,4.881v2.789H403v-2.789L405.092,349" transform="translate(0 -9.082)" fill="none" stroke="#526279" stroke-linecap="round" stroke-linejoin="round" stroke-width="1.5"/>
      <path id="Path_3618" data-name="Path 3618" d="M421,358.789v-1.395L422.395,356h4.213l1.365,1.395v1.395" transform="translate(-5.449 -11.201)" fill="none" stroke="#526279" stroke-linecap="round" stroke-linejoin="round" stroke-width="1.5"/>
      <path id="Path_3619" data-name="Path 3619" d="M433.891,326.67v13.248H406V319.693a.693.693,0,0,1,.693-.693h19.528" transform="translate(-0.908)" fill="none" stroke="#526279" stroke-linecap="round" stroke-linejoin="round" stroke-width="1.5"/>
      <path id="Path_3620" data-name="Path 3620" d="M413,332.248l9.064-8.367,6.973,2.092L436.01,319" transform="translate(-3.027)" fill="none" stroke="#526279" stroke-linecap="round" stroke-linejoin="round" stroke-width="1.5"/>
      <line id="Line_64" data-name="Line 64" x1="4" transform="translate(429.037 318.794)" fill="none" stroke="#526279" stroke-linecap="round" stroke-linejoin="round" stroke-width="1.5"/>
      <line id="Line_65" data-name="Line 65" x2="0.005" y2="3.474" transform="translate(432.977 319.012)" fill="none" stroke="#526279" stroke-linecap="round" stroke-linejoin="round" stroke-width="1.5"/>
      <path id="Path_3621" data-name="Path 3621" d="M416.184,347.486V344H412v3.486" transform="translate(-2.725 -7.568)" fill="none" stroke="#526279" stroke-linecap="round" stroke-linejoin="round" stroke-width="1.5"/>
      <path id="Path_3622" data-name="Path 3622" d="M427.184,346.578V341H423v5.578" transform="translate(-6.055 -6.66)" fill="none" stroke="#526279" stroke-linecap="round" stroke-linejoin="round" stroke-width="1.5"/>
      <path id="Path_3623" data-name="Path 3623" d="M438.184,345.367V337H434v8.367" transform="translate(-9.385 -5.449)" fill="none" stroke="#526279" stroke-linecap="round" stroke-linejoin="round" stroke-width="1.5"/>
    </g>
  </g>
</svg>
