<svg xmlns="http://www.w3.org/2000/svg" xmlns:xlink="http://www.w3.org/1999/xlink" width="558" height="910.803" viewBox="0 0 558 910.803">
  <defs>
    <filter id="Path_4536" x="0" y="0" width="348" height="348" filterUnits="userSpaceOnUse">
      <feOffset dy="5" input="SourceAlpha"/>
      <feGaussianBlur stdDeviation="49.5" result="blur"/>
      <feFlood flood-color="#3c485a" flood-opacity="0.102"/>
      <feComposite operator="in" in2="blur"/>
      <feComposite in="SourceGraphic"/>
    </filter>
    <filter id="Path_4537" x="70" y="0" width="348" height="348" filterUnits="userSpaceOnUse">
      <feOffset dy="5" input="SourceAlpha"/>
      <feGaussianBlur stdDeviation="49.5" result="blur-2"/>
      <feFlood flood-color="#3c485a" flood-opacity="0.102"/>
      <feComposite operator="in" in2="blur-2"/>
      <feComposite in="SourceGraphic"/>
    </filter>
    <filter id="Path_4538" x="140" y="0" width="348" height="348" filterUnits="userSpaceOnUse">
      <feOffset dy="5" input="SourceAlpha"/>
      <feGaussianBlur stdDeviation="49.5" result="blur-3"/>
      <feFlood flood-color="#3c485a" flood-opacity="0.102"/>
      <feComposite operator="in" in2="blur-3"/>
      <feComposite in="SourceGraphic"/>
    </filter>
    <filter id="Path_4539" x="210" y="0" width="348" height="348" filterUnits="userSpaceOnUse">
      <feOffset dy="5" input="SourceAlpha"/>
      <feGaussianBlur stdDeviation="49.5" result="blur-4"/>
      <feFlood flood-color="#3c485a" flood-opacity="0.102"/>
      <feComposite operator="in" in2="blur-4"/>
      <feComposite in="SourceGraphic"/>
    </filter>
    <filter id="Path_4534" x="30.711" y="249.41" width="499.074" height="499.074" filterUnits="userSpaceOnUse">
      <feOffset dy="20" input="SourceAlpha"/>
      <feGaussianBlur stdDeviation="49.5" result="blur-5"/>
      <feFlood flood-color="#3c485a" flood-opacity="0.149"/>
      <feComposite operator="in" in2="blur-5"/>
      <feComposite in="SourceGraphic"/>
    </filter>
    <filter id="Path_4532" x="105.439" y="562.803" width="348" height="348" filterUnits="userSpaceOnUse">
      <feOffset dy="5" input="SourceAlpha"/>
      <feGaussianBlur stdDeviation="49.5" result="blur-6"/>
      <feFlood flood-color="#3c485a" flood-opacity="0.102"/>
      <feComposite operator="in" in2="blur-6"/>
      <feComposite in="SourceGraphic"/>
    </filter>
  </defs>
  <g id="Group_3559" data-name="Group 3559" transform="translate(120 -2504.111)">
    <path id="Path_3773" data-name="Path 3773" d="M865.252,140.935l-18.486-2.121c-29.5-7.08-21.451-6.717-30.8-12.143l-16.441-14.884c-11.422-5.092-30.948-4.1-48.693-4.1H714.085" transform="translate(302.871 1959.027) rotate(90)" fill="none" stroke="#cccdd7" stroke-linecap="round" stroke-miterlimit="10" stroke-width="3" stroke-dasharray="1 10"/>
    <path id="Path_3774" data-name="Path 3774" d="M865.251,107.607l-18.486,2.127c-29.5,7.1-21.451,6.736-30.8,12.177l-16.441,14.925c-11.422,5.106-30.947,4.116-48.693,4.116H714.085" transform="translate(263.869 1959.027) rotate(90)" fill="none" stroke="#cccdd7" stroke-linecap="round" stroke-miterlimit="10" stroke-width="3" stroke-dasharray="1 10"/>
    <path id="Path_3775" data-name="Path 3775" d="M865.251,107.607l-18.486,6.507c-29.5,21.725-21.451,20.609-30.8,37.258l-16.441,45.668c-11.422,15.624-30.947,12.593-48.693,12.593H714.085" transform="translate(263.869 1959.027) rotate(90)" fill="none" stroke="#cccdd7" stroke-linecap="round" stroke-miterlimit="10" stroke-width="3" stroke-dasharray="1 10"/>
    <path id="Path_3776" data-name="Path 3776" d="M865.252,209.759l-18.486-6.5c-29.5-21.7-21.451-20.587-30.8-37.218l-16.441-45.619c-11.422-15.607-30.948-12.58-48.693-12.58H714.085" transform="translate(371.695 1959.027) rotate(90)" fill="none" stroke="#cccdd7" stroke-linecap="round" stroke-miterlimit="10" stroke-width="3" stroke-dasharray="1 10"/>
    <g transform="matrix(1, 0, 0, 1, -120, 2504.11)" filter="url(#Path_4536)">
      <path id="Path_4536-2" data-name="Path 4536" d="M5.669,0H44.331A5.669,5.669,0,0,1,50,5.669V44.331A5.669,5.669,0,0,1,44.331,50H5.669A5.669,5.669,0,0,1,0,44.331V5.669A5.669,5.669,0,0,1,5.669,0Z" transform="translate(149 144)" fill="#fff" stroke="#b4bbc6" stroke-width="1"/>
    </g>
    <g transform="matrix(1, 0, 0, 1, -120, 2504.11)" filter="url(#Path_4537)">
      <path id="Path_4537-2" data-name="Path 4537" d="M5.669,0H44.331A5.669,5.669,0,0,1,50,5.669V44.331A5.669,5.669,0,0,1,44.331,50H5.669A5.669,5.669,0,0,1,0,44.331V5.669A5.669,5.669,0,0,1,5.669,0Z" transform="translate(219 144)" fill="#fff" stroke="#b4bbc6" stroke-width="1"/>
    </g>
    <g transform="matrix(1, 0, 0, 1, -120, 2504.11)" filter="url(#Path_4538)">
      <path id="Path_4538-2" data-name="Path 4538" d="M5.669,0H44.331A5.669,5.669,0,0,1,50,5.669V44.331A5.669,5.669,0,0,1,44.331,50H5.669A5.669,5.669,0,0,1,0,44.331V5.669A5.669,5.669,0,0,1,5.669,0Z" transform="translate(289 144)" fill="#fff" stroke="#b4bbc6" stroke-width="1"/>
    </g>
    <g transform="matrix(1, 0, 0, 1, -120, 2504.11)" filter="url(#Path_4539)">
      <path id="Path_4539-2" data-name="Path 4539" d="M5.669,0H44.331A5.669,5.669,0,0,1,50,5.669V44.331A5.669,5.669,0,0,1,44.331,50H5.669A5.669,5.669,0,0,1,0,44.331V5.669A5.669,5.669,0,0,1,5.669,0Z" transform="translate(359 144)" fill="#fff" stroke="#b4bbc6" stroke-width="1"/>
    </g>
    <path id="Path_4540" data-name="Path 4540" d="M-25.586-7.109l2.046,5.469h.029l2.051-5.469h1.538V0h-1.187V-2.422l.117-3.081-.029,0L-23.13,0h-.8l-2.1-5.493-.029,0,.117,3.066V0h-1.187V-7.109ZM-15.337,0q-.063-.2-.1-.391A2.792,2.792,0,0,1-15.5-.771a2.1,2.1,0,0,1-.642.623A1.633,1.633,0,0,1-17.031.1,1.756,1.756,0,0,1-18.3-.322a1.543,1.543,0,0,1-.442-1.167,1.378,1.378,0,0,1,.605-1.194,2.924,2.924,0,0,1,1.7-.427h.923v-.464a.858.858,0,0,0-.244-.649.968.968,0,0,0-.7-.234.989.989,0,0,0-.645.2.62.62,0,0,0-.239.5h-1.143l0-.029A1.309,1.309,0,0,1-17.922-4.9a2.369,2.369,0,0,1,1.545-.483,2.26,2.26,0,0,1,1.489.469,1.65,1.65,0,0,1,.566,1.348v2.349a4.331,4.331,0,0,0,.044.627A3.332,3.332,0,0,0-14.136,0Zm-1.455-.85a1.492,1.492,0,0,0,.808-.225,1.131,1.131,0,0,0,.476-.513v-.781h-.942a1.19,1.19,0,0,0-.811.256.779.779,0,0,0-.293.6.615.615,0,0,0,.2.481A.814.814,0,0,0-16.792-.85Zm6.348-3.364-.508-.02a1.064,1.064,0,0,0-.579.146.965.965,0,0,0-.359.415V0h-1.187V-5.283h1.084l.078.767a1.694,1.694,0,0,1,.515-.635,1.2,1.2,0,0,1,.725-.229,1.106,1.106,0,0,1,.2.017,1.462,1.462,0,0,1,.171.042ZM-7.9-2.31h-.532V0H-9.609V-7.617h1.182v4.355h.493L-6.6-5.283h1.4l-1.743,2.4,2,2.881H-6.323ZM-2.217.1a2.3,2.3,0,0,1-1.79-.735A2.7,2.7,0,0,1-4.673-2.52v-.2a2.8,2.8,0,0,1,.662-1.912,2.093,2.093,0,0,1,1.658-.754,2.065,2.065,0,0,1,1.638.647A2.535,2.535,0,0,1-.146-3v.7h-3.3l-.01.024a1.664,1.664,0,0,0,.369,1.03,1.166,1.166,0,0,0,.94.4,2.541,2.541,0,0,0,.82-.117A2.688,2.688,0,0,0-.664-1.3l.381.776a2.458,2.458,0,0,1-.791.444A3.314,3.314,0,0,1-2.217.1Zm-.137-4.531a.89.89,0,0,0-.723.349,1.719,1.719,0,0,0-.352.886l.01.024h2.095v-.122a1.264,1.264,0,0,0-.256-.82A.936.936,0,0,0-2.354-4.429ZM2.285-6.567v1.284h.947V-4.4H2.285v2.92a.637.637,0,0,0,.142.466A.513.513,0,0,0,2.8-.879,1.049,1.049,0,0,0,2.993-.9a1.157,1.157,0,0,0,.176-.046L3.3-.073a1.361,1.361,0,0,1-.361.129A2.009,2.009,0,0,1,2.5.1,1.361,1.361,0,0,1,1.475-.281a1.679,1.679,0,0,1-.371-1.2V-4.4H.3v-.879H1.1V-6.567Zm6.631,4.1a2.979,2.979,0,0,1-.542,1.86A1.793,1.793,0,0,1,6.865.1a1.869,1.869,0,0,1-.8-.161,1.638,1.638,0,0,1-.6-.474V2.031H4.287V-5.283h1l.117.664a1.762,1.762,0,0,1,.613-.566,1.714,1.714,0,0,1,.833-.2,1.755,1.755,0,0,1,1.521.774,3.472,3.472,0,0,1,.544,2.039Zm-1.182-.1a2.574,2.574,0,0,0-.305-1.326.992.992,0,0,0-.911-.515,1.183,1.183,0,0,0-.63.159,1.168,1.168,0,0,0-.415.442v2.388a1.1,1.1,0,0,0,.415.427,1.265,1.265,0,0,0,.64.149,1.018,1.018,0,0,0,.906-.447,2.07,2.07,0,0,0,.3-1.174ZM11.216,0H10.029V-7.617h1.187Zm4.507,0q-.063-.2-.1-.391a2.792,2.792,0,0,1-.056-.381,2.1,2.1,0,0,1-.642.623A1.633,1.633,0,0,1,14.028.1a1.756,1.756,0,0,1-1.267-.425,1.543,1.543,0,0,1-.442-1.167,1.378,1.378,0,0,1,.605-1.194,2.924,2.924,0,0,1,1.7-.427h.923v-.464a.858.858,0,0,0-.244-.649.968.968,0,0,0-.7-.234.989.989,0,0,0-.645.2.62.62,0,0,0-.239.5H12.583l0-.029A1.309,1.309,0,0,1,13.137-4.9a2.369,2.369,0,0,1,1.545-.483,2.26,2.26,0,0,1,1.489.469,1.65,1.65,0,0,1,.566,1.348v2.349a4.331,4.331,0,0,0,.044.627A3.332,3.332,0,0,0,16.924,0ZM14.268-.85a1.492,1.492,0,0,0,.808-.225,1.131,1.131,0,0,0,.476-.513v-.781h-.942a1.19,1.19,0,0,0-.811.256.779.779,0,0,0-.293.6.615.615,0,0,0,.2.481A.814.814,0,0,0,14.268-.85Zm5.9,0A1.084,1.084,0,0,0,20.9-1.1a.812.812,0,0,0,.3-.642h1.074l.01.029a1.56,1.56,0,0,1-.6,1.279A2.246,2.246,0,0,1,20.166.1a2.191,2.191,0,0,1-1.79-.752,2.886,2.886,0,0,1-.623-1.9v-.171a2.888,2.888,0,0,1,.623-1.9,2.188,2.188,0,0,1,1.79-.754,2.173,2.173,0,0,1,1.545.554,1.784,1.784,0,0,1,.574,1.409l-.01.029H21.2a1.035,1.035,0,0,0-.286-.737.977.977,0,0,0-.745-.3,1,1,0,0,0-.947.486,2.422,2.422,0,0,0-.278,1.218v.171a2.427,2.427,0,0,0,.278,1.228A1,1,0,0,0,20.166-.845ZM25.5.1a2.3,2.3,0,0,1-1.79-.735,2.7,2.7,0,0,1-.667-1.887v-.2A2.8,2.8,0,0,1,23.7-4.626a2.093,2.093,0,0,1,1.658-.754A2.065,2.065,0,0,1,27-4.734,2.535,2.535,0,0,1,27.568-3v.7h-3.3l-.01.024a1.664,1.664,0,0,0,.369,1.03,1.166,1.166,0,0,0,.94.4,2.541,2.541,0,0,0,.82-.117,2.688,2.688,0,0,0,.659-.337l.381.776a2.458,2.458,0,0,1-.791.444A3.314,3.314,0,0,1,25.5.1Zm-.137-4.531a.89.89,0,0,0-.723.349,1.719,1.719,0,0,0-.352.886l.01.024h2.095v-.122a1.264,1.264,0,0,0-.256-.82A.936.936,0,0,0,25.361-4.429Z" transform="translate(54 2635)" fill="#b4bbc6" opacity="0.604"/>
    <path id="Path_4541" data-name="Path 4541" d="M-23.821-3.2h-3.11V-.947h3.608V0h-4.795V-7.109h4.761v.952h-3.574V-4.15h3.11Zm3.633.654h-2.563V-3.5h2.563Zm6.333.186.01.029a2.239,2.239,0,0,1-.7,1.755A2.735,2.735,0,0,1-16.5.1a2.637,2.637,0,0,1-2.024-.837A3.02,3.02,0,0,1-19.3-2.876V-4.229A3.053,3.053,0,0,1-18.53-6.37a2.582,2.582,0,0,1,2-.842,2.834,2.834,0,0,1,1.985.662,2.235,2.235,0,0,1,.706,1.78l-.01.029H-15a1.539,1.539,0,0,0-.388-1.118,1.524,1.524,0,0,0-1.145-.4,1.363,1.363,0,0,0-1.155.576,2.36,2.36,0,0,0-.427,1.445v1.362a2.339,2.339,0,0,0,.437,1.455A1.4,1.4,0,0,0-16.5-.845a1.482,1.482,0,0,0,1.118-.4A1.547,1.547,0,0,0-15-2.358Zm.8-.332a2.878,2.878,0,0,1,.645-1.934,2.222,2.222,0,0,1,1.772-.757,2.216,2.216,0,0,1,1.782.757A2.853,2.853,0,0,1-8.206-2.69v.1A2.867,2.867,0,0,1-8.855-.645,2.218,2.218,0,0,1-10.627.1,2.231,2.231,0,0,1-12.41-.649a2.874,2.874,0,0,1-.645-1.938Zm1.187.1a2.359,2.359,0,0,0,.3,1.26,1.021,1.021,0,0,0,.938.483A1.026,1.026,0,0,0-9.7-1.328a2.3,2.3,0,0,0,.313-1.26v-.1A2.271,2.271,0,0,0-9.7-3.936a1.029,1.029,0,0,0-.937-.493,1.021,1.021,0,0,0-.928.493,2.344,2.344,0,0,0-.3,1.245Zm5.781-2.7.063.688a1.791,1.791,0,0,1,.649-.581,1.915,1.915,0,0,1,.9-.205,1.63,1.63,0,0,1,.889.234,1.417,1.417,0,0,1,.557.7,1.851,1.851,0,0,1,.645-.688,1.738,1.738,0,0,1,.938-.249,1.562,1.562,0,0,1,1.257.544A2.51,2.51,0,0,1,.276-3.184V0H-.911V-3.188a1.483,1.483,0,0,0-.232-.947.862.862,0,0,0-.7-.273,1.018,1.018,0,0,0-.645.205,1.143,1.143,0,0,0-.381.552q0,.073,0,.127t0,.1V0H-4.041V-3.188a1.467,1.467,0,0,0-.237-.935.852.852,0,0,0-.7-.286,1.249,1.249,0,0,0-.613.139,1.026,1.026,0,0,0-.4.393V0H-7.17V-5.283Zm8.7,0,.063.688a1.791,1.791,0,0,1,.649-.581,1.915,1.915,0,0,1,.9-.205,1.63,1.63,0,0,1,.889.234,1.417,1.417,0,0,1,.557.7,1.851,1.851,0,0,1,.645-.688,1.738,1.738,0,0,1,.938-.249,1.562,1.562,0,0,1,1.257.544,2.51,2.51,0,0,1,.461,1.653V0H7.786V-3.188a1.483,1.483,0,0,0-.232-.947.862.862,0,0,0-.7-.273,1.018,1.018,0,0,0-.645.205,1.143,1.143,0,0,0-.381.552q0,.073,0,.127t0,.1V0H4.656V-3.188a1.467,1.467,0,0,0-.237-.935.852.852,0,0,0-.7-.286,1.249,1.249,0,0,0-.613.139,1.026,1.026,0,0,0-.4.393V0H1.526V-5.283ZM12.488.1A2.3,2.3,0,0,1,10.7-.632a2.7,2.7,0,0,1-.667-1.887v-.2a2.8,2.8,0,0,1,.662-1.912,2.093,2.093,0,0,1,1.658-.754,2.065,2.065,0,0,1,1.638.647A2.535,2.535,0,0,1,14.558-3v.7h-3.3l-.01.024a1.664,1.664,0,0,0,.369,1.03,1.166,1.166,0,0,0,.94.4,2.541,2.541,0,0,0,.82-.117,2.688,2.688,0,0,0,.659-.337l.381.776a2.458,2.458,0,0,1-.791.444A3.314,3.314,0,0,1,12.488.1Zm-.137-4.531a.89.89,0,0,0-.723.349,1.719,1.719,0,0,0-.352.886l.01.024h2.095v-.122a1.264,1.264,0,0,0-.256-.82A.936.936,0,0,0,12.351-4.429Zm5.8.215-.508-.02a1.064,1.064,0,0,0-.579.146.965.965,0,0,0-.359.415V0H15.515V-5.283H16.6l.078.767a1.694,1.694,0,0,1,.515-.635,1.2,1.2,0,0,1,.725-.229,1.106,1.106,0,0,1,.2.017,1.462,1.462,0,0,1,.171.042ZM21.16-.845a1.084,1.084,0,0,0,.732-.256.812.812,0,0,0,.3-.642h1.074l.01.029a1.56,1.56,0,0,1-.6,1.279A2.246,2.246,0,0,1,21.16.1a2.191,2.191,0,0,1-1.79-.752,2.886,2.886,0,0,1-.623-1.9v-.171a2.888,2.888,0,0,1,.623-1.9,2.188,2.188,0,0,1,1.79-.754,2.173,2.173,0,0,1,1.545.554,1.784,1.784,0,0,1,.574,1.409l-.01.029H22.19a1.035,1.035,0,0,0-.286-.737.977.977,0,0,0-.745-.3,1,1,0,0,0-.947.486,2.422,2.422,0,0,0-.278,1.218v.171a2.427,2.427,0,0,0,.278,1.228A1,1,0,0,0,21.16-.845ZM26.492.1A2.3,2.3,0,0,1,24.7-.632a2.7,2.7,0,0,1-.667-1.887v-.2A2.8,2.8,0,0,1,24.7-4.626a2.093,2.093,0,0,1,1.658-.754,2.065,2.065,0,0,1,1.638.647A2.535,2.535,0,0,1,28.562-3v.7h-3.3l-.01.024a1.664,1.664,0,0,0,.369,1.03,1.166,1.166,0,0,0,.94.4,2.541,2.541,0,0,0,.82-.117,2.688,2.688,0,0,0,.659-.337l.381.776a2.458,2.458,0,0,1-.791.444A3.314,3.314,0,0,1,26.492.1Zm-.137-4.531a.89.89,0,0,0-.723.349,1.719,1.719,0,0,0-.352.886l.01.024h2.095v-.122a1.264,1.264,0,0,0-.256-.82A.936.936,0,0,0,26.355-4.429Z" transform="translate(124 2635)" fill="#b4bbc6" opacity="0.604"/>
    <path id="Path_4542" data-name="Path 4542" d="M-8.472,0V-7.109h2.363a3.075,3.075,0,0,1,1.846.486A1.684,1.684,0,0,1-3.6-5.171a1.428,1.428,0,0,1-.278.864,1.644,1.644,0,0,1-.771.566,1.585,1.585,0,0,1,.977.61A1.8,1.8,0,0,1-3.33-2.041,1.827,1.827,0,0,1-3.984-.52,2.831,2.831,0,0,1-5.791,0Zm1.187-3.232V-.947h1.494a1.427,1.427,0,0,0,.947-.281,1,1,0,0,0,.332-.813A1.277,1.277,0,0,0-4.79-2.92a1.107,1.107,0,0,0-.869-.312Zm0-.884h1.309A1.338,1.338,0,0,0-5.1-4.377a.9.9,0,0,0,.32-.74A.922.922,0,0,0-5.122-5.9a1.61,1.61,0,0,0-.986-.256H-7.285ZM2.412,0H-2.31V-.815L0-3.34A5.618,5.618,0,0,0,.786-4.358,1.633,1.633,0,0,0,1-5.137a1.182,1.182,0,0,0-.278-.8A.943.943,0,0,0-.029-6.26a1.158,1.158,0,0,0-.928.352,1.433,1.433,0,0,0-.3.967H-2.407l-.01-.029A2.089,2.089,0,0,1-1.8-6.565,2.383,2.383,0,0,1-.029-7.212a2.256,2.256,0,0,1,1.621.566,1.948,1.948,0,0,1,.6,1.479A2.186,2.186,0,0,1,1.843-4,9.833,9.833,0,0,1,.776-2.646L-.806-.977l.015.029h3.2ZM3.618,0V-7.109H5.981a3.075,3.075,0,0,1,1.846.486,1.684,1.684,0,0,1,.664,1.453,1.428,1.428,0,0,1-.278.864,1.644,1.644,0,0,1-.771.566,1.585,1.585,0,0,1,.977.61A1.8,1.8,0,0,1,8.76-2.041,1.827,1.827,0,0,1,8.105-.52,2.831,2.831,0,0,1,6.3,0ZM4.8-3.232V-.947H6.3a1.427,1.427,0,0,0,.947-.281,1,1,0,0,0,.332-.813A1.277,1.277,0,0,0,7.3-2.92a1.107,1.107,0,0,0-.869-.312Zm0-.884H6.113a1.338,1.338,0,0,0,.872-.261.9.9,0,0,0,.32-.74A.922.922,0,0,0,6.968-5.9a1.61,1.61,0,0,0-.986-.256H4.8Z" transform="translate(194 2635)" fill="#b4bbc6" opacity="0.604"/>
    <path id="Path_4543" data-name="Path 4543" d="M-29.258,0V-7.109h2.3a2.981,2.981,0,0,1,2.2.845,2.937,2.937,0,0,1,.847,2.173v1.079A2.926,2.926,0,0,1-24.753-.84a2.99,2.99,0,0,1-2.2.84Zm1.187-6.157v5.21h1.084A1.752,1.752,0,0,0-25.6-1.523a2.176,2.176,0,0,0,.505-1.489V-4.1A2.161,2.161,0,0,0-25.6-5.581a1.752,1.752,0,0,0-1.389-.576Zm7.866,1.943-.508-.02a1.064,1.064,0,0,0-.579.146.965.965,0,0,0-.359.415V0h-1.187V-5.283h1.084l.078.767a1.694,1.694,0,0,1,.515-.635,1.2,1.2,0,0,1,.725-.229,1.106,1.106,0,0,1,.2.017,1.462,1.462,0,0,1,.171.042Zm.61,1.523a2.878,2.878,0,0,1,.645-1.934,2.222,2.222,0,0,1,1.772-.757,2.216,2.216,0,0,1,1.782.757,2.853,2.853,0,0,1,.649,1.934v.1A2.867,2.867,0,0,1-15.4-.645,2.218,2.218,0,0,1-17.168.1,2.231,2.231,0,0,1-18.95-.649a2.874,2.874,0,0,1-.645-1.938Zm1.187.1a2.359,2.359,0,0,0,.3,1.26,1.021,1.021,0,0,0,.938.483,1.026,1.026,0,0,0,.928-.483,2.3,2.3,0,0,0,.313-1.26v-.1a2.271,2.271,0,0,0-.312-1.245,1.029,1.029,0,0,0-.937-.493,1.021,1.021,0,0,0-.928.493,2.344,2.344,0,0,0-.3,1.245Zm9.326.122a2.979,2.979,0,0,1-.542,1.86A1.793,1.793,0,0,1-11.133.1a1.869,1.869,0,0,1-.8-.161,1.638,1.638,0,0,1-.6-.474V2.031h-1.187V-5.283h1l.117.664a1.762,1.762,0,0,1,.613-.566,1.714,1.714,0,0,1,.833-.2,1.755,1.755,0,0,1,1.521.774,3.472,3.472,0,0,1,.544,2.039Zm-1.182-.1a2.574,2.574,0,0,0-.305-1.326.992.992,0,0,0-.911-.515,1.183,1.183,0,0,0-.63.159,1.168,1.168,0,0,0-.415.442v2.388a1.1,1.1,0,0,0,.415.427,1.265,1.265,0,0,0,.64.149,1.018,1.018,0,0,0,.906-.447,2.07,2.07,0,0,0,.3-1.174Zm5.186,1.133a.552.552,0,0,0-.234-.454,2.338,2.338,0,0,0-.874-.317A3.628,3.628,0,0,1-7.62-2.776a1.192,1.192,0,0,1-.486-1,1.428,1.428,0,0,1,.562-1.133,2.233,2.233,0,0,1,1.479-.469A2.317,2.317,0,0,1-4.529-4.9a1.41,1.41,0,0,1,.544,1.179l-.01.029H-5.132a.744.744,0,0,0-.249-.562.957.957,0,0,0-.684-.234.978.978,0,0,0-.654.193.6.6,0,0,0-.225.471.529.529,0,0,0,.212.442,2.281,2.281,0,0,0,.862.291,3.631,3.631,0,0,1,1.477.579A1.22,1.22,0,0,1-3.911-1.5,1.385,1.385,0,0,1-4.5-.342,2.507,2.507,0,0,1-6.05.1,2.366,2.366,0,0,1-7.676-.425a1.49,1.49,0,0,1-.566-1.211l.01-.029h1.1A.791.791,0,0,0-6.8-1a1.334,1.334,0,0,0,.762.21,1.217,1.217,0,0,0,.708-.176A.551.551,0,0,0-5.078-1.436Zm3.4-3.164a1.883,1.883,0,0,1,.642-.576A1.729,1.729,0,0,1-.2-5.381a1.664,1.664,0,0,1,1.311.53,2.4,2.4,0,0,1,.471,1.633V0H.4V-3.228a1.338,1.338,0,0,0-.249-.9A.951.951,0,0,0-.6-4.409a1.325,1.325,0,0,0-.623.144,1.28,1.28,0,0,0-.457.4V0H-2.861V-7.617h1.187ZM4.082,0H2.9V-5.283H4.082Zm0-6.577H2.9v-1.04H4.082Zm5.957,4.111A2.979,2.979,0,0,1,9.5-.605,1.793,1.793,0,0,1,7.988.1a1.869,1.869,0,0,1-.8-.161,1.638,1.638,0,0,1-.6-.474V2.031H5.41V-5.283h1l.117.664a1.762,1.762,0,0,1,.613-.566,1.714,1.714,0,0,1,.833-.2,1.755,1.755,0,0,1,1.521.774,3.472,3.472,0,0,1,.544,2.039Zm-1.182-.1a2.574,2.574,0,0,0-.305-1.326.992.992,0,0,0-.911-.515,1.183,1.183,0,0,0-.63.159,1.168,1.168,0,0,0-.415.442v2.388a1.1,1.1,0,0,0,.415.427,1.265,1.265,0,0,0,.64.149,1.018,1.018,0,0,0,.906-.447,2.07,2.07,0,0,0,.3-1.174Zm6.846.1a2.979,2.979,0,0,1-.542,1.86A1.793,1.793,0,0,1,13.652.1a1.869,1.869,0,0,1-.8-.161,1.638,1.638,0,0,1-.6-.474V2.031H11.074V-5.283h1l.117.664a1.762,1.762,0,0,1,.613-.566,1.714,1.714,0,0,1,.833-.2,1.755,1.755,0,0,1,1.521.774A3.472,3.472,0,0,1,15.7-2.568Zm-1.182-.1a2.574,2.574,0,0,0-.305-1.326.992.992,0,0,0-.911-.515,1.183,1.183,0,0,0-.63.159,1.168,1.168,0,0,0-.415.442v2.388a1.1,1.1,0,0,0,.415.427,1.265,1.265,0,0,0,.64.149,1.018,1.018,0,0,0,.906-.447,2.07,2.07,0,0,0,.3-1.174ZM18,0H16.816V-5.283H18Zm0-6.577H16.816v-1.04H18Zm2.4,1.294.068.762a1.89,1.89,0,0,1,.652-.632,1.739,1.739,0,0,1,.886-.227,1.663,1.663,0,0,1,1.287.5,2.245,2.245,0,0,1,.461,1.56V0H22.573V-3.311a1.187,1.187,0,0,0-.247-.847,1.007,1.007,0,0,0-.75-.251,1.243,1.243,0,0,0-.62.154,1.282,1.282,0,0,0-.449.422V0H19.321V-5.283ZM24.78-2.568A3.44,3.44,0,0,1,25.332-4.6a1.776,1.776,0,0,1,1.533-.776,1.664,1.664,0,0,1,.833.2,1.759,1.759,0,0,1,.608.583l.117-.688h.986V0a1.994,1.994,0,0,1-.63,1.577,2.612,2.612,0,0,1-1.787.557,3.5,3.5,0,0,1-.833-.11,3.867,3.867,0,0,1-.808-.291L25.605.8a2.872,2.872,0,0,0,.647.237,3.1,3.1,0,0,0,.73.085,1.355,1.355,0,0,0,.942-.276,1.1,1.1,0,0,0,.3-.847V-.542a1.66,1.66,0,0,1-.588.481A1.773,1.773,0,0,1,26.855.1a1.824,1.824,0,0,1-1.523-.708,2.942,2.942,0,0,1-.552-1.86Zm1.187.1A2.074,2.074,0,0,0,26.257-1.3a1.006,1.006,0,0,0,.9.437,1.216,1.216,0,0,0,.642-.159,1.172,1.172,0,0,0,.422-.457V-3.794a1.268,1.268,0,0,0-.427-.452,1.158,1.158,0,0,0-.627-.164.976.976,0,0,0-.906.513,2.64,2.64,0,0,0-.3,1.328Z" transform="translate(264 2635)" fill="#b4bbc6" opacity="0.604"/>
    <g id="Group_3139" data-name="Group 3139" transform="translate(-333.031 2557.072)">
      <g id="Group_2956" data-name="Group 2956" transform="translate(376.714 106)">
        <path id="Path_3592" data-name="Path 3592" d="M378,125v7.967h19.611V125" transform="translate(-377.488 -113.356)" fill="none" stroke="#526279" stroke-linecap="round" stroke-linejoin="round" stroke-width="1"/>
        <path id="Path_3593" data-name="Path 3593" d="M397.611,109.064V106H378v3.064" transform="translate(-377.488 -106)" fill="none" stroke="#526279" stroke-linecap="round" stroke-linejoin="round" stroke-width="1"/>
        <rect id="Rectangle_590" data-name="Rectangle 590" width="6.191" height="4.815" transform="translate(4.127 12.557)" fill="none" stroke="#526279" stroke-linecap="round" stroke-linejoin="round" stroke-width="1"/>
        <rect id="Rectangle_591" data-name="Rectangle 591" width="4.127" height="6.879" transform="translate(13.757 12.557)" fill="none" stroke="#526279" stroke-linecap="round" stroke-linejoin="round" stroke-width="1"/>
        <line id="Line_52" data-name="Line 52" x1="19.948" transform="translate(0 6.366)" fill="none" stroke="#526279" stroke-linecap="round" stroke-linejoin="round" stroke-width="1"/>
      </g>
      <line id="Line_53" data-name="Line 53" x2="1.376" y2="3.439" transform="translate(396.661 108.927)" fill="none" stroke="#526279" stroke-linecap="round" stroke-linejoin="round" stroke-width="1"/>
      <path id="Path_3594" data-name="Path 3594" d="M376,114.064,377.226,111h19.611" transform="translate(0 -1.936)" fill="none" stroke="#526279" stroke-linecap="round" stroke-linejoin="round" stroke-width="1"/>
      <path id="Path_3595" data-name="Path 3595" d="M376,116v1.839a4.111,4.111,0,0,1,5.516,1.839,1.839,1.839,0,0,1,3.677,0,1.839,1.839,0,0,1,3.677,0,1.839,1.839,0,0,1,3.677,0,1.839,1.839,0,0,1,3.677,0,1.838,1.838,0,0,0,1.839-1.839V116Z" transform="translate(0 -3.872)" fill="none" stroke="#526279" stroke-linecap="round" stroke-linejoin="round" stroke-width="1"/>
    </g>
    <g id="Group_3137" data-name="Group 3137" transform="translate(-130.35 2487.072)">
      <path id="Path_3596" data-name="Path 3596" d="M263.229,192.493H247.454L244.585,176H241" fill="none" stroke="#526279" stroke-linecap="round" stroke-linejoin="round" stroke-width="1"/>
      <path id="Path_3597" data-name="Path 3597" d="M247,179h20.078l-2.151,10.756H249.151" transform="translate(-1.698 -0.849)" fill="none" stroke="#526279" stroke-linecap="round" stroke-linejoin="round" stroke-width="1"/>
      <line id="Line_54" data-name="Line 54" y2="10.756" transform="translate(250.322 178.151)" fill="none" stroke="#526279" stroke-linecap="round" stroke-linejoin="round" stroke-width="1"/>
      <line id="Line_55" data-name="Line 55" y2="10.756" transform="translate(255.342 178.151)" fill="none" stroke="#526279" stroke-linecap="round" stroke-linejoin="round" stroke-width="1"/>
      <line id="Line_56" data-name="Line 56" x1="17.927" transform="translate(246.02 183.171)" fill="none" stroke="#526279" stroke-linecap="round" stroke-linejoin="round" stroke-width="1"/>
      <line id="Line_57" data-name="Line 57" y2="10.756" transform="translate(260.361 178.151)" fill="none" stroke="#526279" stroke-linecap="round" stroke-linejoin="round" stroke-width="1"/>
      <circle id="Ellipse_214" data-name="Ellipse 214" cx="1.793" cy="1.793" r="1.793" transform="translate(248.888 192.493)" fill="none" stroke="#526279" stroke-linecap="round" stroke-linejoin="round" stroke-width="1"/>
      <circle id="Ellipse_215" data-name="Ellipse 215" cx="1.793" cy="1.793" r="1.793" transform="translate(258.21 192.493)" fill="none" stroke="#526279" stroke-linecap="round" stroke-linejoin="round" stroke-width="1"/>
    </g>
    <g id="Group_3138" data-name="Group 3138" transform="translate(-846.641 564.904)">
      <g id="Group_2960" data-name="Group 2960" transform="translate(1031.138 2095.9)">
        <path id="Path_3598" data-name="Path 3598" d="M1044.558,2120.047H1032.9a1.764,1.764,0,0,1-1.762-1.762v-20.623a1.764,1.764,0,0,1,1.762-1.762h11.657a1.765,1.765,0,0,1,1.762,1.762v20.623A1.764,1.764,0,0,1,1044.558,2120.047ZM1032.9,2096.5a1.165,1.165,0,0,0-1.164,1.164v20.623a1.165,1.165,0,0,0,1.164,1.164h11.657a1.165,1.165,0,0,0,1.164-1.164v-20.623a1.165,1.165,0,0,0-1.164-1.164Z" transform="translate(-1031.138 -2095.9)" fill="#526279" stroke="#526279" stroke-width="0.3"/>
      </g>
      <g id="Group_2961" data-name="Group 2961" transform="translate(1031.147 2098.932)">
        <rect id="Rectangle_595" data-name="Rectangle 595" width="14.575" height="17.361" transform="translate(0.299 0.299)" fill="#fff"/>
        <path id="Path_3599" data-name="Path 3599" d="M1046.218,2185.694h-14.575a.3.3,0,0,1-.3-.3v-17.362a.3.3,0,0,1,.3-.3h14.575a.3.3,0,0,1,.3.3v17.362A.3.3,0,0,1,1046.218,2185.694Zm-14.276-.6h13.977v-16.763h-13.977Z" transform="translate(-1031.344 -2167.734)" fill="#526279" stroke="#526279" stroke-width="0.3"/>
      </g>
      <path id="Path_3600" data-name="Path 3600" d="M1159.719,2132.518h-4.181a.261.261,0,0,1-.261-.261h0a.261.261,0,0,1,.261-.261h4.181a.261.261,0,0,1,.261.261h0A.261.261,0,0,1,1159.719,2132.518Z" transform="translate(-118.899 -34.573)" fill="#526279"/>
      <g id="Group_2962" data-name="Group 2962" transform="translate(1039.88 2099.038)">
        <line id="Line_58" data-name="Line 58" x1="2.056" y2="2.072" transform="translate(0.299 0.299)" fill="#fff" stroke="#526279" stroke-width="0.3"/>
        <path id="Path_3601" data-name="Path 3601" d="M1238.56,2172.923a.3.3,0,0,1-.212-.51l2.056-2.072a.3.3,0,1,1,.425.421l-2.056,2.072A.3.3,0,0,1,1238.56,2172.923Z" transform="translate(-1238.261 -2170.252)" fill="#526279" stroke="#526279" stroke-width="0.3"/>
      </g>
      <g id="Group_2963" data-name="Group 2963" transform="translate(1041.076 2099.038)">
        <line id="Line_59" data-name="Line 59" x1="3.652" y2="3.68" transform="translate(0.299 0.299)" fill="#fff" stroke="#526279" stroke-width="0.3"/>
        <path id="Path_3602" data-name="Path 3602" d="M1266.9,2174.53a.3.3,0,0,1-.212-.51l3.652-3.68a.3.3,0,1,1,.425.421l-3.651,3.68A.3.3,0,0,1,1266.9,2174.53Z" transform="translate(-1266.598 -2170.252)" fill="#526279" stroke="#526279" stroke-width="0.3"/>
      </g>
      <g id="Group_2964" data-name="Group 2964" transform="translate(1032.394 2112.972)">
        <line id="Line_60" data-name="Line 60" x1="3.296" y2="3.322" transform="translate(0.299 0.299)" fill="#fff" stroke="#526279" stroke-width="0.3"/>
        <path id="Path_3603" data-name="Path 3603" d="M1061.186,2504.278a.3.3,0,0,1-.212-.51l3.3-3.322a.3.3,0,1,1,.425.421l-3.3,3.322A.3.3,0,0,1,1061.186,2504.278Z" transform="translate(-1060.887 -2500.358)" fill="#526279" stroke="#526279" stroke-width="0.3"/>
      </g>
      <g id="Group_2965" data-name="Group 2965" transform="translate(1034.295 2102.591)">
        <path id="Path_3604" data-name="Path 3604" d="M1130.8,2262.668v7.874a1.157,1.157,0,0,1-1.152,1.149H1114.17a1.156,1.156,0,0,1-1.152-1.149v-7.874a1.151,1.151,0,0,1,1.152-1.143h15.476A1.151,1.151,0,0,1,1130.8,2262.668Z" transform="translate(-1112.719 -2261.226)" fill="#fff"/>
        <path id="Path_3605" data-name="Path 3605" d="M1122.857,2265.2h-15.476a1.451,1.451,0,0,1-1.451-1.449v-7.873a1.448,1.448,0,0,1,1.451-1.442h15.476a1.448,1.448,0,0,1,1.451,1.442v7.873A1.451,1.451,0,0,1,1122.857,2265.2Zm-15.476-10.166a.849.849,0,0,0-.853.844v7.873a.852.852,0,0,0,.853.851h15.476a.863.863,0,0,0,.853-.851v-7.873a.85.85,0,0,0-.853-.844Z" transform="translate(-1105.93 -2254.437)" fill="#526279" stroke="#526279" stroke-width="0.3"/>
      </g>
      <g id="Group_2966" data-name="Group 2966" transform="translate(1034.3 2104.396)">
        <path id="Path_3606" data-name="Path 3606" d="M1124.111,2300.147h-17.769a.3.3,0,0,1-.3-.3v-2.374a.3.3,0,0,1,.3-.3h17.769a.3.3,0,0,1,.3.3v2.374A.3.3,0,0,1,1124.111,2300.147Zm-17.47-.6h17.171v-1.775h-17.171Z" transform="translate(-1106.043 -2297.175)" fill="#526279" stroke="#526279" stroke-width="0.3"/>
      </g>
      <rect id="Rectangle_597" data-name="Rectangle 597" width="5.018" height="0.287" rx="0.143" transform="translate(1042.188 2109.679)" fill="#526279" stroke="#526279" stroke-width="0.2"/>
      <rect id="Rectangle_598" data-name="Rectangle 598" width="1.571" height="0.287" rx="0.143" transform="translate(1047.528 2109.679)" fill="#526279" stroke="#526279" stroke-width="0.2"/>
      <rect id="Rectangle_599" data-name="Rectangle 599" width="2.322" height="0.287" rx="0.143" transform="translate(1042.188 2110.395)" fill="#526279" stroke="#526279" stroke-width="0.2"/>
      <rect id="Rectangle_600" data-name="Rectangle 600" width="4.96" height="0.287" rx="0.143" transform="translate(1044.885 2110.395)" fill="#526279" stroke="#526279" stroke-width="0.2"/>
      <rect id="Rectangle_601" data-name="Rectangle 601" width="6.019" height="0.287" rx="0.143" transform="translate(1042.188 2111.072)" fill="#526279" stroke="#526279" stroke-width="0.2"/>
      <g id="Group_2967" data-name="Group 2967" transform="translate(1036.196 2108.584)">
        <path id="Path_3607" data-name="Path 3607" d="M1140.5,2413.666h-3.287a.724.724,0,0,1-.723-.724v-1.327a.724.724,0,0,1,.723-.724h3.287a.724.724,0,0,1,.723.724v1.327A.724.724,0,0,1,1140.5,2413.666Zm-3.287-2.176a.125.125,0,0,0-.125.125v1.327a.125.125,0,0,0,.125.125h3.287a.125.125,0,0,0,.125-.125v-1.327a.125.125,0,0,0-.125-.125Z" transform="translate(-1136.488 -2410.891)" fill="#526279" stroke="#526279" stroke-width="0.2"/>
      </g>
    </g>
    <g id="Group_3136" data-name="Group 3136" transform="translate(-76.031 242.002)">
      <g id="Group_2968" data-name="Group 2968" transform="translate(331.306 2433.546)">
        <rect id="Rectangle_602" data-name="Rectangle 602" width="17.629" height="16.323" rx="1.605" transform="translate(0 0)" fill="none" stroke="#526279" stroke-linecap="round" stroke-linejoin="round" stroke-width="1"/>
        <line id="Line_61" data-name="Line 61" y2="2.612" transform="translate(3.265 7.835)" fill="none" stroke="#526279" stroke-linecap="round" stroke-linejoin="round" stroke-width="1"/>
        <path id="Path_3608" data-name="Path 3608" d="M381.851,258.1l1.175-1.175L384.2,258.1" transform="translate(-379.746 -249.313)" fill="none" stroke="#526279" stroke-linecap="round" stroke-linejoin="round" stroke-width="1"/>
        <line id="Line_62" data-name="Line 62" x2="5.223" transform="translate(1.959 14.364)" fill="none" stroke="#526279" stroke-linecap="round" stroke-linejoin="round" stroke-width="1"/>
        <line id="Line_63" data-name="Line 63" x2="6.529" transform="translate(1.959 12.405)" fill="none" stroke="#526279" stroke-linecap="round" stroke-linejoin="round" stroke-width="1"/>
        <path id="Path_3609" data-name="Path 3609" d="M394.467,248.467l-1.64-1.093-1.093,1.093-1.093-1.093L389,248.467V243h5.467Z" transform="translate(-382.987 -243)" fill="none" stroke="#526279" stroke-linecap="round" stroke-linejoin="round" stroke-width="1"/>
      </g>
      <g id="Group_2969" data-name="Group 2969" transform="translate(330 2413.881)">
        <path id="Path_1157" data-name="Path 1157" d="M931.263,316.308c1.819,0,3.3.892,3.362,2.007h.012c.064-1.115,1.543-2.007,3.362-2.007s3.3.892,3.362,2.007h.042c.064-1.115,1.543-2.007,3.363-2.007s3.3.892,3.362,2.007h.006a10.12,10.12,0,1,0-20.239,0h.006C927.965,317.2,929.443,316.308,931.263,316.308Z" transform="translate(-927.895 -308.195)" fill="none" stroke="#526279" stroke-linecap="round" stroke-width="1"/>
        <path id="Path_1158" data-name="Path 1158" d="M934.984,325.652l.855,9.316-6.977-9.546" transform="translate(-928.294 -315.302)" fill="none" stroke="#526279" stroke-linecap="round" stroke-miterlimit="10" stroke-width="1" stroke-dasharray="0.5 2"/>
        <path id="Path_1159" data-name="Path 1159" d="M950.346,325.9l-.565,9.265,7.143-9.265" transform="translate(-936.924 -315.5)" fill="none" stroke="#526279" stroke-linecap="round" stroke-miterlimit="10" stroke-width="1" stroke-dasharray="0.5 2"/>
      </g>
    </g>
    <path id="Path_4535" data-name="Path 4535" d="M0,0V14.271" transform="translate(159.439 2829.613)" fill="none" stroke="#cccdd7" stroke-linecap="round" stroke-width="3" stroke-dasharray="1 10"/>
    <path id="Path_4533" data-name="Path 4533" d="M130,0A130,130,0,1,1,0,130,130,130,0,0,1,130,0Z" transform="translate(289.998 2853.309) rotate(90)" fill="none" stroke="#d82125" stroke-linecap="round" stroke-width="3" stroke-dasharray="1 10"/>
    <g transform="matrix(1, 0, 0, 1, -120, 2504.11)" filter="url(#Path_4534)">
      <path id="Path_4534-2" data-name="Path 4534" d="M101.037,0A101.037,101.037,0,1,1,0,101.037,101.037,101.037,0,0,1,101.037,0Z" transform="translate(179.21 377.91)" fill="#fff"/>
    </g>
    <g id="Group_3135" data-name="Group 3135" transform="translate(109.215 2923.65)">
      <path id="Path_1150" data-name="Path 1150" d="M578.3,215.416c-.018.07-.034.141-.049.212a36.974,36.974,0,0,0,3.681,26.024c.187.336.386.662.574,1a2.826,2.826,0,0,1,.568,1.94,2.4,2.4,0,0,1-1.065,1.615,4.96,4.96,0,0,1-.93.33c-.364.065-.73.131-1.1.18a17.287,17.287,0,0,1-4.689-34.253c.047-.006.093-.009.138-.019a2.559,2.559,0,0,1,1.935.274,2.245,2.245,0,0,1,.937,2.7" transform="translate(-560.432 -161.591)" fill="#3d3d3d"/>
      <ellipse id="Ellipse_123" data-name="Ellipse 123" cx="32.264" cy="32.264" rx="32.264" ry="32.264" transform="translate(21.51 29.96)" fill="#d82225"/>
      <path id="Path_1151" data-name="Path 1151" d="M605.706,194.048c.713-.041.865-.023,1.589-.023a36.787,36.787,0,0,1,27.6,12.427,3.169,3.169,0,0,0,2.163,1.438,2.659,2.659,0,0,0,2.185-.757l.525-.446a21.891,21.891,0,1,0-36.7-16.118,4.336,4.336,0,0,0,.22,1.836,2.544,2.544,0,0,0,2.416,1.643" transform="translate(-553.521 -168.675)" fill="#262626"/>
      <path id="Path_1152" data-name="Path 1152" d="M637.76,242.273q.282.376.54.773A14.6,14.6,0,1,1,613.6,258.591c-.117-.192-.224-.39-.339-.585a1.949,1.949,0,0,1-.26-1.859,2.085,2.085,0,0,1,1.727-1.264,11.294,11.294,0,0,0,1.2-.324,36.888,36.888,0,0,0,17.74-11.4c.231-.268.447-.55.681-.816a2.41,2.41,0,0,1,1.085-.919,1.9,1.9,0,0,1,1.669.185A2.263,2.263,0,0,1,637.76,242.273Z" transform="translate(-551.93 -156.896)" fill="#3d3d3d"/>
    </g>
    <path id="Path_4531" data-name="Path 4531" d="M0,0V102.834" transform="translate(159 3216.141) rotate(180)" fill="none" stroke="#cccdd7" stroke-linecap="round" stroke-width="3" stroke-dasharray="1 10"/>
    <g transform="matrix(1, 0, 0, 1, -120, 2504.11)" filter="url(#Path_4532)">
      <path id="Path_4532-2" data-name="Path 4532" d="M5.669,0H44.331A5.669,5.669,0,0,1,50,5.669V44.331A5.669,5.669,0,0,1,44.331,50H5.669A5.669,5.669,0,0,1,0,44.331V5.669A5.669,5.669,0,0,1,5.669,0Z" transform="translate(304.44 756.8) rotate(180)" fill="#fff" stroke="#b4bbc6" stroke-width="1"/>
    </g>
    <text id="Takealot" transform="translate(159 3284.987)" fill="#b4bbc6" font-size="10" font-family="Roboto-Medium, Roboto" font-weight="500"><tspan x="-19.194" y="0">Takealot</tspan></text>
    <g id="Group_3599" data-name="Group 3599" transform="translate(61.114 3132.403)">
      <path id="Path_3492" data-name="Path 3492" d="M2461.194,104.876a.27.27,0,0,1-.006.077,4.378,4.378,0,0,1-2.85,2.745,4.395,4.395,0,0,1-4.586-1.3,4.369,4.369,0,0,1-.564-.817,4.044,4.044,0,0,1-.462-1.376,5.2,5.2,0,0,1-.055-.788,4.382,4.382,0,0,1,1.565-3.26,4.383,4.383,0,0,1,1.612-.851,4.282,4.282,0,0,1,1.408-.166,4.373,4.373,0,0,1,3.761,2.518,4.326,4.326,0,0,1,.34,1.048,4.145,4.145,0,0,1,.063.549,4.322,4.322,0,0,1,0,.59c-.018.206-.059.411-.1.615-.022.122-.058.241-.089.361C2461.227,104.836,2461.211,104.85,2461.194,104.876Zm-3.2-2c0-.116,0-.211,0-.306,0-.043-.016-.061-.06-.061-.108,0-.217,0-.325,0-.053,0-.071.021-.071.073q0,.913,0,1.827c0,.055.022.072.073.071.106,0,.212,0,.318,0,.067,0,.085-.021.085-.086q0-.527.012-1.053a.459.459,0,0,1,.319-.436c.211-.049.354.007.4.22a.6.6,0,0,1,.008.129c0,.378,0,.756,0,1.133,0,.068.021.1.091.092.1,0,.2,0,.3,0s.109,0,.109-.108c0-.308-.005-.616,0-.924a1.031,1.031,0,0,1,.059-.329.377.377,0,0,1,.493-.2.311.311,0,0,1,.178.331c0,.38,0,.76,0,1.141,0,.067.018.1.089.093.106,0,.212,0,.318,0,.064,0,.082-.021.082-.084,0-.448,0-.9,0-1.343a.566.566,0,0,0-.223-.449.685.685,0,0,0-.954.147c-.033.046-.064.093-.1.145a.554.554,0,0,0-.573-.42A.689.689,0,0,0,2457.99,102.875Zm-1.548-.4a.859.859,0,0,0-.856.511,1.167,1.167,0,0,0-.075.786.958.958,0,0,0,.4.621.856.856,0,0,0,.537.119.847.847,0,0,0,.706-.42,1.187,1.187,0,0,0,.134-.848A.866.866,0,0,0,2456.442,102.473Zm-1.553.74c.12-.016.241-.032.361-.051a.049.049,0,0,0,.025-.041.822.822,0,0,0-.266-.5.761.761,0,0,0-.506-.149.787.787,0,0,0-.766.506,1.287,1.287,0,0,0-.048.907.783.783,0,0,0,.742.623.76.76,0,0,0,.644-.256.969.969,0,0,0,.2-.473c-.1-.012-.193-.021-.285-.034s-.134.006-.146.1a.211.211,0,0,1-.028.066.34.34,0,0,1-.271.2.311.311,0,0,1-.331-.169.884.884,0,0,1-.082-.258.991.991,0,0,1,.109-.675.321.321,0,0,1,.306-.154.3.3,0,0,1,.289.2C2454.859,103.1,2454.871,103.151,2454.889,103.212Z" transform="translate(-2340.766 0)" fill="#0077c2" fill-rule="evenodd"/>
      <path id="Path_3493" data-name="Path 3493" d="M679.42,160.3h-.086c-.5,0-1.006,0-1.509,0a.133.133,0,0,1-.14-.089q-.486-.986-.978-1.969c-.008-.017-.019-.033-.033-.058l-.323.354c-.162.178-.326.354-.485.535a.189.189,0,0,0-.044.113c0,.347,0,.693,0,1.04,0,.056-.015.075-.073.075-.421,0-.842,0-1.263,0-.021,0-.042,0-.067-.005v-6.973h1.433v3.988c.027-.024.042-.036.055-.05q.887-.983,1.773-1.967a.14.14,0,0,1,.117-.052c.52,0,1.04,0,1.559,0h.084l-1.722,1.865Z" transform="translate(-588.193 -53.407)" fill="#4b4d4f" fill-rule="evenodd"/>
      <path id="Path_3494" data-name="Path 3494" d="M1341.634,280.452a1.9,1.9,0,0,1,.432-1.192,1.678,1.678,0,0,1,.863-.463,5.114,5.114,0,0,1,1.45-.075,4.307,4.307,0,0,1,.72.1,1.349,1.349,0,0,1,1.026,1.025,2.838,2.838,0,0,1,.112.775q0,1.57,0,3.14v.1c-.027,0-.048.006-.068.006-.4,0-.794,0-1.191,0-.054,0-.086-.015-.1-.066-.056-.175-.112-.35-.167-.521-.044.043-.1.1-.159.155a1.939,1.939,0,0,1-1.393.546,2.046,2.046,0,0,1-.733-.09,1.305,1.305,0,0,1-.9-1.079,1.669,1.669,0,0,1,.106-.961,1.162,1.162,0,0,1,.715-.651c.3-.106.616-.181.927-.263.343-.091.689-.174,1.033-.262a.49.49,0,0,0,.278-.17.317.317,0,0,0,.023-.388.523.523,0,0,0-.378-.251,1.382,1.382,0,0,0-.516.017.491.491,0,0,0-.39.338.305.305,0,0,1-.354.233c-.416-.012-.832,0-1.249,0Zm3,1.018c-.1.04-.191.076-.281.108-.26.092-.522.178-.781.275a.653.653,0,0,0-.352.273.519.519,0,0,0,.352.779.967.967,0,0,0,.959-.528A2.226,2.226,0,0,0,1344.632,281.47Z" transform="translate(-1245.642 -176.978)" fill="#4b4d4f" fill-rule="evenodd"/>
      <path id="Path_3495" data-name="Path 3495" d="M324.409,280.572a5.4,5.4,0,0,1,.15-.69,1.428,1.428,0,0,1,1.046-.924,4.5,4.5,0,0,1,1.274-.119,4.7,4.7,0,0,1,.96.1,1.361,1.361,0,0,1,1.061.991,2.812,2.812,0,0,1,.123.981c-.007.137,0,.274,0,.411q0,1.285,0,2.57v.1c-.027,0-.048.005-.068.005-.395,0-.789,0-1.184,0a.1.1,0,0,1-.108-.069,1.594,1.594,0,0,1-.138-.49c0-.013-.005-.026-.01-.048l-.2.2a1.821,1.821,0,0,1-1.13.5,2.178,2.178,0,0,1-1.011-.09,1.31,1.31,0,0,1-.85-1.045,1.729,1.729,0,0,1,.036-.786,1.2,1.2,0,0,1,.687-.806,4.731,4.731,0,0,1,.894-.272q.563-.139,1.125-.28a.528.528,0,0,0,.326-.2.316.316,0,0,0,.013-.371.52.52,0,0,0-.383-.255,1.363,1.363,0,0,0-.53.023.509.509,0,0,0-.362.3c-.024.053-.046.106-.07.158a.161.161,0,0,1-.155.1q-.729,0-1.458,0A.188.188,0,0,1,324.409,280.572Zm3.009,1.032-.074.026c-.217.076-.436.148-.651.229a4.435,4.435,0,0,0-.5.211.525.525,0,0,0,.121.958.941.941,0,0,0,1.023-.575A2.387,2.387,0,0,0,327.418,281.6Z" transform="translate(-243.12 -177.11)" fill="#4b4d4f" fill-rule="evenodd"/>
      <path id="Path_3496" data-name="Path 3496" d="M989.683,282.564a2.092,2.092,0,0,1-.263.587,2.007,2.007,0,0,1-1.316.873,4.21,4.21,0,0,1-1.585.014,1.879,1.879,0,0,1-1.3-.916,2.831,2.831,0,0,1-.416-1.276,3.475,3.475,0,0,1,.133-1.412,2.194,2.194,0,0,1,1.412-1.482,2.794,2.794,0,0,1,.968-.125,2.934,2.934,0,0,1,1.1.2,2.022,2.022,0,0,1,1.106,1.184,3.338,3.338,0,0,1,.216,1.069c.011.218,0,.437,0,.663h-3.28a1.57,1.57,0,0,0,.094.477,1.124,1.124,0,0,0,.318.449.642.642,0,0,0,.531.148.991.991,0,0,0,.514-.169.728.728,0,0,0,.227-.31.09.09,0,0,1,.062-.05c.483.02.966.044,1.448.067A.2.2,0,0,1,989.683,282.564Zm-3.225-1.615h1.616a1.275,1.275,0,0,0-.154-.6.716.716,0,0,0-.787-.364.631.631,0,0,0-.34.176A1.145,1.145,0,0,0,986.458,280.949Z" transform="translate(-894.076 -177.1)" fill="#4b4d4f" fill-rule="evenodd"/>
      <path id="Path_3497" data-name="Path 3497" d="M1821.853,281.16a2.93,2.93,0,0,1-.347,1.5,2.165,2.165,0,0,1-1.663,1.144,2.931,2.931,0,0,1-1.277-.08,2.2,2.2,0,0,1-1.308-1.1,3.241,3.241,0,0,1-.052-2.743,2.207,2.207,0,0,1,1.783-1.3,2.877,2.877,0,0,1,1.406.146,2.145,2.145,0,0,1,1.2,1.15A2.913,2.913,0,0,1,1821.853,281.16Zm-3.282.115a3.7,3.7,0,0,0,.132.978.707.707,0,0,0,.869.526.721.721,0,0,0,.519-.573,4.2,4.2,0,0,0,.1-1.367,1.9,1.9,0,0,0-.153-.641.69.69,0,0,0-.906-.374.815.815,0,0,0-.456.563A3.106,3.106,0,0,0,1818.571,281.275Z" transform="translate(-1714.203 -176.83)" fill="#4b4d4f" fill-rule="evenodd"/>
      <path id="Path_3498" data-name="Path 3498" d="M80.7,158.714l.391,1.254c-.136.03-.263.061-.392.087a4.806,4.806,0,0,1-1.092.134,2.672,2.672,0,0,1-.577-.075,1.009,1.009,0,0,1-.725-.8,3.964,3.964,0,0,1-.1-1.009c0-.671,0-1.343,0-2.014v-.1h-.6V155.03h.6v-1.924h1.644c0,.028,0,.058,0,.088,0,.582,0,1.165,0,1.747,0,.071.021.088.089.087.245,0,.491,0,.736,0h.082v1.162c-.024,0-.049,0-.075,0-.253,0-.505,0-.758,0-.052,0-.072.013-.071.069,0,.669,0,1.338,0,2.007a1.752,1.752,0,0,0,.021.266.311.311,0,0,0,.406.285C80.417,158.791,80.553,158.751,80.7,158.714Z" transform="translate(0 -53.194)" fill="#4b4d4f" fill-rule="evenodd"/>
      <path id="Path_3499" data-name="Path 3499" d="M2156.267,156.193v-1.166h.134c.13,0,.26,0,.39,0,.063,0,.082-.016.082-.08,0-.582,0-1.165,0-1.747v-.095h1.64v1.918h.907v1.165c-.023,0-.048,0-.073,0-.253,0-.506,0-.758,0-.057,0-.074.015-.073.073,0,.679,0,1.357,0,2.036a1.68,1.68,0,0,0,.015.216.317.317,0,0,0,.409.3c.141-.027.279-.068.427-.1.128.411.257.827.391,1.255-.133.03-.26.061-.389.086a4.926,4.926,0,0,1-1.092.135,2.819,2.819,0,0,1-.535-.062.994.994,0,0,1-.752-.75,3.551,3.551,0,0,1-.116-1.028q0-1.036,0-2.072c0-.065-.016-.087-.084-.085C2156.618,156.2,2156.448,156.193,2156.267,156.193Z" transform="translate(-2048.644 -53.194)" fill="#4b4d4f" fill-rule="evenodd"/>
      <path id="Path_3500" data-name="Path 3500" d="M1693.325,160.379h-.076c-.44,0-.881,0-1.321,0-.068,0-.083-.021-.083-.086q0-3.4,0-6.793v-.079h1.479Z" transform="translate(-1590.928 -53.508)" fill="#4b4d4f" fill-rule="evenodd"/>
      <path id="Path_3501" data-name="Path 3501" d="M2790.057,330.658a.688.688,0,0,1,.621-.4.554.554,0,0,1,.573.42c.036-.052.068-.1.1-.145a.685.685,0,0,1,.954-.147.566.566,0,0,1,.223.449c0,.448,0,.9,0,1.343,0,.062-.018.086-.082.084-.106,0-.212,0-.317,0-.072,0-.09-.026-.089-.093,0-.38,0-.76,0-1.141a.311.311,0,0,0-.178-.331.377.377,0,0,0-.493.2,1.031,1.031,0,0,0-.059.329c-.007.308,0,.616,0,.924,0,.106,0,.107-.109.108s-.2,0-.3,0c-.071,0-.091-.025-.091-.092,0-.378,0-.756,0-1.133a.6.6,0,0,0-.007-.129c-.047-.213-.19-.27-.4-.22a.459.459,0,0,0-.319.436q-.011.527-.012,1.053c0,.065-.018.089-.085.086-.106,0-.212,0-.318,0-.051,0-.073-.016-.073-.071q0-.913,0-1.827c0-.052.017-.075.071-.073.108,0,.217,0,.325,0,.043,0,.06.018.06.061C2790.055,330.447,2790.057,330.542,2790.057,330.658Z" transform="translate(-2672.833 -227.783)" fill="#fff" fill-rule="evenodd"/>
      <path id="Path_3502" data-name="Path 3502" d="M2647.964,330.356a.865.865,0,0,1,.845.768,1.189,1.189,0,0,1-.134.848.935.935,0,0,1-1.244.3.957.957,0,0,1-.4-.621,1.167,1.167,0,0,1,.075-.786A.859.859,0,0,1,2647.964,330.356Zm.392,1.028a3.312,3.312,0,0,0-.063-.359.383.383,0,0,0-.728-.051,1.02,1.02,0,0,0,.008.819.35.35,0,0,0,.365.217.346.346,0,0,0,.341-.25A3.3,3.3,0,0,0,2648.356,331.384Z" transform="translate(-2532.289 -227.883)" fill="#fff" fill-rule="evenodd"/>
      <path id="Path_3503" data-name="Path 3503" d="M2520.373,331.28c-.018-.061-.03-.112-.049-.161a.3.3,0,0,0-.289-.2.321.321,0,0,0-.306.154.992.992,0,0,0-.109.675.87.87,0,0,0,.082.258.31.31,0,0,0,.331.169.34.34,0,0,0,.272-.2.211.211,0,0,0,.028-.066c.013-.089.067-.107.146-.1s.184.022.285.034a.971.971,0,0,1-.2.473.761.761,0,0,1-.644.256.783.783,0,0,1-.742-.623,1.285,1.285,0,0,1,.048-.907.786.786,0,0,1,.766-.506.76.76,0,0,1,.506.149.821.821,0,0,1,.266.5.049.049,0,0,1-.025.041C2520.614,331.248,2520.493,331.264,2520.373,331.28Z" transform="translate(-2406.25 -228.068)" fill="#fff" fill-rule="evenodd"/>
      <path id="Path_3504" data-name="Path 3504" d="M1457.171,470.273a2.224,2.224,0,0,1-.1.907.967.967,0,0,1-.959.528.519.519,0,0,1-.352-.779.653.653,0,0,1,.352-.273c.258-.1.52-.183.78-.275C1456.98,470.349,1457.068,470.313,1457.171,470.273Z" transform="translate(-1358.181 -365.781)" fill="#fff" fill-rule="evenodd"/>
      <path id="Path_3505" data-name="Path 3505" d="M440.008,470.416a2.385,2.385,0,0,1-.078.85.941.941,0,0,1-1.023.575.525.525,0,0,1-.121-.958,4.438,4.438,0,0,1,.5-.211c.215-.081.434-.153.651-.229Z" transform="translate(-355.71 -365.922)" fill="#fff" fill-rule="evenodd"/>
      <path id="Path_3506" data-name="Path 3506" d="M1100.843,358.838a1.145,1.145,0,0,1,.335-.791.631.631,0,0,1,.34-.176.716.716,0,0,1,.787.363,1.274,1.274,0,0,1,.154.6Z" transform="translate(-1008.461 -254.989)" fill="#fff" fill-rule="evenodd"/>
      <path id="Path_3507" data-name="Path 3507" d="M1930.832,364.1a3.114,3.114,0,0,1,.1-.889.814.814,0,0,1,.457-.563.689.689,0,0,1,.906.374,1.9,1.9,0,0,1,.153.641,4.2,4.2,0,0,1-.1,1.367.721.721,0,0,1-.519.573.707.707,0,0,1-.87-.526A3.707,3.707,0,0,1,1930.832,364.1Z" transform="translate(-1826.465 -259.653)" fill="#fff" fill-rule="evenodd"/>
      <path id="Path_3508" data-name="Path 3508" d="M2681.38,357.245a3.246,3.246,0,0,1-.077.376.384.384,0,0,1-.707.033,1.018,1.018,0,0,1-.008-.819.383.383,0,0,1,.728.051A3.374,3.374,0,0,1,2681.38,357.245Z" transform="translate(-2565.313 -253.744)" fill="#0077c2" fill-rule="evenodd"/>
    </g>
  </g>
</svg>
