<svg xmlns="http://www.w3.org/2000/svg" xmlns:xlink="http://www.w3.org/1999/xlink" width="499.074" height="852.803" viewBox="0 0 499.074 852.803">
  <defs>
    <filter id="Path_4526" x="0" y="191.41" width="499.074" height="499.074" filterUnits="userSpaceOnUse">
      <feOffset dy="20" input="SourceAlpha"/>
      <feGaussianBlur stdDeviation="49.5" result="blur"/>
      <feFlood flood-color="#3c485a" flood-opacity="0.149"/>
      <feComposite operator="in" in2="blur"/>
      <feComposite in="SourceGraphic"/>
    </filter>
    <filter id="Path_4528" x="74.289" y="0" width="348" height="348" filterUnits="userSpaceOnUse">
      <feOffset dy="5" input="SourceAlpha"/>
      <feGaussianBlur stdDeviation="49.5" result="blur-2"/>
      <feFlood flood-color="#3c485a" flood-opacity="0.102"/>
      <feComposite operator="in" in2="blur-2"/>
      <feComposite in="SourceGraphic"/>
    </filter>
    <filter id="Path_4522" x="74.289" y="504.803" width="348" height="348" filterUnits="userSpaceOnUse">
      <feOffset dy="5" input="SourceAlpha"/>
      <feGaussianBlur stdDeviation="49.5" result="blur-3"/>
      <feFlood flood-color="#3c485a" flood-opacity="0.102"/>
      <feComposite operator="in" in2="blur-3"/>
      <feComposite in="SourceGraphic"/>
    </filter>
  </defs>
  <g id="Group_3558" data-name="Group 3558" transform="translate(89.026 -1562.961)">
    <path id="Path_4527" data-name="Path 4527" d="M0,0V102.834" transform="translate(159.702 1751.734)" fill="none" stroke="#cccdd7" stroke-linecap="round" stroke-width="3" stroke-dasharray="1 10"/>
    <path id="Path_4524" data-name="Path 4524" d="M0,0V102.834" transform="translate(158.823 2216.99) rotate(180)" fill="none" stroke="#cccdd7" stroke-linecap="round" stroke-width="3" stroke-dasharray="1 10"/>
    <path id="Path_4525" data-name="Path 4525" d="M130,0A130,130,0,1,1,0,130,130,130,0,0,1,130,0Z" transform="translate(290.261 1854.158) rotate(90)" fill="none" stroke="#d82125" stroke-linecap="round" stroke-width="3" stroke-dasharray="1 10"/>
    <g transform="matrix(1, 0, 0, 1, -89.03, 1562.96)" filter="url(#Path_4526)">
      <path id="Path_4526-2" data-name="Path 4526" d="M101.037,0A101.037,101.037,0,1,1,0,101.037,101.037,101.037,0,0,1,101.037,0Z" transform="translate(148.5 319.91)" fill="#fff"/>
    </g>
    <g id="Group_3147" data-name="Group 3147" transform="translate(109.478 1924.5)">
      <path id="Path_1150" data-name="Path 1150" d="M578.3,215.416c-.018.07-.034.141-.049.212a36.974,36.974,0,0,0,3.681,26.024c.187.336.386.662.574,1a2.826,2.826,0,0,1,.568,1.94,2.4,2.4,0,0,1-1.065,1.615,4.96,4.96,0,0,1-.93.33c-.364.065-.73.131-1.1.18a17.287,17.287,0,0,1-4.689-34.253c.047-.006.093-.009.138-.019a2.559,2.559,0,0,1,1.935.274,2.245,2.245,0,0,1,.937,2.7" transform="translate(-560.432 -161.591)" fill="#3d3d3d"/>
      <ellipse id="Ellipse_123" data-name="Ellipse 123" cx="32.264" cy="32.264" rx="32.264" ry="32.264" transform="translate(21.51 29.96)" fill="#d82225"/>
      <path id="Path_1151" data-name="Path 1151" d="M605.706,194.048c.713-.041.865-.023,1.589-.023a36.787,36.787,0,0,1,27.6,12.427,3.169,3.169,0,0,0,2.163,1.438,2.659,2.659,0,0,0,2.185-.757l.525-.446a21.891,21.891,0,1,0-36.7-16.118,4.336,4.336,0,0,0,.22,1.836,2.544,2.544,0,0,0,2.416,1.643" transform="translate(-553.521 -168.675)" fill="#262626"/>
      <path id="Path_1152" data-name="Path 1152" d="M637.76,242.273q.282.376.54.773A14.6,14.6,0,1,1,613.6,258.591c-.117-.192-.224-.39-.339-.585a1.949,1.949,0,0,1-.26-1.859,2.085,2.085,0,0,1,1.727-1.264,11.294,11.294,0,0,0,1.2-.324,36.888,36.888,0,0,0,17.74-11.4c.231-.268.447-.55.681-.816a2.41,2.41,0,0,1,1.085-.919,1.9,1.9,0,0,1,1.669.185A2.263,2.263,0,0,1,637.76,242.273Z" transform="translate(-551.93 -156.896)" fill="#3d3d3d"/>
    </g>
    <g transform="matrix(1, 0, 0, 1, -89.03, 1562.96)" filter="url(#Path_4528)">
      <path id="Path_4528-2" data-name="Path 4528" d="M5.669,0H44.331A5.669,5.669,0,0,1,50,5.669V44.331A5.669,5.669,0,0,1,44.331,50H5.669A5.669,5.669,0,0,1,0,44.331V5.669A5.669,5.669,0,0,1,5.669,0Z" transform="translate(223.29 144)" fill="#fff" stroke="#b4bbc6" stroke-width="1"/>
    </g>
    <g transform="matrix(1, 0, 0, 1, -89.03, 1562.96)" filter="url(#Path_4522)">
      <path id="Path_4522-2" data-name="Path 4522" d="M5.669,0H44.331A5.669,5.669,0,0,1,50,5.669V44.331A5.669,5.669,0,0,1,44.331,50H5.669A5.669,5.669,0,0,1,0,44.331V5.669A5.669,5.669,0,0,1,5.669,0Z" transform="translate(273.29 698.8) rotate(180)" fill="#fff" stroke="#b4bbc6" stroke-width="1"/>
    </g>
    <g id="Group_3616" data-name="Group 3616" transform="translate(63.352 1432.554)">
      <g id="Group_2978" data-name="Group 2978" transform="translate(93.252 794.291)">
        <path id="Path_3624" data-name="Path 3624" d="M127.393,802.513a2.659,2.659,0,1,0,2.659,2.659A2.662,2.662,0,0,0,127.393,802.513Zm0,4.5a1.836,1.836,0,1,1,1.836-1.836A1.838,1.838,0,0,1,127.393,807.008Z" transform="translate(-124.734 -802.513)" fill="#526279" stroke="#526279" stroke-width="0.3"/>
      </g>
      <g id="Group_2979" data-name="Group 2979" transform="translate(99.704 798.786)">
        <path id="Path_3625" data-name="Path 3625" d="M151.759,820.481h-.823a.411.411,0,0,0,0,.823h.823a.411.411,0,1,0,0-.823Z" transform="translate(-150.525 -820.481)" fill="#526279" stroke="#526279" stroke-width="0.3"/>
      </g>
      <g id="Group_2980" data-name="Group 2980" transform="translate(102.583 798.786)">
        <path id="Path_3626" data-name="Path 3626" d="M163.268,820.481h-.823a.411.411,0,0,0,0,.823h.823a.411.411,0,1,0,0-.823Z" transform="translate(-162.034 -820.481)" fill="#526279" stroke="#526279" stroke-width="0.3"/>
      </g>
      <g id="Group_2981" data-name="Group 2981" transform="translate(87.592 798.786)">
        <path id="Path_3627" data-name="Path 3627" d="M103.345,820.481h-.822a.411.411,0,1,0,0,.823h.822a.411.411,0,1,0,0-.823Z" transform="translate(-102.111 -820.481)" fill="#526279" stroke="#526279" stroke-width="0.3"/>
      </g>
      <g id="Group_2982" data-name="Group 2982" transform="translate(90.471 798.786)">
        <path id="Path_3628" data-name="Path 3628" d="M114.854,820.481h-.822a.411.411,0,1,0,0,.823h.822a.411.411,0,1,0,0-.823Z" transform="translate(-113.62 -820.481)" fill="#526279" stroke="#526279" stroke-width="0.3"/>
      </g>
      <g id="Group_2983" data-name="Group 2983" transform="translate(89.611 810.181)">
        <path id="Path_3629" data-name="Path 3629" d="M115.656,866.03h-5.066a.412.412,0,0,0-.412.411v4.172a.411.411,0,0,0,.412.411h5.066a.411.411,0,0,0,.411-.411v-4.172A.411.411,0,0,0,115.656,866.03Zm-.412,4.172H111v-3.349h1.71v.647a.411.411,0,0,0,.823,0v-.647h1.71Z" transform="translate(-110.179 -866.03)" fill="#526279" stroke="#526279" stroke-width="0.3"/>
      </g>
      <g id="Group_2984" data-name="Group 2984" transform="translate(96.322 810.181)">
        <path id="Path_3630" data-name="Path 3630" d="M142.482,866.03h-5.065a.411.411,0,0,0-.412.411v4.172a.411.411,0,0,0,.412.411h5.065a.411.411,0,0,0,.411-.411v-4.172A.411.411,0,0,0,142.482,866.03Zm-.412,4.172h-4.243v-3.349h1.71v.647a.411.411,0,0,0,.823,0v-.647h1.71Z" transform="translate(-137.005 -866.03)" fill="#526279" stroke="#526279" stroke-width="0.3"/>
      </g>
      <g id="Group_2985" data-name="Group 2985" transform="translate(96.322 804.481)">
        <path id="Path_3631" data-name="Path 3631" d="M142.482,843.244h-5.065a.411.411,0,0,0-.412.411v4.172a.412.412,0,0,0,.412.412h5.065a.411.411,0,0,0,.411-.412v-4.172A.411.411,0,0,0,142.482,843.244Zm-.412,4.172h-4.243v-3.349h1.71v.647a.411.411,0,0,0,.823,0v-.647h1.71Z" transform="translate(-137.005 -843.244)" fill="#526279" stroke="#526279" stroke-width="0.3"/>
      </g>
      <g id="Group_2986" data-name="Group 2986" transform="translate(82.748 791.548)">
        <path id="Path_3632" data-name="Path 3632" d="M108.663,816.049h-.991V799.264l.783.455a.411.411,0,1,0,.413-.712l-12.751-7.4a.412.412,0,0,0-.413,0l-12.751,7.4a.411.411,0,0,0,.413.712l.786-.457v16.787h-.991a.411.411,0,1,0,0,.823h25.5a.411.411,0,1,0,0-.823Zm-19.779,0V803.607h14.052v12.443Zm-1.292-13.265V801.55h16.636v1.234Zm16.167,13.265V803.607h.881a.411.411,0,0,0,.411-.411v-2.057a.411.411,0,0,0-.411-.411H87.181a.411.411,0,0,0-.411.411V803.2a.411.411,0,0,0,.411.411h.881v12.443H84.975V798.785l10.936-6.35,10.939,6.352v17.263Z" transform="translate(-82.748 -791.548)" fill="#526279" stroke="#526279" stroke-width="0.3"/>
      </g>
    </g>
    <text id="Warehouse" transform="translate(159 2282.596)" fill="#b4bbc6" font-size="10" font-family="Roboto-Medium, Roboto" font-weight="500"><tspan x="-25.178" y="0">Warehouse</tspan></text>
    <path id="Path_4785" data-name="Path 4785" d="M-13.56-6.157h-2.148V0h-1.187V-6.157h-2.148v-.952h5.483ZM-10.039,0q-.063-.2-.1-.391A2.792,2.792,0,0,1-10.2-.771a2.1,2.1,0,0,1-.642.623A1.633,1.633,0,0,1-11.733.1,1.756,1.756,0,0,1-13-.322a1.543,1.543,0,0,1-.442-1.167,1.378,1.378,0,0,1,.605-1.194,2.924,2.924,0,0,1,1.7-.427h.923v-.464a.858.858,0,0,0-.244-.649.968.968,0,0,0-.7-.234.989.989,0,0,0-.645.2.62.62,0,0,0-.239.5h-1.143l0-.029A1.309,1.309,0,0,1-12.625-4.9a2.369,2.369,0,0,1,1.545-.483,2.26,2.26,0,0,1,1.489.469,1.65,1.65,0,0,1,.566,1.348v2.349a4.331,4.331,0,0,0,.044.627A3.332,3.332,0,0,0-8.838,0Zm-1.455-.85a1.492,1.492,0,0,0,.808-.225,1.131,1.131,0,0,0,.476-.513v-.781h-.942a1.19,1.19,0,0,0-.811.256.779.779,0,0,0-.293.6.615.615,0,0,0,.2.481A.814.814,0,0,0-11.494-.85ZM-6.06-2.31h-.532V0H-7.773V-7.617h1.182v4.355H-6.1l1.333-2.021h1.4l-1.743,2.4L-3.11,0H-4.487ZM-.381.1A2.3,2.3,0,0,1-2.17-.632,2.7,2.7,0,0,1-2.837-2.52v-.2a2.8,2.8,0,0,1,.662-1.912A2.093,2.093,0,0,1-.518-5.381a2.065,2.065,0,0,1,1.638.647A2.535,2.535,0,0,1,1.689-3v.7h-3.3l-.01.024a1.664,1.664,0,0,0,.369,1.03,1.166,1.166,0,0,0,.94.4,2.541,2.541,0,0,0,.82-.117A2.688,2.688,0,0,0,1.172-1.3l.381.776a2.458,2.458,0,0,1-.791.444A3.314,3.314,0,0,1-.381.1ZM-.518-4.429a.89.89,0,0,0-.723.349,1.719,1.719,0,0,0-.352.886l.01.024H.513v-.122a1.264,1.264,0,0,0-.256-.82A.936.936,0,0,0-.518-4.429ZM5.825,0q-.063-.2-.1-.391a2.792,2.792,0,0,1-.056-.381,2.1,2.1,0,0,1-.642.623A1.633,1.633,0,0,1,4.131.1,1.756,1.756,0,0,1,2.864-.322a1.543,1.543,0,0,1-.442-1.167,1.378,1.378,0,0,1,.605-1.194,2.924,2.924,0,0,1,1.7-.427h.923v-.464a.858.858,0,0,0-.244-.649.968.968,0,0,0-.7-.234.989.989,0,0,0-.645.2.62.62,0,0,0-.239.5H2.686l0-.029A1.309,1.309,0,0,1,3.24-4.9a2.369,2.369,0,0,1,1.545-.483,2.26,2.26,0,0,1,1.489.469,1.65,1.65,0,0,1,.566,1.348v2.349a4.331,4.331,0,0,0,.044.627A3.332,3.332,0,0,0,7.026,0ZM4.37-.85a1.492,1.492,0,0,0,.808-.225,1.131,1.131,0,0,0,.476-.513v-.781H4.712a1.19,1.19,0,0,0-.811.256.779.779,0,0,0-.293.6.615.615,0,0,0,.2.481A.814.814,0,0,0,4.37-.85ZM9.351,0H8.164V-7.617H9.351Zm1.108-2.69A2.878,2.878,0,0,1,11.1-4.624a2.222,2.222,0,0,1,1.772-.757,2.216,2.216,0,0,1,1.782.757,2.853,2.853,0,0,1,.649,1.934v.1a2.867,2.867,0,0,1-.649,1.943A2.218,2.218,0,0,1,12.886.1,2.231,2.231,0,0,1,11.1-.649a2.874,2.874,0,0,1-.645-1.938Zm1.187.1a2.359,2.359,0,0,0,.3,1.26,1.021,1.021,0,0,0,.938.483,1.026,1.026,0,0,0,.928-.483,2.3,2.3,0,0,0,.313-1.26v-.1a2.271,2.271,0,0,0-.312-1.245,1.029,1.029,0,0,0-.937-.493,1.021,1.021,0,0,0-.928.493,2.344,2.344,0,0,0-.3,1.245Zm6.172-3.979v1.284h.947V-4.4h-.947v2.92a.637.637,0,0,0,.142.466.513.513,0,0,0,.376.139,1.049,1.049,0,0,0,.19-.017A1.157,1.157,0,0,0,18.7-.942l.127.869a1.361,1.361,0,0,1-.361.129A2.009,2.009,0,0,1,18.032.1a1.361,1.361,0,0,1-1.025-.383,1.679,1.679,0,0,1-.371-1.2V-4.4H15.83v-.879h.806V-6.567Z" transform="translate(159.014 1693.596)" fill="#b4bbc6"/>
    <g id="Group_3734" data-name="Group 3734" transform="translate(61.128 1627.999)">
      <path id="Path_3492" data-name="Path 3492" d="M2461.194,104.876a.27.27,0,0,1-.006.077,4.378,4.378,0,0,1-2.85,2.745,4.395,4.395,0,0,1-4.586-1.3,4.369,4.369,0,0,1-.564-.817,4.044,4.044,0,0,1-.462-1.376,5.2,5.2,0,0,1-.055-.788,4.382,4.382,0,0,1,1.565-3.26,4.383,4.383,0,0,1,1.612-.851,4.282,4.282,0,0,1,1.408-.166,4.373,4.373,0,0,1,3.761,2.518,4.326,4.326,0,0,1,.34,1.048,4.145,4.145,0,0,1,.063.549,4.322,4.322,0,0,1,0,.59c-.018.206-.059.411-.1.615-.022.122-.058.241-.089.361C2461.227,104.836,2461.211,104.85,2461.194,104.876Zm-3.2-2c0-.116,0-.211,0-.306,0-.043-.016-.061-.06-.061-.108,0-.217,0-.325,0-.053,0-.071.021-.071.073q0,.913,0,1.827c0,.055.022.072.073.071.106,0,.212,0,.318,0,.067,0,.085-.021.085-.086q0-.527.012-1.053a.459.459,0,0,1,.319-.436c.211-.049.354.007.4.22a.6.6,0,0,1,.008.129c0,.378,0,.756,0,1.133,0,.068.021.1.091.092.1,0,.2,0,.3,0s.109,0,.109-.108c0-.308-.005-.616,0-.924a1.031,1.031,0,0,1,.059-.329.377.377,0,0,1,.493-.2.311.311,0,0,1,.178.331c0,.38,0,.76,0,1.141,0,.067.018.1.089.093.106,0,.212,0,.318,0,.064,0,.082-.021.082-.084,0-.448,0-.9,0-1.343a.566.566,0,0,0-.223-.449.685.685,0,0,0-.954.147c-.033.046-.064.093-.1.145a.554.554,0,0,0-.573-.42A.689.689,0,0,0,2457.99,102.875Zm-1.548-.4a.859.859,0,0,0-.856.511,1.167,1.167,0,0,0-.075.786.958.958,0,0,0,.4.621.856.856,0,0,0,.537.119.847.847,0,0,0,.706-.42,1.187,1.187,0,0,0,.134-.848A.866.866,0,0,0,2456.442,102.473Zm-1.553.74c.12-.016.241-.032.361-.051a.049.049,0,0,0,.025-.041.822.822,0,0,0-.266-.5.761.761,0,0,0-.506-.149.787.787,0,0,0-.766.506,1.287,1.287,0,0,0-.048.907.783.783,0,0,0,.742.623.76.76,0,0,0,.644-.256.969.969,0,0,0,.2-.473c-.1-.012-.193-.021-.285-.034s-.134.006-.146.1a.211.211,0,0,1-.028.066.34.34,0,0,1-.271.2.311.311,0,0,1-.331-.169.884.884,0,0,1-.082-.258.991.991,0,0,1,.109-.675.321.321,0,0,1,.306-.154.3.3,0,0,1,.289.2C2454.859,103.1,2454.871,103.151,2454.889,103.212Z" transform="translate(-2340.766 0)" fill="#0077c2" fill-rule="evenodd"/>
      <path id="Path_3493" data-name="Path 3493" d="M679.42,160.3h-.086c-.5,0-1.006,0-1.509,0a.133.133,0,0,1-.14-.089q-.486-.986-.978-1.969c-.008-.017-.019-.033-.033-.058l-.323.354c-.162.178-.326.354-.485.535a.189.189,0,0,0-.044.113c0,.347,0,.693,0,1.04,0,.056-.015.075-.073.075-.421,0-.842,0-1.263,0-.021,0-.042,0-.067-.005v-6.973h1.433v3.988c.027-.024.042-.036.055-.05q.887-.983,1.773-1.967a.14.14,0,0,1,.117-.052c.52,0,1.04,0,1.559,0h.084l-1.722,1.865Z" transform="translate(-588.193 -53.407)" fill="#4b4d4f" fill-rule="evenodd"/>
      <path id="Path_3494" data-name="Path 3494" d="M1341.634,280.452a1.9,1.9,0,0,1,.432-1.192,1.678,1.678,0,0,1,.863-.463,5.114,5.114,0,0,1,1.45-.075,4.307,4.307,0,0,1,.72.1,1.349,1.349,0,0,1,1.026,1.025,2.838,2.838,0,0,1,.112.775q0,1.57,0,3.14v.1c-.027,0-.048.006-.068.006-.4,0-.794,0-1.191,0-.054,0-.086-.015-.1-.066-.056-.175-.112-.35-.167-.521-.044.043-.1.1-.159.155a1.939,1.939,0,0,1-1.393.546,2.046,2.046,0,0,1-.733-.09,1.305,1.305,0,0,1-.9-1.079,1.669,1.669,0,0,1,.106-.961,1.162,1.162,0,0,1,.715-.651c.3-.106.616-.181.927-.263.343-.091.689-.174,1.033-.262a.49.49,0,0,0,.278-.17.317.317,0,0,0,.023-.388.523.523,0,0,0-.378-.251,1.382,1.382,0,0,0-.516.017.491.491,0,0,0-.39.338.305.305,0,0,1-.354.233c-.416-.012-.832,0-1.249,0Zm3,1.018c-.1.04-.191.076-.281.108-.26.092-.522.178-.781.275a.653.653,0,0,0-.352.273.519.519,0,0,0,.352.779.967.967,0,0,0,.959-.528A2.226,2.226,0,0,0,1344.632,281.47Z" transform="translate(-1245.642 -176.978)" fill="#4b4d4f" fill-rule="evenodd"/>
      <path id="Path_3495" data-name="Path 3495" d="M324.409,280.572a5.4,5.4,0,0,1,.15-.69,1.428,1.428,0,0,1,1.046-.924,4.5,4.5,0,0,1,1.274-.119,4.7,4.7,0,0,1,.96.1,1.361,1.361,0,0,1,1.061.991,2.812,2.812,0,0,1,.123.981c-.007.137,0,.274,0,.411q0,1.285,0,2.57v.1c-.027,0-.048.005-.068.005-.395,0-.789,0-1.184,0a.1.1,0,0,1-.108-.069,1.594,1.594,0,0,1-.138-.49c0-.013-.005-.026-.01-.048l-.2.2a1.821,1.821,0,0,1-1.13.5,2.178,2.178,0,0,1-1.011-.09,1.31,1.31,0,0,1-.85-1.045,1.729,1.729,0,0,1,.036-.786,1.2,1.2,0,0,1,.687-.806,4.731,4.731,0,0,1,.894-.272q.563-.139,1.125-.28a.528.528,0,0,0,.326-.2.316.316,0,0,0,.013-.371.52.52,0,0,0-.383-.255,1.363,1.363,0,0,0-.53.023.509.509,0,0,0-.362.3c-.024.053-.046.106-.07.158a.161.161,0,0,1-.155.1q-.729,0-1.458,0A.188.188,0,0,1,324.409,280.572Zm3.009,1.032-.074.026c-.217.076-.436.148-.651.229a4.435,4.435,0,0,0-.5.211.525.525,0,0,0,.121.958.941.941,0,0,0,1.023-.575A2.387,2.387,0,0,0,327.418,281.6Z" transform="translate(-243.12 -177.11)" fill="#4b4d4f" fill-rule="evenodd"/>
      <path id="Path_3496" data-name="Path 3496" d="M989.683,282.564a2.092,2.092,0,0,1-.263.587,2.007,2.007,0,0,1-1.316.873,4.21,4.21,0,0,1-1.585.014,1.879,1.879,0,0,1-1.3-.916,2.831,2.831,0,0,1-.416-1.276,3.475,3.475,0,0,1,.133-1.412,2.194,2.194,0,0,1,1.412-1.482,2.794,2.794,0,0,1,.968-.125,2.934,2.934,0,0,1,1.1.2,2.022,2.022,0,0,1,1.106,1.184,3.338,3.338,0,0,1,.216,1.069c.011.218,0,.437,0,.663h-3.28a1.57,1.57,0,0,0,.094.477,1.124,1.124,0,0,0,.318.449.642.642,0,0,0,.531.148.991.991,0,0,0,.514-.169.728.728,0,0,0,.227-.31.09.09,0,0,1,.062-.05c.483.02.966.044,1.448.067A.2.2,0,0,1,989.683,282.564Zm-3.225-1.615h1.616a1.275,1.275,0,0,0-.154-.6.716.716,0,0,0-.787-.364.631.631,0,0,0-.34.176A1.145,1.145,0,0,0,986.458,280.949Z" transform="translate(-894.076 -177.1)" fill="#4b4d4f" fill-rule="evenodd"/>
      <path id="Path_3497" data-name="Path 3497" d="M1821.853,281.16a2.93,2.93,0,0,1-.347,1.5,2.165,2.165,0,0,1-1.663,1.144,2.931,2.931,0,0,1-1.277-.08,2.2,2.2,0,0,1-1.308-1.1,3.241,3.241,0,0,1-.052-2.743,2.207,2.207,0,0,1,1.783-1.3,2.877,2.877,0,0,1,1.406.146,2.145,2.145,0,0,1,1.2,1.15A2.913,2.913,0,0,1,1821.853,281.16Zm-3.282.115a3.7,3.7,0,0,0,.132.978.707.707,0,0,0,.869.526.721.721,0,0,0,.519-.573,4.2,4.2,0,0,0,.1-1.367,1.9,1.9,0,0,0-.153-.641.69.69,0,0,0-.906-.374.815.815,0,0,0-.456.563A3.106,3.106,0,0,0,1818.571,281.275Z" transform="translate(-1714.203 -176.83)" fill="#4b4d4f" fill-rule="evenodd"/>
      <path id="Path_3498" data-name="Path 3498" d="M80.7,158.714l.391,1.254c-.136.03-.263.061-.392.087a4.806,4.806,0,0,1-1.092.134,2.672,2.672,0,0,1-.577-.075,1.009,1.009,0,0,1-.725-.8,3.964,3.964,0,0,1-.1-1.009c0-.671,0-1.343,0-2.014v-.1h-.6V155.03h.6v-1.924h1.644c0,.028,0,.058,0,.088,0,.582,0,1.165,0,1.747,0,.071.021.088.089.087.245,0,.491,0,.736,0h.082v1.162c-.024,0-.049,0-.075,0-.253,0-.505,0-.758,0-.052,0-.072.013-.071.069,0,.669,0,1.338,0,2.007a1.752,1.752,0,0,0,.021.266.311.311,0,0,0,.406.285C80.417,158.791,80.553,158.751,80.7,158.714Z" transform="translate(0 -53.194)" fill="#4b4d4f" fill-rule="evenodd"/>
      <path id="Path_3499" data-name="Path 3499" d="M2156.267,156.193v-1.166h.134c.13,0,.26,0,.39,0,.063,0,.082-.016.082-.08,0-.582,0-1.165,0-1.747v-.095h1.64v1.918h.907v1.165c-.023,0-.048,0-.073,0-.253,0-.506,0-.758,0-.057,0-.074.015-.073.073,0,.679,0,1.357,0,2.036a1.68,1.68,0,0,0,.015.216.317.317,0,0,0,.409.3c.141-.027.279-.068.427-.1.128.411.257.827.391,1.255-.133.03-.26.061-.389.086a4.926,4.926,0,0,1-1.092.135,2.819,2.819,0,0,1-.535-.062.994.994,0,0,1-.752-.75,3.551,3.551,0,0,1-.116-1.028q0-1.036,0-2.072c0-.065-.016-.087-.084-.085C2156.618,156.2,2156.448,156.193,2156.267,156.193Z" transform="translate(-2048.644 -53.194)" fill="#4b4d4f" fill-rule="evenodd"/>
      <path id="Path_3500" data-name="Path 3500" d="M1693.325,160.379h-.076c-.44,0-.881,0-1.321,0-.068,0-.083-.021-.083-.086q0-3.4,0-6.793v-.079h1.479Z" transform="translate(-1590.928 -53.508)" fill="#4b4d4f" fill-rule="evenodd"/>
      <path id="Path_3501" data-name="Path 3501" d="M2790.057,330.658a.688.688,0,0,1,.621-.4.554.554,0,0,1,.573.42c.036-.052.068-.1.1-.145a.685.685,0,0,1,.954-.147.566.566,0,0,1,.223.449c0,.448,0,.9,0,1.343,0,.062-.018.086-.082.084-.106,0-.212,0-.317,0-.072,0-.09-.026-.089-.093,0-.38,0-.76,0-1.141a.311.311,0,0,0-.178-.331.377.377,0,0,0-.493.2,1.031,1.031,0,0,0-.059.329c-.007.308,0,.616,0,.924,0,.106,0,.107-.109.108s-.2,0-.3,0c-.071,0-.091-.025-.091-.092,0-.378,0-.756,0-1.133a.6.6,0,0,0-.007-.129c-.047-.213-.19-.27-.4-.22a.459.459,0,0,0-.319.436q-.011.527-.012,1.053c0,.065-.018.089-.085.086-.106,0-.212,0-.318,0-.051,0-.073-.016-.073-.071q0-.913,0-1.827c0-.052.017-.075.071-.073.108,0,.217,0,.325,0,.043,0,.06.018.06.061C2790.055,330.447,2790.057,330.542,2790.057,330.658Z" transform="translate(-2672.833 -227.783)" fill="#fff" fill-rule="evenodd"/>
      <path id="Path_3502" data-name="Path 3502" d="M2647.964,330.356a.865.865,0,0,1,.845.768,1.189,1.189,0,0,1-.134.848.935.935,0,0,1-1.244.3.957.957,0,0,1-.4-.621,1.167,1.167,0,0,1,.075-.786A.859.859,0,0,1,2647.964,330.356Zm.392,1.028a3.312,3.312,0,0,0-.063-.359.383.383,0,0,0-.728-.051,1.02,1.02,0,0,0,.008.819.35.35,0,0,0,.365.217.346.346,0,0,0,.341-.25A3.3,3.3,0,0,0,2648.356,331.384Z" transform="translate(-2532.289 -227.883)" fill="#fff" fill-rule="evenodd"/>
      <path id="Path_3503" data-name="Path 3503" d="M2520.373,331.28c-.018-.061-.03-.112-.049-.161a.3.3,0,0,0-.289-.2.321.321,0,0,0-.306.154.992.992,0,0,0-.109.675.87.87,0,0,0,.082.258.31.31,0,0,0,.331.169.34.34,0,0,0,.272-.2.211.211,0,0,0,.028-.066c.013-.089.067-.107.146-.1s.184.022.285.034a.971.971,0,0,1-.2.473.761.761,0,0,1-.644.256.783.783,0,0,1-.742-.623,1.285,1.285,0,0,1,.048-.907.786.786,0,0,1,.766-.506.76.76,0,0,1,.506.149.821.821,0,0,1,.266.5.049.049,0,0,1-.025.041C2520.614,331.248,2520.493,331.264,2520.373,331.28Z" transform="translate(-2406.25 -228.068)" fill="#fff" fill-rule="evenodd"/>
      <path id="Path_3504" data-name="Path 3504" d="M1457.171,470.273a2.224,2.224,0,0,1-.1.907.967.967,0,0,1-.959.528.519.519,0,0,1-.352-.779.653.653,0,0,1,.352-.273c.258-.1.52-.183.78-.275C1456.98,470.349,1457.068,470.313,1457.171,470.273Z" transform="translate(-1358.181 -365.781)" fill="#fff" fill-rule="evenodd"/>
      <path id="Path_3505" data-name="Path 3505" d="M440.008,470.416a2.385,2.385,0,0,1-.078.85.941.941,0,0,1-1.023.575.525.525,0,0,1-.121-.958,4.438,4.438,0,0,1,.5-.211c.215-.081.434-.153.651-.229Z" transform="translate(-355.71 -365.922)" fill="#fff" fill-rule="evenodd"/>
      <path id="Path_3506" data-name="Path 3506" d="M1100.843,358.838a1.145,1.145,0,0,1,.335-.791.631.631,0,0,1,.34-.176.716.716,0,0,1,.787.363,1.274,1.274,0,0,1,.154.6Z" transform="translate(-1008.461 -254.989)" fill="#fff" fill-rule="evenodd"/>
      <path id="Path_3507" data-name="Path 3507" d="M1930.832,364.1a3.114,3.114,0,0,1,.1-.889.814.814,0,0,1,.457-.563.689.689,0,0,1,.906.374,1.9,1.9,0,0,1,.153.641,4.2,4.2,0,0,1-.1,1.367.721.721,0,0,1-.519.573.707.707,0,0,1-.87-.526A3.707,3.707,0,0,1,1930.832,364.1Z" transform="translate(-1826.465 -259.653)" fill="#fff" fill-rule="evenodd"/>
      <path id="Path_3508" data-name="Path 3508" d="M2681.38,357.245a3.246,3.246,0,0,1-.077.376.384.384,0,0,1-.707.033,1.018,1.018,0,0,1-.008-.819.383.383,0,0,1,.728.051A3.374,3.374,0,0,1,2681.38,357.245Z" transform="translate(-2565.313 -253.744)" fill="#0077c2" fill-rule="evenodd"/>
    </g>
  </g>
</svg>
