<svg xmlns="http://www.w3.org/2000/svg" xmlns:xlink="http://www.w3.org/1999/xlink" width="474.957" height="867.016" viewBox="0 0 474.957 867.016">
  <defs>
    <filter id="Path_4526" x="0" y="210.81" width="474.957" height="474.956" filterUnits="userSpaceOnUse">
      <feOffset dy="20" input="SourceAlpha"/>
      <feGaussianBlur stdDeviation="49.5" result="blur"/>
      <feFlood flood-color="#3c485a" flood-opacity="0.149"/>
      <feComposite operator="in" in2="blur"/>
      <feComposite in="SourceGraphic"/>
    </filter>
    <filter id="Path_4528" x="47.598" y="0" width="376.198" height="376.198" filterUnits="userSpaceOnUse">
      <feOffset dy="5" input="SourceAlpha"/>
      <feGaussianBlur stdDeviation="49.5" result="blur-2"/>
      <feFlood flood-color="#3c485a" flood-opacity="0.102"/>
      <feComposite operator="in" in2="blur-2"/>
      <feComposite in="SourceGraphic"/>
    </filter>
    <filter id="Path_4522" x="47.598" y="490.817" width="376.198" height="376.198" filterUnits="userSpaceOnUse">
      <feOffset dy="5" input="SourceAlpha"/>
      <feGaussianBlur stdDeviation="49.5" result="blur-3"/>
      <feFlood flood-color="#3c485a" flood-opacity="0.102"/>
      <feComposite operator="in" in2="blur-3"/>
      <feComposite in="SourceGraphic"/>
    </filter>
  </defs>
  <g id="Group_3850" data-name="Group 3850" transform="translate(-326.523 7.581)">
    <path id="Path_4527" data-name="Path 4527" d="M0,0V100" transform="translate(562.906 206.443)" fill="none" stroke="#cccdd7" stroke-linecap="round" stroke-width="3" stroke-dasharray="1 10"/>
    <path id="Path_4524" data-name="Path 4524" d="M0,0V100" transform="translate(561.533 635.41) rotate(180)" fill="none" stroke="#cccdd7" stroke-linecap="round" stroke-width="3" stroke-dasharray="1 10"/>
    <path id="Path_4525" data-name="Path 4525" d="M114.484,0A114.484,114.484,0,1,1,0,114.484,114.484,114.484,0,0,1,114.484,0Z" transform="translate(678.268 306.443) rotate(90)" fill="none" stroke="#d82125" stroke-linecap="round" stroke-width="3" stroke-dasharray="1 10"/>
    <g transform="matrix(1, 0, 0, 1, 326.52, -7.58)" filter="url(#Path_4526)">
      <path id="Path_4526-2" data-name="Path 4526" d="M88.979,0A88.978,88.978,0,1,1,0,88.978,88.978,88.978,0,0,1,88.979,0Z" transform="translate(148.5 339.31)" fill="#fff"/>
    </g>
    <g id="Group_3147" data-name="Group 3147" transform="translate(519.063 368.39)">
      <path id="Path_1150" data-name="Path 1150" d="M576.165,215.052c-.015.061-.03.124-.043.186a32.561,32.561,0,0,0,3.241,22.918c.165.3.34.583.506.878a2.489,2.489,0,0,1,.5,1.708,2.112,2.112,0,0,1-.937,1.423,4.371,4.371,0,0,1-.819.291c-.32.057-.643.116-.969.159a15.376,15.376,0,0,1-1.99.129,15.223,15.223,0,0,1-2.14-30.294c.041-.005.082-.008.122-.016a2.254,2.254,0,0,1,1.7.242,1.977,1.977,0,0,1,.825,2.378" transform="translate(-560.433 -167.65)" fill="#3d3d3d"/>
      <ellipse id="Ellipse_123" data-name="Ellipse 123" cx="28.414" cy="28.414" rx="28.414" ry="28.414" transform="translate(18.942 26.384)" fill="#d82225"/>
      <path id="Path_1151" data-name="Path 1151" d="M605.389,191.02c.627-.036.761-.02,1.4-.02a32.4,32.4,0,0,1,24.31,10.944,2.791,2.791,0,0,0,1.9,1.266,2.342,2.342,0,0,0,1.924-.666l.463-.393a19.279,19.279,0,1,0-32.322-14.194,3.818,3.818,0,0,0,.193,1.617,2.24,2.24,0,0,0,2.128,1.447" transform="translate(-559.433 -168.675)" fill="#262626"/>
      <path id="Path_1152" data-name="Path 1152" d="M634.789,242.158q.248.332.476.681a12.854,12.854,0,1,1-21.757,13.69c-.1-.169-.2-.344-.3-.515a1.716,1.716,0,0,1-.229-1.638,1.836,1.836,0,0,1,1.521-1.113,9.952,9.952,0,0,0,1.057-.286,32.485,32.485,0,0,0,15.623-10.039c.2-.236.394-.484.6-.718a2.122,2.122,0,0,1,.956-.81,1.669,1.669,0,0,1,1.47.163A1.993,1.993,0,0,1,634.789,242.158Z" transform="translate(-559.203 -166.971)" fill="#3d3d3d"/>
    </g>
    <g transform="matrix(1, 0, 0, 1, 326.52, -7.58)" filter="url(#Path_4528)">
      <path id="Path_4528-2" data-name="Path 4528" d="M8.867,0H69.332A8.867,8.867,0,0,1,78.2,8.867V69.332A8.867,8.867,0,0,1,69.332,78.2H8.867A8.867,8.867,0,0,1,0,69.332V8.867A8.867,8.867,0,0,1,8.867,0Z" transform="translate(196.6 144)" fill="#fff" stroke="#b4bbc6" stroke-width="1"/>
    </g>
    <g transform="matrix(1, 0, 0, 1, 326.52, -7.58)" filter="url(#Path_4522)">
      <path id="Path_4522-2" data-name="Path 4522" d="M8.867,0H69.332A8.867,8.867,0,0,1,78.2,8.867V69.332A8.867,8.867,0,0,1,69.332,78.2H8.867A8.867,8.867,0,0,1,0,69.332V8.867A8.867,8.867,0,0,1,8.867,0Z" transform="translate(274.8 713.02) rotate(180)" fill="#fff" stroke="#b4bbc6" stroke-width="1"/>
    </g>
    <path id="Path_4719" data-name="Path 4719" d="M-18.9-2.739a1.373,1.373,0,0,0-.494-1.091,4.643,4.643,0,0,0-1.747-.762,7.389,7.389,0,0,1-2.75-1.241,2.472,2.472,0,0,1-.963-2.025,2.586,2.586,0,0,1,1.066-2.124,4.328,4.328,0,0,1,2.75-.835,4.1,4.1,0,0,1,2.823.945A2.82,2.82,0,0,1-17.183-7.6l-.015.044H-18.9a1.717,1.717,0,0,0-.557-1.329A2.273,2.273,0,0,0-21.05-9.4a2.324,2.324,0,0,0-1.5.425,1.35,1.35,0,0,0-.524,1.1A1.2,1.2,0,0,0-22.5-6.863a6.286,6.286,0,0,0,1.879.762A6.256,6.256,0,0,1-18.01-4.827a2.678,2.678,0,0,1,.894,2.073,2.5,2.5,0,0,1-1.066,2.12,4.6,4.6,0,0,1-2.8.787,4.977,4.977,0,0,1-2.93-.883,2.713,2.713,0,0,1-1.223-2.421l.015-.044h1.714a1.666,1.666,0,0,0,.674,1.454,2.951,2.951,0,0,0,1.75.48,2.578,2.578,0,0,0,1.538-.4A1.267,1.267,0,0,0-18.9-2.739Zm5.186-4.16a2.825,2.825,0,0,1,.963-.864,2.593,2.593,0,0,1,1.256-.308,2.5,2.5,0,0,1,1.967.795,3.607,3.607,0,0,1,.707,2.45V0H-10.6V-4.841A2.006,2.006,0,0,0-10.972-6.2a1.427,1.427,0,0,0-1.121-.417,1.987,1.987,0,0,0-.934.216,1.92,1.92,0,0,0-.685.6V0h-1.78V-11.426h1.78ZM-7.3-4.036a4.317,4.317,0,0,1,.967-2.9A3.334,3.334,0,0,1-3.677-8.071,3.324,3.324,0,0,1-1-6.936a4.279,4.279,0,0,1,.974,2.9v.154A4.3,4.3,0,0,1-1-.967,3.327,3.327,0,0,1-3.662.154,3.347,3.347,0,0,1-6.335-.974,4.31,4.31,0,0,1-7.3-3.882Zm1.78.154a3.539,3.539,0,0,0,.454,1.89,1.531,1.531,0,0,0,1.406.725,1.539,1.539,0,0,0,1.392-.725A3.451,3.451,0,0,0-1.8-3.882v-.154A3.407,3.407,0,0,0-2.271-5.9a1.544,1.544,0,0,0-1.406-.74,1.531,1.531,0,0,0-1.392.74,3.516,3.516,0,0,0-.454,1.868ZM8.467-3.7A4.468,4.468,0,0,1,7.654-.908,2.689,2.689,0,0,1,5.391.154,2.8,2.8,0,0,1,4.2-.088,2.457,2.457,0,0,1,3.3-.8V3.047H1.523V-7.925h1.5l.176,1a2.643,2.643,0,0,1,.919-.85,2.572,2.572,0,0,1,1.249-.293A2.632,2.632,0,0,1,7.65-6.91a5.208,5.208,0,0,1,.817,3.058ZM6.694-3.853a3.861,3.861,0,0,0-.458-1.989,1.489,1.489,0,0,0-1.366-.773,1.774,1.774,0,0,0-.945.238,1.752,1.752,0,0,0-.623.663v3.582a1.656,1.656,0,0,0,.623.641,1.9,1.9,0,0,0,.959.223,1.527,1.527,0,0,0,1.359-.67A3.1,3.1,0,0,0,6.694-3.7ZM11.917,0h-1.78V-7.925h1.78Zm0-9.866h-1.78v-1.56h1.78ZM14.487,0V-6.606H13.279V-7.925h1.208v-.923a2.726,2.726,0,0,1,.714-2.021,2.716,2.716,0,0,1,2-.71,3.44,3.44,0,0,1,.52.04q.264.04.593.114l-.183,1.377q-.146-.029-.326-.051a3.17,3.17,0,0,0-.385-.022,1.094,1.094,0,0,0-.868.33,1.389,1.389,0,0,0-.289.945v.923h1.611v1.318H16.267V0ZM21.8-3.179l.176.791h.044L23.76-7.925h1.948L22.427,1.2a4.069,4.069,0,0,1-.886,1.414,2.157,2.157,0,0,1-1.619.586,2.766,2.766,0,0,1-.472-.044q-.253-.044-.487-.1l.2-1.377.271.022q.176.015.264.015a.977.977,0,0,0,.773-.33A2.8,2.8,0,0,0,20.94.623L21.233-.1l-2.878-7.83H20.3Z" transform="translate(563 115)" fill="#b4bbc6"/>
    <g id="Group_3689" data-name="Group 3689" transform="translate(542.066 152.598)">
      <path id="Path_1417" data-name="Path 1417" d="M35.343,9.7a.443.443,0,0,0-.4-.372c-.166-.014-3.69-.275-3.69-.275s-2.447-2.429-2.716-2.7a1.113,1.113,0,0,0-1-.127l-1.37.423c-.818-2.352-2.26-4.514-4.8-4.514-.07,0-.142,0-.214.007A3.084,3.084,0,0,0,18.77.779c-5.912,0-8.736,7.391-9.622,11.146L5.01,13.209c-1.282.4-1.323.443-1.491,1.651C3.392,15.774.037,41.721.037,41.721l26.144,4.9,14.166-3.064s-4.973-33.62-5-33.851ZM24.725,7.1l-2.212.685c0-.156,0-.309,0-.477a10.851,10.851,0,0,0-.528-3.572C23.294,3.9,24.165,5.39,24.725,7.1ZM20.364,4.027a10.966,10.966,0,0,1,.6,3.983c0,.09,0,.173,0,.256L16.394,9.681c.88-3.4,2.529-5.035,3.97-5.654ZM18.608,2.365a1.335,1.335,0,0,1,.758.256c-1.895.892-3.926,3.137-4.783,7.621L10.971,11.36c1-3.42,3.39-9,7.636-9Z" transform="translate(-0.037 -0.779)" fill="#95bf46"/>
      <path id="Path_1418" data-name="Path 1418" d="M174.484,38.189c-.166-.014-3.69-.275-3.69-.275s-2.447-2.429-2.716-2.7a.67.67,0,0,0-.378-.173l-1.977,40.434,14.164-3.064s-4.973-33.62-5-33.851a.443.443,0,0,0-.4-.372" transform="translate(-139.579 -29.635)" fill="#5e8e3e"/>
      <path id="Path_1419" data-name="Path 1419" d="M54.373,100.932l-1.747,5.2a8.035,8.035,0,0,0-3.406-.817c-2.75,0-2.889,1.726-2.889,2.161,0,2.373,6.186,3.282,6.186,8.841,0,4.373-2.774,7.189-6.514,7.189a9.062,9.062,0,0,1-6.783-2.793l1.2-3.97s2.359,2.025,4.35,2.025a1.755,1.755,0,0,0,1.83-1.772c0-3.1-5.075-3.233-5.075-8.32,0-4.281,3.073-8.424,9.275-8.424a7.631,7.631,0,0,1,3.571.685" transform="translate(-33.038 -84.551)" fill="#fff"/>
    </g>
    <path id="Path_4892" data-name="Path 4892" d="M-20.542-2.557A1.282,1.282,0,0,0-21-3.575a4.334,4.334,0,0,0-1.63-.711A6.9,6.9,0,0,1-25.2-5.445a2.307,2.307,0,0,1-.9-1.89A2.414,2.414,0,0,1-25.1-9.317a4.039,4.039,0,0,1,2.567-.779,3.826,3.826,0,0,1,2.635.882,2.632,2.632,0,0,1,.96,2.119l-.014.041h-1.593a1.6,1.6,0,0,0-.52-1.241,2.121,2.121,0,0,0-1.483-.475,2.169,2.169,0,0,0-1.4.4,1.26,1.26,0,0,0-.489,1.025,1.121,1.121,0,0,0,.53.943,5.867,5.867,0,0,0,1.753.711A5.839,5.839,0,0,1-19.715-4.5a2.5,2.5,0,0,1,.834,1.935,2.335,2.335,0,0,1-.995,1.979A4.3,4.3,0,0,1-22.49.144,4.645,4.645,0,0,1-25.225-.68a2.532,2.532,0,0,1-1.142-2.259l.014-.041h1.6a1.555,1.555,0,0,0,.629,1.357,2.754,2.754,0,0,0,1.634.448,2.406,2.406,0,0,0,1.436-.373A1.182,1.182,0,0,0-20.542-2.557Zm6.658-2.557,2.406-4.84h1.853l-3.452,6.46V0h-1.654V-3.582l-3.4-6.371h1.853ZM-3.172-2.557a1.282,1.282,0,0,0-.461-1.019,4.334,4.334,0,0,0-1.63-.711A6.9,6.9,0,0,1-7.831-5.445a2.307,2.307,0,0,1-.9-1.89,2.414,2.414,0,0,1,.995-1.982A4.039,4.039,0,0,1-5.168-10.1a3.826,3.826,0,0,1,2.635.882A2.632,2.632,0,0,1-1.572-7.1l-.014.041H-3.179A1.6,1.6,0,0,0-3.7-8.3a2.121,2.121,0,0,0-1.483-.475,2.169,2.169,0,0,0-1.4.4,1.26,1.26,0,0,0-.489,1.025,1.121,1.121,0,0,0,.53.943,5.867,5.867,0,0,0,1.753.711A5.839,5.839,0,0,1-2.345-4.5,2.5,2.5,0,0,1-1.511-2.57,2.335,2.335,0,0,1-2.505-.591,4.3,4.3,0,0,1-5.12.144,4.645,4.645,0,0,1-7.854-.68,2.532,2.532,0,0,1-9-2.939l.014-.041h1.6a1.555,1.555,0,0,0,.629,1.357,2.754,2.754,0,0,0,1.634.448,2.406,2.406,0,0,0,1.436-.373A1.182,1.182,0,0,0-3.172-2.557ZM1.9-3.773V0H.239V-9.953h3.89A3.687,3.687,0,0,1,6.709-9.1a2.886,2.886,0,0,1,.933,2.239,2.881,2.881,0,0,1-.933,2.246,3.706,3.706,0,0,1-2.581.844Zm0-1.333H4.129A1.821,1.821,0,0,0,5.517-5.6,1.749,1.749,0,0,0,5.981-6.85a1.8,1.8,0,0,0-.465-1.265A1.793,1.793,0,0,0,4.129-8.62H1.9Zm9.044.978V0H9.283V-9.953h3.678a3.94,3.94,0,0,1,2.577.752,2.628,2.628,0,0,1,.909,2.146,2.22,2.22,0,0,1-.4,1.33,2.744,2.744,0,0,1-1.166.892,2.082,2.082,0,0,1,1.21.872,2.805,2.805,0,0,1,.369,1.487v.827a3.354,3.354,0,0,0,.109.854,1.2,1.2,0,0,0,.369.636V0H15.23a1.113,1.113,0,0,1-.352-.711,5.938,5.938,0,0,1-.079-.95v-.8a1.674,1.674,0,0,0-.437-1.217,1.6,1.6,0,0,0-1.2-.451Zm0-1.333h1.928a2.254,2.254,0,0,0,1.456-.383,1.437,1.437,0,0,0,.458-1.169,1.546,1.546,0,0,0-.451-1.179,1.935,1.935,0,0,0-1.374-.427H10.944ZM26.312-4.081a4.206,4.206,0,0,1-1.145,3.025A3.921,3.921,0,0,1,22.2.144a3.793,3.793,0,0,1-2.909-1.2A4.264,4.264,0,0,1,18.17-4.081V-5.872a4.267,4.267,0,0,1,1.118-3.021,3.779,3.779,0,0,1,2.9-1.2,3.926,3.926,0,0,1,2.974,1.2,4.2,4.2,0,0,1,1.148,3.021Zm-1.654-1.8a3.085,3.085,0,0,0-.667-2.044,2.223,2.223,0,0,0-1.8-.8,2.091,2.091,0,0,0-1.729.8,3.183,3.183,0,0,0-.636,2.044v1.8A3.22,3.22,0,0,0,20.46-2.02a2.1,2.1,0,0,0,1.736.8,2.21,2.21,0,0,0,1.8-.8,3.138,3.138,0,0,0,.66-2.064Z" transform="translate(561.561 747.199)" fill="#b4bbc6"/>
    <g id="layer1" transform="translate(530.146 648.638)">
      <g id="g291" transform="translate(0.5 0.5)">
        <path id="path113" d="M2.836,37.307.5,39.643H5.171V37.307Z" transform="translate(-0.5 -23.292)" fill="#007fa3"/>
        <path id="path119" d="M8.971,31.171h2.336v2.336H6.636Z" transform="translate(-4.3 -19.493)" fill="#84bd00"/>
        <path id="path123" d="M29.71,31.171v9.343l-4.671,4.671V40.514h2.335V33.507Z" transform="translate(-15.696 -19.493)" fill="#509e2f"/>
        <path id="path127" d="M6.635,54.246V49.575H8.97v2.336h2.335v2.336Z" transform="translate(-4.299 -30.889)" fill="#007fa3"/>
        <path id="path129" d="M18.9,18.9h2.336v2.335H18.9Z" transform="translate(-11.896 -11.896)" fill="#007fa3"/>
        <path id="path131" d="M25.037,12.768h2.336V15.1H25.037Z" transform="translate(-15.694 -8.097)" fill="#84bd00"/>
        <path id="path133" d="M18.9.5h2.336V2.836H18.9Z" transform="translate(-11.896 -0.5)" fill="#00c3de"/>
        <path id="path137" d="M7.508,45.779H2.837v4.672H7.508V45.779Zm2.335,7H.5V43.44H7.508v2.336H9.843v7.007" transform="translate(-0.501 -27.09)" fill="#00c3de"/>
        <path id="path141" d="M29.71,31.171l-2.336,2.336H25.039V31.171Z" transform="translate(-15.696 -19.493)" fill="#84bd00"/>
        <path id="path153" d="M51.655,31.26l1.807,3.566c.01,0,.017,0,.019.009L55.3,31.26c.045-.084.077-.1.235-.1h1.078c.155,0,.139.122.078.236l-2.537,4.787v3.974a.177.177,0,0,1-.176.174h-1a.176.176,0,0,1-.176-.174V36.19l-2.54-4.79c-.062-.114-.078-.236.078-.236H51.42c.159,0,.19.011.235.1m27.25,9.076H77.746c-.06,0-.1,0-.168-.12l-2.3-3.964H74.012v3.911a.178.178,0,0,1-.176.174h-1a.177.177,0,0,1-.176-.174V31.339a.177.177,0,0,1,.176-.175h3.622a2.11,2.11,0,0,1,2.365,2.127V34.1a2.041,2.041,0,0,1-2.051,2.128L78.983,40.1c.062.113.078.235-.078.235m-2.643-5.259c.827,0,1.279-.34,1.279-1.113v-.51c0-.774-.452-1.114-1.279-1.114h-2.25v2.737ZM69,31.164H65.373a.177.177,0,0,0-.176.175v8.823a.177.177,0,0,0,.176.174h1a.178.178,0,0,0,.177-.174V36.269h2.419a2.141,2.141,0,0,0,2.411-2.158v-.8A2.129,2.129,0,0,0,69,31.164m1.039,2.805c0,.768-.449,1.105-1.269,1.105H66.539V32.36H68.77c.821,0,1.269.338,1.269,1.105Zm16.7-.37v4.27c0,1.629-1.261,2.543-3.1,2.543-1.858,0-3.118-.914-3.118-2.543V33.6c0-1.592,1.262-2.5,3.118-2.5s3.1.913,3.1,2.5m-1.315.178c0-1.292-1.111-1.516-1.788-1.516-.694,0-1.8.224-1.8,1.516V37.73c0,1.292,1.11,1.516,1.8,1.516.677,0,1.788-.223,1.788-1.516ZM46.714,39.163c.717,0,1.772-.179,1.772-1.55,0-.6-.426-1.117-1.836-1.493-2.6-.693-2.838-1.7-2.838-2.666.016-1.424,1.307-2.331,2.926-2.331a3.592,3.592,0,0,1,2.729,1.094c.139.148.211.242.055.349l-.745.544c-.152.121-.18.064-.356-.1a2.072,2.072,0,0,0-1.683-.668c-1.047,0-1.557.5-1.557,1.11,0,.678.134.969,1.886,1.507,1.593.488,2.787,1.162,2.787,2.638,0,1.836-1.122,2.785-3.116,2.785a4.083,4.083,0,0,1-3.085-1.368c-.113-.129-.148-.273.072-.407l.615-.376a.317.317,0,0,1,.422.055,2.578,2.578,0,0,0,1.951.874m13.73,0c.717,0,1.772-.179,1.772-1.55,0-.6-.426-1.117-1.836-1.493-2.6-.693-2.837-1.7-2.837-2.666.016-1.424,1.306-2.331,2.925-2.331a3.593,3.593,0,0,1,2.73,1.094c.139.148.21.242.055.349l-.746.544c-.152.121-.18.064-.356-.1a2.07,2.07,0,0,0-1.682-.668c-1.047,0-1.556.5-1.556,1.11,0,.678.135.969,1.885,1.507,1.594.488,2.788,1.162,2.788,2.638,0,1.836-1.123,2.785-3.117,2.785a4.082,4.082,0,0,1-3.084-1.368c-.113-.129-.148-.273.071-.407l.615-.376a.318.318,0,0,1,.423.055,2.578,2.578,0,0,0,1.951.874" transform="translate(-27.167 -19.446)" fill="#007fa3"/>
        <path id="path161" d="M160.723,31.359h.362v-.182h-.932v.182h.359v1.055h.211Zm1.209,1.055.362-.956h.014l-.01.235v.721h.218V31.177H162.2l-.348.959-.336-.959H161.2v1.237h.2v-.738l-.01-.221h.014l.345.96Z" transform="translate(-99.363 -19.496)" fill="#007fa3"/>
      </g>
    </g>
  </g>
</svg>
