<svg xmlns="http://www.w3.org/2000/svg" xmlns:xlink="http://www.w3.org/1999/xlink" width="474.957" height="867.016" viewBox="0 0 474.957 867.016">
  <defs>
    <filter id="Path_4526" x="0" y="210.81" width="474.957" height="474.956" filterUnits="userSpaceOnUse">
      <feOffset dy="20" input="SourceAlpha"/>
      <feGaussianBlur stdDeviation="49.5" result="blur"/>
      <feFlood flood-color="#3c485a" flood-opacity="0.149"/>
      <feComposite operator="in" in2="blur"/>
      <feComposite in="SourceGraphic"/>
    </filter>
    <filter id="Path_4528" x="47.598" y="0" width="376.198" height="376.198" filterUnits="userSpaceOnUse">
      <feOffset dy="5" input="SourceAlpha"/>
      <feGaussianBlur stdDeviation="49.5" result="blur-2"/>
      <feFlood flood-color="#3c485a" flood-opacity="0.102"/>
      <feComposite operator="in" in2="blur-2"/>
      <feComposite in="SourceGraphic"/>
    </filter>
    <filter id="Path_4522" x="47.598" y="490.817" width="376.198" height="376.198" filterUnits="userSpaceOnUse">
      <feOffset dy="5" input="SourceAlpha"/>
      <feGaussianBlur stdDeviation="49.5" result="blur-3"/>
      <feFlood flood-color="#3c485a" flood-opacity="0.102"/>
      <feComposite operator="in" in2="blur-3"/>
      <feComposite in="SourceGraphic"/>
    </filter>
  </defs>
  <g id="Group_3936" data-name="Group 3936" transform="translate(-326.523 7.581)">
    <g id="Group_3912" data-name="Group 3912">
      <path id="Path_4525" data-name="Path 4525" d="M114.484,0A114.484,114.484,0,1,1,0,114.484,114.484,114.484,0,0,1,114.484,0Z" transform="translate(678.268 306.443) rotate(90)" fill="none" stroke="#d82125" stroke-linecap="round" stroke-width="3" stroke-dasharray="1 10"/>
      <g transform="matrix(1, 0, 0, 1, 326.52, -7.58)" filter="url(#Path_4526)">
        <path id="Path_4526-2" data-name="Path 4526" d="M88.979,0A88.978,88.978,0,1,1,0,88.978,88.978,88.978,0,0,1,88.979,0Z" transform="translate(148.5 339.31)" fill="#fff"/>
      </g>
      <ellipse id="Ellipse_123" data-name="Ellipse 123" cx="28.414" cy="28.414" rx="28.414" ry="28.414" transform="translate(538.004 394.774)" fill="#d82225"/>
      <path id="Path_1151" data-name="Path 1151" d="M605.389,191.02c.627-.036.761-.02,1.4-.02a32.4,32.4,0,0,1,24.31,10.944,2.791,2.791,0,0,0,1.9,1.266,2.342,2.342,0,0,0,1.924-.666l.463-.393a19.279,19.279,0,1,0-32.322-14.194,3.818,3.818,0,0,0,.193,1.617,2.24,2.24,0,0,0,2.128,1.447" transform="translate(-40.371 199.715)" fill="#262626"/>
      <path id="Path_1152" data-name="Path 1152" d="M634.789,242.158q.248.332.476.681a12.854,12.854,0,1,1-21.757,13.69c-.1-.169-.2-.344-.3-.515a1.716,1.716,0,0,1-.229-1.638,1.836,1.836,0,0,1,1.521-1.113,9.952,9.952,0,0,0,1.057-.286,32.485,32.485,0,0,0,15.623-10.039c.2-.236.394-.484.6-.718a2.122,2.122,0,0,1,.956-.81,1.669,1.669,0,0,1,1.47.163A1.993,1.993,0,0,1,634.789,242.158Z" transform="translate(-40.141 201.418)" fill="#3d3d3d"/>
      <g transform="matrix(1, 0, 0, 1, 326.52, -7.58)" filter="url(#Path_4528)">
        <path id="Path_4528-2" data-name="Path 4528" d="M8.867,0H69.332A8.867,8.867,0,0,1,78.2,8.867V69.332A8.867,8.867,0,0,1,69.332,78.2H8.867A8.867,8.867,0,0,1,0,69.332V8.867A8.867,8.867,0,0,1,8.867,0Z" transform="translate(196.6 144)" fill="#fff" stroke="#b4bbc6" stroke-width="1"/>
      </g>
      <path id="Path_4798" data-name="Path 4798" d="M-43.832-2.652v.014l.007-.034,1.989-7.28h1.326l2.01,7.3.007.048.007-.068,1.572-7.28h1.634L-37.646,0h-1.511l-1.989-7.144h-.041l-2,7.144H-44.7l-2.358-9.953h1.634ZM-34.6-3.767a4.029,4.029,0,0,1,.9-2.707,3.111,3.111,0,0,1,2.481-1.06,3.1,3.1,0,0,1,2.5,1.06,3.994,3.994,0,0,1,.909,2.707v.144A4.014,4.014,0,0,1-28.725-.9,3.1,3.1,0,0,1-31.206.144,3.124,3.124,0,0,1-33.7-.909a4.023,4.023,0,0,1-.9-2.714Zm1.661.144a3.3,3.3,0,0,0,.424,1.764,1.429,1.429,0,0,0,1.313.677,1.436,1.436,0,0,0,1.3-.677,3.221,3.221,0,0,0,.438-1.764v-.144a3.18,3.18,0,0,0-.437-1.743A1.441,1.441,0,0,0-31.22-6.2a1.429,1.429,0,0,0-1.3.69,3.282,3.282,0,0,0-.424,1.743Zm6.269-.144a4.029,4.029,0,0,1,.9-2.707,3.111,3.111,0,0,1,2.481-1.06,3.1,3.1,0,0,1,2.5,1.06,3.994,3.994,0,0,1,.909,2.707v.144A4.014,4.014,0,0,1-20.795-.9,3.1,3.1,0,0,1-23.276.144a3.124,3.124,0,0,1-2.5-1.053,4.023,4.023,0,0,1-.9-2.714Zm1.661.144a3.3,3.3,0,0,0,.424,1.764,1.429,1.429,0,0,0,1.313.677,1.436,1.436,0,0,0,1.3-.677,3.221,3.221,0,0,0,.438-1.764v-.144a3.18,3.18,0,0,0-.437-1.743A1.441,1.441,0,0,0-23.29-6.2a1.429,1.429,0,0,0-1.3.69,3.282,3.282,0,0,0-.424,1.743Zm9.632,2.44a1.517,1.517,0,0,0,1.025-.359,1.137,1.137,0,0,0,.417-.9h1.5l.014.041a2.184,2.184,0,0,1-.844,1.791,3.144,3.144,0,0,1-2.116.752A3.068,3.068,0,0,1-17.886-.909a4.041,4.041,0,0,1-.872-2.666v-.239a4.044,4.044,0,0,1,.872-2.663,3.063,3.063,0,0,1,2.505-1.056,3.042,3.042,0,0,1,2.164.776,2.5,2.5,0,0,1,.8,1.972l-.014.041h-1.511a1.449,1.449,0,0,0-.4-1.032A1.368,1.368,0,0,0-15.381-6.2a1.4,1.4,0,0,0-1.326.68,3.391,3.391,0,0,0-.39,1.706v.239a3.4,3.4,0,0,0,.39,1.719A1.406,1.406,0,0,0-15.381-1.183ZM-11.4-3.767a4.029,4.029,0,0,1,.9-2.707,3.111,3.111,0,0,1,2.481-1.06,3.1,3.1,0,0,1,2.5,1.06,3.994,3.994,0,0,1,.909,2.707v.144A4.014,4.014,0,0,1-5.517-.9,3.1,3.1,0,0,1-8,.144a3.124,3.124,0,0,1-2.5-1.053,4.023,4.023,0,0,1-.9-2.714Zm1.661.144a3.3,3.3,0,0,0,.424,1.764A1.429,1.429,0,0,0-8-1.183a1.436,1.436,0,0,0,1.3-.677,3.221,3.221,0,0,0,.438-1.764v-.144A3.18,3.18,0,0,0-6.7-5.51,1.441,1.441,0,0,0-8.012-6.2a1.429,1.429,0,0,0-1.3.69,3.282,3.282,0,0,0-.424,1.743ZM-1.641-7.4l.089.964a2.507,2.507,0,0,1,.909-.813A2.681,2.681,0,0,1,.622-7.533a2.282,2.282,0,0,1,1.244.328,1.983,1.983,0,0,1,.779.984,2.591,2.591,0,0,1,.9-.964A2.434,2.434,0,0,1,4.86-7.533a2.186,2.186,0,0,1,1.76.762,3.514,3.514,0,0,1,.646,2.314V0H5.605V-4.464A2.076,2.076,0,0,0,5.281-5.79a1.206,1.206,0,0,0-.974-.383,1.425,1.425,0,0,0-.9.287,1.6,1.6,0,0,0-.533.772q0,.1.007.178t.007.144V0H1.224V-4.464A2.053,2.053,0,0,0,.892-5.773a1.193,1.193,0,0,0-.974-.4,1.749,1.749,0,0,0-.858.195,1.436,1.436,0,0,0-.557.55V0H-3.158V-7.4Zm12.175,0,.089.964a2.507,2.507,0,0,1,.909-.813A2.681,2.681,0,0,1,12.8-7.533a2.282,2.282,0,0,1,1.244.328,1.983,1.983,0,0,1,.779.984,2.591,2.591,0,0,1,.9-.964,2.434,2.434,0,0,1,1.313-.349,2.186,2.186,0,0,1,1.76.762,3.514,3.514,0,0,1,.646,2.314V0H17.78V-4.464a2.076,2.076,0,0,0-.325-1.326,1.206,1.206,0,0,0-.974-.383,1.425,1.425,0,0,0-.9.287,1.6,1.6,0,0,0-.533.772q0,.1.007.178t.007.144V0H13.4V-4.464a2.053,2.053,0,0,0-.332-1.309,1.193,1.193,0,0,0-.974-.4,1.749,1.749,0,0,0-.858.195,1.436,1.436,0,0,0-.557.55V0H9.017V-7.4ZM24.363.144A3.216,3.216,0,0,1,21.858-.885a3.782,3.782,0,0,1-.933-2.642V-3.8a3.927,3.927,0,0,1,.926-2.676,2.93,2.93,0,0,1,2.321-1.056,2.891,2.891,0,0,1,2.293.906,3.549,3.549,0,0,1,.8,2.43v.978H22.647l-.014.034a2.329,2.329,0,0,0,.516,1.442,1.632,1.632,0,0,0,1.316.561,3.557,3.557,0,0,0,1.148-.164,3.763,3.763,0,0,0,.923-.472L27.07-.731a3.441,3.441,0,0,1-1.107.622A4.64,4.64,0,0,1,24.363.144ZM24.172-6.2a1.246,1.246,0,0,0-1.012.489,2.407,2.407,0,0,0-.492,1.241l.014.034h2.933v-.171a1.77,1.77,0,0,0-.359-1.148A1.31,1.31,0,0,0,24.172-6.2Zm8.114.3-.711-.027a1.49,1.49,0,0,0-.81.205,1.351,1.351,0,0,0-.5.581V0H28.6V-7.4h1.518l.109,1.073a2.372,2.372,0,0,1,.721-.889,1.679,1.679,0,0,1,1.015-.321,1.548,1.548,0,0,1,.28.024,2.047,2.047,0,0,1,.239.058ZM36.5-1.183a1.517,1.517,0,0,0,1.025-.359,1.137,1.137,0,0,0,.417-.9h1.5l.014.041A2.184,2.184,0,0,1,38.62-.608,3.144,3.144,0,0,1,36.5.144,3.068,3.068,0,0,1,34-.909a4.041,4.041,0,0,1-.872-2.666v-.239A4.044,4.044,0,0,1,34-6.477,3.063,3.063,0,0,1,36.5-7.533a3.042,3.042,0,0,1,2.164.776,2.5,2.5,0,0,1,.8,1.972l-.014.041H37.946a1.449,1.449,0,0,0-.4-1.032A1.368,1.368,0,0,0,36.5-6.2a1.4,1.4,0,0,0-1.326.68,3.391,3.391,0,0,0-.39,1.706v.239a3.4,3.4,0,0,0,.39,1.719A1.406,1.406,0,0,0,36.5-1.183ZM43.969.144A3.216,3.216,0,0,1,41.463-.885a3.782,3.782,0,0,1-.933-2.642V-3.8a3.927,3.927,0,0,1,.926-2.676,2.93,2.93,0,0,1,2.321-1.056,2.891,2.891,0,0,1,2.293.906,3.549,3.549,0,0,1,.8,2.43v.978H42.253l-.014.034a2.329,2.329,0,0,0,.516,1.442,1.632,1.632,0,0,0,1.316.561,3.557,3.557,0,0,0,1.148-.164,3.763,3.763,0,0,0,.923-.472l.533,1.087a3.441,3.441,0,0,1-1.107.622A4.64,4.64,0,0,1,43.969.144ZM43.777-6.2a1.246,1.246,0,0,0-1.012.489,2.407,2.407,0,0,0-.492,1.241l.014.034H45.22v-.171a1.77,1.77,0,0,0-.359-1.148A1.31,1.31,0,0,0,43.777-6.2Z" transform="translate(562.596 115.902)" fill="#b4bbc6"/>
      <path id="Path_1420" data-name="Path 1420" d="M4.689,0H45.809a4.707,4.707,0,0,1,4.709,4.709v15.7a4.707,4.707,0,0,1-4.709,4.709H31.063l2.024,4.957-8.9-4.957H4.709A4.707,4.707,0,0,1,0,20.405V4.709A4.689,4.689,0,0,1,4.689,0Z" transform="translate(537.664 161.008)" fill="#9b5c8f"/>
      <path id="Path_1421" data-name="Path 1421" d="M13.14,15.624a1.652,1.652,0,0,1,1.294-.637,1.5,1.5,0,0,1,1.787,1.478q.955,6.438,2.074,10.9l4.5-8.563a1.949,1.949,0,0,1,1.54-1.232c.9-.062,1.458.513,1.684,1.725a38.372,38.372,0,0,0,1.951,7.023q.8-7.824,2.711-11.295a1.577,1.577,0,0,1,1.355-.9,1.784,1.784,0,0,1,1.294.411,1.608,1.608,0,0,1,.637,1.171,1.783,1.783,0,0,1-.205.986,24.863,24.863,0,0,0-1.992,7.413,38.259,38.259,0,0,0-.575,7.824,2.439,2.439,0,0,1-.246,1.356,1.323,1.323,0,0,1-1.089.739,2.065,2.065,0,0,1-1.622-.76A20.33,20.33,0,0,1,23.7,24.516q-2,3.943-2.957,5.914c-1.212,2.321-2.238,3.512-3.1,3.573-.554.041-1.027-.431-1.437-1.417Q14.629,28.552,12.811,17A1.749,1.749,0,0,1,13.14,15.624Zm44.132,3.224a4.729,4.729,0,0,0-3.286-2.382,5.4,5.4,0,0,0-1.109-.123c-1.971,0-3.573,1.027-4.826,3.08a10.88,10.88,0,0,0-1.6,5.791,7.952,7.952,0,0,0,.986,4.066,4.729,4.729,0,0,0,3.286,2.382,5.381,5.381,0,0,0,1.109.123,5.491,5.491,0,0,0,4.826-3.08,11.005,11.005,0,0,0,1.6-5.812A7.578,7.578,0,0,0,57.272,18.848Zm-2.587,5.688a5.433,5.433,0,0,1-1.561,3.039,1.975,1.975,0,0,1-1.663.657c-.493-.1-.9-.534-1.212-1.335a5.211,5.211,0,0,1-.37-1.869,7.144,7.144,0,0,1,.144-1.5,6.643,6.643,0,0,1,1.088-2.444c.678-1.006,1.4-1.417,2.136-1.273.493.1.9.534,1.212,1.335a5.211,5.211,0,0,1,.37,1.869A7.211,7.211,0,0,1,54.684,24.537ZM44.416,18.848a4.772,4.772,0,0,0-3.286-2.382,5.394,5.394,0,0,0-1.109-.123c-1.971,0-3.573,1.027-4.826,3.08a10.882,10.882,0,0,0-1.6,5.791,7.952,7.952,0,0,0,.986,4.066,4.729,4.729,0,0,0,3.286,2.382,5.38,5.38,0,0,0,1.109.123,5.491,5.491,0,0,0,4.826-3.08,11,11,0,0,0,1.6-5.812A7.77,7.77,0,0,0,44.416,18.848Zm-2.608,5.688a5.433,5.433,0,0,1-1.561,3.039,1.975,1.975,0,0,1-1.663.657c-.493-.1-.9-.534-1.212-1.335A5.211,5.211,0,0,1,37,25.03a7.144,7.144,0,0,1,.144-1.5,6.64,6.64,0,0,1,1.089-2.444c.678-1.006,1.4-1.417,2.136-1.273.493.1.9.534,1.212,1.335a5.211,5.211,0,0,1,.37,1.869,6.061,6.061,0,0,1-.144,1.52Z" transform="translate(527.4 149.676)" fill="#fff"/>
      <g transform="matrix(1, 0, 0, 1, 326.52, -7.58)" filter="url(#Path_4522)">
        <path id="Path_4522-2" data-name="Path 4522" d="M8.867,0H69.332A8.867,8.867,0,0,1,78.2,8.867V69.332A8.867,8.867,0,0,1,69.332,78.2H8.867A8.867,8.867,0,0,1,0,69.332V8.867A8.867,8.867,0,0,1,8.867,0Z" transform="translate(274.8 713.02) rotate(180)" fill="#fff" stroke="#b4bbc6" stroke-width="1"/>
      </g>
      <path id="Path_4892" data-name="Path 4892" d="M-20.542-2.557A1.282,1.282,0,0,0-21-3.575a4.334,4.334,0,0,0-1.63-.711A6.9,6.9,0,0,1-25.2-5.445a2.307,2.307,0,0,1-.9-1.89A2.414,2.414,0,0,1-25.1-9.317a4.039,4.039,0,0,1,2.567-.779,3.826,3.826,0,0,1,2.635.882,2.632,2.632,0,0,1,.96,2.119l-.014.041h-1.593a1.6,1.6,0,0,0-.52-1.241,2.121,2.121,0,0,0-1.483-.475,2.169,2.169,0,0,0-1.4.4,1.26,1.26,0,0,0-.489,1.025,1.121,1.121,0,0,0,.53.943,5.867,5.867,0,0,0,1.753.711A5.839,5.839,0,0,1-19.715-4.5a2.5,2.5,0,0,1,.834,1.935,2.335,2.335,0,0,1-.995,1.979A4.3,4.3,0,0,1-22.49.144,4.645,4.645,0,0,1-25.225-.68a2.532,2.532,0,0,1-1.142-2.259l.014-.041h1.6a1.555,1.555,0,0,0,.629,1.357,2.754,2.754,0,0,0,1.634.448,2.406,2.406,0,0,0,1.436-.373A1.182,1.182,0,0,0-20.542-2.557Zm6.658-2.557,2.406-4.84h1.853l-3.452,6.46V0h-1.654V-3.582l-3.4-6.371h1.853ZM-3.172-2.557a1.282,1.282,0,0,0-.461-1.019,4.334,4.334,0,0,0-1.63-.711A6.9,6.9,0,0,1-7.831-5.445a2.307,2.307,0,0,1-.9-1.89,2.414,2.414,0,0,1,.995-1.982A4.039,4.039,0,0,1-5.168-10.1a3.826,3.826,0,0,1,2.635.882A2.632,2.632,0,0,1-1.572-7.1l-.014.041H-3.179A1.6,1.6,0,0,0-3.7-8.3a2.121,2.121,0,0,0-1.483-.475,2.169,2.169,0,0,0-1.4.4,1.26,1.26,0,0,0-.489,1.025,1.121,1.121,0,0,0,.53.943,5.867,5.867,0,0,0,1.753.711A5.839,5.839,0,0,1-2.345-4.5,2.5,2.5,0,0,1-1.511-2.57,2.335,2.335,0,0,1-2.505-.591,4.3,4.3,0,0,1-5.12.144,4.645,4.645,0,0,1-7.854-.68,2.532,2.532,0,0,1-9-2.939l.014-.041h1.6a1.555,1.555,0,0,0,.629,1.357,2.754,2.754,0,0,0,1.634.448,2.406,2.406,0,0,0,1.436-.373A1.182,1.182,0,0,0-3.172-2.557ZM1.9-3.773V0H.239V-9.953h3.89A3.687,3.687,0,0,1,6.709-9.1a2.886,2.886,0,0,1,.933,2.239,2.881,2.881,0,0,1-.933,2.246,3.706,3.706,0,0,1-2.581.844Zm0-1.333H4.129A1.821,1.821,0,0,0,5.517-5.6,1.749,1.749,0,0,0,5.981-6.85a1.8,1.8,0,0,0-.465-1.265A1.793,1.793,0,0,0,4.129-8.62H1.9Zm9.044.978V0H9.283V-9.953h3.678a3.94,3.94,0,0,1,2.577.752,2.628,2.628,0,0,1,.909,2.146,2.22,2.22,0,0,1-.4,1.33,2.744,2.744,0,0,1-1.166.892,2.082,2.082,0,0,1,1.21.872,2.805,2.805,0,0,1,.369,1.487v.827a3.354,3.354,0,0,0,.109.854,1.2,1.2,0,0,0,.369.636V0H15.23a1.113,1.113,0,0,1-.352-.711,5.938,5.938,0,0,1-.079-.95v-.8a1.674,1.674,0,0,0-.437-1.217,1.6,1.6,0,0,0-1.2-.451Zm0-1.333h1.928a2.254,2.254,0,0,0,1.456-.383,1.437,1.437,0,0,0,.458-1.169,1.546,1.546,0,0,0-.451-1.179,1.935,1.935,0,0,0-1.374-.427H10.944ZM26.312-4.081a4.206,4.206,0,0,1-1.145,3.025A3.921,3.921,0,0,1,22.2.144a3.793,3.793,0,0,1-2.909-1.2A4.264,4.264,0,0,1,18.17-4.081V-5.872a4.267,4.267,0,0,1,1.118-3.021,3.779,3.779,0,0,1,2.9-1.2,3.926,3.926,0,0,1,2.974,1.2,4.2,4.2,0,0,1,1.148,3.021Zm-1.654-1.8a3.085,3.085,0,0,0-.667-2.044,2.223,2.223,0,0,0-1.8-.8,2.091,2.091,0,0,0-1.729.8,3.183,3.183,0,0,0-.636,2.044v1.8A3.22,3.22,0,0,0,20.46-2.02a2.1,2.1,0,0,0,1.736.8,2.21,2.21,0,0,0,1.8-.8,3.138,3.138,0,0,0,.66-2.064Z" transform="translate(561.561 747.199)" fill="#b4bbc6"/>
      <g id="layer1" transform="translate(530.146 648.638)">
        <g id="g291" transform="translate(0.5 0.5)">
          <path id="path113" d="M2.836,37.307.5,39.643H5.171V37.307Z" transform="translate(-0.5 -23.292)" fill="#007fa3"/>
          <path id="path119" d="M8.971,31.171h2.336v2.336H6.636Z" transform="translate(-4.3 -19.493)" fill="#84bd00"/>
          <path id="path123" d="M29.71,31.171v9.343l-4.671,4.671V40.514h2.335V33.507Z" transform="translate(-15.696 -19.493)" fill="#509e2f"/>
          <path id="path127" d="M6.635,54.246V49.575H8.97v2.336h2.335v2.336Z" transform="translate(-4.299 -30.889)" fill="#007fa3"/>
          <path id="path129" d="M18.9,18.9h2.336v2.335H18.9Z" transform="translate(-11.896 -11.896)" fill="#007fa3"/>
          <path id="path131" d="M25.037,12.768h2.336V15.1H25.037Z" transform="translate(-15.694 -8.097)" fill="#84bd00"/>
          <path id="path133" d="M18.9.5h2.336V2.836H18.9Z" transform="translate(-11.896 -0.5)" fill="#00c3de"/>
          <path id="path137" d="M7.508,45.779H2.837v4.672H7.508V45.779Zm2.335,7H.5V43.44H7.508v2.336H9.843v7.007" transform="translate(-0.501 -27.09)" fill="#00c3de"/>
          <path id="path141" d="M29.71,31.171l-2.336,2.336H25.039V31.171Z" transform="translate(-15.696 -19.493)" fill="#84bd00"/>
          <path id="path153" d="M51.655,31.26l1.807,3.566c.01,0,.017,0,.019.009L55.3,31.26c.045-.084.077-.1.235-.1h1.078c.155,0,.139.122.078.236l-2.537,4.787v3.974a.177.177,0,0,1-.176.174h-1a.176.176,0,0,1-.176-.174V36.19l-2.54-4.79c-.062-.114-.078-.236.078-.236H51.42c.159,0,.19.011.235.1m27.25,9.076H77.746c-.06,0-.1,0-.168-.12l-2.3-3.964H74.012v3.911a.178.178,0,0,1-.176.174h-1a.177.177,0,0,1-.176-.174V31.339a.177.177,0,0,1,.176-.175h3.622a2.11,2.11,0,0,1,2.365,2.127V34.1a2.041,2.041,0,0,1-2.051,2.128L78.983,40.1c.062.113.078.235-.078.235m-2.643-5.259c.827,0,1.279-.34,1.279-1.113v-.51c0-.774-.452-1.114-1.279-1.114h-2.25v2.737ZM69,31.164H65.373a.177.177,0,0,0-.176.175v8.823a.177.177,0,0,0,.176.174h1a.178.178,0,0,0,.177-.174V36.269h2.419a2.141,2.141,0,0,0,2.411-2.158v-.8A2.129,2.129,0,0,0,69,31.164m1.039,2.805c0,.768-.449,1.105-1.269,1.105H66.539V32.36H68.77c.821,0,1.269.338,1.269,1.105Zm16.7-.37v4.27c0,1.629-1.261,2.543-3.1,2.543-1.858,0-3.118-.914-3.118-2.543V33.6c0-1.592,1.262-2.5,3.118-2.5s3.1.913,3.1,2.5m-1.315.178c0-1.292-1.111-1.516-1.788-1.516-.694,0-1.8.224-1.8,1.516V37.73c0,1.292,1.11,1.516,1.8,1.516.677,0,1.788-.223,1.788-1.516ZM46.714,39.163c.717,0,1.772-.179,1.772-1.55,0-.6-.426-1.117-1.836-1.493-2.6-.693-2.838-1.7-2.838-2.666.016-1.424,1.307-2.331,2.926-2.331a3.592,3.592,0,0,1,2.729,1.094c.139.148.211.242.055.349l-.745.544c-.152.121-.18.064-.356-.1a2.072,2.072,0,0,0-1.683-.668c-1.047,0-1.557.5-1.557,1.11,0,.678.134.969,1.886,1.507,1.593.488,2.787,1.162,2.787,2.638,0,1.836-1.122,2.785-3.116,2.785a4.083,4.083,0,0,1-3.085-1.368c-.113-.129-.148-.273.072-.407l.615-.376a.317.317,0,0,1,.422.055,2.578,2.578,0,0,0,1.951.874m13.73,0c.717,0,1.772-.179,1.772-1.55,0-.6-.426-1.117-1.836-1.493-2.6-.693-2.837-1.7-2.837-2.666.016-1.424,1.306-2.331,2.925-2.331a3.593,3.593,0,0,1,2.73,1.094c.139.148.21.242.055.349l-.746.544c-.152.121-.18.064-.356-.1a2.07,2.07,0,0,0-1.682-.668c-1.047,0-1.556.5-1.556,1.11,0,.678.135.969,1.885,1.507,1.594.488,2.788,1.162,2.788,2.638,0,1.836-1.123,2.785-3.117,2.785a4.082,4.082,0,0,1-3.084-1.368c-.113-.129-.148-.273.071-.407l.615-.376a.318.318,0,0,1,.423.055,2.578,2.578,0,0,0,1.951.874" transform="translate(-27.167 -19.446)" fill="#007fa3"/>
          <path id="path161" d="M160.723,31.359h.362v-.182h-.932v.182h.359v1.055h.211Zm1.209,1.055.362-.956h.014l-.01.235v.721h.218V31.177H162.2l-.348.959-.336-.959H161.2v1.237h.2v-.738l-.01-.221h.014l.345.96Z" transform="translate(-99.363 -19.496)" fill="#007fa3"/>
        </g>
      </g>
    </g>
    <path id="Path_4527" data-name="Path 4527" d="M0,0V100" transform="translate(562.906 206.443)" fill="none" stroke="#cccdd7" stroke-linecap="round" stroke-width="3" stroke-dasharray="1 10"/>
    <path id="Path_4524" data-name="Path 4524" d="M0,0V100" transform="translate(561.533 635.41) rotate(180)" fill="none" stroke="#cccdd7" stroke-linecap="round" stroke-width="3" stroke-dasharray="1 10"/>
    <path id="Path_1150" data-name="Path 1150" d="M576.165,215.052c-.015.061-.03.124-.043.186a32.561,32.561,0,0,0,3.241,22.918c.165.3.34.583.506.878a2.489,2.489,0,0,1,.5,1.708,2.112,2.112,0,0,1-.937,1.423,4.371,4.371,0,0,1-.819.291c-.32.057-.643.116-.969.159a15.376,15.376,0,0,1-1.99.129,15.223,15.223,0,0,1-2.14-30.294c.041-.005.082-.008.122-.016a2.254,2.254,0,0,1,1.7.242,1.977,1.977,0,0,1,.825,2.378" transform="translate(-41.371 200.739)" fill="#3d3d3d"/>
  </g>
</svg>
