<svg xmlns="http://www.w3.org/2000/svg" xmlns:xlink="http://www.w3.org/1999/xlink" width="474.957" height="867.016" viewBox="0 0 474.957 867.016">
  <defs>
    <filter id="Path_4526" x="0" y="210.81" width="474.957" height="474.956" filterUnits="userSpaceOnUse">
      <feOffset dy="20" input="SourceAlpha"/>
      <feGaussianBlur stdDeviation="49.5" result="blur"/>
      <feFlood flood-color="#3c485a" flood-opacity="0.149"/>
      <feComposite operator="in" in2="blur"/>
      <feComposite in="SourceGraphic"/>
    </filter>
    <filter id="Path_4522" x="47.598" y="490.817" width="376.198" height="376.198" filterUnits="userSpaceOnUse">
      <feOffset dy="5" input="SourceAlpha"/>
      <feGaussianBlur stdDeviation="49.5" result="blur-2"/>
      <feFlood flood-color="#3c485a" flood-opacity="0.102"/>
      <feComposite operator="in" in2="blur-2"/>
      <feComposite in="SourceGraphic"/>
    </filter>
    <filter id="Path_4528" x="47.598" y="0" width="376.198" height="376.198" filterUnits="userSpaceOnUse">
      <feOffset dy="5" input="SourceAlpha"/>
      <feGaussianBlur stdDeviation="49.5" result="blur-3"/>
      <feFlood flood-color="#3c485a" flood-opacity="0.102"/>
      <feComposite operator="in" in2="blur-3"/>
      <feComposite in="SourceGraphic"/>
    </filter>
  </defs>
  <g id="Group_3913" data-name="Group 3913" transform="translate(43.477 7.581)">
    <path id="Path_4527" data-name="Path 4527" d="M0,0V100" transform="translate(192.906 206.443)" fill="none" stroke="#cccdd7" stroke-linecap="round" stroke-width="3" stroke-dasharray="1 10"/>
    <path id="Path_4524" data-name="Path 4524" d="M0,0V100" transform="translate(191.533 635.41) rotate(180)" fill="none" stroke="#cccdd7" stroke-linecap="round" stroke-width="3" stroke-dasharray="1 10"/>
    <path id="Path_4525" data-name="Path 4525" d="M114.484,0A114.484,114.484,0,1,1,0,114.484,114.484,114.484,0,0,1,114.484,0Z" transform="translate(308.268 306.443) rotate(90)" fill="none" stroke="#d82125" stroke-linecap="round" stroke-width="3" stroke-dasharray="1 10"/>
    <g transform="matrix(1, 0, 0, 1, -43.48, -7.58)" filter="url(#Path_4526)">
      <path id="Path_4526-2" data-name="Path 4526" d="M88.979,0A88.978,88.978,0,1,1,0,88.978,88.978,88.978,0,0,1,88.979,0Z" transform="translate(148.5 339.31)" fill="#fff"/>
    </g>
    <g id="Group_3147" data-name="Group 3147" transform="translate(149.063 368.39)">
      <path id="Path_1150" data-name="Path 1150" d="M576.165,215.052c-.015.061-.03.124-.043.186a32.561,32.561,0,0,0,3.241,22.918c.165.3.34.583.506.878a2.489,2.489,0,0,1,.5,1.708,2.112,2.112,0,0,1-.937,1.423,4.371,4.371,0,0,1-.819.291c-.32.057-.643.116-.969.159a15.376,15.376,0,0,1-1.99.129,15.223,15.223,0,0,1-2.14-30.294c.041-.005.082-.008.122-.016a2.254,2.254,0,0,1,1.7.242,1.977,1.977,0,0,1,.825,2.378" transform="translate(-560.433 -167.65)" fill="#3d3d3d"/>
      <ellipse id="Ellipse_123" data-name="Ellipse 123" cx="28.414" cy="28.414" rx="28.414" ry="28.414" transform="translate(18.942 26.384)" fill="#d82225"/>
      <path id="Path_1151" data-name="Path 1151" d="M605.389,191.02c.627-.036.761-.02,1.4-.02a32.4,32.4,0,0,1,24.31,10.944,2.791,2.791,0,0,0,1.9,1.266,2.342,2.342,0,0,0,1.924-.666l.463-.393a19.279,19.279,0,1,0-32.322-14.194,3.818,3.818,0,0,0,.193,1.617,2.24,2.24,0,0,0,2.128,1.447" transform="translate(-559.433 -168.675)" fill="#262626"/>
      <path id="Path_1152" data-name="Path 1152" d="M634.789,242.158q.248.332.476.681a12.854,12.854,0,1,1-21.757,13.69c-.1-.169-.2-.344-.3-.515a1.716,1.716,0,0,1-.229-1.638,1.836,1.836,0,0,1,1.521-1.113,9.952,9.952,0,0,0,1.057-.286,32.485,32.485,0,0,0,15.623-10.039c.2-.236.394-.484.6-.718a2.122,2.122,0,0,1,.956-.81,1.669,1.669,0,0,1,1.47.163A1.993,1.993,0,0,1,634.789,242.158Z" transform="translate(-559.203 -166.971)" fill="#3d3d3d"/>
    </g>
    <g transform="matrix(1, 0, 0, 1, -43.48, -7.58)" filter="url(#Path_4522)">
      <path id="Path_4522-2" data-name="Path 4522" d="M8.867,0H69.332A8.867,8.867,0,0,1,78.2,8.867V69.332A8.867,8.867,0,0,1,69.332,78.2H8.867A8.867,8.867,0,0,1,0,69.332V8.867A8.867,8.867,0,0,1,8.867,0Z" transform="translate(274.8 713.02) rotate(180)" fill="#fff" stroke="#b4bbc6" stroke-width="1"/>
    </g>
    <path id="Path_4724" data-name="Path 4724" d="M-53.558,0V-10.664h3.545a4.612,4.612,0,0,1,2.769.729,2.525,2.525,0,0,1,1,2.179,2.142,2.142,0,0,1-.417,1.3,2.465,2.465,0,0,1-1.157.85,2.378,2.378,0,0,1,1.465.916,2.7,2.7,0,0,1,.513,1.633A2.74,2.74,0,0,1-46.827-.78a4.247,4.247,0,0,1-2.71.78Zm1.78-4.849v3.428h2.241a2.141,2.141,0,0,0,1.421-.421,1.508,1.508,0,0,0,.5-1.219,1.915,1.915,0,0,0-.417-1.318,1.66,1.66,0,0,0-1.3-.469Zm0-1.326h1.963a2.007,2.007,0,0,0,1.307-.392,1.352,1.352,0,0,0,.48-1.11,1.383,1.383,0,0,0-.505-1.176,2.415,2.415,0,0,0-1.479-.385h-1.765ZM-37.233,0h-7.083V-1.223l3.472-3.787a8.427,8.427,0,0,0,1.172-1.527,2.45,2.45,0,0,0,.322-1.168,1.773,1.773,0,0,0-.417-1.2,1.414,1.414,0,0,0-1.128-.483,1.738,1.738,0,0,0-1.392.527,2.15,2.15,0,0,0-.454,1.45h-1.721l-.015-.044a3.134,3.134,0,0,1,.93-2.391,3.575,3.575,0,0,1,2.651-.97,3.384,3.384,0,0,1,2.432.85,2.922,2.922,0,0,1,.894,2.219A3.278,3.278,0,0,1-38.086-6a14.749,14.749,0,0,1-1.6,2.029l-2.373,2.5.022.044h4.8Zm1.809,0V-10.664h3.545a4.612,4.612,0,0,1,2.769.729,2.525,2.525,0,0,1,1,2.179,2.142,2.142,0,0,1-.417,1.3,2.465,2.465,0,0,1-1.157.85,2.378,2.378,0,0,1,1.465.916,2.7,2.7,0,0,1,.513,1.633A2.74,2.74,0,0,1-28.693-.78,4.247,4.247,0,0,1-31.4,0Zm1.78-4.849v3.428H-31.4a2.141,2.141,0,0,0,1.421-.421,1.508,1.508,0,0,0,.5-1.219A1.915,1.915,0,0,0-29.9-4.38a1.66,1.66,0,0,0-1.3-.469Zm0-1.326h1.963a2.007,2.007,0,0,0,1.307-.392,1.352,1.352,0,0,0,.48-1.11A1.383,1.383,0,0,0-30.4-8.851a2.415,2.415,0,0,0-1.479-.385h-1.765Zm18.853-3.062h-3.223V0h-1.78V-9.236h-3.223v-1.428h8.225Zm4.6,2.915-.762-.029a1.6,1.6,0,0,0-.868.22,1.447,1.447,0,0,0-.538.623V0h-1.78V-7.925h1.626l.117,1.15a2.542,2.542,0,0,1,.773-.952,1.8,1.8,0,0,1,1.088-.344,1.659,1.659,0,0,1,.3.026,2.193,2.193,0,0,1,.256.062ZM-4.178,0q-.1-.3-.157-.586a4.189,4.189,0,0,1-.084-.571,3.144,3.144,0,0,1-.963.934A2.45,2.45,0,0,1-6.72.154a2.634,2.634,0,0,1-1.9-.637,2.314,2.314,0,0,1-.663-1.75,2.068,2.068,0,0,1,.908-1.791,4.385,4.385,0,0,1,2.556-.641h1.384v-.7A1.287,1.287,0,0,0-4.8-6.335a1.453,1.453,0,0,0-1.047-.352,1.483,1.483,0,0,0-.967.293.93.93,0,0,0-.359.754H-8.888L-8.9-5.684a1.963,1.963,0,0,1,.839-1.663,3.554,3.554,0,0,1,2.318-.725,3.39,3.39,0,0,1,2.234.7,2.475,2.475,0,0,1,.85,2.021v3.523a6.5,6.5,0,0,0,.066.941A5,5,0,0,0-2.377,0ZM-6.361-1.274a2.238,2.238,0,0,0,1.212-.337,1.7,1.7,0,0,0,.714-.769V-3.552H-5.848a1.784,1.784,0,0,0-1.216.385,1.168,1.168,0,0,0-.439.9.923.923,0,0,0,.3.721A1.221,1.221,0,0,0-6.361-1.274Zm5.244-2.578A5.226,5.226,0,0,1-.3-6.91,2.63,2.63,0,0,1,1.981-8.071a2.5,2.5,0,0,1,1.154.26,2.611,2.611,0,0,1,.883.743v-4.358H5.8V0H4.3L4.127-.981a2.619,2.619,0,0,1-.916.846A2.577,2.577,0,0,1,1.967.154,2.7,2.7,0,0,1-.3-.908,4.468,4.468,0,0,1-1.117-3.7ZM.663-3.7a3.191,3.191,0,0,0,.421,1.75A1.475,1.475,0,0,0,2.421-1.3a1.787,1.787,0,0,0,.956-.242,1.84,1.84,0,0,0,.641-.688V-5.684a1.874,1.874,0,0,0-.645-.685,1.742,1.742,0,0,0-.937-.245,1.435,1.435,0,0,0-1.34.765,4.038,4.038,0,0,0-.432,2ZM11.107.154a3.446,3.446,0,0,1-2.684-1.1,4.052,4.052,0,0,1-1-2.831v-.293A4.207,4.207,0,0,1,8.416-6.94,3.139,3.139,0,0,1,10.9-8.071a3.1,3.1,0,0,1,2.457.97,3.8,3.8,0,0,1,.853,2.6V-3.45H9.269l-.015.037a2.5,2.5,0,0,0,.553,1.545,1.749,1.749,0,0,0,1.41.6,3.811,3.811,0,0,0,1.23-.176,4.031,4.031,0,0,0,.989-.505l.571,1.165a3.687,3.687,0,0,1-1.187.667A4.971,4.971,0,0,1,11.107.154Zm-.205-6.8a1.335,1.335,0,0,0-1.084.524A2.579,2.579,0,0,0,9.291-4.79l.015.037h3.142v-.183a1.9,1.9,0,0,0-.385-1.23A1.4,1.4,0,0,0,10.9-6.643Zm14.487,3.9A1.373,1.373,0,0,0,24.9-3.831a4.643,4.643,0,0,0-1.747-.762A7.389,7.389,0,0,1,20.4-5.834a2.472,2.472,0,0,1-.963-2.025A2.586,2.586,0,0,1,20.5-9.983a4.328,4.328,0,0,1,2.75-.835,4.1,4.1,0,0,1,2.823.945A2.82,2.82,0,0,1,27.1-7.6l-.015.044H25.382a1.717,1.717,0,0,0-.557-1.329A2.273,2.273,0,0,0,23.236-9.4a2.324,2.324,0,0,0-1.5.425,1.35,1.35,0,0,0-.524,1.1,1.2,1.2,0,0,0,.568,1.011,6.286,6.286,0,0,0,1.879.762,6.256,6.256,0,0,1,2.615,1.274,2.678,2.678,0,0,1,.894,2.073A2.5,2.5,0,0,1,26.1-.634a4.6,4.6,0,0,1-2.8.787,4.977,4.977,0,0,1-2.93-.883,2.713,2.713,0,0,1-1.223-2.421l.015-.044h1.714a1.666,1.666,0,0,0,.674,1.454,2.951,2.951,0,0,0,1.75.48,2.578,2.578,0,0,0,1.538-.4A1.267,1.267,0,0,0,25.389-2.739Zm5.64-7.112v1.926H32.45v1.318H31.029v4.38a.955.955,0,0,0,.212.7.77.77,0,0,0,.564.209,1.574,1.574,0,0,0,.286-.026,1.736,1.736,0,0,0,.264-.07l.19,1.3A2.041,2.041,0,0,1,32,.084a3.013,3.013,0,0,1-.652.07,2.041,2.041,0,0,1-1.538-.575,2.518,2.518,0,0,1-.557-1.805v-4.38H28.048V-7.925h1.208V-9.851ZM33.7-4.036a4.317,4.317,0,0,1,.967-2.9,3.334,3.334,0,0,1,2.659-1.135A3.324,3.324,0,0,1,40-6.936a4.279,4.279,0,0,1,.974,2.9v.154A4.3,4.3,0,0,1,40-.967,3.327,3.327,0,0,1,37.343.154,3.347,3.347,0,0,1,34.669-.974,4.31,4.31,0,0,1,33.7-3.882Zm1.78.154a3.539,3.539,0,0,0,.454,1.89,1.531,1.531,0,0,0,1.406.725,1.539,1.539,0,0,0,1.392-.725,3.451,3.451,0,0,0,.469-1.89v-.154A3.407,3.407,0,0,0,38.734-5.9a1.544,1.544,0,0,0-1.406-.74,1.531,1.531,0,0,0-1.392.74,3.516,3.516,0,0,0-.454,1.868ZM46.476-6.321l-.762-.029a1.6,1.6,0,0,0-.868.22,1.447,1.447,0,0,0-.538.623V0h-1.78V-7.925h1.626l.117,1.15a2.542,2.542,0,0,1,.773-.952,1.8,1.8,0,0,1,1.088-.344,1.659,1.659,0,0,1,.3.026,2.193,2.193,0,0,1,.256.062ZM51.119.154a3.446,3.446,0,0,1-2.684-1.1,4.052,4.052,0,0,1-1-2.831v-.293a4.207,4.207,0,0,1,.992-2.867,3.139,3.139,0,0,1,2.487-1.132,3.1,3.1,0,0,1,2.457.97,3.8,3.8,0,0,1,.853,2.6V-3.45H49.281l-.015.037a2.5,2.5,0,0,0,.553,1.545,1.749,1.749,0,0,0,1.41.6,3.811,3.811,0,0,0,1.23-.176,4.031,4.031,0,0,0,.989-.505L54.02-.784a3.687,3.687,0,0,1-1.187.667A4.971,4.971,0,0,1,51.119.154Zm-.205-6.8a1.335,1.335,0,0,0-1.084.524A2.579,2.579,0,0,0,49.3-4.79l.015.037H52.46v-.183a1.9,1.9,0,0,0-.385-1.23A1.4,1.4,0,0,0,50.914-6.643Z" transform="translate(193 739)" fill="#b4bbc6"/>
    <g id="Group_3693" data-name="Group 3693" transform="translate(170.691 642.063)">
      <path id="Path_1150-2" data-name="Path 1150" d="M568.411,213.726c-.008.031-.015.063-.022.094a16.514,16.514,0,0,0,1.644,11.623c.084.15.172.3.256.445a1.262,1.262,0,0,1,.254.866,1.071,1.071,0,0,1-.475.721,2.219,2.219,0,0,1-.415.147c-.162.029-.326.059-.492.08a7.72,7.72,0,0,1-2.094-15.3c.021,0,.042,0,.062-.008a1.143,1.143,0,0,1,.864.123,1,1,0,0,1,.418,1.206" transform="translate(-560.433 -189.688)" fill="#3d3d3d"/>
      <ellipse id="Ellipse_123-2" data-name="Ellipse 123" cx="14.409" cy="14.409" rx="14.409" ry="14.409" transform="translate(9.606 13.38)" fill="#d82225"/>
      <path id="Path_1151-2" data-name="Path 1151" d="M604.238,180.007c.318-.018.386-.01.709-.01a16.429,16.429,0,0,1,12.328,5.55,1.415,1.415,0,0,0,.966.642,1.188,1.188,0,0,0,.976-.338l.234-.2a9.777,9.777,0,1,0-16.391-7.2,1.935,1.935,0,0,0,.1.82,1.136,1.136,0,0,0,1.079.734" transform="translate(-580.933 -168.675)" fill="#262626"/>
      <path id="Path_1152-2" data-name="Path 1152" d="M623.982,241.741q.126.168.241.345a6.519,6.519,0,1,1-11.033,6.943c-.052-.086-.1-.174-.152-.261a.87.87,0,0,1-.116-.83.931.931,0,0,1,.771-.565,5.053,5.053,0,0,0,.536-.145,16.475,16.475,0,0,0,7.923-5.091c.1-.12.2-.245.3-.364a1.077,1.077,0,0,1,.485-.411.846.846,0,0,1,.745.083A1.012,1.012,0,0,1,623.982,241.741Z" transform="translate(-585.65 -203.611)" fill="#3d3d3d"/>
    </g>
    <g transform="matrix(1, 0, 0, 1, -43.48, -7.58)" filter="url(#Path_4528)">
      <path id="Path_4528-2" data-name="Path 4528" d="M8.867,0H69.332A8.867,8.867,0,0,1,78.2,8.867V69.332A8.867,8.867,0,0,1,69.332,78.2H8.867A8.867,8.867,0,0,1,0,69.332V8.867A8.867,8.867,0,0,1,8.867,0Z" transform="translate(196.6 144)" fill="#fff" stroke="#b4bbc6" stroke-width="1"/>
    </g>
    <path id="Path_4659" data-name="Path 4659" d="M-20.542-2.557A1.282,1.282,0,0,0-21-3.575a4.334,4.334,0,0,0-1.63-.711A6.9,6.9,0,0,1-25.2-5.445a2.307,2.307,0,0,1-.9-1.89A2.414,2.414,0,0,1-25.1-9.317a4.039,4.039,0,0,1,2.567-.779,3.826,3.826,0,0,1,2.635.882,2.632,2.632,0,0,1,.96,2.119l-.014.041h-1.593a1.6,1.6,0,0,0-.52-1.241,2.121,2.121,0,0,0-1.483-.475,2.169,2.169,0,0,0-1.4.4,1.26,1.26,0,0,0-.489,1.025,1.121,1.121,0,0,0,.53.943,5.867,5.867,0,0,0,1.753.711A5.839,5.839,0,0,1-19.715-4.5a2.5,2.5,0,0,1,.834,1.935,2.335,2.335,0,0,1-.995,1.979A4.3,4.3,0,0,1-22.49.144,4.645,4.645,0,0,1-25.225-.68a2.532,2.532,0,0,1-1.142-2.259l.014-.041h1.6a1.555,1.555,0,0,0,.629,1.357,2.754,2.754,0,0,0,1.634.448,2.406,2.406,0,0,0,1.436-.373A1.182,1.182,0,0,0-20.542-2.557Zm6.658-2.557,2.406-4.84h1.853l-3.452,6.46V0h-1.654V-3.582l-3.4-6.371h1.853ZM-3.172-2.557a1.282,1.282,0,0,0-.461-1.019,4.334,4.334,0,0,0-1.63-.711A6.9,6.9,0,0,1-7.831-5.445a2.307,2.307,0,0,1-.9-1.89,2.414,2.414,0,0,1,.995-1.982A4.039,4.039,0,0,1-5.168-10.1a3.826,3.826,0,0,1,2.635.882A2.632,2.632,0,0,1-1.572-7.1l-.014.041H-3.179A1.6,1.6,0,0,0-3.7-8.3a2.121,2.121,0,0,0-1.483-.475,2.169,2.169,0,0,0-1.4.4,1.26,1.26,0,0,0-.489,1.025,1.121,1.121,0,0,0,.53.943,5.867,5.867,0,0,0,1.753.711A5.839,5.839,0,0,1-2.345-4.5,2.5,2.5,0,0,1-1.511-2.57,2.335,2.335,0,0,1-2.505-.591,4.3,4.3,0,0,1-5.12.144,4.645,4.645,0,0,1-7.854-.68,2.532,2.532,0,0,1-9-2.939l.014-.041h1.6a1.555,1.555,0,0,0,.629,1.357,2.754,2.754,0,0,0,1.634.448,2.406,2.406,0,0,0,1.436-.373A1.182,1.182,0,0,0-3.172-2.557ZM1.9-3.773V0H.239V-9.953h3.89A3.687,3.687,0,0,1,6.709-9.1a2.886,2.886,0,0,1,.933,2.239,2.881,2.881,0,0,1-.933,2.246,3.706,3.706,0,0,1-2.581.844Zm0-1.333H4.129A1.821,1.821,0,0,0,5.517-5.6,1.749,1.749,0,0,0,5.981-6.85a1.8,1.8,0,0,0-.465-1.265A1.793,1.793,0,0,0,4.129-8.62H1.9Zm9.044.978V0H9.283V-9.953h3.678a3.94,3.94,0,0,1,2.577.752,2.628,2.628,0,0,1,.909,2.146,2.22,2.22,0,0,1-.4,1.33,2.744,2.744,0,0,1-1.166.892,2.082,2.082,0,0,1,1.21.872,2.805,2.805,0,0,1,.369,1.487v.827a3.354,3.354,0,0,0,.109.854,1.2,1.2,0,0,0,.369.636V0H15.23a1.113,1.113,0,0,1-.352-.711,5.938,5.938,0,0,1-.079-.95v-.8a1.674,1.674,0,0,0-.437-1.217,1.6,1.6,0,0,0-1.2-.451Zm0-1.333h1.928a2.254,2.254,0,0,0,1.456-.383,1.437,1.437,0,0,0,.458-1.169,1.546,1.546,0,0,0-.451-1.179,1.935,1.935,0,0,0-1.374-.427H10.944ZM26.312-4.081a4.206,4.206,0,0,1-1.145,3.025A3.921,3.921,0,0,1,22.2.144a3.793,3.793,0,0,1-2.909-1.2A4.264,4.264,0,0,1,18.17-4.081V-5.872a4.267,4.267,0,0,1,1.118-3.021,3.779,3.779,0,0,1,2.9-1.2,3.926,3.926,0,0,1,2.974,1.2,4.2,4.2,0,0,1,1.148,3.021Zm-1.654-1.8a3.085,3.085,0,0,0-.667-2.044,2.223,2.223,0,0,0-1.8-.8,2.091,2.091,0,0,0-1.729.8,3.183,3.183,0,0,0-.636,2.044v1.8A3.22,3.22,0,0,0,20.46-2.02a2.1,2.1,0,0,0,1.736.8,2.21,2.21,0,0,0,1.8-.8,3.138,3.138,0,0,0,.66-2.064Z" transform="translate(192.934 112.663)" fill="#b4bbc6"/>
    <g id="layer1" transform="translate(161.887 175.638)">
      <g id="g291" transform="translate(-2.5 -16.5)">
        <path id="path113" d="M2.836,37.307.5,39.643H5.171V37.307Z" transform="translate(-0.5 -23.292)" fill="#007fa3"/>
        <path id="path119" d="M8.971,31.171h2.336v2.336H6.636Z" transform="translate(-4.3 -19.493)" fill="#84bd00"/>
        <path id="path123" d="M29.71,31.171v9.343l-4.671,4.671V40.514h2.335V33.507Z" transform="translate(-15.696 -19.493)" fill="#509e2f"/>
        <path id="path127" d="M6.635,54.246V49.575H8.97v2.336h2.335v2.336Z" transform="translate(-4.299 -30.889)" fill="#007fa3"/>
        <path id="path129" d="M18.9,18.9h2.336v2.335H18.9Z" transform="translate(-11.896 -11.896)" fill="#007fa3"/>
        <path id="path131" d="M25.037,12.768h2.336V15.1H25.037Z" transform="translate(-15.694 -8.097)" fill="#84bd00"/>
        <path id="path133" d="M18.9.5h2.336V2.836H18.9Z" transform="translate(-11.896 -0.5)" fill="#00c3de"/>
        <path id="path137" d="M7.508,45.779H2.837v4.672H7.508V45.779Zm2.335,7H.5V43.44H7.508v2.336H9.843v7.007" transform="translate(-0.501 -27.09)" fill="#00c3de"/>
        <path id="path141" d="M29.71,31.171l-2.336,2.336H25.039V31.171Z" transform="translate(-15.696 -19.493)" fill="#84bd00"/>
        <path id="path153" d="M51.655,31.26l1.807,3.566c.01,0,.017,0,.019.009L55.3,31.26c.045-.084.077-.1.235-.1h1.078c.155,0,.139.122.078.236l-2.537,4.787v3.974a.177.177,0,0,1-.176.174h-1a.176.176,0,0,1-.176-.174V36.19l-2.54-4.79c-.062-.114-.078-.236.078-.236H51.42c.159,0,.19.011.235.1m27.25,9.076H77.746c-.06,0-.1,0-.168-.12l-2.3-3.964H74.012v3.911a.178.178,0,0,1-.176.174h-1a.177.177,0,0,1-.176-.174V31.339a.177.177,0,0,1,.176-.175h3.622a2.11,2.11,0,0,1,2.365,2.127V34.1a2.041,2.041,0,0,1-2.051,2.128L78.983,40.1c.062.113.078.235-.078.235m-2.643-5.259c.827,0,1.279-.34,1.279-1.113v-.51c0-.774-.452-1.114-1.279-1.114h-2.25v2.737ZM69,31.164H65.373a.177.177,0,0,0-.176.175v8.823a.177.177,0,0,0,.176.174h1a.178.178,0,0,0,.177-.174V36.269h2.419a2.141,2.141,0,0,0,2.411-2.158v-.8A2.129,2.129,0,0,0,69,31.164m1.039,2.805c0,.768-.449,1.105-1.269,1.105H66.539V32.36H68.77c.821,0,1.269.338,1.269,1.105Zm16.7-.37v4.27c0,1.629-1.261,2.543-3.1,2.543-1.858,0-3.118-.914-3.118-2.543V33.6c0-1.592,1.262-2.5,3.118-2.5s3.1.913,3.1,2.5m-1.315.178c0-1.292-1.111-1.516-1.788-1.516-.694,0-1.8.224-1.8,1.516V37.73c0,1.292,1.11,1.516,1.8,1.516.677,0,1.788-.223,1.788-1.516ZM46.714,39.163c.717,0,1.772-.179,1.772-1.55,0-.6-.426-1.117-1.836-1.493-2.6-.693-2.838-1.7-2.838-2.666.016-1.424,1.307-2.331,2.926-2.331a3.592,3.592,0,0,1,2.729,1.094c.139.148.211.242.055.349l-.745.544c-.152.121-.18.064-.356-.1a2.072,2.072,0,0,0-1.683-.668c-1.047,0-1.557.5-1.557,1.11,0,.678.134.969,1.886,1.507,1.593.488,2.787,1.162,2.787,2.638,0,1.836-1.122,2.785-3.116,2.785a4.083,4.083,0,0,1-3.085-1.368c-.113-.129-.148-.273.072-.407l.615-.376a.317.317,0,0,1,.422.055,2.578,2.578,0,0,0,1.951.874m13.73,0c.717,0,1.772-.179,1.772-1.55,0-.6-.426-1.117-1.836-1.493-2.6-.693-2.837-1.7-2.837-2.666.016-1.424,1.306-2.331,2.925-2.331a3.593,3.593,0,0,1,2.73,1.094c.139.148.21.242.055.349l-.746.544c-.152.121-.18.064-.356-.1a2.07,2.07,0,0,0-1.682-.668c-1.047,0-1.556.5-1.556,1.11,0,.678.135.969,1.885,1.507,1.594.488,2.788,1.162,2.788,2.638,0,1.836-1.123,2.785-3.117,2.785a4.082,4.082,0,0,1-3.084-1.368c-.113-.129-.148-.273.071-.407l.615-.376a.318.318,0,0,1,.423.055,2.578,2.578,0,0,0,1.951.874" transform="translate(-27.167 -19.446)" fill="#007fa3"/>
        <path id="path161" d="M160.723,31.359h.362v-.182h-.932v.182h.359v1.055h.211Zm1.209,1.055.362-.956h.014l-.01.235v.721h.218V31.177H162.2l-.348.959-.336-.959H161.2v1.237h.2v-.738l-.01-.221h.014l.345.96Z" transform="translate(-99.363 -19.496)" fill="#007fa3"/>
      </g>
    </g>
  </g>
</svg>
