<svg xmlns="http://www.w3.org/2000/svg" xmlns:xlink="http://www.w3.org/1999/xlink" width="474.957" height="867.016" viewBox="0 0 474.957 867.016">
  <defs>
    <filter id="Path_4526" x="0" y="210.81" width="474.957" height="474.956" filterUnits="userSpaceOnUse">
      <feOffset dy="20" input="SourceAlpha"/>
      <feGaussianBlur stdDeviation="49.5" result="blur"/>
      <feFlood flood-color="#3c485a" flood-opacity="0.149"/>
      <feComposite operator="in" in2="blur"/>
      <feComposite in="SourceGraphic"/>
    </filter>
    <filter id="Path_4528" x="47.597" y="0" width="376.198" height="376.198" filterUnits="userSpaceOnUse">
      <feOffset dy="5" input="SourceAlpha"/>
      <feGaussianBlur stdDeviation="49.5" result="blur-2"/>
      <feFlood flood-color="#3c485a" flood-opacity="0.102"/>
      <feComposite operator="in" in2="blur-2"/>
      <feComposite in="SourceGraphic"/>
    </filter>
    <filter id="Path_4522" x="47.597" y="490.817" width="376.198" height="376.198" filterUnits="userSpaceOnUse">
      <feOffset dy="5" input="SourceAlpha"/>
      <feGaussianBlur stdDeviation="49.5" result="blur-3"/>
      <feFlood flood-color="#3c485a" flood-opacity="0.102"/>
      <feComposite operator="in" in2="blur-3"/>
      <feComposite in="SourceGraphic"/>
    </filter>
    <linearGradient id="linear-gradient" x1="0.5" y1="1.001" x2="0.5" y2="0.001" gradientUnits="objectBoundingBox">
      <stop offset="0" stop-color="#225fbc"/>
      <stop offset="1" stop-color="#1fb2f0"/>
    </linearGradient>
  </defs>
  <g id="Group_3694" data-name="Group 3694" transform="translate(35.714 -1574.651)">
    <path id="Path_4527" data-name="Path 4527" d="M0,0V100" transform="translate(200.669 1788.675)" fill="none" stroke="#cccdd7" stroke-linecap="round" stroke-width="3" stroke-dasharray="1 10"/>
    <path id="Path_4524" data-name="Path 4524" d="M0,0V100" transform="translate(199.295 2217.643) rotate(180)" fill="none" stroke="#cccdd7" stroke-linecap="round" stroke-width="3" stroke-dasharray="1 10"/>
    <path id="Path_4525" data-name="Path 4525" d="M114.484,0A114.484,114.484,0,1,1,0,114.484,114.484,114.484,0,0,1,114.484,0Z" transform="translate(316.03 1888.675) rotate(90)" fill="none" stroke="#d82125" stroke-linecap="round" stroke-width="3" stroke-dasharray="1 10"/>
    <g transform="matrix(1, 0, 0, 1, -35.71, 1574.65)" filter="url(#Path_4526)">
      <path id="Path_4526-2" data-name="Path 4526" d="M88.979,0A88.978,88.978,0,1,1,0,88.978,88.978,88.978,0,0,1,88.979,0Z" transform="translate(148.5 339.31)" fill="#fff"/>
    </g>
    <g id="Group_3147" data-name="Group 3147" transform="translate(156.823 1950.622)">
      <path id="Path_1150" data-name="Path 1150" d="M576.165,215.052c-.015.061-.03.124-.043.186a32.561,32.561,0,0,0,3.241,22.918c.165.3.34.583.506.878a2.489,2.489,0,0,1,.5,1.708,2.112,2.112,0,0,1-.937,1.423,4.371,4.371,0,0,1-.819.291c-.32.057-.643.116-.969.159a15.376,15.376,0,0,1-1.99.129,15.223,15.223,0,0,1-2.14-30.294c.041-.005.082-.008.122-.016a2.254,2.254,0,0,1,1.7.242,1.977,1.977,0,0,1,.825,2.378" transform="translate(-560.433 -167.65)" fill="#3d3d3d"/>
      <ellipse id="Ellipse_123" data-name="Ellipse 123" cx="28.414" cy="28.414" rx="28.414" ry="28.414" transform="translate(18.942 26.384)" fill="#d82225"/>
      <path id="Path_1151" data-name="Path 1151" d="M605.389,191.02c.627-.036.761-.02,1.4-.02a32.4,32.4,0,0,1,24.31,10.944,2.791,2.791,0,0,0,1.9,1.266,2.342,2.342,0,0,0,1.924-.666l.463-.393a19.279,19.279,0,1,0-32.322-14.194,3.818,3.818,0,0,0,.193,1.617,2.24,2.24,0,0,0,2.128,1.447" transform="translate(-559.433 -168.675)" fill="#262626"/>
      <path id="Path_1152" data-name="Path 1152" d="M634.789,242.158q.248.332.476.681a12.854,12.854,0,1,1-21.757,13.69c-.1-.169-.2-.344-.3-.515a1.716,1.716,0,0,1-.229-1.638,1.836,1.836,0,0,1,1.521-1.113,9.952,9.952,0,0,0,1.057-.286,32.485,32.485,0,0,0,15.623-10.039c.2-.236.394-.484.6-.718a2.122,2.122,0,0,1,.956-.81,1.669,1.669,0,0,1,1.47.163A1.993,1.993,0,0,1,634.789,242.158Z" transform="translate(-559.203 -166.971)" fill="#3d3d3d"/>
    </g>
    <g transform="matrix(1, 0, 0, 1, -35.71, 1574.65)" filter="url(#Path_4528)">
      <path id="Path_4528-2" data-name="Path 4528" d="M8.867,0H69.332A8.867,8.867,0,0,1,78.2,8.867V69.332A8.867,8.867,0,0,1,69.332,78.2H8.867A8.867,8.867,0,0,1,0,69.332V8.867A8.867,8.867,0,0,1,8.867,0Z" transform="translate(196.6 144)" fill="#fff" stroke="#b4bbc6" stroke-width="1"/>
    </g>
    <g transform="matrix(1, 0, 0, 1, -35.71, 1574.65)" filter="url(#Path_4522)">
      <path id="Path_4522-2" data-name="Path 4522" d="M8.867,0H69.332A8.867,8.867,0,0,1,78.2,8.867V69.332A8.867,8.867,0,0,1,69.332,78.2H8.867A8.867,8.867,0,0,1,0,69.332V8.867A8.867,8.867,0,0,1,8.867,0Z" transform="translate(274.8 713.02) rotate(180)" fill="#fff" stroke="#b4bbc6" stroke-width="1"/>
    </g>
    <g id="Group_3688" data-name="Group 3688" transform="translate(17.92 1441.899)">
      <path id="Path_3551" data-name="Path 3551" d="M153.5,332.414h30.444l29.8-29.8H153.5v29.8" transform="translate(0 0)" fill-rule="evenodd" fill="url(#linear-gradient)"/>
      <path id="Path_3552" data-name="Path 3552" d="M193.05,332.05h-5.93v14.1l-5.181-14.1H176.8l-4.424,11.789c-.468-2.971-3.544-4-5.964-4.769-1.6-.512-3.291-1.268-3.276-2.1.011-.684.91-1.32,2.684-1.224a9.688,9.688,0,0,1,4.337,1.17l2.064-3.588a16.053,16.053,0,0,0-6.717-1.59h-.015a8.16,8.16,0,0,0-5.93,2.166,5.008,5.008,0,0,0-1.42,3.458,4.645,4.645,0,0,0,2.038,4.141,13.915,13.915,0,0,0,4.03,1.846c1.645.508,2.989.951,2.973,1.9a1.362,1.362,0,0,1-.388.924,2.606,2.606,0,0,1-1.911.6,8.211,8.211,0,0,1-4.91-1.4L158.143,349a13.7,13.7,0,0,0,6.712,1.786l.308,0a8.113,8.113,0,0,0,5.1-1.712c.074-.059.145-.124.216-.187l-.593,1.59h5.385l.9-2.75a10.282,10.282,0,0,0,6.257.025l.871,2.724h8.783v-5.694h1.916c4.631,0,7.373-2.357,7.373-6.311C201.38,334.07,198.718,332.05,193.05,332.05Zm-13.7,12.066a5.377,5.377,0,0,1-1.9-.336l1.881-5.928h.038l1.842,5.946A5.474,5.474,0,0,1,179.346,344.116Zm14.053-3.408h-1.307v-4.78H193.4c1.743,0,3.129.578,3.129,2.362,0,1.839-1.387,2.418-3.129,2.418" transform="translate(-3.799 -23.833)" fill="#fff" fill-rule="evenodd"/>
      <path id="Path_3553" data-name="Path 3553" d="M359.585,447.429a1.569,1.569,0,1,1,1.574,1.615A1.565,1.565,0,0,1,359.585,447.429Zm1.574,1.937a1.933,1.933,0,1,0-1.963-1.937A1.931,1.931,0,0,0,361.159,449.366Zm-.41-1.785h.388l.587.965h.38l-.636-.981a.578.578,0,0,0,.578-.613c0-.439-.26-.634-.785-.634h-.849v2.227h.337Zm0-.287v-.688h.462c.231,0,.48.049.48.327,0,.344-.254.362-.536.362Z" transform="translate(-168.354 -116.947)" fill="#225fbc"/>
    </g>
    <path id="Path_4725" data-name="Path 4725" d="M-55.441-2.739a1.373,1.373,0,0,0-.494-1.091,4.643,4.643,0,0,0-1.747-.762,7.389,7.389,0,0,1-2.75-1.241A2.472,2.472,0,0,1-61.4-7.859,2.586,2.586,0,0,1-60.33-9.983a4.328,4.328,0,0,1,2.75-.835,4.1,4.1,0,0,1,2.823.945A2.82,2.82,0,0,1-53.727-7.6l-.015.044h-1.707A1.717,1.717,0,0,0-56-8.888,2.273,2.273,0,0,0-57.594-9.4a2.324,2.324,0,0,0-1.5.425,1.35,1.35,0,0,0-.524,1.1,1.2,1.2,0,0,0,.568,1.011,6.286,6.286,0,0,0,1.879.762,6.256,6.256,0,0,1,2.615,1.274,2.678,2.678,0,0,1,.894,2.073,2.5,2.5,0,0,1-1.066,2.12,4.6,4.6,0,0,1-2.8.787,4.977,4.977,0,0,1-2.93-.883,2.713,2.713,0,0,1-1.223-2.421l.015-.044h1.714a1.666,1.666,0,0,0,.674,1.454,2.951,2.951,0,0,0,1.75.48,2.578,2.578,0,0,0,1.538-.4A1.267,1.267,0,0,0-55.441-2.739Zm9.434.249h-4.175L-51.031,0h-1.8l3.918-10.664h1.685L-43.356,0h-1.809Zm-3.662-1.487h3.157l-1.545-4.556H-48.1Zm9.331-.066V0h-1.78V-10.664h4.167a3.951,3.951,0,0,1,2.765.912,3.092,3.092,0,0,1,1,2.4,3.087,3.087,0,0,1-1,2.406,3.971,3.971,0,0,1-2.765.9Zm0-1.428h2.388A1.951,1.951,0,0,0-36.464-6a1.874,1.874,0,0,0,.5-1.34,1.926,1.926,0,0,0-.5-1.355,1.921,1.921,0,0,0-1.487-.542h-2.388ZM-28.693,0V-10.664h3.545a4.612,4.612,0,0,1,2.769.729,2.525,2.525,0,0,1,1,2.179,2.142,2.142,0,0,1-.417,1.3,2.465,2.465,0,0,1-1.157.85,2.378,2.378,0,0,1,1.465.916,2.7,2.7,0,0,1,.513,1.633A2.74,2.74,0,0,1-21.962-.78a4.247,4.247,0,0,1-2.71.78Zm1.78-4.849v3.428h2.241a2.141,2.141,0,0,0,1.421-.421,1.508,1.508,0,0,0,.5-1.219A1.915,1.915,0,0,0-23.17-4.38a1.66,1.66,0,0,0-1.3-.469Zm0-1.326h1.963a2.007,2.007,0,0,0,1.307-.392,1.352,1.352,0,0,0,.48-1.11,1.383,1.383,0,0,0-.505-1.176,2.415,2.415,0,0,0-1.479-.385h-1.765Zm12.539,5.017a2.711,2.711,0,0,1-.945.97,2.525,2.525,0,0,1-1.318.341,2.519,2.519,0,0,1-1.992-.813,3.744,3.744,0,0,1-.718-2.527V-7.925h1.772v4.753a2.376,2.376,0,0,0,.337,1.458,1.23,1.23,0,0,0,1.018.417,2.289,2.289,0,0,0,1.08-.231,1.675,1.675,0,0,0,.685-.67V-7.925h1.78V0h-1.553Zm8.013-1a.827.827,0,0,0-.352-.681,3.507,3.507,0,0,0-1.311-.476,5.442,5.442,0,0,1-2.15-.853A1.788,1.788,0,0,1-10.9-5.669a2.142,2.142,0,0,1,.842-1.7,3.349,3.349,0,0,1,2.219-.7,3.476,3.476,0,0,1,2.3.714A2.115,2.115,0,0,1-4.72-5.588l-.015.044H-6.442a1.116,1.116,0,0,0-.374-.842,1.436,1.436,0,0,0-1.025-.352,1.467,1.467,0,0,0-.981.289.9.9,0,0,0-.337.707.793.793,0,0,0,.319.663,3.421,3.421,0,0,0,1.293.436,5.446,5.446,0,0,1,2.216.868,1.83,1.83,0,0,1,.721,1.527A2.077,2.077,0,0,1-5.493-.513,3.761,3.761,0,0,1-7.819.154a3.549,3.549,0,0,1-2.439-.791,2.234,2.234,0,0,1-.85-1.816l.015-.044h1.655a1.187,1.187,0,0,0,.5,1A2,2,0,0,0-7.8-1.179a1.825,1.825,0,0,0,1.062-.264A.827.827,0,0,0-6.361-2.153ZM-1.117,0H-2.9V-7.925h1.78Zm0-9.866H-2.9v-1.56h1.78Zm3.6,1.941.1,1.143a2.835,2.835,0,0,1,.978-.948A2.609,2.609,0,0,1,4.9-8.071a2.494,2.494,0,0,1,1.93.751,3.367,3.367,0,0,1,.692,2.34V0H5.739V-4.966a1.78,1.78,0,0,0-.37-1.271,1.511,1.511,0,0,0-1.124-.377,1.864,1.864,0,0,0-.93.231,1.923,1.923,0,0,0-.674.634V0H.861V-7.925ZM12.77.154a3.446,3.446,0,0,1-2.684-1.1,4.052,4.052,0,0,1-1-2.831v-.293a4.207,4.207,0,0,1,.992-2.867,3.139,3.139,0,0,1,2.487-1.132,3.1,3.1,0,0,1,2.457.97,3.8,3.8,0,0,1,.853,2.6V-3.45H10.931l-.015.037a2.5,2.5,0,0,0,.553,1.545,1.749,1.749,0,0,0,1.41.6,3.811,3.811,0,0,0,1.23-.176,4.031,4.031,0,0,0,.989-.505L15.67-.784a3.687,3.687,0,0,1-1.187.667A4.971,4.971,0,0,1,12.77.154Zm-.205-6.8a1.335,1.335,0,0,0-1.084.524,2.579,2.579,0,0,0-.527,1.329l.015.037H14.11v-.183a1.9,1.9,0,0,0-.385-1.23A1.4,1.4,0,0,0,12.565-6.643Zm9.2,4.49a.827.827,0,0,0-.352-.681A3.507,3.507,0,0,0,20.1-3.311a5.442,5.442,0,0,1-2.15-.853,1.788,1.788,0,0,1-.729-1.505,2.142,2.142,0,0,1,.842-1.7,3.349,3.349,0,0,1,2.219-.7,3.476,3.476,0,0,1,2.3.714A2.115,2.115,0,0,1,23.4-5.588l-.015.044H21.683a1.116,1.116,0,0,0-.374-.842,1.436,1.436,0,0,0-1.025-.352,1.467,1.467,0,0,0-.981.289.9.9,0,0,0-.337.707.793.793,0,0,0,.319.663,3.421,3.421,0,0,0,1.293.436,5.446,5.446,0,0,1,2.216.868,1.83,1.83,0,0,1,.721,1.527,2.077,2.077,0,0,1-.883,1.736,3.761,3.761,0,0,1-2.325.667,3.549,3.549,0,0,1-2.439-.791,2.234,2.234,0,0,1-.85-1.816l.015-.044h1.655a1.187,1.187,0,0,0,.5,1,2,2,0,0,0,1.143.315,1.825,1.825,0,0,0,1.062-.264A.827.827,0,0,0,21.764-2.153Zm7.8,0a.827.827,0,0,0-.352-.681A3.507,3.507,0,0,0,27.9-3.311a5.442,5.442,0,0,1-2.15-.853,1.788,1.788,0,0,1-.729-1.505,2.142,2.142,0,0,1,.842-1.7,3.349,3.349,0,0,1,2.219-.7,3.476,3.476,0,0,1,2.3.714A2.115,2.115,0,0,1,31.2-5.588l-.015.044H29.484a1.116,1.116,0,0,0-.374-.842,1.436,1.436,0,0,0-1.025-.352,1.467,1.467,0,0,0-.981.289.9.9,0,0,0-.337.707.793.793,0,0,0,.319.663,3.421,3.421,0,0,0,1.293.436,5.446,5.446,0,0,1,2.216.868,1.83,1.83,0,0,1,.721,1.527,2.077,2.077,0,0,1-.883,1.736,3.761,3.761,0,0,1-2.325.667,3.549,3.549,0,0,1-2.439-.791,2.234,2.234,0,0,1-.85-1.816l.015-.044h1.655a1.187,1.187,0,0,0,.5,1,2,2,0,0,0,1.143.315,1.825,1.825,0,0,0,1.062-.264A.827.827,0,0,0,29.564-2.153ZM45.187-4.373A4.507,4.507,0,0,1,43.96-1.132,4.2,4.2,0,0,1,40.778.154a4.063,4.063,0,0,1-3.116-1.285,4.569,4.569,0,0,1-1.2-3.241V-6.292a4.572,4.572,0,0,1,1.2-3.237,4.049,4.049,0,0,1,3.109-1.289,4.207,4.207,0,0,1,3.186,1.289,4.5,4.5,0,0,1,1.23,3.237ZM43.414-6.306A3.305,3.305,0,0,0,42.7-8.5a2.381,2.381,0,0,0-1.93-.857,2.241,2.241,0,0,0-1.853.857,3.411,3.411,0,0,0-.681,2.19v1.934a3.45,3.45,0,0,0,.681,2.208,2.244,2.244,0,0,0,1.86.861,2.368,2.368,0,0,0,1.93-.857,3.362,3.362,0,0,0,.707-2.212ZM48.5-7.925l.1,1.143a2.835,2.835,0,0,1,.978-.948,2.609,2.609,0,0,1,1.329-.341,2.494,2.494,0,0,1,1.93.751,3.367,3.367,0,0,1,.692,2.34V0h-1.78V-4.966a1.78,1.78,0,0,0-.37-1.271,1.511,1.511,0,0,0-1.124-.377,1.864,1.864,0,0,0-.93.231,1.923,1.923,0,0,0-.674.634V0h-1.78V-7.925ZM58.781.154A3.446,3.446,0,0,1,56.1-.948a4.052,4.052,0,0,1-1-2.831v-.293a4.207,4.207,0,0,1,.992-2.867,3.139,3.139,0,0,1,2.487-1.132,3.1,3.1,0,0,1,2.457.97,3.8,3.8,0,0,1,.853,2.6V-3.45H56.942l-.015.037a2.5,2.5,0,0,0,.553,1.545,1.749,1.749,0,0,0,1.41.6,3.811,3.811,0,0,0,1.23-.176,4.031,4.031,0,0,0,.989-.505l.571,1.165a3.687,3.687,0,0,1-1.187.667A4.971,4.971,0,0,1,58.781.154Zm-.205-6.8a1.335,1.335,0,0,0-1.084.524,2.579,2.579,0,0,0-.527,1.329l.015.037h3.142v-.183a1.9,1.9,0,0,0-.385-1.23A1.4,1.4,0,0,0,58.575-6.643Z" transform="translate(200.762 1697.232)" fill="#b4bbc6"/>
    <path id="Path_4726" data-name="Path 4726" d="M-53.558,0V-10.664h3.545a4.612,4.612,0,0,1,2.769.729,2.525,2.525,0,0,1,1,2.179,2.142,2.142,0,0,1-.417,1.3,2.465,2.465,0,0,1-1.157.85,2.378,2.378,0,0,1,1.465.916,2.7,2.7,0,0,1,.513,1.633A2.74,2.74,0,0,1-46.827-.78a4.247,4.247,0,0,1-2.71.78Zm1.78-4.849v3.428h2.241a2.141,2.141,0,0,0,1.421-.421,1.508,1.508,0,0,0,.5-1.219,1.915,1.915,0,0,0-.417-1.318,1.66,1.66,0,0,0-1.3-.469Zm0-1.326h1.963a2.007,2.007,0,0,0,1.307-.392,1.352,1.352,0,0,0,.48-1.11,1.383,1.383,0,0,0-.505-1.176,2.415,2.415,0,0,0-1.479-.385h-1.765ZM-37.233,0h-7.083V-1.223l3.472-3.787a8.427,8.427,0,0,0,1.172-1.527,2.45,2.45,0,0,0,.322-1.168,1.773,1.773,0,0,0-.417-1.2,1.414,1.414,0,0,0-1.128-.483,1.738,1.738,0,0,0-1.392.527,2.15,2.15,0,0,0-.454,1.45h-1.721l-.015-.044a3.134,3.134,0,0,1,.93-2.391,3.575,3.575,0,0,1,2.651-.97,3.384,3.384,0,0,1,2.432.85,2.922,2.922,0,0,1,.894,2.219A3.278,3.278,0,0,1-38.086-6a14.749,14.749,0,0,1-1.6,2.029l-2.373,2.5.022.044h4.8Zm1.809,0V-10.664h3.545a4.612,4.612,0,0,1,2.769.729,2.525,2.525,0,0,1,1,2.179,2.142,2.142,0,0,1-.417,1.3,2.465,2.465,0,0,1-1.157.85,2.378,2.378,0,0,1,1.465.916,2.7,2.7,0,0,1,.513,1.633A2.74,2.74,0,0,1-28.693-.78,4.247,4.247,0,0,1-31.4,0Zm1.78-4.849v3.428H-31.4a2.141,2.141,0,0,0,1.421-.421,1.508,1.508,0,0,0,.5-1.219A1.915,1.915,0,0,0-29.9-4.38a1.66,1.66,0,0,0-1.3-.469Zm0-1.326h1.963a2.007,2.007,0,0,0,1.307-.392,1.352,1.352,0,0,0,.48-1.11A1.383,1.383,0,0,0-30.4-8.851a2.415,2.415,0,0,0-1.479-.385h-1.765Zm18.853-3.062h-3.223V0h-1.78V-9.236h-3.223v-1.428h8.225Zm4.6,2.915-.762-.029a1.6,1.6,0,0,0-.868.22,1.447,1.447,0,0,0-.538.623V0h-1.78V-7.925h1.626l.117,1.15a2.542,2.542,0,0,1,.773-.952,1.8,1.8,0,0,1,1.088-.344,1.659,1.659,0,0,1,.3.026,2.193,2.193,0,0,1,.256.062ZM-4.178,0q-.1-.3-.157-.586a4.189,4.189,0,0,1-.084-.571,3.144,3.144,0,0,1-.963.934A2.45,2.45,0,0,1-6.72.154a2.634,2.634,0,0,1-1.9-.637,2.314,2.314,0,0,1-.663-1.75,2.068,2.068,0,0,1,.908-1.791,4.385,4.385,0,0,1,2.556-.641h1.384v-.7A1.287,1.287,0,0,0-4.8-6.335a1.453,1.453,0,0,0-1.047-.352,1.483,1.483,0,0,0-.967.293.93.93,0,0,0-.359.754H-8.888L-8.9-5.684a1.963,1.963,0,0,1,.839-1.663,3.554,3.554,0,0,1,2.318-.725,3.39,3.39,0,0,1,2.234.7,2.475,2.475,0,0,1,.85,2.021v3.523a6.5,6.5,0,0,0,.066.941A5,5,0,0,0-2.377,0ZM-6.361-1.274a2.238,2.238,0,0,0,1.212-.337,1.7,1.7,0,0,0,.714-.769V-3.552H-5.848a1.784,1.784,0,0,0-1.216.385,1.168,1.168,0,0,0-.439.9.923.923,0,0,0,.3.721A1.221,1.221,0,0,0-6.361-1.274Zm5.244-2.578A5.226,5.226,0,0,1-.3-6.91,2.63,2.63,0,0,1,1.981-8.071a2.5,2.5,0,0,1,1.154.26,2.611,2.611,0,0,1,.883.743v-4.358H5.8V0H4.3L4.127-.981a2.619,2.619,0,0,1-.916.846A2.577,2.577,0,0,1,1.967.154,2.7,2.7,0,0,1-.3-.908,4.468,4.468,0,0,1-1.117-3.7ZM.663-3.7a3.191,3.191,0,0,0,.421,1.75A1.475,1.475,0,0,0,2.421-1.3a1.787,1.787,0,0,0,.956-.242,1.84,1.84,0,0,0,.641-.688V-5.684a1.874,1.874,0,0,0-.645-.685,1.742,1.742,0,0,0-.937-.245,1.435,1.435,0,0,0-1.34.765,4.038,4.038,0,0,0-.432,2ZM11.107.154a3.446,3.446,0,0,1-2.684-1.1,4.052,4.052,0,0,1-1-2.831v-.293A4.207,4.207,0,0,1,8.416-6.94,3.139,3.139,0,0,1,10.9-8.071a3.1,3.1,0,0,1,2.457.97,3.8,3.8,0,0,1,.853,2.6V-3.45H9.269l-.015.037a2.5,2.5,0,0,0,.553,1.545,1.749,1.749,0,0,0,1.41.6,3.811,3.811,0,0,0,1.23-.176,4.031,4.031,0,0,0,.989-.505l.571,1.165a3.687,3.687,0,0,1-1.187.667A4.971,4.971,0,0,1,11.107.154Zm-.205-6.8a1.335,1.335,0,0,0-1.084.524A2.579,2.579,0,0,0,9.291-4.79l.015.037h3.142v-.183a1.9,1.9,0,0,0-.385-1.23A1.4,1.4,0,0,0,10.9-6.643Zm14.487,3.9A1.373,1.373,0,0,0,24.9-3.831a4.643,4.643,0,0,0-1.747-.762A7.389,7.389,0,0,1,20.4-5.834a2.472,2.472,0,0,1-.963-2.025A2.586,2.586,0,0,1,20.5-9.983a4.328,4.328,0,0,1,2.75-.835,4.1,4.1,0,0,1,2.823.945A2.82,2.82,0,0,1,27.1-7.6l-.015.044H25.382a1.717,1.717,0,0,0-.557-1.329A2.273,2.273,0,0,0,23.236-9.4a2.324,2.324,0,0,0-1.5.425,1.35,1.35,0,0,0-.524,1.1,1.2,1.2,0,0,0,.568,1.011,6.286,6.286,0,0,0,1.879.762,6.256,6.256,0,0,1,2.615,1.274,2.678,2.678,0,0,1,.894,2.073A2.5,2.5,0,0,1,26.1-.634a4.6,4.6,0,0,1-2.8.787,4.977,4.977,0,0,1-2.93-.883,2.713,2.713,0,0,1-1.223-2.421l.015-.044h1.714a1.666,1.666,0,0,0,.674,1.454,2.951,2.951,0,0,0,1.75.48,2.578,2.578,0,0,0,1.538-.4A1.267,1.267,0,0,0,25.389-2.739Zm5.64-7.112v1.926H32.45v1.318H31.029v4.38a.955.955,0,0,0,.212.7.77.77,0,0,0,.564.209,1.574,1.574,0,0,0,.286-.026,1.736,1.736,0,0,0,.264-.07l.19,1.3A2.041,2.041,0,0,1,32,.084a3.013,3.013,0,0,1-.652.07,2.041,2.041,0,0,1-1.538-.575,2.518,2.518,0,0,1-.557-1.805v-4.38H28.048V-7.925h1.208V-9.851ZM33.7-4.036a4.317,4.317,0,0,1,.967-2.9,3.334,3.334,0,0,1,2.659-1.135A3.324,3.324,0,0,1,40-6.936a4.279,4.279,0,0,1,.974,2.9v.154A4.3,4.3,0,0,1,40-.967,3.327,3.327,0,0,1,37.343.154,3.347,3.347,0,0,1,34.669-.974,4.31,4.31,0,0,1,33.7-3.882Zm1.78.154a3.539,3.539,0,0,0,.454,1.89,1.531,1.531,0,0,0,1.406.725,1.539,1.539,0,0,0,1.392-.725,3.451,3.451,0,0,0,.469-1.89v-.154A3.407,3.407,0,0,0,38.734-5.9a1.544,1.544,0,0,0-1.406-.74,1.531,1.531,0,0,0-1.392.74,3.516,3.516,0,0,0-.454,1.868ZM46.476-6.321l-.762-.029a1.6,1.6,0,0,0-.868.22,1.447,1.447,0,0,0-.538.623V0h-1.78V-7.925h1.626l.117,1.15a2.542,2.542,0,0,1,.773-.952,1.8,1.8,0,0,1,1.088-.344,1.659,1.659,0,0,1,.3.026,2.193,2.193,0,0,1,.256.062ZM51.119.154a3.446,3.446,0,0,1-2.684-1.1,4.052,4.052,0,0,1-1-2.831v-.293a4.207,4.207,0,0,1,.992-2.867,3.139,3.139,0,0,1,2.487-1.132,3.1,3.1,0,0,1,2.457.97,3.8,3.8,0,0,1,.853,2.6V-3.45H49.281l-.015.037a2.5,2.5,0,0,0,.553,1.545,1.749,1.749,0,0,0,1.41.6,3.811,3.811,0,0,0,1.23-.176,4.031,4.031,0,0,0,.989-.505L54.02-.784a3.687,3.687,0,0,1-1.187.667A4.971,4.971,0,0,1,51.119.154Zm-.205-6.8a1.335,1.335,0,0,0-1.084.524A2.579,2.579,0,0,0,49.3-4.79l.015.037H52.46v-.183a1.9,1.9,0,0,0-.385-1.23A1.4,1.4,0,0,0,50.914-6.643Z" transform="translate(200.762 2321.232)" fill="#b4bbc6"/>
    <g id="Group_3693" data-name="Group 3693" transform="translate(178.453 2224.295)">
      <path id="Path_1150-2" data-name="Path 1150" d="M568.411,213.726c-.008.031-.015.063-.022.094a16.514,16.514,0,0,0,1.644,11.623c.084.15.172.3.256.445a1.262,1.262,0,0,1,.254.866,1.071,1.071,0,0,1-.475.721,2.219,2.219,0,0,1-.415.147c-.162.029-.326.059-.492.08a7.72,7.72,0,0,1-2.094-15.3c.021,0,.042,0,.062-.008a1.143,1.143,0,0,1,.864.123,1,1,0,0,1,.418,1.206" transform="translate(-560.433 -189.688)" fill="#3d3d3d"/>
      <ellipse id="Ellipse_123-2" data-name="Ellipse 123" cx="14.409" cy="14.409" rx="14.409" ry="14.409" transform="translate(9.606 13.38)" fill="#d82225"/>
      <path id="Path_1151-2" data-name="Path 1151" d="M604.238,180.007c.318-.018.386-.01.709-.01a16.429,16.429,0,0,1,12.328,5.55,1.415,1.415,0,0,0,.966.642,1.188,1.188,0,0,0,.976-.338l.234-.2a9.777,9.777,0,1,0-16.391-7.2,1.935,1.935,0,0,0,.1.82,1.136,1.136,0,0,0,1.079.734" transform="translate(-580.933 -168.675)" fill="#262626"/>
      <path id="Path_1152-2" data-name="Path 1152" d="M623.982,241.741q.126.168.241.345a6.519,6.519,0,1,1-11.033,6.943c-.052-.086-.1-.174-.152-.261a.87.87,0,0,1-.116-.83.931.931,0,0,1,.771-.565,5.053,5.053,0,0,0,.536-.145,16.475,16.475,0,0,0,7.923-5.091c.1-.12.2-.245.3-.364a1.077,1.077,0,0,1,.485-.411.846.846,0,0,1,.745.083A1.012,1.012,0,0,1,623.982,241.741Z" transform="translate(-585.65 -203.611)" fill="#3d3d3d"/>
    </g>
  </g>
</svg>
