<svg xmlns="http://www.w3.org/2000/svg" xmlns:xlink="http://www.w3.org/1999/xlink" width="499.074" height="853.504" viewBox="0 0 499.074 853.504">
  <defs>
    <filter id="Path_4526" x="0" y="192.111" width="499.074" height="499.074" filterUnits="userSpaceOnUse">
      <feOffset dy="20" input="SourceAlpha"/>
      <feGaussianBlur stdDeviation="49.5" result="blur"/>
      <feFlood flood-color="#3c485a" flood-opacity="0.149"/>
      <feComposite operator="in" in2="blur"/>
      <feComposite in="SourceGraphic"/>
    </filter>
    <filter id="Path_4766" x="74.289" y="0" width="348" height="348" filterUnits="userSpaceOnUse">
      <feOffset dy="5" input="SourceAlpha"/>
      <feGaussianBlur stdDeviation="49.5" result="blur-2"/>
      <feFlood flood-color="#3c485a" flood-opacity="0.102"/>
      <feComposite operator="in" in2="blur-2"/>
      <feComposite in="SourceGraphic"/>
    </filter>
    <filter id="Path_4768" x="74.146" y="504.723" width="348.781" height="348.781" filterUnits="userSpaceOnUse">
      <feOffset dy="5" input="SourceAlpha"/>
      <feGaussianBlur stdDeviation="49.5" result="blur-3"/>
      <feFlood flood-color="#3c485a" flood-opacity="0.102"/>
      <feComposite operator="in" in2="blur-3"/>
      <feComposite in="SourceGraphic"/>
    </filter>
  </defs>
  <g id="Group_3558" data-name="Group 3558" transform="translate(89.026 -1562.26)">
    <path id="Path_4527" data-name="Path 4527" d="M0,0V102.834" transform="translate(159.702 1751.734)" fill="none" stroke="#cccdd7" stroke-linecap="round" stroke-width="3" stroke-dasharray="1 10"/>
    <path id="Path_4524" data-name="Path 4524" d="M0,0V102.834" transform="translate(158.823 2216.99) rotate(180)" fill="none" stroke="#cccdd7" stroke-linecap="round" stroke-width="3" stroke-dasharray="1 10"/>
    <path id="Path_4525" data-name="Path 4525" d="M130,0A130,130,0,1,1,0,130,130,130,0,0,1,130,0Z" transform="translate(290.261 1854.158) rotate(90)" fill="none" stroke="#d82125" stroke-linecap="round" stroke-width="3" stroke-dasharray="1 10"/>
    <g transform="matrix(1, 0, 0, 1, -89.03, 1562.26)" filter="url(#Path_4526)">
      <path id="Path_4526-2" data-name="Path 4526" d="M101.037,0A101.037,101.037,0,1,1,0,101.037,101.037,101.037,0,0,1,101.037,0Z" transform="translate(148.5 320.61)" fill="#fff"/>
    </g>
    <g id="Group_3147" data-name="Group 3147" transform="translate(109.478 1924.5)">
      <path id="Path_1150" data-name="Path 1150" d="M578.3,215.416c-.018.07-.034.141-.049.212a36.974,36.974,0,0,0,3.681,26.024c.187.336.386.662.574,1a2.826,2.826,0,0,1,.568,1.94,2.4,2.4,0,0,1-1.065,1.615,4.96,4.96,0,0,1-.93.33c-.364.065-.73.131-1.1.18a17.287,17.287,0,0,1-4.689-34.253c.047-.006.093-.009.138-.019a2.559,2.559,0,0,1,1.935.274,2.245,2.245,0,0,1,.937,2.7" transform="translate(-560.432 -161.591)" fill="#3d3d3d"/>
      <ellipse id="Ellipse_123" data-name="Ellipse 123" cx="32.264" cy="32.264" rx="32.264" ry="32.264" transform="translate(21.51 29.96)" fill="#d82225"/>
      <path id="Path_1151" data-name="Path 1151" d="M605.706,194.048c.713-.041.865-.023,1.589-.023a36.787,36.787,0,0,1,27.6,12.427,3.169,3.169,0,0,0,2.163,1.438,2.659,2.659,0,0,0,2.185-.757l.525-.446a21.891,21.891,0,1,0-36.7-16.118,4.336,4.336,0,0,0,.22,1.836,2.544,2.544,0,0,0,2.416,1.643" transform="translate(-553.521 -168.675)" fill="#262626"/>
      <path id="Path_1152" data-name="Path 1152" d="M637.76,242.273q.282.376.54.773A14.6,14.6,0,1,1,613.6,258.591c-.117-.192-.224-.39-.339-.585a1.949,1.949,0,0,1-.26-1.859,2.085,2.085,0,0,1,1.727-1.264,11.294,11.294,0,0,0,1.2-.324,36.888,36.888,0,0,0,17.74-11.4c.231-.268.447-.55.681-.816a2.41,2.41,0,0,1,1.085-.919,1.9,1.9,0,0,1,1.669.185A2.263,2.263,0,0,1,637.76,242.273Z" transform="translate(-551.93 -156.896)" fill="#3d3d3d"/>
    </g>
    <g transform="matrix(1, 0, 0, 1, -89.03, 1562.26)" filter="url(#Path_4766)">
      <path id="Path_4766-2" data-name="Path 4766" d="M5.669,0H44.331A5.669,5.669,0,0,1,50,5.669V44.331A5.669,5.669,0,0,1,44.331,50H5.669A5.669,5.669,0,0,1,0,44.331V5.669A5.669,5.669,0,0,1,5.669,0Z" transform="translate(223.29 144)" fill="#fff" stroke="#b4bbc6" stroke-width="1"/>
    </g>
    <g id="Group_3715" data-name="Group 3715" transform="translate(147.389 1718.055)">
      <path id="Path_1417" data-name="Path 1417" d="M20.377,5.921a.255.255,0,0,0-.231-.214l-2.126-.158s-1.41-1.4-1.564-1.554a.641.641,0,0,0-.574-.073l-.789.244c-.471-1.355-1.3-2.6-2.764-2.6-.04,0-.082,0-.123,0A1.777,1.777,0,0,0,10.829.779C7.423.779,5.8,5.037,5.286,7.2L2.9,7.94c-.739.232-.762.255-.859.951C1.97,9.418.037,24.366.037,24.366L15.1,27.188l8.161-1.765S20.4,6.054,20.377,5.921Zm-6.117-1.5-1.274.394c0-.09,0-.178,0-.275a6.251,6.251,0,0,0-.3-2.058c.753.095,1.255.952,1.578,1.938ZM11.748,2.65a6.318,6.318,0,0,1,.346,2.294c0,.052,0,.1,0,.148L9.46,5.908A4.5,4.5,0,0,1,11.748,2.65Zm-1.012-.958a.769.769,0,0,1,.437.147c-1.092.514-2.262,1.807-2.756,4.391l-2.081.644c.579-1.97,1.953-5.183,4.4-5.183Z" transform="translate(-0.037 -0.779)" fill="#95bf46"/>
      <path id="Path_1418" data-name="Path 1418" d="M170.771,36.855l-2.126-.158s-1.41-1.4-1.564-1.554a.386.386,0,0,0-.218-.1l-1.139,23.294,8.16-1.765S171.019,37.2,171,37.069a.255.255,0,0,0-.231-.214" transform="translate(-150.661 -31.927)" fill="#5e8e3e"/>
      <path id="Path_1419" data-name="Path 1419" d="M47.95,100.641l-1.006,2.993a4.629,4.629,0,0,0-1.962-.471c-1.584,0-1.664.994-1.664,1.245,0,1.367,3.564,1.891,3.564,5.093,0,2.519-1.6,4.142-3.753,4.142a5.221,5.221,0,0,1-3.908-1.609l.692-2.287a4.949,4.949,0,0,0,2.506,1.167,1.011,1.011,0,0,0,1.054-1.021c0-1.783-2.924-1.863-2.924-4.793,0-2.466,1.77-4.853,5.344-4.853a4.4,4.4,0,0,1,2.057.394" transform="translate(-35.659 -91.204)" fill="#fff"/>
    </g>
    <path id="Path_4767" data-name="Path 4767" d="M-12.6-1.826a.916.916,0,0,0-.33-.728,3.1,3.1,0,0,0-1.165-.508,4.926,4.926,0,0,1-1.833-.828,1.648,1.648,0,0,1-.642-1.35,1.724,1.724,0,0,1,.71-1.416,2.885,2.885,0,0,1,1.833-.557,2.733,2.733,0,0,1,1.882.63,1.88,1.88,0,0,1,.686,1.514l-.01.029H-12.6a1.145,1.145,0,0,0-.371-.886,1.515,1.515,0,0,0-1.06-.339,1.549,1.549,0,0,0-1,.283.9.9,0,0,0-.349.732A.8.8,0,0,0-15-4.575a4.19,4.19,0,0,0,1.252.508,4.171,4.171,0,0,1,1.743.85,1.786,1.786,0,0,1,.6,1.382,1.668,1.668,0,0,1-.71,1.414A3.068,3.068,0,0,1-13.989.1a3.318,3.318,0,0,1-1.953-.588A1.809,1.809,0,0,1-16.758-2.1l.01-.029h1.143a1.111,1.111,0,0,0,.449.969,1.967,1.967,0,0,0,1.167.32,1.719,1.719,0,0,0,1.025-.266A.844.844,0,0,0-12.6-1.826ZM-9.141-4.6A1.883,1.883,0,0,1-8.5-5.176a1.729,1.729,0,0,1,.837-.205,1.664,1.664,0,0,1,1.311.53,2.4,2.4,0,0,1,.471,1.633V0H-7.065V-3.228a1.338,1.338,0,0,0-.249-.9.951.951,0,0,0-.747-.278,1.325,1.325,0,0,0-.623.144,1.28,1.28,0,0,0-.457.4V0h-1.187V-7.617h1.187ZM-4.868-2.69a2.878,2.878,0,0,1,.645-1.934,2.222,2.222,0,0,1,1.772-.757,2.216,2.216,0,0,1,1.782.757A2.853,2.853,0,0,1-.02-2.69v.1A2.867,2.867,0,0,1-.669-.645,2.218,2.218,0,0,1-2.441.1,2.231,2.231,0,0,1-4.224-.649a2.874,2.874,0,0,1-.645-1.938Zm1.187.1a2.359,2.359,0,0,0,.3,1.26,1.021,1.021,0,0,0,.938.483,1.026,1.026,0,0,0,.928-.483A2.3,2.3,0,0,0-1.2-2.588v-.1a2.271,2.271,0,0,0-.312-1.245,1.029,1.029,0,0,0-.937-.493,1.021,1.021,0,0,0-.928.493,2.344,2.344,0,0,0-.3,1.245Zm9.326.122A2.979,2.979,0,0,1,5.1-.605,1.793,1.793,0,0,1,3.594.1a1.869,1.869,0,0,1-.8-.161,1.638,1.638,0,0,1-.6-.474V2.031H1.016V-5.283h1l.117.664a1.762,1.762,0,0,1,.613-.566,1.714,1.714,0,0,1,.833-.2A1.755,1.755,0,0,1,5.1-4.607a3.472,3.472,0,0,1,.544,2.039Zm-1.182-.1a2.574,2.574,0,0,0-.305-1.326.992.992,0,0,0-.911-.515,1.183,1.183,0,0,0-.63.159,1.168,1.168,0,0,0-.415.442v2.388a1.1,1.1,0,0,0,.415.427,1.265,1.265,0,0,0,.64.149,1.018,1.018,0,0,0,.906-.447,2.07,2.07,0,0,0,.3-1.174ZM7.944,0H6.758V-5.283H7.944Zm0-6.577H6.758v-1.04H7.944ZM9.658,0V-4.4H8.853v-.879h.806V-5.9a1.818,1.818,0,0,1,.476-1.348A1.811,1.811,0,0,1,11.47-7.72a2.293,2.293,0,0,1,.347.027q.176.027.4.076L12.09-6.7q-.1-.02-.217-.034a2.113,2.113,0,0,0-.256-.015.729.729,0,0,0-.579.22.926.926,0,0,0-.193.63v.615h1.074V-4.4H10.845V0Zm4.878-2.119.117.527h.029L15.84-5.283h1.3L14.951.8a2.713,2.713,0,0,1-.591.942,1.438,1.438,0,0,1-1.079.391,1.844,1.844,0,0,1-.315-.029q-.168-.029-.325-.068l.132-.918.181.015q.117.01.176.01a.651.651,0,0,0,.515-.22A1.867,1.867,0,0,0,13.96.415l.2-.479-1.919-5.22H13.53Z" transform="translate(159 1693.385)" fill="#b4bbc6"/>
    <g transform="matrix(1, 0, 0, 1, -89.03, 1562.26)" filter="url(#Path_4768)">
      <path id="Path_4768-2" data-name="Path 4768" d="M4.113,0H46.669a4.113,4.113,0,0,1,4.113,4.113V46.669a4.113,4.113,0,0,1-4.113,4.113H4.113A4.113,4.113,0,0,1,0,46.669V4.113A4.113,4.113,0,0,1,4.113,0Z" transform="translate(223.15 648.72)" fill="#fff" stroke="#b4bbc6" stroke-width="1"/>
    </g>
    <path id="Path_4769" data-name="Path 4769" d="M4.364,3.972H1.205V6.258H4.87V7.22H0V0H4.835V.967H1.205V3.005H4.364Zm2.728.253v3H5.886V0H8.554a2.858,2.858,0,0,1,1.87.546,1.906,1.906,0,0,1,.66,1.557,1.61,1.61,0,0,1-.29.965,1.991,1.991,0,0,1-.846.647,1.51,1.51,0,0,1,.878.632,2.035,2.035,0,0,1,.268,1.079v.6a2.433,2.433,0,0,0,.079.62.871.871,0,0,0,.268.461V7.22H10.2A.808.808,0,0,1,9.945,6.7a4.308,4.308,0,0,1-.057-.689v-.58a1.214,1.214,0,0,0-.317-.883A1.159,1.159,0,0,0,8.7,4.225Zm0-.967h1.4A1.635,1.635,0,0,0,9.546,2.98a1.043,1.043,0,0,0,.332-.848,1.122,1.122,0,0,0-.327-.855,1.4,1.4,0,0,0-1-.31H7.092Zm6.725,1.225V7.22H12.611V0h2.822A2.675,2.675,0,0,1,17.3.617a2.094,2.094,0,0,1,.677,1.624A2.09,2.09,0,0,1,17.3,3.871a2.689,2.689,0,0,1-1.872.612Zm0-.967h1.617a1.321,1.321,0,0,0,1.007-.357,1.269,1.269,0,0,0,.337-.908,1.3,1.3,0,0,0-.337-.917A1.3,1.3,0,0,0,15.433.967H13.816Z" transform="translate(150.713 2277.525)" fill="#b4bbc6"/>
    <g id="Group_3716" data-name="Group 3716" transform="translate(147.876 2225.93)">
      <path id="Path_3617" data-name="Path 3617" d="M21.751,0l1.517,3.541V5.564H0V3.541L1.517,0" transform="translate(0 15.324)" fill="none" stroke="#526279" stroke-linecap="round" stroke-linejoin="round" stroke-width="1.5"/>
      <path id="Path_3618" data-name="Path 3618" d="M0,2.023V1.012L1.012,0H4.068l.991,1.012V2.023" transform="translate(9.105 18.865)" fill="none" stroke="#526279" stroke-linecap="round" stroke-linejoin="round" stroke-width="1.5"/>
      <path id="Path_3619" data-name="Path 3619" d="M20.233,5.564v9.611H0V.5A.5.5,0,0,1,.5,0H14.669" transform="translate(1.517 0.149)" fill="none" stroke="#526279" stroke-linecap="round" stroke-linejoin="round" stroke-width="1.5"/>
      <path id="Path_3620" data-name="Path 3620" d="M0,9.611l6.576-6.07,5.058,1.517L16.692,0" transform="translate(5.058 0.149)" fill="none" stroke="#526279" stroke-linecap="round" stroke-linejoin="round" stroke-width="1.5"/>
      <line id="Line_64" data-name="Line 64" x1="2.902" transform="translate(18.889)" fill="none" stroke="#526279" stroke-linecap="round" stroke-linejoin="round" stroke-width="1.5"/>
      <line id="Line_65" data-name="Line 65" x2="0.004" y2="2.52" transform="translate(21.747 0.158)" fill="none" stroke="#526279" stroke-linecap="round" stroke-linejoin="round" stroke-width="1.5"/>
      <path id="Path_3621" data-name="Path 3621" d="M3.035,2.529V0H0V2.529" transform="translate(4.552 12.795)" fill="none" stroke="#526279" stroke-linecap="round" stroke-linejoin="round" stroke-width="1.5"/>
      <path id="Path_3622" data-name="Path 3622" d="M3.035,4.047V0H0V4.047" transform="translate(10.117 11.278)" fill="none" stroke="#526279" stroke-linecap="round" stroke-linejoin="round" stroke-width="1.5"/>
      <path id="Path_3623" data-name="Path 3623" d="M3.035,6.07V0H0V6.07" transform="translate(15.681 9.254)" fill="none" stroke="#526279" stroke-linecap="round" stroke-linejoin="round" stroke-width="1.5"/>
    </g>
  </g>
</svg>
