<svg xmlns="http://www.w3.org/2000/svg" xmlns:xlink="http://www.w3.org/1999/xlink" width="499.074" height="888.201" viewBox="0 0 499.074 888.201">
  <defs>
    <filter id="Ellipse_249" x="0" y="203.41" width="499.074" height="499.074" filterUnits="userSpaceOnUse">
      <feOffset dy="20" input="SourceAlpha"/>
      <feGaussianBlur stdDeviation="49.5" result="blur"/>
      <feFlood flood-color="#3c485a" flood-opacity="0.149"/>
      <feComposite operator="in" in2="blur"/>
      <feComposite in="SourceGraphic"/>
    </filter>
    <filter id="Rectangle_1044" x="27.526" y="540.201" width="348" height="348" filterUnits="userSpaceOnUse">
      <feOffset dy="5" input="SourceAlpha"/>
      <feGaussianBlur stdDeviation="49.5" result="blur-2"/>
      <feFlood flood-color="#3c485a" flood-opacity="0.102"/>
      <feComposite operator="in" in2="blur-2"/>
      <feComposite in="SourceGraphic"/>
    </filter>
    <filter id="Rectangle_1046" x="117.526" y="540.201" width="348" height="348" filterUnits="userSpaceOnUse">
      <feOffset dy="5" input="SourceAlpha"/>
      <feGaussianBlur stdDeviation="49.5" result="blur-3"/>
      <feFlood flood-color="#3c485a" flood-opacity="0.102"/>
      <feComposite operator="in" in2="blur-3"/>
      <feComposite in="SourceGraphic"/>
    </filter>
    <filter id="Rectangle_728" x="74.026" y="0" width="348" height="348" filterUnits="userSpaceOnUse">
      <feOffset dy="5" input="SourceAlpha"/>
      <feGaussianBlur stdDeviation="49.5" result="blur-4"/>
      <feFlood flood-color="#3c485a" flood-opacity="0.102"/>
      <feComposite operator="in" in2="blur-4"/>
      <feComposite in="SourceGraphic"/>
    </filter>
  </defs>
  <g id="Group_3566" data-name="Group 3566" transform="translate(89.026 -2151.111)">
    <ellipse id="Ellipse_248" data-name="Ellipse 248" cx="129.999" cy="129.999" rx="129.999" ry="129.999" transform="translate(290.261 2454.309) rotate(90)" fill="none" stroke="#d82125" stroke-linecap="round" stroke-miterlimit="10" stroke-width="3" stroke-dasharray="1 10"/>
    <g transform="matrix(1, 0, 0, 1, -89.03, 2151.11)" filter="url(#Ellipse_249)">
      <ellipse id="Ellipse_249-2" data-name="Ellipse 249" cx="101.037" cy="101.037" rx="101.037" ry="101.037" transform="translate(148.5 331.91)" fill="#fff"/>
    </g>
    <g id="Group_3145" data-name="Group 3145" transform="translate(109.478 2524.65)">
      <path id="Path_1150" data-name="Path 1150" d="M578.3,215.416c-.018.07-.034.141-.049.212a36.974,36.974,0,0,0,3.681,26.024c.187.336.386.662.574,1a2.826,2.826,0,0,1,.568,1.94,2.4,2.4,0,0,1-1.065,1.615,4.96,4.96,0,0,1-.93.33c-.364.065-.73.131-1.1.18a17.287,17.287,0,0,1-4.689-34.253c.047-.006.093-.009.138-.019a2.559,2.559,0,0,1,1.935.274,2.245,2.245,0,0,1,.937,2.7" transform="translate(-560.432 -161.591)" fill="#3d3d3d"/>
      <ellipse id="Ellipse_123" data-name="Ellipse 123" cx="32.264" cy="32.264" rx="32.264" ry="32.264" transform="translate(21.51 29.96)" fill="#d82225"/>
      <path id="Path_1151" data-name="Path 1151" d="M605.706,194.048c.713-.041.865-.023,1.589-.023a36.787,36.787,0,0,1,27.6,12.427,3.169,3.169,0,0,0,2.163,1.438,2.659,2.659,0,0,0,2.185-.757l.525-.446a21.891,21.891,0,1,0-36.7-16.118,4.336,4.336,0,0,0,.22,1.836,2.544,2.544,0,0,0,2.416,1.643" transform="translate(-553.521 -168.675)" fill="#262626"/>
      <path id="Path_1152" data-name="Path 1152" d="M637.76,242.273q.282.376.54.773A14.6,14.6,0,1,1,613.6,258.591c-.117-.192-.224-.39-.339-.585a1.949,1.949,0,0,1-.26-1.859,2.085,2.085,0,0,1,1.727-1.264,11.294,11.294,0,0,0,1.2-.324,36.888,36.888,0,0,0,17.74-11.4c.231-.268.447-.55.681-.816a2.41,2.41,0,0,1,1.085-.919,1.9,1.9,0,0,1,1.669.185A2.263,2.263,0,0,1,637.76,242.273Z" transform="translate(-551.93 -156.896)" fill="#3d3d3d"/>
    </g>
    <path id="Path_4245" data-name="Path 4245" d="M0,0H11.668A48.519,48.519,0,0,1,37.849,7.393L92,42.424a48.526,48.526,0,0,0,26.181,7.393h19.757" transform="translate(160.031 2714.307) rotate(90)" fill="none" stroke="#cccdd7" stroke-linecap="round" stroke-miterlimit="10" stroke-width="3" stroke-dasharray="1 10"/>
    <path id="Path_4246" data-name="Path 4246" d="M0,47H11.668a50.7,50.7,0,0,0,26.181-6.975L92,6.975A50.7,50.7,0,0,1,118.179,0h19.757" transform="translate(207.029 2714.307) rotate(90)" fill="none" stroke="#cccdd7" stroke-linecap="round" stroke-miterlimit="10" stroke-width="3" stroke-dasharray="1 10"/>
    <g transform="matrix(1, 0, 0, 1, -89.03, 2151.11)" filter="url(#Rectangle_1044)">
      <rect id="Rectangle_1044-2" data-name="Rectangle 1044" width="50" height="50" rx="5.669" transform="translate(176.53 684.2)" fill="#fff" stroke="#b4bbc6" stroke-width="1"/>
    </g>
    <g transform="matrix(1, 0, 0, 1, -89.03, 2151.11)" filter="url(#Rectangle_1046)">
      <rect id="Rectangle_1046-2" data-name="Rectangle 1046" width="50" height="50" rx="5.669" transform="translate(266.53 684.2)" fill="#fff" stroke="#b4bbc6" stroke-width="1"/>
    </g>
    <text id="ERP" transform="translate(112.5 2911.182)" fill="#b4bbc6" font-size="10" font-family="Roboto-Medium, Roboto" font-weight="500" opacity="0.604"><tspan x="-9.438" y="0">ERP</tspan></text>
    <text id="Warehouse" transform="translate(202.5 2911.688)" fill="#b4bbc6" font-size="10" font-family="Roboto-Medium, Roboto" font-weight="500" opacity="0.604"><tspan x="-25.178" y="0">Warehouse</tspan></text>
    <g id="Group_3424" data-name="Group 3424" transform="translate(-300.002 2533.754)">
      <path id="Path_3617" data-name="Path 3617" d="M420.765,349,422,351.892v1.653H403v-1.653L404.239,349" transform="translate(0 -17.69)" fill="none" stroke="#526279" stroke-linecap="round" stroke-linejoin="round" stroke-width="1"/>
      <path id="Path_3618" data-name="Path 3618" d="M421,357.653v-.826l.826-.826h2.5l.809.826v.826" transform="translate(-10.564 -21.798)" fill="none" stroke="#526279" stroke-linecap="round" stroke-linejoin="round" stroke-width="1"/>
      <path id="Path_3619" data-name="Path 3619" d="M422.525,323.544v7.849H406V319.411a.411.411,0,0,1,.411-.411h11.57" transform="translate(-1.761 -0.084)" fill="none" stroke="#526279" stroke-linecap="round" stroke-linejoin="round" stroke-width="1"/>
      <path id="Path_3620" data-name="Path 3620" d="M413,326.849l5.371-4.958,4.131,1.239L426.633,319" transform="translate(-5.869 -0.084)" fill="none" stroke="#526279" stroke-linecap="round" stroke-linejoin="round" stroke-width="1"/>
      <line id="Line_64" data-name="Line 64" x1="2.37" transform="translate(418.427 318.794)" fill="none" stroke="#526279" stroke-linecap="round" stroke-linejoin="round" stroke-width="1"/>
      <line id="Line_65" data-name="Line 65" x2="0.003" y2="2.059" transform="translate(420.761 318.923)" fill="none" stroke="#526279" stroke-linecap="round" stroke-linejoin="round" stroke-width="1"/>
      <path id="Path_3621" data-name="Path 3621" d="M414.479,346.066V344H412v2.066" transform="translate(-5.282 -14.756)" fill="none" stroke="#526279" stroke-linecap="round" stroke-linejoin="round" stroke-width="1"/>
      <path id="Path_3622" data-name="Path 3622" d="M425.479,344.305V341H423v3.305" transform="translate(-11.737 -12.995)" fill="none" stroke="#526279" stroke-linecap="round" stroke-linejoin="round" stroke-width="1"/>
      <path id="Path_3623" data-name="Path 3623" d="M436.479,341.958V337H434v4.958" transform="translate(-18.193 -10.648)" fill="none" stroke="#526279" stroke-linecap="round" stroke-linejoin="round" stroke-width="1"/>
    </g>
    <g id="Group_3425" data-name="Group 3425" transform="translate(108.301 2057.242)">
      <g id="Group_2978" data-name="Group 2978" transform="translate(92.306 794.044)">
        <path id="Path_3624" data-name="Path 3624" d="M127.153,802.513a2.419,2.419,0,1,0,2.419,2.419A2.422,2.422,0,0,0,127.153,802.513Zm0,4.09a1.671,1.671,0,1,1,1.671-1.671A1.673,1.673,0,0,1,127.153,806.6Z" transform="translate(-124.734 -802.513)" fill="#526279" stroke="#526279" stroke-width="0.3"/>
      </g>
      <g id="Group_2979" data-name="Group 2979" transform="translate(98.177 798.134)">
        <path id="Path_3625" data-name="Path 3625" d="M151.648,820.481H150.9a.374.374,0,0,0,0,.749h.748a.374.374,0,1,0,0-.749Z" transform="translate(-150.525 -820.481)" fill="#526279" stroke="#526279" stroke-width="0.3"/>
      </g>
      <g id="Group_2980" data-name="Group 2980" transform="translate(100.797 798.134)">
        <path id="Path_3626" data-name="Path 3626" d="M163.157,820.481h-.749a.374.374,0,0,0,0,.749h.749a.374.374,0,1,0,0-.749Z" transform="translate(-162.034 -820.481)" fill="#526279" stroke="#526279" stroke-width="0.3"/>
      </g>
      <g id="Group_2981" data-name="Group 2981" transform="translate(87.156 798.134)">
        <path id="Path_3627" data-name="Path 3627" d="M103.234,820.481h-.748a.374.374,0,1,0,0,.749h.748a.374.374,0,1,0,0-.749Z" transform="translate(-102.111 -820.481)" fill="#526279" stroke="#526279" stroke-width="0.3"/>
      </g>
      <g id="Group_2982" data-name="Group 2982" transform="translate(89.776 798.134)">
        <path id="Path_3628" data-name="Path 3628" d="M114.743,820.481h-.748a.374.374,0,1,0,0,.749h.748a.374.374,0,1,0,0-.749Z" transform="translate(-113.62 -820.481)" fill="#526279" stroke="#526279" stroke-width="0.3"/>
      </g>
      <g id="Group_2983" data-name="Group 2983" transform="translate(88.993 808.503)">
        <path id="Path_3629" data-name="Path 3629" d="M115.163,866.03h-4.61a.374.374,0,0,0-.374.374v3.8a.374.374,0,0,0,.374.374h4.61a.374.374,0,0,0,.374-.374v-3.8A.374.374,0,0,0,115.163,866.03Zm-.374,3.8h-3.861v-3.047h1.556v.589a.374.374,0,0,0,.749,0v-.589h1.556Z" transform="translate(-110.179 -866.03)" fill="#526279" stroke="#526279" stroke-width="0.3"/>
      </g>
      <g id="Group_2984" data-name="Group 2984" transform="translate(95.099 808.503)">
        <path id="Path_3630" data-name="Path 3630" d="M141.989,866.03h-4.609a.374.374,0,0,0-.374.374v3.8a.374.374,0,0,0,.374.374h4.609a.374.374,0,0,0,.374-.374v-3.8A.374.374,0,0,0,141.989,866.03Zm-.374,3.8h-3.861v-3.047h1.556v.589a.374.374,0,0,0,.749,0v-.589h1.556Z" transform="translate(-137.005 -866.03)" fill="#526279" stroke="#526279" stroke-width="0.3"/>
      </g>
      <g id="Group_2985" data-name="Group 2985" transform="translate(95.099 803.316)">
        <path id="Path_3631" data-name="Path 3631" d="M141.989,843.244h-4.609a.374.374,0,0,0-.374.374v3.8a.374.374,0,0,0,.374.375h4.609a.374.374,0,0,0,.374-.375v-3.8A.374.374,0,0,0,141.989,843.244Zm-.374,3.8h-3.861v-3.047h1.556v.589a.374.374,0,0,0,.749,0v-.589h1.556Z" transform="translate(-137.005 -843.244)" fill="#526279" stroke="#526279" stroke-width="0.3"/>
      </g>
      <g id="Group_2986" data-name="Group 2986" transform="translate(82.748 791.548)">
        <path id="Path_3632" data-name="Path 3632" d="M106.329,813.843h-.9V798.569l.713.414a.374.374,0,1,0,.376-.648l-11.6-6.738a.375.375,0,0,0-.376,0l-11.6,6.738a.374.374,0,0,0,.376.648l.715-.415v15.275h-.9a.374.374,0,0,0,0,.749h23.205a.374.374,0,0,0,0-.749Zm-18,0V802.521h12.787v11.322Zm-1.176-12.07v-1.123h15.138v1.123Zm14.711,12.07V802.521h.8a.374.374,0,0,0,.374-.374v-1.871a.374.374,0,0,0-.374-.374H86.782a.374.374,0,0,0-.374.374v1.871a.374.374,0,0,0,.374.374h.8v11.322H84.774v-15.71l9.951-5.778,9.953,5.78v15.708Z" transform="translate(-82.748 -791.548)" fill="#526279" stroke="#526279" stroke-width="0.3"/>
      </g>
    </g>
    <line id="Line_118" data-name="Line 118" x1="118.212" y2="1.873" transform="translate(160 2336.096) rotate(90)" fill="none" stroke="#cccdd7" stroke-linecap="round" stroke-miterlimit="10" stroke-width="3" stroke-dasharray="1 10"/>
    <g transform="matrix(1, 0, 0, 1, -89.03, 2151.11)" filter="url(#Rectangle_728)">
      <rect id="Rectangle_728-2" data-name="Rectangle 728" width="50" height="50" rx="5.669" transform="translate(223.03 144)" fill="#fff" stroke="#b4bbc6" stroke-width="1"/>
    </g>
    <path id="Path_4763" data-name="Path 4763" d="M-12.6-1.826a.916.916,0,0,0-.33-.728,3.1,3.1,0,0,0-1.165-.508,4.926,4.926,0,0,1-1.833-.828,1.648,1.648,0,0,1-.642-1.35,1.724,1.724,0,0,1,.71-1.416,2.885,2.885,0,0,1,1.833-.557,2.733,2.733,0,0,1,1.882.63,1.88,1.88,0,0,1,.686,1.514l-.01.029H-12.6a1.145,1.145,0,0,0-.371-.886,1.515,1.515,0,0,0-1.06-.339,1.549,1.549,0,0,0-1,.283.9.9,0,0,0-.349.732A.8.8,0,0,0-15-4.575a4.19,4.19,0,0,0,1.252.508,4.171,4.171,0,0,1,1.743.85,1.786,1.786,0,0,1,.6,1.382,1.668,1.668,0,0,1-.71,1.414A3.068,3.068,0,0,1-13.989.1a3.318,3.318,0,0,1-1.953-.588A1.809,1.809,0,0,1-16.758-2.1l.01-.029h1.143a1.111,1.111,0,0,0,.449.969,1.967,1.967,0,0,0,1.167.32,1.719,1.719,0,0,0,1.025-.266A.844.844,0,0,0-12.6-1.826ZM-9.141-4.6A1.883,1.883,0,0,1-8.5-5.176a1.729,1.729,0,0,1,.837-.205,1.664,1.664,0,0,1,1.311.53,2.4,2.4,0,0,1,.471,1.633V0H-7.065V-3.228a1.338,1.338,0,0,0-.249-.9.951.951,0,0,0-.747-.278,1.325,1.325,0,0,0-.623.144,1.28,1.28,0,0,0-.457.4V0h-1.187V-7.617h1.187ZM-4.868-2.69a2.878,2.878,0,0,1,.645-1.934,2.222,2.222,0,0,1,1.772-.757,2.216,2.216,0,0,1,1.782.757A2.853,2.853,0,0,1-.02-2.69v.1A2.867,2.867,0,0,1-.669-.645,2.218,2.218,0,0,1-2.441.1,2.231,2.231,0,0,1-4.224-.649a2.874,2.874,0,0,1-.645-1.938Zm1.187.1a2.359,2.359,0,0,0,.3,1.26,1.021,1.021,0,0,0,.938.483,1.026,1.026,0,0,0,.928-.483A2.3,2.3,0,0,0-1.2-2.588v-.1a2.271,2.271,0,0,0-.312-1.245,1.029,1.029,0,0,0-.937-.493,1.021,1.021,0,0,0-.928.493,2.344,2.344,0,0,0-.3,1.245Zm9.326.122A2.979,2.979,0,0,1,5.1-.605,1.793,1.793,0,0,1,3.594.1a1.869,1.869,0,0,1-.8-.161,1.638,1.638,0,0,1-.6-.474V2.031H1.016V-5.283h1l.117.664a1.762,1.762,0,0,1,.613-.566,1.714,1.714,0,0,1,.833-.2A1.755,1.755,0,0,1,5.1-4.607a3.472,3.472,0,0,1,.544,2.039Zm-1.182-.1a2.574,2.574,0,0,0-.305-1.326.992.992,0,0,0-.911-.515,1.183,1.183,0,0,0-.63.159,1.168,1.168,0,0,0-.415.442v2.388a1.1,1.1,0,0,0,.415.427,1.265,1.265,0,0,0,.64.149,1.018,1.018,0,0,0,.906-.447,2.07,2.07,0,0,0,.3-1.174ZM7.944,0H6.758V-5.283H7.944Zm0-6.577H6.758v-1.04H7.944ZM9.658,0V-4.4H8.853v-.879h.806V-5.9a1.818,1.818,0,0,1,.476-1.348A1.811,1.811,0,0,1,11.47-7.72a2.293,2.293,0,0,1,.347.027q.176.027.4.076L12.09-6.7q-.1-.02-.217-.034a2.113,2.113,0,0,0-.256-.015.729.729,0,0,0-.579.22.926.926,0,0,0-.193.63v.615h1.074V-4.4H10.845V0Zm4.878-2.119.117.527h.029L15.84-5.283h1.3L14.951.8a2.713,2.713,0,0,1-.591.942,1.438,1.438,0,0,1-1.079.391,1.844,1.844,0,0,1-.315-.029q-.168-.029-.325-.068l.132-.918.181.015q.117.01.176.01a.651.651,0,0,0,.515-.22A1.867,1.867,0,0,0,13.96.415l.2-.479-1.919-5.22H13.53Z" transform="translate(158.873 2282.866)" fill="#b4bbc6" opacity="0.605"/>
    <g id="Group_3713" data-name="Group 3713" transform="translate(147.262 2307.804)">
      <path id="Path_1417" data-name="Path 1417" d="M20.377,5.921a.255.255,0,0,0-.231-.214l-2.126-.158s-1.41-1.4-1.564-1.554a.641.641,0,0,0-.574-.073l-.789.244c-.471-1.355-1.3-2.6-2.764-2.6-.04,0-.082,0-.123,0A1.777,1.777,0,0,0,10.829.779C7.423.779,5.8,5.037,5.286,7.2L2.9,7.94c-.739.232-.762.255-.859.951C1.97,9.418.037,24.366.037,24.366L15.1,27.188l8.161-1.765S20.4,6.054,20.377,5.921Zm-6.117-1.5-1.274.394c0-.09,0-.178,0-.275a6.251,6.251,0,0,0-.3-2.058c.753.095,1.255.952,1.578,1.938ZM11.748,2.65a6.318,6.318,0,0,1,.346,2.294c0,.052,0,.1,0,.148L9.46,5.908A4.5,4.5,0,0,1,11.748,2.65Zm-1.012-.958a.769.769,0,0,1,.437.147c-1.092.514-2.262,1.807-2.756,4.391l-2.081.644c.579-1.97,1.953-5.183,4.4-5.183Z" transform="translate(-0.037 -0.779)" fill="#95bf46"/>
      <path id="Path_1418" data-name="Path 1418" d="M170.771,36.855l-2.126-.158s-1.41-1.4-1.564-1.554a.386.386,0,0,0-.218-.1l-1.139,23.294,8.16-1.765S171.019,37.2,171,37.069a.255.255,0,0,0-.231-.214" transform="translate(-150.661 -31.927)" fill="#5e8e3e"/>
      <path id="Path_1419" data-name="Path 1419" d="M47.95,100.641l-1.006,2.993a4.629,4.629,0,0,0-1.962-.471c-1.584,0-1.664.994-1.664,1.245,0,1.367,3.564,1.891,3.564,5.093,0,2.519-1.6,4.142-3.753,4.142a5.221,5.221,0,0,1-3.908-1.609l.692-2.287a4.949,4.949,0,0,0,2.506,1.167,1.011,1.011,0,0,0,1.054-1.021c0-1.783-2.924-1.863-2.924-4.793,0-2.466,1.77-4.853,5.344-4.853a4.4,4.4,0,0,1,2.057.394" transform="translate(-35.659 -91.204)" fill="#fff"/>
    </g>
  </g>
</svg>
