<svg xmlns="http://www.w3.org/2000/svg" xmlns:xlink="http://www.w3.org/1999/xlink" width="499.074" height="852.803" viewBox="0 0 499.074 852.803">
  <defs>
    <filter id="Path_4526" x="0" y="191.41" width="499.074" height="499.074" filterUnits="userSpaceOnUse">
      <feOffset dy="20" input="SourceAlpha"/>
      <feGaussianBlur stdDeviation="49.5" result="blur"/>
      <feFlood flood-color="#3c485a" flood-opacity="0.149"/>
      <feComposite operator="in" in2="blur"/>
      <feComposite in="SourceGraphic"/>
    </filter>
    <filter id="Path_4528" x="74.289" y="0" width="348" height="348" filterUnits="userSpaceOnUse">
      <feOffset dy="5" input="SourceAlpha"/>
      <feGaussianBlur stdDeviation="49.5" result="blur-2"/>
      <feFlood flood-color="#3c485a" flood-opacity="0.102"/>
      <feComposite operator="in" in2="blur-2"/>
      <feComposite in="SourceGraphic"/>
    </filter>
    <filter id="Path_4522" x="74.289" y="504.803" width="348" height="348" filterUnits="userSpaceOnUse">
      <feOffset dy="5" input="SourceAlpha"/>
      <feGaussianBlur stdDeviation="49.5" result="blur-3"/>
      <feFlood flood-color="#3c485a" flood-opacity="0.102"/>
      <feComposite operator="in" in2="blur-3"/>
      <feComposite in="SourceGraphic"/>
    </filter>
  </defs>
  <g id="Group_3558" data-name="Group 3558" transform="translate(89.026 -1562.961)">
    <path id="Path_4527" data-name="Path 4527" d="M0,0V102.834" transform="translate(159.702 1751.734)" fill="none" stroke="#cccdd7" stroke-linecap="round" stroke-width="3" stroke-dasharray="1 10"/>
    <path id="Path_4524" data-name="Path 4524" d="M0,0V102.834" transform="translate(158.823 2216.99) rotate(180)" fill="none" stroke="#cccdd7" stroke-linecap="round" stroke-width="3" stroke-dasharray="1 10"/>
    <path id="Path_4525" data-name="Path 4525" d="M130,0A130,130,0,1,1,0,130,130,130,0,0,1,130,0Z" transform="translate(290.261 1854.158) rotate(90)" fill="none" stroke="#d82125" stroke-linecap="round" stroke-width="3" stroke-dasharray="1 10"/>
    <g transform="matrix(1, 0, 0, 1, -89.03, 1562.96)" filter="url(#Path_4526)">
      <path id="Path_4526-2" data-name="Path 4526" d="M101.037,0A101.037,101.037,0,1,1,0,101.037,101.037,101.037,0,0,1,101.037,0Z" transform="translate(148.5 319.91)" fill="#fff"/>
    </g>
    <g id="Group_3147" data-name="Group 3147" transform="translate(109.478 1924.5)">
      <path id="Path_1150" data-name="Path 1150" d="M578.3,215.416c-.018.07-.034.141-.049.212a36.974,36.974,0,0,0,3.681,26.024c.187.336.386.662.574,1a2.826,2.826,0,0,1,.568,1.94,2.4,2.4,0,0,1-1.065,1.615,4.96,4.96,0,0,1-.93.33c-.364.065-.73.131-1.1.18a17.287,17.287,0,0,1-4.689-34.253c.047-.006.093-.009.138-.019a2.559,2.559,0,0,1,1.935.274,2.245,2.245,0,0,1,.937,2.7" transform="translate(-560.432 -161.591)" fill="#3d3d3d"/>
      <ellipse id="Ellipse_123" data-name="Ellipse 123" cx="32.264" cy="32.264" rx="32.264" ry="32.264" transform="translate(21.51 29.96)" fill="#d82225"/>
      <path id="Path_1151" data-name="Path 1151" d="M605.706,194.048c.713-.041.865-.023,1.589-.023a36.787,36.787,0,0,1,27.6,12.427,3.169,3.169,0,0,0,2.163,1.438,2.659,2.659,0,0,0,2.185-.757l.525-.446a21.891,21.891,0,1,0-36.7-16.118,4.336,4.336,0,0,0,.22,1.836,2.544,2.544,0,0,0,2.416,1.643" transform="translate(-553.521 -168.675)" fill="#262626"/>
      <path id="Path_1152" data-name="Path 1152" d="M637.76,242.273q.282.376.54.773A14.6,14.6,0,1,1,613.6,258.591c-.117-.192-.224-.39-.339-.585a1.949,1.949,0,0,1-.26-1.859,2.085,2.085,0,0,1,1.727-1.264,11.294,11.294,0,0,0,1.2-.324,36.888,36.888,0,0,0,17.74-11.4c.231-.268.447-.55.681-.816a2.41,2.41,0,0,1,1.085-.919,1.9,1.9,0,0,1,1.669.185A2.263,2.263,0,0,1,637.76,242.273Z" transform="translate(-551.93 -156.896)" fill="#3d3d3d"/>
    </g>
    <g transform="matrix(1, 0, 0, 1, -89.03, 1562.96)" filter="url(#Path_4528)">
      <path id="Path_4528-2" data-name="Path 4528" d="M5.669,0H44.331A5.669,5.669,0,0,1,50,5.669V44.331A5.669,5.669,0,0,1,44.331,50H5.669A5.669,5.669,0,0,1,0,44.331V5.669A5.669,5.669,0,0,1,5.669,0Z" transform="translate(223.29 144)" fill="#fff" stroke="#b4bbc6" stroke-width="1"/>
    </g>
    <g transform="matrix(1, 0, 0, 1, -89.03, 1562.96)" filter="url(#Path_4522)">
      <path id="Path_4522-2" data-name="Path 4522" d="M5.669,0H44.331A5.669,5.669,0,0,1,50,5.669V44.331A5.669,5.669,0,0,1,44.331,50H5.669A5.669,5.669,0,0,1,0,44.331V5.669A5.669,5.669,0,0,1,5.669,0Z" transform="translate(273.29 698.8) rotate(180)" fill="#fff" stroke="#b4bbc6" stroke-width="1"/>
    </g>
    <path id="Path_4676" data-name="Path 4676" d="M-31.309-1.895v.01l0-.024,1.421-5.2h.947L-27.5-1.895l0,.034,0-.049,1.123-5.2H-25.2L-26.89,0h-1.079L-29.39-5.1h-.029L-30.845,0h-1.084l-1.685-7.109h1.167Zm6.592-.8a2.878,2.878,0,0,1,.645-1.934A2.222,2.222,0,0,1-22.3-5.381a2.216,2.216,0,0,1,1.782.757,2.853,2.853,0,0,1,.649,1.934v.1a2.867,2.867,0,0,1-.649,1.943A2.218,2.218,0,0,1-22.29.1a2.231,2.231,0,0,1-1.782-.752,2.874,2.874,0,0,1-.645-1.938Zm1.187.1a2.359,2.359,0,0,0,.3,1.26,1.021,1.021,0,0,0,.938.483,1.026,1.026,0,0,0,.928-.483,2.3,2.3,0,0,0,.313-1.26v-.1a2.271,2.271,0,0,0-.312-1.245,1.029,1.029,0,0,0-.937-.493,1.021,1.021,0,0,0-.928.493,2.344,2.344,0,0,0-.3,1.245Zm4.478-.1a2.878,2.878,0,0,1,.645-1.934,2.222,2.222,0,0,1,1.772-.757,2.216,2.216,0,0,1,1.782.757A2.853,2.853,0,0,1-14.2-2.69v.1a2.867,2.867,0,0,1-.649,1.943A2.218,2.218,0,0,1-16.626.1a2.231,2.231,0,0,1-1.782-.752,2.874,2.874,0,0,1-.645-1.938Zm1.187.1a2.359,2.359,0,0,0,.3,1.26,1.021,1.021,0,0,0,.938.483,1.026,1.026,0,0,0,.928-.483,2.3,2.3,0,0,0,.313-1.26v-.1A2.271,2.271,0,0,0-15.7-3.936a1.029,1.029,0,0,0-.937-.493,1.021,1.021,0,0,0-.928.493,2.344,2.344,0,0,0-.3,1.245Zm6.88,1.743a1.084,1.084,0,0,0,.732-.256.812.812,0,0,0,.3-.642h1.074l.01.029a1.56,1.56,0,0,1-.6,1.279A2.246,2.246,0,0,1-10.986.1a2.191,2.191,0,0,1-1.79-.752,2.886,2.886,0,0,1-.623-1.9v-.171a2.888,2.888,0,0,1,.623-1.9,2.188,2.188,0,0,1,1.79-.754,2.173,2.173,0,0,1,1.545.554,1.784,1.784,0,0,1,.574,1.409l-.01.029H-9.956a1.035,1.035,0,0,0-.286-.737.977.977,0,0,0-.745-.3,1,1,0,0,0-.947.486,2.422,2.422,0,0,0-.278,1.218v.171a2.427,2.427,0,0,0,.278,1.228A1,1,0,0,0-10.986-.845ZM-8.14-2.69A2.878,2.878,0,0,1-7.5-4.624a2.222,2.222,0,0,1,1.772-.757,2.216,2.216,0,0,1,1.782.757A2.853,2.853,0,0,1-3.291-2.69v.1A2.867,2.867,0,0,1-3.94-.645,2.218,2.218,0,0,1-5.713.1,2.231,2.231,0,0,1-7.5-.649,2.874,2.874,0,0,1-8.14-2.588Zm1.187.1a2.359,2.359,0,0,0,.3,1.26,1.021,1.021,0,0,0,.938.483,1.026,1.026,0,0,0,.928-.483,2.3,2.3,0,0,0,.313-1.26v-.1a2.271,2.271,0,0,0-.312-1.245,1.029,1.029,0,0,0-.937-.493,1.021,1.021,0,0,0-.928.493,2.344,2.344,0,0,0-.3,1.245Zm5.781-2.7.063.688a1.791,1.791,0,0,1,.649-.581,1.915,1.915,0,0,1,.9-.205,1.63,1.63,0,0,1,.889.234,1.417,1.417,0,0,1,.557.7,1.851,1.851,0,0,1,.645-.688,1.738,1.738,0,0,1,.938-.249,1.562,1.562,0,0,1,1.257.544A2.51,2.51,0,0,1,5.19-3.184V0H4V-3.188a1.483,1.483,0,0,0-.232-.947.862.862,0,0,0-.7-.273,1.018,1.018,0,0,0-.645.205,1.143,1.143,0,0,0-.381.552q0,.073,0,.127t0,.1V0H.874V-3.188a1.467,1.467,0,0,0-.237-.935.852.852,0,0,0-.7-.286,1.249,1.249,0,0,0-.613.139,1.026,1.026,0,0,0-.4.393V0H-2.256V-5.283Zm8.7,0,.063.688a1.791,1.791,0,0,1,.649-.581,1.915,1.915,0,0,1,.9-.205,1.63,1.63,0,0,1,.889.234,1.417,1.417,0,0,1,.557.7,1.851,1.851,0,0,1,.645-.688,1.738,1.738,0,0,1,.938-.249,1.562,1.562,0,0,1,1.257.544,2.51,2.51,0,0,1,.461,1.653V0H12.7V-3.188a1.483,1.483,0,0,0-.232-.947.862.862,0,0,0-.7-.273,1.018,1.018,0,0,0-.645.205,1.143,1.143,0,0,0-.381.552q0,.073,0,.127t0,.1V0H9.57V-3.188a1.467,1.467,0,0,0-.237-.935.852.852,0,0,0-.7-.286,1.249,1.249,0,0,0-.613.139,1.026,1.026,0,0,0-.4.393V0H6.44V-5.283ZM17.4.1a2.3,2.3,0,0,1-1.79-.735,2.7,2.7,0,0,1-.667-1.887v-.2a2.8,2.8,0,0,1,.662-1.912,2.093,2.093,0,0,1,1.658-.754,2.065,2.065,0,0,1,1.638.647A2.535,2.535,0,0,1,19.473-3v.7h-3.3l-.01.024a1.664,1.664,0,0,0,.369,1.03,1.166,1.166,0,0,0,.94.4,2.541,2.541,0,0,0,.82-.117,2.688,2.688,0,0,0,.659-.337l.381.776a2.458,2.458,0,0,1-.791.444A3.314,3.314,0,0,1,17.4.1Zm-.137-4.531a.89.89,0,0,0-.723.349,1.719,1.719,0,0,0-.352.886l.01.024H18.3v-.122a1.264,1.264,0,0,0-.256-.82A.936.936,0,0,0,17.266-4.429Zm5.8.215-.508-.02a1.064,1.064,0,0,0-.579.146.965.965,0,0,0-.359.415V0H20.43V-5.283h1.084l.078.767a1.694,1.694,0,0,1,.515-.635,1.2,1.2,0,0,1,.725-.229,1.106,1.106,0,0,1,.2.017,1.462,1.462,0,0,1,.171.042ZM26.074-.845a1.084,1.084,0,0,0,.732-.256.812.812,0,0,0,.3-.642h1.074l.01.029a1.56,1.56,0,0,1-.6,1.279A2.246,2.246,0,0,1,26.074.1a2.191,2.191,0,0,1-1.79-.752,2.886,2.886,0,0,1-.623-1.9v-.171a2.888,2.888,0,0,1,.623-1.9,2.188,2.188,0,0,1,1.79-.754,2.173,2.173,0,0,1,1.545.554,1.784,1.784,0,0,1,.574,1.409l-.01.029H27.1a1.035,1.035,0,0,0-.286-.737.977.977,0,0,0-.745-.3,1,1,0,0,0-.947.486,2.422,2.422,0,0,0-.278,1.218v.171a2.427,2.427,0,0,0,.278,1.228A1,1,0,0,0,26.074-.845ZM31.406.1a2.3,2.3,0,0,1-1.79-.735A2.7,2.7,0,0,1,28.95-2.52v-.2a2.8,2.8,0,0,1,.662-1.912,2.093,2.093,0,0,1,1.658-.754,2.065,2.065,0,0,1,1.638.647A2.535,2.535,0,0,1,33.477-3v.7h-3.3l-.01.024a1.664,1.664,0,0,0,.369,1.03,1.166,1.166,0,0,0,.94.4,2.541,2.541,0,0,0,.82-.117,2.688,2.688,0,0,0,.659-.337l.381.776a2.458,2.458,0,0,1-.791.444A3.314,3.314,0,0,1,31.406.1ZM31.27-4.429a.89.89,0,0,0-.723.349,1.719,1.719,0,0,0-.352.886l.01.024H32.3v-.122a1.264,1.264,0,0,0-.256-.82A.936.936,0,0,0,31.27-4.429Z" transform="translate(159 1693.596)" fill="#b4bbc6"/>
    <g id="Group_3616" data-name="Group 3616" transform="translate(63.352 1432.554)">
      <g id="Group_2978" data-name="Group 2978" transform="translate(93.252 794.291)">
        <path id="Path_3624" data-name="Path 3624" d="M127.393,802.513a2.659,2.659,0,1,0,2.659,2.659A2.662,2.662,0,0,0,127.393,802.513Zm0,4.5a1.836,1.836,0,1,1,1.836-1.836A1.838,1.838,0,0,1,127.393,807.008Z" transform="translate(-124.734 -802.513)" fill="#526279" stroke="#526279" stroke-width="0.3"/>
      </g>
      <g id="Group_2979" data-name="Group 2979" transform="translate(99.704 798.786)">
        <path id="Path_3625" data-name="Path 3625" d="M151.759,820.481h-.823a.411.411,0,0,0,0,.823h.823a.411.411,0,1,0,0-.823Z" transform="translate(-150.525 -820.481)" fill="#526279" stroke="#526279" stroke-width="0.3"/>
      </g>
      <g id="Group_2980" data-name="Group 2980" transform="translate(102.583 798.786)">
        <path id="Path_3626" data-name="Path 3626" d="M163.268,820.481h-.823a.411.411,0,0,0,0,.823h.823a.411.411,0,1,0,0-.823Z" transform="translate(-162.034 -820.481)" fill="#526279" stroke="#526279" stroke-width="0.3"/>
      </g>
      <g id="Group_2981" data-name="Group 2981" transform="translate(87.592 798.786)">
        <path id="Path_3627" data-name="Path 3627" d="M103.345,820.481h-.822a.411.411,0,1,0,0,.823h.822a.411.411,0,1,0,0-.823Z" transform="translate(-102.111 -820.481)" fill="#526279" stroke="#526279" stroke-width="0.3"/>
      </g>
      <g id="Group_2982" data-name="Group 2982" transform="translate(90.471 798.786)">
        <path id="Path_3628" data-name="Path 3628" d="M114.854,820.481h-.822a.411.411,0,1,0,0,.823h.822a.411.411,0,1,0,0-.823Z" transform="translate(-113.62 -820.481)" fill="#526279" stroke="#526279" stroke-width="0.3"/>
      </g>
      <g id="Group_2983" data-name="Group 2983" transform="translate(89.611 810.181)">
        <path id="Path_3629" data-name="Path 3629" d="M115.656,866.03h-5.066a.412.412,0,0,0-.412.411v4.172a.411.411,0,0,0,.412.411h5.066a.411.411,0,0,0,.411-.411v-4.172A.411.411,0,0,0,115.656,866.03Zm-.412,4.172H111v-3.349h1.71v.647a.411.411,0,0,0,.823,0v-.647h1.71Z" transform="translate(-110.179 -866.03)" fill="#526279" stroke="#526279" stroke-width="0.3"/>
      </g>
      <g id="Group_2984" data-name="Group 2984" transform="translate(96.322 810.181)">
        <path id="Path_3630" data-name="Path 3630" d="M142.482,866.03h-5.065a.411.411,0,0,0-.412.411v4.172a.411.411,0,0,0,.412.411h5.065a.411.411,0,0,0,.411-.411v-4.172A.411.411,0,0,0,142.482,866.03Zm-.412,4.172h-4.243v-3.349h1.71v.647a.411.411,0,0,0,.823,0v-.647h1.71Z" transform="translate(-137.005 -866.03)" fill="#526279" stroke="#526279" stroke-width="0.3"/>
      </g>
      <g id="Group_2985" data-name="Group 2985" transform="translate(96.322 804.481)">
        <path id="Path_3631" data-name="Path 3631" d="M142.482,843.244h-5.065a.411.411,0,0,0-.412.411v4.172a.412.412,0,0,0,.412.412h5.065a.411.411,0,0,0,.411-.412v-4.172A.411.411,0,0,0,142.482,843.244Zm-.412,4.172h-4.243v-3.349h1.71v.647a.411.411,0,0,0,.823,0v-.647h1.71Z" transform="translate(-137.005 -843.244)" fill="#526279" stroke="#526279" stroke-width="0.3"/>
      </g>
      <g id="Group_2986" data-name="Group 2986" transform="translate(82.748 791.548)">
        <path id="Path_3632" data-name="Path 3632" d="M108.663,816.049h-.991V799.264l.783.455a.411.411,0,1,0,.413-.712l-12.751-7.4a.412.412,0,0,0-.413,0l-12.751,7.4a.411.411,0,0,0,.413.712l.786-.457v16.787h-.991a.411.411,0,1,0,0,.823h25.5a.411.411,0,1,0,0-.823Zm-19.779,0V803.607h14.052v12.443Zm-1.292-13.265V801.55h16.636v1.234Zm16.167,13.265V803.607h.881a.411.411,0,0,0,.411-.411v-2.057a.411.411,0,0,0-.411-.411H87.181a.411.411,0,0,0-.411.411V803.2a.411.411,0,0,0,.411.411h.881v12.443H84.975V798.785l10.936-6.35,10.939,6.352v17.263Z" transform="translate(-82.748 -791.548)" fill="#526279" stroke="#526279" stroke-width="0.3"/>
      </g>
    </g>
    <text id="Warehouse" transform="translate(159 2282.596)" fill="#b4bbc6" font-size="10" font-family="Roboto-Medium, Roboto" font-weight="500"><tspan x="-25.178" y="0">Warehouse</tspan></text>
    <g id="Group_3618" data-name="Group 3618" transform="translate(141.063 1721.128)">
      <path id="Path_1420" data-name="Path 1420" d="M3.378,0H33.006A3.391,3.391,0,0,1,36.4,3.393V14.7A3.391,3.391,0,0,1,33.006,18.1H22.381l1.458,3.571L17.426,18.1H3.393A3.391,3.391,0,0,1,0,14.7V3.393A3.379,3.379,0,0,1,3.378,0Z" transform="translate(0)" fill="#9b5c8f"/>
      <path id="Path_1421" data-name="Path 1421" d="M13.041,15.2a1.19,1.19,0,0,1,.932-.459,1.081,1.081,0,0,1,1.287,1.065q.688,4.639,1.494,7.857L20,17.5a1.4,1.4,0,0,1,1.11-.888c.651-.044,1.05.37,1.213,1.243a27.647,27.647,0,0,0,1.406,5.06q.577-5.637,1.953-8.138a1.136,1.136,0,0,1,.977-.651,1.285,1.285,0,0,1,.932.3,1.159,1.159,0,0,1,.459.843,1.285,1.285,0,0,1-.148.71,17.914,17.914,0,0,0-1.435,5.341,27.566,27.566,0,0,0-.414,5.637,1.757,1.757,0,0,1-.177.977.954.954,0,0,1-.784.533,1.488,1.488,0,0,1-1.169-.548,14.648,14.648,0,0,1-3.27-6.3q-1.443,2.841-2.131,4.261c-.873,1.672-1.613,2.53-2.234,2.575-.4.03-.74-.311-1.036-1.021A64.108,64.108,0,0,1,12.8,16.195,1.26,1.26,0,0,1,13.041,15.2Zm31.8,2.323a3.407,3.407,0,0,0-2.367-1.716,3.888,3.888,0,0,0-.8-.089,3.99,3.99,0,0,0-3.477,2.219,7.839,7.839,0,0,0-1.154,4.172,5.729,5.729,0,0,0,.71,2.93,3.407,3.407,0,0,0,2.367,1.716,3.877,3.877,0,0,0,.8.089,3.956,3.956,0,0,0,3.477-2.219,7.929,7.929,0,0,0,1.154-4.187A5.46,5.46,0,0,0,44.838,17.526Zm-1.864,4.1a3.914,3.914,0,0,1-1.125,2.19,1.423,1.423,0,0,1-1.2.474c-.355-.074-.651-.385-.873-.962a3.755,3.755,0,0,1-.266-1.346,5.147,5.147,0,0,1,.1-1.08,4.786,4.786,0,0,1,.784-1.761c.488-.725,1.006-1.021,1.539-.917.355.074.651.385.873.962a3.755,3.755,0,0,1,.266,1.346A5.2,5.2,0,0,1,42.974,21.625Zm-7.4-4.1a3.438,3.438,0,0,0-2.367-1.716,3.887,3.887,0,0,0-.8-.089,3.99,3.99,0,0,0-3.477,2.219,7.84,7.84,0,0,0-1.154,4.172,5.729,5.729,0,0,0,.71,2.93,3.407,3.407,0,0,0,2.367,1.716,3.876,3.876,0,0,0,.8.089,3.956,3.956,0,0,0,3.477-2.219,7.928,7.928,0,0,0,1.154-4.187A5.6,5.6,0,0,0,35.576,17.526Zm-1.879,4.1a3.914,3.914,0,0,1-1.125,2.19,1.423,1.423,0,0,1-1.2.474c-.355-.074-.651-.385-.873-.962a3.755,3.755,0,0,1-.266-1.346,5.147,5.147,0,0,1,.1-1.08,4.784,4.784,0,0,1,.784-1.761c.488-.725,1.006-1.021,1.539-.917.355.074.651.385.873.962A3.754,3.754,0,0,1,33.8,20.53a4.367,4.367,0,0,1-.1,1.095Z" transform="translate(-10.969 -12.111)" fill="#fff"/>
    </g>
  </g>
</svg>
