<svg xmlns="http://www.w3.org/2000/svg" xmlns:xlink="http://www.w3.org/1999/xlink" width="958.928" height="522.615" viewBox="0 0 958.928 522.615">
  <defs>
    <filter id="Path_4453" x="218.336" y="0" width="522.615" height="522.615" filterUnits="userSpaceOnUse">
      <feOffset dy="20" input="SourceAlpha"/>
      <feGaussianBlur stdDeviation="49.5" result="blur"/>
      <feFlood flood-color="#3c485a" flood-opacity="0.149"/>
      <feComposite operator="in" in2="blur"/>
      <feComposite in="SourceGraphic"/>
    </filter>
    <filter id="Path_4454" x="0" y="62.648" width="368" height="368" filterUnits="userSpaceOnUse">
      <feOffset dy="5" input="SourceAlpha"/>
      <feGaussianBlur stdDeviation="49.5" result="blur-2"/>
      <feFlood flood-color="#3c485a" flood-opacity="0.102"/>
      <feComposite operator="in" in2="blur-2"/>
      <feComposite in="SourceGraphic"/>
    </filter>
    <filter id="Path_4455" x="590.928" y="63.029" width="368" height="368" filterUnits="userSpaceOnUse">
      <feOffset dy="5" input="SourceAlpha"/>
      <feGaussianBlur stdDeviation="49.5" result="blur-3"/>
      <feFlood flood-color="#3c485a" flood-opacity="0.102"/>
      <feComposite operator="in" in2="blur-3"/>
      <feComposite in="SourceGraphic"/>
    </filter>
  </defs>
  <g id="Group_3575" data-name="Group 3575" transform="translate(-242.328 -1366.336)">
    <path id="Path_4456" data-name="Path 4456" d="M0,0H128" transform="translate(448.828 1608.725)" fill="none" stroke="#cccdd7" stroke-linecap="round" stroke-width="3" stroke-dasharray="1 10"/>
    <path id="Path_4457" data-name="Path 4457" d="M0,0H128" transform="translate(994.823 1608.244) rotate(180)" fill="none" stroke="#cccdd7" stroke-linecap="round" stroke-width="3" stroke-dasharray="1 10"/>
    <path id="Path_4452" data-name="Path 4452" d="M145.144,0A145.144,145.144,0,1,1,0,145.144,145.144,145.144,0,0,1,145.144,0Z" transform="translate(576.828 1462.5)" fill="none" stroke="#d82125" stroke-linecap="round" stroke-width="3" stroke-dasharray="1 10"/>
    <g transform="matrix(1, 0, 0, 1, 242.33, 1366.34)" filter="url(#Path_4453)">
      <path id="Path_4453-2" data-name="Path 4453" d="M112.808,0A112.808,112.808,0,1,1,0,112.808,112.808,112.808,0,0,1,112.808,0Z" transform="translate(366.84 128.5)" fill="#fff"/>
    </g>
    <g id="Group_3109" data-name="Group 3109" transform="translate(664.992 1541.316)">
      <path id="Path_1150" data-name="Path 1150" d="M580.378,215.772c-.02.078-.038.157-.055.236a41.281,41.281,0,0,0,4.109,29.056c.209.375.431.74.641,1.113a3.156,3.156,0,0,1,.635,2.166,2.678,2.678,0,0,1-1.189,1.8,5.537,5.537,0,0,1-1.038.368c-.406.073-.815.147-1.229.2a19.3,19.3,0,0,1-5.236-38.244c.052-.006.1-.01.154-.021a2.858,2.858,0,0,1,2.16.306,2.506,2.506,0,0,1,1.046,3.014" transform="translate(-560.432 -155.676)" fill="#3d3d3d"/>
      <ellipse id="Ellipse_123" data-name="Ellipse 123" cx="36.023" cy="36.023" rx="36.023" ry="36.023" transform="translate(24.016 33.45)" fill="#d82225"/>
      <path id="Path_1151" data-name="Path 1151" d="M606.015,197c.8-.045.965-.026,1.774-.026a41.072,41.072,0,0,1,30.821,13.875,3.538,3.538,0,0,0,2.415,1.605,2.969,2.969,0,0,0,2.439-.845l.587-.5a24.442,24.442,0,1,0-40.978-18,4.842,4.842,0,0,0,.245,2.05,2.84,2.84,0,0,0,2.7,1.835" transform="translate(-547.751 -168.675)" fill="#262626"/>
      <path id="Path_1152" data-name="Path 1152" d="M640.66,242.385q.315.42.6.863A16.3,16.3,0,1,1,613.68,260.6c-.131-.214-.25-.436-.379-.653a2.176,2.176,0,0,1-.291-2.076,2.328,2.328,0,0,1,1.928-1.412,12.615,12.615,0,0,0,1.34-.362,41.185,41.185,0,0,0,19.807-12.728c.258-.3.5-.614.76-.911a2.69,2.69,0,0,1,1.212-1.026,2.115,2.115,0,0,1,1.863.206A2.526,2.526,0,0,1,640.66,242.385Z" transform="translate(-544.832 -147.062)" fill="#3d3d3d"/>
    </g>
    <g transform="matrix(1, 0, 0, 1, 242.33, 1366.34)" filter="url(#Path_4454)">
      <path id="Path_4454-2" data-name="Path 4454" d="M5.669,0H64.331A5.669,5.669,0,0,1,70,5.669V64.331A5.669,5.669,0,0,1,64.331,70H5.669A5.669,5.669,0,0,1,0,64.331V5.669A5.669,5.669,0,0,1,5.669,0Z" transform="translate(149 206.65)" fill="#fff" stroke="#b4bbc6" stroke-width="1"/>
    </g>
    <g transform="matrix(1, 0, 0, 1, 242.33, 1366.34)" filter="url(#Path_4455)">
      <path id="Path_4455-2" data-name="Path 4455" d="M5.669,0H64.331A5.669,5.669,0,0,1,70,5.669V64.331A5.669,5.669,0,0,1,64.331,70H5.669A5.669,5.669,0,0,1,0,64.331V5.669A5.669,5.669,0,0,1,5.669,0Z" transform="translate(739.93 207.03)" fill="#fff" stroke="#b4bbc6" stroke-width="1"/>
    </g>
    <path id="Path_4675" data-name="Path 4675" d="M-43.832-2.652v.014l.007-.034,1.989-7.28h1.326l2.01,7.3.007.048.007-.068,1.572-7.28h1.634L-37.646,0h-1.511l-1.989-7.144h-.041l-2,7.144H-44.7l-2.358-9.953h1.634ZM-34.6-3.767a4.029,4.029,0,0,1,.9-2.707,3.111,3.111,0,0,1,2.481-1.06,3.1,3.1,0,0,1,2.5,1.06,3.994,3.994,0,0,1,.909,2.707v.144A4.014,4.014,0,0,1-28.725-.9,3.1,3.1,0,0,1-31.206.144,3.124,3.124,0,0,1-33.7-.909a4.023,4.023,0,0,1-.9-2.714Zm1.661.144a3.3,3.3,0,0,0,.424,1.764,1.429,1.429,0,0,0,1.313.677,1.436,1.436,0,0,0,1.3-.677,3.221,3.221,0,0,0,.438-1.764v-.144a3.18,3.18,0,0,0-.437-1.743A1.441,1.441,0,0,0-31.22-6.2a1.429,1.429,0,0,0-1.3.69,3.282,3.282,0,0,0-.424,1.743Zm6.269-.144a4.029,4.029,0,0,1,.9-2.707,3.111,3.111,0,0,1,2.481-1.06,3.1,3.1,0,0,1,2.5,1.06,3.994,3.994,0,0,1,.909,2.707v.144A4.014,4.014,0,0,1-20.795-.9,3.1,3.1,0,0,1-23.276.144a3.124,3.124,0,0,1-2.5-1.053,4.023,4.023,0,0,1-.9-2.714Zm1.661.144a3.3,3.3,0,0,0,.424,1.764,1.429,1.429,0,0,0,1.313.677,1.436,1.436,0,0,0,1.3-.677,3.221,3.221,0,0,0,.438-1.764v-.144a3.18,3.18,0,0,0-.437-1.743A1.441,1.441,0,0,0-23.29-6.2a1.429,1.429,0,0,0-1.3.69,3.282,3.282,0,0,0-.424,1.743Zm9.632,2.44a1.517,1.517,0,0,0,1.025-.359,1.137,1.137,0,0,0,.417-.9h1.5l.014.041a2.184,2.184,0,0,1-.844,1.791,3.144,3.144,0,0,1-2.116.752A3.068,3.068,0,0,1-17.886-.909a4.041,4.041,0,0,1-.872-2.666v-.239a4.044,4.044,0,0,1,.872-2.663,3.063,3.063,0,0,1,2.505-1.056,3.042,3.042,0,0,1,2.164.776,2.5,2.5,0,0,1,.8,1.972l-.014.041h-1.511a1.449,1.449,0,0,0-.4-1.032A1.368,1.368,0,0,0-15.381-6.2a1.4,1.4,0,0,0-1.326.68,3.391,3.391,0,0,0-.39,1.706v.239a3.4,3.4,0,0,0,.39,1.719A1.406,1.406,0,0,0-15.381-1.183ZM-11.4-3.767a4.029,4.029,0,0,1,.9-2.707,3.111,3.111,0,0,1,2.481-1.06,3.1,3.1,0,0,1,2.5,1.06,3.994,3.994,0,0,1,.909,2.707v.144A4.014,4.014,0,0,1-5.517-.9,3.1,3.1,0,0,1-8,.144a3.124,3.124,0,0,1-2.5-1.053,4.023,4.023,0,0,1-.9-2.714Zm1.661.144a3.3,3.3,0,0,0,.424,1.764A1.429,1.429,0,0,0-8-1.183a1.436,1.436,0,0,0,1.3-.677,3.221,3.221,0,0,0,.438-1.764v-.144A3.18,3.18,0,0,0-6.7-5.51,1.441,1.441,0,0,0-8.012-6.2a1.429,1.429,0,0,0-1.3.69,3.282,3.282,0,0,0-.424,1.743ZM-1.641-7.4l.089.964a2.507,2.507,0,0,1,.909-.813A2.681,2.681,0,0,1,.622-7.533a2.282,2.282,0,0,1,1.244.328,1.983,1.983,0,0,1,.779.984,2.591,2.591,0,0,1,.9-.964A2.434,2.434,0,0,1,4.86-7.533a2.186,2.186,0,0,1,1.76.762,3.514,3.514,0,0,1,.646,2.314V0H5.605V-4.464A2.076,2.076,0,0,0,5.281-5.79a1.206,1.206,0,0,0-.974-.383,1.425,1.425,0,0,0-.9.287,1.6,1.6,0,0,0-.533.772q0,.1.007.178t.007.144V0H1.224V-4.464A2.053,2.053,0,0,0,.892-5.773a1.193,1.193,0,0,0-.974-.4,1.749,1.749,0,0,0-.858.195,1.436,1.436,0,0,0-.557.55V0H-3.158V-7.4Zm12.175,0,.089.964a2.507,2.507,0,0,1,.909-.813A2.681,2.681,0,0,1,12.8-7.533a2.282,2.282,0,0,1,1.244.328,1.983,1.983,0,0,1,.779.984,2.591,2.591,0,0,1,.9-.964,2.434,2.434,0,0,1,1.313-.349,2.186,2.186,0,0,1,1.76.762,3.514,3.514,0,0,1,.646,2.314V0H17.78V-4.464a2.076,2.076,0,0,0-.325-1.326,1.206,1.206,0,0,0-.974-.383,1.425,1.425,0,0,0-.9.287,1.6,1.6,0,0,0-.533.772q0,.1.007.178t.007.144V0H13.4V-4.464a2.053,2.053,0,0,0-.332-1.309,1.193,1.193,0,0,0-.974-.4,1.749,1.749,0,0,0-.858.195,1.436,1.436,0,0,0-.557.55V0H9.017V-7.4ZM24.363.144A3.216,3.216,0,0,1,21.858-.885a3.782,3.782,0,0,1-.933-2.642V-3.8a3.927,3.927,0,0,1,.926-2.676,2.93,2.93,0,0,1,2.321-1.056,2.891,2.891,0,0,1,2.293.906,3.549,3.549,0,0,1,.8,2.43v.978H22.647l-.014.034a2.329,2.329,0,0,0,.516,1.442,1.632,1.632,0,0,0,1.316.561,3.557,3.557,0,0,0,1.148-.164,3.763,3.763,0,0,0,.923-.472L27.07-.731a3.441,3.441,0,0,1-1.107.622A4.64,4.64,0,0,1,24.363.144ZM24.172-6.2a1.246,1.246,0,0,0-1.012.489,2.407,2.407,0,0,0-.492,1.241l.014.034h2.933v-.171a1.77,1.77,0,0,0-.359-1.148A1.31,1.31,0,0,0,24.172-6.2Zm8.114.3-.711-.027a1.49,1.49,0,0,0-.81.205,1.351,1.351,0,0,0-.5.581V0H28.6V-7.4h1.518l.109,1.073a2.372,2.372,0,0,1,.721-.889,1.679,1.679,0,0,1,1.015-.321,1.548,1.548,0,0,1,.28.024,2.047,2.047,0,0,1,.239.058ZM36.5-1.183a1.517,1.517,0,0,0,1.025-.359,1.137,1.137,0,0,0,.417-.9h1.5l.014.041A2.184,2.184,0,0,1,38.62-.608,3.144,3.144,0,0,1,36.5.144,3.068,3.068,0,0,1,34-.909a4.041,4.041,0,0,1-.872-2.666v-.239A4.044,4.044,0,0,1,34-6.477,3.063,3.063,0,0,1,36.5-7.533a3.042,3.042,0,0,1,2.164.776,2.5,2.5,0,0,1,.8,1.972l-.014.041H37.946a1.449,1.449,0,0,0-.4-1.032A1.368,1.368,0,0,0,36.5-6.2a1.4,1.4,0,0,0-1.326.68,3.391,3.391,0,0,0-.39,1.706v.239a3.4,3.4,0,0,0,.39,1.719A1.406,1.406,0,0,0,36.5-1.183ZM43.969.144A3.216,3.216,0,0,1,41.463-.885a3.782,3.782,0,0,1-.933-2.642V-3.8a3.927,3.927,0,0,1,.926-2.676,2.93,2.93,0,0,1,2.321-1.056,2.891,2.891,0,0,1,2.293.906,3.549,3.549,0,0,1,.8,2.43v.978H42.253l-.014.034a2.329,2.329,0,0,0,.516,1.442,1.632,1.632,0,0,0,1.316.561,3.557,3.557,0,0,0,1.148-.164,3.763,3.763,0,0,0,.923-.472l.533,1.087a3.441,3.441,0,0,1-1.107.622A4.64,4.64,0,0,1,43.969.144ZM43.777-6.2a1.246,1.246,0,0,0-1.012.489,2.407,2.407,0,0,0-.492,1.241l.014.034H45.22v-.171a1.77,1.77,0,0,0-.359-1.148A1.31,1.31,0,0,0,43.777-6.2Z" transform="translate(426 1560)" fill="#b4bbc6"/>
    <g id="Group_3613" data-name="Group 3613" transform="translate(916.115 800.797)">
      <g id="Group_2978" data-name="Group 2978" transform="translate(97.586 795.423)">
        <path id="Path_3624" data-name="Path 3624" d="M128.49,802.513a3.756,3.756,0,1,0,3.756,3.756A3.76,3.76,0,0,0,128.49,802.513Zm0,6.35a2.594,2.594,0,1,1,2.594-2.594A2.6,2.6,0,0,1,128.49,808.863Z" transform="translate(-124.734 -802.513)" fill="#526279" stroke="#526279" stroke-width="0.5"/>
      </g>
      <g id="Group_2979" data-name="Group 2979" transform="translate(106.701 801.773)">
        <path id="Path_3625" data-name="Path 3625" d="M152.268,820.481h-1.162a.581.581,0,0,0,0,1.162h1.162a.581.581,0,1,0,0-1.162Z" transform="translate(-150.525 -820.481)" fill="#526279" stroke="#526279" stroke-width="0.5"/>
      </g>
      <g id="Group_2980" data-name="Group 2980" transform="translate(110.768 801.773)">
        <path id="Path_3626" data-name="Path 3626" d="M163.777,820.481h-1.162a.581.581,0,0,0,0,1.162h1.162a.581.581,0,1,0,0-1.162Z" transform="translate(-162.034 -820.481)" fill="#526279" stroke="#526279" stroke-width="0.5"/>
      </g>
      <g id="Group_2981" data-name="Group 2981" transform="translate(89.591 801.773)">
        <path id="Path_3627" data-name="Path 3627" d="M103.854,820.481h-1.162a.581.581,0,1,0,0,1.162h1.162a.581.581,0,1,0,0-1.162Z" transform="translate(-102.111 -820.481)" fill="#526279" stroke="#526279" stroke-width="0.5"/>
      </g>
      <g id="Group_2982" data-name="Group 2982" transform="translate(93.658 801.773)">
        <path id="Path_3628" data-name="Path 3628" d="M115.363,820.481H114.2a.581.581,0,1,0,0,1.162h1.162a.581.581,0,1,0,0-1.162Z" transform="translate(-113.62 -820.481)" fill="#526279" stroke="#526279" stroke-width="0.5"/>
      </g>
      <g id="Group_2983" data-name="Group 2983" transform="translate(92.442 817.87)">
        <path id="Path_3629" data-name="Path 3629" d="M117.916,866.03H110.76a.581.581,0,0,0-.581.581V872.5a.581.581,0,0,0,.581.581h7.156a.581.581,0,0,0,.581-.581v-5.893A.581.581,0,0,0,117.916,866.03Zm-.581,5.893h-5.994v-4.731h2.416v.914a.581.581,0,0,0,1.162,0v-.914h2.416Z" transform="translate(-110.179 -866.03)" fill="#526279" stroke="#526279" stroke-width="0.5"/>
      </g>
      <g id="Group_2984" data-name="Group 2984" transform="translate(101.923 817.87)">
        <path id="Path_3630" data-name="Path 3630" d="M144.742,866.03h-7.156a.581.581,0,0,0-.581.581V872.5a.581.581,0,0,0,.581.581h7.156a.581.581,0,0,0,.581-.581v-5.893A.581.581,0,0,0,144.742,866.03Zm-.581,5.893h-5.993v-4.731h2.416v.914a.581.581,0,0,0,1.162,0v-.914h2.416Z" transform="translate(-137.005 -866.03)" fill="#526279" stroke="#526279" stroke-width="0.5"/>
      </g>
      <g id="Group_2985" data-name="Group 2985" transform="translate(101.923 809.817)">
        <path id="Path_3631" data-name="Path 3631" d="M144.742,843.244h-7.156a.581.581,0,0,0-.581.581v5.893a.581.581,0,0,0,.581.581h7.156a.581.581,0,0,0,.581-.581v-5.893A.581.581,0,0,0,144.742,843.244Zm-.581,5.893h-5.993v-4.731h2.416v.914a.581.581,0,0,0,1.162,0v-.914h2.416Z" transform="translate(-137.005 -843.244)" fill="#526279" stroke="#526279" stroke-width="0.5"/>
      </g>
      <g id="Group_2986" data-name="Group 2986" transform="translate(82.748 791.548)">
        <path id="Path_3632" data-name="Path 3632" d="M119.357,826.16h-1.4V802.449l1.106.642a.581.581,0,1,0,.583-1.005l-18.013-10.46a.582.582,0,0,0-.583,0l-18.013,10.46a.581.581,0,0,0,.583,1.005l1.111-.645V826.16h-1.4a.581.581,0,1,0,0,1.162h36.025a.581.581,0,1,0,0-1.162Zm-27.94,0V808.583h19.851V826.16Zm-1.825-18.739v-1.743h23.5v1.743Zm22.838,18.739V808.583h1.244a.581.581,0,0,0,.581-.581V805.1a.581.581,0,0,0-.581-.581H89.01a.581.581,0,0,0-.581.581V808a.581.581,0,0,0,.581.581h1.244V826.16H85.894V801.771l15.448-8.971,15.452,8.973V826.16Z" transform="translate(-82.748 -791.548)" fill="#526279" stroke="#526279" stroke-width="0.5"/>
      </g>
    </g>
    <text id="Warehouse" transform="translate(1017 1560)" fill="#b4bbc6" font-size="14" font-family="Roboto-Medium, Roboto" font-weight="500"><tspan x="-35.25" y="0">Warehouse</tspan></text>
    <g id="Group_3617" data-name="Group 3617" transform="translate(401.069 1595.106)">
      <path id="Path_1420" data-name="Path 1420" d="M4.689,0H45.809a4.707,4.707,0,0,1,4.709,4.709v15.7a4.707,4.707,0,0,1-4.709,4.709H31.063l2.024,4.957-8.9-4.957H4.709A4.707,4.707,0,0,1,0,20.405V4.709A4.689,4.689,0,0,1,4.689,0Z" transform="translate(0)" fill="#9b5c8f"/>
      <path id="Path_1421" data-name="Path 1421" d="M13.14,15.624a1.652,1.652,0,0,1,1.294-.637,1.5,1.5,0,0,1,1.787,1.478q.955,6.438,2.074,10.9l4.5-8.563a1.949,1.949,0,0,1,1.54-1.232c.9-.062,1.458.513,1.684,1.725a38.372,38.372,0,0,0,1.951,7.023q.8-7.824,2.711-11.295a1.577,1.577,0,0,1,1.355-.9,1.784,1.784,0,0,1,1.294.411,1.608,1.608,0,0,1,.637,1.171,1.783,1.783,0,0,1-.205.986,24.863,24.863,0,0,0-1.992,7.413,38.259,38.259,0,0,0-.575,7.824,2.439,2.439,0,0,1-.246,1.356,1.323,1.323,0,0,1-1.089.739,2.065,2.065,0,0,1-1.622-.76A20.33,20.33,0,0,1,23.7,24.516q-2,3.943-2.957,5.914c-1.212,2.321-2.238,3.512-3.1,3.573-.554.041-1.027-.431-1.437-1.417Q14.629,28.552,12.811,17A1.749,1.749,0,0,1,13.14,15.624Zm44.132,3.224a4.729,4.729,0,0,0-3.286-2.382,5.4,5.4,0,0,0-1.109-.123c-1.971,0-3.573,1.027-4.826,3.08a10.88,10.88,0,0,0-1.6,5.791,7.952,7.952,0,0,0,.986,4.066,4.729,4.729,0,0,0,3.286,2.382,5.381,5.381,0,0,0,1.109.123,5.491,5.491,0,0,0,4.826-3.08,11.005,11.005,0,0,0,1.6-5.812A7.578,7.578,0,0,0,57.272,18.848Zm-2.587,5.688a5.433,5.433,0,0,1-1.561,3.039,1.975,1.975,0,0,1-1.663.657c-.493-.1-.9-.534-1.212-1.335a5.211,5.211,0,0,1-.37-1.869,7.144,7.144,0,0,1,.144-1.5,6.643,6.643,0,0,1,1.088-2.444c.678-1.006,1.4-1.417,2.136-1.273.493.1.9.534,1.212,1.335a5.211,5.211,0,0,1,.37,1.869A7.211,7.211,0,0,1,54.684,24.537ZM44.416,18.848a4.772,4.772,0,0,0-3.286-2.382,5.394,5.394,0,0,0-1.109-.123c-1.971,0-3.573,1.027-4.826,3.08a10.882,10.882,0,0,0-1.6,5.791,7.952,7.952,0,0,0,.986,4.066,4.729,4.729,0,0,0,3.286,2.382,5.38,5.38,0,0,0,1.109.123,5.491,5.491,0,0,0,4.826-3.08,11,11,0,0,0,1.6-5.812A7.77,7.77,0,0,0,44.416,18.848Zm-2.608,5.688a5.433,5.433,0,0,1-1.561,3.039,1.975,1.975,0,0,1-1.663.657c-.493-.1-.9-.534-1.212-1.335A5.211,5.211,0,0,1,37,25.03a7.144,7.144,0,0,1,.144-1.5,6.64,6.64,0,0,1,1.089-2.444c.678-1.006,1.4-1.417,2.136-1.273.493.1.9.534,1.212,1.335a5.211,5.211,0,0,1,.37,1.869,6.061,6.061,0,0,1-.144,1.52Z" transform="translate(-10.263 -11.332)" fill="#fff"/>
    </g>
  </g>
</svg>
