<svg xmlns="http://www.w3.org/2000/svg" xmlns:xlink="http://www.w3.org/1999/xlink" width="520.091" height="905.121" viewBox="0 0 520.091 905.121">
  <defs>
    <filter id="Path_4534" x="11.714" y="243.728" width="499.074" height="499.074" filterUnits="userSpaceOnUse">
      <feOffset dy="20" input="SourceAlpha"/>
      <feGaussianBlur stdDeviation="49.5" result="blur"/>
      <feFlood flood-color="#3c485a" flood-opacity="0.149"/>
      <feComposite operator="in" in2="blur"/>
      <feComposite in="SourceGraphic"/>
    </filter>
    <filter id="Path_4532" x="86.442" y="557.121" width="348" height="348" filterUnits="userSpaceOnUse">
      <feOffset dy="5" input="SourceAlpha"/>
      <feGaussianBlur stdDeviation="49.5" result="blur-2"/>
      <feFlood flood-color="#3c485a" flood-opacity="0.102"/>
      <feComposite operator="in" in2="blur-2"/>
      <feComposite in="SourceGraphic"/>
    </filter>
    <filter id="Path_4747" x="171.31" y="0.788" width="348.781" height="348.781" filterUnits="userSpaceOnUse">
      <feOffset dy="5" input="SourceAlpha"/>
      <feGaussianBlur stdDeviation="49.5" result="blur-3"/>
      <feFlood flood-color="#3c485a" flood-opacity="0.102"/>
      <feComposite operator="in" in2="blur-3"/>
      <feComposite in="SourceGraphic"/>
    </filter>
    <filter id="Path_4748" x="85.86" y="0.775" width="348.781" height="348.781" filterUnits="userSpaceOnUse">
      <feOffset dy="5" input="SourceAlpha"/>
      <feGaussianBlur stdDeviation="49.5" result="blur-4"/>
      <feFlood flood-color="#3c485a" flood-opacity="0.102"/>
      <feComposite operator="in" in2="blur-4"/>
      <feComposite in="SourceGraphic"/>
    </filter>
    <filter id="Path_4750" x="0" y="0" width="348.781" height="348.781" filterUnits="userSpaceOnUse">
      <feOffset dy="5" input="SourceAlpha"/>
      <feGaussianBlur stdDeviation="49.5" result="blur-5"/>
      <feFlood flood-color="#3c485a" flood-opacity="0.102"/>
      <feComposite operator="in" in2="blur-5"/>
      <feComposite in="SourceGraphic"/>
    </filter>
  </defs>
  <g id="Group_3705" data-name="Group 3705" transform="translate(-895.192 14.65)">
    <path id="Path_4533" data-name="Path 4533" d="M130,0A130,130,0,1,1,0,130,130,130,0,0,1,130,0Z" transform="translate(1286.193 328.865) rotate(90)" fill="none" stroke="#d82125" stroke-linecap="round" stroke-width="3" stroke-dasharray="1 10"/>
    <g transform="matrix(1, 0, 0, 1, 895.19, -14.65)" filter="url(#Path_4534)">
      <path id="Path_4534-2" data-name="Path 4534" d="M101.037,0A101.037,101.037,0,1,1,0,101.037,101.037,101.037,0,0,1,101.037,0Z" transform="translate(160.21 372.23)" fill="#fff"/>
    </g>
    <g id="Group_3135" data-name="Group 3135" transform="translate(1105.41 399.207)">
      <path id="Path_1150" data-name="Path 1150" d="M578.3,215.416c-.018.07-.034.141-.049.212a36.974,36.974,0,0,0,3.681,26.024c.187.336.386.662.574,1a2.826,2.826,0,0,1,.568,1.94,2.4,2.4,0,0,1-1.065,1.615,4.96,4.96,0,0,1-.93.33c-.364.065-.73.131-1.1.18a17.287,17.287,0,0,1-4.689-34.253c.047-.006.093-.009.138-.019a2.559,2.559,0,0,1,1.935.274,2.245,2.245,0,0,1,.937,2.7" transform="translate(-560.432 -161.591)" fill="#3d3d3d"/>
      <ellipse id="Ellipse_123" data-name="Ellipse 123" cx="32.264" cy="32.264" rx="32.264" ry="32.264" transform="translate(21.51 29.96)" fill="#d82225"/>
      <path id="Path_1151" data-name="Path 1151" d="M605.706,194.048c.713-.041.865-.023,1.589-.023a36.787,36.787,0,0,1,27.6,12.427,3.169,3.169,0,0,0,2.163,1.438,2.659,2.659,0,0,0,2.185-.757l.525-.446a21.891,21.891,0,1,0-36.7-16.118,4.336,4.336,0,0,0,.22,1.836,2.544,2.544,0,0,0,2.416,1.643" transform="translate(-553.521 -168.675)" fill="#262626"/>
      <path id="Path_1152" data-name="Path 1152" d="M637.76,242.273q.282.376.54.773A14.6,14.6,0,1,1,613.6,258.591c-.117-.192-.224-.39-.339-.585a1.949,1.949,0,0,1-.26-1.859,2.085,2.085,0,0,1,1.727-1.264,11.294,11.294,0,0,0,1.2-.324,36.888,36.888,0,0,0,17.74-11.4c.231-.268.447-.55.681-.816a2.41,2.41,0,0,1,1.085-.919,1.9,1.9,0,0,1,1.669.185A2.263,2.263,0,0,1,637.76,242.273Z" transform="translate(-551.93 -156.896)" fill="#3d3d3d"/>
    </g>
    <path id="Path_4531" data-name="Path 4531" d="M0,0V102.834" transform="translate(1155.195 691.697) rotate(180)" fill="none" stroke="#cccdd7" stroke-linecap="round" stroke-width="3" stroke-dasharray="1 10"/>
    <g transform="matrix(1, 0, 0, 1, 895.19, -14.65)" filter="url(#Path_4532)">
      <path id="Path_4532-2" data-name="Path 4532" d="M5.669,0H44.331A5.669,5.669,0,0,1,50,5.669V44.331A5.669,5.669,0,0,1,44.331,50H5.669A5.669,5.669,0,0,1,0,44.331V5.669A5.669,5.669,0,0,1,5.669,0Z" transform="translate(285.44 751.12) rotate(180)" fill="#fff" stroke="#b4bbc6" stroke-width="1"/>
    </g>
    <path id="Path_4743" data-name="Path 4743" d="M0,0H146.894" transform="translate(1155.238 172.722) rotate(90)" fill="none" stroke="#cccdd7" stroke-linecap="round" stroke-width="3" stroke-dasharray="1 10"/>
    <path id="Path_4744" data-name="Path 4744" d="M60.648,0,53.231,5.45c-11.837,18.2-8.606,17.262-12.358,31.207l-6.6,38.252C29.695,88,21.861,85.457,14.742,85.457H0" transform="translate(1155.239 172.941) rotate(90)" fill="none" stroke="#cccdd7" stroke-linecap="round" stroke-miterlimit="10" stroke-width="3" stroke-dasharray="1 10"/>
    <path id="Path_4745" data-name="Path 4745" d="M60.648,86.409l-7.417-5.5C41.394,62.554,44.625,63.5,40.873,49.429l-6.6-38.588C29.694-2.361,21.861.2,14.742.2H0" transform="translate(1241.165 172.941) rotate(90)" fill="none" stroke="#cccdd7" stroke-linecap="round" stroke-miterlimit="10" stroke-width="3" stroke-dasharray="1 10"/>
    <path id="Path_4746" data-name="Path 4746" d="M2.341,5.812v.01l0-.025L3.789.516h.962l1.458,5.3,0,.035,0-.05L7.359.516H8.545L6.829,7.736h-1.1L4.29,2.554H4.26L2.812,7.736h-1.1L0,.516H1.185ZM12.477,7.736q-.064-.2-.107-.4a2.836,2.836,0,0,1-.057-.387,2.129,2.129,0,0,1-.652.632,1.659,1.659,0,0,1-.905.255,1.784,1.784,0,0,1-1.287-.431,1.567,1.567,0,0,1-.449-1.185,1.4,1.4,0,0,1,.615-1.213,2.969,2.969,0,0,1,1.731-.434H12.3V4.106a.871.871,0,0,0-.248-.66.984.984,0,0,0-.709-.238,1,1,0,0,0-.655.2.63.63,0,0,0-.243.511H9.288l0-.03a1.329,1.329,0,0,1,.568-1.126,2.406,2.406,0,0,1,1.57-.491,2.3,2.3,0,0,1,1.513.476,1.676,1.676,0,0,1,.575,1.369V6.5a4.4,4.4,0,0,0,.045.637,3.384,3.384,0,0,0,.144.6ZM11,6.873a1.515,1.515,0,0,0,.821-.228,1.149,1.149,0,0,0,.484-.521V5.331h-.957a1.208,1.208,0,0,0-.823.26.791.791,0,0,0-.3.612.625.625,0,0,0,.2.488A.827.827,0,0,0,11,6.873Zm6.447-3.417-.516-.02a1.081,1.081,0,0,0-.588.149.98.98,0,0,0-.364.422V7.736H14.773V2.37h1.1l.079.779a1.721,1.721,0,0,1,.523-.645,1.218,1.218,0,0,1,.736-.233,1.123,1.123,0,0,1,.2.017,1.485,1.485,0,0,1,.174.042ZM20.59,7.84a2.333,2.333,0,0,1-1.818-.746A2.743,2.743,0,0,1,18.1,5.177v-.2a2.849,2.849,0,0,1,.672-1.941,2.125,2.125,0,0,1,1.684-.766,2.1,2.1,0,0,1,1.664.657,2.574,2.574,0,0,1,.578,1.763V5.4H19.345l-.01.025a1.69,1.69,0,0,0,.374,1.046,1.184,1.184,0,0,0,.955.407,2.58,2.58,0,0,0,.833-.119,2.73,2.73,0,0,0,.669-.342l.387.788a2.5,2.5,0,0,1-.8.451A3.366,3.366,0,0,1,20.59,7.84Zm-.139-4.6a.9.9,0,0,0-.734.355,1.746,1.746,0,0,0-.357.9l.01.025H21.5V4.394a1.284,1.284,0,0,0-.26-.833A.95.95,0,0,0,20.451,3.238Zm4.4-.174a1.913,1.913,0,0,1,.652-.585,1.756,1.756,0,0,1,.85-.208,1.69,1.69,0,0,1,1.332.538,2.442,2.442,0,0,1,.479,1.659V7.736H26.963V4.458a1.359,1.359,0,0,0-.253-.917.966.966,0,0,0-.759-.283,1.345,1.345,0,0,0-.632.146,1.3,1.3,0,0,0-.464.4V7.736H23.65V0h1.205ZM29.194,5a2.923,2.923,0,0,1,.655-1.964,2.5,2.5,0,0,1,3.61,0A2.9,2.9,0,0,1,34.119,5v.1a2.912,2.912,0,0,1-.66,1.974,2.521,2.521,0,0,1-3.61,0,2.918,2.918,0,0,1-.655-1.969Zm1.205.1a2.4,2.4,0,0,0,.307,1.279,1.159,1.159,0,0,0,1.894,0,2.337,2.337,0,0,0,.317-1.279V5A2.307,2.307,0,0,0,32.6,3.739a1.146,1.146,0,0,0-1.894,0A2.381,2.381,0,0,0,30.4,5Zm8.113,1.845a1.836,1.836,0,0,1-.64.657,1.9,1.9,0,0,1-2.242-.32,2.535,2.535,0,0,1-.486-1.711V2.37h1.2V5.589a1.608,1.608,0,0,0,.228.987.833.833,0,0,0,.689.283,1.55,1.55,0,0,0,.731-.156,1.134,1.134,0,0,0,.464-.454V2.37h1.205V7.736H38.612Zm5.425-.674a.56.56,0,0,0-.238-.461,2.374,2.374,0,0,0-.888-.322,3.685,3.685,0,0,1-1.456-.578A1.211,1.211,0,0,1,40.863,3.9a1.45,1.45,0,0,1,.57-1.151,2.268,2.268,0,0,1,1.5-.476,2.353,2.353,0,0,1,1.56.484,1.432,1.432,0,0,1,.553,1.2l-.01.03H43.883a.756.756,0,0,0-.253-.57.972.972,0,0,0-.694-.238.993.993,0,0,0-.665.2.608.608,0,0,0-.228.479.537.537,0,0,0,.216.449,2.316,2.316,0,0,0,.875.3,3.688,3.688,0,0,1,1.5.588,1.239,1.239,0,0,1,.488,1.034,1.406,1.406,0,0,1-.6,1.175,2.546,2.546,0,0,1-1.575.451A2.4,2.4,0,0,1,41.3,7.3a1.513,1.513,0,0,1-.575-1.23l.01-.03h1.121a.8.8,0,0,0,.337.679,1.355,1.355,0,0,0,.774.213,1.236,1.236,0,0,0,.719-.179A.56.56,0,0,0,43.938,6.278ZM48.505,7.84a2.333,2.333,0,0,1-1.818-.746,2.743,2.743,0,0,1-.677-1.917v-.2a2.849,2.849,0,0,1,.672-1.941,2.125,2.125,0,0,1,1.684-.766,2.1,2.1,0,0,1,1.664.657,2.574,2.574,0,0,1,.578,1.763V5.4H47.26l-.01.025a1.69,1.69,0,0,0,.374,1.046,1.184,1.184,0,0,0,.955.407,2.58,2.58,0,0,0,.833-.119,2.73,2.73,0,0,0,.669-.342l.387.788a2.5,2.5,0,0,1-.8.451A3.366,3.366,0,0,1,48.505,7.84Zm-.139-4.6a.9.9,0,0,0-.734.355,1.746,1.746,0,0,0-.357.9l.01.025h2.127V4.394a1.284,1.284,0,0,0-.26-.833A.95.95,0,0,0,48.366,3.238Z" transform="translate(1215.52 112.891)" fill="#b4bbc6" opacity="0.604"/>
    <g transform="matrix(1, 0, 0, 1, 895.19, -14.65)" filter="url(#Path_4747)">
      <path id="Path_4747-2" data-name="Path 4747" d="M4.113,0H46.669a4.113,4.113,0,0,1,4.113,4.113V46.669a4.113,4.113,0,0,1-4.113,4.113H4.113A4.113,4.113,0,0,1,0,46.669V4.113A4.113,4.113,0,0,1,4.113,0Z" transform="translate(320.31 144.79)" fill="#fff" stroke="#b4bbc6" stroke-width="1"/>
    </g>
    <g id="Group_3701" data-name="Group 3701" transform="translate(1227.724 142.606)">
      <g id="Group_2978" data-name="Group 2978" transform="translate(10.764 2.811)">
        <path id="Path_3624" data-name="Path 3624" d="M2.725,0A2.725,2.725,0,1,0,5.449,2.725,2.728,2.728,0,0,0,2.725,0Zm0,4.607A1.882,1.882,0,1,1,4.606,2.725,1.884,1.884,0,0,1,2.725,4.607Z" fill="#526279" stroke="#526279" stroke-width="0.5"/>
      </g>
      <g id="Group_2979" data-name="Group 2979" transform="translate(17.376 7.418)">
        <path id="Path_3625" data-name="Path 3625" d="M1.264,0H.421a.422.422,0,0,0,0,.843h.843a.422.422,0,1,0,0-.843Z" fill="#526279" stroke="#526279" stroke-width="0.5"/>
      </g>
      <g id="Group_2980" data-name="Group 2980" transform="translate(20.327 7.418)">
        <path id="Path_3626" data-name="Path 3626" d="M1.264,0H.421a.422.422,0,0,0,0,.843h.843a.422.422,0,1,0,0-.843Z" fill="#526279" stroke="#526279" stroke-width="0.5"/>
      </g>
      <g id="Group_2981" data-name="Group 2981" transform="translate(4.964 7.418)">
        <path id="Path_3627" data-name="Path 3627" d="M1.264,0H.422a.422.422,0,1,0,0,.843h.843a.422.422,0,1,0,0-.843Z" fill="#526279" stroke="#526279" stroke-width="0.5"/>
      </g>
      <g id="Group_2982" data-name="Group 2982" transform="translate(7.915 7.418)">
        <path id="Path_3628" data-name="Path 3628" d="M1.264,0H.422a.422.422,0,1,0,0,.843h.843a.422.422,0,1,0,0-.843Z" fill="#526279" stroke="#526279" stroke-width="0.5"/>
      </g>
      <g id="Group_2983" data-name="Group 2983" transform="translate(7.033 19.095)">
        <path id="Path_3629" data-name="Path 3629" d="M5.613,0H.422A.422.422,0,0,0,0,.422V4.7a.422.422,0,0,0,.422.422H5.613A.421.421,0,0,0,6.035,4.7V.422A.421.421,0,0,0,5.613,0ZM5.191,4.275H.843V.843H2.6v.663a.422.422,0,0,0,.843,0V.843H5.191Z" fill="#526279" stroke="#526279" stroke-width="0.5"/>
      </g>
      <g id="Group_2984" data-name="Group 2984" transform="translate(13.91 19.095)">
        <path id="Path_3630" data-name="Path 3630" d="M5.613,0H.422A.422.422,0,0,0,0,.422V4.7a.422.422,0,0,0,.422.422H5.613A.421.421,0,0,0,6.034,4.7V.422A.422.422,0,0,0,5.613,0ZM5.191,4.275H.843V.843H2.6v.663a.422.422,0,0,0,.843,0V.843H5.191Z" fill="#526279" stroke="#526279" stroke-width="0.5"/>
      </g>
      <g id="Group_2985" data-name="Group 2985" transform="translate(13.91 13.254)">
        <path id="Path_3631" data-name="Path 3631" d="M5.613,0H.422A.422.422,0,0,0,0,.421V4.7a.422.422,0,0,0,.422.422H5.613A.422.422,0,0,0,6.034,4.7V.421A.421.421,0,0,0,5.613,0ZM5.191,4.275H.843V.843H2.6v.663a.422.422,0,0,0,.843,0V.843H5.191Z" fill="#526279" stroke="#526279" stroke-width="0.5"/>
      </g>
      <g id="Group_2986" data-name="Group 2986">
        <path id="Path_3632" data-name="Path 3632" d="M26.557,25.109H25.541V7.908l.8.466a.422.422,0,0,0,.423-.729L13.7.057a.422.422,0,0,0-.423,0L.21,7.645a.422.422,0,0,0,.423.729l.806-.468v17.2H.423a.421.421,0,1,0,0,.843H26.557a.421.421,0,1,0,0-.843Zm-20.269,0V12.358h14.4V25.109ZM4.964,11.515V10.25H22.013v1.265ZM21.532,25.109V12.358h.9a.421.421,0,0,0,.421-.422V9.829a.421.421,0,0,0-.421-.421H4.543a.421.421,0,0,0-.421.421v2.108a.421.421,0,0,0,.421.422h.9V25.109H2.282V7.417L13.489.909,24.7,7.418V25.109Z" fill="#526279" stroke="#526279" stroke-width="0.5"/>
      </g>
    </g>
    <g transform="matrix(1, 0, 0, 1, 895.19, -14.65)" filter="url(#Path_4748)">
      <path id="Path_4748-2" data-name="Path 4748" d="M4.113,0H46.669a4.113,4.113,0,0,1,4.113,4.113V46.669a4.113,4.113,0,0,1-4.113,4.113H4.113A4.113,4.113,0,0,1,0,46.669V4.113A4.113,4.113,0,0,1,4.113,0Z" transform="translate(234.86 144.77)" fill="#fff" stroke="#b4bbc6" stroke-width="1"/>
    </g>
    <path id="Path_4749" data-name="Path 4749" d="M4.364,3.972H1.205V6.258H4.87V7.22H0V0H4.835V.967H1.205V3.005H4.364Zm2.728.253v3H5.886V0H8.554a2.858,2.858,0,0,1,1.87.546,1.906,1.906,0,0,1,.66,1.557,1.61,1.61,0,0,1-.29.965,1.991,1.991,0,0,1-.846.647,1.51,1.51,0,0,1,.878.632,2.035,2.035,0,0,1,.268,1.079v.6a2.433,2.433,0,0,0,.079.62.871.871,0,0,0,.268.461V7.22H10.2A.808.808,0,0,1,9.945,6.7a4.308,4.308,0,0,1-.057-.689v-.58a1.214,1.214,0,0,0-.317-.883A1.159,1.159,0,0,0,8.7,4.225Zm0-.967h1.4A1.635,1.635,0,0,0,9.546,2.98a1.043,1.043,0,0,0,.332-.848,1.122,1.122,0,0,0-.327-.855,1.4,1.4,0,0,0-1-.31H7.092Zm6.725,1.225V7.22H12.611V0h2.822A2.675,2.675,0,0,1,17.3.617a2.094,2.094,0,0,1,.677,1.624A2.09,2.09,0,0,1,17.3,3.871a2.689,2.689,0,0,1-1.872.612Zm0-.967h1.617a1.321,1.321,0,0,0,1.007-.357,1.269,1.269,0,0,0,.337-.908,1.3,1.3,0,0,0-.337-.917A1.3,1.3,0,0,0,15.433.967H13.816Z" transform="translate(1146.646 113.667)" fill="#b4bbc6" opacity="0.604"/>
    <g id="Group_3702" data-name="Group 3702" transform="translate(1143.809 145.072)">
      <path id="Path_3617" data-name="Path 3617" d="M21.751,0l1.517,3.541V5.564H0V3.541L1.517,0" transform="translate(0 15.324)" fill="none" stroke="#526279" stroke-linecap="round" stroke-linejoin="round" stroke-width="1.5"/>
      <path id="Path_3618" data-name="Path 3618" d="M0,2.023V1.012L1.012,0H4.068l.991,1.012V2.023" transform="translate(9.105 18.865)" fill="none" stroke="#526279" stroke-linecap="round" stroke-linejoin="round" stroke-width="1.5"/>
      <path id="Path_3619" data-name="Path 3619" d="M20.233,5.564v9.611H0V.5A.5.5,0,0,1,.5,0H14.669" transform="translate(1.517 0.149)" fill="none" stroke="#526279" stroke-linecap="round" stroke-linejoin="round" stroke-width="1.5"/>
      <path id="Path_3620" data-name="Path 3620" d="M0,9.611l6.576-6.07,5.058,1.517L16.692,0" transform="translate(5.058 0.149)" fill="none" stroke="#526279" stroke-linecap="round" stroke-linejoin="round" stroke-width="1.5"/>
      <line id="Line_64" data-name="Line 64" x1="2.902" transform="translate(18.889)" fill="none" stroke="#526279" stroke-linecap="round" stroke-linejoin="round" stroke-width="1.5"/>
      <line id="Line_65" data-name="Line 65" x2="0.004" y2="2.52" transform="translate(21.747 0.158)" fill="none" stroke="#526279" stroke-linecap="round" stroke-linejoin="round" stroke-width="1.5"/>
      <path id="Path_3621" data-name="Path 3621" d="M3.035,2.529V0H0V2.529" transform="translate(4.552 12.795)" fill="none" stroke="#526279" stroke-linecap="round" stroke-linejoin="round" stroke-width="1.5"/>
      <path id="Path_3622" data-name="Path 3622" d="M3.035,4.047V0H0V4.047" transform="translate(10.117 11.278)" fill="none" stroke="#526279" stroke-linecap="round" stroke-linejoin="round" stroke-width="1.5"/>
      <path id="Path_3623" data-name="Path 3623" d="M3.035,6.07V0H0V6.07" transform="translate(15.681 9.254)" fill="none" stroke="#526279" stroke-linecap="round" stroke-linejoin="round" stroke-width="1.5"/>
    </g>
    <g transform="matrix(1, 0, 0, 1, 895.19, -14.65)" filter="url(#Path_4750)">
      <path id="Path_4750-2" data-name="Path 4750" d="M4.113,0H46.669a4.113,4.113,0,0,1,4.113,4.113V46.669a4.113,4.113,0,0,1-4.113,4.113H4.113A4.113,4.113,0,0,1,0,46.669V4.113A4.113,4.113,0,0,1,4.113,0Z" transform="translate(149 144)" fill="#fff" stroke="#b4bbc6" stroke-width="1"/>
    </g>
    <path id="Path_4751" data-name="Path 4751" d="M1.205,4.483V7.22H0V0H2.822A2.675,2.675,0,0,1,4.694.617a2.094,2.094,0,0,1,.677,1.624,2.09,2.09,0,0,1-.677,1.629,2.689,2.689,0,0,1-1.872.612Zm0-.967H2.822a1.321,1.321,0,0,0,1.007-.357,1.269,1.269,0,0,0,.337-.908,1.3,1.3,0,0,0-.337-.917A1.3,1.3,0,0,0,2.822.967H1.205Zm6.63,3.7H6.63V0H7.835ZM11.044,0l2.078,5.554h.03L15.234,0H16.8V7.22H15.591V4.761l.119-3.129-.03,0L13.538,7.22H12.73L10.6,1.641l-.03,0,.119,3.114V7.22H9.482V0Z" transform="translate(1061.182 112.891)" fill="#b4bbc6" opacity="0.604"/>
    <g id="Group_3703" data-name="Group 3703" transform="translate(1056.154 145.597)">
      <g id="Group_3032" data-name="Group 3032">
        <g id="Group_3031" data-name="Group 3031">
          <path id="Path_3669" data-name="Path 3669" d="M25.722,18.1A1.709,1.709,0,0,1,24.014,19.8H2.845A1.709,1.709,0,0,1,1.138,18.1V2.845A1.709,1.709,0,0,1,2.845,1.138H24.014a1.709,1.709,0,0,1,1.707,1.707ZM26.86,2.845A2.848,2.848,0,0,0,24.014,0H2.845A2.849,2.849,0,0,0,0,2.845V18.1a2.848,2.848,0,0,0,2.845,2.845H24.014A2.848,2.848,0,0,0,26.86,18.1Z" fill="#526279"/>
        </g>
      </g>
      <g id="Group_3034" data-name="Group 3034" transform="translate(0.669 11.95)">
        <path id="Path_3671" data-name="Path 3671" d="M.971,8.155,8.156.972a.57.57,0,0,1-.8,0l7.341,7.341h0a.569.569,0,0,0,.8-.805h0L8.155.167a.568.568,0,0,0-.8,0L.167,7.351h0a.569.569,0,0,0,.8.8Z" fill="#526279"/>
      </g>
      <g id="Group_3037" data-name="Group 3037" transform="translate(6.829 3.87)">
        <path id="Path_3674" data-name="Path 3674" d="M2.9,1.138A1.764,1.764,0,1,1,1.138,2.9,1.766,1.766,0,0,1,2.9,1.138ZM0,2.9A2.9,2.9,0,1,0,2.9,0,2.906,2.906,0,0,0,0,2.9Z" fill="#526279"/>
      </g>
      <g id="Group_3038" data-name="Group 3038" transform="translate(11.381 8.536)">
        <path id="Path_3675" data-name="Path 3675" d="M14.341,9.561a1.58,1.58,0,0,1-1.872,1.731.573.573,0,0,1,.165-.024H4.894a.568.568,0,0,1,.4.168L.972,7.109a.57.57,0,0,1,0,.805L7.914.972a.569.569,0,0,1-.8,0l7.4,7.4a.566.566,0,0,1-.167-.4Zm.971-2-7.4-7.4a.569.569,0,0,0-.8,0L.167,7.109a.569.569,0,0,0,0,.805l4.325,4.324a.565.565,0,0,0,.4.167h7.739a.547.547,0,0,0,.164-.024,2.586,2.586,0,0,0,2.681-2.821V7.967A.565.565,0,0,0,15.312,7.565Z" fill="#526279"/>
      </g>
    </g>
    <path id="Path_4771" data-name="Path 4771" d="M-31.309-1.895v.01l0-.024,1.421-5.2h.947L-27.5-1.895l0,.034,0-.049,1.123-5.2H-25.2L-26.89,0h-1.079L-29.39-5.1h-.029L-30.845,0h-1.084l-1.685-7.109h1.167Zm6.592-.8a2.878,2.878,0,0,1,.645-1.934A2.222,2.222,0,0,1-22.3-5.381a2.216,2.216,0,0,1,1.782.757,2.853,2.853,0,0,1,.649,1.934v.1a2.867,2.867,0,0,1-.649,1.943A2.218,2.218,0,0,1-22.29.1a2.231,2.231,0,0,1-1.782-.752,2.874,2.874,0,0,1-.645-1.938Zm1.187.1a2.359,2.359,0,0,0,.3,1.26,1.021,1.021,0,0,0,.938.483,1.026,1.026,0,0,0,.928-.483,2.3,2.3,0,0,0,.313-1.26v-.1a2.271,2.271,0,0,0-.312-1.245,1.029,1.029,0,0,0-.937-.493,1.021,1.021,0,0,0-.928.493,2.344,2.344,0,0,0-.3,1.245Zm4.478-.1a2.878,2.878,0,0,1,.645-1.934,2.222,2.222,0,0,1,1.772-.757,2.216,2.216,0,0,1,1.782.757A2.853,2.853,0,0,1-14.2-2.69v.1a2.867,2.867,0,0,1-.649,1.943A2.218,2.218,0,0,1-16.626.1a2.231,2.231,0,0,1-1.782-.752,2.874,2.874,0,0,1-.645-1.938Zm1.187.1a2.359,2.359,0,0,0,.3,1.26,1.021,1.021,0,0,0,.938.483,1.026,1.026,0,0,0,.928-.483,2.3,2.3,0,0,0,.313-1.26v-.1A2.271,2.271,0,0,0-15.7-3.936a1.029,1.029,0,0,0-.937-.493,1.021,1.021,0,0,0-.928.493,2.344,2.344,0,0,0-.3,1.245Zm6.88,1.743a1.084,1.084,0,0,0,.732-.256.812.812,0,0,0,.3-.642h1.074l.01.029a1.56,1.56,0,0,1-.6,1.279A2.246,2.246,0,0,1-10.986.1a2.191,2.191,0,0,1-1.79-.752,2.886,2.886,0,0,1-.623-1.9v-.171a2.888,2.888,0,0,1,.623-1.9,2.188,2.188,0,0,1,1.79-.754,2.173,2.173,0,0,1,1.545.554,1.784,1.784,0,0,1,.574,1.409l-.01.029H-9.956a1.035,1.035,0,0,0-.286-.737.977.977,0,0,0-.745-.3,1,1,0,0,0-.947.486,2.422,2.422,0,0,0-.278,1.218v.171a2.427,2.427,0,0,0,.278,1.228A1,1,0,0,0-10.986-.845ZM-8.14-2.69A2.878,2.878,0,0,1-7.5-4.624a2.222,2.222,0,0,1,1.772-.757,2.216,2.216,0,0,1,1.782.757A2.853,2.853,0,0,1-3.291-2.69v.1A2.867,2.867,0,0,1-3.94-.645,2.218,2.218,0,0,1-5.713.1,2.231,2.231,0,0,1-7.5-.649,2.874,2.874,0,0,1-8.14-2.588Zm1.187.1a2.359,2.359,0,0,0,.3,1.26,1.021,1.021,0,0,0,.938.483,1.026,1.026,0,0,0,.928-.483,2.3,2.3,0,0,0,.313-1.26v-.1a2.271,2.271,0,0,0-.312-1.245,1.029,1.029,0,0,0-.937-.493,1.021,1.021,0,0,0-.928.493,2.344,2.344,0,0,0-.3,1.245Zm5.781-2.7.063.688a1.791,1.791,0,0,1,.649-.581,1.915,1.915,0,0,1,.9-.205,1.63,1.63,0,0,1,.889.234,1.417,1.417,0,0,1,.557.7,1.851,1.851,0,0,1,.645-.688,1.738,1.738,0,0,1,.938-.249,1.562,1.562,0,0,1,1.257.544A2.51,2.51,0,0,1,5.19-3.184V0H4V-3.188a1.483,1.483,0,0,0-.232-.947.862.862,0,0,0-.7-.273,1.018,1.018,0,0,0-.645.205,1.143,1.143,0,0,0-.381.552q0,.073,0,.127t0,.1V0H.874V-3.188a1.467,1.467,0,0,0-.237-.935.852.852,0,0,0-.7-.286,1.249,1.249,0,0,0-.613.139,1.026,1.026,0,0,0-.4.393V0H-2.256V-5.283Zm8.7,0,.063.688a1.791,1.791,0,0,1,.649-.581,1.915,1.915,0,0,1,.9-.205,1.63,1.63,0,0,1,.889.234,1.417,1.417,0,0,1,.557.7,1.851,1.851,0,0,1,.645-.688,1.738,1.738,0,0,1,.938-.249,1.562,1.562,0,0,1,1.257.544,2.51,2.51,0,0,1,.461,1.653V0H12.7V-3.188a1.483,1.483,0,0,0-.232-.947.862.862,0,0,0-.7-.273,1.018,1.018,0,0,0-.645.205,1.143,1.143,0,0,0-.381.552q0,.073,0,.127t0,.1V0H9.57V-3.188a1.467,1.467,0,0,0-.237-.935.852.852,0,0,0-.7-.286,1.249,1.249,0,0,0-.613.139,1.026,1.026,0,0,0-.4.393V0H6.44V-5.283ZM17.4.1a2.3,2.3,0,0,1-1.79-.735,2.7,2.7,0,0,1-.667-1.887v-.2a2.8,2.8,0,0,1,.662-1.912,2.093,2.093,0,0,1,1.658-.754,2.065,2.065,0,0,1,1.638.647A2.535,2.535,0,0,1,19.473-3v.7h-3.3l-.01.024a1.664,1.664,0,0,0,.369,1.03,1.166,1.166,0,0,0,.94.4,2.541,2.541,0,0,0,.82-.117,2.688,2.688,0,0,0,.659-.337l.381.776a2.458,2.458,0,0,1-.791.444A3.314,3.314,0,0,1,17.4.1Zm-.137-4.531a.89.89,0,0,0-.723.349,1.719,1.719,0,0,0-.352.886l.01.024H18.3v-.122a1.264,1.264,0,0,0-.256-.82A.936.936,0,0,0,17.266-4.429Zm5.8.215-.508-.02a1.064,1.064,0,0,0-.579.146.965.965,0,0,0-.359.415V0H20.43V-5.283h1.084l.078.767a1.694,1.694,0,0,1,.515-.635,1.2,1.2,0,0,1,.725-.229,1.106,1.106,0,0,1,.2.017,1.462,1.462,0,0,1,.171.042ZM26.074-.845a1.084,1.084,0,0,0,.732-.256.812.812,0,0,0,.3-.642h1.074l.01.029a1.56,1.56,0,0,1-.6,1.279A2.246,2.246,0,0,1,26.074.1a2.191,2.191,0,0,1-1.79-.752,2.886,2.886,0,0,1-.623-1.9v-.171a2.888,2.888,0,0,1,.623-1.9,2.188,2.188,0,0,1,1.79-.754,2.173,2.173,0,0,1,1.545.554,1.784,1.784,0,0,1,.574,1.409l-.01.029H27.1a1.035,1.035,0,0,0-.286-.737.977.977,0,0,0-.745-.3,1,1,0,0,0-.947.486,2.422,2.422,0,0,0-.278,1.218v.171a2.427,2.427,0,0,0,.278,1.228A1,1,0,0,0,26.074-.845ZM31.406.1a2.3,2.3,0,0,1-1.79-.735A2.7,2.7,0,0,1,28.95-2.52v-.2a2.8,2.8,0,0,1,.662-1.912,2.093,2.093,0,0,1,1.658-.754,2.065,2.065,0,0,1,1.638.647A2.535,2.535,0,0,1,33.477-3v.7h-3.3l-.01.024a1.664,1.664,0,0,0,.369,1.03,1.166,1.166,0,0,0,.94.4,2.541,2.541,0,0,0,.82-.117,2.688,2.688,0,0,0,.659-.337l.381.776a2.458,2.458,0,0,1-.791.444A3.314,3.314,0,0,1,31.406.1ZM31.27-4.429a.89.89,0,0,0-.723.349,1.719,1.719,0,0,0-.352.886l.01.024H32.3v-.122a1.264,1.264,0,0,0-.256-.82A.936.936,0,0,0,31.27-4.429Z" transform="translate(1155.264 760.575)" fill="#b4bbc6"/>
    <g id="Group_3724" data-name="Group 3724" transform="translate(1137.294 703.04)">
      <path id="Path_1420" data-name="Path 1420" d="M3.378,0H33.006A3.391,3.391,0,0,1,36.4,3.393V14.7A3.391,3.391,0,0,1,33.006,18.1H22.381l1.458,3.571L17.426,18.1H3.393A3.391,3.391,0,0,1,0,14.7V3.393A3.379,3.379,0,0,1,3.378,0Z" transform="translate(0)" fill="#9b5c8f"/>
      <path id="Path_1421" data-name="Path 1421" d="M13.041,15.2a1.19,1.19,0,0,1,.932-.459,1.081,1.081,0,0,1,1.287,1.065q.688,4.639,1.494,7.857L20,17.5a1.4,1.4,0,0,1,1.11-.888c.651-.044,1.05.37,1.213,1.243a27.647,27.647,0,0,0,1.406,5.06q.577-5.637,1.953-8.138a1.136,1.136,0,0,1,.977-.651,1.285,1.285,0,0,1,.932.3,1.159,1.159,0,0,1,.459.843,1.285,1.285,0,0,1-.148.71,17.914,17.914,0,0,0-1.435,5.341,27.566,27.566,0,0,0-.414,5.637,1.757,1.757,0,0,1-.177.977.954.954,0,0,1-.784.533,1.488,1.488,0,0,1-1.169-.548,14.648,14.648,0,0,1-3.27-6.3q-1.443,2.841-2.131,4.261c-.873,1.672-1.613,2.53-2.234,2.575-.4.03-.74-.311-1.036-1.021A64.108,64.108,0,0,1,12.8,16.195,1.26,1.26,0,0,1,13.041,15.2Zm31.8,2.323a3.407,3.407,0,0,0-2.367-1.716,3.888,3.888,0,0,0-.8-.089,3.99,3.99,0,0,0-3.477,2.219,7.839,7.839,0,0,0-1.154,4.172,5.729,5.729,0,0,0,.71,2.93,3.407,3.407,0,0,0,2.367,1.716,3.877,3.877,0,0,0,.8.089,3.956,3.956,0,0,0,3.477-2.219,7.929,7.929,0,0,0,1.154-4.187A5.46,5.46,0,0,0,44.838,17.526Zm-1.864,4.1a3.914,3.914,0,0,1-1.125,2.19,1.423,1.423,0,0,1-1.2.474c-.355-.074-.651-.385-.873-.962a3.755,3.755,0,0,1-.266-1.346,5.147,5.147,0,0,1,.1-1.08,4.786,4.786,0,0,1,.784-1.761c.488-.725,1.006-1.021,1.539-.917.355.074.651.385.873.962a3.755,3.755,0,0,1,.266,1.346A5.2,5.2,0,0,1,42.974,21.625Zm-7.4-4.1a3.438,3.438,0,0,0-2.367-1.716,3.887,3.887,0,0,0-.8-.089,3.99,3.99,0,0,0-3.477,2.219,7.84,7.84,0,0,0-1.154,4.172,5.729,5.729,0,0,0,.71,2.93,3.407,3.407,0,0,0,2.367,1.716,3.876,3.876,0,0,0,.8.089,3.956,3.956,0,0,0,3.477-2.219,7.928,7.928,0,0,0,1.154-4.187A5.6,5.6,0,0,0,35.576,17.526Zm-1.879,4.1a3.914,3.914,0,0,1-1.125,2.19,1.423,1.423,0,0,1-1.2.474c-.355-.074-.651-.385-.873-.962a3.755,3.755,0,0,1-.266-1.346,5.147,5.147,0,0,1,.1-1.08,4.784,4.784,0,0,1,.784-1.761c.488-.725,1.006-1.021,1.539-.917.355.074.651.385.873.962A3.754,3.754,0,0,1,33.8,20.53a4.367,4.367,0,0,1-.1,1.095Z" transform="translate(-10.969 -12.111)" fill="#fff"/>
    </g>
  </g>
</svg>
