<svg xmlns="http://www.w3.org/2000/svg" xmlns:xlink="http://www.w3.org/1999/xlink" width="558" height="910.803" viewBox="0 0 558 910.803">
  <defs>
    <filter id="Path_4536" x="0" y="0" width="348" height="348" filterUnits="userSpaceOnUse">
      <feOffset dy="5" input="SourceAlpha"/>
      <feGaussianBlur stdDeviation="49.5" result="blur"/>
      <feFlood flood-color="#3c485a" flood-opacity="0.102"/>
      <feComposite operator="in" in2="blur"/>
      <feComposite in="SourceGraphic"/>
    </filter>
    <filter id="Path_4537" x="70" y="0" width="348" height="348" filterUnits="userSpaceOnUse">
      <feOffset dy="5" input="SourceAlpha"/>
      <feGaussianBlur stdDeviation="49.5" result="blur-2"/>
      <feFlood flood-color="#3c485a" flood-opacity="0.102"/>
      <feComposite operator="in" in2="blur-2"/>
      <feComposite in="SourceGraphic"/>
    </filter>
    <filter id="Path_4538" x="140" y="0" width="348" height="348" filterUnits="userSpaceOnUse">
      <feOffset dy="5" input="SourceAlpha"/>
      <feGaussianBlur stdDeviation="49.5" result="blur-3"/>
      <feFlood flood-color="#3c485a" flood-opacity="0.102"/>
      <feComposite operator="in" in2="blur-3"/>
      <feComposite in="SourceGraphic"/>
    </filter>
    <filter id="Path_4539" x="210" y="0" width="348" height="348" filterUnits="userSpaceOnUse">
      <feOffset dy="5" input="SourceAlpha"/>
      <feGaussianBlur stdDeviation="49.5" result="blur-4"/>
      <feFlood flood-color="#3c485a" flood-opacity="0.102"/>
      <feComposite operator="in" in2="blur-4"/>
      <feComposite in="SourceGraphic"/>
    </filter>
    <filter id="Path_4534" x="30.711" y="249.41" width="499.074" height="499.074" filterUnits="userSpaceOnUse">
      <feOffset dy="20" input="SourceAlpha"/>
      <feGaussianBlur stdDeviation="49.5" result="blur-5"/>
      <feFlood flood-color="#3c485a" flood-opacity="0.149"/>
      <feComposite operator="in" in2="blur-5"/>
      <feComposite in="SourceGraphic"/>
    </filter>
    <filter id="Path_4532" x="105.439" y="562.803" width="348" height="348" filterUnits="userSpaceOnUse">
      <feOffset dy="5" input="SourceAlpha"/>
      <feGaussianBlur stdDeviation="49.5" result="blur-6"/>
      <feFlood flood-color="#3c485a" flood-opacity="0.102"/>
      <feComposite operator="in" in2="blur-6"/>
      <feComposite in="SourceGraphic"/>
    </filter>
  </defs>
  <g id="Group_3559" data-name="Group 3559" transform="translate(120 -2504.111)">
    <path id="Path_3773" data-name="Path 3773" d="M865.252,140.935l-18.486-2.121c-29.5-7.08-21.451-6.717-30.8-12.143l-16.441-14.884c-11.422-5.092-30.948-4.1-48.693-4.1H714.085" transform="translate(302.871 1959.027) rotate(90)" fill="none" stroke="#cccdd7" stroke-linecap="round" stroke-miterlimit="10" stroke-width="3" stroke-dasharray="1 10"/>
    <path id="Path_3774" data-name="Path 3774" d="M865.251,107.607l-18.486,2.127c-29.5,7.1-21.451,6.736-30.8,12.177l-16.441,14.925c-11.422,5.106-30.947,4.116-48.693,4.116H714.085" transform="translate(263.869 1959.027) rotate(90)" fill="none" stroke="#cccdd7" stroke-linecap="round" stroke-miterlimit="10" stroke-width="3" stroke-dasharray="1 10"/>
    <path id="Path_3775" data-name="Path 3775" d="M865.251,107.607l-18.486,6.507c-29.5,21.725-21.451,20.609-30.8,37.258l-16.441,45.668c-11.422,15.624-30.947,12.593-48.693,12.593H714.085" transform="translate(263.869 1959.027) rotate(90)" fill="none" stroke="#cccdd7" stroke-linecap="round" stroke-miterlimit="10" stroke-width="3" stroke-dasharray="1 10"/>
    <path id="Path_3776" data-name="Path 3776" d="M865.252,209.759l-18.486-6.5c-29.5-21.7-21.451-20.587-30.8-37.218l-16.441-45.619c-11.422-15.607-30.948-12.58-48.693-12.58H714.085" transform="translate(371.695 1959.027) rotate(90)" fill="none" stroke="#cccdd7" stroke-linecap="round" stroke-miterlimit="10" stroke-width="3" stroke-dasharray="1 10"/>
    <g transform="matrix(1, 0, 0, 1, -120, 2504.11)" filter="url(#Path_4536)">
      <path id="Path_4536-2" data-name="Path 4536" d="M5.669,0H44.331A5.669,5.669,0,0,1,50,5.669V44.331A5.669,5.669,0,0,1,44.331,50H5.669A5.669,5.669,0,0,1,0,44.331V5.669A5.669,5.669,0,0,1,5.669,0Z" transform="translate(149 144)" fill="#fff" stroke="#b4bbc6" stroke-width="1"/>
    </g>
    <g transform="matrix(1, 0, 0, 1, -120, 2504.11)" filter="url(#Path_4537)">
      <path id="Path_4537-2" data-name="Path 4537" d="M5.669,0H44.331A5.669,5.669,0,0,1,50,5.669V44.331A5.669,5.669,0,0,1,44.331,50H5.669A5.669,5.669,0,0,1,0,44.331V5.669A5.669,5.669,0,0,1,5.669,0Z" transform="translate(219 144)" fill="#fff" stroke="#b4bbc6" stroke-width="1"/>
    </g>
    <g transform="matrix(1, 0, 0, 1, -120, 2504.11)" filter="url(#Path_4538)">
      <path id="Path_4538-2" data-name="Path 4538" d="M5.669,0H44.331A5.669,5.669,0,0,1,50,5.669V44.331A5.669,5.669,0,0,1,44.331,50H5.669A5.669,5.669,0,0,1,0,44.331V5.669A5.669,5.669,0,0,1,5.669,0Z" transform="translate(289 144)" fill="#fff" stroke="#b4bbc6" stroke-width="1"/>
    </g>
    <g transform="matrix(1, 0, 0, 1, -120, 2504.11)" filter="url(#Path_4539)">
      <path id="Path_4539-2" data-name="Path 4539" d="M5.669,0H44.331A5.669,5.669,0,0,1,50,5.669V44.331A5.669,5.669,0,0,1,44.331,50H5.669A5.669,5.669,0,0,1,0,44.331V5.669A5.669,5.669,0,0,1,5.669,0Z" transform="translate(359 144)" fill="#fff" stroke="#b4bbc6" stroke-width="1"/>
    </g>
    <path id="Path_4540" data-name="Path 4540" d="M-25.586-7.109l2.046,5.469h.029l2.051-5.469h1.538V0h-1.187V-2.422l.117-3.081-.029,0L-23.13,0h-.8l-2.1-5.493-.029,0,.117,3.066V0h-1.187V-7.109ZM-15.337,0q-.063-.2-.1-.391A2.792,2.792,0,0,1-15.5-.771a2.1,2.1,0,0,1-.642.623A1.633,1.633,0,0,1-17.031.1,1.756,1.756,0,0,1-18.3-.322a1.543,1.543,0,0,1-.442-1.167,1.378,1.378,0,0,1,.605-1.194,2.924,2.924,0,0,1,1.7-.427h.923v-.464a.858.858,0,0,0-.244-.649.968.968,0,0,0-.7-.234.989.989,0,0,0-.645.2.62.62,0,0,0-.239.5h-1.143l0-.029A1.309,1.309,0,0,1-17.922-4.9a2.369,2.369,0,0,1,1.545-.483,2.26,2.26,0,0,1,1.489.469,1.65,1.65,0,0,1,.566,1.348v2.349a4.331,4.331,0,0,0,.044.627A3.332,3.332,0,0,0-14.136,0Zm-1.455-.85a1.492,1.492,0,0,0,.808-.225,1.131,1.131,0,0,0,.476-.513v-.781h-.942a1.19,1.19,0,0,0-.811.256.779.779,0,0,0-.293.6.615.615,0,0,0,.2.481A.814.814,0,0,0-16.792-.85Zm6.348-3.364-.508-.02a1.064,1.064,0,0,0-.579.146.965.965,0,0,0-.359.415V0h-1.187V-5.283h1.084l.078.767a1.694,1.694,0,0,1,.515-.635,1.2,1.2,0,0,1,.725-.229,1.106,1.106,0,0,1,.2.017,1.462,1.462,0,0,1,.171.042ZM-7.9-2.31h-.532V0H-9.609V-7.617h1.182v4.355h.493L-6.6-5.283h1.4l-1.743,2.4,2,2.881H-6.323ZM-2.217.1a2.3,2.3,0,0,1-1.79-.735A2.7,2.7,0,0,1-4.673-2.52v-.2a2.8,2.8,0,0,1,.662-1.912,2.093,2.093,0,0,1,1.658-.754,2.065,2.065,0,0,1,1.638.647A2.535,2.535,0,0,1-.146-3v.7h-3.3l-.01.024a1.664,1.664,0,0,0,.369,1.03,1.166,1.166,0,0,0,.94.4,2.541,2.541,0,0,0,.82-.117A2.688,2.688,0,0,0-.664-1.3l.381.776a2.458,2.458,0,0,1-.791.444A3.314,3.314,0,0,1-2.217.1Zm-.137-4.531a.89.89,0,0,0-.723.349,1.719,1.719,0,0,0-.352.886l.01.024h2.095v-.122a1.264,1.264,0,0,0-.256-.82A.936.936,0,0,0-2.354-4.429ZM2.285-6.567v1.284h.947V-4.4H2.285v2.92a.637.637,0,0,0,.142.466A.513.513,0,0,0,2.8-.879,1.049,1.049,0,0,0,2.993-.9a1.157,1.157,0,0,0,.176-.046L3.3-.073a1.361,1.361,0,0,1-.361.129A2.009,2.009,0,0,1,2.5.1,1.361,1.361,0,0,1,1.475-.281a1.679,1.679,0,0,1-.371-1.2V-4.4H.3v-.879H1.1V-6.567Zm6.631,4.1a2.979,2.979,0,0,1-.542,1.86A1.793,1.793,0,0,1,6.865.1a1.869,1.869,0,0,1-.8-.161,1.638,1.638,0,0,1-.6-.474V2.031H4.287V-5.283h1l.117.664a1.762,1.762,0,0,1,.613-.566,1.714,1.714,0,0,1,.833-.2,1.755,1.755,0,0,1,1.521.774,3.472,3.472,0,0,1,.544,2.039Zm-1.182-.1a2.574,2.574,0,0,0-.305-1.326.992.992,0,0,0-.911-.515,1.183,1.183,0,0,0-.63.159,1.168,1.168,0,0,0-.415.442v2.388a1.1,1.1,0,0,0,.415.427,1.265,1.265,0,0,0,.64.149,1.018,1.018,0,0,0,.906-.447,2.07,2.07,0,0,0,.3-1.174ZM11.216,0H10.029V-7.617h1.187Zm4.507,0q-.063-.2-.1-.391a2.792,2.792,0,0,1-.056-.381,2.1,2.1,0,0,1-.642.623A1.633,1.633,0,0,1,14.028.1a1.756,1.756,0,0,1-1.267-.425,1.543,1.543,0,0,1-.442-1.167,1.378,1.378,0,0,1,.605-1.194,2.924,2.924,0,0,1,1.7-.427h.923v-.464a.858.858,0,0,0-.244-.649.968.968,0,0,0-.7-.234.989.989,0,0,0-.645.2.62.62,0,0,0-.239.5H12.583l0-.029A1.309,1.309,0,0,1,13.137-4.9a2.369,2.369,0,0,1,1.545-.483,2.26,2.26,0,0,1,1.489.469,1.65,1.65,0,0,1,.566,1.348v2.349a4.331,4.331,0,0,0,.044.627A3.332,3.332,0,0,0,16.924,0ZM14.268-.85a1.492,1.492,0,0,0,.808-.225,1.131,1.131,0,0,0,.476-.513v-.781h-.942a1.19,1.19,0,0,0-.811.256.779.779,0,0,0-.293.6.615.615,0,0,0,.2.481A.814.814,0,0,0,14.268-.85Zm5.9,0A1.084,1.084,0,0,0,20.9-1.1a.812.812,0,0,0,.3-.642h1.074l.01.029a1.56,1.56,0,0,1-.6,1.279A2.246,2.246,0,0,1,20.166.1a2.191,2.191,0,0,1-1.79-.752,2.886,2.886,0,0,1-.623-1.9v-.171a2.888,2.888,0,0,1,.623-1.9,2.188,2.188,0,0,1,1.79-.754,2.173,2.173,0,0,1,1.545.554,1.784,1.784,0,0,1,.574,1.409l-.01.029H21.2a1.035,1.035,0,0,0-.286-.737.977.977,0,0,0-.745-.3,1,1,0,0,0-.947.486,2.422,2.422,0,0,0-.278,1.218v.171a2.427,2.427,0,0,0,.278,1.228A1,1,0,0,0,20.166-.845ZM25.5.1a2.3,2.3,0,0,1-1.79-.735,2.7,2.7,0,0,1-.667-1.887v-.2A2.8,2.8,0,0,1,23.7-4.626a2.093,2.093,0,0,1,1.658-.754A2.065,2.065,0,0,1,27-4.734,2.535,2.535,0,0,1,27.568-3v.7h-3.3l-.01.024a1.664,1.664,0,0,0,.369,1.03,1.166,1.166,0,0,0,.94.4,2.541,2.541,0,0,0,.82-.117,2.688,2.688,0,0,0,.659-.337l.381.776a2.458,2.458,0,0,1-.791.444A3.314,3.314,0,0,1,25.5.1Zm-.137-4.531a.89.89,0,0,0-.723.349,1.719,1.719,0,0,0-.352.886l.01.024h2.095v-.122a1.264,1.264,0,0,0-.256-.82A.936.936,0,0,0,25.361-4.429Z" transform="translate(54 2635)" fill="#b4bbc6" opacity="0.604"/>
    <path id="Path_4541" data-name="Path 4541" d="M-23.821-3.2h-3.11V-.947h3.608V0h-4.795V-7.109h4.761v.952h-3.574V-4.15h3.11Zm3.633.654h-2.563V-3.5h2.563Zm6.333.186.01.029a2.239,2.239,0,0,1-.7,1.755A2.735,2.735,0,0,1-16.5.1a2.637,2.637,0,0,1-2.024-.837A3.02,3.02,0,0,1-19.3-2.876V-4.229A3.053,3.053,0,0,1-18.53-6.37a2.582,2.582,0,0,1,2-.842,2.834,2.834,0,0,1,1.985.662,2.235,2.235,0,0,1,.706,1.78l-.01.029H-15a1.539,1.539,0,0,0-.388-1.118,1.524,1.524,0,0,0-1.145-.4,1.363,1.363,0,0,0-1.155.576,2.36,2.36,0,0,0-.427,1.445v1.362a2.339,2.339,0,0,0,.437,1.455A1.4,1.4,0,0,0-16.5-.845a1.482,1.482,0,0,0,1.118-.4A1.547,1.547,0,0,0-15-2.358Zm.8-.332a2.878,2.878,0,0,1,.645-1.934,2.222,2.222,0,0,1,1.772-.757,2.216,2.216,0,0,1,1.782.757A2.853,2.853,0,0,1-8.206-2.69v.1A2.867,2.867,0,0,1-8.855-.645,2.218,2.218,0,0,1-10.627.1,2.231,2.231,0,0,1-12.41-.649a2.874,2.874,0,0,1-.645-1.938Zm1.187.1a2.359,2.359,0,0,0,.3,1.26,1.021,1.021,0,0,0,.938.483A1.026,1.026,0,0,0-9.7-1.328a2.3,2.3,0,0,0,.313-1.26v-.1A2.271,2.271,0,0,0-9.7-3.936a1.029,1.029,0,0,0-.937-.493,1.021,1.021,0,0,0-.928.493,2.344,2.344,0,0,0-.3,1.245Zm5.781-2.7.063.688a1.791,1.791,0,0,1,.649-.581,1.915,1.915,0,0,1,.9-.205,1.63,1.63,0,0,1,.889.234,1.417,1.417,0,0,1,.557.7,1.851,1.851,0,0,1,.645-.688,1.738,1.738,0,0,1,.938-.249,1.562,1.562,0,0,1,1.257.544A2.51,2.51,0,0,1,.276-3.184V0H-.911V-3.188a1.483,1.483,0,0,0-.232-.947.862.862,0,0,0-.7-.273,1.018,1.018,0,0,0-.645.205,1.143,1.143,0,0,0-.381.552q0,.073,0,.127t0,.1V0H-4.041V-3.188a1.467,1.467,0,0,0-.237-.935.852.852,0,0,0-.7-.286,1.249,1.249,0,0,0-.613.139,1.026,1.026,0,0,0-.4.393V0H-7.17V-5.283Zm8.7,0,.063.688a1.791,1.791,0,0,1,.649-.581,1.915,1.915,0,0,1,.9-.205,1.63,1.63,0,0,1,.889.234,1.417,1.417,0,0,1,.557.7,1.851,1.851,0,0,1,.645-.688,1.738,1.738,0,0,1,.938-.249,1.562,1.562,0,0,1,1.257.544,2.51,2.51,0,0,1,.461,1.653V0H7.786V-3.188a1.483,1.483,0,0,0-.232-.947.862.862,0,0,0-.7-.273,1.018,1.018,0,0,0-.645.205,1.143,1.143,0,0,0-.381.552q0,.073,0,.127t0,.1V0H4.656V-3.188a1.467,1.467,0,0,0-.237-.935.852.852,0,0,0-.7-.286,1.249,1.249,0,0,0-.613.139,1.026,1.026,0,0,0-.4.393V0H1.526V-5.283ZM12.488.1A2.3,2.3,0,0,1,10.7-.632a2.7,2.7,0,0,1-.667-1.887v-.2a2.8,2.8,0,0,1,.662-1.912,2.093,2.093,0,0,1,1.658-.754,2.065,2.065,0,0,1,1.638.647A2.535,2.535,0,0,1,14.558-3v.7h-3.3l-.01.024a1.664,1.664,0,0,0,.369,1.03,1.166,1.166,0,0,0,.94.4,2.541,2.541,0,0,0,.82-.117,2.688,2.688,0,0,0,.659-.337l.381.776a2.458,2.458,0,0,1-.791.444A3.314,3.314,0,0,1,12.488.1Zm-.137-4.531a.89.89,0,0,0-.723.349,1.719,1.719,0,0,0-.352.886l.01.024h2.095v-.122a1.264,1.264,0,0,0-.256-.82A.936.936,0,0,0,12.351-4.429Zm5.8.215-.508-.02a1.064,1.064,0,0,0-.579.146.965.965,0,0,0-.359.415V0H15.515V-5.283H16.6l.078.767a1.694,1.694,0,0,1,.515-.635,1.2,1.2,0,0,1,.725-.229,1.106,1.106,0,0,1,.2.017,1.462,1.462,0,0,1,.171.042ZM21.16-.845a1.084,1.084,0,0,0,.732-.256.812.812,0,0,0,.3-.642h1.074l.01.029a1.56,1.56,0,0,1-.6,1.279A2.246,2.246,0,0,1,21.16.1a2.191,2.191,0,0,1-1.79-.752,2.886,2.886,0,0,1-.623-1.9v-.171a2.888,2.888,0,0,1,.623-1.9,2.188,2.188,0,0,1,1.79-.754,2.173,2.173,0,0,1,1.545.554,1.784,1.784,0,0,1,.574,1.409l-.01.029H22.19a1.035,1.035,0,0,0-.286-.737.977.977,0,0,0-.745-.3,1,1,0,0,0-.947.486,2.422,2.422,0,0,0-.278,1.218v.171a2.427,2.427,0,0,0,.278,1.228A1,1,0,0,0,21.16-.845ZM26.492.1A2.3,2.3,0,0,1,24.7-.632a2.7,2.7,0,0,1-.667-1.887v-.2A2.8,2.8,0,0,1,24.7-4.626a2.093,2.093,0,0,1,1.658-.754,2.065,2.065,0,0,1,1.638.647A2.535,2.535,0,0,1,28.562-3v.7h-3.3l-.01.024a1.664,1.664,0,0,0,.369,1.03,1.166,1.166,0,0,0,.94.4,2.541,2.541,0,0,0,.82-.117,2.688,2.688,0,0,0,.659-.337l.381.776a2.458,2.458,0,0,1-.791.444A3.314,3.314,0,0,1,26.492.1Zm-.137-4.531a.89.89,0,0,0-.723.349,1.719,1.719,0,0,0-.352.886l.01.024h2.095v-.122a1.264,1.264,0,0,0-.256-.82A.936.936,0,0,0,26.355-4.429Z" transform="translate(124 2635)" fill="#b4bbc6" opacity="0.604"/>
    <path id="Path_4542" data-name="Path 4542" d="M-8.472,0V-7.109h2.363a3.075,3.075,0,0,1,1.846.486A1.684,1.684,0,0,1-3.6-5.171a1.428,1.428,0,0,1-.278.864,1.644,1.644,0,0,1-.771.566,1.585,1.585,0,0,1,.977.61A1.8,1.8,0,0,1-3.33-2.041,1.827,1.827,0,0,1-3.984-.52,2.831,2.831,0,0,1-5.791,0Zm1.187-3.232V-.947h1.494a1.427,1.427,0,0,0,.947-.281,1,1,0,0,0,.332-.813A1.277,1.277,0,0,0-4.79-2.92a1.107,1.107,0,0,0-.869-.312Zm0-.884h1.309A1.338,1.338,0,0,0-5.1-4.377a.9.9,0,0,0,.32-.74A.922.922,0,0,0-5.122-5.9a1.61,1.61,0,0,0-.986-.256H-7.285ZM2.412,0H-2.31V-.815L0-3.34A5.618,5.618,0,0,0,.786-4.358,1.633,1.633,0,0,0,1-5.137a1.182,1.182,0,0,0-.278-.8A.943.943,0,0,0-.029-6.26a1.158,1.158,0,0,0-.928.352,1.433,1.433,0,0,0-.3.967H-2.407l-.01-.029A2.089,2.089,0,0,1-1.8-6.565,2.383,2.383,0,0,1-.029-7.212a2.256,2.256,0,0,1,1.621.566,1.948,1.948,0,0,1,.6,1.479A2.186,2.186,0,0,1,1.843-4,9.833,9.833,0,0,1,.776-2.646L-.806-.977l.015.029h3.2ZM3.618,0V-7.109H5.981a3.075,3.075,0,0,1,1.846.486,1.684,1.684,0,0,1,.664,1.453,1.428,1.428,0,0,1-.278.864,1.644,1.644,0,0,1-.771.566,1.585,1.585,0,0,1,.977.61A1.8,1.8,0,0,1,8.76-2.041,1.827,1.827,0,0,1,8.105-.52,2.831,2.831,0,0,1,6.3,0ZM4.8-3.232V-.947H6.3a1.427,1.427,0,0,0,.947-.281,1,1,0,0,0,.332-.813A1.277,1.277,0,0,0,7.3-2.92a1.107,1.107,0,0,0-.869-.312Zm0-.884H6.113a1.338,1.338,0,0,0,.872-.261.9.9,0,0,0,.32-.74A.922.922,0,0,0,6.968-5.9a1.61,1.61,0,0,0-.986-.256H4.8Z" transform="translate(194 2635)" fill="#b4bbc6" opacity="0.604"/>
    <path id="Path_4543" data-name="Path 4543" d="M-29.258,0V-7.109h2.3a2.981,2.981,0,0,1,2.2.845,2.937,2.937,0,0,1,.847,2.173v1.079A2.926,2.926,0,0,1-24.753-.84a2.99,2.99,0,0,1-2.2.84Zm1.187-6.157v5.21h1.084A1.752,1.752,0,0,0-25.6-1.523a2.176,2.176,0,0,0,.505-1.489V-4.1A2.161,2.161,0,0,0-25.6-5.581a1.752,1.752,0,0,0-1.389-.576Zm7.866,1.943-.508-.02a1.064,1.064,0,0,0-.579.146.965.965,0,0,0-.359.415V0h-1.187V-5.283h1.084l.078.767a1.694,1.694,0,0,1,.515-.635,1.2,1.2,0,0,1,.725-.229,1.106,1.106,0,0,1,.2.017,1.462,1.462,0,0,1,.171.042Zm.61,1.523a2.878,2.878,0,0,1,.645-1.934,2.222,2.222,0,0,1,1.772-.757,2.216,2.216,0,0,1,1.782.757,2.853,2.853,0,0,1,.649,1.934v.1A2.867,2.867,0,0,1-15.4-.645,2.218,2.218,0,0,1-17.168.1,2.231,2.231,0,0,1-18.95-.649a2.874,2.874,0,0,1-.645-1.938Zm1.187.1a2.359,2.359,0,0,0,.3,1.26,1.021,1.021,0,0,0,.938.483,1.026,1.026,0,0,0,.928-.483,2.3,2.3,0,0,0,.313-1.26v-.1a2.271,2.271,0,0,0-.312-1.245,1.029,1.029,0,0,0-.937-.493,1.021,1.021,0,0,0-.928.493,2.344,2.344,0,0,0-.3,1.245Zm9.326.122a2.979,2.979,0,0,1-.542,1.86A1.793,1.793,0,0,1-11.133.1a1.869,1.869,0,0,1-.8-.161,1.638,1.638,0,0,1-.6-.474V2.031h-1.187V-5.283h1l.117.664a1.762,1.762,0,0,1,.613-.566,1.714,1.714,0,0,1,.833-.2,1.755,1.755,0,0,1,1.521.774,3.472,3.472,0,0,1,.544,2.039Zm-1.182-.1a2.574,2.574,0,0,0-.305-1.326.992.992,0,0,0-.911-.515,1.183,1.183,0,0,0-.63.159,1.168,1.168,0,0,0-.415.442v2.388a1.1,1.1,0,0,0,.415.427,1.265,1.265,0,0,0,.64.149,1.018,1.018,0,0,0,.906-.447,2.07,2.07,0,0,0,.3-1.174Zm5.186,1.133a.552.552,0,0,0-.234-.454,2.338,2.338,0,0,0-.874-.317A3.628,3.628,0,0,1-7.62-2.776a1.192,1.192,0,0,1-.486-1,1.428,1.428,0,0,1,.562-1.133,2.233,2.233,0,0,1,1.479-.469A2.317,2.317,0,0,1-4.529-4.9a1.41,1.41,0,0,1,.544,1.179l-.01.029H-5.132a.744.744,0,0,0-.249-.562.957.957,0,0,0-.684-.234.978.978,0,0,0-.654.193.6.6,0,0,0-.225.471.529.529,0,0,0,.212.442,2.281,2.281,0,0,0,.862.291,3.631,3.631,0,0,1,1.477.579A1.22,1.22,0,0,1-3.911-1.5,1.385,1.385,0,0,1-4.5-.342,2.507,2.507,0,0,1-6.05.1,2.366,2.366,0,0,1-7.676-.425a1.49,1.49,0,0,1-.566-1.211l.01-.029h1.1A.791.791,0,0,0-6.8-1a1.334,1.334,0,0,0,.762.21,1.217,1.217,0,0,0,.708-.176A.551.551,0,0,0-5.078-1.436Zm3.4-3.164a1.883,1.883,0,0,1,.642-.576A1.729,1.729,0,0,1-.2-5.381a1.664,1.664,0,0,1,1.311.53,2.4,2.4,0,0,1,.471,1.633V0H.4V-3.228a1.338,1.338,0,0,0-.249-.9A.951.951,0,0,0-.6-4.409a1.325,1.325,0,0,0-.623.144,1.28,1.28,0,0,0-.457.4V0H-2.861V-7.617h1.187ZM4.082,0H2.9V-5.283H4.082Zm0-6.577H2.9v-1.04H4.082Zm5.957,4.111A2.979,2.979,0,0,1,9.5-.605,1.793,1.793,0,0,1,7.988.1a1.869,1.869,0,0,1-.8-.161,1.638,1.638,0,0,1-.6-.474V2.031H5.41V-5.283h1l.117.664a1.762,1.762,0,0,1,.613-.566,1.714,1.714,0,0,1,.833-.2,1.755,1.755,0,0,1,1.521.774,3.472,3.472,0,0,1,.544,2.039Zm-1.182-.1a2.574,2.574,0,0,0-.305-1.326.992.992,0,0,0-.911-.515,1.183,1.183,0,0,0-.63.159,1.168,1.168,0,0,0-.415.442v2.388a1.1,1.1,0,0,0,.415.427,1.265,1.265,0,0,0,.64.149,1.018,1.018,0,0,0,.906-.447,2.07,2.07,0,0,0,.3-1.174Zm6.846.1a2.979,2.979,0,0,1-.542,1.86A1.793,1.793,0,0,1,13.652.1a1.869,1.869,0,0,1-.8-.161,1.638,1.638,0,0,1-.6-.474V2.031H11.074V-5.283h1l.117.664a1.762,1.762,0,0,1,.613-.566,1.714,1.714,0,0,1,.833-.2,1.755,1.755,0,0,1,1.521.774A3.472,3.472,0,0,1,15.7-2.568Zm-1.182-.1a2.574,2.574,0,0,0-.305-1.326.992.992,0,0,0-.911-.515,1.183,1.183,0,0,0-.63.159,1.168,1.168,0,0,0-.415.442v2.388a1.1,1.1,0,0,0,.415.427,1.265,1.265,0,0,0,.64.149,1.018,1.018,0,0,0,.906-.447,2.07,2.07,0,0,0,.3-1.174ZM18,0H16.816V-5.283H18Zm0-6.577H16.816v-1.04H18Zm2.4,1.294.068.762a1.89,1.89,0,0,1,.652-.632,1.739,1.739,0,0,1,.886-.227,1.663,1.663,0,0,1,1.287.5,2.245,2.245,0,0,1,.461,1.56V0H22.573V-3.311a1.187,1.187,0,0,0-.247-.847,1.007,1.007,0,0,0-.75-.251,1.243,1.243,0,0,0-.62.154,1.282,1.282,0,0,0-.449.422V0H19.321V-5.283ZM24.78-2.568A3.44,3.44,0,0,1,25.332-4.6a1.776,1.776,0,0,1,1.533-.776,1.664,1.664,0,0,1,.833.2,1.759,1.759,0,0,1,.608.583l.117-.688h.986V0a1.994,1.994,0,0,1-.63,1.577,2.612,2.612,0,0,1-1.787.557,3.5,3.5,0,0,1-.833-.11,3.867,3.867,0,0,1-.808-.291L25.605.8a2.872,2.872,0,0,0,.647.237,3.1,3.1,0,0,0,.73.085,1.355,1.355,0,0,0,.942-.276,1.1,1.1,0,0,0,.3-.847V-.542a1.66,1.66,0,0,1-.588.481A1.773,1.773,0,0,1,26.855.1a1.824,1.824,0,0,1-1.523-.708,2.942,2.942,0,0,1-.552-1.86Zm1.187.1A2.074,2.074,0,0,0,26.257-1.3a1.006,1.006,0,0,0,.9.437,1.216,1.216,0,0,0,.642-.159,1.172,1.172,0,0,0,.422-.457V-3.794a1.268,1.268,0,0,0-.427-.452,1.158,1.158,0,0,0-.627-.164.976.976,0,0,0-.906.513,2.64,2.64,0,0,0-.3,1.328Z" transform="translate(264 2635)" fill="#b4bbc6" opacity="0.604"/>
    <g id="Group_3139" data-name="Group 3139" transform="translate(-333.031 2557.072)">
      <g id="Group_2956" data-name="Group 2956" transform="translate(376.714 106)">
        <path id="Path_3592" data-name="Path 3592" d="M378,125v7.967h19.611V125" transform="translate(-377.488 -113.356)" fill="none" stroke="#526279" stroke-linecap="round" stroke-linejoin="round" stroke-width="1"/>
        <path id="Path_3593" data-name="Path 3593" d="M397.611,109.064V106H378v3.064" transform="translate(-377.488 -106)" fill="none" stroke="#526279" stroke-linecap="round" stroke-linejoin="round" stroke-width="1"/>
        <rect id="Rectangle_590" data-name="Rectangle 590" width="6.191" height="4.815" transform="translate(4.127 12.557)" fill="none" stroke="#526279" stroke-linecap="round" stroke-linejoin="round" stroke-width="1"/>
        <rect id="Rectangle_591" data-name="Rectangle 591" width="4.127" height="6.879" transform="translate(13.757 12.557)" fill="none" stroke="#526279" stroke-linecap="round" stroke-linejoin="round" stroke-width="1"/>
        <line id="Line_52" data-name="Line 52" x1="19.948" transform="translate(0 6.366)" fill="none" stroke="#526279" stroke-linecap="round" stroke-linejoin="round" stroke-width="1"/>
      </g>
      <line id="Line_53" data-name="Line 53" x2="1.376" y2="3.439" transform="translate(396.661 108.927)" fill="none" stroke="#526279" stroke-linecap="round" stroke-linejoin="round" stroke-width="1"/>
      <path id="Path_3594" data-name="Path 3594" d="M376,114.064,377.226,111h19.611" transform="translate(0 -1.936)" fill="none" stroke="#526279" stroke-linecap="round" stroke-linejoin="round" stroke-width="1"/>
      <path id="Path_3595" data-name="Path 3595" d="M376,116v1.839a4.111,4.111,0,0,1,5.516,1.839,1.839,1.839,0,0,1,3.677,0,1.839,1.839,0,0,1,3.677,0,1.839,1.839,0,0,1,3.677,0,1.839,1.839,0,0,1,3.677,0,1.838,1.838,0,0,0,1.839-1.839V116Z" transform="translate(0 -3.872)" fill="none" stroke="#526279" stroke-linecap="round" stroke-linejoin="round" stroke-width="1"/>
    </g>
    <g id="Group_3137" data-name="Group 3137" transform="translate(-130.35 2487.072)">
      <path id="Path_3596" data-name="Path 3596" d="M263.229,192.493H247.454L244.585,176H241" fill="none" stroke="#526279" stroke-linecap="round" stroke-linejoin="round" stroke-width="1"/>
      <path id="Path_3597" data-name="Path 3597" d="M247,179h20.078l-2.151,10.756H249.151" transform="translate(-1.698 -0.849)" fill="none" stroke="#526279" stroke-linecap="round" stroke-linejoin="round" stroke-width="1"/>
      <line id="Line_54" data-name="Line 54" y2="10.756" transform="translate(250.322 178.151)" fill="none" stroke="#526279" stroke-linecap="round" stroke-linejoin="round" stroke-width="1"/>
      <line id="Line_55" data-name="Line 55" y2="10.756" transform="translate(255.342 178.151)" fill="none" stroke="#526279" stroke-linecap="round" stroke-linejoin="round" stroke-width="1"/>
      <line id="Line_56" data-name="Line 56" x1="17.927" transform="translate(246.02 183.171)" fill="none" stroke="#526279" stroke-linecap="round" stroke-linejoin="round" stroke-width="1"/>
      <line id="Line_57" data-name="Line 57" y2="10.756" transform="translate(260.361 178.151)" fill="none" stroke="#526279" stroke-linecap="round" stroke-linejoin="round" stroke-width="1"/>
      <circle id="Ellipse_214" data-name="Ellipse 214" cx="1.793" cy="1.793" r="1.793" transform="translate(248.888 192.493)" fill="none" stroke="#526279" stroke-linecap="round" stroke-linejoin="round" stroke-width="1"/>
      <circle id="Ellipse_215" data-name="Ellipse 215" cx="1.793" cy="1.793" r="1.793" transform="translate(258.21 192.493)" fill="none" stroke="#526279" stroke-linecap="round" stroke-linejoin="round" stroke-width="1"/>
    </g>
    <g id="Group_3138" data-name="Group 3138" transform="translate(-846.641 564.904)">
      <g id="Group_2960" data-name="Group 2960" transform="translate(1031.138 2095.9)">
        <path id="Path_3598" data-name="Path 3598" d="M1044.558,2120.047H1032.9a1.764,1.764,0,0,1-1.762-1.762v-20.623a1.764,1.764,0,0,1,1.762-1.762h11.657a1.765,1.765,0,0,1,1.762,1.762v20.623A1.764,1.764,0,0,1,1044.558,2120.047ZM1032.9,2096.5a1.165,1.165,0,0,0-1.164,1.164v20.623a1.165,1.165,0,0,0,1.164,1.164h11.657a1.165,1.165,0,0,0,1.164-1.164v-20.623a1.165,1.165,0,0,0-1.164-1.164Z" transform="translate(-1031.138 -2095.9)" fill="#526279" stroke="#526279" stroke-width="0.3"/>
      </g>
      <g id="Group_2961" data-name="Group 2961" transform="translate(1031.147 2098.932)">
        <rect id="Rectangle_595" data-name="Rectangle 595" width="14.575" height="17.361" transform="translate(0.299 0.299)" fill="#fff"/>
        <path id="Path_3599" data-name="Path 3599" d="M1046.218,2185.694h-14.575a.3.3,0,0,1-.3-.3v-17.362a.3.3,0,0,1,.3-.3h14.575a.3.3,0,0,1,.3.3v17.362A.3.3,0,0,1,1046.218,2185.694Zm-14.276-.6h13.977v-16.763h-13.977Z" transform="translate(-1031.344 -2167.734)" fill="#526279" stroke="#526279" stroke-width="0.3"/>
      </g>
      <path id="Path_3600" data-name="Path 3600" d="M1159.719,2132.518h-4.181a.261.261,0,0,1-.261-.261h0a.261.261,0,0,1,.261-.261h4.181a.261.261,0,0,1,.261.261h0A.261.261,0,0,1,1159.719,2132.518Z" transform="translate(-118.899 -34.573)" fill="#526279"/>
      <g id="Group_2962" data-name="Group 2962" transform="translate(1039.88 2099.038)">
        <line id="Line_58" data-name="Line 58" x1="2.056" y2="2.072" transform="translate(0.299 0.299)" fill="#fff" stroke="#526279" stroke-width="0.3"/>
        <path id="Path_3601" data-name="Path 3601" d="M1238.56,2172.923a.3.3,0,0,1-.212-.51l2.056-2.072a.3.3,0,1,1,.425.421l-2.056,2.072A.3.3,0,0,1,1238.56,2172.923Z" transform="translate(-1238.261 -2170.252)" fill="#526279" stroke="#526279" stroke-width="0.3"/>
      </g>
      <g id="Group_2963" data-name="Group 2963" transform="translate(1041.076 2099.038)">
        <line id="Line_59" data-name="Line 59" x1="3.652" y2="3.68" transform="translate(0.299 0.299)" fill="#fff" stroke="#526279" stroke-width="0.3"/>
        <path id="Path_3602" data-name="Path 3602" d="M1266.9,2174.53a.3.3,0,0,1-.212-.51l3.652-3.68a.3.3,0,1,1,.425.421l-3.651,3.68A.3.3,0,0,1,1266.9,2174.53Z" transform="translate(-1266.598 -2170.252)" fill="#526279" stroke="#526279" stroke-width="0.3"/>
      </g>
      <g id="Group_2964" data-name="Group 2964" transform="translate(1032.394 2112.972)">
        <line id="Line_60" data-name="Line 60" x1="3.296" y2="3.322" transform="translate(0.299 0.299)" fill="#fff" stroke="#526279" stroke-width="0.3"/>
        <path id="Path_3603" data-name="Path 3603" d="M1061.186,2504.278a.3.3,0,0,1-.212-.51l3.3-3.322a.3.3,0,1,1,.425.421l-3.3,3.322A.3.3,0,0,1,1061.186,2504.278Z" transform="translate(-1060.887 -2500.358)" fill="#526279" stroke="#526279" stroke-width="0.3"/>
      </g>
      <g id="Group_2965" data-name="Group 2965" transform="translate(1034.295 2102.591)">
        <path id="Path_3604" data-name="Path 3604" d="M1130.8,2262.668v7.874a1.157,1.157,0,0,1-1.152,1.149H1114.17a1.156,1.156,0,0,1-1.152-1.149v-7.874a1.151,1.151,0,0,1,1.152-1.143h15.476A1.151,1.151,0,0,1,1130.8,2262.668Z" transform="translate(-1112.719 -2261.226)" fill="#fff"/>
        <path id="Path_3605" data-name="Path 3605" d="M1122.857,2265.2h-15.476a1.451,1.451,0,0,1-1.451-1.449v-7.873a1.448,1.448,0,0,1,1.451-1.442h15.476a1.448,1.448,0,0,1,1.451,1.442v7.873A1.451,1.451,0,0,1,1122.857,2265.2Zm-15.476-10.166a.849.849,0,0,0-.853.844v7.873a.852.852,0,0,0,.853.851h15.476a.863.863,0,0,0,.853-.851v-7.873a.85.85,0,0,0-.853-.844Z" transform="translate(-1105.93 -2254.437)" fill="#526279" stroke="#526279" stroke-width="0.3"/>
      </g>
      <g id="Group_2966" data-name="Group 2966" transform="translate(1034.3 2104.396)">
        <path id="Path_3606" data-name="Path 3606" d="M1124.111,2300.147h-17.769a.3.3,0,0,1-.3-.3v-2.374a.3.3,0,0,1,.3-.3h17.769a.3.3,0,0,1,.3.3v2.374A.3.3,0,0,1,1124.111,2300.147Zm-17.47-.6h17.171v-1.775h-17.171Z" transform="translate(-1106.043 -2297.175)" fill="#526279" stroke="#526279" stroke-width="0.3"/>
      </g>
      <rect id="Rectangle_597" data-name="Rectangle 597" width="5.018" height="0.287" rx="0.143" transform="translate(1042.188 2109.679)" fill="#526279" stroke="#526279" stroke-width="0.2"/>
      <rect id="Rectangle_598" data-name="Rectangle 598" width="1.571" height="0.287" rx="0.143" transform="translate(1047.528 2109.679)" fill="#526279" stroke="#526279" stroke-width="0.2"/>
      <rect id="Rectangle_599" data-name="Rectangle 599" width="2.322" height="0.287" rx="0.143" transform="translate(1042.188 2110.395)" fill="#526279" stroke="#526279" stroke-width="0.2"/>
      <rect id="Rectangle_600" data-name="Rectangle 600" width="4.96" height="0.287" rx="0.143" transform="translate(1044.885 2110.395)" fill="#526279" stroke="#526279" stroke-width="0.2"/>
      <rect id="Rectangle_601" data-name="Rectangle 601" width="6.019" height="0.287" rx="0.143" transform="translate(1042.188 2111.072)" fill="#526279" stroke="#526279" stroke-width="0.2"/>
      <g id="Group_2967" data-name="Group 2967" transform="translate(1036.196 2108.584)">
        <path id="Path_3607" data-name="Path 3607" d="M1140.5,2413.666h-3.287a.724.724,0,0,1-.723-.724v-1.327a.724.724,0,0,1,.723-.724h3.287a.724.724,0,0,1,.723.724v1.327A.724.724,0,0,1,1140.5,2413.666Zm-3.287-2.176a.125.125,0,0,0-.125.125v1.327a.125.125,0,0,0,.125.125h3.287a.125.125,0,0,0,.125-.125v-1.327a.125.125,0,0,0-.125-.125Z" transform="translate(-1136.488 -2410.891)" fill="#526279" stroke="#526279" stroke-width="0.2"/>
      </g>
    </g>
    <g id="Group_3136" data-name="Group 3136" transform="translate(-76.031 242.002)">
      <g id="Group_2968" data-name="Group 2968" transform="translate(331.306 2433.546)">
        <rect id="Rectangle_602" data-name="Rectangle 602" width="17.629" height="16.323" rx="1.605" transform="translate(0 0)" fill="none" stroke="#526279" stroke-linecap="round" stroke-linejoin="round" stroke-width="1"/>
        <line id="Line_61" data-name="Line 61" y2="2.612" transform="translate(3.265 7.835)" fill="none" stroke="#526279" stroke-linecap="round" stroke-linejoin="round" stroke-width="1"/>
        <path id="Path_3608" data-name="Path 3608" d="M381.851,258.1l1.175-1.175L384.2,258.1" transform="translate(-379.746 -249.313)" fill="none" stroke="#526279" stroke-linecap="round" stroke-linejoin="round" stroke-width="1"/>
        <line id="Line_62" data-name="Line 62" x2="5.223" transform="translate(1.959 14.364)" fill="none" stroke="#526279" stroke-linecap="round" stroke-linejoin="round" stroke-width="1"/>
        <line id="Line_63" data-name="Line 63" x2="6.529" transform="translate(1.959 12.405)" fill="none" stroke="#526279" stroke-linecap="round" stroke-linejoin="round" stroke-width="1"/>
        <path id="Path_3609" data-name="Path 3609" d="M394.467,248.467l-1.64-1.093-1.093,1.093-1.093-1.093L389,248.467V243h5.467Z" transform="translate(-382.987 -243)" fill="none" stroke="#526279" stroke-linecap="round" stroke-linejoin="round" stroke-width="1"/>
      </g>
      <g id="Group_2969" data-name="Group 2969" transform="translate(330 2413.881)">
        <path id="Path_1157" data-name="Path 1157" d="M931.263,316.308c1.819,0,3.3.892,3.362,2.007h.012c.064-1.115,1.543-2.007,3.362-2.007s3.3.892,3.362,2.007h.042c.064-1.115,1.543-2.007,3.363-2.007s3.3.892,3.362,2.007h.006a10.12,10.12,0,1,0-20.239,0h.006C927.965,317.2,929.443,316.308,931.263,316.308Z" transform="translate(-927.895 -308.195)" fill="none" stroke="#526279" stroke-linecap="round" stroke-width="1"/>
        <path id="Path_1158" data-name="Path 1158" d="M934.984,325.652l.855,9.316-6.977-9.546" transform="translate(-928.294 -315.302)" fill="none" stroke="#526279" stroke-linecap="round" stroke-miterlimit="10" stroke-width="1" stroke-dasharray="0.5 2"/>
        <path id="Path_1159" data-name="Path 1159" d="M950.346,325.9l-.565,9.265,7.143-9.265" transform="translate(-936.924 -315.5)" fill="none" stroke="#526279" stroke-linecap="round" stroke-miterlimit="10" stroke-width="1" stroke-dasharray="0.5 2"/>
      </g>
    </g>
    <path id="Path_4535" data-name="Path 4535" d="M0,0V14.271" transform="translate(159.439 2829.613)" fill="none" stroke="#cccdd7" stroke-linecap="round" stroke-width="3" stroke-dasharray="1 10"/>
    <path id="Path_4533" data-name="Path 4533" d="M130,0A130,130,0,1,1,0,130,130,130,0,0,1,130,0Z" transform="translate(289.998 2853.309) rotate(90)" fill="none" stroke="#d82125" stroke-linecap="round" stroke-width="3" stroke-dasharray="1 10"/>
    <g transform="matrix(1, 0, 0, 1, -120, 2504.11)" filter="url(#Path_4534)">
      <path id="Path_4534-2" data-name="Path 4534" d="M101.037,0A101.037,101.037,0,1,1,0,101.037,101.037,101.037,0,0,1,101.037,0Z" transform="translate(179.21 377.91)" fill="#fff"/>
    </g>
    <g id="Group_3135" data-name="Group 3135" transform="translate(109.215 2923.65)">
      <path id="Path_1150" data-name="Path 1150" d="M578.3,215.416c-.018.07-.034.141-.049.212a36.974,36.974,0,0,0,3.681,26.024c.187.336.386.662.574,1a2.826,2.826,0,0,1,.568,1.94,2.4,2.4,0,0,1-1.065,1.615,4.96,4.96,0,0,1-.93.33c-.364.065-.73.131-1.1.18a17.287,17.287,0,0,1-4.689-34.253c.047-.006.093-.009.138-.019a2.559,2.559,0,0,1,1.935.274,2.245,2.245,0,0,1,.937,2.7" transform="translate(-560.432 -161.591)" fill="#3d3d3d"/>
      <ellipse id="Ellipse_123" data-name="Ellipse 123" cx="32.264" cy="32.264" rx="32.264" ry="32.264" transform="translate(21.51 29.96)" fill="#d82225"/>
      <path id="Path_1151" data-name="Path 1151" d="M605.706,194.048c.713-.041.865-.023,1.589-.023a36.787,36.787,0,0,1,27.6,12.427,3.169,3.169,0,0,0,2.163,1.438,2.659,2.659,0,0,0,2.185-.757l.525-.446a21.891,21.891,0,1,0-36.7-16.118,4.336,4.336,0,0,0,.22,1.836,2.544,2.544,0,0,0,2.416,1.643" transform="translate(-553.521 -168.675)" fill="#262626"/>
      <path id="Path_1152" data-name="Path 1152" d="M637.76,242.273q.282.376.54.773A14.6,14.6,0,1,1,613.6,258.591c-.117-.192-.224-.39-.339-.585a1.949,1.949,0,0,1-.26-1.859,2.085,2.085,0,0,1,1.727-1.264,11.294,11.294,0,0,0,1.2-.324,36.888,36.888,0,0,0,17.74-11.4c.231-.268.447-.55.681-.816a2.41,2.41,0,0,1,1.085-.919,1.9,1.9,0,0,1,1.669.185A2.263,2.263,0,0,1,637.76,242.273Z" transform="translate(-551.93 -156.896)" fill="#3d3d3d"/>
    </g>
    <path id="Path_4531" data-name="Path 4531" d="M0,0V102.834" transform="translate(159 3216.141) rotate(180)" fill="none" stroke="#cccdd7" stroke-linecap="round" stroke-width="3" stroke-dasharray="1 10"/>
    <g transform="matrix(1, 0, 0, 1, -120, 2504.11)" filter="url(#Path_4532)">
      <path id="Path_4532-2" data-name="Path 4532" d="M5.669,0H44.331A5.669,5.669,0,0,1,50,5.669V44.331A5.669,5.669,0,0,1,44.331,50H5.669A5.669,5.669,0,0,1,0,44.331V5.669A5.669,5.669,0,0,1,5.669,0Z" transform="translate(304.44 756.8) rotate(180)" fill="#fff" stroke="#b4bbc6" stroke-width="1"/>
    </g>
    <path id="Path_4668" data-name="Path 4668" d="M-11.567-2.358l.01.029a2.239,2.239,0,0,1-.7,1.755A2.735,2.735,0,0,1-14.209.1a2.637,2.637,0,0,1-2.024-.837,3.02,3.02,0,0,1-.779-2.141V-4.229a3.053,3.053,0,0,1,.769-2.141,2.582,2.582,0,0,1,2-.842,2.834,2.834,0,0,1,1.985.662,2.235,2.235,0,0,1,.706,1.78l-.01.029H-12.71A1.539,1.539,0,0,0-13.1-5.859a1.524,1.524,0,0,0-1.145-.4,1.363,1.363,0,0,0-1.155.576,2.36,2.36,0,0,0-.427,1.445v1.362a2.339,2.339,0,0,0,.437,1.455,1.4,1.4,0,0,0,1.179.576,1.482,1.482,0,0,0,1.118-.4,1.547,1.547,0,0,0,.381-1.118ZM-7.256-.771a1.808,1.808,0,0,1-.63.647A1.683,1.683,0,0,1-8.765.1a1.679,1.679,0,0,1-1.328-.542,2.5,2.5,0,0,1-.479-1.685V-5.283H-9.39v3.169a1.584,1.584,0,0,0,.225.972.82.82,0,0,0,.679.278,1.526,1.526,0,0,0,.72-.154,1.117,1.117,0,0,0,.457-.447V-5.283h1.187V0H-7.158Zm5.342-.664a.552.552,0,0,0-.234-.454,2.338,2.338,0,0,0-.874-.317,3.628,3.628,0,0,1-1.433-.569,1.192,1.192,0,0,1-.486-1A1.428,1.428,0,0,1-4.38-4.912,2.233,2.233,0,0,1-2.9-5.381,2.317,2.317,0,0,1-1.365-4.9,1.41,1.41,0,0,1-.82-3.726L-.83-3.7H-1.968a.744.744,0,0,0-.249-.562A.957.957,0,0,0-2.9-4.492a.978.978,0,0,0-.654.193.6.6,0,0,0-.225.471.529.529,0,0,0,.212.442,2.281,2.281,0,0,0,.862.291,3.631,3.631,0,0,1,1.477.579A1.22,1.22,0,0,1-.747-1.5,1.385,1.385,0,0,1-1.335-.342,2.507,2.507,0,0,1-2.886.1,2.366,2.366,0,0,1-4.512-.425a1.49,1.49,0,0,1-.566-1.211l.01-.029h1.1A.791.791,0,0,0-3.633-1a1.334,1.334,0,0,0,.762.21,1.217,1.217,0,0,0,.708-.176A.551.551,0,0,0-1.914-1.436ZM1.792-6.567v1.284h.947V-4.4H1.792v2.92a.637.637,0,0,0,.142.466.513.513,0,0,0,.376.139A1.049,1.049,0,0,0,2.5-.9a1.157,1.157,0,0,0,.176-.046L2.8-.073a1.361,1.361,0,0,1-.361.129A2.009,2.009,0,0,1,2.007.1,1.361,1.361,0,0,1,.981-.281a1.679,1.679,0,0,1-.371-1.2V-4.4H-.2v-.879H.61V-6.567ZM3.574-2.69a2.878,2.878,0,0,1,.645-1.934,2.222,2.222,0,0,1,1.772-.757,2.216,2.216,0,0,1,1.782.757A2.853,2.853,0,0,1,8.423-2.69v.1A2.867,2.867,0,0,1,7.773-.645,2.218,2.218,0,0,1,6,.1,2.231,2.231,0,0,1,4.219-.649a2.874,2.874,0,0,1-.645-1.938Zm1.187.1a2.359,2.359,0,0,0,.3,1.26A1.021,1.021,0,0,0,6-.845a1.026,1.026,0,0,0,.928-.483,2.3,2.3,0,0,0,.313-1.26v-.1a2.271,2.271,0,0,0-.312-1.245,1.029,1.029,0,0,0-.937-.493,1.021,1.021,0,0,0-.928.493,2.344,2.344,0,0,0-.3,1.245Zm5.781-2.7.063.688a1.791,1.791,0,0,1,.649-.581,1.915,1.915,0,0,1,.9-.205,1.63,1.63,0,0,1,.889.234,1.417,1.417,0,0,1,.557.7,1.851,1.851,0,0,1,.645-.688,1.738,1.738,0,0,1,.938-.249,1.562,1.562,0,0,1,1.257.544A2.51,2.51,0,0,1,16.9-3.184V0H15.718V-3.188a1.483,1.483,0,0,0-.232-.947.862.862,0,0,0-.7-.273,1.018,1.018,0,0,0-.645.205,1.143,1.143,0,0,0-.381.552q0,.073,0,.127t0,.1V0H12.588V-3.188a1.467,1.467,0,0,0-.237-.935.852.852,0,0,0-.7-.286,1.249,1.249,0,0,0-.613.139,1.026,1.026,0,0,0-.4.393V0H9.458V-5.283ZM-20.486,10V2.891h2.3a2.981,2.981,0,0,1,2.2.845,2.937,2.937,0,0,1,.847,2.173V6.987a2.926,2.926,0,0,1-.847,2.173,2.99,2.99,0,0,1-2.2.84ZM-19.3,3.843v5.21h1.084a1.752,1.752,0,0,0,1.389-.576,2.176,2.176,0,0,0,.505-1.489V5.9a2.161,2.161,0,0,0-.505-1.479,1.752,1.752,0,0,0-1.389-.576ZM-10.886,10q-.063-.2-.1-.391a2.792,2.792,0,0,1-.056-.381,2.1,2.1,0,0,1-.642.623,1.633,1.633,0,0,1-.891.251,1.756,1.756,0,0,1-1.267-.425,1.543,1.543,0,0,1-.442-1.167,1.378,1.378,0,0,1,.605-1.194,2.924,2.924,0,0,1,1.7-.427h.923V6.426a.858.858,0,0,0-.244-.649.968.968,0,0,0-.7-.234.989.989,0,0,0-.645.2.62.62,0,0,0-.239.5h-1.143l0-.029A1.309,1.309,0,0,1-13.472,5.1a2.369,2.369,0,0,1,1.545-.483,2.26,2.26,0,0,1,1.489.469,1.65,1.65,0,0,1,.566,1.348V8.784a4.331,4.331,0,0,0,.044.627A3.332,3.332,0,0,0-9.685,10Zm-1.455-.85a1.492,1.492,0,0,0,.808-.225,1.131,1.131,0,0,0,.476-.513V7.632H-12a1.19,1.19,0,0,0-.811.256.779.779,0,0,0-.293.6.615.615,0,0,0,.2.481A.814.814,0,0,0-12.341,9.15Zm5.19-5.718V4.717H-6.2V5.6h-.947v2.92a.637.637,0,0,0,.142.466.513.513,0,0,0,.376.139,1.049,1.049,0,0,0,.19-.017,1.158,1.158,0,0,0,.176-.046l.127.869a1.361,1.361,0,0,1-.361.129,2.009,2.009,0,0,1-.435.046,1.361,1.361,0,0,1-1.025-.383,1.679,1.679,0,0,1-.371-1.2V5.6h-.806V4.717h.806V3.433ZM-1.97,10q-.063-.2-.1-.391a2.792,2.792,0,0,1-.056-.381,2.1,2.1,0,0,1-.642.623,1.633,1.633,0,0,1-.891.251,1.756,1.756,0,0,1-1.267-.425,1.543,1.543,0,0,1-.442-1.167,1.378,1.378,0,0,1,.605-1.194,2.924,2.924,0,0,1,1.7-.427h.923V6.426a.858.858,0,0,0-.244-.649.968.968,0,0,0-.7-.234.989.989,0,0,0-.645.2.62.62,0,0,0-.239.5H-5.11l0-.029A1.309,1.309,0,0,1-4.556,5.1,2.369,2.369,0,0,1-3.01,4.619a2.26,2.26,0,0,1,1.489.469A1.65,1.65,0,0,1-.955,6.436V8.784a4.331,4.331,0,0,0,.044.627A3.332,3.332,0,0,0-.769,10Zm-1.455-.85a1.492,1.492,0,0,0,.808-.225,1.131,1.131,0,0,0,.476-.513V7.632h-.942a1.19,1.19,0,0,0-.811.256.779.779,0,0,0-.293.6.615.615,0,0,0,.2.481A.814.814,0,0,0-3.425,9.15ZM4.929,7.534A2.986,2.986,0,0,1,4.39,9.4a1.8,1.8,0,0,1-1.521.706,1.75,1.75,0,0,1-.857-.2A1.672,1.672,0,0,1,1.4,9.316L1.287,10h-1V2.383H1.477V5.317A1.7,1.7,0,0,1,2.063,4.8a1.679,1.679,0,0,1,.8-.181,1.758,1.758,0,0,1,1.531.771,3.493,3.493,0,0,1,.54,2.041Zm-1.187-.1A2.728,2.728,0,0,0,3.459,6.1a.955.955,0,0,0-.9-.508,1.175,1.175,0,0,0-.662.176,1.229,1.229,0,0,0-.422.488V8.472a1.164,1.164,0,0,0,.42.491,1.219,1.219,0,0,0,.674.173A.984.984,0,0,0,3.464,8.7a2.14,2.14,0,0,0,.278-1.169ZM9.133,10q-.063-.2-.1-.391a2.792,2.792,0,0,1-.056-.381,2.1,2.1,0,0,1-.642.623,1.633,1.633,0,0,1-.891.251,1.756,1.756,0,0,1-1.267-.425A1.543,1.543,0,0,1,5.73,8.511a1.378,1.378,0,0,1,.605-1.194,2.924,2.924,0,0,1,1.7-.427h.923V6.426a.858.858,0,0,0-.244-.649.968.968,0,0,0-.7-.234.989.989,0,0,0-.645.2.62.62,0,0,0-.239.5H5.994l0-.029A1.309,1.309,0,0,1,6.548,5.1a2.369,2.369,0,0,1,1.545-.483,2.26,2.26,0,0,1,1.489.469,1.65,1.65,0,0,1,.566,1.348V8.784a4.331,4.331,0,0,0,.044.627,3.332,3.332,0,0,0,.142.588ZM7.678,9.15a1.492,1.492,0,0,0,.808-.225,1.131,1.131,0,0,0,.476-.513V7.632H8.02a1.19,1.19,0,0,0-.811.256.779.779,0,0,0-.293.6.615.615,0,0,0,.2.481A.814.814,0,0,0,7.678,9.15Zm6.685-.586a.552.552,0,0,0-.234-.454,2.338,2.338,0,0,0-.874-.317,3.628,3.628,0,0,1-1.433-.569,1.192,1.192,0,0,1-.486-1A1.428,1.428,0,0,1,11.9,5.088a2.233,2.233,0,0,1,1.479-.469,2.317,2.317,0,0,1,1.536.476,1.41,1.41,0,0,1,.544,1.179l-.01.029H14.309a.744.744,0,0,0-.249-.562.957.957,0,0,0-.684-.234.978.978,0,0,0-.654.193.6.6,0,0,0-.225.471.529.529,0,0,0,.212.442,2.281,2.281,0,0,0,.862.291,3.631,3.631,0,0,1,1.477.579A1.22,1.22,0,0,1,15.53,8.5a1.385,1.385,0,0,1-.588,1.157,2.507,2.507,0,0,1-1.55.444,2.366,2.366,0,0,1-1.626-.527A1.49,1.49,0,0,1,11.2,8.364l.01-.029h1.1A.791.791,0,0,0,12.644,9a1.334,1.334,0,0,0,.762.21,1.217,1.217,0,0,0,.708-.176A.551.551,0,0,0,14.363,8.564Zm4.5,1.538a2.3,2.3,0,0,1-1.79-.735A2.7,2.7,0,0,1,16.4,7.48v-.2a2.8,2.8,0,0,1,.662-1.912,2.093,2.093,0,0,1,1.658-.754,2.065,2.065,0,0,1,1.638.647A2.535,2.535,0,0,1,20.93,7v.7h-3.3l-.01.024a1.664,1.664,0,0,0,.369,1.03,1.166,1.166,0,0,0,.94.4,2.541,2.541,0,0,0,.82-.117,2.688,2.688,0,0,0,.659-.337l.381.776A2.458,2.458,0,0,1,20,9.922,3.314,3.314,0,0,1,18.86,10.1Zm-.137-4.531A.89.89,0,0,0,18,5.92a1.719,1.719,0,0,0-.352.886l.01.024h2.095V6.709a1.264,1.264,0,0,0-.256-.82A.936.936,0,0,0,18.723,5.571Z" transform="translate(160.139 3284.987)" fill="#b4bbc6"/>
    <g id="Group_3585" data-name="Group 3585" transform="translate(-313.317 3133.758)">
      <path id="Path_4581" data-name="Path 4581" d="M472.757,94.611c-.546,0-13.368-.032-13.368-2.8s12.822-2.795,13.368-2.795,13.368.032,13.368,2.795S473.3,94.611,472.757,94.611Zm0-4.6c-7.8,0-12.14,1.168-12.378,1.821.238.617,4.577,1.785,12.378,1.785,7.728,0,12.06-1.146,12.371-1.8C484.816,91.159,480.484,90.013,472.757,90.013Z" transform="translate(0 0)" fill="#526279"/>
      <path id="Path_4582" data-name="Path 4582" d="M472.757,101.016c-.546,0-13.368-.032-13.368-2.8v-4.6a.5.5,0,0,1,.992,0c.235.636,4.575,1.8,12.376,1.8,7.777,0,12.114-1.16,12.375-1.816a.616.616,0,0,1,.006-.063.488.488,0,0,1,.492-.43.5.5,0,0,1,.495.505v4.6C486.124,100.984,473.3,101.016,472.757,101.016ZM460.381,94.81v3.41c.235.636,4.575,1.8,12.376,1.8s12.14-1.167,12.378-1.821l0-3.392c-3.02,1.586-11.923,1.608-12.376,1.608S463.4,96.4,460.381,94.81Z" transform="translate(0 -1.806)" fill="#526279"/>
      <path id="Path_4583" data-name="Path 4583" d="M472.757,132.654c-.546,0-13.368-.031-13.368-2.795v-4.6a.5.5,0,0,1,.992,0c.235.636,4.575,1.8,12.376,1.8,7.776,0,12.113-1.16,12.375-1.815a.616.616,0,0,1,.006-.063.489.489,0,0,1,.492-.43.5.5,0,0,1,.495.505v4.6C486.124,132.623,473.3,132.654,472.757,132.654Zm-12.376-6.205v3.41c.235.636,4.575,1.8,12.376,1.8s12.14-1.167,12.378-1.821l0-3.392c-3.02,1.586-11.923,1.608-12.376,1.608S463.4,128.035,460.381,126.449Z" transform="translate(0 -15.76)" fill="#526279"/>
      <path id="Path_4584" data-name="Path 4584" d="M466.23,101.287a.49.49,0,0,1-.075-.006c-.844-.129-1.6-.277-2.235-.44a.5.5,0,0,1,.245-.962c.608.155,1.328.3,2.14.421a.5.5,0,0,1-.074.987Z" transform="translate(-1.833 -4.782)" fill="#526279"/>
      <path id="Path_4585" data-name="Path 4585" d="M475.1,102.348q-1.282-.06-2.437-.163a.5.5,0,0,1-.451-.538.489.489,0,0,1,.538-.45c.756.067,1.555.12,2.372.159a.5.5,0,0,1-.023.992Z" transform="translate(-5.655 -5.369)" fill="#526279"/>
      <path id="Path_4586" data-name="Path 4586" d="M492.016,102.217a.5.5,0,0,1-.5-.5v-4.6a.5.5,0,0,1,.458-.495c1.164-.09,2.247-.21,3.218-.358a.5.5,0,0,1,.571.491v4.6a.5.5,0,0,1-.421.49c-1,.151-2.1.275-3.292.366Zm.5-4.637v3.6c.8-.07,1.558-.154,2.263-.253v-3.6C494.067,97.43,493.31,97.512,492.512,97.58Z" transform="translate(-14.171 -3.195)" fill="#526279"/>
      <path id="Path_4587" data-name="Path 4587" d="M473.977,108.243c-.482,0-11.821-.029-11.821-2.519v-1.912a.5.5,0,0,1,.651-.471c2.209.728,6.489,1.181,11.17,1.181s8.961-.452,11.17-1.181a.5.5,0,0,1,.651.471v1.912C485.8,108.214,474.459,108.243,473.977,108.243ZM463.148,105.7c.328.565,4.177,1.553,10.829,1.553s10.5-.988,10.829-1.553v-1.222a57,57,0,0,1-21.658,0Z" transform="translate(-1.22 -6.304)" fill="#526279"/>
      <path id="Path_4588" data-name="Path 4588" d="M472.757,116.842c-.546,0-13.368-.032-13.368-2.795v-4.6a.5.5,0,1,1,.992,0c.235.636,4.575,1.8,12.376,1.8,7.777,0,12.114-1.16,12.375-1.815,0-.021,0-.042.006-.064a.488.488,0,0,1,.492-.429.5.5,0,0,1,.495.505v4.6C486.124,116.81,473.3,116.842,472.757,116.842Zm-12.376-6.205v3.41c.235.635,4.575,1.8,12.376,1.8s12.14-1.168,12.378-1.821l0-3.392c-3.02,1.586-11.923,1.608-12.376,1.608S463.4,112.223,460.381,110.637Z" transform="translate(0 -8.787)" fill="#526279"/>
      <path id="Path_4589" data-name="Path 4589" d="M466.23,117.114a.488.488,0,0,1-.075-.006c-.844-.129-1.6-.277-2.235-.44a.5.5,0,1,1,.245-.961c.608.155,1.328.3,2.14.42a.5.5,0,0,1-.074.987Z" transform="translate(-1.833 -11.762)" fill="#526279"/>
      <path id="Path_4590" data-name="Path 4590" d="M475.1,118.174q-1.282-.06-2.437-.162a.5.5,0,0,1-.451-.538.489.489,0,0,1,.538-.451c.756.067,1.555.121,2.372.159a.5.5,0,0,1-.023.992Z" transform="translate(-5.655 -12.349)" fill="#526279"/>
      <path id="Path_4591" data-name="Path 4591" d="M492.016,118.044a.5.5,0,0,1-.5-.5v-4.6a.5.5,0,0,1,.458-.494c1.164-.09,2.247-.21,3.218-.358a.5.5,0,0,1,.571.491v4.6a.5.5,0,0,1-.421.491c-1,.151-2.1.274-3.292.366Zm.5-4.637v3.6c.8-.07,1.558-.154,2.263-.253v-3.6C494.067,113.256,493.31,113.339,492.512,113.407Z" transform="translate(-14.171 -10.175)" fill="#526279"/>
      <path id="Path_4592" data-name="Path 4592" d="M492.016,133.856a.5.5,0,0,1-.5-.5v-4.6a.5.5,0,0,1,.458-.495c1.165-.09,2.248-.211,3.218-.358a.5.5,0,0,1,.4.114.5.5,0,0,1,.173.376V133a.5.5,0,0,1-.421.491c-.995.151-2.1.274-3.292.366Zm.5-4.637v3.6c.8-.07,1.559-.154,2.263-.253v-3.6C494.068,129.068,493.31,129.151,492.512,129.219Z" transform="translate(-14.171 -17.149)" fill="#526279"/>
      <path id="Path_4593" data-name="Path 4593" d="M473.977,124.069c-.482,0-11.821-.029-11.821-2.519v-1.912a.5.5,0,0,1,.651-.471c2.209.728,6.489,1.181,11.17,1.181s8.961-.452,11.17-1.181a.5.5,0,0,1,.651.471v1.912C485.8,124.041,474.459,124.069,473.977,124.069Zm-10.829-2.546c.328.565,4.177,1.553,10.829,1.553s10.5-.989,10.829-1.553V120.3a57.036,57.036,0,0,1-21.658,0Z" transform="translate(-1.22 -13.284)" fill="#526279"/>
      <path id="Path_4594" data-name="Path 4594" d="M472.757,111.381c-.546,0-13.368-.032-13.368-2.8,0-.851,1.095-1.306,1.919-1.575a.494.494,0,0,1,.617.294c.274.56,4.13,1.564,10.832,1.564s10.557-1,10.832-1.566a.493.493,0,0,1,.617-.292c.823.268,1.919.724,1.919,1.575C486.124,111.349,473.3,111.381,472.757,111.381Zm-11.465-3.313c-.807.3-.912.534-.913.536.238.617,4.577,1.784,12.378,1.784s12.128-1.164,12.377-1.818a2.317,2.317,0,0,0-.912-.5c-1.523,1.4-7.748,1.794-11.465,1.794S462.815,109.472,461.292,108.068Z" transform="translate(0 -7.923)" fill="#526279"/>
      <path id="Path_4595" data-name="Path 4595" d="M472.757,127.194c-.546,0-13.368-.032-13.368-2.8,0-.85,1.093-1.305,1.916-1.574a.5.5,0,0,1,.62.3c.274.559,4.13,1.563,10.832,1.563s10.558-1,10.833-1.566a.492.492,0,0,1,.619-.3c.823.268,1.916.723,1.916,1.574C486.124,127.162,473.3,127.194,472.757,127.194Zm-11.471-3.311c-.8.3-.907.532-.907.534.238.617,4.577,1.784,12.378,1.784s12.128-1.164,12.377-1.818a2.3,2.3,0,0,0-.907-.5c-1.515,1.408-7.744,1.8-11.471,1.8S462.8,125.291,461.286,123.883Z" transform="translate(0 -14.898)" fill="#526279"/>
      <path id="Path_4596" data-name="Path 4596" d="M463.905,135.095a.5.5,0,0,1-.5-.5v-1.544a.5.5,0,0,1,.993,0V134.6A.5.5,0,0,1,463.905,135.095Z" transform="translate(-1.773 -19.201)" fill="#526279"/>
      <path id="Path_4597" data-name="Path 4597" d="M468.21,134.96a.5.5,0,0,1-.5-.5v-2.783a.5.5,0,1,1,.993,0v2.783A.5.5,0,0,1,468.21,134.96Z" transform="translate(-3.672 -18.596)" fill="#526279"/>
    </g>
  </g>
</svg>
