<svg xmlns="http://www.w3.org/2000/svg" xmlns:xlink="http://www.w3.org/1999/xlink" width="474.957" height="867.016" viewBox="0 0 474.957 867.016">
  <defs>
    <filter id="Path_4526" x="0" y="210.81" width="474.957" height="474.956" filterUnits="userSpaceOnUse">
      <feOffset dy="20" input="SourceAlpha"/>
      <feGaussianBlur stdDeviation="49.5" result="blur"/>
      <feFlood flood-color="#3c485a" flood-opacity="0.149"/>
      <feComposite operator="in" in2="blur"/>
      <feComposite in="SourceGraphic"/>
    </filter>
    <filter id="Path_4528" x="47.597" y="0" width="376.198" height="376.198" filterUnits="userSpaceOnUse">
      <feOffset dy="5" input="SourceAlpha"/>
      <feGaussianBlur stdDeviation="49.5" result="blur-2"/>
      <feFlood flood-color="#3c485a" flood-opacity="0.102"/>
      <feComposite operator="in" in2="blur-2"/>
      <feComposite in="SourceGraphic"/>
    </filter>
    <filter id="Path_4522" x="47.596" y="490.817" width="376.198" height="376.198" filterUnits="userSpaceOnUse">
      <feOffset dy="5" input="SourceAlpha"/>
      <feGaussianBlur stdDeviation="49.5" result="blur-3"/>
      <feFlood flood-color="#3c485a" flood-opacity="0.102"/>
      <feComposite operator="in" in2="blur-3"/>
      <feComposite in="SourceGraphic"/>
    </filter>
  </defs>
  <g id="Group_3772" data-name="Group 3772" transform="translate(-326.524 7.581)">
    <path id="Path_4527" data-name="Path 4527" d="M0,0V100" transform="translate(562.907 206.443)" fill="none" stroke="#cccdd7" stroke-linecap="round" stroke-width="3" stroke-dasharray="1 10"/>
    <path id="Path_4524" data-name="Path 4524" d="M0,0V100" transform="translate(561.533 635.41) rotate(180)" fill="none" stroke="#cccdd7" stroke-linecap="round" stroke-width="3" stroke-dasharray="1 10"/>
    <path id="Path_4525" data-name="Path 4525" d="M114.484,0A114.484,114.484,0,1,1,0,114.484,114.484,114.484,0,0,1,114.484,0Z" transform="translate(678.268 306.443) rotate(90)" fill="none" stroke="#d82125" stroke-linecap="round" stroke-width="3" stroke-dasharray="1 10"/>
    <g transform="matrix(1, 0, 0, 1, 326.52, -7.58)" filter="url(#Path_4526)">
      <path id="Path_4526-2" data-name="Path 4526" d="M88.979,0A88.978,88.978,0,1,1,0,88.978,88.978,88.978,0,0,1,88.979,0Z" transform="translate(148.5 339.31)" fill="#fff"/>
    </g>
    <g id="Group_3147" data-name="Group 3147" transform="translate(519.062 368.39)">
      <path id="Path_1150" data-name="Path 1150" d="M576.165,215.052c-.015.061-.03.124-.043.186a32.561,32.561,0,0,0,3.241,22.918c.165.3.34.583.506.878a2.489,2.489,0,0,1,.5,1.708,2.112,2.112,0,0,1-.937,1.423,4.371,4.371,0,0,1-.819.291c-.32.057-.643.116-.969.159a15.376,15.376,0,0,1-1.99.129,15.223,15.223,0,0,1-2.14-30.294c.041-.005.082-.008.122-.016a2.254,2.254,0,0,1,1.7.242,1.977,1.977,0,0,1,.825,2.378" transform="translate(-560.433 -167.65)" fill="#3d3d3d"/>
      <ellipse id="Ellipse_123" data-name="Ellipse 123" cx="28.414" cy="28.414" rx="28.414" ry="28.414" transform="translate(18.942 26.384)" fill="#d82225"/>
      <path id="Path_1151" data-name="Path 1151" d="M605.389,191.02c.627-.036.761-.02,1.4-.02a32.4,32.4,0,0,1,24.31,10.944,2.791,2.791,0,0,0,1.9,1.266,2.342,2.342,0,0,0,1.924-.666l.463-.393a19.279,19.279,0,1,0-32.322-14.194,3.818,3.818,0,0,0,.193,1.617,2.24,2.24,0,0,0,2.128,1.447" transform="translate(-559.433 -168.675)" fill="#262626"/>
      <path id="Path_1152" data-name="Path 1152" d="M634.789,242.158q.248.332.476.681a12.854,12.854,0,1,1-21.757,13.69c-.1-.169-.2-.344-.3-.515a1.716,1.716,0,0,1-.229-1.638,1.836,1.836,0,0,1,1.521-1.113,9.952,9.952,0,0,0,1.057-.286,32.485,32.485,0,0,0,15.623-10.039c.2-.236.394-.484.6-.718a2.122,2.122,0,0,1,.956-.81,1.669,1.669,0,0,1,1.47.163A1.993,1.993,0,0,1,634.789,242.158Z" transform="translate(-559.203 -166.971)" fill="#3d3d3d"/>
    </g>
    <g transform="matrix(1, 0, 0, 1, 326.52, -7.58)" filter="url(#Path_4528)">
      <path id="Path_4528-2" data-name="Path 4528" d="M8.867,0H69.332A8.867,8.867,0,0,1,78.2,8.867V69.332A8.867,8.867,0,0,1,69.332,78.2H8.867A8.867,8.867,0,0,1,0,69.332V8.867A8.867,8.867,0,0,1,8.867,0Z" transform="translate(196.6 144)" fill="#fff" stroke="#b4bbc6" stroke-width="1"/>
    </g>
    <g transform="matrix(1, 0, 0, 1, 326.52, -7.58)" filter="url(#Path_4522)">
      <path id="Path_4522-2" data-name="Path 4522" d="M8.867,0H69.332A8.867,8.867,0,0,1,78.2,8.867V69.332A8.867,8.867,0,0,1,69.332,78.2H8.867A8.867,8.867,0,0,1,0,69.332V8.867A8.867,8.867,0,0,1,8.867,0Z" transform="translate(274.79 713.02) rotate(180)" fill="#fff" stroke="#b4bbc6" stroke-width="1"/>
    </g>
    <path id="Path_4719" data-name="Path 4719" d="M-18.9-2.739a1.373,1.373,0,0,0-.494-1.091,4.643,4.643,0,0,0-1.747-.762,7.389,7.389,0,0,1-2.75-1.241,2.472,2.472,0,0,1-.963-2.025,2.586,2.586,0,0,1,1.066-2.124,4.328,4.328,0,0,1,2.75-.835,4.1,4.1,0,0,1,2.823.945A2.82,2.82,0,0,1-17.183-7.6l-.015.044H-18.9a1.717,1.717,0,0,0-.557-1.329A2.273,2.273,0,0,0-21.05-9.4a2.324,2.324,0,0,0-1.5.425,1.35,1.35,0,0,0-.524,1.1A1.2,1.2,0,0,0-22.5-6.863a6.286,6.286,0,0,0,1.879.762A6.256,6.256,0,0,1-18.01-4.827a2.678,2.678,0,0,1,.894,2.073,2.5,2.5,0,0,1-1.066,2.12,4.6,4.6,0,0,1-2.8.787,4.977,4.977,0,0,1-2.93-.883,2.713,2.713,0,0,1-1.223-2.421l.015-.044h1.714a1.666,1.666,0,0,0,.674,1.454,2.951,2.951,0,0,0,1.75.48,2.578,2.578,0,0,0,1.538-.4A1.267,1.267,0,0,0-18.9-2.739Zm5.186-4.16a2.825,2.825,0,0,1,.963-.864,2.593,2.593,0,0,1,1.256-.308,2.5,2.5,0,0,1,1.967.795,3.607,3.607,0,0,1,.707,2.45V0H-10.6V-4.841A2.006,2.006,0,0,0-10.972-6.2a1.427,1.427,0,0,0-1.121-.417,1.987,1.987,0,0,0-.934.216,1.92,1.92,0,0,0-.685.6V0h-1.78V-11.426h1.78ZM-7.3-4.036a4.317,4.317,0,0,1,.967-2.9A3.334,3.334,0,0,1-3.677-8.071,3.324,3.324,0,0,1-1-6.936a4.279,4.279,0,0,1,.974,2.9v.154A4.3,4.3,0,0,1-1-.967,3.327,3.327,0,0,1-3.662.154,3.347,3.347,0,0,1-6.335-.974,4.31,4.31,0,0,1-7.3-3.882Zm1.78.154a3.539,3.539,0,0,0,.454,1.89,1.531,1.531,0,0,0,1.406.725,1.539,1.539,0,0,0,1.392-.725A3.451,3.451,0,0,0-1.8-3.882v-.154A3.407,3.407,0,0,0-2.271-5.9a1.544,1.544,0,0,0-1.406-.74,1.531,1.531,0,0,0-1.392.74,3.516,3.516,0,0,0-.454,1.868ZM8.467-3.7A4.468,4.468,0,0,1,7.654-.908,2.689,2.689,0,0,1,5.391.154,2.8,2.8,0,0,1,4.2-.088,2.457,2.457,0,0,1,3.3-.8V3.047H1.523V-7.925h1.5l.176,1a2.643,2.643,0,0,1,.919-.85,2.572,2.572,0,0,1,1.249-.293A2.632,2.632,0,0,1,7.65-6.91a5.208,5.208,0,0,1,.817,3.058ZM6.694-3.853a3.861,3.861,0,0,0-.458-1.989,1.489,1.489,0,0,0-1.366-.773,1.774,1.774,0,0,0-.945.238,1.752,1.752,0,0,0-.623.663v3.582a1.656,1.656,0,0,0,.623.641,1.9,1.9,0,0,0,.959.223,1.527,1.527,0,0,0,1.359-.67A3.1,3.1,0,0,0,6.694-3.7ZM11.917,0h-1.78V-7.925h1.78Zm0-9.866h-1.78v-1.56h1.78ZM14.487,0V-6.606H13.279V-7.925h1.208v-.923a2.726,2.726,0,0,1,.714-2.021,2.716,2.716,0,0,1,2-.71,3.44,3.44,0,0,1,.52.04q.264.04.593.114l-.183,1.377q-.146-.029-.326-.051a3.17,3.17,0,0,0-.385-.022,1.094,1.094,0,0,0-.868.33,1.389,1.389,0,0,0-.289.945v.923h1.611v1.318H16.267V0ZM21.8-3.179l.176.791h.044L23.76-7.925h1.948L22.427,1.2a4.069,4.069,0,0,1-.886,1.414,2.157,2.157,0,0,1-1.619.586,2.766,2.766,0,0,1-.472-.044q-.253-.044-.487-.1l.2-1.377.271.022q.176.015.264.015a.977.977,0,0,0,.773-.33A2.8,2.8,0,0,0,20.94.623L21.233-.1l-2.878-7.83H20.3Z" transform="translate(563 115)" fill="#b4bbc6"/>
    <g id="Group_3689" data-name="Group 3689" transform="translate(542.065 152.598)">
      <path id="Path_1417" data-name="Path 1417" d="M35.343,9.7a.443.443,0,0,0-.4-.372c-.166-.014-3.69-.275-3.69-.275s-2.447-2.429-2.716-2.7a1.113,1.113,0,0,0-1-.127l-1.37.423c-.818-2.352-2.26-4.514-4.8-4.514-.07,0-.142,0-.214.007A3.084,3.084,0,0,0,18.77.779c-5.912,0-8.736,7.391-9.622,11.146L5.01,13.209c-1.282.4-1.323.443-1.491,1.651C3.392,15.774.037,41.721.037,41.721l26.144,4.9,14.166-3.064s-4.973-33.62-5-33.851ZM24.725,7.1l-2.212.685c0-.156,0-.309,0-.477a10.851,10.851,0,0,0-.528-3.572C23.294,3.9,24.165,5.39,24.725,7.1ZM20.364,4.027a10.966,10.966,0,0,1,.6,3.983c0,.09,0,.173,0,.256L16.394,9.681c.88-3.4,2.529-5.035,3.97-5.654ZM18.608,2.365a1.335,1.335,0,0,1,.758.256c-1.895.892-3.926,3.137-4.783,7.621L10.971,11.36c1-3.42,3.39-9,7.636-9Z" transform="translate(-0.037 -0.779)" fill="#95bf46"/>
      <path id="Path_1418" data-name="Path 1418" d="M174.484,38.189c-.166-.014-3.69-.275-3.69-.275s-2.447-2.429-2.716-2.7a.67.67,0,0,0-.378-.173l-1.977,40.434,14.164-3.064s-4.973-33.62-5-33.851a.443.443,0,0,0-.4-.372" transform="translate(-139.579 -29.635)" fill="#5e8e3e"/>
      <path id="Path_1419" data-name="Path 1419" d="M54.373,100.932l-1.747,5.2a8.035,8.035,0,0,0-3.406-.817c-2.75,0-2.889,1.726-2.889,2.161,0,2.373,6.186,3.282,6.186,8.841,0,4.373-2.774,7.189-6.514,7.189a9.062,9.062,0,0,1-6.783-2.793l1.2-3.97s2.359,2.025,4.35,2.025a1.755,1.755,0,0,0,1.83-1.772c0-3.1-5.075-3.233-5.075-8.32,0-4.281,3.073-8.424,9.275-8.424a7.631,7.631,0,0,1,3.571.685" transform="translate(-33.038 -84.551)" fill="#fff"/>
    </g>
    <g id="Group_3765" data-name="Group 3765" transform="translate(522.102 481.592)">
      <path id="Path_4562" data-name="Path 4562" d="M35.083,182.611H17.789a2.426,2.426,0,0,1-2.424-2.424V167.17a2.427,2.427,0,0,1,2.424-2.425H22.9a.891.891,0,0,1,.658.291l3.271,3.6h8.254a2.427,2.427,0,0,1,2.425,2.424v9.125A2.427,2.427,0,0,1,35.083,182.611ZM17.789,166.52a.65.65,0,0,0-.649.65v13.017a.65.65,0,0,0,.649.649H35.083a.65.65,0,0,0,.65-.649v-9.125a.65.65,0,0,0-.65-.649H26.436a.888.888,0,0,1-.657-.291l-3.271-3.6Z" fill="#526279"/>
      <path id="Path_4563" data-name="Path 4563" d="M26.436,170.413H22.159a.887.887,0,1,1,0-1.775h4.277a.887.887,0,1,1,0,1.775Z" fill="#526279"/>
      <path id="Path_4564" data-name="Path 4564" d="M35.083,208.369H17.789a2.426,2.426,0,0,1-2.424-2.424V192.928a2.426,2.426,0,0,1,2.424-2.424H22.9a.89.89,0,0,1,.658.29l3.271,3.6h8.254a2.427,2.427,0,0,1,2.425,2.424v9.125A2.427,2.427,0,0,1,35.083,208.369Zm-17.294-16.09a.65.65,0,0,0-.649.649v13.017a.65.65,0,0,0,.649.649H35.083a.651.651,0,0,0,.65-.649V196.82a.65.65,0,0,0-.65-.649H26.436a.888.888,0,0,1-.657-.29l-3.271-3.6Z" fill="#526279"/>
      <path id="Path_4565" data-name="Path 4565" d="M26.436,196.171H22.159a.888.888,0,1,1,0-1.775h4.277a.888.888,0,1,1,0,1.775Z" fill="#526279"/>
      <path id="Path_4566" data-name="Path 4566" d="M45.251,201.993H36.62a.887.887,0,0,1,0-1.775h7.743v-8.827a.887.887,0,0,1,.888-.887H49.7a.888.888,0,1,1,0,1.775h-3.56V201.1A.888.888,0,0,1,45.251,201.993Z" fill="#526279"/>
      <path id="Path_4567" data-name="Path 4567" d="M49.587,185.6H45.251a.887.887,0,0,1-.888-.887v-8.38H36.62a.888.888,0,0,1,0-1.775h8.631a.887.887,0,0,1,.887.887v8.38h3.449a.887.887,0,1,1,0,1.775Z" fill="#526279"/>
      <path id="Path_4568" data-name="Path 4568" d="M58.082,197.953a9.917,9.917,0,1,1,0-19.834.887.887,0,0,1,0,1.775,8.142,8.142,0,1,0,8.141,8.142.888.888,0,0,1,1.776,0A9.928,9.928,0,0,1,58.082,197.953Z" fill="#526279"/>
      <path id="Path_4569" data-name="Path 4569" d="M58.082,193.617a5.581,5.581,0,1,1,5.58-5.581A5.587,5.587,0,0,1,58.082,193.617Zm0-9.386a3.805,3.805,0,1,0,3.805,3.8A3.81,3.81,0,0,0,58.082,184.231Z" fill="#526279"/>
      <path id="Path_4570" data-name="Path 4570" d="M58.082,188.924a.888.888,0,0,1-.888-.888v-4.692a.888.888,0,1,1,1.775,0v4.692A.888.888,0,0,1,58.082,188.924Z" fill="#526279"/>
    </g>
    <path id="Path_4816" data-name="Path 4816" d="M-18.146-4.245h-4.361V0h-1.661V-9.953h6.72V-8.62h-5.059v3.042h4.361ZM-14.489,0H-16.15V-10.664h1.661Zm6.31,0q-.089-.28-.147-.547A3.909,3.909,0,0,1-8.4-1.08a2.935,2.935,0,0,1-.9.872,2.287,2.287,0,0,1-1.248.352,2.459,2.459,0,0,1-1.774-.595,2.16,2.16,0,0,1-.619-1.634A1.93,1.93,0,0,1-12.1-3.756a4.093,4.093,0,0,1,2.386-.6h1.292V-5a1.2,1.2,0,0,0-.342-.909,1.356,1.356,0,0,0-.978-.328,1.384,1.384,0,0,0-.9.273.868.868,0,0,0-.335.7h-1.6l-.007-.041A1.832,1.832,0,0,1-11.8-6.856a3.317,3.317,0,0,1,2.164-.677,3.164,3.164,0,0,1,2.085.656A2.31,2.31,0,0,1-6.757-4.99V-1.7A6.064,6.064,0,0,0-6.7-.824,4.664,4.664,0,0,0-6.5,0Zm-2.037-1.189A2.088,2.088,0,0,0-9.085-1.5a1.583,1.583,0,0,0,.667-.718V-3.315H-9.738a1.666,1.666,0,0,0-1.135.359,1.09,1.09,0,0,0-.41.844.861.861,0,0,0,.277.673A1.14,1.14,0,0,0-10.216-1.189Zm7.267-8v1.8h1.326v1.23H-2.95v4.088a.891.891,0,0,0,.2.653.718.718,0,0,0,.526.195,1.469,1.469,0,0,0,.267-.024,1.62,1.62,0,0,0,.246-.065L-1.535-.1a1.9,1.9,0,0,1-.506.181,2.812,2.812,0,0,1-.608.065A1.9,1.9,0,0,1-4.084-.393,2.35,2.35,0,0,1-4.6-2.078V-6.166H-5.732V-7.4H-4.6v-1.8ZM9.574-4.245H5.212V0H3.551V-9.953h6.72V-8.62H5.212v3.042H9.574ZM13.231,0H11.57V-7.4h1.661Zm0-9.208H11.57v-1.456h1.661ZM16.861,0H15.2V-10.664h1.661Zm5.031.144A3.216,3.216,0,0,1,19.387-.885a3.782,3.782,0,0,1-.933-2.642V-3.8a3.927,3.927,0,0,1,.926-2.676A2.93,2.93,0,0,1,21.7-7.533a2.891,2.891,0,0,1,2.293.906,3.549,3.549,0,0,1,.8,2.43v.978H20.176l-.014.034a2.329,2.329,0,0,0,.516,1.442,1.632,1.632,0,0,0,1.316.561,3.557,3.557,0,0,0,1.148-.164,3.763,3.763,0,0,0,.923-.472L24.6-.731a3.441,3.441,0,0,1-1.107.622A4.64,4.64,0,0,1,21.892.144ZM21.7-6.2a1.246,1.246,0,0,0-1.012.489A2.407,2.407,0,0,0,20.2-4.471l.014.034h2.933v-.171a1.77,1.77,0,0,0-.359-1.148A1.31,1.31,0,0,0,21.7-6.2Z" transform="translate(562.377 738.961)" fill="#b4bbc6" opacity="0.998"/>
  </g>
</svg>
