<svg xmlns="http://www.w3.org/2000/svg" xmlns:xlink="http://www.w3.org/1999/xlink" width="474.957" height="867.016" viewBox="0 0 474.957 867.016">
  <defs>
    <filter id="Path_4526" x="0" y="210.81" width="474.957" height="474.956" filterUnits="userSpaceOnUse">
      <feOffset dy="20" input="SourceAlpha"/>
      <feGaussianBlur stdDeviation="49.5" result="blur"/>
      <feFlood flood-color="#3c485a" flood-opacity="0.149"/>
      <feComposite operator="in" in2="blur"/>
      <feComposite in="SourceGraphic"/>
    </filter>
    <filter id="Path_4522" x="47.596" y="490.817" width="376.198" height="376.198" filterUnits="userSpaceOnUse">
      <feOffset dy="5" input="SourceAlpha"/>
      <feGaussianBlur stdDeviation="49.5" result="blur-2"/>
      <feFlood flood-color="#3c485a" flood-opacity="0.102"/>
      <feComposite operator="in" in2="blur-2"/>
      <feComposite in="SourceGraphic"/>
    </filter>
    <filter id="Path_4528" x="47.597" y="0" width="376.198" height="376.198" filterUnits="userSpaceOnUse">
      <feOffset dy="5" input="SourceAlpha"/>
      <feGaussianBlur stdDeviation="49.5" result="blur-3"/>
      <feFlood flood-color="#3c485a" flood-opacity="0.102"/>
      <feComposite operator="in" in2="blur-3"/>
      <feComposite in="SourceGraphic"/>
    </filter>
  </defs>
  <g id="Group_3777" data-name="Group 3777" transform="translate(43.476 7.581)">
    <path id="Path_4527" data-name="Path 4527" d="M0,0V100" transform="translate(192.907 206.443)" fill="none" stroke="#cccdd7" stroke-linecap="round" stroke-width="3" stroke-dasharray="1 10"/>
    <path id="Path_4524" data-name="Path 4524" d="M0,0V100" transform="translate(191.533 635.41) rotate(180)" fill="none" stroke="#cccdd7" stroke-linecap="round" stroke-width="3" stroke-dasharray="1 10"/>
    <path id="Path_4525" data-name="Path 4525" d="M114.484,0A114.484,114.484,0,1,1,0,114.484,114.484,114.484,0,0,1,114.484,0Z" transform="translate(308.268 306.443) rotate(90)" fill="none" stroke="#d82125" stroke-linecap="round" stroke-width="3" stroke-dasharray="1 10"/>
    <g transform="matrix(1, 0, 0, 1, -43.48, -7.58)" filter="url(#Path_4526)">
      <path id="Path_4526-2" data-name="Path 4526" d="M88.979,0A88.978,88.978,0,1,1,0,88.978,88.978,88.978,0,0,1,88.979,0Z" transform="translate(148.5 339.31)" fill="#fff"/>
    </g>
    <g id="Group_3147" data-name="Group 3147" transform="translate(149.062 368.39)">
      <path id="Path_1150" data-name="Path 1150" d="M576.165,215.052c-.015.061-.03.124-.043.186a32.561,32.561,0,0,0,3.241,22.918c.165.3.34.583.506.878a2.489,2.489,0,0,1,.5,1.708,2.112,2.112,0,0,1-.937,1.423,4.371,4.371,0,0,1-.819.291c-.32.057-.643.116-.969.159a15.376,15.376,0,0,1-1.99.129,15.223,15.223,0,0,1-2.14-30.294c.041-.005.082-.008.122-.016a2.254,2.254,0,0,1,1.7.242,1.977,1.977,0,0,1,.825,2.378" transform="translate(-560.433 -167.65)" fill="#3d3d3d"/>
      <ellipse id="Ellipse_123" data-name="Ellipse 123" cx="28.414" cy="28.414" rx="28.414" ry="28.414" transform="translate(18.942 26.384)" fill="#d82225"/>
      <path id="Path_1151" data-name="Path 1151" d="M605.389,191.02c.627-.036.761-.02,1.4-.02a32.4,32.4,0,0,1,24.31,10.944,2.791,2.791,0,0,0,1.9,1.266,2.342,2.342,0,0,0,1.924-.666l.463-.393a19.279,19.279,0,1,0-32.322-14.194,3.818,3.818,0,0,0,.193,1.617,2.24,2.24,0,0,0,2.128,1.447" transform="translate(-559.433 -168.675)" fill="#262626"/>
      <path id="Path_1152" data-name="Path 1152" d="M634.789,242.158q.248.332.476.681a12.854,12.854,0,1,1-21.757,13.69c-.1-.169-.2-.344-.3-.515a1.716,1.716,0,0,1-.229-1.638,1.836,1.836,0,0,1,1.521-1.113,9.952,9.952,0,0,0,1.057-.286,32.485,32.485,0,0,0,15.623-10.039c.2-.236.394-.484.6-.718a2.122,2.122,0,0,1,.956-.81,1.669,1.669,0,0,1,1.47.163A1.993,1.993,0,0,1,634.789,242.158Z" transform="translate(-559.203 -166.971)" fill="#3d3d3d"/>
    </g>
    <g transform="matrix(1, 0, 0, 1, -43.48, -7.58)" filter="url(#Path_4522)">
      <path id="Path_4522-2" data-name="Path 4522" d="M8.867,0H69.332A8.867,8.867,0,0,1,78.2,8.867V69.332A8.867,8.867,0,0,1,69.332,78.2H8.867A8.867,8.867,0,0,1,0,69.332V8.867A8.867,8.867,0,0,1,8.867,0Z" transform="translate(274.79 713.02) rotate(180)" fill="#fff" stroke="#b4bbc6" stroke-width="1"/>
    </g>
    <path id="Path_4724" data-name="Path 4724" d="M-53.558,0V-10.664h3.545a4.612,4.612,0,0,1,2.769.729,2.525,2.525,0,0,1,1,2.179,2.142,2.142,0,0,1-.417,1.3,2.465,2.465,0,0,1-1.157.85,2.378,2.378,0,0,1,1.465.916,2.7,2.7,0,0,1,.513,1.633A2.74,2.74,0,0,1-46.827-.78a4.247,4.247,0,0,1-2.71.78Zm1.78-4.849v3.428h2.241a2.141,2.141,0,0,0,1.421-.421,1.508,1.508,0,0,0,.5-1.219,1.915,1.915,0,0,0-.417-1.318,1.66,1.66,0,0,0-1.3-.469Zm0-1.326h1.963a2.007,2.007,0,0,0,1.307-.392,1.352,1.352,0,0,0,.48-1.11,1.383,1.383,0,0,0-.505-1.176,2.415,2.415,0,0,0-1.479-.385h-1.765ZM-37.233,0h-7.083V-1.223l3.472-3.787a8.427,8.427,0,0,0,1.172-1.527,2.45,2.45,0,0,0,.322-1.168,1.773,1.773,0,0,0-.417-1.2,1.414,1.414,0,0,0-1.128-.483,1.738,1.738,0,0,0-1.392.527,2.15,2.15,0,0,0-.454,1.45h-1.721l-.015-.044a3.134,3.134,0,0,1,.93-2.391,3.575,3.575,0,0,1,2.651-.97,3.384,3.384,0,0,1,2.432.85,2.922,2.922,0,0,1,.894,2.219A3.278,3.278,0,0,1-38.086-6a14.749,14.749,0,0,1-1.6,2.029l-2.373,2.5.022.044h4.8Zm1.809,0V-10.664h3.545a4.612,4.612,0,0,1,2.769.729,2.525,2.525,0,0,1,1,2.179,2.142,2.142,0,0,1-.417,1.3,2.465,2.465,0,0,1-1.157.85,2.378,2.378,0,0,1,1.465.916,2.7,2.7,0,0,1,.513,1.633A2.74,2.74,0,0,1-28.693-.78,4.247,4.247,0,0,1-31.4,0Zm1.78-4.849v3.428H-31.4a2.141,2.141,0,0,0,1.421-.421,1.508,1.508,0,0,0,.5-1.219A1.915,1.915,0,0,0-29.9-4.38a1.66,1.66,0,0,0-1.3-.469Zm0-1.326h1.963a2.007,2.007,0,0,0,1.307-.392,1.352,1.352,0,0,0,.48-1.11A1.383,1.383,0,0,0-30.4-8.851a2.415,2.415,0,0,0-1.479-.385h-1.765Zm18.853-3.062h-3.223V0h-1.78V-9.236h-3.223v-1.428h8.225Zm4.6,2.915-.762-.029a1.6,1.6,0,0,0-.868.22,1.447,1.447,0,0,0-.538.623V0h-1.78V-7.925h1.626l.117,1.15a2.542,2.542,0,0,1,.773-.952,1.8,1.8,0,0,1,1.088-.344,1.659,1.659,0,0,1,.3.026,2.193,2.193,0,0,1,.256.062ZM-4.178,0q-.1-.3-.157-.586a4.189,4.189,0,0,1-.084-.571,3.144,3.144,0,0,1-.963.934A2.45,2.45,0,0,1-6.72.154a2.634,2.634,0,0,1-1.9-.637,2.314,2.314,0,0,1-.663-1.75,2.068,2.068,0,0,1,.908-1.791,4.385,4.385,0,0,1,2.556-.641h1.384v-.7A1.287,1.287,0,0,0-4.8-6.335a1.453,1.453,0,0,0-1.047-.352,1.483,1.483,0,0,0-.967.293.93.93,0,0,0-.359.754H-8.888L-8.9-5.684a1.963,1.963,0,0,1,.839-1.663,3.554,3.554,0,0,1,2.318-.725,3.39,3.39,0,0,1,2.234.7,2.475,2.475,0,0,1,.85,2.021v3.523a6.5,6.5,0,0,0,.066.941A5,5,0,0,0-2.377,0ZM-6.361-1.274a2.238,2.238,0,0,0,1.212-.337,1.7,1.7,0,0,0,.714-.769V-3.552H-5.848a1.784,1.784,0,0,0-1.216.385,1.168,1.168,0,0,0-.439.9.923.923,0,0,0,.3.721A1.221,1.221,0,0,0-6.361-1.274Zm5.244-2.578A5.226,5.226,0,0,1-.3-6.91,2.63,2.63,0,0,1,1.981-8.071a2.5,2.5,0,0,1,1.154.26,2.611,2.611,0,0,1,.883.743v-4.358H5.8V0H4.3L4.127-.981a2.619,2.619,0,0,1-.916.846A2.577,2.577,0,0,1,1.967.154,2.7,2.7,0,0,1-.3-.908,4.468,4.468,0,0,1-1.117-3.7ZM.663-3.7a3.191,3.191,0,0,0,.421,1.75A1.475,1.475,0,0,0,2.421-1.3a1.787,1.787,0,0,0,.956-.242,1.84,1.84,0,0,0,.641-.688V-5.684a1.874,1.874,0,0,0-.645-.685,1.742,1.742,0,0,0-.937-.245,1.435,1.435,0,0,0-1.34.765,4.038,4.038,0,0,0-.432,2ZM11.107.154a3.446,3.446,0,0,1-2.684-1.1,4.052,4.052,0,0,1-1-2.831v-.293A4.207,4.207,0,0,1,8.416-6.94,3.139,3.139,0,0,1,10.9-8.071a3.1,3.1,0,0,1,2.457.97,3.8,3.8,0,0,1,.853,2.6V-3.45H9.269l-.015.037a2.5,2.5,0,0,0,.553,1.545,1.749,1.749,0,0,0,1.41.6,3.811,3.811,0,0,0,1.23-.176,4.031,4.031,0,0,0,.989-.505l.571,1.165a3.687,3.687,0,0,1-1.187.667A4.971,4.971,0,0,1,11.107.154Zm-.205-6.8a1.335,1.335,0,0,0-1.084.524A2.579,2.579,0,0,0,9.291-4.79l.015.037h3.142v-.183a1.9,1.9,0,0,0-.385-1.23A1.4,1.4,0,0,0,10.9-6.643Zm14.487,3.9A1.373,1.373,0,0,0,24.9-3.831a4.643,4.643,0,0,0-1.747-.762A7.389,7.389,0,0,1,20.4-5.834a2.472,2.472,0,0,1-.963-2.025A2.586,2.586,0,0,1,20.5-9.983a4.328,4.328,0,0,1,2.75-.835,4.1,4.1,0,0,1,2.823.945A2.82,2.82,0,0,1,27.1-7.6l-.015.044H25.382a1.717,1.717,0,0,0-.557-1.329A2.273,2.273,0,0,0,23.236-9.4a2.324,2.324,0,0,0-1.5.425,1.35,1.35,0,0,0-.524,1.1,1.2,1.2,0,0,0,.568,1.011,6.286,6.286,0,0,0,1.879.762,6.256,6.256,0,0,1,2.615,1.274,2.678,2.678,0,0,1,.894,2.073A2.5,2.5,0,0,1,26.1-.634a4.6,4.6,0,0,1-2.8.787,4.977,4.977,0,0,1-2.93-.883,2.713,2.713,0,0,1-1.223-2.421l.015-.044h1.714a1.666,1.666,0,0,0,.674,1.454,2.951,2.951,0,0,0,1.75.48,2.578,2.578,0,0,0,1.538-.4A1.267,1.267,0,0,0,25.389-2.739Zm5.64-7.112v1.926H32.45v1.318H31.029v4.38a.955.955,0,0,0,.212.7.77.77,0,0,0,.564.209,1.574,1.574,0,0,0,.286-.026,1.736,1.736,0,0,0,.264-.07l.19,1.3A2.041,2.041,0,0,1,32,.084a3.013,3.013,0,0,1-.652.07,2.041,2.041,0,0,1-1.538-.575,2.518,2.518,0,0,1-.557-1.805v-4.38H28.048V-7.925h1.208V-9.851ZM33.7-4.036a4.317,4.317,0,0,1,.967-2.9,3.334,3.334,0,0,1,2.659-1.135A3.324,3.324,0,0,1,40-6.936a4.279,4.279,0,0,1,.974,2.9v.154A4.3,4.3,0,0,1,40-.967,3.327,3.327,0,0,1,37.343.154,3.347,3.347,0,0,1,34.669-.974,4.31,4.31,0,0,1,33.7-3.882Zm1.78.154a3.539,3.539,0,0,0,.454,1.89,1.531,1.531,0,0,0,1.406.725,1.539,1.539,0,0,0,1.392-.725,3.451,3.451,0,0,0,.469-1.89v-.154A3.407,3.407,0,0,0,38.734-5.9a1.544,1.544,0,0,0-1.406-.74,1.531,1.531,0,0,0-1.392.74,3.516,3.516,0,0,0-.454,1.868ZM46.476-6.321l-.762-.029a1.6,1.6,0,0,0-.868.22,1.447,1.447,0,0,0-.538.623V0h-1.78V-7.925h1.626l.117,1.15a2.542,2.542,0,0,1,.773-.952,1.8,1.8,0,0,1,1.088-.344,1.659,1.659,0,0,1,.3.026,2.193,2.193,0,0,1,.256.062ZM51.119.154a3.446,3.446,0,0,1-2.684-1.1,4.052,4.052,0,0,1-1-2.831v-.293a4.207,4.207,0,0,1,.992-2.867,3.139,3.139,0,0,1,2.487-1.132,3.1,3.1,0,0,1,2.457.97,3.8,3.8,0,0,1,.853,2.6V-3.45H49.281l-.015.037a2.5,2.5,0,0,0,.553,1.545,1.749,1.749,0,0,0,1.41.6,3.811,3.811,0,0,0,1.23-.176,4.031,4.031,0,0,0,.989-.505L54.02-.784a3.687,3.687,0,0,1-1.187.667A4.971,4.971,0,0,1,51.119.154Zm-.205-6.8a1.335,1.335,0,0,0-1.084.524A2.579,2.579,0,0,0,49.3-4.79l.015.037H52.46v-.183a1.9,1.9,0,0,0-.385-1.23A1.4,1.4,0,0,0,50.914-6.643Z" transform="translate(193 739)" fill="#b4bbc6"/>
    <g id="Group_3693" data-name="Group 3693" transform="translate(170.691 642.062)">
      <path id="Path_1150-2" data-name="Path 1150" d="M568.411,213.726c-.008.031-.015.063-.022.094a16.514,16.514,0,0,0,1.644,11.623c.084.15.172.3.256.445a1.262,1.262,0,0,1,.254.866,1.071,1.071,0,0,1-.475.721,2.219,2.219,0,0,1-.415.147c-.162.029-.326.059-.492.08a7.72,7.72,0,0,1-2.094-15.3c.021,0,.042,0,.062-.008a1.143,1.143,0,0,1,.864.123,1,1,0,0,1,.418,1.206" transform="translate(-560.433 -189.688)" fill="#3d3d3d"/>
      <ellipse id="Ellipse_123-2" data-name="Ellipse 123" cx="14.409" cy="14.409" rx="14.409" ry="14.409" transform="translate(9.606 13.38)" fill="#d82225"/>
      <path id="Path_1151-2" data-name="Path 1151" d="M604.238,180.007c.318-.018.386-.01.709-.01a16.429,16.429,0,0,1,12.328,5.55,1.415,1.415,0,0,0,.966.642,1.188,1.188,0,0,0,.976-.338l.234-.2a9.777,9.777,0,1,0-16.391-7.2,1.935,1.935,0,0,0,.1.82,1.136,1.136,0,0,0,1.079.734" transform="translate(-580.933 -168.675)" fill="#262626"/>
      <path id="Path_1152-2" data-name="Path 1152" d="M623.982,241.741q.126.168.241.345a6.519,6.519,0,1,1-11.033,6.943c-.052-.086-.1-.174-.152-.261a.87.87,0,0,1-.116-.83.931.931,0,0,1,.771-.565,5.053,5.053,0,0,0,.536-.145,16.475,16.475,0,0,0,7.923-5.091c.1-.12.2-.245.3-.364a1.077,1.077,0,0,1,.485-.411.846.846,0,0,1,.745.083A1.012,1.012,0,0,1,623.982,241.741Z" transform="translate(-585.65 -203.611)" fill="#3d3d3d"/>
    </g>
    <g transform="matrix(1, 0, 0, 1, -43.48, -7.58)" filter="url(#Path_4528)">
      <path id="Path_4528-2" data-name="Path 4528" d="M8.867,0H69.332A8.867,8.867,0,0,1,78.2,8.867V69.332A8.867,8.867,0,0,1,69.332,78.2H8.867A8.867,8.867,0,0,1,0,69.332V8.867A8.867,8.867,0,0,1,8.867,0Z" transform="translate(196.6 144)" fill="#fff" stroke="#b4bbc6" stroke-width="1"/>
    </g>
    <g id="Group_3578" data-name="Group 3578" transform="translate(152.32 -10.464)">
      <path id="Path_4562" data-name="Path 4562" d="M35.083,182.611H17.789a2.426,2.426,0,0,1-2.424-2.424V167.17a2.427,2.427,0,0,1,2.424-2.425H22.9a.891.891,0,0,1,.658.291l3.271,3.6h8.254a2.427,2.427,0,0,1,2.425,2.424v9.125A2.427,2.427,0,0,1,35.083,182.611ZM17.789,166.52a.65.65,0,0,0-.649.65v13.017a.65.65,0,0,0,.649.649H35.083a.65.65,0,0,0,.65-.649v-9.125a.65.65,0,0,0-.65-.649H26.436a.888.888,0,0,1-.657-.291l-3.271-3.6Z" fill="#526279"/>
      <path id="Path_4563" data-name="Path 4563" d="M26.436,170.413H22.159a.887.887,0,1,1,0-1.775h4.277a.887.887,0,1,1,0,1.775Z" fill="#526279"/>
      <path id="Path_4564" data-name="Path 4564" d="M35.083,208.369H17.789a2.426,2.426,0,0,1-2.424-2.424V192.928a2.426,2.426,0,0,1,2.424-2.424H22.9a.89.89,0,0,1,.658.29l3.271,3.6h8.254a2.427,2.427,0,0,1,2.425,2.424v9.125A2.427,2.427,0,0,1,35.083,208.369Zm-17.294-16.09a.65.65,0,0,0-.649.649v13.017a.65.65,0,0,0,.649.649H35.083a.651.651,0,0,0,.65-.649V196.82a.65.65,0,0,0-.65-.649H26.436a.888.888,0,0,1-.657-.29l-3.271-3.6Z" fill="#526279"/>
      <path id="Path_4565" data-name="Path 4565" d="M26.436,196.171H22.159a.888.888,0,1,1,0-1.775h4.277a.888.888,0,1,1,0,1.775Z" fill="#526279"/>
      <path id="Path_4566" data-name="Path 4566" d="M45.251,201.993H36.62a.887.887,0,0,1,0-1.775h7.743v-8.827a.887.887,0,0,1,.888-.887H49.7a.888.888,0,1,1,0,1.775h-3.56V201.1A.888.888,0,0,1,45.251,201.993Z" fill="#526279"/>
      <path id="Path_4567" data-name="Path 4567" d="M49.587,185.6H45.251a.887.887,0,0,1-.888-.887v-8.38H36.62a.888.888,0,0,1,0-1.775h8.631a.887.887,0,0,1,.887.887v8.38h3.449a.887.887,0,1,1,0,1.775Z" fill="#526279"/>
      <path id="Path_4568" data-name="Path 4568" d="M58.082,197.953a9.917,9.917,0,1,1,0-19.834.887.887,0,0,1,0,1.775,8.142,8.142,0,1,0,8.141,8.142.888.888,0,0,1,1.776,0A9.928,9.928,0,0,1,58.082,197.953Z" fill="#526279"/>
      <path id="Path_4569" data-name="Path 4569" d="M58.082,193.617a5.581,5.581,0,1,1,5.58-5.581A5.587,5.587,0,0,1,58.082,193.617Zm0-9.386a3.805,3.805,0,1,0,3.805,3.8A3.81,3.81,0,0,0,58.082,184.231Z" fill="#526279"/>
      <path id="Path_4570" data-name="Path 4570" d="M58.082,188.924a.888.888,0,0,1-.888-.888v-4.692a.888.888,0,1,1,1.775,0v4.692A.888.888,0,0,1,58.082,188.924Z" fill="#526279"/>
    </g>
    <path id="Path_4815" data-name="Path 4815" d="M-18.146-4.245h-4.361V0h-1.661V-9.953h6.72V-8.62h-5.059v3.042h4.361ZM-14.489,0H-16.15V-10.664h1.661Zm6.31,0q-.089-.28-.147-.547A3.909,3.909,0,0,1-8.4-1.08a2.935,2.935,0,0,1-.9.872,2.287,2.287,0,0,1-1.248.352,2.459,2.459,0,0,1-1.774-.595,2.16,2.16,0,0,1-.619-1.634A1.93,1.93,0,0,1-12.1-3.756a4.093,4.093,0,0,1,2.386-.6h1.292V-5a1.2,1.2,0,0,0-.342-.909,1.356,1.356,0,0,0-.978-.328,1.384,1.384,0,0,0-.9.273.868.868,0,0,0-.335.7h-1.6l-.007-.041A1.832,1.832,0,0,1-11.8-6.856a3.317,3.317,0,0,1,2.164-.677,3.164,3.164,0,0,1,2.085.656A2.31,2.31,0,0,1-6.757-4.99V-1.7A6.064,6.064,0,0,0-6.7-.824,4.664,4.664,0,0,0-6.5,0Zm-2.037-1.189A2.088,2.088,0,0,0-9.085-1.5a1.583,1.583,0,0,0,.667-.718V-3.315H-9.738a1.666,1.666,0,0,0-1.135.359,1.09,1.09,0,0,0-.41.844.861.861,0,0,0,.277.673A1.14,1.14,0,0,0-10.216-1.189Zm7.267-8v1.8h1.326v1.23H-2.95v4.088a.891.891,0,0,0,.2.653.718.718,0,0,0,.526.195,1.469,1.469,0,0,0,.267-.024,1.62,1.62,0,0,0,.246-.065L-1.535-.1a1.9,1.9,0,0,1-.506.181,2.812,2.812,0,0,1-.608.065A1.9,1.9,0,0,1-4.084-.393,2.35,2.35,0,0,1-4.6-2.078V-6.166H-5.732V-7.4H-4.6v-1.8ZM9.574-4.245H5.212V0H3.551V-9.953h6.72V-8.62H5.212v3.042H9.574ZM13.231,0H11.57V-7.4h1.661Zm0-9.208H11.57v-1.456h1.661ZM16.861,0H15.2V-10.664h1.661Zm5.031.144A3.216,3.216,0,0,1,19.387-.885a3.782,3.782,0,0,1-.933-2.642V-3.8a3.927,3.927,0,0,1,.926-2.676A2.93,2.93,0,0,1,21.7-7.533a2.891,2.891,0,0,1,2.293.906,3.549,3.549,0,0,1,.8,2.43v.978H20.176l-.014.034a2.329,2.329,0,0,0,.516,1.442,1.632,1.632,0,0,0,1.316.561,3.557,3.557,0,0,0,1.148-.164,3.763,3.763,0,0,0,.923-.472L24.6-.731a3.441,3.441,0,0,1-1.107.622A4.64,4.64,0,0,1,21.892.144ZM21.7-6.2a1.246,1.246,0,0,0-1.012.489A2.407,2.407,0,0,0,20.2-4.471l.014.034h2.933v-.171a1.77,1.77,0,0,0-.359-1.148A1.31,1.31,0,0,0,21.7-6.2Z" transform="translate(192.596 114.769)" fill="#b4bbc6" opacity="0.998"/>
  </g>
</svg>
