<svg xmlns="http://www.w3.org/2000/svg" xmlns:xlink="http://www.w3.org/1999/xlink" width="474.957" height="867.016" viewBox="0 0 474.957 867.016">
  <defs>
    <filter id="Path_4526" x="0" y="210.81" width="474.957" height="474.956" filterUnits="userSpaceOnUse">
      <feOffset dy="20" input="SourceAlpha"/>
      <feGaussianBlur stdDeviation="49.5" result="blur"/>
      <feFlood flood-color="#3c485a" flood-opacity="0.149"/>
      <feComposite operator="in" in2="blur"/>
      <feComposite in="SourceGraphic"/>
    </filter>
    <filter id="Path_4528" x="47.597" y="0" width="376.198" height="376.198" filterUnits="userSpaceOnUse">
      <feOffset dy="5" input="SourceAlpha"/>
      <feGaussianBlur stdDeviation="49.5" result="blur-2"/>
      <feFlood flood-color="#3c485a" flood-opacity="0.102"/>
      <feComposite operator="in" in2="blur-2"/>
      <feComposite in="SourceGraphic"/>
    </filter>
    <filter id="Path_4522" x="47.596" y="490.817" width="376.198" height="376.198" filterUnits="userSpaceOnUse">
      <feOffset dy="5" input="SourceAlpha"/>
      <feGaussianBlur stdDeviation="49.5" result="blur-3"/>
      <feFlood flood-color="#3c485a" flood-opacity="0.102"/>
      <feComposite operator="in" in2="blur-3"/>
      <feComposite in="SourceGraphic"/>
    </filter>
  </defs>
  <g id="Group_3783" data-name="Group 3783" transform="translate(-326.524 7.581)">
    <path id="Path_4527" data-name="Path 4527" d="M0,0V100" transform="translate(562.907 206.443)" fill="none" stroke="#cccdd7" stroke-linecap="round" stroke-width="3" stroke-dasharray="1 10"/>
    <path id="Path_4524" data-name="Path 4524" d="M0,0V100" transform="translate(561.533 635.41) rotate(180)" fill="none" stroke="#cccdd7" stroke-linecap="round" stroke-width="3" stroke-dasharray="1 10"/>
    <path id="Path_4525" data-name="Path 4525" d="M114.484,0A114.484,114.484,0,1,1,0,114.484,114.484,114.484,0,0,1,114.484,0Z" transform="translate(678.268 306.443) rotate(90)" fill="none" stroke="#d82125" stroke-linecap="round" stroke-width="3" stroke-dasharray="1 10"/>
    <g transform="matrix(1, 0, 0, 1, 326.52, -7.58)" filter="url(#Path_4526)">
      <path id="Path_4526-2" data-name="Path 4526" d="M88.979,0A88.978,88.978,0,1,1,0,88.978,88.978,88.978,0,0,1,88.979,0Z" transform="translate(148.5 339.31)" fill="#fff"/>
    </g>
    <g id="Group_3147" data-name="Group 3147" transform="translate(519.062 368.39)">
      <path id="Path_1150" data-name="Path 1150" d="M576.165,215.052c-.015.061-.03.124-.043.186a32.561,32.561,0,0,0,3.241,22.918c.165.3.34.583.506.878a2.489,2.489,0,0,1,.5,1.708,2.112,2.112,0,0,1-.937,1.423,4.371,4.371,0,0,1-.819.291c-.32.057-.643.116-.969.159a15.376,15.376,0,0,1-1.99.129,15.223,15.223,0,0,1-2.14-30.294c.041-.005.082-.008.122-.016a2.254,2.254,0,0,1,1.7.242,1.977,1.977,0,0,1,.825,2.378" transform="translate(-560.433 -167.65)" fill="#3d3d3d"/>
      <ellipse id="Ellipse_123" data-name="Ellipse 123" cx="28.414" cy="28.414" rx="28.414" ry="28.414" transform="translate(18.942 26.384)" fill="#d82225"/>
      <path id="Path_1151" data-name="Path 1151" d="M605.389,191.02c.627-.036.761-.02,1.4-.02a32.4,32.4,0,0,1,24.31,10.944,2.791,2.791,0,0,0,1.9,1.266,2.342,2.342,0,0,0,1.924-.666l.463-.393a19.279,19.279,0,1,0-32.322-14.194,3.818,3.818,0,0,0,.193,1.617,2.24,2.24,0,0,0,2.128,1.447" transform="translate(-559.433 -168.675)" fill="#262626"/>
      <path id="Path_1152" data-name="Path 1152" d="M634.789,242.158q.248.332.476.681a12.854,12.854,0,1,1-21.757,13.69c-.1-.169-.2-.344-.3-.515a1.716,1.716,0,0,1-.229-1.638,1.836,1.836,0,0,1,1.521-1.113,9.952,9.952,0,0,0,1.057-.286,32.485,32.485,0,0,0,15.623-10.039c.2-.236.394-.484.6-.718a2.122,2.122,0,0,1,.956-.81,1.669,1.669,0,0,1,1.47.163A1.993,1.993,0,0,1,634.789,242.158Z" transform="translate(-559.203 -166.971)" fill="#3d3d3d"/>
    </g>
    <g transform="matrix(1, 0, 0, 1, 326.52, -7.58)" filter="url(#Path_4528)">
      <path id="Path_4528-2" data-name="Path 4528" d="M8.867,0H69.332A8.867,8.867,0,0,1,78.2,8.867V69.332A8.867,8.867,0,0,1,69.332,78.2H8.867A8.867,8.867,0,0,1,0,69.332V8.867A8.867,8.867,0,0,1,8.867,0Z" transform="translate(196.6 144)" fill="#fff" stroke="#b4bbc6" stroke-width="1"/>
    </g>
    <path id="Path_4798" data-name="Path 4798" d="M-43.832-2.652v.014l.007-.034,1.989-7.28h1.326l2.01,7.3.007.048.007-.068,1.572-7.28h1.634L-37.646,0h-1.511l-1.989-7.144h-.041l-2,7.144H-44.7l-2.358-9.953h1.634ZM-34.6-3.767a4.029,4.029,0,0,1,.9-2.707,3.111,3.111,0,0,1,2.481-1.06,3.1,3.1,0,0,1,2.5,1.06,3.994,3.994,0,0,1,.909,2.707v.144A4.014,4.014,0,0,1-28.725-.9,3.1,3.1,0,0,1-31.206.144,3.124,3.124,0,0,1-33.7-.909a4.023,4.023,0,0,1-.9-2.714Zm1.661.144a3.3,3.3,0,0,0,.424,1.764,1.429,1.429,0,0,0,1.313.677,1.436,1.436,0,0,0,1.3-.677,3.221,3.221,0,0,0,.438-1.764v-.144a3.18,3.18,0,0,0-.437-1.743A1.441,1.441,0,0,0-31.22-6.2a1.429,1.429,0,0,0-1.3.69,3.282,3.282,0,0,0-.424,1.743Zm6.269-.144a4.029,4.029,0,0,1,.9-2.707,3.111,3.111,0,0,1,2.481-1.06,3.1,3.1,0,0,1,2.5,1.06,3.994,3.994,0,0,1,.909,2.707v.144A4.014,4.014,0,0,1-20.795-.9,3.1,3.1,0,0,1-23.276.144a3.124,3.124,0,0,1-2.5-1.053,4.023,4.023,0,0,1-.9-2.714Zm1.661.144a3.3,3.3,0,0,0,.424,1.764,1.429,1.429,0,0,0,1.313.677,1.436,1.436,0,0,0,1.3-.677,3.221,3.221,0,0,0,.438-1.764v-.144a3.18,3.18,0,0,0-.437-1.743A1.441,1.441,0,0,0-23.29-6.2a1.429,1.429,0,0,0-1.3.69,3.282,3.282,0,0,0-.424,1.743Zm9.632,2.44a1.517,1.517,0,0,0,1.025-.359,1.137,1.137,0,0,0,.417-.9h1.5l.014.041a2.184,2.184,0,0,1-.844,1.791,3.144,3.144,0,0,1-2.116.752A3.068,3.068,0,0,1-17.886-.909a4.041,4.041,0,0,1-.872-2.666v-.239a4.044,4.044,0,0,1,.872-2.663,3.063,3.063,0,0,1,2.505-1.056,3.042,3.042,0,0,1,2.164.776,2.5,2.5,0,0,1,.8,1.972l-.014.041h-1.511a1.449,1.449,0,0,0-.4-1.032A1.368,1.368,0,0,0-15.381-6.2a1.4,1.4,0,0,0-1.326.68,3.391,3.391,0,0,0-.39,1.706v.239a3.4,3.4,0,0,0,.39,1.719A1.406,1.406,0,0,0-15.381-1.183ZM-11.4-3.767a4.029,4.029,0,0,1,.9-2.707,3.111,3.111,0,0,1,2.481-1.06,3.1,3.1,0,0,1,2.5,1.06,3.994,3.994,0,0,1,.909,2.707v.144A4.014,4.014,0,0,1-5.517-.9,3.1,3.1,0,0,1-8,.144a3.124,3.124,0,0,1-2.5-1.053,4.023,4.023,0,0,1-.9-2.714Zm1.661.144a3.3,3.3,0,0,0,.424,1.764A1.429,1.429,0,0,0-8-1.183a1.436,1.436,0,0,0,1.3-.677,3.221,3.221,0,0,0,.438-1.764v-.144A3.18,3.18,0,0,0-6.7-5.51,1.441,1.441,0,0,0-8.012-6.2a1.429,1.429,0,0,0-1.3.69,3.282,3.282,0,0,0-.424,1.743ZM-1.641-7.4l.089.964a2.507,2.507,0,0,1,.909-.813A2.681,2.681,0,0,1,.622-7.533a2.282,2.282,0,0,1,1.244.328,1.983,1.983,0,0,1,.779.984,2.591,2.591,0,0,1,.9-.964A2.434,2.434,0,0,1,4.86-7.533a2.186,2.186,0,0,1,1.76.762,3.514,3.514,0,0,1,.646,2.314V0H5.605V-4.464A2.076,2.076,0,0,0,5.281-5.79a1.206,1.206,0,0,0-.974-.383,1.425,1.425,0,0,0-.9.287,1.6,1.6,0,0,0-.533.772q0,.1.007.178t.007.144V0H1.224V-4.464A2.053,2.053,0,0,0,.892-5.773a1.193,1.193,0,0,0-.974-.4,1.749,1.749,0,0,0-.858.195,1.436,1.436,0,0,0-.557.55V0H-3.158V-7.4Zm12.175,0,.089.964a2.507,2.507,0,0,1,.909-.813A2.681,2.681,0,0,1,12.8-7.533a2.282,2.282,0,0,1,1.244.328,1.983,1.983,0,0,1,.779.984,2.591,2.591,0,0,1,.9-.964,2.434,2.434,0,0,1,1.313-.349,2.186,2.186,0,0,1,1.76.762,3.514,3.514,0,0,1,.646,2.314V0H17.78V-4.464a2.076,2.076,0,0,0-.325-1.326,1.206,1.206,0,0,0-.974-.383,1.425,1.425,0,0,0-.9.287,1.6,1.6,0,0,0-.533.772q0,.1.007.178t.007.144V0H13.4V-4.464a2.053,2.053,0,0,0-.332-1.309,1.193,1.193,0,0,0-.974-.4,1.749,1.749,0,0,0-.858.195,1.436,1.436,0,0,0-.557.55V0H9.017V-7.4ZM24.363.144A3.216,3.216,0,0,1,21.858-.885a3.782,3.782,0,0,1-.933-2.642V-3.8a3.927,3.927,0,0,1,.926-2.676,2.93,2.93,0,0,1,2.321-1.056,2.891,2.891,0,0,1,2.293.906,3.549,3.549,0,0,1,.8,2.43v.978H22.647l-.014.034a2.329,2.329,0,0,0,.516,1.442,1.632,1.632,0,0,0,1.316.561,3.557,3.557,0,0,0,1.148-.164,3.763,3.763,0,0,0,.923-.472L27.07-.731a3.441,3.441,0,0,1-1.107.622A4.64,4.64,0,0,1,24.363.144ZM24.172-6.2a1.246,1.246,0,0,0-1.012.489,2.407,2.407,0,0,0-.492,1.241l.014.034h2.933v-.171a1.77,1.77,0,0,0-.359-1.148A1.31,1.31,0,0,0,24.172-6.2Zm8.114.3-.711-.027a1.49,1.49,0,0,0-.81.205,1.351,1.351,0,0,0-.5.581V0H28.6V-7.4h1.518l.109,1.073a2.372,2.372,0,0,1,.721-.889,1.679,1.679,0,0,1,1.015-.321,1.548,1.548,0,0,1,.28.024,2.047,2.047,0,0,1,.239.058ZM36.5-1.183a1.517,1.517,0,0,0,1.025-.359,1.137,1.137,0,0,0,.417-.9h1.5l.014.041A2.184,2.184,0,0,1,38.62-.608,3.144,3.144,0,0,1,36.5.144,3.068,3.068,0,0,1,34-.909a4.041,4.041,0,0,1-.872-2.666v-.239A4.044,4.044,0,0,1,34-6.477,3.063,3.063,0,0,1,36.5-7.533a3.042,3.042,0,0,1,2.164.776,2.5,2.5,0,0,1,.8,1.972l-.014.041H37.946a1.449,1.449,0,0,0-.4-1.032A1.368,1.368,0,0,0,36.5-6.2a1.4,1.4,0,0,0-1.326.68,3.391,3.391,0,0,0-.39,1.706v.239a3.4,3.4,0,0,0,.39,1.719A1.406,1.406,0,0,0,36.5-1.183ZM43.969.144A3.216,3.216,0,0,1,41.463-.885a3.782,3.782,0,0,1-.933-2.642V-3.8a3.927,3.927,0,0,1,.926-2.676,2.93,2.93,0,0,1,2.321-1.056,2.891,2.891,0,0,1,2.293.906,3.549,3.549,0,0,1,.8,2.43v.978H42.253l-.014.034a2.329,2.329,0,0,0,.516,1.442,1.632,1.632,0,0,0,1.316.561,3.557,3.557,0,0,0,1.148-.164,3.763,3.763,0,0,0,.923-.472l.533,1.087a3.441,3.441,0,0,1-1.107.622A4.64,4.64,0,0,1,43.969.144ZM43.777-6.2a1.246,1.246,0,0,0-1.012.489,2.407,2.407,0,0,0-.492,1.241l.014.034H45.22v-.171a1.77,1.77,0,0,0-.359-1.148A1.31,1.31,0,0,0,43.777-6.2Z" transform="translate(562.596 115.902)" fill="#b4bbc6"/>
    <g id="Group_3744" data-name="Group 3744" transform="translate(537.665 161.008)">
      <path id="Path_1420" data-name="Path 1420" d="M4.689,0H45.809a4.707,4.707,0,0,1,4.709,4.709v15.7a4.707,4.707,0,0,1-4.709,4.709H31.063l2.024,4.957-8.9-4.957H4.709A4.707,4.707,0,0,1,0,20.405V4.709A4.689,4.689,0,0,1,4.689,0Z" transform="translate(0)" fill="#9b5c8f"/>
      <path id="Path_1421" data-name="Path 1421" d="M13.14,15.624a1.652,1.652,0,0,1,1.294-.637,1.5,1.5,0,0,1,1.787,1.478q.955,6.438,2.074,10.9l4.5-8.563a1.949,1.949,0,0,1,1.54-1.232c.9-.062,1.458.513,1.684,1.725a38.372,38.372,0,0,0,1.951,7.023q.8-7.824,2.711-11.295a1.577,1.577,0,0,1,1.355-.9,1.784,1.784,0,0,1,1.294.411,1.608,1.608,0,0,1,.637,1.171,1.783,1.783,0,0,1-.205.986,24.863,24.863,0,0,0-1.992,7.413,38.259,38.259,0,0,0-.575,7.824,2.439,2.439,0,0,1-.246,1.356,1.323,1.323,0,0,1-1.089.739,2.065,2.065,0,0,1-1.622-.76A20.33,20.33,0,0,1,23.7,24.516q-2,3.943-2.957,5.914c-1.212,2.321-2.238,3.512-3.1,3.573-.554.041-1.027-.431-1.437-1.417Q14.629,28.552,12.811,17A1.749,1.749,0,0,1,13.14,15.624Zm44.132,3.224a4.729,4.729,0,0,0-3.286-2.382,5.4,5.4,0,0,0-1.109-.123c-1.971,0-3.573,1.027-4.826,3.08a10.88,10.88,0,0,0-1.6,5.791,7.952,7.952,0,0,0,.986,4.066,4.729,4.729,0,0,0,3.286,2.382,5.381,5.381,0,0,0,1.109.123,5.491,5.491,0,0,0,4.826-3.08,11.005,11.005,0,0,0,1.6-5.812A7.578,7.578,0,0,0,57.272,18.848Zm-2.587,5.688a5.433,5.433,0,0,1-1.561,3.039,1.975,1.975,0,0,1-1.663.657c-.493-.1-.9-.534-1.212-1.335a5.211,5.211,0,0,1-.37-1.869,7.144,7.144,0,0,1,.144-1.5,6.643,6.643,0,0,1,1.088-2.444c.678-1.006,1.4-1.417,2.136-1.273.493.1.9.534,1.212,1.335a5.211,5.211,0,0,1,.37,1.869A7.211,7.211,0,0,1,54.684,24.537ZM44.416,18.848a4.772,4.772,0,0,0-3.286-2.382,5.394,5.394,0,0,0-1.109-.123c-1.971,0-3.573,1.027-4.826,3.08a10.882,10.882,0,0,0-1.6,5.791,7.952,7.952,0,0,0,.986,4.066,4.729,4.729,0,0,0,3.286,2.382,5.38,5.38,0,0,0,1.109.123,5.491,5.491,0,0,0,4.826-3.08,11,11,0,0,0,1.6-5.812A7.77,7.77,0,0,0,44.416,18.848Zm-2.608,5.688a5.433,5.433,0,0,1-1.561,3.039,1.975,1.975,0,0,1-1.663.657c-.493-.1-.9-.534-1.212-1.335A5.211,5.211,0,0,1,37,25.03a7.144,7.144,0,0,1,.144-1.5,6.64,6.64,0,0,1,1.089-2.444c.678-1.006,1.4-1.417,2.136-1.273.493.1.9.534,1.212,1.335a5.211,5.211,0,0,1,.37,1.869,6.061,6.061,0,0,1-.144,1.52Z" transform="translate(-10.263 -11.332)" fill="#fff"/>
    </g>
    <g transform="matrix(1, 0, 0, 1, 326.52, -7.58)" filter="url(#Path_4522)">
      <path id="Path_4522-2" data-name="Path 4522" d="M8.867,0H69.332A8.867,8.867,0,0,1,78.2,8.867V69.332A8.867,8.867,0,0,1,69.332,78.2H8.867A8.867,8.867,0,0,1,0,69.332V8.867A8.867,8.867,0,0,1,8.867,0Z" transform="translate(274.79 713.02) rotate(180)" fill="#fff" stroke="#b4bbc6" stroke-width="1"/>
    </g>
    <g id="Group_3765" data-name="Group 3765" transform="translate(522.102 481.592)">
      <path id="Path_4562" data-name="Path 4562" d="M35.083,182.611H17.789a2.426,2.426,0,0,1-2.424-2.424V167.17a2.427,2.427,0,0,1,2.424-2.425H22.9a.891.891,0,0,1,.658.291l3.271,3.6h8.254a2.427,2.427,0,0,1,2.425,2.424v9.125A2.427,2.427,0,0,1,35.083,182.611ZM17.789,166.52a.65.65,0,0,0-.649.65v13.017a.65.65,0,0,0,.649.649H35.083a.65.65,0,0,0,.65-.649v-9.125a.65.65,0,0,0-.65-.649H26.436a.888.888,0,0,1-.657-.291l-3.271-3.6Z" fill="#526279"/>
      <path id="Path_4563" data-name="Path 4563" d="M26.436,170.413H22.159a.887.887,0,1,1,0-1.775h4.277a.887.887,0,1,1,0,1.775Z" fill="#526279"/>
      <path id="Path_4564" data-name="Path 4564" d="M35.083,208.369H17.789a2.426,2.426,0,0,1-2.424-2.424V192.928a2.426,2.426,0,0,1,2.424-2.424H22.9a.89.89,0,0,1,.658.29l3.271,3.6h8.254a2.427,2.427,0,0,1,2.425,2.424v9.125A2.427,2.427,0,0,1,35.083,208.369Zm-17.294-16.09a.65.65,0,0,0-.649.649v13.017a.65.65,0,0,0,.649.649H35.083a.651.651,0,0,0,.65-.649V196.82a.65.65,0,0,0-.65-.649H26.436a.888.888,0,0,1-.657-.29l-3.271-3.6Z" fill="#526279"/>
      <path id="Path_4565" data-name="Path 4565" d="M26.436,196.171H22.159a.888.888,0,1,1,0-1.775h4.277a.888.888,0,1,1,0,1.775Z" fill="#526279"/>
      <path id="Path_4566" data-name="Path 4566" d="M45.251,201.993H36.62a.887.887,0,0,1,0-1.775h7.743v-8.827a.887.887,0,0,1,.888-.887H49.7a.888.888,0,1,1,0,1.775h-3.56V201.1A.888.888,0,0,1,45.251,201.993Z" fill="#526279"/>
      <path id="Path_4567" data-name="Path 4567" d="M49.587,185.6H45.251a.887.887,0,0,1-.888-.887v-8.38H36.62a.888.888,0,0,1,0-1.775h8.631a.887.887,0,0,1,.887.887v8.38h3.449a.887.887,0,1,1,0,1.775Z" fill="#526279"/>
      <path id="Path_4568" data-name="Path 4568" d="M58.082,197.953a9.917,9.917,0,1,1,0-19.834.887.887,0,0,1,0,1.775,8.142,8.142,0,1,0,8.141,8.142.888.888,0,0,1,1.776,0A9.928,9.928,0,0,1,58.082,197.953Z" fill="#526279"/>
      <path id="Path_4569" data-name="Path 4569" d="M58.082,193.617a5.581,5.581,0,1,1,5.58-5.581A5.587,5.587,0,0,1,58.082,193.617Zm0-9.386a3.805,3.805,0,1,0,3.805,3.8A3.81,3.81,0,0,0,58.082,184.231Z" fill="#526279"/>
      <path id="Path_4570" data-name="Path 4570" d="M58.082,188.924a.888.888,0,0,1-.888-.888v-4.692a.888.888,0,1,1,1.775,0v4.692A.888.888,0,0,1,58.082,188.924Z" fill="#526279"/>
    </g>
    <path id="Path_4816" data-name="Path 4816" d="M-18.146-4.245h-4.361V0h-1.661V-9.953h6.72V-8.62h-5.059v3.042h4.361ZM-14.489,0H-16.15V-10.664h1.661Zm6.31,0q-.089-.28-.147-.547A3.909,3.909,0,0,1-8.4-1.08a2.935,2.935,0,0,1-.9.872,2.287,2.287,0,0,1-1.248.352,2.459,2.459,0,0,1-1.774-.595,2.16,2.16,0,0,1-.619-1.634A1.93,1.93,0,0,1-12.1-3.756a4.093,4.093,0,0,1,2.386-.6h1.292V-5a1.2,1.2,0,0,0-.342-.909,1.356,1.356,0,0,0-.978-.328,1.384,1.384,0,0,0-.9.273.868.868,0,0,0-.335.7h-1.6l-.007-.041A1.832,1.832,0,0,1-11.8-6.856a3.317,3.317,0,0,1,2.164-.677,3.164,3.164,0,0,1,2.085.656A2.31,2.31,0,0,1-6.757-4.99V-1.7A6.064,6.064,0,0,0-6.7-.824,4.664,4.664,0,0,0-6.5,0Zm-2.037-1.189A2.088,2.088,0,0,0-9.085-1.5a1.583,1.583,0,0,0,.667-.718V-3.315H-9.738a1.666,1.666,0,0,0-1.135.359,1.09,1.09,0,0,0-.41.844.861.861,0,0,0,.277.673A1.14,1.14,0,0,0-10.216-1.189Zm7.267-8v1.8h1.326v1.23H-2.95v4.088a.891.891,0,0,0,.2.653.718.718,0,0,0,.526.195,1.469,1.469,0,0,0,.267-.024,1.62,1.62,0,0,0,.246-.065L-1.535-.1a1.9,1.9,0,0,1-.506.181,2.812,2.812,0,0,1-.608.065A1.9,1.9,0,0,1-4.084-.393,2.35,2.35,0,0,1-4.6-2.078V-6.166H-5.732V-7.4H-4.6v-1.8ZM9.574-4.245H5.212V0H3.551V-9.953h6.72V-8.62H5.212v3.042H9.574ZM13.231,0H11.57V-7.4h1.661Zm0-9.208H11.57v-1.456h1.661ZM16.861,0H15.2V-10.664h1.661Zm5.031.144A3.216,3.216,0,0,1,19.387-.885a3.782,3.782,0,0,1-.933-2.642V-3.8a3.927,3.927,0,0,1,.926-2.676A2.93,2.93,0,0,1,21.7-7.533a2.891,2.891,0,0,1,2.293.906,3.549,3.549,0,0,1,.8,2.43v.978H20.176l-.014.034a2.329,2.329,0,0,0,.516,1.442,1.632,1.632,0,0,0,1.316.561,3.557,3.557,0,0,0,1.148-.164,3.763,3.763,0,0,0,.923-.472L24.6-.731a3.441,3.441,0,0,1-1.107.622A4.64,4.64,0,0,1,21.892.144ZM21.7-6.2a1.246,1.246,0,0,0-1.012.489A2.407,2.407,0,0,0,20.2-4.471l.014.034h2.933v-.171a1.77,1.77,0,0,0-.359-1.148A1.31,1.31,0,0,0,21.7-6.2Z" transform="translate(562.377 738.961)" fill="#b4bbc6" opacity="0.998"/>
  </g>
</svg>
