<svg xmlns="http://www.w3.org/2000/svg" xmlns:xlink="http://www.w3.org/1999/xlink" width="474.957" height="867.016" viewBox="0 0 474.957 867.016">
  <defs>
    <filter id="Path_4526" x="0" y="210.81" width="474.957" height="474.956" filterUnits="userSpaceOnUse">
      <feOffset dy="20" input="SourceAlpha"/>
      <feGaussianBlur stdDeviation="49.5" result="blur"/>
      <feFlood flood-color="#3c485a" flood-opacity="0.149"/>
      <feComposite operator="in" in2="blur"/>
      <feComposite in="SourceGraphic"/>
    </filter>
    <filter id="Path_4522" x="47.596" y="490.817" width="376.198" height="376.198" filterUnits="userSpaceOnUse">
      <feOffset dy="5" input="SourceAlpha"/>
      <feGaussianBlur stdDeviation="49.5" result="blur-2"/>
      <feFlood flood-color="#3c485a" flood-opacity="0.102"/>
      <feComposite operator="in" in2="blur-2"/>
      <feComposite in="SourceGraphic"/>
    </filter>
    <filter id="Path_4528" x="47.597" y="0" width="376.198" height="376.198" filterUnits="userSpaceOnUse">
      <feOffset dy="5" input="SourceAlpha"/>
      <feGaussianBlur stdDeviation="49.5" result="blur-3"/>
      <feFlood flood-color="#3c485a" flood-opacity="0.102"/>
      <feComposite operator="in" in2="blur-3"/>
      <feComposite in="SourceGraphic"/>
    </filter>
  </defs>
  <g id="Group_3785" data-name="Group 3785" transform="translate(43.476 7.581)">
    <path id="Path_4527" data-name="Path 4527" d="M0,0V100" transform="translate(192.907 206.443)" fill="none" stroke="#cccdd7" stroke-linecap="round" stroke-width="3" stroke-dasharray="1 10"/>
    <path id="Path_4524" data-name="Path 4524" d="M0,0V100" transform="translate(191.533 635.41) rotate(180)" fill="none" stroke="#cccdd7" stroke-linecap="round" stroke-width="3" stroke-dasharray="1 10"/>
    <path id="Path_4525" data-name="Path 4525" d="M114.484,0A114.484,114.484,0,1,1,0,114.484,114.484,114.484,0,0,1,114.484,0Z" transform="translate(308.268 306.443) rotate(90)" fill="none" stroke="#d82125" stroke-linecap="round" stroke-width="3" stroke-dasharray="1 10"/>
    <g transform="matrix(1, 0, 0, 1, -43.48, -7.58)" filter="url(#Path_4526)">
      <path id="Path_4526-2" data-name="Path 4526" d="M88.979,0A88.978,88.978,0,1,1,0,88.978,88.978,88.978,0,0,1,88.979,0Z" transform="translate(148.5 339.31)" fill="#fff"/>
    </g>
    <g id="Group_3147" data-name="Group 3147" transform="translate(149.062 368.39)">
      <path id="Path_1150" data-name="Path 1150" d="M576.165,215.052c-.015.061-.03.124-.043.186a32.561,32.561,0,0,0,3.241,22.918c.165.3.34.583.506.878a2.489,2.489,0,0,1,.5,1.708,2.112,2.112,0,0,1-.937,1.423,4.371,4.371,0,0,1-.819.291c-.32.057-.643.116-.969.159a15.376,15.376,0,0,1-1.99.129,15.223,15.223,0,0,1-2.14-30.294c.041-.005.082-.008.122-.016a2.254,2.254,0,0,1,1.7.242,1.977,1.977,0,0,1,.825,2.378" transform="translate(-560.433 -167.65)" fill="#3d3d3d"/>
      <ellipse id="Ellipse_123" data-name="Ellipse 123" cx="28.414" cy="28.414" rx="28.414" ry="28.414" transform="translate(18.942 26.384)" fill="#d82225"/>
      <path id="Path_1151" data-name="Path 1151" d="M605.389,191.02c.627-.036.761-.02,1.4-.02a32.4,32.4,0,0,1,24.31,10.944,2.791,2.791,0,0,0,1.9,1.266,2.342,2.342,0,0,0,1.924-.666l.463-.393a19.279,19.279,0,1,0-32.322-14.194,3.818,3.818,0,0,0,.193,1.617,2.24,2.24,0,0,0,2.128,1.447" transform="translate(-559.433 -168.675)" fill="#262626"/>
      <path id="Path_1152" data-name="Path 1152" d="M634.789,242.158q.248.332.476.681a12.854,12.854,0,1,1-21.757,13.69c-.1-.169-.2-.344-.3-.515a1.716,1.716,0,0,1-.229-1.638,1.836,1.836,0,0,1,1.521-1.113,9.952,9.952,0,0,0,1.057-.286,32.485,32.485,0,0,0,15.623-10.039c.2-.236.394-.484.6-.718a2.122,2.122,0,0,1,.956-.81,1.669,1.669,0,0,1,1.47.163A1.993,1.993,0,0,1,634.789,242.158Z" transform="translate(-559.203 -166.971)" fill="#3d3d3d"/>
    </g>
    <g transform="matrix(1, 0, 0, 1, -43.48, -7.58)" filter="url(#Path_4522)">
      <path id="Path_4522-2" data-name="Path 4522" d="M8.867,0H69.332A8.867,8.867,0,0,1,78.2,8.867V69.332A8.867,8.867,0,0,1,69.332,78.2H8.867A8.867,8.867,0,0,1,0,69.332V8.867A8.867,8.867,0,0,1,8.867,0Z" transform="translate(274.79 713.02) rotate(180)" fill="#fff" stroke="#b4bbc6" stroke-width="1"/>
    </g>
    <g id="Group_3743" data-name="Group 3743" transform="translate(85.41 561.772)">
      <path id="Path_3492" data-name="Path 3492" d="M2464.852,107.34a.379.379,0,0,1-.009.11,6.256,6.256,0,0,1-4.073,3.924,6.281,6.281,0,0,1-6.553-1.861,6.244,6.244,0,0,1-.806-1.167,5.778,5.778,0,0,1-.66-1.967,7.477,7.477,0,0,1-.079-1.126,6.261,6.261,0,0,1,2.238-4.658,6.265,6.265,0,0,1,2.3-1.217,6.12,6.12,0,0,1,2.012-.237,6.251,6.251,0,0,1,5.375,3.6,6.2,6.2,0,0,1,.486,1.5,5.92,5.92,0,0,1,.089.785,6.184,6.184,0,0,1,0,.843c-.025.295-.083.587-.138.879-.032.174-.083.345-.128.516C2464.9,107.284,2464.877,107.3,2464.852,107.34Zm-4.578-2.859c0-.165,0-.3,0-.437,0-.061-.023-.087-.085-.087-.154,0-.309,0-.464,0-.076,0-.1.03-.1.1q0,1.305,0,2.61c0,.078.032.1.1.1.151,0,.3-.007.454,0,.1,0,.121-.03.121-.123q0-.753.018-1.505a.657.657,0,0,1,.456-.623c.3-.07.506.01.573.315a.863.863,0,0,1,.01.185c0,.54,0,1.08,0,1.62,0,.1.029.137.129.132.141-.006.282,0,.423,0s.156,0,.156-.154c0-.44-.007-.881,0-1.321a1.471,1.471,0,0,1,.084-.471.538.538,0,0,1,.7-.29.444.444,0,0,1,.255.474c0,.543,0,1.087,0,1.63,0,.1.025.138.127.133.151-.007.3-.007.454,0,.092,0,.117-.03.117-.12,0-.64,0-1.279,0-1.919a.809.809,0,0,0-.319-.642.979.979,0,0,0-1.364.211c-.047.066-.092.133-.144.207a.791.791,0,0,0-.819-.6A.985.985,0,0,0,2460.273,104.481Zm-2.212-.575a1.228,1.228,0,0,0-1.223.73,1.666,1.666,0,0,0-.108,1.123,1.367,1.367,0,0,0,.569.887,1.223,1.223,0,0,0,.768.17,1.211,1.211,0,0,0,1.01-.6,1.7,1.7,0,0,0,.191-1.212A1.237,1.237,0,0,0,2458.061,103.906Zm-2.219,1.057c.172-.023.344-.046.515-.073a.07.07,0,0,0,.036-.059,1.175,1.175,0,0,0-.38-.71,1.086,1.086,0,0,0-.723-.213,1.124,1.124,0,0,0-1.094.723,1.838,1.838,0,0,0-.069,1.3,1.118,1.118,0,0,0,1.061.891,1.086,1.086,0,0,0,.92-.366,1.385,1.385,0,0,0,.293-.677c-.144-.017-.276-.03-.408-.049-.113-.017-.191.009-.209.136a.292.292,0,0,1-.04.094.485.485,0,0,1-.388.284.444.444,0,0,1-.473-.241,1.267,1.267,0,0,1-.117-.369,1.416,1.416,0,0,1,.156-.965.458.458,0,0,1,.437-.219.428.428,0,0,1,.413.287C2455.8,104.8,2455.816,104.876,2455.842,104.963Z" transform="translate(-2326.047 0)" fill="#0077c2" fill-rule="evenodd"/>
      <path id="Path_3493" data-name="Path 3493" d="M681.568,163.3h-.123c-.719,0-1.438,0-2.156,0a.19.19,0,0,1-.2-.128q-.695-1.409-1.4-2.815c-.012-.024-.027-.047-.048-.083l-.462.505c-.232.254-.465.506-.693.764a.27.27,0,0,0-.063.161c0,.5,0,.991,0,1.486,0,.08-.022.108-.1.107-.6,0-1.2,0-1.806,0-.03,0-.061,0-.1-.007v-9.966h2.048v5.7c.038-.034.061-.051.079-.072q1.268-1.405,2.534-2.812a.2.2,0,0,1,.167-.075c.743,0,1.486,0,2.229,0h.12l-2.461,2.665Z" transform="translate(-584.495 -53.071)" fill="#4b4d4f" fill-rule="evenodd"/>
      <path id="Path_3494" data-name="Path 3494" d="M1341.693,281.2a2.714,2.714,0,0,1,.617-1.7,2.4,2.4,0,0,1,1.233-.661,7.308,7.308,0,0,1,2.072-.108,6.154,6.154,0,0,1,1.029.138,1.927,1.927,0,0,1,1.467,1.465,4.059,4.059,0,0,1,.16,1.107q0,2.244,0,4.488v.14c-.039,0-.068.008-.1.008-.567,0-1.135,0-1.7.006-.077,0-.123-.021-.146-.094-.079-.25-.16-.5-.239-.745-.063.062-.146.141-.227.221a2.772,2.772,0,0,1-1.99.78,2.923,2.923,0,0,1-1.048-.128,1.865,1.865,0,0,1-1.281-1.542,2.385,2.385,0,0,1,.151-1.374,1.66,1.66,0,0,1,1.022-.93c.432-.151.881-.259,1.324-.376.491-.13.984-.249,1.476-.374a.7.7,0,0,0,.4-.242.453.453,0,0,0,.033-.555.748.748,0,0,0-.54-.359,1.974,1.974,0,0,0-.737.025.7.7,0,0,0-.557.483.436.436,0,0,1-.507.333c-.594-.017-1.189,0-1.784,0Zm4.284,1.455c-.147.057-.274.109-.4.155-.372.132-.747.254-1.115.393a.932.932,0,0,0-.5.39.741.741,0,0,0,.5,1.114,1.381,1.381,0,0,0,1.371-.755A3.181,3.181,0,0,0,1345.976,282.657Z" transform="translate(-1237.809 -175.865)" fill="#4b4d4f" fill-rule="evenodd"/>
      <path id="Path_3495" data-name="Path 3495" d="M324.461,281.316a7.717,7.717,0,0,1,.214-.986,2.041,2.041,0,0,1,1.5-1.321,6.428,6.428,0,0,1,1.82-.169,6.713,6.713,0,0,1,1.372.137,1.945,1.945,0,0,1,1.516,1.417,4.019,4.019,0,0,1,.176,1.4c-.01.2,0,.392,0,.588q0,1.837,0,3.673v.141c-.039,0-.068.007-.1.008-.564,0-1.128,0-1.692.006a.146.146,0,0,1-.155-.1,2.279,2.279,0,0,1-.2-.7c0-.019-.008-.038-.014-.069l-.292.288a2.6,2.6,0,0,1-1.615.719,3.113,3.113,0,0,1-1.444-.128,1.872,1.872,0,0,1-1.215-1.494,2.471,2.471,0,0,1,.052-1.123,1.715,1.715,0,0,1,.981-1.152,6.762,6.762,0,0,1,1.278-.388q.8-.2,1.608-.4a.754.754,0,0,0,.466-.28.451.451,0,0,0,.019-.531.743.743,0,0,0-.548-.364,1.947,1.947,0,0,0-.757.033.727.727,0,0,0-.517.434c-.034.075-.066.151-.1.226a.23.23,0,0,1-.221.142q-1.042,0-2.084,0A.265.265,0,0,1,324.461,281.316Zm4.3,1.475-.106.038c-.311.109-.623.212-.931.328a6.336,6.336,0,0,0-.709.3.751.751,0,0,0,.174,1.37,1.345,1.345,0,0,0,1.461-.822A3.411,3.411,0,0,0,328.762,282.791Z" transform="translate(-241.591 -175.996)" fill="#4b4d4f" fill-rule="evenodd"/>
      <path id="Path_3496" data-name="Path 3496" d="M991.786,284.168a2.989,2.989,0,0,1-.375.839,2.868,2.868,0,0,1-1.881,1.248,6.016,6.016,0,0,1-2.265.021,2.686,2.686,0,0,1-1.863-1.309,4.044,4.044,0,0,1-.594-1.823,4.966,4.966,0,0,1,.19-2.018,3.136,3.136,0,0,1,2.018-2.119,3.992,3.992,0,0,1,1.383-.178,4.194,4.194,0,0,1,1.572.285,2.89,2.89,0,0,1,1.581,1.693,4.772,4.772,0,0,1,.309,1.528c.016.311,0,.624,0,.948h-4.688a2.239,2.239,0,0,0,.134.681,1.609,1.609,0,0,0,.455.641.918.918,0,0,0,.759.211,1.416,1.416,0,0,0,.734-.241,1.039,1.039,0,0,0,.325-.443.128.128,0,0,1,.089-.071c.69.029,1.38.063,2.07.1A.286.286,0,0,1,991.786,284.168Zm-4.609-2.309h2.31a1.823,1.823,0,0,0-.22-.862,1.023,1.023,0,0,0-1.124-.52.9.9,0,0,0-.486.251A1.637,1.637,0,0,0,987.177,281.86Z" transform="translate(-888.454 -175.986)" fill="#4b4d4f" fill-rule="evenodd"/>
      <path id="Path_3497" data-name="Path 3497" d="M1823.968,282.279a4.187,4.187,0,0,1-.5,2.138,3.094,3.094,0,0,1-2.376,1.635,4.19,4.19,0,0,1-1.825-.115,3.149,3.149,0,0,1-1.87-1.567,4.632,4.632,0,0,1-.075-3.921,3.154,3.154,0,0,1,2.549-1.857,4.112,4.112,0,0,1,2.009.209,3.066,3.066,0,0,1,1.708,1.643A4.163,4.163,0,0,1,1823.968,282.279Zm-4.691.165a5.291,5.291,0,0,0,.188,1.4,1.01,1.01,0,0,0,1.242.751,1.031,1.031,0,0,0,.742-.819,6,6,0,0,0,.141-1.953,2.706,2.706,0,0,0-.219-.916.986.986,0,0,0-1.3-.534,1.164,1.164,0,0,0-.652.8A4.436,4.436,0,0,0,1819.277,282.443Z" transform="translate(-1703.424 -175.718)" fill="#4b4d4f" fill-rule="evenodd"/>
      <path id="Path_3498" data-name="Path 3498" d="M82.033,161.121l.558,1.793c-.194.043-.376.087-.56.124a6.868,6.868,0,0,1-1.561.191,3.82,3.82,0,0,1-.824-.107,1.442,1.442,0,0,1-1.036-1.136,5.664,5.664,0,0,1-.145-1.442c-.006-.959,0-1.919,0-2.878v-.143H77.6v-1.666h.853v-2.75h2.349c0,.04.006.083.006.126,0,.832,0,1.664-.006,2.5,0,.1.03.126.128.125.351-.006.7,0,1.052,0H82.1v1.661c-.034,0-.07,0-.107.005-.361,0-.722,0-1.083,0-.075,0-.1.019-.1.1,0,.956,0,1.912,0,2.868a2.5,2.5,0,0,0,.031.38.444.444,0,0,0,.58.407C81.623,161.231,81.818,161.174,82.033,161.121Z" transform="translate(0 -52.86)" fill="#4b4d4f" fill-rule="evenodd"/>
      <path id="Path_3499" data-name="Path 3499" d="M2156.267,157.518v-1.667h.192c.186,0,.372,0,.557,0,.09,0,.117-.023.117-.115,0-.832,0-1.665,0-2.5v-.135h2.343v2.742h1.3v1.665c-.033,0-.069.005-.1.005-.361,0-.723,0-1.083,0-.081,0-.105.022-.1.1,0,.97,0,1.94,0,2.91a2.415,2.415,0,0,0,.021.308.453.453,0,0,0,.584.431c.2-.038.4-.1.61-.149.183.587.368,1.182.559,1.793-.19.042-.372.086-.556.123a7.037,7.037,0,0,1-1.561.193,4.034,4.034,0,0,1-.765-.089,1.42,1.42,0,0,1-1.075-1.071,5.069,5.069,0,0,1-.166-1.469q-.006-1.481,0-2.961c0-.093-.023-.125-.12-.122C2156.769,157.522,2156.525,157.518,2156.267,157.518Z" transform="translate(-2035.762 -52.86)" fill="#4b4d4f" fill-rule="evenodd"/>
      <path id="Path_3500" data-name="Path 3500" d="M1693.961,163.364h-.109c-.629,0-1.259,0-1.888,0-.1,0-.119-.03-.119-.122q0-4.854,0-9.708v-.112h2.114Z" transform="translate(-1580.924 -53.171)" fill="#4b4d4f" fill-rule="evenodd"/>
      <path id="Path_3501" data-name="Path 3501" d="M2790.252,330.832a.983.983,0,0,1,.887-.575.792.792,0,0,1,.82.6c.052-.075.1-.141.144-.207a.979.979,0,0,1,1.364-.211.808.808,0,0,1,.319.642c.006.64,0,1.279,0,1.919,0,.089-.025.123-.117.12-.151-.006-.3-.006-.453,0-.1,0-.128-.037-.127-.133,0-.543,0-1.087,0-1.63a.445.445,0,0,0-.255-.474.538.538,0,0,0-.7.29,1.478,1.478,0,0,0-.084.471c-.011.44,0,.88,0,1.321,0,.152,0,.153-.156.154s-.282-.005-.423,0c-.1,0-.13-.036-.13-.132,0-.54,0-1.08,0-1.62a.863.863,0,0,0-.01-.185c-.067-.3-.272-.386-.573-.315a.656.656,0,0,0-.456.623q-.016.752-.018,1.505c0,.093-.025.128-.121.123-.151-.007-.3,0-.454,0-.073,0-.1-.023-.1-.1q0-1.305,0-2.61c0-.074.025-.106.1-.1.155,0,.31,0,.464,0,.062,0,.086.026.085.087C2790.25,330.531,2790.252,330.667,2790.252,330.832Z" transform="translate(-2656.025 -226.351)" fill="#fff" fill-rule="evenodd"/>
      <path id="Path_3502" data-name="Path 3502" d="M2648.378,330.356a1.236,1.236,0,0,1,1.207,1.1,1.7,1.7,0,0,1-.191,1.212,1.211,1.211,0,0,1-1.009.6,1.223,1.223,0,0,1-.768-.17,1.366,1.366,0,0,1-.569-.887,1.666,1.666,0,0,1,.107-1.123A1.228,1.228,0,0,1,2648.378,330.356Zm.56,1.469a4.82,4.82,0,0,0-.091-.512.548.548,0,0,0-1.041-.073,1.458,1.458,0,0,0,.011,1.17.5.5,0,0,0,.522.31.5.5,0,0,0,.488-.358A4.768,4.768,0,0,0,2648.938,331.826Z" transform="translate(-2516.365 -226.45)" fill="#fff" fill-rule="evenodd"/>
      <path id="Path_3503" data-name="Path 3503" d="M2520.914,331.6c-.026-.087-.043-.161-.07-.23a.428.428,0,0,0-.413-.287.459.459,0,0,0-.437.219,1.419,1.419,0,0,0-.155.965,1.244,1.244,0,0,0,.117.369.444.444,0,0,0,.473.241.486.486,0,0,0,.388-.284.3.3,0,0,0,.04-.094c.018-.128.1-.153.209-.137.131.019.263.032.407.049a1.387,1.387,0,0,1-.293.677,1.087,1.087,0,0,1-.92.366,1.118,1.118,0,0,1-1.061-.891,1.833,1.833,0,0,1,.069-1.3,1.124,1.124,0,0,1,1.094-.723,1.086,1.086,0,0,1,.723.213,1.174,1.174,0,0,1,.38.71.07.07,0,0,1-.035.059C2521.258,331.551,2521.085,331.573,2520.914,331.6Z" transform="translate(-2391.119 -226.634)" fill="#fff" fill-rule="evenodd"/>
      <path id="Path_3504" data-name="Path 3504" d="M1457.808,470.273a3.175,3.175,0,0,1-.147,1.3,1.381,1.381,0,0,1-1.371.755.741.741,0,0,1-.5-1.114.932.932,0,0,1,.5-.39c.369-.139.744-.261,1.115-.393C1457.534,470.382,1457.661,470.33,1457.808,470.273Z" transform="translate(-1349.641 -363.481)" fill="#fff" fill-rule="evenodd"/>
      <path id="Path_3505" data-name="Path 3505" d="M440.644,470.416a3.409,3.409,0,0,1-.111,1.215,1.345,1.345,0,0,1-1.461.822.751.751,0,0,1-.174-1.37,6.344,6.344,0,0,1,.708-.3c.308-.116.621-.219.931-.328Z" transform="translate(-353.473 -363.621)" fill="#fff" fill-rule="evenodd"/>
      <path id="Path_3506" data-name="Path 3506" d="M1100.843,359.259a1.637,1.637,0,0,1,.479-1.131.9.9,0,0,1,.486-.251,1.023,1.023,0,0,1,1.125.52,1.822,1.822,0,0,1,.22.862Z" transform="translate(-1002.12 -253.386)" fill="#fff" fill-rule="evenodd"/>
      <path id="Path_3507" data-name="Path 3507" d="M1930.832,364.745a4.445,4.445,0,0,1,.147-1.27,1.163,1.163,0,0,1,.652-.8.986.986,0,0,1,1.3.534,2.717,2.717,0,0,1,.219.916,6,6,0,0,1-.14,1.953,1.031,1.031,0,0,1-.742.819,1.01,1.01,0,0,1-1.243-.751A5.292,5.292,0,0,1,1930.832,364.745Z" transform="translate(-1814.979 -258.02)" fill="#fff" fill-rule="evenodd"/>
      <path id="Path_3508" data-name="Path 3508" d="M2681.755,357.524a4.658,4.658,0,0,1-.11.537.549.549,0,0,1-1.01.047,1.455,1.455,0,0,1-.011-1.17.548.548,0,0,1,1.041.073A4.885,4.885,0,0,1,2681.755,357.524Z" transform="translate(-2549.182 -252.149)" fill="#0077c2" fill-rule="evenodd"/>
    </g>
    <path id="Path_4797" data-name="Path 4797" d="M-18.983-8.62h-3.008V0h-1.661V-8.62H-26.66V-9.953h7.677ZM-14.055,0q-.089-.28-.147-.547a3.909,3.909,0,0,1-.079-.533,2.935,2.935,0,0,1-.9.872,2.287,2.287,0,0,1-1.248.352A2.459,2.459,0,0,1-18.2-.451a2.16,2.16,0,0,1-.619-1.634,1.93,1.93,0,0,1,.848-1.671,4.093,4.093,0,0,1,2.386-.6h1.292V-5a1.2,1.2,0,0,0-.342-.909,1.356,1.356,0,0,0-.978-.328,1.384,1.384,0,0,0-.9.273.868.868,0,0,0-.335.7h-1.6l-.007-.041a1.832,1.832,0,0,1,.783-1.552,3.317,3.317,0,0,1,2.164-.677,3.164,3.164,0,0,1,2.085.656,2.31,2.31,0,0,1,.793,1.887V-1.7a6.064,6.064,0,0,0,.062.878,4.664,4.664,0,0,0,.2.824Zm-2.037-1.189A2.088,2.088,0,0,0-14.96-1.5a1.583,1.583,0,0,0,.667-.718V-3.315h-1.319a1.666,1.666,0,0,0-1.135.359,1.09,1.09,0,0,0-.41.844.861.861,0,0,0,.277.673A1.14,1.14,0,0,0-16.092-1.189Zm7.608-2.044h-.745V0h-1.654V-10.664h1.654v6.1h.69L-6.672-7.4h1.955l-2.44,3.363L-4.354,0H-6.282ZM-.533.144A3.216,3.216,0,0,1-3.039-.885a3.782,3.782,0,0,1-.933-2.642V-3.8a3.927,3.927,0,0,1,.926-2.676A2.93,2.93,0,0,1-.725-7.533a2.891,2.891,0,0,1,2.293.906,3.549,3.549,0,0,1,.8,2.43v.978H-2.249l-.014.034a2.329,2.329,0,0,0,.516,1.442,1.632,1.632,0,0,0,1.316.561A3.557,3.557,0,0,0,.718-1.347a3.763,3.763,0,0,0,.923-.472L2.174-.731a3.441,3.441,0,0,1-1.107.622A4.64,4.64,0,0,1-.533.144ZM-.725-6.2a1.246,1.246,0,0,0-1.012.489,2.407,2.407,0,0,0-.492,1.241l.014.034H.718v-.171A1.77,1.77,0,0,0,.359-5.756,1.31,1.31,0,0,0-.725-6.2ZM8.155,0q-.089-.28-.147-.547A3.909,3.909,0,0,1,7.93-1.08a2.935,2.935,0,0,1-.9.872A2.287,2.287,0,0,1,5.783.144,2.459,2.459,0,0,1,4.009-.451a2.16,2.16,0,0,1-.619-1.634,1.93,1.93,0,0,1,.848-1.671,4.093,4.093,0,0,1,2.386-.6H7.916V-5a1.2,1.2,0,0,0-.342-.909A1.356,1.356,0,0,0,6.6-6.241a1.384,1.384,0,0,0-.9.273.868.868,0,0,0-.335.7H3.76L3.753-5.3a1.832,1.832,0,0,1,.783-1.552A3.317,3.317,0,0,1,6.7-7.533a3.164,3.164,0,0,1,2.085.656A2.31,2.31,0,0,1,9.577-4.99V-1.7a6.064,6.064,0,0,0,.062.878,4.664,4.664,0,0,0,.2.824ZM6.118-1.189A2.088,2.088,0,0,0,7.25-1.5a1.583,1.583,0,0,0,.667-.718V-3.315H6.6a1.666,1.666,0,0,0-1.135.359,1.09,1.09,0,0,0-.41.844.861.861,0,0,0,.277.673A1.14,1.14,0,0,0,6.118-1.189ZM13.091,0H11.43V-10.664h1.661Zm1.552-3.767a4.029,4.029,0,0,1,.9-2.707,3.111,3.111,0,0,1,2.481-1.06,3.1,3.1,0,0,1,2.5,1.06,3.994,3.994,0,0,1,.909,2.707v.144A4.014,4.014,0,0,1,20.521-.9,3.1,3.1,0,0,1,18.04.144a3.124,3.124,0,0,1-2.5-1.053,4.023,4.023,0,0,1-.9-2.714Zm1.661.144a3.3,3.3,0,0,0,.424,1.764,1.429,1.429,0,0,0,1.313.677,1.436,1.436,0,0,0,1.3-.677,3.221,3.221,0,0,0,.438-1.764v-.144a3.18,3.18,0,0,0-.437-1.743,1.441,1.441,0,0,0-1.312-.69,1.429,1.429,0,0,0-1.3.69A3.282,3.282,0,0,0,16.3-3.767Zm8.641-5.571v1.8h1.326v1.23H24.944v4.088a.891.891,0,0,0,.2.653.718.718,0,0,0,.526.195,1.469,1.469,0,0,0,.267-.024,1.621,1.621,0,0,0,.246-.065L26.359-.1a1.9,1.9,0,0,1-.506.181,2.812,2.812,0,0,1-.608.065A1.9,1.9,0,0,1,23.81-.393a2.35,2.35,0,0,1-.52-1.685V-6.166H22.162V-7.4H23.29v-1.8Z" transform="translate(193.783 739.084)" fill="#b4bbc6"/>
    <g transform="matrix(1, 0, 0, 1, -43.48, -7.58)" filter="url(#Path_4528)">
      <path id="Path_4528-2" data-name="Path 4528" d="M8.867,0H69.332A8.867,8.867,0,0,1,78.2,8.867V69.332A8.867,8.867,0,0,1,69.332,78.2H8.867A8.867,8.867,0,0,1,0,69.332V8.867A8.867,8.867,0,0,1,8.867,0Z" transform="translate(196.6 144)" fill="#fff" stroke="#b4bbc6" stroke-width="1"/>
    </g>
    <g id="Group_3578" data-name="Group 3578" transform="translate(152.32 -10.464)">
      <path id="Path_4562" data-name="Path 4562" d="M35.083,182.611H17.789a2.426,2.426,0,0,1-2.424-2.424V167.17a2.427,2.427,0,0,1,2.424-2.425H22.9a.891.891,0,0,1,.658.291l3.271,3.6h8.254a2.427,2.427,0,0,1,2.425,2.424v9.125A2.427,2.427,0,0,1,35.083,182.611ZM17.789,166.52a.65.65,0,0,0-.649.65v13.017a.65.65,0,0,0,.649.649H35.083a.65.65,0,0,0,.65-.649v-9.125a.65.65,0,0,0-.65-.649H26.436a.888.888,0,0,1-.657-.291l-3.271-3.6Z" fill="#526279"/>
      <path id="Path_4563" data-name="Path 4563" d="M26.436,170.413H22.159a.887.887,0,1,1,0-1.775h4.277a.887.887,0,1,1,0,1.775Z" fill="#526279"/>
      <path id="Path_4564" data-name="Path 4564" d="M35.083,208.369H17.789a2.426,2.426,0,0,1-2.424-2.424V192.928a2.426,2.426,0,0,1,2.424-2.424H22.9a.89.89,0,0,1,.658.29l3.271,3.6h8.254a2.427,2.427,0,0,1,2.425,2.424v9.125A2.427,2.427,0,0,1,35.083,208.369Zm-17.294-16.09a.65.65,0,0,0-.649.649v13.017a.65.65,0,0,0,.649.649H35.083a.651.651,0,0,0,.65-.649V196.82a.65.65,0,0,0-.65-.649H26.436a.888.888,0,0,1-.657-.29l-3.271-3.6Z" fill="#526279"/>
      <path id="Path_4565" data-name="Path 4565" d="M26.436,196.171H22.159a.888.888,0,1,1,0-1.775h4.277a.888.888,0,1,1,0,1.775Z" fill="#526279"/>
      <path id="Path_4566" data-name="Path 4566" d="M45.251,201.993H36.62a.887.887,0,0,1,0-1.775h7.743v-8.827a.887.887,0,0,1,.888-.887H49.7a.888.888,0,1,1,0,1.775h-3.56V201.1A.888.888,0,0,1,45.251,201.993Z" fill="#526279"/>
      <path id="Path_4567" data-name="Path 4567" d="M49.587,185.6H45.251a.887.887,0,0,1-.888-.887v-8.38H36.62a.888.888,0,0,1,0-1.775h8.631a.887.887,0,0,1,.887.887v8.38h3.449a.887.887,0,1,1,0,1.775Z" fill="#526279"/>
      <path id="Path_4568" data-name="Path 4568" d="M58.082,197.953a9.917,9.917,0,1,1,0-19.834.887.887,0,0,1,0,1.775,8.142,8.142,0,1,0,8.141,8.142.888.888,0,0,1,1.776,0A9.928,9.928,0,0,1,58.082,197.953Z" fill="#526279"/>
      <path id="Path_4569" data-name="Path 4569" d="M58.082,193.617a5.581,5.581,0,1,1,5.58-5.581A5.587,5.587,0,0,1,58.082,193.617Zm0-9.386a3.805,3.805,0,1,0,3.805,3.8A3.81,3.81,0,0,0,58.082,184.231Z" fill="#526279"/>
      <path id="Path_4570" data-name="Path 4570" d="M58.082,188.924a.888.888,0,0,1-.888-.888v-4.692a.888.888,0,1,1,1.775,0v4.692A.888.888,0,0,1,58.082,188.924Z" fill="#526279"/>
    </g>
    <path id="Path_4815" data-name="Path 4815" d="M-18.146-4.245h-4.361V0h-1.661V-9.953h6.72V-8.62h-5.059v3.042h4.361ZM-14.489,0H-16.15V-10.664h1.661Zm6.31,0q-.089-.28-.147-.547A3.909,3.909,0,0,1-8.4-1.08a2.935,2.935,0,0,1-.9.872,2.287,2.287,0,0,1-1.248.352,2.459,2.459,0,0,1-1.774-.595,2.16,2.16,0,0,1-.619-1.634A1.93,1.93,0,0,1-12.1-3.756a4.093,4.093,0,0,1,2.386-.6h1.292V-5a1.2,1.2,0,0,0-.342-.909,1.356,1.356,0,0,0-.978-.328,1.384,1.384,0,0,0-.9.273.868.868,0,0,0-.335.7h-1.6l-.007-.041A1.832,1.832,0,0,1-11.8-6.856a3.317,3.317,0,0,1,2.164-.677,3.164,3.164,0,0,1,2.085.656A2.31,2.31,0,0,1-6.757-4.99V-1.7A6.064,6.064,0,0,0-6.7-.824,4.664,4.664,0,0,0-6.5,0Zm-2.037-1.189A2.088,2.088,0,0,0-9.085-1.5a1.583,1.583,0,0,0,.667-.718V-3.315H-9.738a1.666,1.666,0,0,0-1.135.359,1.09,1.09,0,0,0-.41.844.861.861,0,0,0,.277.673A1.14,1.14,0,0,0-10.216-1.189Zm7.267-8v1.8h1.326v1.23H-2.95v4.088a.891.891,0,0,0,.2.653.718.718,0,0,0,.526.195,1.469,1.469,0,0,0,.267-.024,1.62,1.62,0,0,0,.246-.065L-1.535-.1a1.9,1.9,0,0,1-.506.181,2.812,2.812,0,0,1-.608.065A1.9,1.9,0,0,1-4.084-.393,2.35,2.35,0,0,1-4.6-2.078V-6.166H-5.732V-7.4H-4.6v-1.8ZM9.574-4.245H5.212V0H3.551V-9.953h6.72V-8.62H5.212v3.042H9.574ZM13.231,0H11.57V-7.4h1.661Zm0-9.208H11.57v-1.456h1.661ZM16.861,0H15.2V-10.664h1.661Zm5.031.144A3.216,3.216,0,0,1,19.387-.885a3.782,3.782,0,0,1-.933-2.642V-3.8a3.927,3.927,0,0,1,.926-2.676A2.93,2.93,0,0,1,21.7-7.533a2.891,2.891,0,0,1,2.293.906,3.549,3.549,0,0,1,.8,2.43v.978H20.176l-.014.034a2.329,2.329,0,0,0,.516,1.442,1.632,1.632,0,0,0,1.316.561,3.557,3.557,0,0,0,1.148-.164,3.763,3.763,0,0,0,.923-.472L24.6-.731a3.441,3.441,0,0,1-1.107.622A4.64,4.64,0,0,1,21.892.144ZM21.7-6.2a1.246,1.246,0,0,0-1.012.489A2.407,2.407,0,0,0,20.2-4.471l.014.034h2.933v-.171a1.77,1.77,0,0,0-.359-1.148A1.31,1.31,0,0,0,21.7-6.2Z" transform="translate(192.596 114.769)" fill="#b4bbc6" opacity="0.998"/>
  </g>
</svg>
