<svg xmlns="http://www.w3.org/2000/svg" xmlns:xlink="http://www.w3.org/1999/xlink" width="499.074" height="852.803" viewBox="0 0 499.074 852.803">
  <defs>
    <filter id="Path_4526" x="0" y="191.41" width="499.074" height="499.074" filterUnits="userSpaceOnUse">
      <feOffset dy="20" input="SourceAlpha"/>
      <feGaussianBlur stdDeviation="49.5" result="blur"/>
      <feFlood flood-color="#3c485a" flood-opacity="0.149"/>
      <feComposite operator="in" in2="blur"/>
      <feComposite in="SourceGraphic"/>
    </filter>
    <filter id="Path_4528" x="74.289" y="0" width="348" height="348" filterUnits="userSpaceOnUse">
      <feOffset dy="5" input="SourceAlpha"/>
      <feGaussianBlur stdDeviation="49.5" result="blur-2"/>
      <feFlood flood-color="#3c485a" flood-opacity="0.102"/>
      <feComposite operator="in" in2="blur-2"/>
      <feComposite in="SourceGraphic"/>
    </filter>
    <filter id="Path_4522" x="74.289" y="504.803" width="348" height="348" filterUnits="userSpaceOnUse">
      <feOffset dy="5" input="SourceAlpha"/>
      <feGaussianBlur stdDeviation="49.5" result="blur-3"/>
      <feFlood flood-color="#3c485a" flood-opacity="0.102"/>
      <feComposite operator="in" in2="blur-3"/>
      <feComposite in="SourceGraphic"/>
    </filter>
    <linearGradient id="linear-gradient" x1="0.5" y1="1.001" x2="0.5" y2="0.001" gradientUnits="objectBoundingBox">
      <stop offset="0" stop-color="#225fbc"/>
      <stop offset="1" stop-color="#1fb2f0"/>
    </linearGradient>
  </defs>
  <g id="Group_3558" data-name="Group 3558" transform="translate(89.026 -1562.961)">
    <path id="Path_4527" data-name="Path 4527" d="M0,0V102.834" transform="translate(159.702 1751.734)" fill="none" stroke="#cccdd7" stroke-linecap="round" stroke-width="3" stroke-dasharray="1 10"/>
    <path id="Path_4524" data-name="Path 4524" d="M0,0V102.834" transform="translate(158.823 2216.99) rotate(180)" fill="none" stroke="#cccdd7" stroke-linecap="round" stroke-width="3" stroke-dasharray="1 10"/>
    <path id="Path_4525" data-name="Path 4525" d="M130,0A130,130,0,1,1,0,130,130,130,0,0,1,130,0Z" transform="translate(290.261 1854.158) rotate(90)" fill="none" stroke="#d82125" stroke-linecap="round" stroke-width="3" stroke-dasharray="1 10"/>
    <g transform="matrix(1, 0, 0, 1, -89.03, 1562.96)" filter="url(#Path_4526)">
      <path id="Path_4526-2" data-name="Path 4526" d="M101.037,0A101.037,101.037,0,1,1,0,101.037,101.037,101.037,0,0,1,101.037,0Z" transform="translate(148.5 319.91)" fill="#fff"/>
    </g>
    <g id="Group_3147" data-name="Group 3147" transform="translate(109.478 1924.5)">
      <path id="Path_1150" data-name="Path 1150" d="M578.3,215.416c-.018.07-.034.141-.049.212a36.974,36.974,0,0,0,3.681,26.024c.187.336.386.662.574,1a2.826,2.826,0,0,1,.568,1.94,2.4,2.4,0,0,1-1.065,1.615,4.96,4.96,0,0,1-.93.33c-.364.065-.73.131-1.1.18a17.287,17.287,0,0,1-4.689-34.253c.047-.006.093-.009.138-.019a2.559,2.559,0,0,1,1.935.274,2.245,2.245,0,0,1,.937,2.7" transform="translate(-560.432 -161.591)" fill="#3d3d3d"/>
      <ellipse id="Ellipse_123" data-name="Ellipse 123" cx="32.264" cy="32.264" rx="32.264" ry="32.264" transform="translate(21.51 29.96)" fill="#d82225"/>
      <path id="Path_1151" data-name="Path 1151" d="M605.706,194.048c.713-.041.865-.023,1.589-.023a36.787,36.787,0,0,1,27.6,12.427,3.169,3.169,0,0,0,2.163,1.438,2.659,2.659,0,0,0,2.185-.757l.525-.446a21.891,21.891,0,1,0-36.7-16.118,4.336,4.336,0,0,0,.22,1.836,2.544,2.544,0,0,0,2.416,1.643" transform="translate(-553.521 -168.675)" fill="#262626"/>
      <path id="Path_1152" data-name="Path 1152" d="M637.76,242.273q.282.376.54.773A14.6,14.6,0,1,1,613.6,258.591c-.117-.192-.224-.39-.339-.585a1.949,1.949,0,0,1-.26-1.859,2.085,2.085,0,0,1,1.727-1.264,11.294,11.294,0,0,0,1.2-.324,36.888,36.888,0,0,0,17.74-11.4c.231-.268.447-.55.681-.816a2.41,2.41,0,0,1,1.085-.919,1.9,1.9,0,0,1,1.669.185A2.263,2.263,0,0,1,637.76,242.273Z" transform="translate(-551.93 -156.896)" fill="#3d3d3d"/>
    </g>
    <g transform="matrix(1, 0, 0, 1, -89.03, 1562.96)" filter="url(#Path_4528)">
      <path id="Path_4528-2" data-name="Path 4528" d="M5.669,0H44.331A5.669,5.669,0,0,1,50,5.669V44.331A5.669,5.669,0,0,1,44.331,50H5.669A5.669,5.669,0,0,1,0,44.331V5.669A5.669,5.669,0,0,1,5.669,0Z" transform="translate(223.29 144)" fill="#fff" stroke="#b4bbc6" stroke-width="1"/>
    </g>
    <g transform="matrix(1, 0, 0, 1, -89.03, 1562.96)" filter="url(#Path_4522)">
      <path id="Path_4522-2" data-name="Path 4522" d="M5.669,0H44.331A5.669,5.669,0,0,1,50,5.669V44.331A5.669,5.669,0,0,1,44.331,50H5.669A5.669,5.669,0,0,1,0,44.331V5.669A5.669,5.669,0,0,1,5.669,0Z" transform="translate(273.29 698.8) rotate(180)" fill="#fff" stroke="#b4bbc6" stroke-width="1"/>
    </g>
    <path id="Path_4529" data-name="Path 4529" d="M-36.96-1.826a.916.916,0,0,0-.33-.728,3.1,3.1,0,0,0-1.165-.508,4.926,4.926,0,0,1-1.833-.828,1.648,1.648,0,0,1-.642-1.35,1.724,1.724,0,0,1,.71-1.416,2.885,2.885,0,0,1,1.833-.557,2.733,2.733,0,0,1,1.882.63,1.88,1.88,0,0,1,.686,1.514l-.01.029h-1.138a1.145,1.145,0,0,0-.371-.886,1.515,1.515,0,0,0-1.06-.339,1.549,1.549,0,0,0-1,.283.9.9,0,0,0-.349.732.8.8,0,0,0,.378.674,4.19,4.19,0,0,0,1.252.508,4.171,4.171,0,0,1,1.743.85,1.786,1.786,0,0,1,.6,1.382,1.668,1.668,0,0,1-.71,1.414A3.068,3.068,0,0,1-38.352.1a3.318,3.318,0,0,1-1.953-.588A1.809,1.809,0,0,1-41.121-2.1l.01-.029h1.143a1.111,1.111,0,0,0,.449.969,1.967,1.967,0,0,0,1.167.32,1.719,1.719,0,0,0,1.025-.266A.844.844,0,0,0-36.96-1.826Zm6.289.166h-2.783L-34.021,0h-1.2l2.612-7.109h1.123L-28.9,0H-30.11Zm-2.441-.991h2.1l-1.03-3.037h-.029Zm6.221-.044V0h-1.187V-7.109H-25.3a2.634,2.634,0,0,1,1.843.608,2.062,2.062,0,0,1,.667,1.6,2.058,2.058,0,0,1-.667,1.6,2.647,2.647,0,0,1-1.843.6Zm0-.952H-25.3A1.3,1.3,0,0,0-24.309-4a1.249,1.249,0,0,0,.332-.894,1.284,1.284,0,0,0-.332-.9,1.28,1.28,0,0,0-.991-.361h-1.592ZM-19.128,0V-7.109h2.363a3.075,3.075,0,0,1,1.846.486,1.684,1.684,0,0,1,.664,1.453,1.428,1.428,0,0,1-.278.864,1.644,1.644,0,0,1-.771.566,1.585,1.585,0,0,1,.977.61,1.8,1.8,0,0,1,.342,1.089A1.827,1.827,0,0,1-14.641-.52,2.831,2.831,0,0,1-16.448,0Zm1.187-3.232V-.947h1.494a1.427,1.427,0,0,0,.947-.281,1,1,0,0,0,.332-.813,1.277,1.277,0,0,0-.278-.879,1.107,1.107,0,0,0-.869-.312Zm0-.884h1.309a1.338,1.338,0,0,0,.872-.261.9.9,0,0,0,.32-.74.922.922,0,0,0-.337-.784,1.61,1.61,0,0,0-.986-.256h-1.177ZM-9.583-.771a1.808,1.808,0,0,1-.63.647A1.683,1.683,0,0,1-11.091.1a1.679,1.679,0,0,1-1.328-.542A2.5,2.5,0,0,1-12.9-2.124V-5.283h1.182v3.169a1.584,1.584,0,0,0,.225.972.82.82,0,0,0,.679.278,1.526,1.526,0,0,0,.72-.154,1.117,1.117,0,0,0,.457-.447V-5.283H-8.45V0H-9.485Zm5.342-.664a.552.552,0,0,0-.234-.454,2.338,2.338,0,0,0-.874-.317,3.628,3.628,0,0,1-1.433-.569,1.192,1.192,0,0,1-.486-1,1.428,1.428,0,0,1,.562-1.133,2.233,2.233,0,0,1,1.479-.469A2.317,2.317,0,0,1-3.691-4.9a1.41,1.41,0,0,1,.544,1.179l-.01.029H-4.294a.744.744,0,0,0-.249-.562.957.957,0,0,0-.684-.234.978.978,0,0,0-.654.193.6.6,0,0,0-.225.471.529.529,0,0,0,.212.442,2.281,2.281,0,0,0,.862.291,3.631,3.631,0,0,1,1.477.579A1.22,1.22,0,0,1-3.074-1.5,1.385,1.385,0,0,1-3.662-.342,2.507,2.507,0,0,1-5.212.1,2.366,2.366,0,0,1-6.838-.425,1.49,1.49,0,0,1-7.4-1.636l.01-.029h1.1A.791.791,0,0,0-5.959-1a1.334,1.334,0,0,0,.762.21A1.217,1.217,0,0,0-4.49-.962.551.551,0,0,0-4.241-1.436ZM-.745,0H-1.931V-5.283H-.745Zm0-6.577H-1.931v-1.04H-.745Zm2.4,1.294.068.762a1.89,1.89,0,0,1,.652-.632,1.739,1.739,0,0,1,.886-.227,1.663,1.663,0,0,1,1.287.5,2.245,2.245,0,0,1,.461,1.56V0H3.826V-3.311a1.187,1.187,0,0,0-.247-.847,1.007,1.007,0,0,0-.75-.251,1.243,1.243,0,0,0-.62.154,1.282,1.282,0,0,0-.449.422V0H.574V-5.283ZM8.513.1a2.3,2.3,0,0,1-1.79-.735A2.7,2.7,0,0,1,6.057-2.52v-.2a2.8,2.8,0,0,1,.662-1.912,2.093,2.093,0,0,1,1.658-.754,2.065,2.065,0,0,1,1.638.647A2.535,2.535,0,0,1,10.583-3v.7h-3.3l-.01.024a1.664,1.664,0,0,0,.369,1.03,1.166,1.166,0,0,0,.94.4,2.541,2.541,0,0,0,.82-.117,2.688,2.688,0,0,0,.659-.337l.381.776a2.458,2.458,0,0,1-.791.444A3.314,3.314,0,0,1,8.513.1ZM8.376-4.429a.89.89,0,0,0-.723.349,1.719,1.719,0,0,0-.352.886l.01.024H9.407v-.122a1.264,1.264,0,0,0-.256-.82A.936.936,0,0,0,8.376-4.429Zm6.133,2.993a.552.552,0,0,0-.234-.454,2.338,2.338,0,0,0-.874-.317,3.628,3.628,0,0,1-1.433-.569,1.192,1.192,0,0,1-.486-1,1.428,1.428,0,0,1,.562-1.133,2.233,2.233,0,0,1,1.479-.469,2.317,2.317,0,0,1,1.536.476A1.41,1.41,0,0,1,15.6-3.726l-.01.029H14.456a.744.744,0,0,0-.249-.562.957.957,0,0,0-.684-.234.978.978,0,0,0-.654.193.6.6,0,0,0-.225.471.529.529,0,0,0,.212.442,2.281,2.281,0,0,0,.862.291,3.631,3.631,0,0,1,1.477.579A1.22,1.22,0,0,1,15.676-1.5a1.385,1.385,0,0,1-.588,1.157A2.507,2.507,0,0,1,13.538.1a2.366,2.366,0,0,1-1.626-.527,1.49,1.49,0,0,1-.566-1.211l.01-.029h1.1A.791.791,0,0,0,12.791-1a1.334,1.334,0,0,0,.762.21,1.217,1.217,0,0,0,.708-.176A.551.551,0,0,0,14.509-1.436Zm5.2,0a.552.552,0,0,0-.234-.454,2.338,2.338,0,0,0-.874-.317,3.628,3.628,0,0,1-1.433-.569,1.192,1.192,0,0,1-.486-1,1.428,1.428,0,0,1,.562-1.133,2.233,2.233,0,0,1,1.479-.469,2.317,2.317,0,0,1,1.536.476A1.41,1.41,0,0,1,20.8-3.726l-.01.029H19.656a.744.744,0,0,0-.249-.562.957.957,0,0,0-.684-.234.978.978,0,0,0-.654.193.6.6,0,0,0-.225.471.529.529,0,0,0,.212.442,2.281,2.281,0,0,0,.862.291,3.631,3.631,0,0,1,1.477.579A1.22,1.22,0,0,1,20.876-1.5a1.385,1.385,0,0,1-.588,1.157A2.507,2.507,0,0,1,18.738.1a2.366,2.366,0,0,1-1.626-.527,1.49,1.49,0,0,1-.566-1.211l.01-.029h1.1A.791.791,0,0,0,17.991-1a1.334,1.334,0,0,0,.762.21,1.217,1.217,0,0,0,.708-.176A.551.551,0,0,0,19.709-1.436ZM30.125-2.915a3,3,0,0,1-.818,2.161A2.8,2.8,0,0,1,27.185.1a2.709,2.709,0,0,1-2.078-.857,3.046,3.046,0,0,1-.8-2.161V-4.194a3.048,3.048,0,0,1,.8-2.158,2.7,2.7,0,0,1,2.073-.859,2.8,2.8,0,0,1,2.124.859,3,3,0,0,1,.82,2.158ZM28.943-4.2a2.2,2.2,0,0,0-.476-1.46,1.588,1.588,0,0,0-1.287-.571,1.494,1.494,0,0,0-1.235.571,2.274,2.274,0,0,0-.454,1.46v1.289a2.3,2.3,0,0,0,.454,1.472,1.5,1.5,0,0,0,1.24.574,1.579,1.579,0,0,0,1.287-.571,2.241,2.241,0,0,0,.471-1.475Zm3.389-1.079.068.762a1.89,1.89,0,0,1,.652-.632,1.739,1.739,0,0,1,.886-.227,1.663,1.663,0,0,1,1.287.5,2.245,2.245,0,0,1,.461,1.56V0H34.5V-3.311a1.187,1.187,0,0,0-.247-.847,1.007,1.007,0,0,0-.75-.251,1.243,1.243,0,0,0-.62.154,1.282,1.282,0,0,0-.449.422V0H31.248V-5.283ZM39.187.1A2.3,2.3,0,0,1,37.4-.632a2.7,2.7,0,0,1-.667-1.887v-.2a2.8,2.8,0,0,1,.662-1.912,2.093,2.093,0,0,1,1.658-.754,2.065,2.065,0,0,1,1.638.647A2.535,2.535,0,0,1,41.257-3v.7h-3.3l-.01.024a1.664,1.664,0,0,0,.369,1.03,1.166,1.166,0,0,0,.94.4,2.541,2.541,0,0,0,.82-.117A2.688,2.688,0,0,0,40.74-1.3l.381.776a2.458,2.458,0,0,1-.791.444A3.314,3.314,0,0,1,39.187.1ZM39.05-4.429a.89.89,0,0,0-.723.349,1.719,1.719,0,0,0-.352.886l.01.024h2.095v-.122a1.264,1.264,0,0,0-.256-.82A.936.936,0,0,0,39.05-4.429Z" transform="translate(159.263 1693.85)" fill="#b4bbc6"/>
    <path id="Path_4523" data-name="Path 4523" d="M-8.472,0V-7.109h2.363a3.075,3.075,0,0,1,1.846.486A1.684,1.684,0,0,1-3.6-5.171a1.428,1.428,0,0,1-.278.864,1.644,1.644,0,0,1-.771.566,1.585,1.585,0,0,1,.977.61A1.8,1.8,0,0,1-3.33-2.041,1.827,1.827,0,0,1-3.984-.52,2.831,2.831,0,0,1-5.791,0Zm1.187-3.232V-.947h1.494a1.427,1.427,0,0,0,.947-.281,1,1,0,0,0,.332-.813A1.277,1.277,0,0,0-4.79-2.92a1.107,1.107,0,0,0-.869-.312Zm0-.884h1.309A1.338,1.338,0,0,0-5.1-4.377a.9.9,0,0,0,.32-.74A.922.922,0,0,0-5.122-5.9a1.61,1.61,0,0,0-.986-.256H-7.285ZM2.412,0H-2.31V-.815L0-3.34A5.618,5.618,0,0,0,.786-4.358,1.633,1.633,0,0,0,1-5.137a1.182,1.182,0,0,0-.278-.8A.943.943,0,0,0-.029-6.26a1.158,1.158,0,0,0-.928.352,1.433,1.433,0,0,0-.3.967H-2.407l-.01-.029A2.089,2.089,0,0,1-1.8-6.565,2.383,2.383,0,0,1-.029-7.212a2.256,2.256,0,0,1,1.621.566,1.948,1.948,0,0,1,.6,1.479A2.186,2.186,0,0,1,1.843-4,9.833,9.833,0,0,1,.776-2.646L-.806-.977l.015.029h3.2ZM3.618,0V-7.109H5.981a3.075,3.075,0,0,1,1.846.486,1.684,1.684,0,0,1,.664,1.453,1.428,1.428,0,0,1-.278.864,1.644,1.644,0,0,1-.771.566,1.585,1.585,0,0,1,.977.61A1.8,1.8,0,0,1,8.76-2.041,1.827,1.827,0,0,1,8.105-.52,2.831,2.831,0,0,1,6.3,0ZM4.8-3.232V-.947H6.3a1.427,1.427,0,0,0,.947-.281,1,1,0,0,0,.332-.813A1.277,1.277,0,0,0,7.3-2.92a1.107,1.107,0,0,0-.869-.312Zm0-.884H6.113a1.338,1.338,0,0,0,.872-.261.9.9,0,0,0,.32-.74A.922.922,0,0,0,6.968-5.9a1.61,1.61,0,0,0-.986-.256H4.8Z" transform="translate(159.263 2283.096)" fill="#b4bbc6"/>
    <g id="Group_3148" data-name="Group 3148" transform="translate(-10.74 1421.58)">
      <path id="Path_3551" data-name="Path 3551" d="M153.5,319.671h17.425l17.056-17.057H153.5v17.057" transform="translate(0 0)" fill-rule="evenodd" fill="url(#linear-gradient)"/>
      <path id="Path_3552" data-name="Path 3552" d="M178.122,331.915h-3.394v8.069l-2.965-8.069h-2.94l-2.532,6.747c-.268-1.7-2.028-2.289-3.414-2.73-.916-.293-1.884-.726-1.875-1.2.006-.391.521-.755,1.536-.7a5.545,5.545,0,0,1,2.482.67l1.182-2.054a9.189,9.189,0,0,0-3.845-.91h-.008a4.671,4.671,0,0,0-3.394,1.24,2.867,2.867,0,0,0-.813,1.979,2.659,2.659,0,0,0,1.167,2.37,7.965,7.965,0,0,0,2.307,1.056c.942.291,1.711.544,1.7,1.086a.78.78,0,0,1-.222.529,1.492,1.492,0,0,1-1.094.344,4.7,4.7,0,0,1-2.811-.8l-1.049,2.082a7.839,7.839,0,0,0,3.842,1.022h.176a4.643,4.643,0,0,0,2.922-.98c.042-.034.083-.071.124-.107l-.339.91h3.082l.518-1.574a5.885,5.885,0,0,0,3.581.015l.5,1.559h5.027V339.2h1.1c2.651,0,4.22-1.349,4.22-3.612C182.89,333.071,181.366,331.915,178.122,331.915Zm-7.844,6.906a3.077,3.077,0,0,1-1.088-.192l1.076-3.393h.022l1.054,3.4A3.133,3.133,0,0,1,170.278,338.821Zm8.043-1.951h-.748v-2.736h.748c1,0,1.791.331,1.791,1.352,0,1.053-.794,1.384-1.791,1.384" transform="translate(-4.16 -26.094)" fill="#fff" fill-rule="evenodd"/>
      <path id="Path_3553" data-name="Path 3553" d="M359.418,446.6a.9.9,0,1,1,.9.924A.9.9,0,0,1,359.418,446.6Zm.9,1.109A1.106,1.106,0,1,0,359.2,446.6,1.105,1.105,0,0,0,360.319,447.713Zm-.235-1.022h.222l.336.552h.218l-.364-.561a.331.331,0,0,0,.331-.351c0-.251-.149-.363-.449-.363h-.486v1.275h.193Zm0-.164v-.394h.264c.132,0,.275.028.275.187,0,.2-.145.207-.307.207Z" transform="translate(-184.323 -128.04)" fill="#225fbc"/>
    </g>
    <g id="Group_3149" data-name="Group 3149" transform="translate(-881.905 131.199)">
      <g id="Group_2960" data-name="Group 2960" transform="translate(1031.138 2095.9)">
        <path id="Path_3598" data-name="Path 3598" d="M1044.558,2120.047H1032.9a1.764,1.764,0,0,1-1.762-1.762v-20.623a1.764,1.764,0,0,1,1.762-1.762h11.657a1.765,1.765,0,0,1,1.762,1.762v20.623A1.764,1.764,0,0,1,1044.558,2120.047ZM1032.9,2096.5a1.165,1.165,0,0,0-1.164,1.164v20.623a1.165,1.165,0,0,0,1.164,1.164h11.657a1.165,1.165,0,0,0,1.164-1.164v-20.623a1.165,1.165,0,0,0-1.164-1.164Z" transform="translate(-1031.138 -2095.9)" fill="#526279" stroke="#526279" stroke-width="0.3"/>
      </g>
      <g id="Group_2961" data-name="Group 2961" transform="translate(1031.147 2098.932)">
        <rect id="Rectangle_595" data-name="Rectangle 595" width="14.575" height="17.361" transform="translate(0.299 0.299)" fill="#fff"/>
        <path id="Path_3599" data-name="Path 3599" d="M1046.218,2185.694h-14.575a.3.3,0,0,1-.3-.3v-17.362a.3.3,0,0,1,.3-.3h14.575a.3.3,0,0,1,.3.3v17.362A.3.3,0,0,1,1046.218,2185.694Zm-14.276-.6h13.977v-16.763h-13.977Z" transform="translate(-1031.344 -2167.734)" fill="#526279" stroke="#526279" stroke-width="0.3"/>
      </g>
      <path id="Path_3600" data-name="Path 3600" d="M1159.719,2132.518h-4.181a.261.261,0,0,1-.261-.261h0a.261.261,0,0,1,.261-.261h4.181a.261.261,0,0,1,.261.261h0A.261.261,0,0,1,1159.719,2132.518Z" transform="translate(-118.899 -34.573)" fill="#526279"/>
      <g id="Group_2962" data-name="Group 2962" transform="translate(1039.88 2099.038)">
        <line id="Line_58" data-name="Line 58" x1="2.056" y2="2.072" transform="translate(0.299 0.299)" fill="#fff" stroke="#526279" stroke-width="0.3"/>
        <path id="Path_3601" data-name="Path 3601" d="M1238.56,2172.923a.3.3,0,0,1-.212-.51l2.056-2.072a.3.3,0,1,1,.425.421l-2.056,2.072A.3.3,0,0,1,1238.56,2172.923Z" transform="translate(-1238.261 -2170.252)" fill="#526279" stroke="#526279" stroke-width="0.3"/>
      </g>
      <g id="Group_2963" data-name="Group 2963" transform="translate(1041.076 2099.038)">
        <line id="Line_59" data-name="Line 59" x1="3.652" y2="3.68" transform="translate(0.299 0.299)" fill="#fff" stroke="#526279" stroke-width="0.3"/>
        <path id="Path_3602" data-name="Path 3602" d="M1266.9,2174.53a.3.3,0,0,1-.212-.51l3.652-3.68a.3.3,0,1,1,.425.421l-3.651,3.68A.3.3,0,0,1,1266.9,2174.53Z" transform="translate(-1266.598 -2170.252)" fill="#526279" stroke="#526279" stroke-width="0.3"/>
      </g>
      <g id="Group_2964" data-name="Group 2964" transform="translate(1032.394 2112.972)">
        <line id="Line_60" data-name="Line 60" x1="3.296" y2="3.322" transform="translate(0.299 0.299)" fill="#fff" stroke="#526279" stroke-width="0.3"/>
        <path id="Path_3603" data-name="Path 3603" d="M1061.186,2504.278a.3.3,0,0,1-.212-.51l3.3-3.322a.3.3,0,1,1,.425.421l-3.3,3.322A.3.3,0,0,1,1061.186,2504.278Z" transform="translate(-1060.887 -2500.358)" fill="#526279" stroke="#526279" stroke-width="0.3"/>
      </g>
      <g id="Group_2965" data-name="Group 2965" transform="translate(1034.295 2102.591)">
        <path id="Path_3604" data-name="Path 3604" d="M1130.8,2262.668v7.874a1.157,1.157,0,0,1-1.152,1.149H1114.17a1.156,1.156,0,0,1-1.152-1.149v-7.874a1.151,1.151,0,0,1,1.152-1.143h15.476A1.151,1.151,0,0,1,1130.8,2262.668Z" transform="translate(-1112.719 -2261.226)" fill="#fff"/>
        <path id="Path_3605" data-name="Path 3605" d="M1122.857,2265.2h-15.476a1.451,1.451,0,0,1-1.451-1.449v-7.873a1.448,1.448,0,0,1,1.451-1.442h15.476a1.448,1.448,0,0,1,1.451,1.442v7.873A1.451,1.451,0,0,1,1122.857,2265.2Zm-15.476-10.166a.849.849,0,0,0-.853.844v7.873a.852.852,0,0,0,.853.851h15.476a.863.863,0,0,0,.853-.851v-7.873a.85.85,0,0,0-.853-.844Z" transform="translate(-1105.93 -2254.437)" fill="#526279" stroke="#526279" stroke-width="0.3"/>
      </g>
      <g id="Group_2966" data-name="Group 2966" transform="translate(1034.3 2104.396)">
        <path id="Path_3606" data-name="Path 3606" d="M1124.111,2300.147h-17.769a.3.3,0,0,1-.3-.3v-2.374a.3.3,0,0,1,.3-.3h17.769a.3.3,0,0,1,.3.3v2.374A.3.3,0,0,1,1124.111,2300.147Zm-17.47-.6h17.171v-1.775h-17.171Z" transform="translate(-1106.043 -2297.175)" fill="#526279" stroke="#526279" stroke-width="0.3"/>
      </g>
      <rect id="Rectangle_597" data-name="Rectangle 597" width="5.018" height="0.287" rx="0.143" transform="translate(1042.188 2109.679)" fill="#526279" stroke="#526279" stroke-width="0.2"/>
      <rect id="Rectangle_598" data-name="Rectangle 598" width="1.571" height="0.287" rx="0.143" transform="translate(1047.528 2109.679)" fill="#526279" stroke="#526279" stroke-width="0.2"/>
      <rect id="Rectangle_599" data-name="Rectangle 599" width="2.322" height="0.287" rx="0.143" transform="translate(1042.188 2110.395)" fill="#526279" stroke="#526279" stroke-width="0.2"/>
      <rect id="Rectangle_600" data-name="Rectangle 600" width="4.96" height="0.287" rx="0.143" transform="translate(1044.885 2110.395)" fill="#526279" stroke="#526279" stroke-width="0.2"/>
      <rect id="Rectangle_601" data-name="Rectangle 601" width="6.019" height="0.287" rx="0.143" transform="translate(1042.188 2111.072)" fill="#526279" stroke="#526279" stroke-width="0.2"/>
      <g id="Group_2967" data-name="Group 2967" transform="translate(1036.196 2108.584)">
        <path id="Path_3607" data-name="Path 3607" d="M1140.5,2413.666h-3.287a.724.724,0,0,1-.723-.724v-1.327a.724.724,0,0,1,.723-.724h3.287a.724.724,0,0,1,.723.724v1.327A.724.724,0,0,1,1140.5,2413.666Zm-3.287-2.176a.125.125,0,0,0-.125.125v1.327a.125.125,0,0,0,.125.125h3.287a.125.125,0,0,0,.125-.125v-1.327a.125.125,0,0,0-.125-.125Z" transform="translate(-1136.488 -2410.891)" fill="#526279" stroke="#526279" stroke-width="0.2"/>
      </g>
    </g>
  </g>
</svg>
