<svg xmlns="http://www.w3.org/2000/svg" xmlns:xlink="http://www.w3.org/1999/xlink" width="958.928" height="522.615" viewBox="0 0 958.928 522.615">
  <defs>
    <filter id="Path_4453" x="218.336" y="0" width="522.615" height="522.615" filterUnits="userSpaceOnUse">
      <feOffset dy="20" input="SourceAlpha"/>
      <feGaussianBlur stdDeviation="49.5" result="blur"/>
      <feFlood flood-color="#3c485a" flood-opacity="0.149"/>
      <feComposite operator="in" in2="blur"/>
      <feComposite in="SourceGraphic"/>
    </filter>
    <filter id="Path_4454" x="0" y="62.648" width="368" height="368" filterUnits="userSpaceOnUse">
      <feOffset dy="5" input="SourceAlpha"/>
      <feGaussianBlur stdDeviation="49.5" result="blur-2"/>
      <feFlood flood-color="#3c485a" flood-opacity="0.102"/>
      <feComposite operator="in" in2="blur-2"/>
      <feComposite in="SourceGraphic"/>
    </filter>
    <filter id="Path_4455" x="590.928" y="63.029" width="368" height="368" filterUnits="userSpaceOnUse">
      <feOffset dy="5" input="SourceAlpha"/>
      <feGaussianBlur stdDeviation="49.5" result="blur-3"/>
      <feFlood flood-color="#3c485a" flood-opacity="0.102"/>
      <feComposite operator="in" in2="blur-3"/>
      <feComposite in="SourceGraphic"/>
    </filter>
    <linearGradient id="linear-gradient" x1="0.5" y1="1.001" x2="0.5" y2="0.001" gradientUnits="objectBoundingBox">
      <stop offset="0" stop-color="#225fbc"/>
      <stop offset="1" stop-color="#1fb2f0"/>
    </linearGradient>
  </defs>
  <g id="Group_3575" data-name="Group 3575" transform="translate(-242.328 -1366.336)">
    <path id="Path_4456" data-name="Path 4456" d="M0,0H128" transform="translate(448.828 1608.725)" fill="none" stroke="#cccdd7" stroke-linecap="round" stroke-width="3" stroke-dasharray="1 10"/>
    <path id="Path_4457" data-name="Path 4457" d="M0,0H128" transform="translate(994.823 1608.244) rotate(180)" fill="none" stroke="#cccdd7" stroke-linecap="round" stroke-width="3" stroke-dasharray="1 10"/>
    <path id="Path_4452" data-name="Path 4452" d="M145.144,0A145.144,145.144,0,1,1,0,145.144,145.144,145.144,0,0,1,145.144,0Z" transform="translate(576.828 1462.5)" fill="none" stroke="#d82125" stroke-linecap="round" stroke-width="3" stroke-dasharray="1 10"/>
    <g transform="matrix(1, 0, 0, 1, 242.33, 1366.34)" filter="url(#Path_4453)">
      <path id="Path_4453-2" data-name="Path 4453" d="M112.808,0A112.808,112.808,0,1,1,0,112.808,112.808,112.808,0,0,1,112.808,0Z" transform="translate(366.84 128.5)" fill="#fff"/>
    </g>
    <g id="Group_3109" data-name="Group 3109" transform="translate(664.992 1541.316)">
      <path id="Path_1150" data-name="Path 1150" d="M580.378,215.772c-.02.078-.038.157-.055.236a41.281,41.281,0,0,0,4.109,29.056c.209.375.431.74.641,1.113a3.156,3.156,0,0,1,.635,2.166,2.678,2.678,0,0,1-1.189,1.8,5.537,5.537,0,0,1-1.038.368c-.406.073-.815.147-1.229.2a19.3,19.3,0,0,1-5.236-38.244c.052-.006.1-.01.154-.021a2.858,2.858,0,0,1,2.16.306,2.506,2.506,0,0,1,1.046,3.014" transform="translate(-560.432 -155.676)" fill="#3d3d3d"/>
      <ellipse id="Ellipse_123" data-name="Ellipse 123" cx="36.023" cy="36.023" rx="36.023" ry="36.023" transform="translate(24.016 33.45)" fill="#d82225"/>
      <path id="Path_1151" data-name="Path 1151" d="M606.015,197c.8-.045.965-.026,1.774-.026a41.072,41.072,0,0,1,30.821,13.875,3.538,3.538,0,0,0,2.415,1.605,2.969,2.969,0,0,0,2.439-.845l.587-.5a24.442,24.442,0,1,0-40.978-18,4.842,4.842,0,0,0,.245,2.05,2.84,2.84,0,0,0,2.7,1.835" transform="translate(-547.751 -168.675)" fill="#262626"/>
      <path id="Path_1152" data-name="Path 1152" d="M640.66,242.385q.315.42.6.863A16.3,16.3,0,1,1,613.68,260.6c-.131-.214-.25-.436-.379-.653a2.176,2.176,0,0,1-.291-2.076,2.328,2.328,0,0,1,1.928-1.412,12.615,12.615,0,0,0,1.34-.362,41.185,41.185,0,0,0,19.807-12.728c.258-.3.5-.614.76-.911a2.69,2.69,0,0,1,1.212-1.026,2.115,2.115,0,0,1,1.863.206A2.526,2.526,0,0,1,640.66,242.385Z" transform="translate(-544.832 -147.062)" fill="#3d3d3d"/>
    </g>
    <g transform="matrix(1, 0, 0, 1, 242.33, 1366.34)" filter="url(#Path_4454)">
      <path id="Path_4454-2" data-name="Path 4454" d="M5.669,0H64.331A5.669,5.669,0,0,1,70,5.669V64.331A5.669,5.669,0,0,1,64.331,70H5.669A5.669,5.669,0,0,1,0,64.331V5.669A5.669,5.669,0,0,1,5.669,0Z" transform="translate(149 206.65)" fill="#fff" stroke="#b4bbc6" stroke-width="1"/>
    </g>
    <path id="Path_4458" data-name="Path 4458" d="M-51.745-2.557a1.282,1.282,0,0,0-.461-1.019,4.334,4.334,0,0,0-1.63-.711A6.9,6.9,0,0,1-56.4-5.445a2.307,2.307,0,0,1-.9-1.89,2.414,2.414,0,0,1,.995-1.982,4.039,4.039,0,0,1,2.567-.779,3.826,3.826,0,0,1,2.635.882,2.632,2.632,0,0,1,.96,2.119l-.014.041h-1.593a1.6,1.6,0,0,0-.52-1.241,2.121,2.121,0,0,0-1.483-.475,2.169,2.169,0,0,0-1.4.4,1.26,1.26,0,0,0-.489,1.025,1.121,1.121,0,0,0,.53.943,5.867,5.867,0,0,0,1.753.711A5.839,5.839,0,0,1-50.917-4.5a2.5,2.5,0,0,1,.834,1.935,2.335,2.335,0,0,1-.995,1.979,4.3,4.3,0,0,1-2.615.735A4.645,4.645,0,0,1-56.427-.68a2.532,2.532,0,0,1-1.142-2.259l.014-.041h1.6a1.555,1.555,0,0,0,.629,1.357,2.754,2.754,0,0,0,1.634.448,2.406,2.406,0,0,0,1.436-.373A1.182,1.182,0,0,0-51.745-2.557Zm8.8.232h-3.9L-47.629,0h-1.682l3.657-9.953h1.572L-40.465,0h-1.688Zm-3.418-1.388h2.946l-1.442-4.252H-44.9Zm8.709-.062V0H-39.31V-9.953h3.89A3.687,3.687,0,0,1-32.84-9.1a2.886,2.886,0,0,1,.933,2.239,2.881,2.881,0,0,1-.933,2.246,3.706,3.706,0,0,1-2.581.844Zm0-1.333h2.229A1.821,1.821,0,0,0-34.033-5.6a1.749,1.749,0,0,0,.465-1.251,1.8,1.8,0,0,0-.465-1.265A1.793,1.793,0,0,0-35.42-8.62h-2.229ZM-26.78,0V-9.953h3.309a4.3,4.3,0,0,1,2.584.68,2.357,2.357,0,0,1,.93,2.034,2,2,0,0,1-.39,1.21,2.3,2.3,0,0,1-1.08.793,2.219,2.219,0,0,1,1.367.854,2.519,2.519,0,0,1,.479,1.524A2.558,2.558,0,0,1-20.5-.728,3.963,3.963,0,0,1-23.027,0Zm1.661-4.525v3.2h2.092A2,2,0,0,0-21.7-1.719a1.407,1.407,0,0,0,.465-1.138,1.788,1.788,0,0,0-.39-1.23,1.549,1.549,0,0,0-1.217-.437Zm0-1.237h1.832a1.873,1.873,0,0,0,1.22-.366,1.261,1.261,0,0,0,.448-1.036,1.291,1.291,0,0,0-.472-1.1,2.254,2.254,0,0,0-1.381-.359h-1.647Zm11.7,4.683a2.531,2.531,0,0,1-.882.906,2.357,2.357,0,0,1-1.23.318,2.351,2.351,0,0,1-1.859-.759,3.5,3.5,0,0,1-.67-2.358V-7.4H-16.4V-2.96a2.217,2.217,0,0,0,.314,1.36,1.148,1.148,0,0,0,.95.39,2.136,2.136,0,0,0,1.008-.215,1.564,1.564,0,0,0,.639-.625V-7.4h1.661V0h-1.449Zm7.479-.93a.772.772,0,0,0-.328-.636A3.273,3.273,0,0,0-7.489-3.09a5.079,5.079,0,0,1-2.006-.8,1.669,1.669,0,0,1-.68-1.4,2,2,0,0,1,.786-1.586,3.126,3.126,0,0,1,2.071-.656,3.244,3.244,0,0,1,2.15.667,1.974,1.974,0,0,1,.762,1.651l-.014.041H-6.012a1.042,1.042,0,0,0-.349-.786,1.34,1.34,0,0,0-.957-.328,1.369,1.369,0,0,0-.916.27.838.838,0,0,0-.314.66.74.74,0,0,0,.3.619,3.193,3.193,0,0,0,1.207.407,5.083,5.083,0,0,1,2.068.81A1.708,1.708,0,0,1-4.3-2.1a1.939,1.939,0,0,1-.824,1.62A3.51,3.51,0,0,1-7.3.144,3.313,3.313,0,0,1-9.574-.595a2.085,2.085,0,0,1-.793-1.7l.014-.041h1.545a1.108,1.108,0,0,0,.465.937A1.868,1.868,0,0,0-7.277-1.1a1.7,1.7,0,0,0,.991-.246A.772.772,0,0,0-5.937-2.01ZM-1.042,0H-2.7V-7.4h1.661Zm0-9.208H-2.7v-1.456h1.661ZM2.321-7.4l.1,1.066a2.646,2.646,0,0,1,.913-.885A2.435,2.435,0,0,1,4.57-7.533a2.328,2.328,0,0,1,1.8.7,3.143,3.143,0,0,1,.646,2.184V0H5.356V-4.635a1.661,1.661,0,0,0-.345-1.186,1.41,1.41,0,0,0-1.049-.352,1.74,1.74,0,0,0-.868.215,1.8,1.8,0,0,0-.629.591V0H.8V-7.4Zm9.6,7.54A3.216,3.216,0,0,1,9.413-.885,3.782,3.782,0,0,1,8.48-3.527V-3.8a3.927,3.927,0,0,1,.926-2.676,2.93,2.93,0,0,1,2.321-1.056,2.891,2.891,0,0,1,2.293.906,3.549,3.549,0,0,1,.8,2.43v.978H10.2l-.014.034a2.329,2.329,0,0,0,.516,1.442,1.632,1.632,0,0,0,1.316.561,3.557,3.557,0,0,0,1.148-.164,3.763,3.763,0,0,0,.923-.472l.533,1.087a3.441,3.441,0,0,1-1.107.622A4.64,4.64,0,0,1,11.918.144ZM11.727-6.2a1.246,1.246,0,0,0-1.012.489,2.407,2.407,0,0,0-.492,1.241l.014.034h2.933v-.171a1.77,1.77,0,0,0-.359-1.148A1.31,1.31,0,0,0,11.727-6.2Zm8.586,4.19a.772.772,0,0,0-.328-.636,3.273,3.273,0,0,0-1.224-.444,5.079,5.079,0,0,1-2.006-.8,1.669,1.669,0,0,1-.68-1.4,2,2,0,0,1,.786-1.586,3.126,3.126,0,0,1,2.071-.656,3.244,3.244,0,0,1,2.15.667,1.974,1.974,0,0,1,.762,1.651l-.014.041H20.238a1.042,1.042,0,0,0-.349-.786,1.34,1.34,0,0,0-.957-.328,1.369,1.369,0,0,0-.916.27.838.838,0,0,0-.314.66.74.74,0,0,0,.3.619,3.193,3.193,0,0,0,1.207.407,5.083,5.083,0,0,1,2.068.81A1.708,1.708,0,0,1,21.947-2.1a1.939,1.939,0,0,1-.824,1.62,3.51,3.51,0,0,1-2.17.622,3.313,3.313,0,0,1-2.276-.738,2.085,2.085,0,0,1-.793-1.7l.014-.041h1.545a1.108,1.108,0,0,0,.465.937,1.868,1.868,0,0,0,1.066.294,1.7,1.7,0,0,0,.991-.246A.772.772,0,0,0,20.313-2.01Zm7.28,0a.772.772,0,0,0-.328-.636,3.273,3.273,0,0,0-1.224-.444,5.079,5.079,0,0,1-2.006-.8,1.669,1.669,0,0,1-.68-1.4,2,2,0,0,1,.786-1.586,3.126,3.126,0,0,1,2.071-.656,3.244,3.244,0,0,1,2.15.667,1.974,1.974,0,0,1,.762,1.651l-.014.041H27.518a1.042,1.042,0,0,0-.349-.786,1.34,1.34,0,0,0-.957-.328,1.369,1.369,0,0,0-.916.27.838.838,0,0,0-.314.66.74.74,0,0,0,.3.619,3.193,3.193,0,0,0,1.207.407,5.083,5.083,0,0,1,2.068.81A1.708,1.708,0,0,1,29.227-2.1,1.939,1.939,0,0,1,28.4-.479a3.51,3.51,0,0,1-2.17.622,3.313,3.313,0,0,1-2.276-.738,2.085,2.085,0,0,1-.793-1.7l.014-.041h1.545a1.108,1.108,0,0,0,.465.937,1.868,1.868,0,0,0,1.066.294,1.7,1.7,0,0,0,.991-.246A.772.772,0,0,0,27.593-2.01ZM42.174-4.081a4.206,4.206,0,0,1-1.145,3.025,3.921,3.921,0,0,1-2.97,1.2,3.793,3.793,0,0,1-2.909-1.2,4.264,4.264,0,0,1-1.118-3.025V-5.872A4.267,4.267,0,0,1,35.15-8.894a3.779,3.779,0,0,1,2.9-1.2,3.926,3.926,0,0,1,2.974,1.2,4.2,4.2,0,0,1,1.148,3.021Zm-1.654-1.8a3.085,3.085,0,0,0-.667-2.044,2.223,2.223,0,0,0-1.8-.8,2.091,2.091,0,0,0-1.729.8,3.183,3.183,0,0,0-.636,2.044v1.8a3.22,3.22,0,0,0,.636,2.061,2.1,2.1,0,0,0,1.736.8,2.21,2.21,0,0,0,1.8-.8,3.138,3.138,0,0,0,.66-2.064ZM45.264-7.4l.1,1.066a2.646,2.646,0,0,1,.913-.885,2.435,2.435,0,0,1,1.241-.318,2.328,2.328,0,0,1,1.8.7,3.143,3.143,0,0,1,.646,2.184V0H48.3V-4.635a1.661,1.661,0,0,0-.345-1.186A1.41,1.41,0,0,0,46.9-6.173a1.74,1.74,0,0,0-.868.215,1.8,1.8,0,0,0-.629.591V0H43.747V-7.4Zm9.6,7.54A3.216,3.216,0,0,1,52.356-.885a3.782,3.782,0,0,1-.933-2.642V-3.8a3.927,3.927,0,0,1,.926-2.676A2.93,2.93,0,0,1,54.67-7.533a2.891,2.891,0,0,1,2.293.906,3.549,3.549,0,0,1,.8,2.43v.978H53.146l-.014.034a2.329,2.329,0,0,0,.516,1.442,1.632,1.632,0,0,0,1.316.561,3.557,3.557,0,0,0,1.148-.164,3.763,3.763,0,0,0,.923-.472l.533,1.087a3.441,3.441,0,0,1-1.107.622A4.64,4.64,0,0,1,54.862.144ZM54.67-6.2a1.246,1.246,0,0,0-1.012.489,2.407,2.407,0,0,0-.492,1.241l.014.034h2.933v-.171a1.77,1.77,0,0,0-.359-1.148A1.31,1.31,0,0,0,54.67-6.2Z" transform="translate(426.328 1560.252)" fill="#b4bbc6"/>
    <g transform="matrix(1, 0, 0, 1, 242.33, 1366.34)" filter="url(#Path_4455)">
      <path id="Path_4455-2" data-name="Path 4455" d="M5.669,0H64.331A5.669,5.669,0,0,1,70,5.669V64.331A5.669,5.669,0,0,1,64.331,70H5.669A5.669,5.669,0,0,1,0,64.331V5.669A5.669,5.669,0,0,1,5.669,0Z" transform="translate(739.93 207.03)" fill="#fff" stroke="#b4bbc6" stroke-width="1"/>
    </g>
    <path id="Path_4459" data-name="Path 4459" d="M-11.86,0V-9.953h3.309a4.3,4.3,0,0,1,2.584.68,2.357,2.357,0,0,1,.93,2.034,2,2,0,0,1-.39,1.21,2.3,2.3,0,0,1-1.08.793,2.219,2.219,0,0,1,1.367.854,2.519,2.519,0,0,1,.479,1.524A2.558,2.558,0,0,1-5.578-.728,3.963,3.963,0,0,1-8.107,0ZM-10.2-4.525v3.2h2.092a2,2,0,0,0,1.326-.393,1.407,1.407,0,0,0,.465-1.138,1.788,1.788,0,0,0-.39-1.23,1.549,1.549,0,0,0-1.217-.437Zm0-1.237h1.832a1.873,1.873,0,0,0,1.22-.366A1.261,1.261,0,0,0-6.7-7.164a1.291,1.291,0,0,0-.472-1.1A2.254,2.254,0,0,0-8.552-8.62H-10.2ZM3.377,0h-6.61V-1.142L.007-4.676A7.866,7.866,0,0,0,1.1-6.1a2.286,2.286,0,0,0,.3-1.09,1.655,1.655,0,0,0-.39-1.121A1.32,1.32,0,0,0-.041-8.764a1.622,1.622,0,0,0-1.3.492,2.007,2.007,0,0,0-.424,1.354H-3.37l-.014-.041a2.925,2.925,0,0,1,.868-2.232A3.337,3.337,0,0,1-.041-10.1a3.158,3.158,0,0,1,2.27.793,2.728,2.728,0,0,1,.834,2.071A3.06,3.06,0,0,1,2.581-5.6,13.766,13.766,0,0,1,1.087-3.705L-1.128-1.367l.021.041H3.377ZM5.065,0V-9.953H8.374a4.3,4.3,0,0,1,2.584.68,2.357,2.357,0,0,1,.93,2.034,2,2,0,0,1-.39,1.21,2.3,2.3,0,0,1-1.08.793,2.219,2.219,0,0,1,1.367.854,2.519,2.519,0,0,1,.479,1.524,2.558,2.558,0,0,1-.916,2.129A3.963,3.963,0,0,1,8.818,0ZM6.727-4.525v3.2H8.818a2,2,0,0,0,1.326-.393,1.407,1.407,0,0,0,.465-1.138,1.788,1.788,0,0,0-.39-1.23A1.549,1.549,0,0,0,9-4.525Zm0-1.237H8.559a1.873,1.873,0,0,0,1.22-.366,1.261,1.261,0,0,0,.448-1.036,1.291,1.291,0,0,0-.472-1.1A2.254,2.254,0,0,0,8.374-8.62H6.727Z" transform="translate(1017.256 1560.252)" fill="#b4bbc6"/>
    <g id="Group_3114" data-name="Group 3114" transform="translate(-31.498 -507.287)">
      <g id="Group_2960" data-name="Group 2960" transform="translate(1031.138 2095.9)">
        <path id="Path_3598" data-name="Path 3598" d="M1053.093,2135.406h-19.072a2.886,2.886,0,0,1-2.883-2.883v-33.74a2.887,2.887,0,0,1,2.883-2.883h19.072a2.887,2.887,0,0,1,2.883,2.883v33.74A2.886,2.886,0,0,1,1053.093,2135.406Zm-19.072-38.527a1.907,1.907,0,0,0-1.9,1.9v33.74a1.906,1.906,0,0,0,1.9,1.9h19.072a1.906,1.906,0,0,0,1.9-1.9v-33.74a1.907,1.907,0,0,0-1.9-1.9Z" transform="translate(-1031.138 -2095.9)" fill="#526279" stroke="#526279" stroke-width="0.5"/>
      </g>
      <g id="Group_2961" data-name="Group 2961" transform="translate(1031.152 2100.86)">
        <rect id="Rectangle_595" data-name="Rectangle 595" width="23.845" height="28.404" transform="translate(0.489 0.489)" fill="#fff"/>
        <path id="Path_3599" data-name="Path 3599" d="M1055.678,2197.116h-23.845a.489.489,0,0,1-.49-.489v-28.4a.489.489,0,0,1,.49-.489h23.845a.489.489,0,0,1,.49.489v28.4A.489.489,0,0,1,1055.678,2197.116Zm-23.355-.979h22.866v-27.425h-22.866Z" transform="translate(-1031.344 -2167.734)" fill="#526279" stroke="#526279" stroke-width="0.5"/>
      </g>
      <path id="Path_3600" data-name="Path 3600" d="M1162.544,2132.849h-6.84a.428.428,0,0,1-.427-.426h0a.428.428,0,0,1,.427-.427h6.84a.428.428,0,0,1,.427.427h0A.428.428,0,0,1,1162.544,2132.849Z" transform="translate(-115.567 -33.604)" fill="#526279"/>
      <g id="Group_2962" data-name="Group 2962" transform="translate(1045.441 2101.034)">
        <line id="Line_58" data-name="Line 58" x1="3.364" y2="3.39" transform="translate(0.489 0.489)" fill="#fff" stroke="#526279" stroke-width="0.5"/>
        <path id="Path_3601" data-name="Path 3601" d="M1238.75,2174.621a.489.489,0,0,1-.347-.834l3.364-3.39a.489.489,0,1,1,.695.689l-3.364,3.39A.489.489,0,0,1,1238.75,2174.621Z" transform="translate(-1238.261 -2170.252)" fill="#526279" stroke="#526279" stroke-width="0.5"/>
      </g>
      <g id="Group_2963" data-name="Group 2963" transform="translate(1047.397 2101.034)">
        <line id="Line_59" data-name="Line 59" x1="5.974" y2="6.021" transform="translate(0.49 0.489)" fill="#fff" stroke="#526279" stroke-width="0.5"/>
        <path id="Path_3602" data-name="Path 3602" d="M1267.087,2177.251a.489.489,0,0,1-.347-.834l5.974-6.021a.489.489,0,1,1,.695.689l-5.974,6.021A.488.488,0,0,1,1267.087,2177.251Z" transform="translate(-1266.598 -2170.252)" fill="#526279" stroke="#526279" stroke-width="0.5"/>
      </g>
      <g id="Group_2964" data-name="Group 2964" transform="translate(1033.192 2123.83)">
        <line id="Line_60" data-name="Line 60" x1="5.392" y2="5.435" transform="translate(0.489 0.489)" fill="#fff" stroke="#526279" stroke-width="0.5"/>
        <path id="Path_3603" data-name="Path 3603" d="M1061.376,2506.772a.49.49,0,0,1-.347-.834l5.392-5.435a.489.489,0,0,1,.695.689l-5.392,5.435A.488.488,0,0,1,1061.376,2506.772Z" transform="translate(-1060.887 -2500.358)" fill="#526279" stroke="#526279" stroke-width="0.5"/>
      </g>
      <g id="Group_2965" data-name="Group 2965" transform="translate(1036.303 2106.847)">
        <path id="Path_3604" data-name="Path 3604" d="M1142.106,2263.4v12.881a1.893,1.893,0,0,1-1.885,1.881H1114.9a1.892,1.892,0,0,1-1.884-1.881V2263.4a1.883,1.883,0,0,1,1.884-1.87h25.319A1.884,1.884,0,0,1,1142.106,2263.4Z" transform="translate(-1112.529 -2261.036)" fill="#fff"/>
        <path id="Path_3605" data-name="Path 3605" d="M1133.623,2272.047H1108.3a2.374,2.374,0,0,1-2.374-2.37V2256.8a2.369,2.369,0,0,1,2.374-2.359h25.319A2.369,2.369,0,0,1,1136,2256.8v12.881A2.374,2.374,0,0,1,1133.623,2272.047Zm-25.319-16.632a1.389,1.389,0,0,0-1.395,1.381v12.881a1.394,1.394,0,0,0,1.395,1.391h25.319a1.412,1.412,0,0,0,1.4-1.391V2256.8a1.39,1.39,0,0,0-1.4-1.381Z" transform="translate(-1105.93 -2254.437)" fill="#526279" stroke="#526279" stroke-width="0.5"/>
      </g>
      <g id="Group_2966" data-name="Group 2966" transform="translate(1036.31 2109.799)">
        <path id="Path_3606" data-name="Path 3606" d="M1135.6,2302.037h-29.071a.489.489,0,0,1-.49-.489v-3.883a.489.489,0,0,1,.49-.489H1135.6a.489.489,0,0,1,.49.489v3.883A.489.489,0,0,1,1135.6,2302.037Zm-28.582-.979h28.092v-2.9h-28.092Z" transform="translate(-1106.043 -2297.175)" fill="#526279" stroke="#526279" stroke-width="0.5"/>
      </g>
      <rect id="Rectangle_597" data-name="Rectangle 597" width="8.21" height="0.469" rx="0.235" transform="translate(1049.217 2118.443)" fill="#526279" stroke="#526279" stroke-width="0.2"/>
      <rect id="Rectangle_598" data-name="Rectangle 598" width="2.571" height="0.469" rx="0.235" transform="translate(1057.953 2118.443)" fill="#526279" stroke="#526279" stroke-width="0.2"/>
      <rect id="Rectangle_599" data-name="Rectangle 599" width="3.798" height="0.469" rx="0.235" transform="translate(1049.217 2119.614)" fill="#526279" stroke="#526279" stroke-width="0.2"/>
      <rect id="Rectangle_600" data-name="Rectangle 600" width="8.114" height="0.469" rx="0.235" transform="translate(1053.629 2119.614)" fill="#526279" stroke="#526279" stroke-width="0.2"/>
      <rect id="Rectangle_601" data-name="Rectangle 601" width="9.847" height="0.469" rx="0.235" transform="translate(1049.217 2120.721)" fill="#526279" stroke="#526279" stroke-width="0.2"/>
      <g id="Group_2967" data-name="Group 2967" transform="translate(1039.413 2116.651)">
        <path id="Path_3607" data-name="Path 3607" d="M1143.05,2415.43h-5.378a1.185,1.185,0,0,1-1.184-1.184v-2.171a1.185,1.185,0,0,1,1.184-1.184h5.378a1.185,1.185,0,0,1,1.184,1.184v2.171A1.185,1.185,0,0,1,1143.05,2415.43Zm-5.378-3.56a.2.2,0,0,0-.2.2v2.171a.2.2,0,0,0,.2.2h5.378a.2.2,0,0,0,.2-.2v-2.171a.2.2,0,0,0-.2-.2Z" transform="translate(-1136.488 -2410.891)" fill="#526279" stroke="#526279" stroke-width="0.5"/>
      </g>
    </g>
    <g id="Group_3122" data-name="Group 3122" transform="translate(249.926 1293.803)">
      <path id="Path_3551" data-name="Path 3551" d="M153.5,325.746h23.631l23.13-23.132H153.5v23.132" transform="translate(0 0)" fill-rule="evenodd" fill="url(#linear-gradient)"/>
      <path id="Path_3552" data-name="Path 3552" d="M185.239,331.979h-4.6v10.943l-4.021-10.943h-3.987l-3.434,9.151c-.364-2.306-2.751-3.1-4.629-3.7-1.242-.4-2.555-.984-2.543-1.632.008-.531.706-1.024,2.083-.95a7.521,7.521,0,0,1,3.367.908l1.6-2.785a12.461,12.461,0,0,0-5.214-1.234h-.011a6.334,6.334,0,0,0-4.6,1.682,3.888,3.888,0,0,0-1.1,2.684,3.605,3.605,0,0,0,1.582,3.215,10.8,10.8,0,0,0,3.128,1.433c1.277.394,2.32.738,2.308,1.472a1.057,1.057,0,0,1-.3.718,2.023,2.023,0,0,1-1.484.466,6.374,6.374,0,0,1-3.812-1.088l-1.422,2.823a10.631,10.631,0,0,0,5.21,1.386l.239,0a6.3,6.3,0,0,0,3.963-1.329c.057-.046.113-.1.168-.145l-.46,1.234h4.18l.7-2.134a7.982,7.982,0,0,0,4.857.02l.676,2.115h6.818v-4.42h1.487c3.595,0,5.723-1.83,5.723-4.9C191.7,333.547,189.638,331.979,185.239,331.979ZM174.6,341.345a4.173,4.173,0,0,1-1.475-.261l1.46-4.6h.03l1.43,4.615A4.249,4.249,0,0,1,174.6,341.345Zm10.908-2.646h-1.015v-3.71h1.015c1.353,0,2.429.449,2.429,1.834,0,1.428-1.076,1.877-2.429,1.877" transform="translate(-3.988 -25.016)" fill="#fff" fill-rule="evenodd"/>
      <path id="Path_3553" data-name="Path 3553" d="M359.5,447a1.218,1.218,0,1,1,1.222,1.253A1.215,1.215,0,0,1,359.5,447Zm1.222,1.5A1.5,1.5,0,1,0,359.2,447,1.5,1.5,0,0,0,360.719,448.5Zm-.318-1.386h.3l.455.749h.295l-.494-.761a.449.449,0,0,0,.449-.476c0-.341-.2-.492-.61-.492h-.659v1.729h.261Zm0-.223v-.534h.358c.179,0,.372.038.372.253,0,.267-.2.281-.416.281Z" transform="translate(-176.71 -122.752)" fill="#225fbc"/>
    </g>
  </g>
</svg>
